G04 #@! TF.GenerationSoftware,KiCad,Pcbnew,5.99.0+really5.1.10+dfsg1-1*
G04 #@! TF.CreationDate,2022-03-07T14:48:36+01:00*
G04 #@! TF.ProjectId,Raspberry Pi Zero W,52617370-6265-4727-9279-205069205a65,1.0.8*
G04 #@! TF.SameCoordinates,Original*
G04 #@! TF.FileFunction,Soldermask,Top*
G04 #@! TF.FilePolarity,Negative*
%FSLAX46Y46*%
G04 Gerber Fmt 4.6, Leading zero omitted, Abs format (unit mm)*
G04 Created by KiCad (PCBNEW 5.99.0+really5.1.10+dfsg1-1) date 2022-03-07 14:48:36*
%MOMM*%
%LPD*%
G01*
G04 APERTURE LIST*
%ADD10C,1.254000*%
%ADD11C,6.200000*%
%ADD12O,1.802000X2.102000*%
%ADD13O,1.802000X2.052000*%
%ADD14O,1.802000X1.802000*%
%ADD15C,1.102000*%
%ADD16C,0.100000*%
G04 APERTURE END LIST*
G36*
G01*
X134851501Y-96471000D02*
X135242501Y-96471000D01*
G75*
G02*
X135408001Y-96636500I0J-165500D01*
G01*
X135408001Y-96967500D01*
G75*
G02*
X135242501Y-97133000I-165500J0D01*
G01*
X134851501Y-97133000D01*
G75*
G02*
X134686001Y-96967500I0J165500D01*
G01*
X134686001Y-96636500D01*
G75*
G02*
X134851501Y-96471000I165500J0D01*
G01*
G37*
G36*
G01*
X134851501Y-97431000D02*
X135242501Y-97431000D01*
G75*
G02*
X135408001Y-97596500I0J-165500D01*
G01*
X135408001Y-97927500D01*
G75*
G02*
X135242501Y-98093000I-165500J0D01*
G01*
X134851501Y-98093000D01*
G75*
G02*
X134686001Y-97927500I0J165500D01*
G01*
X134686001Y-97596500D01*
G75*
G02*
X134851501Y-97431000I165500J0D01*
G01*
G37*
G36*
G01*
X128657000Y-104284000D02*
X128657000Y-104885000D01*
G75*
G02*
X128431500Y-105110500I-225500J0D01*
G01*
X127980500Y-105110500D01*
G75*
G02*
X127755000Y-104885000I0J225500D01*
G01*
X127755000Y-104284000D01*
G75*
G02*
X127980500Y-104058500I225500J0D01*
G01*
X128431500Y-104058500D01*
G75*
G02*
X128657000Y-104284000I0J-225500D01*
G01*
G37*
G36*
G01*
X127007000Y-104284000D02*
X127007000Y-104885000D01*
G75*
G02*
X126781500Y-105110500I-225500J0D01*
G01*
X126330500Y-105110500D01*
G75*
G02*
X126105000Y-104885000I0J225500D01*
G01*
X126105000Y-104284000D01*
G75*
G02*
X126330500Y-104058500I225500J0D01*
G01*
X126781500Y-104058500D01*
G75*
G02*
X127007000Y-104284000I0J-225500D01*
G01*
G37*
D10*
X123380500Y-116586000D03*
X173736000Y-116776500D03*
G36*
G01*
X158960000Y-115971600D02*
X158960000Y-114660400D01*
G75*
G02*
X159230400Y-114390000I270400J0D01*
G01*
X160041600Y-114390000D01*
G75*
G02*
X160312000Y-114660400I0J-270400D01*
G01*
X160312000Y-115971600D01*
G75*
G02*
X160041600Y-116242000I-270400J0D01*
G01*
X159230400Y-116242000D01*
G75*
G02*
X158960000Y-115971600I0J270400D01*
G01*
G37*
G36*
G01*
X161760000Y-115971600D02*
X161760000Y-114660400D01*
G75*
G02*
X162030400Y-114390000I270400J0D01*
G01*
X162841600Y-114390000D01*
G75*
G02*
X163112000Y-114660400I0J-270400D01*
G01*
X163112000Y-115971600D01*
G75*
G02*
X162841600Y-116242000I-270400J0D01*
G01*
X162030400Y-116242000D01*
G75*
G02*
X161760000Y-115971600I0J270400D01*
G01*
G37*
G36*
G01*
X136193000Y-107246500D02*
X136193000Y-107637500D01*
G75*
G02*
X136027500Y-107803000I-165500J0D01*
G01*
X135696500Y-107803000D01*
G75*
G02*
X135531000Y-107637500I0J165500D01*
G01*
X135531000Y-107246500D01*
G75*
G02*
X135696500Y-107081000I165500J0D01*
G01*
X136027500Y-107081000D01*
G75*
G02*
X136193000Y-107246500I0J-165500D01*
G01*
G37*
G36*
G01*
X135233000Y-107246500D02*
X135233000Y-107637500D01*
G75*
G02*
X135067500Y-107803000I-165500J0D01*
G01*
X134736500Y-107803000D01*
G75*
G02*
X134571000Y-107637500I0J165500D01*
G01*
X134571000Y-107246500D01*
G75*
G02*
X134736500Y-107081000I165500J0D01*
G01*
X135067500Y-107081000D01*
G75*
G02*
X135233000Y-107246500I0J-165500D01*
G01*
G37*
G36*
G01*
X169538000Y-115870500D02*
X169538000Y-115269500D01*
G75*
G02*
X169763500Y-115044000I225500J0D01*
G01*
X170214500Y-115044000D01*
G75*
G02*
X170440000Y-115269500I0J-225500D01*
G01*
X170440000Y-115870500D01*
G75*
G02*
X170214500Y-116096000I-225500J0D01*
G01*
X169763500Y-116096000D01*
G75*
G02*
X169538000Y-115870500I0J225500D01*
G01*
G37*
G36*
G01*
X167888000Y-115870500D02*
X167888000Y-115269500D01*
G75*
G02*
X168113500Y-115044000I225500J0D01*
G01*
X168564500Y-115044000D01*
G75*
G02*
X168790000Y-115269500I0J-225500D01*
G01*
X168790000Y-115870500D01*
G75*
G02*
X168564500Y-116096000I-225500J0D01*
G01*
X168113500Y-116096000D01*
G75*
G02*
X167888000Y-115870500I0J225500D01*
G01*
G37*
G36*
G01*
X164078000Y-115870500D02*
X164078000Y-115269500D01*
G75*
G02*
X164303500Y-115044000I225500J0D01*
G01*
X164754500Y-115044000D01*
G75*
G02*
X164980000Y-115269500I0J-225500D01*
G01*
X164980000Y-115870500D01*
G75*
G02*
X164754500Y-116096000I-225500J0D01*
G01*
X164303500Y-116096000D01*
G75*
G02*
X164078000Y-115870500I0J225500D01*
G01*
G37*
G36*
G01*
X165728000Y-115870500D02*
X165728000Y-115269500D01*
G75*
G02*
X165953500Y-115044000I225500J0D01*
G01*
X166404500Y-115044000D01*
G75*
G02*
X166630000Y-115269500I0J-225500D01*
G01*
X166630000Y-115870500D01*
G75*
G02*
X166404500Y-116096000I-225500J0D01*
G01*
X165953500Y-116096000D01*
G75*
G02*
X165728000Y-115870500I0J225500D01*
G01*
G37*
G36*
G01*
X146266000Y-115689500D02*
X146266000Y-114688500D01*
G75*
G02*
X146541500Y-114413000I275500J0D01*
G01*
X147092500Y-114413000D01*
G75*
G02*
X147368000Y-114688500I0J-275500D01*
G01*
X147368000Y-115689500D01*
G75*
G02*
X147092500Y-115965000I-275500J0D01*
G01*
X146541500Y-115965000D01*
G75*
G02*
X146266000Y-115689500I0J275500D01*
G01*
G37*
G36*
G01*
X148166000Y-115689500D02*
X148166000Y-114688500D01*
G75*
G02*
X148441500Y-114413000I275500J0D01*
G01*
X148992500Y-114413000D01*
G75*
G02*
X149268000Y-114688500I0J-275500D01*
G01*
X149268000Y-115689500D01*
G75*
G02*
X148992500Y-115965000I-275500J0D01*
G01*
X148441500Y-115965000D01*
G75*
G02*
X148166000Y-115689500I0J275500D01*
G01*
G37*
G36*
G01*
X152321000Y-114688500D02*
X152321000Y-115689500D01*
G75*
G02*
X152045500Y-115965000I-275500J0D01*
G01*
X151494500Y-115965000D01*
G75*
G02*
X151219000Y-115689500I0J275500D01*
G01*
X151219000Y-114688500D01*
G75*
G02*
X151494500Y-114413000I275500J0D01*
G01*
X152045500Y-114413000D01*
G75*
G02*
X152321000Y-114688500I0J-275500D01*
G01*
G37*
G36*
G01*
X154221000Y-114688500D02*
X154221000Y-115689500D01*
G75*
G02*
X153945500Y-115965000I-275500J0D01*
G01*
X153394500Y-115965000D01*
G75*
G02*
X153119000Y-115689500I0J275500D01*
G01*
X153119000Y-114688500D01*
G75*
G02*
X153394500Y-114413000I275500J0D01*
G01*
X153945500Y-114413000D01*
G75*
G02*
X154221000Y-114688500I0J-275500D01*
G01*
G37*
G36*
G01*
X141346000Y-97431000D02*
X141737000Y-97431000D01*
G75*
G02*
X141902500Y-97596500I0J-165500D01*
G01*
X141902500Y-97927500D01*
G75*
G02*
X141737000Y-98093000I-165500J0D01*
G01*
X141346000Y-98093000D01*
G75*
G02*
X141180500Y-97927500I0J165500D01*
G01*
X141180500Y-97596500D01*
G75*
G02*
X141346000Y-97431000I165500J0D01*
G01*
G37*
G36*
G01*
X141346000Y-96471000D02*
X141737000Y-96471000D01*
G75*
G02*
X141902500Y-96636500I0J-165500D01*
G01*
X141902500Y-96967500D01*
G75*
G02*
X141737000Y-97133000I-165500J0D01*
G01*
X141346000Y-97133000D01*
G75*
G02*
X141180500Y-96967500I0J165500D01*
G01*
X141180500Y-96636500D01*
G75*
G02*
X141346000Y-96471000I165500J0D01*
G01*
G37*
G36*
G01*
X138678000Y-104694500D02*
X138678000Y-104093500D01*
G75*
G02*
X138903500Y-103868000I225500J0D01*
G01*
X139354500Y-103868000D01*
G75*
G02*
X139580000Y-104093500I0J-225500D01*
G01*
X139580000Y-104694500D01*
G75*
G02*
X139354500Y-104920000I-225500J0D01*
G01*
X138903500Y-104920000D01*
G75*
G02*
X138678000Y-104694500I0J225500D01*
G01*
G37*
G36*
G01*
X140328000Y-104694500D02*
X140328000Y-104093500D01*
G75*
G02*
X140553500Y-103868000I225500J0D01*
G01*
X141004500Y-103868000D01*
G75*
G02*
X141230000Y-104093500I0J-225500D01*
G01*
X141230000Y-104694500D01*
G75*
G02*
X141004500Y-104920000I-225500J0D01*
G01*
X140553500Y-104920000D01*
G75*
G02*
X140328000Y-104694500I0J225500D01*
G01*
G37*
G36*
G01*
X138678000Y-102916500D02*
X138678000Y-102315500D01*
G75*
G02*
X138903500Y-102090000I225500J0D01*
G01*
X139354500Y-102090000D01*
G75*
G02*
X139580000Y-102315500I0J-225500D01*
G01*
X139580000Y-102916500D01*
G75*
G02*
X139354500Y-103142000I-225500J0D01*
G01*
X138903500Y-103142000D01*
G75*
G02*
X138678000Y-102916500I0J225500D01*
G01*
G37*
G36*
G01*
X140328000Y-102916500D02*
X140328000Y-102315500D01*
G75*
G02*
X140553500Y-102090000I225500J0D01*
G01*
X141004500Y-102090000D01*
G75*
G02*
X141230000Y-102315500I0J-225500D01*
G01*
X141230000Y-102916500D01*
G75*
G02*
X141004500Y-103142000I-225500J0D01*
G01*
X140553500Y-103142000D01*
G75*
G02*
X140328000Y-102916500I0J225500D01*
G01*
G37*
G36*
G01*
X139580000Y-100283500D02*
X139580000Y-100884500D01*
G75*
G02*
X139354500Y-101110000I-225500J0D01*
G01*
X138903500Y-101110000D01*
G75*
G02*
X138678000Y-100884500I0J225500D01*
G01*
X138678000Y-100283500D01*
G75*
G02*
X138903500Y-100058000I225500J0D01*
G01*
X139354500Y-100058000D01*
G75*
G02*
X139580000Y-100283500I0J-225500D01*
G01*
G37*
G36*
G01*
X141230000Y-100283500D02*
X141230000Y-100884500D01*
G75*
G02*
X141004500Y-101110000I-225500J0D01*
G01*
X140553500Y-101110000D01*
G75*
G02*
X140328000Y-100884500I0J225500D01*
G01*
X140328000Y-100283500D01*
G75*
G02*
X140553500Y-100058000I225500J0D01*
G01*
X141004500Y-100058000D01*
G75*
G02*
X141230000Y-100283500I0J-225500D01*
G01*
G37*
G36*
G01*
X126105000Y-101138500D02*
X126105000Y-100537500D01*
G75*
G02*
X126330500Y-100312000I225500J0D01*
G01*
X126781500Y-100312000D01*
G75*
G02*
X127007000Y-100537500I0J-225500D01*
G01*
X127007000Y-101138500D01*
G75*
G02*
X126781500Y-101364000I-225500J0D01*
G01*
X126330500Y-101364000D01*
G75*
G02*
X126105000Y-101138500I0J225500D01*
G01*
G37*
G36*
G01*
X127755000Y-101138500D02*
X127755000Y-100537500D01*
G75*
G02*
X127980500Y-100312000I225500J0D01*
G01*
X128431500Y-100312000D01*
G75*
G02*
X128657000Y-100537500I0J-225500D01*
G01*
X128657000Y-101138500D01*
G75*
G02*
X128431500Y-101364000I-225500J0D01*
G01*
X127980500Y-101364000D01*
G75*
G02*
X127755000Y-101138500I0J225500D01*
G01*
G37*
G36*
G01*
X127007000Y-102569500D02*
X127007000Y-103170500D01*
G75*
G02*
X126781500Y-103396000I-225500J0D01*
G01*
X126330500Y-103396000D01*
G75*
G02*
X126105000Y-103170500I0J225500D01*
G01*
X126105000Y-102569500D01*
G75*
G02*
X126330500Y-102344000I225500J0D01*
G01*
X126781500Y-102344000D01*
G75*
G02*
X127007000Y-102569500I0J-225500D01*
G01*
G37*
G36*
G01*
X128657000Y-102569500D02*
X128657000Y-103170500D01*
G75*
G02*
X128431500Y-103396000I-225500J0D01*
G01*
X127980500Y-103396000D01*
G75*
G02*
X127755000Y-103170500I0J225500D01*
G01*
X127755000Y-102569500D01*
G75*
G02*
X127980500Y-102344000I225500J0D01*
G01*
X128431500Y-102344000D01*
G75*
G02*
X128657000Y-102569500I0J-225500D01*
G01*
G37*
G36*
G01*
X126625000Y-107246500D02*
X126625000Y-107637500D01*
G75*
G02*
X126459500Y-107803000I-165500J0D01*
G01*
X126128500Y-107803000D01*
G75*
G02*
X125963000Y-107637500I0J165500D01*
G01*
X125963000Y-107246500D01*
G75*
G02*
X126128500Y-107081000I165500J0D01*
G01*
X126459500Y-107081000D01*
G75*
G02*
X126625000Y-107246500I0J-165500D01*
G01*
G37*
G36*
G01*
X127585000Y-107246500D02*
X127585000Y-107637500D01*
G75*
G02*
X127419500Y-107803000I-165500J0D01*
G01*
X127088500Y-107803000D01*
G75*
G02*
X126923000Y-107637500I0J165500D01*
G01*
X126923000Y-107246500D01*
G75*
G02*
X127088500Y-107081000I165500J0D01*
G01*
X127419500Y-107081000D01*
G75*
G02*
X127585000Y-107246500I0J-165500D01*
G01*
G37*
G36*
G01*
X125978000Y-95804500D02*
X125978000Y-95203500D01*
G75*
G02*
X126203500Y-94978000I225500J0D01*
G01*
X126654500Y-94978000D01*
G75*
G02*
X126880000Y-95203500I0J-225500D01*
G01*
X126880000Y-95804500D01*
G75*
G02*
X126654500Y-96030000I-225500J0D01*
G01*
X126203500Y-96030000D01*
G75*
G02*
X125978000Y-95804500I0J225500D01*
G01*
G37*
G36*
G01*
X127628000Y-95804500D02*
X127628000Y-95203500D01*
G75*
G02*
X127853500Y-94978000I225500J0D01*
G01*
X128304500Y-94978000D01*
G75*
G02*
X128530000Y-95203500I0J-225500D01*
G01*
X128530000Y-95804500D01*
G75*
G02*
X128304500Y-96030000I-225500J0D01*
G01*
X127853500Y-96030000D01*
G75*
G02*
X127628000Y-95804500I0J225500D01*
G01*
G37*
G36*
G01*
X125141500Y-104210000D02*
X124540500Y-104210000D01*
G75*
G02*
X124315000Y-103984500I0J225500D01*
G01*
X124315000Y-103533500D01*
G75*
G02*
X124540500Y-103308000I225500J0D01*
G01*
X125141500Y-103308000D01*
G75*
G02*
X125367000Y-103533500I0J-225500D01*
G01*
X125367000Y-103984500D01*
G75*
G02*
X125141500Y-104210000I-225500J0D01*
G01*
G37*
G36*
G01*
X125141500Y-102560000D02*
X124540500Y-102560000D01*
G75*
G02*
X124315000Y-102334500I0J225500D01*
G01*
X124315000Y-101883500D01*
G75*
G02*
X124540500Y-101658000I225500J0D01*
G01*
X125141500Y-101658000D01*
G75*
G02*
X125367000Y-101883500I0J-225500D01*
G01*
X125367000Y-102334500D01*
G75*
G02*
X125141500Y-102560000I-225500J0D01*
G01*
G37*
G36*
G01*
X125141500Y-105925000D02*
X124540500Y-105925000D01*
G75*
G02*
X124315000Y-105699500I0J225500D01*
G01*
X124315000Y-105248500D01*
G75*
G02*
X124540500Y-105023000I225500J0D01*
G01*
X125141500Y-105023000D01*
G75*
G02*
X125367000Y-105248500I0J-225500D01*
G01*
X125367000Y-105699500D01*
G75*
G02*
X125141500Y-105925000I-225500J0D01*
G01*
G37*
G36*
G01*
X125141500Y-107575000D02*
X124540500Y-107575000D01*
G75*
G02*
X124315000Y-107349500I0J225500D01*
G01*
X124315000Y-106898500D01*
G75*
G02*
X124540500Y-106673000I225500J0D01*
G01*
X125141500Y-106673000D01*
G75*
G02*
X125367000Y-106898500I0J-225500D01*
G01*
X125367000Y-107349500D01*
G75*
G02*
X125141500Y-107575000I-225500J0D01*
G01*
G37*
G36*
G01*
X133015500Y-111131000D02*
X132414500Y-111131000D01*
G75*
G02*
X132189000Y-110905500I0J225500D01*
G01*
X132189000Y-110454500D01*
G75*
G02*
X132414500Y-110229000I225500J0D01*
G01*
X133015500Y-110229000D01*
G75*
G02*
X133241000Y-110454500I0J-225500D01*
G01*
X133241000Y-110905500D01*
G75*
G02*
X133015500Y-111131000I-225500J0D01*
G01*
G37*
G36*
G01*
X133015500Y-109481000D02*
X132414500Y-109481000D01*
G75*
G02*
X132189000Y-109255500I0J225500D01*
G01*
X132189000Y-108804500D01*
G75*
G02*
X132414500Y-108579000I225500J0D01*
G01*
X133015500Y-108579000D01*
G75*
G02*
X133241000Y-108804500I0J-225500D01*
G01*
X133241000Y-109255500D01*
G75*
G02*
X133015500Y-109481000I-225500J0D01*
G01*
G37*
G36*
G01*
X130763500Y-113405000D02*
X131364500Y-113405000D01*
G75*
G02*
X131590000Y-113630500I0J-225500D01*
G01*
X131590000Y-114081500D01*
G75*
G02*
X131364500Y-114307000I-225500J0D01*
G01*
X130763500Y-114307000D01*
G75*
G02*
X130538000Y-114081500I0J225500D01*
G01*
X130538000Y-113630500D01*
G75*
G02*
X130763500Y-113405000I225500J0D01*
G01*
G37*
G36*
G01*
X130763500Y-115055000D02*
X131364500Y-115055000D01*
G75*
G02*
X131590000Y-115280500I0J-225500D01*
G01*
X131590000Y-115731500D01*
G75*
G02*
X131364500Y-115957000I-225500J0D01*
G01*
X130763500Y-115957000D01*
G75*
G02*
X130538000Y-115731500I0J225500D01*
G01*
X130538000Y-115280500D01*
G75*
G02*
X130763500Y-115055000I225500J0D01*
G01*
G37*
G36*
G01*
X128985500Y-115055000D02*
X129586500Y-115055000D01*
G75*
G02*
X129812000Y-115280500I0J-225500D01*
G01*
X129812000Y-115731500D01*
G75*
G02*
X129586500Y-115957000I-225500J0D01*
G01*
X128985500Y-115957000D01*
G75*
G02*
X128760000Y-115731500I0J225500D01*
G01*
X128760000Y-115280500D01*
G75*
G02*
X128985500Y-115055000I225500J0D01*
G01*
G37*
G36*
G01*
X128985500Y-113405000D02*
X129586500Y-113405000D01*
G75*
G02*
X129812000Y-113630500I0J-225500D01*
G01*
X129812000Y-114081500D01*
G75*
G02*
X129586500Y-114307000I-225500J0D01*
G01*
X128985500Y-114307000D01*
G75*
G02*
X128760000Y-114081500I0J225500D01*
G01*
X128760000Y-113630500D01*
G75*
G02*
X128985500Y-113405000I225500J0D01*
G01*
G37*
G36*
G01*
X127080500Y-113404500D02*
X127681500Y-113404500D01*
G75*
G02*
X127907000Y-113630000I0J-225500D01*
G01*
X127907000Y-114081000D01*
G75*
G02*
X127681500Y-114306500I-225500J0D01*
G01*
X127080500Y-114306500D01*
G75*
G02*
X126855000Y-114081000I0J225500D01*
G01*
X126855000Y-113630000D01*
G75*
G02*
X127080500Y-113404500I225500J0D01*
G01*
G37*
G36*
G01*
X127080500Y-115054500D02*
X127681500Y-115054500D01*
G75*
G02*
X127907000Y-115280000I0J-225500D01*
G01*
X127907000Y-115731000D01*
G75*
G02*
X127681500Y-115956500I-225500J0D01*
G01*
X127080500Y-115956500D01*
G75*
G02*
X126855000Y-115731000I0J225500D01*
G01*
X126855000Y-115280000D01*
G75*
G02*
X127080500Y-115054500I225500J0D01*
G01*
G37*
G36*
G01*
X142032500Y-109608000D02*
X141431500Y-109608000D01*
G75*
G02*
X141206000Y-109382500I0J225500D01*
G01*
X141206000Y-108931500D01*
G75*
G02*
X141431500Y-108706000I225500J0D01*
G01*
X142032500Y-108706000D01*
G75*
G02*
X142258000Y-108931500I0J-225500D01*
G01*
X142258000Y-109382500D01*
G75*
G02*
X142032500Y-109608000I-225500J0D01*
G01*
G37*
G36*
G01*
X142032500Y-111258000D02*
X141431500Y-111258000D01*
G75*
G02*
X141206000Y-111032500I0J225500D01*
G01*
X141206000Y-110581500D01*
G75*
G02*
X141431500Y-110356000I225500J0D01*
G01*
X142032500Y-110356000D01*
G75*
G02*
X142258000Y-110581500I0J-225500D01*
G01*
X142258000Y-111032500D01*
G75*
G02*
X142032500Y-111258000I-225500J0D01*
G01*
G37*
G36*
G01*
X143463500Y-110356000D02*
X144064500Y-110356000D01*
G75*
G02*
X144290000Y-110581500I0J-225500D01*
G01*
X144290000Y-111032500D01*
G75*
G02*
X144064500Y-111258000I-225500J0D01*
G01*
X143463500Y-111258000D01*
G75*
G02*
X143238000Y-111032500I0J225500D01*
G01*
X143238000Y-110581500D01*
G75*
G02*
X143463500Y-110356000I225500J0D01*
G01*
G37*
G36*
G01*
X143463500Y-108706000D02*
X144064500Y-108706000D01*
G75*
G02*
X144290000Y-108931500I0J-225500D01*
G01*
X144290000Y-109382500D01*
G75*
G02*
X144064500Y-109608000I-225500J0D01*
G01*
X143463500Y-109608000D01*
G75*
G02*
X143238000Y-109382500I0J225500D01*
G01*
X143238000Y-108931500D01*
G75*
G02*
X143463500Y-108706000I225500J0D01*
G01*
G37*
G36*
G01*
X145080500Y-102687000D02*
X144479500Y-102687000D01*
G75*
G02*
X144254000Y-102461500I0J225500D01*
G01*
X144254000Y-102010500D01*
G75*
G02*
X144479500Y-101785000I225500J0D01*
G01*
X145080500Y-101785000D01*
G75*
G02*
X145306000Y-102010500I0J-225500D01*
G01*
X145306000Y-102461500D01*
G75*
G02*
X145080500Y-102687000I-225500J0D01*
G01*
G37*
G36*
G01*
X145080500Y-104337000D02*
X144479500Y-104337000D01*
G75*
G02*
X144254000Y-104111500I0J225500D01*
G01*
X144254000Y-103660500D01*
G75*
G02*
X144479500Y-103435000I225500J0D01*
G01*
X145080500Y-103435000D01*
G75*
G02*
X145306000Y-103660500I0J-225500D01*
G01*
X145306000Y-104111500D01*
G75*
G02*
X145080500Y-104337000I-225500J0D01*
G01*
G37*
G36*
G01*
X145080500Y-106052000D02*
X144479500Y-106052000D01*
G75*
G02*
X144254000Y-105826500I0J225500D01*
G01*
X144254000Y-105375500D01*
G75*
G02*
X144479500Y-105150000I225500J0D01*
G01*
X145080500Y-105150000D01*
G75*
G02*
X145306000Y-105375500I0J-225500D01*
G01*
X145306000Y-105826500D01*
G75*
G02*
X145080500Y-106052000I-225500J0D01*
G01*
G37*
G36*
G01*
X145080500Y-107702000D02*
X144479500Y-107702000D01*
G75*
G02*
X144254000Y-107476500I0J225500D01*
G01*
X144254000Y-107025500D01*
G75*
G02*
X144479500Y-106800000I225500J0D01*
G01*
X145080500Y-106800000D01*
G75*
G02*
X145306000Y-107025500I0J-225500D01*
G01*
X145306000Y-107476500D01*
G75*
G02*
X145080500Y-107702000I-225500J0D01*
G01*
G37*
G36*
G01*
X169972500Y-107575000D02*
X169371500Y-107575000D01*
G75*
G02*
X169146000Y-107349500I0J225500D01*
G01*
X169146000Y-106898500D01*
G75*
G02*
X169371500Y-106673000I225500J0D01*
G01*
X169972500Y-106673000D01*
G75*
G02*
X170198000Y-106898500I0J-225500D01*
G01*
X170198000Y-107349500D01*
G75*
G02*
X169972500Y-107575000I-225500J0D01*
G01*
G37*
G36*
G01*
X169972500Y-105925000D02*
X169371500Y-105925000D01*
G75*
G02*
X169146000Y-105699500I0J225500D01*
G01*
X169146000Y-105248500D01*
G75*
G02*
X169371500Y-105023000I225500J0D01*
G01*
X169972500Y-105023000D01*
G75*
G02*
X170198000Y-105248500I0J-225500D01*
G01*
X170198000Y-105699500D01*
G75*
G02*
X169972500Y-105925000I-225500J0D01*
G01*
G37*
G36*
G01*
X169972500Y-102623000D02*
X169371500Y-102623000D01*
G75*
G02*
X169146000Y-102397500I0J225500D01*
G01*
X169146000Y-101946500D01*
G75*
G02*
X169371500Y-101721000I225500J0D01*
G01*
X169972500Y-101721000D01*
G75*
G02*
X170198000Y-101946500I0J-225500D01*
G01*
X170198000Y-102397500D01*
G75*
G02*
X169972500Y-102623000I-225500J0D01*
G01*
G37*
G36*
G01*
X169972500Y-104273000D02*
X169371500Y-104273000D01*
G75*
G02*
X169146000Y-104047500I0J225500D01*
G01*
X169146000Y-103596500D01*
G75*
G02*
X169371500Y-103371000I225500J0D01*
G01*
X169972500Y-103371000D01*
G75*
G02*
X170198000Y-103596500I0J-225500D01*
G01*
X170198000Y-104047500D01*
G75*
G02*
X169972500Y-104273000I-225500J0D01*
G01*
G37*
G36*
G01*
X179617000Y-102532000D02*
X179617000Y-104732000D01*
G75*
G02*
X179566000Y-104783000I-51000J0D01*
G01*
X178066000Y-104783000D01*
G75*
G02*
X178015000Y-104732000I0J51000D01*
G01*
X178015000Y-102532000D01*
G75*
G02*
X178066000Y-102481000I51000J0D01*
G01*
X179566000Y-102481000D01*
G75*
G02*
X179617000Y-102532000I0J-51000D01*
G01*
G37*
G36*
G01*
X173217000Y-102532000D02*
X173217000Y-104732000D01*
G75*
G02*
X173166000Y-104783000I-51000J0D01*
G01*
X171666000Y-104783000D01*
G75*
G02*
X171615000Y-104732000I0J51000D01*
G01*
X171615000Y-102532000D01*
G75*
G02*
X171666000Y-102481000I51000J0D01*
G01*
X173166000Y-102481000D01*
G75*
G02*
X173217000Y-102532000I0J-51000D01*
G01*
G37*
D11*
X177507900Y-114579400D03*
G36*
G01*
X159431500Y-106052000D02*
X158830500Y-106052000D01*
G75*
G02*
X158605000Y-105826500I0J225500D01*
G01*
X158605000Y-105375500D01*
G75*
G02*
X158830500Y-105150000I225500J0D01*
G01*
X159431500Y-105150000D01*
G75*
G02*
X159657000Y-105375500I0J-225500D01*
G01*
X159657000Y-105826500D01*
G75*
G02*
X159431500Y-106052000I-225500J0D01*
G01*
G37*
G36*
G01*
X159431500Y-107702000D02*
X158830500Y-107702000D01*
G75*
G02*
X158605000Y-107476500I0J225500D01*
G01*
X158605000Y-107025500D01*
G75*
G02*
X158830500Y-106800000I225500J0D01*
G01*
X159431500Y-106800000D01*
G75*
G02*
X159657000Y-107025500I0J-225500D01*
G01*
X159657000Y-107476500D01*
G75*
G02*
X159431500Y-107702000I-225500J0D01*
G01*
G37*
G36*
G01*
X155147500Y-106800000D02*
X155748500Y-106800000D01*
G75*
G02*
X155974000Y-107025500I0J-225500D01*
G01*
X155974000Y-107476500D01*
G75*
G02*
X155748500Y-107702000I-225500J0D01*
G01*
X155147500Y-107702000D01*
G75*
G02*
X154922000Y-107476500I0J225500D01*
G01*
X154922000Y-107025500D01*
G75*
G02*
X155147500Y-106800000I225500J0D01*
G01*
G37*
G36*
G01*
X155147500Y-105150000D02*
X155748500Y-105150000D01*
G75*
G02*
X155974000Y-105375500I0J-225500D01*
G01*
X155974000Y-105826500D01*
G75*
G02*
X155748500Y-106052000I-225500J0D01*
G01*
X155147500Y-106052000D01*
G75*
G02*
X154922000Y-105826500I0J225500D01*
G01*
X154922000Y-105375500D01*
G75*
G02*
X155147500Y-105150000I225500J0D01*
G01*
G37*
G36*
G01*
X155147500Y-101848000D02*
X155748500Y-101848000D01*
G75*
G02*
X155974000Y-102073500I0J-225500D01*
G01*
X155974000Y-102524500D01*
G75*
G02*
X155748500Y-102750000I-225500J0D01*
G01*
X155147500Y-102750000D01*
G75*
G02*
X154922000Y-102524500I0J225500D01*
G01*
X154922000Y-102073500D01*
G75*
G02*
X155147500Y-101848000I225500J0D01*
G01*
G37*
G36*
G01*
X155147500Y-103498000D02*
X155748500Y-103498000D01*
G75*
G02*
X155974000Y-103723500I0J-225500D01*
G01*
X155974000Y-104174500D01*
G75*
G02*
X155748500Y-104400000I-225500J0D01*
G01*
X155147500Y-104400000D01*
G75*
G02*
X154922000Y-104174500I0J225500D01*
G01*
X154922000Y-103723500D01*
G75*
G02*
X155147500Y-103498000I225500J0D01*
G01*
G37*
G36*
G01*
X159431500Y-104400000D02*
X158830500Y-104400000D01*
G75*
G02*
X158605000Y-104174500I0J225500D01*
G01*
X158605000Y-103723500D01*
G75*
G02*
X158830500Y-103498000I225500J0D01*
G01*
X159431500Y-103498000D01*
G75*
G02*
X159657000Y-103723500I0J-225500D01*
G01*
X159657000Y-104174500D01*
G75*
G02*
X159431500Y-104400000I-225500J0D01*
G01*
G37*
G36*
G01*
X159431500Y-102750000D02*
X158830500Y-102750000D01*
G75*
G02*
X158605000Y-102524500I0J225500D01*
G01*
X158605000Y-102073500D01*
G75*
G02*
X158830500Y-101848000I225500J0D01*
G01*
X159431500Y-101848000D01*
G75*
G02*
X159657000Y-102073500I0J-225500D01*
G01*
X159657000Y-102524500D01*
G75*
G02*
X159431500Y-102750000I-225500J0D01*
G01*
G37*
G36*
G01*
X170350828Y-110481000D02*
X168993172Y-110481000D01*
G75*
G02*
X168721000Y-110208828I0J272172D01*
G01*
X168721000Y-109501172D01*
G75*
G02*
X168993172Y-109229000I272172J0D01*
G01*
X170350828Y-109229000D01*
G75*
G02*
X170623000Y-109501172I0J-272172D01*
G01*
X170623000Y-110208828D01*
G75*
G02*
X170350828Y-110481000I-272172J0D01*
G01*
G37*
G36*
G01*
X170350828Y-113431000D02*
X168993172Y-113431000D01*
G75*
G02*
X168721000Y-113158828I0J272172D01*
G01*
X168721000Y-112451172D01*
G75*
G02*
X168993172Y-112179000I272172J0D01*
G01*
X170350828Y-112179000D01*
G75*
G02*
X170623000Y-112451172I0J-272172D01*
G01*
X170623000Y-113158828D01*
G75*
G02*
X170350828Y-113431000I-272172J0D01*
G01*
G37*
G36*
G01*
X161373172Y-109229000D02*
X162730828Y-109229000D01*
G75*
G02*
X163003000Y-109501172I0J-272172D01*
G01*
X163003000Y-110208828D01*
G75*
G02*
X162730828Y-110481000I-272172J0D01*
G01*
X161373172Y-110481000D01*
G75*
G02*
X161101000Y-110208828I0J272172D01*
G01*
X161101000Y-109501172D01*
G75*
G02*
X161373172Y-109229000I272172J0D01*
G01*
G37*
G36*
G01*
X161373172Y-112179000D02*
X162730828Y-112179000D01*
G75*
G02*
X163003000Y-112451172I0J-272172D01*
G01*
X163003000Y-113158828D01*
G75*
G02*
X162730828Y-113431000I-272172J0D01*
G01*
X161373172Y-113431000D01*
G75*
G02*
X161101000Y-113158828I0J272172D01*
G01*
X161101000Y-112451172D01*
G75*
G02*
X161373172Y-112179000I272172J0D01*
G01*
G37*
G36*
G01*
X172340000Y-110628000D02*
X172340000Y-108828000D01*
G75*
G02*
X172391000Y-108777000I51000J0D01*
G01*
X174891000Y-108777000D01*
G75*
G02*
X174942000Y-108828000I0J-51000D01*
G01*
X174942000Y-110628000D01*
G75*
G02*
X174891000Y-110679000I-51000J0D01*
G01*
X172391000Y-110679000D01*
G75*
G02*
X172340000Y-110628000I0J51000D01*
G01*
G37*
G36*
G01*
X176340000Y-110628000D02*
X176340000Y-108828000D01*
G75*
G02*
X176391000Y-108777000I51000J0D01*
G01*
X178891000Y-108777000D01*
G75*
G02*
X178942000Y-108828000I0J-51000D01*
G01*
X178942000Y-110628000D01*
G75*
G02*
X178891000Y-110679000I-51000J0D01*
G01*
X176391000Y-110679000D01*
G75*
G02*
X176340000Y-110628000I0J51000D01*
G01*
G37*
G36*
G01*
X131266000Y-110857000D02*
X131266000Y-111107000D01*
G75*
G02*
X131215000Y-111158000I-51000J0D01*
G01*
X130115000Y-111158000D01*
G75*
G02*
X130064000Y-111107000I0J51000D01*
G01*
X130064000Y-110857000D01*
G75*
G02*
X130115000Y-110806000I51000J0D01*
G01*
X131215000Y-110806000D01*
G75*
G02*
X131266000Y-110857000I0J-51000D01*
G01*
G37*
G36*
G01*
X131266000Y-110357000D02*
X131266000Y-110607000D01*
G75*
G02*
X131215000Y-110658000I-51000J0D01*
G01*
X130115000Y-110658000D01*
G75*
G02*
X130064000Y-110607000I0J51000D01*
G01*
X130064000Y-110357000D01*
G75*
G02*
X130115000Y-110306000I51000J0D01*
G01*
X131215000Y-110306000D01*
G75*
G02*
X131266000Y-110357000I0J-51000D01*
G01*
G37*
G36*
G01*
X131266000Y-109857000D02*
X131266000Y-110107000D01*
G75*
G02*
X131215000Y-110158000I-51000J0D01*
G01*
X130115000Y-110158000D01*
G75*
G02*
X130064000Y-110107000I0J51000D01*
G01*
X130064000Y-109857000D01*
G75*
G02*
X130115000Y-109806000I51000J0D01*
G01*
X131215000Y-109806000D01*
G75*
G02*
X131266000Y-109857000I0J-51000D01*
G01*
G37*
G36*
G01*
X131266000Y-109357000D02*
X131266000Y-109607000D01*
G75*
G02*
X131215000Y-109658000I-51000J0D01*
G01*
X130115000Y-109658000D01*
G75*
G02*
X130064000Y-109607000I0J51000D01*
G01*
X130064000Y-109357000D01*
G75*
G02*
X130115000Y-109306000I51000J0D01*
G01*
X131215000Y-109306000D01*
G75*
G02*
X131266000Y-109357000I0J-51000D01*
G01*
G37*
G36*
G01*
X131266000Y-108857000D02*
X131266000Y-109107000D01*
G75*
G02*
X131215000Y-109158000I-51000J0D01*
G01*
X130115000Y-109158000D01*
G75*
G02*
X130064000Y-109107000I0J51000D01*
G01*
X130064000Y-108857000D01*
G75*
G02*
X130115000Y-108806000I51000J0D01*
G01*
X131215000Y-108806000D01*
G75*
G02*
X131266000Y-108857000I0J-51000D01*
G01*
G37*
G36*
G01*
X126966000Y-108857000D02*
X126966000Y-109107000D01*
G75*
G02*
X126915000Y-109158000I-51000J0D01*
G01*
X125815000Y-109158000D01*
G75*
G02*
X125764000Y-109107000I0J51000D01*
G01*
X125764000Y-108857000D01*
G75*
G02*
X125815000Y-108806000I51000J0D01*
G01*
X126915000Y-108806000D01*
G75*
G02*
X126966000Y-108857000I0J-51000D01*
G01*
G37*
G36*
G01*
X126966000Y-109357000D02*
X126966000Y-109607000D01*
G75*
G02*
X126915000Y-109658000I-51000J0D01*
G01*
X125815000Y-109658000D01*
G75*
G02*
X125764000Y-109607000I0J51000D01*
G01*
X125764000Y-109357000D01*
G75*
G02*
X125815000Y-109306000I51000J0D01*
G01*
X126915000Y-109306000D01*
G75*
G02*
X126966000Y-109357000I0J-51000D01*
G01*
G37*
G36*
G01*
X126966000Y-109857000D02*
X126966000Y-110107000D01*
G75*
G02*
X126915000Y-110158000I-51000J0D01*
G01*
X125815000Y-110158000D01*
G75*
G02*
X125764000Y-110107000I0J51000D01*
G01*
X125764000Y-109857000D01*
G75*
G02*
X125815000Y-109806000I51000J0D01*
G01*
X126915000Y-109806000D01*
G75*
G02*
X126966000Y-109857000I0J-51000D01*
G01*
G37*
G36*
G01*
X126966000Y-110357000D02*
X126966000Y-110607000D01*
G75*
G02*
X126915000Y-110658000I-51000J0D01*
G01*
X125815000Y-110658000D01*
G75*
G02*
X125764000Y-110607000I0J51000D01*
G01*
X125764000Y-110357000D01*
G75*
G02*
X125815000Y-110306000I51000J0D01*
G01*
X126915000Y-110306000D01*
G75*
G02*
X126966000Y-110357000I0J-51000D01*
G01*
G37*
G36*
G01*
X126966000Y-110857000D02*
X126966000Y-111107000D01*
G75*
G02*
X126915000Y-111158000I-51000J0D01*
G01*
X125815000Y-111158000D01*
G75*
G02*
X125764000Y-111107000I0J51000D01*
G01*
X125764000Y-110857000D01*
G75*
G02*
X125815000Y-110806000I51000J0D01*
G01*
X126915000Y-110806000D01*
G75*
G02*
X126966000Y-110857000I0J-51000D01*
G01*
G37*
G36*
G01*
X135865000Y-110857000D02*
X135865000Y-111107000D01*
G75*
G02*
X135814000Y-111158000I-51000J0D01*
G01*
X134714000Y-111158000D01*
G75*
G02*
X134663000Y-111107000I0J51000D01*
G01*
X134663000Y-110857000D01*
G75*
G02*
X134714000Y-110806000I51000J0D01*
G01*
X135814000Y-110806000D01*
G75*
G02*
X135865000Y-110857000I0J-51000D01*
G01*
G37*
G36*
G01*
X135865000Y-110357000D02*
X135865000Y-110607000D01*
G75*
G02*
X135814000Y-110658000I-51000J0D01*
G01*
X134714000Y-110658000D01*
G75*
G02*
X134663000Y-110607000I0J51000D01*
G01*
X134663000Y-110357000D01*
G75*
G02*
X134714000Y-110306000I51000J0D01*
G01*
X135814000Y-110306000D01*
G75*
G02*
X135865000Y-110357000I0J-51000D01*
G01*
G37*
G36*
G01*
X135865000Y-109857000D02*
X135865000Y-110107000D01*
G75*
G02*
X135814000Y-110158000I-51000J0D01*
G01*
X134714000Y-110158000D01*
G75*
G02*
X134663000Y-110107000I0J51000D01*
G01*
X134663000Y-109857000D01*
G75*
G02*
X134714000Y-109806000I51000J0D01*
G01*
X135814000Y-109806000D01*
G75*
G02*
X135865000Y-109857000I0J-51000D01*
G01*
G37*
G36*
G01*
X135865000Y-109357000D02*
X135865000Y-109607000D01*
G75*
G02*
X135814000Y-109658000I-51000J0D01*
G01*
X134714000Y-109658000D01*
G75*
G02*
X134663000Y-109607000I0J51000D01*
G01*
X134663000Y-109357000D01*
G75*
G02*
X134714000Y-109306000I51000J0D01*
G01*
X135814000Y-109306000D01*
G75*
G02*
X135865000Y-109357000I0J-51000D01*
G01*
G37*
G36*
G01*
X135865000Y-108857000D02*
X135865000Y-109107000D01*
G75*
G02*
X135814000Y-109158000I-51000J0D01*
G01*
X134714000Y-109158000D01*
G75*
G02*
X134663000Y-109107000I0J51000D01*
G01*
X134663000Y-108857000D01*
G75*
G02*
X134714000Y-108806000I51000J0D01*
G01*
X135814000Y-108806000D01*
G75*
G02*
X135865000Y-108857000I0J-51000D01*
G01*
G37*
G36*
G01*
X140165000Y-108857000D02*
X140165000Y-109107000D01*
G75*
G02*
X140114000Y-109158000I-51000J0D01*
G01*
X139014000Y-109158000D01*
G75*
G02*
X138963000Y-109107000I0J51000D01*
G01*
X138963000Y-108857000D01*
G75*
G02*
X139014000Y-108806000I51000J0D01*
G01*
X140114000Y-108806000D01*
G75*
G02*
X140165000Y-108857000I0J-51000D01*
G01*
G37*
G36*
G01*
X140165000Y-109357000D02*
X140165000Y-109607000D01*
G75*
G02*
X140114000Y-109658000I-51000J0D01*
G01*
X139014000Y-109658000D01*
G75*
G02*
X138963000Y-109607000I0J51000D01*
G01*
X138963000Y-109357000D01*
G75*
G02*
X139014000Y-109306000I51000J0D01*
G01*
X140114000Y-109306000D01*
G75*
G02*
X140165000Y-109357000I0J-51000D01*
G01*
G37*
G36*
G01*
X140165000Y-109857000D02*
X140165000Y-110107000D01*
G75*
G02*
X140114000Y-110158000I-51000J0D01*
G01*
X139014000Y-110158000D01*
G75*
G02*
X138963000Y-110107000I0J51000D01*
G01*
X138963000Y-109857000D01*
G75*
G02*
X139014000Y-109806000I51000J0D01*
G01*
X140114000Y-109806000D01*
G75*
G02*
X140165000Y-109857000I0J-51000D01*
G01*
G37*
G36*
G01*
X140165000Y-110357000D02*
X140165000Y-110607000D01*
G75*
G02*
X140114000Y-110658000I-51000J0D01*
G01*
X139014000Y-110658000D01*
G75*
G02*
X138963000Y-110607000I0J51000D01*
G01*
X138963000Y-110357000D01*
G75*
G02*
X139014000Y-110306000I51000J0D01*
G01*
X140114000Y-110306000D01*
G75*
G02*
X140165000Y-110357000I0J-51000D01*
G01*
G37*
G36*
G01*
X140165000Y-110857000D02*
X140165000Y-111107000D01*
G75*
G02*
X140114000Y-111158000I-51000J0D01*
G01*
X139014000Y-111158000D01*
G75*
G02*
X138963000Y-111107000I0J51000D01*
G01*
X138963000Y-110857000D01*
G75*
G02*
X139014000Y-110806000I51000J0D01*
G01*
X140114000Y-110806000D01*
G75*
G02*
X140165000Y-110857000I0J-51000D01*
G01*
G37*
G36*
G01*
X173597000Y-97560000D02*
X173597000Y-95988000D01*
G75*
G02*
X173862000Y-95723000I265000J0D01*
G01*
X175134000Y-95723000D01*
G75*
G02*
X175399000Y-95988000I0J-265000D01*
G01*
X175399000Y-97560000D01*
G75*
G02*
X175134000Y-97825000I-265000J0D01*
G01*
X173862000Y-97825000D01*
G75*
G02*
X173597000Y-97560000I0J265000D01*
G01*
G37*
D12*
X176998000Y-96774000D03*
G36*
G01*
X159620000Y-97535000D02*
X159620000Y-96013000D01*
G75*
G02*
X159885000Y-95748000I265000J0D01*
G01*
X161157000Y-95748000D01*
G75*
G02*
X161422000Y-96013000I0J-265000D01*
G01*
X161422000Y-97535000D01*
G75*
G02*
X161157000Y-97800000I-265000J0D01*
G01*
X159885000Y-97800000D01*
G75*
G02*
X159620000Y-97535000I0J265000D01*
G01*
G37*
D13*
X163021000Y-96774000D03*
X165521000Y-96774000D03*
X168021000Y-96774000D03*
X154058000Y-96774000D03*
X151558000Y-96774000D03*
X149058000Y-96774000D03*
G36*
G01*
X145657000Y-97535000D02*
X145657000Y-96013000D01*
G75*
G02*
X145922000Y-95748000I265000J0D01*
G01*
X147194000Y-95748000D01*
G75*
G02*
X147459000Y-96013000I0J-265000D01*
G01*
X147459000Y-97535000D01*
G75*
G02*
X147194000Y-97800000I-265000J0D01*
G01*
X145922000Y-97800000D01*
G75*
G02*
X145657000Y-97535000I0J265000D01*
G01*
G37*
G36*
G01*
X130357000Y-101140500D02*
X130357000Y-100789500D01*
G75*
G02*
X130532500Y-100614000I175500J0D01*
G01*
X132233500Y-100614000D01*
G75*
G02*
X132409000Y-100789500I0J-175500D01*
G01*
X132409000Y-101140500D01*
G75*
G02*
X132233500Y-101316000I-175500J0D01*
G01*
X130532500Y-101316000D01*
G75*
G02*
X130357000Y-101140500I0J175500D01*
G01*
G37*
G36*
G01*
X130357000Y-102410500D02*
X130357000Y-102059500D01*
G75*
G02*
X130532500Y-101884000I175500J0D01*
G01*
X132233500Y-101884000D01*
G75*
G02*
X132409000Y-102059500I0J-175500D01*
G01*
X132409000Y-102410500D01*
G75*
G02*
X132233500Y-102586000I-175500J0D01*
G01*
X130532500Y-102586000D01*
G75*
G02*
X130357000Y-102410500I0J175500D01*
G01*
G37*
G36*
G01*
X130357000Y-103680500D02*
X130357000Y-103329500D01*
G75*
G02*
X130532500Y-103154000I175500J0D01*
G01*
X132233500Y-103154000D01*
G75*
G02*
X132409000Y-103329500I0J-175500D01*
G01*
X132409000Y-103680500D01*
G75*
G02*
X132233500Y-103856000I-175500J0D01*
G01*
X130532500Y-103856000D01*
G75*
G02*
X130357000Y-103680500I0J175500D01*
G01*
G37*
G36*
G01*
X130357000Y-104950500D02*
X130357000Y-104599500D01*
G75*
G02*
X130532500Y-104424000I175500J0D01*
G01*
X132233500Y-104424000D01*
G75*
G02*
X132409000Y-104599500I0J-175500D01*
G01*
X132409000Y-104950500D01*
G75*
G02*
X132233500Y-105126000I-175500J0D01*
G01*
X130532500Y-105126000D01*
G75*
G02*
X130357000Y-104950500I0J175500D01*
G01*
G37*
G36*
G01*
X135307000Y-104950500D02*
X135307000Y-104599500D01*
G75*
G02*
X135482500Y-104424000I175500J0D01*
G01*
X137183500Y-104424000D01*
G75*
G02*
X137359000Y-104599500I0J-175500D01*
G01*
X137359000Y-104950500D01*
G75*
G02*
X137183500Y-105126000I-175500J0D01*
G01*
X135482500Y-105126000D01*
G75*
G02*
X135307000Y-104950500I0J175500D01*
G01*
G37*
G36*
G01*
X135307000Y-103680500D02*
X135307000Y-103329500D01*
G75*
G02*
X135482500Y-103154000I175500J0D01*
G01*
X137183500Y-103154000D01*
G75*
G02*
X137359000Y-103329500I0J-175500D01*
G01*
X137359000Y-103680500D01*
G75*
G02*
X137183500Y-103856000I-175500J0D01*
G01*
X135482500Y-103856000D01*
G75*
G02*
X135307000Y-103680500I0J175500D01*
G01*
G37*
G36*
G01*
X135307000Y-102410500D02*
X135307000Y-102059500D01*
G75*
G02*
X135482500Y-101884000I175500J0D01*
G01*
X137183500Y-101884000D01*
G75*
G02*
X137359000Y-102059500I0J-175500D01*
G01*
X137359000Y-102410500D01*
G75*
G02*
X137183500Y-102586000I-175500J0D01*
G01*
X135482500Y-102586000D01*
G75*
G02*
X135307000Y-102410500I0J175500D01*
G01*
G37*
G36*
G01*
X135307000Y-101140500D02*
X135307000Y-100789500D01*
G75*
G02*
X135482500Y-100614000I175500J0D01*
G01*
X137183500Y-100614000D01*
G75*
G02*
X137359000Y-100789500I0J-175500D01*
G01*
X137359000Y-101140500D01*
G75*
G02*
X137183500Y-101316000I-175500J0D01*
G01*
X135482500Y-101316000D01*
G75*
G02*
X135307000Y-101140500I0J175500D01*
G01*
G37*
G36*
G01*
X160837000Y-102918500D02*
X160837000Y-102567500D01*
G75*
G02*
X161012500Y-102392000I175500J0D01*
G01*
X162713500Y-102392000D01*
G75*
G02*
X162889000Y-102567500I0J-175500D01*
G01*
X162889000Y-102918500D01*
G75*
G02*
X162713500Y-103094000I-175500J0D01*
G01*
X161012500Y-103094000D01*
G75*
G02*
X160837000Y-102918500I0J175500D01*
G01*
G37*
G36*
G01*
X160837000Y-104188500D02*
X160837000Y-103837500D01*
G75*
G02*
X161012500Y-103662000I175500J0D01*
G01*
X162713500Y-103662000D01*
G75*
G02*
X162889000Y-103837500I0J-175500D01*
G01*
X162889000Y-104188500D01*
G75*
G02*
X162713500Y-104364000I-175500J0D01*
G01*
X161012500Y-104364000D01*
G75*
G02*
X160837000Y-104188500I0J175500D01*
G01*
G37*
G36*
G01*
X160837000Y-105458500D02*
X160837000Y-105107500D01*
G75*
G02*
X161012500Y-104932000I175500J0D01*
G01*
X162713500Y-104932000D01*
G75*
G02*
X162889000Y-105107500I0J-175500D01*
G01*
X162889000Y-105458500D01*
G75*
G02*
X162713500Y-105634000I-175500J0D01*
G01*
X161012500Y-105634000D01*
G75*
G02*
X160837000Y-105458500I0J175500D01*
G01*
G37*
G36*
G01*
X160837000Y-106728500D02*
X160837000Y-106377500D01*
G75*
G02*
X161012500Y-106202000I175500J0D01*
G01*
X162713500Y-106202000D01*
G75*
G02*
X162889000Y-106377500I0J-175500D01*
G01*
X162889000Y-106728500D01*
G75*
G02*
X162713500Y-106904000I-175500J0D01*
G01*
X161012500Y-106904000D01*
G75*
G02*
X160837000Y-106728500I0J175500D01*
G01*
G37*
G36*
G01*
X165787000Y-106728500D02*
X165787000Y-106377500D01*
G75*
G02*
X165962500Y-106202000I175500J0D01*
G01*
X167663500Y-106202000D01*
G75*
G02*
X167839000Y-106377500I0J-175500D01*
G01*
X167839000Y-106728500D01*
G75*
G02*
X167663500Y-106904000I-175500J0D01*
G01*
X165962500Y-106904000D01*
G75*
G02*
X165787000Y-106728500I0J175500D01*
G01*
G37*
G36*
G01*
X165787000Y-105458500D02*
X165787000Y-105107500D01*
G75*
G02*
X165962500Y-104932000I175500J0D01*
G01*
X167663500Y-104932000D01*
G75*
G02*
X167839000Y-105107500I0J-175500D01*
G01*
X167839000Y-105458500D01*
G75*
G02*
X167663500Y-105634000I-175500J0D01*
G01*
X165962500Y-105634000D01*
G75*
G02*
X165787000Y-105458500I0J175500D01*
G01*
G37*
G36*
G01*
X165787000Y-104188500D02*
X165787000Y-103837500D01*
G75*
G02*
X165962500Y-103662000I175500J0D01*
G01*
X167663500Y-103662000D01*
G75*
G02*
X167839000Y-103837500I0J-175500D01*
G01*
X167839000Y-104188500D01*
G75*
G02*
X167663500Y-104364000I-175500J0D01*
G01*
X165962500Y-104364000D01*
G75*
G02*
X165787000Y-104188500I0J175500D01*
G01*
G37*
G36*
G01*
X165787000Y-102918500D02*
X165787000Y-102567500D01*
G75*
G02*
X165962500Y-102392000I175500J0D01*
G01*
X167663500Y-102392000D01*
G75*
G02*
X167839000Y-102567500I0J-175500D01*
G01*
X167839000Y-102918500D01*
G75*
G02*
X167663500Y-103094000I-175500J0D01*
G01*
X165962500Y-103094000D01*
G75*
G02*
X165787000Y-102918500I0J175500D01*
G01*
G37*
G36*
G01*
X151563000Y-103045500D02*
X151563000Y-102694500D01*
G75*
G02*
X151738500Y-102519000I175500J0D01*
G01*
X153439500Y-102519000D01*
G75*
G02*
X153615000Y-102694500I0J-175500D01*
G01*
X153615000Y-103045500D01*
G75*
G02*
X153439500Y-103221000I-175500J0D01*
G01*
X151738500Y-103221000D01*
G75*
G02*
X151563000Y-103045500I0J175500D01*
G01*
G37*
G36*
G01*
X151563000Y-104315500D02*
X151563000Y-103964500D01*
G75*
G02*
X151738500Y-103789000I175500J0D01*
G01*
X153439500Y-103789000D01*
G75*
G02*
X153615000Y-103964500I0J-175500D01*
G01*
X153615000Y-104315500D01*
G75*
G02*
X153439500Y-104491000I-175500J0D01*
G01*
X151738500Y-104491000D01*
G75*
G02*
X151563000Y-104315500I0J175500D01*
G01*
G37*
G36*
G01*
X151563000Y-105585500D02*
X151563000Y-105234500D01*
G75*
G02*
X151738500Y-105059000I175500J0D01*
G01*
X153439500Y-105059000D01*
G75*
G02*
X153615000Y-105234500I0J-175500D01*
G01*
X153615000Y-105585500D01*
G75*
G02*
X153439500Y-105761000I-175500J0D01*
G01*
X151738500Y-105761000D01*
G75*
G02*
X151563000Y-105585500I0J175500D01*
G01*
G37*
G36*
G01*
X151563000Y-106855500D02*
X151563000Y-106504500D01*
G75*
G02*
X151738500Y-106329000I175500J0D01*
G01*
X153439500Y-106329000D01*
G75*
G02*
X153615000Y-106504500I0J-175500D01*
G01*
X153615000Y-106855500D01*
G75*
G02*
X153439500Y-107031000I-175500J0D01*
G01*
X151738500Y-107031000D01*
G75*
G02*
X151563000Y-106855500I0J175500D01*
G01*
G37*
G36*
G01*
X146613000Y-106855500D02*
X146613000Y-106504500D01*
G75*
G02*
X146788500Y-106329000I175500J0D01*
G01*
X148489500Y-106329000D01*
G75*
G02*
X148665000Y-106504500I0J-175500D01*
G01*
X148665000Y-106855500D01*
G75*
G02*
X148489500Y-107031000I-175500J0D01*
G01*
X146788500Y-107031000D01*
G75*
G02*
X146613000Y-106855500I0J175500D01*
G01*
G37*
G36*
G01*
X146613000Y-105585500D02*
X146613000Y-105234500D01*
G75*
G02*
X146788500Y-105059000I175500J0D01*
G01*
X148489500Y-105059000D01*
G75*
G02*
X148665000Y-105234500I0J-175500D01*
G01*
X148665000Y-105585500D01*
G75*
G02*
X148489500Y-105761000I-175500J0D01*
G01*
X146788500Y-105761000D01*
G75*
G02*
X146613000Y-105585500I0J175500D01*
G01*
G37*
G36*
G01*
X146613000Y-104315500D02*
X146613000Y-103964500D01*
G75*
G02*
X146788500Y-103789000I175500J0D01*
G01*
X148489500Y-103789000D01*
G75*
G02*
X148665000Y-103964500I0J-175500D01*
G01*
X148665000Y-104315500D01*
G75*
G02*
X148489500Y-104491000I-175500J0D01*
G01*
X146788500Y-104491000D01*
G75*
G02*
X146613000Y-104315500I0J175500D01*
G01*
G37*
G36*
G01*
X146613000Y-103045500D02*
X146613000Y-102694500D01*
G75*
G02*
X146788500Y-102519000I175500J0D01*
G01*
X148489500Y-102519000D01*
G75*
G02*
X148665000Y-102694500I0J-175500D01*
G01*
X148665000Y-103045500D01*
G75*
G02*
X148489500Y-103221000I-175500J0D01*
G01*
X146788500Y-103221000D01*
G75*
G02*
X146613000Y-103045500I0J175500D01*
G01*
G37*
G36*
G01*
X146740000Y-109522500D02*
X146740000Y-109171500D01*
G75*
G02*
X146915500Y-108996000I175500J0D01*
G01*
X148616500Y-108996000D01*
G75*
G02*
X148792000Y-109171500I0J-175500D01*
G01*
X148792000Y-109522500D01*
G75*
G02*
X148616500Y-109698000I-175500J0D01*
G01*
X146915500Y-109698000D01*
G75*
G02*
X146740000Y-109522500I0J175500D01*
G01*
G37*
G36*
G01*
X146740000Y-110792500D02*
X146740000Y-110441500D01*
G75*
G02*
X146915500Y-110266000I175500J0D01*
G01*
X148616500Y-110266000D01*
G75*
G02*
X148792000Y-110441500I0J-175500D01*
G01*
X148792000Y-110792500D01*
G75*
G02*
X148616500Y-110968000I-175500J0D01*
G01*
X146915500Y-110968000D01*
G75*
G02*
X146740000Y-110792500I0J175500D01*
G01*
G37*
G36*
G01*
X146740000Y-112062500D02*
X146740000Y-111711500D01*
G75*
G02*
X146915500Y-111536000I175500J0D01*
G01*
X148616500Y-111536000D01*
G75*
G02*
X148792000Y-111711500I0J-175500D01*
G01*
X148792000Y-112062500D01*
G75*
G02*
X148616500Y-112238000I-175500J0D01*
G01*
X146915500Y-112238000D01*
G75*
G02*
X146740000Y-112062500I0J175500D01*
G01*
G37*
G36*
G01*
X146740000Y-113332500D02*
X146740000Y-112981500D01*
G75*
G02*
X146915500Y-112806000I175500J0D01*
G01*
X148616500Y-112806000D01*
G75*
G02*
X148792000Y-112981500I0J-175500D01*
G01*
X148792000Y-113332500D01*
G75*
G02*
X148616500Y-113508000I-175500J0D01*
G01*
X146915500Y-113508000D01*
G75*
G02*
X146740000Y-113332500I0J175500D01*
G01*
G37*
G36*
G01*
X151690000Y-113332500D02*
X151690000Y-112981500D01*
G75*
G02*
X151865500Y-112806000I175500J0D01*
G01*
X153566500Y-112806000D01*
G75*
G02*
X153742000Y-112981500I0J-175500D01*
G01*
X153742000Y-113332500D01*
G75*
G02*
X153566500Y-113508000I-175500J0D01*
G01*
X151865500Y-113508000D01*
G75*
G02*
X151690000Y-113332500I0J175500D01*
G01*
G37*
G36*
G01*
X151690000Y-112062500D02*
X151690000Y-111711500D01*
G75*
G02*
X151865500Y-111536000I175500J0D01*
G01*
X153566500Y-111536000D01*
G75*
G02*
X153742000Y-111711500I0J-175500D01*
G01*
X153742000Y-112062500D01*
G75*
G02*
X153566500Y-112238000I-175500J0D01*
G01*
X151865500Y-112238000D01*
G75*
G02*
X151690000Y-112062500I0J175500D01*
G01*
G37*
G36*
G01*
X151690000Y-110792500D02*
X151690000Y-110441500D01*
G75*
G02*
X151865500Y-110266000I175500J0D01*
G01*
X153566500Y-110266000D01*
G75*
G02*
X153742000Y-110441500I0J-175500D01*
G01*
X153742000Y-110792500D01*
G75*
G02*
X153566500Y-110968000I-175500J0D01*
G01*
X151865500Y-110968000D01*
G75*
G02*
X151690000Y-110792500I0J175500D01*
G01*
G37*
G36*
G01*
X151690000Y-109522500D02*
X151690000Y-109171500D01*
G75*
G02*
X151865500Y-108996000I175500J0D01*
G01*
X153566500Y-108996000D01*
G75*
G02*
X153742000Y-109171500I0J-175500D01*
G01*
X153742000Y-109522500D01*
G75*
G02*
X153566500Y-109698000I-175500J0D01*
G01*
X151865500Y-109698000D01*
G75*
G02*
X151690000Y-109522500I0J175500D01*
G01*
G37*
G36*
G01*
X140281000Y-97144999D02*
X140281000Y-97795001D01*
G75*
G02*
X140230001Y-97846000I-50999J0D01*
G01*
X139169999Y-97846000D01*
G75*
G02*
X139119000Y-97795001I0J50999D01*
G01*
X139119000Y-97144999D01*
G75*
G02*
X139169999Y-97094000I50999J0D01*
G01*
X140230001Y-97094000D01*
G75*
G02*
X140281000Y-97144999I0J-50999D01*
G01*
G37*
G36*
G01*
X140281000Y-96194999D02*
X140281000Y-96845001D01*
G75*
G02*
X140230001Y-96896000I-50999J0D01*
G01*
X139169999Y-96896000D01*
G75*
G02*
X139119000Y-96845001I0J50999D01*
G01*
X139119000Y-96194999D01*
G75*
G02*
X139169999Y-96144000I50999J0D01*
G01*
X140230001Y-96144000D01*
G75*
G02*
X140281000Y-96194999I0J-50999D01*
G01*
G37*
G36*
G01*
X140281000Y-95244999D02*
X140281000Y-95895001D01*
G75*
G02*
X140230001Y-95946000I-50999J0D01*
G01*
X139169999Y-95946000D01*
G75*
G02*
X139119000Y-95895001I0J50999D01*
G01*
X139119000Y-95244999D01*
G75*
G02*
X139169999Y-95194000I50999J0D01*
G01*
X140230001Y-95194000D01*
G75*
G02*
X140281000Y-95244999I0J-50999D01*
G01*
G37*
G36*
G01*
X138081000Y-95244999D02*
X138081000Y-95895001D01*
G75*
G02*
X138030001Y-95946000I-50999J0D01*
G01*
X136969999Y-95946000D01*
G75*
G02*
X136919000Y-95895001I0J50999D01*
G01*
X136919000Y-95244999D01*
G75*
G02*
X136969999Y-95194000I50999J0D01*
G01*
X138030001Y-95194000D01*
G75*
G02*
X138081000Y-95244999I0J-50999D01*
G01*
G37*
G36*
G01*
X138081000Y-97144999D02*
X138081000Y-97795001D01*
G75*
G02*
X138030001Y-97846000I-50999J0D01*
G01*
X136969999Y-97846000D01*
G75*
G02*
X136919000Y-97795001I0J50999D01*
G01*
X136919000Y-97144999D01*
G75*
G02*
X136969999Y-97094000I50999J0D01*
G01*
X138030001Y-97094000D01*
G75*
G02*
X138081000Y-97144999I0J-50999D01*
G01*
G37*
G36*
G01*
X138081000Y-96194999D02*
X138081000Y-96845001D01*
G75*
G02*
X138030001Y-96896000I-50999J0D01*
G01*
X136969999Y-96896000D01*
G75*
G02*
X136919000Y-96845001I0J50999D01*
G01*
X136919000Y-96194999D01*
G75*
G02*
X136969999Y-96144000I50999J0D01*
G01*
X138030001Y-96144000D01*
G75*
G02*
X138081000Y-96194999I0J-50999D01*
G01*
G37*
G36*
G01*
X133677000Y-97078999D02*
X133677000Y-97729001D01*
G75*
G02*
X133626001Y-97780000I-50999J0D01*
G01*
X132565999Y-97780000D01*
G75*
G02*
X132515000Y-97729001I0J50999D01*
G01*
X132515000Y-97078999D01*
G75*
G02*
X132565999Y-97028000I50999J0D01*
G01*
X133626001Y-97028000D01*
G75*
G02*
X133677000Y-97078999I0J-50999D01*
G01*
G37*
G36*
G01*
X133677000Y-96128999D02*
X133677000Y-96779001D01*
G75*
G02*
X133626001Y-96830000I-50999J0D01*
G01*
X132565999Y-96830000D01*
G75*
G02*
X132515000Y-96779001I0J50999D01*
G01*
X132515000Y-96128999D01*
G75*
G02*
X132565999Y-96078000I50999J0D01*
G01*
X133626001Y-96078000D01*
G75*
G02*
X133677000Y-96128999I0J-50999D01*
G01*
G37*
G36*
G01*
X133677000Y-95178999D02*
X133677000Y-95829001D01*
G75*
G02*
X133626001Y-95880000I-50999J0D01*
G01*
X132565999Y-95880000D01*
G75*
G02*
X132515000Y-95829001I0J50999D01*
G01*
X132515000Y-95178999D01*
G75*
G02*
X132565999Y-95128000I50999J0D01*
G01*
X133626001Y-95128000D01*
G75*
G02*
X133677000Y-95178999I0J-50999D01*
G01*
G37*
G36*
G01*
X131477000Y-95178999D02*
X131477000Y-95829001D01*
G75*
G02*
X131426001Y-95880000I-50999J0D01*
G01*
X130365999Y-95880000D01*
G75*
G02*
X130315000Y-95829001I0J50999D01*
G01*
X130315000Y-95178999D01*
G75*
G02*
X130365999Y-95128000I50999J0D01*
G01*
X131426001Y-95128000D01*
G75*
G02*
X131477000Y-95178999I0J-50999D01*
G01*
G37*
G36*
G01*
X131477000Y-97078999D02*
X131477000Y-97729001D01*
G75*
G02*
X131426001Y-97780000I-50999J0D01*
G01*
X130365999Y-97780000D01*
G75*
G02*
X130315000Y-97729001I0J50999D01*
G01*
X130315000Y-97078999D01*
G75*
G02*
X130365999Y-97028000I50999J0D01*
G01*
X131426001Y-97028000D01*
G75*
G02*
X131477000Y-97078999I0J-50999D01*
G01*
G37*
G36*
G01*
X131477000Y-96128999D02*
X131477000Y-96779001D01*
G75*
G02*
X131426001Y-96830000I-50999J0D01*
G01*
X130365999Y-96830000D01*
G75*
G02*
X130315000Y-96779001I0J50999D01*
G01*
X130315000Y-96128999D01*
G75*
G02*
X130365999Y-96078000I50999J0D01*
G01*
X131426001Y-96078000D01*
G75*
G02*
X131477000Y-96128999I0J-50999D01*
G01*
G37*
D11*
X177600000Y-91500000D03*
G36*
G01*
X120094500Y-105591000D02*
X121395500Y-105591000D01*
G75*
G02*
X121571000Y-105766500I0J-175500D01*
G01*
X121571000Y-106117500D01*
G75*
G02*
X121395500Y-106293000I-175500J0D01*
G01*
X120094500Y-106293000D01*
G75*
G02*
X119919000Y-106117500I0J175500D01*
G01*
X119919000Y-105766500D01*
G75*
G02*
X120094500Y-105591000I175500J0D01*
G01*
G37*
G36*
G01*
X120094500Y-106591000D02*
X121395500Y-106591000D01*
G75*
G02*
X121571000Y-106766500I0J-175500D01*
G01*
X121571000Y-107117500D01*
G75*
G02*
X121395500Y-107293000I-175500J0D01*
G01*
X120094500Y-107293000D01*
G75*
G02*
X119919000Y-107117500I0J175500D01*
G01*
X119919000Y-106766500D01*
G75*
G02*
X120094500Y-106591000I175500J0D01*
G01*
G37*
G36*
G01*
X120094500Y-107591000D02*
X121395500Y-107591000D01*
G75*
G02*
X121571000Y-107766500I0J-175500D01*
G01*
X121571000Y-108117500D01*
G75*
G02*
X121395500Y-108293000I-175500J0D01*
G01*
X120094500Y-108293000D01*
G75*
G02*
X119919000Y-108117500I0J175500D01*
G01*
X119919000Y-107766500D01*
G75*
G02*
X120094500Y-107591000I175500J0D01*
G01*
G37*
G36*
G01*
X120094500Y-108591000D02*
X121395500Y-108591000D01*
G75*
G02*
X121571000Y-108766500I0J-175500D01*
G01*
X121571000Y-109117500D01*
G75*
G02*
X121395500Y-109293000I-175500J0D01*
G01*
X120094500Y-109293000D01*
G75*
G02*
X119919000Y-109117500I0J175500D01*
G01*
X119919000Y-108766500D01*
G75*
G02*
X120094500Y-108591000I175500J0D01*
G01*
G37*
G36*
G01*
X116190248Y-103991000D02*
X117549752Y-103991000D01*
G75*
G02*
X117821000Y-104262248I0J-271248D01*
G01*
X117821000Y-105021752D01*
G75*
G02*
X117549752Y-105293000I-271248J0D01*
G01*
X116190248Y-105293000D01*
G75*
G02*
X115919000Y-105021752I0J271248D01*
G01*
X115919000Y-104262248D01*
G75*
G02*
X116190248Y-103991000I271248J0D01*
G01*
G37*
G36*
G01*
X116190248Y-109591000D02*
X117549752Y-109591000D01*
G75*
G02*
X117821000Y-109862248I0J-271248D01*
G01*
X117821000Y-110621752D01*
G75*
G02*
X117549752Y-110893000I-271248J0D01*
G01*
X116190248Y-110893000D01*
G75*
G02*
X115919000Y-110621752I0J271248D01*
G01*
X115919000Y-109862248D01*
G75*
G02*
X116190248Y-109591000I271248J0D01*
G01*
G37*
G36*
G01*
X116190248Y-100701000D02*
X117549752Y-100701000D01*
G75*
G02*
X117821000Y-100972248I0J-271248D01*
G01*
X117821000Y-101731752D01*
G75*
G02*
X117549752Y-102003000I-271248J0D01*
G01*
X116190248Y-102003000D01*
G75*
G02*
X115919000Y-101731752I0J271248D01*
G01*
X115919000Y-100972248D01*
G75*
G02*
X116190248Y-100701000I271248J0D01*
G01*
G37*
G36*
G01*
X116190248Y-95101000D02*
X117549752Y-95101000D01*
G75*
G02*
X117821000Y-95372248I0J-271248D01*
G01*
X117821000Y-96131752D01*
G75*
G02*
X117549752Y-96403000I-271248J0D01*
G01*
X116190248Y-96403000D01*
G75*
G02*
X115919000Y-96131752I0J271248D01*
G01*
X115919000Y-95372248D01*
G75*
G02*
X116190248Y-95101000I271248J0D01*
G01*
G37*
G36*
G01*
X120094500Y-99701000D02*
X121395500Y-99701000D01*
G75*
G02*
X121571000Y-99876500I0J-175500D01*
G01*
X121571000Y-100227500D01*
G75*
G02*
X121395500Y-100403000I-175500J0D01*
G01*
X120094500Y-100403000D01*
G75*
G02*
X119919000Y-100227500I0J175500D01*
G01*
X119919000Y-99876500D01*
G75*
G02*
X120094500Y-99701000I175500J0D01*
G01*
G37*
G36*
G01*
X120094500Y-98701000D02*
X121395500Y-98701000D01*
G75*
G02*
X121571000Y-98876500I0J-175500D01*
G01*
X121571000Y-99227500D01*
G75*
G02*
X121395500Y-99403000I-175500J0D01*
G01*
X120094500Y-99403000D01*
G75*
G02*
X119919000Y-99227500I0J175500D01*
G01*
X119919000Y-98876500D01*
G75*
G02*
X120094500Y-98701000I175500J0D01*
G01*
G37*
G36*
G01*
X120094500Y-97701000D02*
X121395500Y-97701000D01*
G75*
G02*
X121571000Y-97876500I0J-175500D01*
G01*
X121571000Y-98227500D01*
G75*
G02*
X121395500Y-98403000I-175500J0D01*
G01*
X120094500Y-98403000D01*
G75*
G02*
X119919000Y-98227500I0J175500D01*
G01*
X119919000Y-97876500D01*
G75*
G02*
X120094500Y-97701000I175500J0D01*
G01*
G37*
G36*
G01*
X120094500Y-96701000D02*
X121395500Y-96701000D01*
G75*
G02*
X121571000Y-96876500I0J-175500D01*
G01*
X121571000Y-97227500D01*
G75*
G02*
X121395500Y-97403000I-175500J0D01*
G01*
X120094500Y-97403000D01*
G75*
G02*
X119919000Y-97227500I0J175500D01*
G01*
X119919000Y-96876500D01*
G75*
G02*
X120094500Y-96701000I175500J0D01*
G01*
G37*
X119500000Y-91500000D03*
X119600000Y-114500000D03*
G36*
G01*
X123533800Y-91783600D02*
X125233800Y-91783600D01*
G75*
G02*
X125284800Y-91834600I0J-51000D01*
G01*
X125284800Y-93534600D01*
G75*
G02*
X125233800Y-93585600I-51000J0D01*
G01*
X123533800Y-93585600D01*
G75*
G02*
X123482800Y-93534600I0J51000D01*
G01*
X123482800Y-91834600D01*
G75*
G02*
X123533800Y-91783600I51000J0D01*
G01*
G37*
D14*
X124383800Y-90144600D03*
X126923800Y-92684600D03*
X126923800Y-90144600D03*
X129463800Y-92684600D03*
X129463800Y-90144600D03*
X132003800Y-92684600D03*
X132003800Y-90144600D03*
X134543800Y-92684600D03*
X134543800Y-90144600D03*
X137083800Y-92684600D03*
X137083800Y-90144600D03*
X139623800Y-92684600D03*
X139623800Y-90144600D03*
X142163800Y-92684600D03*
X142163800Y-90144600D03*
X144703800Y-92684600D03*
X144703800Y-90144600D03*
X147243800Y-92684600D03*
X147243800Y-90144600D03*
X149783800Y-92684600D03*
X149783800Y-90144600D03*
X152323800Y-92684600D03*
X152323800Y-90144600D03*
X154863800Y-92684600D03*
X154863800Y-90144600D03*
X157403800Y-92684600D03*
X157403800Y-90144600D03*
X159943800Y-92684600D03*
X159943800Y-90144600D03*
X162483800Y-92684600D03*
X162483800Y-90144600D03*
X165023800Y-92684600D03*
X165023800Y-90144600D03*
X167563800Y-92684600D03*
X167563800Y-90144600D03*
X170103800Y-92684600D03*
X170103800Y-90144600D03*
X172643800Y-92684600D03*
X172643800Y-90144600D03*
G36*
G01*
X135085000Y-115050000D02*
X135085000Y-113550000D01*
G75*
G02*
X135136000Y-113499000I51000J0D01*
G01*
X136136000Y-113499000D01*
G75*
G02*
X136187000Y-113550000I0J-51000D01*
G01*
X136187000Y-115050000D01*
G75*
G02*
X136136000Y-115101000I-51000J0D01*
G01*
X135136000Y-115101000D01*
G75*
G02*
X135085000Y-115050000I0J51000D01*
G01*
G37*
G36*
G01*
X136385000Y-115050000D02*
X136385000Y-113550000D01*
G75*
G02*
X136436000Y-113499000I51000J0D01*
G01*
X137436000Y-113499000D01*
G75*
G02*
X137487000Y-113550000I0J-51000D01*
G01*
X137487000Y-115050000D01*
G75*
G02*
X137436000Y-115101000I-51000J0D01*
G01*
X136436000Y-115101000D01*
G75*
G02*
X136385000Y-115050000I0J51000D01*
G01*
G37*
G36*
G01*
X133785000Y-115050000D02*
X133785000Y-113550000D01*
G75*
G02*
X133836000Y-113499000I51000J0D01*
G01*
X134836000Y-113499000D01*
G75*
G02*
X134887000Y-113550000I0J-51000D01*
G01*
X134887000Y-115050000D01*
G75*
G02*
X134836000Y-115101000I-51000J0D01*
G01*
X133836000Y-115101000D01*
G75*
G02*
X133785000Y-115050000I0J51000D01*
G01*
G37*
G36*
G01*
X164244500Y-110944501D02*
X164244500Y-110294499D01*
G75*
G02*
X164295499Y-110243500I50999J0D01*
G01*
X165355501Y-110243500D01*
G75*
G02*
X165406500Y-110294499I0J-50999D01*
G01*
X165406500Y-110944501D01*
G75*
G02*
X165355501Y-110995500I-50999J0D01*
G01*
X164295499Y-110995500D01*
G75*
G02*
X164244500Y-110944501I0J50999D01*
G01*
G37*
G36*
G01*
X164244500Y-111894501D02*
X164244500Y-111244499D01*
G75*
G02*
X164295499Y-111193500I50999J0D01*
G01*
X165355501Y-111193500D01*
G75*
G02*
X165406500Y-111244499I0J-50999D01*
G01*
X165406500Y-111894501D01*
G75*
G02*
X165355501Y-111945500I-50999J0D01*
G01*
X164295499Y-111945500D01*
G75*
G02*
X164244500Y-111894501I0J50999D01*
G01*
G37*
G36*
G01*
X164244500Y-112844501D02*
X164244500Y-112194499D01*
G75*
G02*
X164295499Y-112143500I50999J0D01*
G01*
X165355501Y-112143500D01*
G75*
G02*
X165406500Y-112194499I0J-50999D01*
G01*
X165406500Y-112844501D01*
G75*
G02*
X165355501Y-112895500I-50999J0D01*
G01*
X164295499Y-112895500D01*
G75*
G02*
X164244500Y-112844501I0J50999D01*
G01*
G37*
G36*
G01*
X166444500Y-112844501D02*
X166444500Y-112194499D01*
G75*
G02*
X166495499Y-112143500I50999J0D01*
G01*
X167555501Y-112143500D01*
G75*
G02*
X167606500Y-112194499I0J-50999D01*
G01*
X167606500Y-112844501D01*
G75*
G02*
X167555501Y-112895500I-50999J0D01*
G01*
X166495499Y-112895500D01*
G75*
G02*
X166444500Y-112844501I0J50999D01*
G01*
G37*
G36*
G01*
X166444500Y-110944501D02*
X166444500Y-110294499D01*
G75*
G02*
X166495499Y-110243500I50999J0D01*
G01*
X167555501Y-110243500D01*
G75*
G02*
X167606500Y-110294499I0J-50999D01*
G01*
X167606500Y-110944501D01*
G75*
G02*
X167555501Y-110995500I-50999J0D01*
G01*
X166495499Y-110995500D01*
G75*
G02*
X166444500Y-110944501I0J50999D01*
G01*
G37*
G36*
G01*
X166444500Y-111894501D02*
X166444500Y-111244499D01*
G75*
G02*
X166495499Y-111193500I50999J0D01*
G01*
X167555501Y-111193500D01*
G75*
G02*
X167606500Y-111244499I0J-50999D01*
G01*
X167606500Y-111894501D01*
G75*
G02*
X167555501Y-111945500I-50999J0D01*
G01*
X166495499Y-111945500D01*
G75*
G02*
X166444500Y-111894501I0J50999D01*
G01*
G37*
G36*
G01*
X141054000Y-115050000D02*
X141054000Y-113550000D01*
G75*
G02*
X141105000Y-113499000I51000J0D01*
G01*
X142105000Y-113499000D01*
G75*
G02*
X142156000Y-113550000I0J-51000D01*
G01*
X142156000Y-115050000D01*
G75*
G02*
X142105000Y-115101000I-51000J0D01*
G01*
X141105000Y-115101000D01*
G75*
G02*
X141054000Y-115050000I0J51000D01*
G01*
G37*
G36*
G01*
X142354000Y-115050000D02*
X142354000Y-113550000D01*
G75*
G02*
X142405000Y-113499000I51000J0D01*
G01*
X143405000Y-113499000D01*
G75*
G02*
X143456000Y-113550000I0J-51000D01*
G01*
X143456000Y-115050000D01*
G75*
G02*
X143405000Y-115101000I-51000J0D01*
G01*
X142405000Y-115101000D01*
G75*
G02*
X142354000Y-115050000I0J51000D01*
G01*
G37*
G36*
G01*
X139754000Y-115050000D02*
X139754000Y-113550000D01*
G75*
G02*
X139805000Y-113499000I51000J0D01*
G01*
X140805000Y-113499000D01*
G75*
G02*
X140856000Y-113550000I0J-51000D01*
G01*
X140856000Y-115050000D01*
G75*
G02*
X140805000Y-115101000I-51000J0D01*
G01*
X139805000Y-115101000D01*
G75*
G02*
X139754000Y-115050000I0J51000D01*
G01*
G37*
D15*
X172974000Y-114808000D03*
G36*
G01*
X128530000Y-97000250D02*
X128530000Y-97563750D01*
G75*
G02*
X128285750Y-97808000I-244250J0D01*
G01*
X127797250Y-97808000D01*
G75*
G02*
X127553000Y-97563750I0J244250D01*
G01*
X127553000Y-97000250D01*
G75*
G02*
X127797250Y-96756000I244250J0D01*
G01*
X128285750Y-96756000D01*
G75*
G02*
X128530000Y-97000250I0J-244250D01*
G01*
G37*
G36*
G01*
X126955000Y-97000250D02*
X126955000Y-97563750D01*
G75*
G02*
X126710750Y-97808000I-244250J0D01*
G01*
X126222250Y-97808000D01*
G75*
G02*
X125978000Y-97563750I0J244250D01*
G01*
X125978000Y-97000250D01*
G75*
G02*
X126222250Y-96756000I244250J0D01*
G01*
X126710750Y-96756000D01*
G75*
G02*
X126955000Y-97000250I0J-244250D01*
G01*
G37*
X172974000Y-112776000D03*
X155575000Y-109474000D03*
X125120400Y-115849400D03*
X125120400Y-113436400D03*
D16*
G36*
X136386732Y-113498000D02*
G01*
X136387000Y-113499000D01*
X136387000Y-115101000D01*
X136386000Y-115102732D01*
X136385000Y-115103000D01*
X136187000Y-115103000D01*
X136185268Y-115102000D01*
X136185000Y-115101000D01*
X136185000Y-113499000D01*
X136186000Y-113497268D01*
X136187000Y-113497000D01*
X136385000Y-113497000D01*
X136386732Y-113498000D01*
G37*
G36*
X142355732Y-113498000D02*
G01*
X142356000Y-113499000D01*
X142356000Y-115101000D01*
X142355000Y-115102732D01*
X142354000Y-115103000D01*
X142156000Y-115103000D01*
X142154268Y-115102000D01*
X142154000Y-115101000D01*
X142154000Y-113499000D01*
X142155000Y-113497268D01*
X142156000Y-113497000D01*
X142354000Y-113497000D01*
X142355732Y-113498000D01*
G37*
G36*
X141055732Y-113498000D02*
G01*
X141056000Y-113499000D01*
X141056000Y-115101000D01*
X141055000Y-115102732D01*
X141054000Y-115103000D01*
X140856000Y-115103000D01*
X140854268Y-115102000D01*
X140854000Y-115101000D01*
X140854000Y-113499000D01*
X140855000Y-113497268D01*
X140856000Y-113497000D01*
X141054000Y-113497000D01*
X141055732Y-113498000D01*
G37*
G36*
X135086732Y-113498000D02*
G01*
X135087000Y-113499000D01*
X135087000Y-115101000D01*
X135086000Y-115102732D01*
X135085000Y-115103000D01*
X134887000Y-115103000D01*
X134885268Y-115102000D01*
X134885000Y-115101000D01*
X134885000Y-113499000D01*
X134886000Y-113497268D01*
X134887000Y-113497000D01*
X135085000Y-113497000D01*
X135086732Y-113498000D01*
G37*
G36*
X165408232Y-111944500D02*
G01*
X165408500Y-111945500D01*
X165408500Y-112143500D01*
X165407500Y-112145232D01*
X165406500Y-112145500D01*
X164244500Y-112145500D01*
X164242768Y-112144500D01*
X164242500Y-112143500D01*
X164242500Y-111945500D01*
X164243500Y-111943768D01*
X164244500Y-111943500D01*
X165406500Y-111943500D01*
X165408232Y-111944500D01*
G37*
G36*
X167608232Y-111944500D02*
G01*
X167608500Y-111945500D01*
X167608500Y-112143500D01*
X167607500Y-112145232D01*
X167606500Y-112145500D01*
X166444500Y-112145500D01*
X166442768Y-112144500D01*
X166442500Y-112143500D01*
X166442500Y-111945500D01*
X166443500Y-111943768D01*
X166444500Y-111943500D01*
X167606500Y-111943500D01*
X167608232Y-111944500D01*
G37*
G36*
X165408232Y-110994500D02*
G01*
X165408500Y-110995500D01*
X165408500Y-111193500D01*
X165407500Y-111195232D01*
X165406500Y-111195500D01*
X164244500Y-111195500D01*
X164242768Y-111194500D01*
X164242500Y-111193500D01*
X164242500Y-110995500D01*
X164243500Y-110993768D01*
X164244500Y-110993500D01*
X165406500Y-110993500D01*
X165408232Y-110994500D01*
G37*
G36*
X167608232Y-110994500D02*
G01*
X167608500Y-110995500D01*
X167608500Y-111193500D01*
X167607500Y-111195232D01*
X167606500Y-111195500D01*
X166444500Y-111195500D01*
X166442768Y-111194500D01*
X166442500Y-111193500D01*
X166442500Y-110995500D01*
X166443500Y-110993768D01*
X166444500Y-110993500D01*
X167606500Y-110993500D01*
X167608232Y-110994500D01*
G37*
G36*
X131267732Y-110657000D02*
G01*
X131268000Y-110658000D01*
X131268000Y-110806000D01*
X131267000Y-110807732D01*
X131266000Y-110808000D01*
X130064000Y-110808000D01*
X130062268Y-110807000D01*
X130062000Y-110806000D01*
X130062000Y-110658000D01*
X130063000Y-110656268D01*
X130064000Y-110656000D01*
X131266000Y-110656000D01*
X131267732Y-110657000D01*
G37*
G36*
X140166732Y-110657000D02*
G01*
X140167000Y-110658000D01*
X140167000Y-110806000D01*
X140166000Y-110807732D01*
X140165000Y-110808000D01*
X138963000Y-110808000D01*
X138961268Y-110807000D01*
X138961000Y-110806000D01*
X138961000Y-110658000D01*
X138962000Y-110656268D01*
X138963000Y-110656000D01*
X140165000Y-110656000D01*
X140166732Y-110657000D01*
G37*
G36*
X135866732Y-110657000D02*
G01*
X135867000Y-110658000D01*
X135867000Y-110806000D01*
X135866000Y-110807732D01*
X135865000Y-110808000D01*
X134663000Y-110808000D01*
X134661268Y-110807000D01*
X134661000Y-110806000D01*
X134661000Y-110658000D01*
X134662000Y-110656268D01*
X134663000Y-110656000D01*
X135865000Y-110656000D01*
X135866732Y-110657000D01*
G37*
G36*
X126967732Y-110657000D02*
G01*
X126968000Y-110658000D01*
X126968000Y-110806000D01*
X126967000Y-110807732D01*
X126966000Y-110808000D01*
X125764000Y-110808000D01*
X125762268Y-110807000D01*
X125762000Y-110806000D01*
X125762000Y-110658000D01*
X125763000Y-110656268D01*
X125764000Y-110656000D01*
X126966000Y-110656000D01*
X126967732Y-110657000D01*
G37*
G36*
X131267732Y-110157000D02*
G01*
X131268000Y-110158000D01*
X131268000Y-110306000D01*
X131267000Y-110307732D01*
X131266000Y-110308000D01*
X130064000Y-110308000D01*
X130062268Y-110307000D01*
X130062000Y-110306000D01*
X130062000Y-110158000D01*
X130063000Y-110156268D01*
X130064000Y-110156000D01*
X131266000Y-110156000D01*
X131267732Y-110157000D01*
G37*
G36*
X135866732Y-110157000D02*
G01*
X135867000Y-110158000D01*
X135867000Y-110306000D01*
X135866000Y-110307732D01*
X135865000Y-110308000D01*
X134663000Y-110308000D01*
X134661268Y-110307000D01*
X134661000Y-110306000D01*
X134661000Y-110158000D01*
X134662000Y-110156268D01*
X134663000Y-110156000D01*
X135865000Y-110156000D01*
X135866732Y-110157000D01*
G37*
G36*
X126967732Y-110157000D02*
G01*
X126968000Y-110158000D01*
X126968000Y-110306000D01*
X126967000Y-110307732D01*
X126966000Y-110308000D01*
X125764000Y-110308000D01*
X125762268Y-110307000D01*
X125762000Y-110306000D01*
X125762000Y-110158000D01*
X125763000Y-110156268D01*
X125764000Y-110156000D01*
X126966000Y-110156000D01*
X126967732Y-110157000D01*
G37*
G36*
X140166732Y-110157000D02*
G01*
X140167000Y-110158000D01*
X140167000Y-110306000D01*
X140166000Y-110307732D01*
X140165000Y-110308000D01*
X138963000Y-110308000D01*
X138961268Y-110307000D01*
X138961000Y-110306000D01*
X138961000Y-110158000D01*
X138962000Y-110156268D01*
X138963000Y-110156000D01*
X140165000Y-110156000D01*
X140166732Y-110157000D01*
G37*
G36*
X126967732Y-109657000D02*
G01*
X126968000Y-109658000D01*
X126968000Y-109806000D01*
X126967000Y-109807732D01*
X126966000Y-109808000D01*
X125764000Y-109808000D01*
X125762268Y-109807000D01*
X125762000Y-109806000D01*
X125762000Y-109658000D01*
X125763000Y-109656268D01*
X125764000Y-109656000D01*
X126966000Y-109656000D01*
X126967732Y-109657000D01*
G37*
G36*
X131267732Y-109657000D02*
G01*
X131268000Y-109658000D01*
X131268000Y-109806000D01*
X131267000Y-109807732D01*
X131266000Y-109808000D01*
X130064000Y-109808000D01*
X130062268Y-109807000D01*
X130062000Y-109806000D01*
X130062000Y-109658000D01*
X130063000Y-109656268D01*
X130064000Y-109656000D01*
X131266000Y-109656000D01*
X131267732Y-109657000D01*
G37*
G36*
X135866732Y-109657000D02*
G01*
X135867000Y-109658000D01*
X135867000Y-109806000D01*
X135866000Y-109807732D01*
X135865000Y-109808000D01*
X134663000Y-109808000D01*
X134661268Y-109807000D01*
X134661000Y-109806000D01*
X134661000Y-109658000D01*
X134662000Y-109656268D01*
X134663000Y-109656000D01*
X135865000Y-109656000D01*
X135866732Y-109657000D01*
G37*
G36*
X140166732Y-109657000D02*
G01*
X140167000Y-109658000D01*
X140167000Y-109806000D01*
X140166000Y-109807732D01*
X140165000Y-109808000D01*
X138963000Y-109808000D01*
X138961268Y-109807000D01*
X138961000Y-109806000D01*
X138961000Y-109658000D01*
X138962000Y-109656268D01*
X138963000Y-109656000D01*
X140165000Y-109656000D01*
X140166732Y-109657000D01*
G37*
G36*
X131267732Y-109157000D02*
G01*
X131268000Y-109158000D01*
X131268000Y-109306000D01*
X131267000Y-109307732D01*
X131266000Y-109308000D01*
X130064000Y-109308000D01*
X130062268Y-109307000D01*
X130062000Y-109306000D01*
X130062000Y-109158000D01*
X130063000Y-109156268D01*
X130064000Y-109156000D01*
X131266000Y-109156000D01*
X131267732Y-109157000D01*
G37*
G36*
X140166732Y-109157000D02*
G01*
X140167000Y-109158000D01*
X140167000Y-109306000D01*
X140166000Y-109307732D01*
X140165000Y-109308000D01*
X138963000Y-109308000D01*
X138961268Y-109307000D01*
X138961000Y-109306000D01*
X138961000Y-109158000D01*
X138962000Y-109156268D01*
X138963000Y-109156000D01*
X140165000Y-109156000D01*
X140166732Y-109157000D01*
G37*
G36*
X126967732Y-109157000D02*
G01*
X126968000Y-109158000D01*
X126968000Y-109306000D01*
X126967000Y-109307732D01*
X126966000Y-109308000D01*
X125764000Y-109308000D01*
X125762268Y-109307000D01*
X125762000Y-109306000D01*
X125762000Y-109158000D01*
X125763000Y-109156268D01*
X125764000Y-109156000D01*
X126966000Y-109156000D01*
X126967732Y-109157000D01*
G37*
G36*
X135866732Y-109157000D02*
G01*
X135867000Y-109158000D01*
X135867000Y-109306000D01*
X135866000Y-109307732D01*
X135865000Y-109308000D01*
X134663000Y-109308000D01*
X134661268Y-109307000D01*
X134661000Y-109306000D01*
X134661000Y-109158000D01*
X134662000Y-109156268D01*
X134663000Y-109156000D01*
X135865000Y-109156000D01*
X135866732Y-109157000D01*
G37*
G36*
X173598990Y-97559804D02*
G01*
X173604062Y-97611304D01*
X173619029Y-97660642D01*
X173643332Y-97706110D01*
X173676038Y-97745962D01*
X173715890Y-97778668D01*
X173761358Y-97802971D01*
X173810696Y-97817938D01*
X173862196Y-97823010D01*
X173863822Y-97824175D01*
X173863626Y-97826165D01*
X173862000Y-97827000D01*
X173779903Y-97827000D01*
X173779707Y-97826990D01*
X173739204Y-97823001D01*
X173738819Y-97822925D01*
X173705767Y-97812899D01*
X173705405Y-97812749D01*
X173674954Y-97796472D01*
X173674628Y-97796254D01*
X173647932Y-97774345D01*
X173647655Y-97774068D01*
X173625746Y-97747372D01*
X173625528Y-97747046D01*
X173609251Y-97716595D01*
X173609101Y-97716233D01*
X173599075Y-97683181D01*
X173598999Y-97682796D01*
X173595010Y-97642293D01*
X173595000Y-97642097D01*
X173595000Y-97560000D01*
X173596000Y-97558268D01*
X173598000Y-97558268D01*
X173598990Y-97559804D01*
G37*
G36*
X175400165Y-97558374D02*
G01*
X175401000Y-97560000D01*
X175401000Y-97642097D01*
X175400990Y-97642293D01*
X175397001Y-97682796D01*
X175396925Y-97683181D01*
X175386899Y-97716233D01*
X175386749Y-97716595D01*
X175370472Y-97747046D01*
X175370254Y-97747372D01*
X175348345Y-97774068D01*
X175348068Y-97774345D01*
X175321372Y-97796254D01*
X175321046Y-97796472D01*
X175290595Y-97812749D01*
X175290233Y-97812899D01*
X175257181Y-97822925D01*
X175256796Y-97823001D01*
X175216293Y-97826990D01*
X175216097Y-97827000D01*
X175134000Y-97827000D01*
X175132268Y-97826000D01*
X175132268Y-97824000D01*
X175133804Y-97823010D01*
X175185304Y-97817938D01*
X175234642Y-97802971D01*
X175280110Y-97778668D01*
X175319962Y-97745962D01*
X175352668Y-97706110D01*
X175376971Y-97660642D01*
X175391938Y-97611304D01*
X175397010Y-97559804D01*
X175398175Y-97558178D01*
X175400165Y-97558374D01*
G37*
G36*
X145658990Y-97534804D02*
G01*
X145664062Y-97586304D01*
X145679029Y-97635642D01*
X145703332Y-97681110D01*
X145736038Y-97720962D01*
X145775890Y-97753668D01*
X145821358Y-97777971D01*
X145870696Y-97792938D01*
X145922196Y-97798010D01*
X145923822Y-97799175D01*
X145923626Y-97801165D01*
X145922000Y-97802000D01*
X145839903Y-97802000D01*
X145839707Y-97801990D01*
X145799204Y-97798001D01*
X145798819Y-97797925D01*
X145765767Y-97787899D01*
X145765405Y-97787749D01*
X145734954Y-97771472D01*
X145734628Y-97771254D01*
X145707932Y-97749345D01*
X145707655Y-97749068D01*
X145685746Y-97722372D01*
X145685528Y-97722046D01*
X145669251Y-97691595D01*
X145669101Y-97691233D01*
X145659075Y-97658181D01*
X145658999Y-97657796D01*
X145655010Y-97617293D01*
X145655000Y-97617097D01*
X145655000Y-97535000D01*
X145656000Y-97533268D01*
X145658000Y-97533268D01*
X145658990Y-97534804D01*
G37*
G36*
X147460165Y-97533374D02*
G01*
X147461000Y-97535000D01*
X147461000Y-97617097D01*
X147460990Y-97617293D01*
X147457001Y-97657796D01*
X147456925Y-97658181D01*
X147446899Y-97691233D01*
X147446749Y-97691595D01*
X147430472Y-97722046D01*
X147430254Y-97722372D01*
X147408345Y-97749068D01*
X147408068Y-97749345D01*
X147381372Y-97771254D01*
X147381046Y-97771472D01*
X147350595Y-97787749D01*
X147350233Y-97787899D01*
X147317181Y-97797925D01*
X147316796Y-97798001D01*
X147276293Y-97801990D01*
X147276097Y-97802000D01*
X147194000Y-97802000D01*
X147192268Y-97801000D01*
X147192268Y-97799000D01*
X147193804Y-97798010D01*
X147245304Y-97792938D01*
X147294642Y-97777971D01*
X147340110Y-97753668D01*
X147379962Y-97720962D01*
X147412668Y-97681110D01*
X147436971Y-97635642D01*
X147451938Y-97586304D01*
X147457010Y-97534804D01*
X147458175Y-97533178D01*
X147460165Y-97533374D01*
G37*
G36*
X159621990Y-97534804D02*
G01*
X159627062Y-97586304D01*
X159642029Y-97635642D01*
X159666332Y-97681110D01*
X159699038Y-97720962D01*
X159738890Y-97753668D01*
X159784358Y-97777971D01*
X159833696Y-97792938D01*
X159885196Y-97798010D01*
X159886822Y-97799175D01*
X159886626Y-97801165D01*
X159885000Y-97802000D01*
X159802903Y-97802000D01*
X159802707Y-97801990D01*
X159762204Y-97798001D01*
X159761819Y-97797925D01*
X159728767Y-97787899D01*
X159728405Y-97787749D01*
X159697954Y-97771472D01*
X159697628Y-97771254D01*
X159670932Y-97749345D01*
X159670655Y-97749068D01*
X159648746Y-97722372D01*
X159648528Y-97722046D01*
X159632251Y-97691595D01*
X159632101Y-97691233D01*
X159622075Y-97658181D01*
X159621999Y-97657796D01*
X159618010Y-97617293D01*
X159618000Y-97617097D01*
X159618000Y-97535000D01*
X159619000Y-97533268D01*
X159621000Y-97533268D01*
X159621990Y-97534804D01*
G37*
G36*
X161423165Y-97533374D02*
G01*
X161424000Y-97535000D01*
X161424000Y-97617097D01*
X161423990Y-97617293D01*
X161420001Y-97657796D01*
X161419925Y-97658181D01*
X161409899Y-97691233D01*
X161409749Y-97691595D01*
X161393472Y-97722046D01*
X161393254Y-97722372D01*
X161371345Y-97749068D01*
X161371068Y-97749345D01*
X161344372Y-97771254D01*
X161344046Y-97771472D01*
X161313595Y-97787749D01*
X161313233Y-97787899D01*
X161280181Y-97797925D01*
X161279796Y-97798001D01*
X161239293Y-97801990D01*
X161239097Y-97802000D01*
X161157000Y-97802000D01*
X161155268Y-97801000D01*
X161155268Y-97799000D01*
X161156804Y-97798010D01*
X161208304Y-97792938D01*
X161257642Y-97777971D01*
X161303110Y-97753668D01*
X161342962Y-97720962D01*
X161375668Y-97681110D01*
X161399971Y-97635642D01*
X161414938Y-97586304D01*
X161420010Y-97534804D01*
X161421175Y-97533178D01*
X161423165Y-97533374D01*
G37*
G36*
X140282732Y-96895000D02*
G01*
X140283000Y-96896000D01*
X140283000Y-97094000D01*
X140282000Y-97095732D01*
X140281000Y-97096000D01*
X139119000Y-97096000D01*
X139117268Y-97095000D01*
X139117000Y-97094000D01*
X139117000Y-96896000D01*
X139118000Y-96894268D01*
X139119000Y-96894000D01*
X140281000Y-96894000D01*
X140282732Y-96895000D01*
G37*
G36*
X138082732Y-96895000D02*
G01*
X138083000Y-96896000D01*
X138083000Y-97094000D01*
X138082000Y-97095732D01*
X138081000Y-97096000D01*
X136919000Y-97096000D01*
X136917268Y-97095000D01*
X136917000Y-97094000D01*
X136917000Y-96896000D01*
X136918000Y-96894268D01*
X136919000Y-96894000D01*
X138081000Y-96894000D01*
X138082732Y-96895000D01*
G37*
G36*
X133678732Y-96829000D02*
G01*
X133679000Y-96830000D01*
X133679000Y-97028000D01*
X133678000Y-97029732D01*
X133677000Y-97030000D01*
X132515000Y-97030000D01*
X132513268Y-97029000D01*
X132513000Y-97028000D01*
X132513000Y-96830000D01*
X132514000Y-96828268D01*
X132515000Y-96828000D01*
X133677000Y-96828000D01*
X133678732Y-96829000D01*
G37*
G36*
X131478732Y-96829000D02*
G01*
X131479000Y-96830000D01*
X131479000Y-97028000D01*
X131478000Y-97029732D01*
X131477000Y-97030000D01*
X130315000Y-97030000D01*
X130313268Y-97029000D01*
X130313000Y-97028000D01*
X130313000Y-96830000D01*
X130314000Y-96828268D01*
X130315000Y-96828000D01*
X131477000Y-96828000D01*
X131478732Y-96829000D01*
G37*
G36*
X140282732Y-95945000D02*
G01*
X140283000Y-95946000D01*
X140283000Y-96144000D01*
X140282000Y-96145732D01*
X140281000Y-96146000D01*
X139119000Y-96146000D01*
X139117268Y-96145000D01*
X139117000Y-96144000D01*
X139117000Y-95946000D01*
X139118000Y-95944268D01*
X139119000Y-95944000D01*
X140281000Y-95944000D01*
X140282732Y-95945000D01*
G37*
G36*
X138082732Y-95945000D02*
G01*
X138083000Y-95946000D01*
X138083000Y-96144000D01*
X138082000Y-96145732D01*
X138081000Y-96146000D01*
X136919000Y-96146000D01*
X136917268Y-96145000D01*
X136917000Y-96144000D01*
X136917000Y-95946000D01*
X136918000Y-95944268D01*
X136919000Y-95944000D01*
X138081000Y-95944000D01*
X138082732Y-95945000D01*
G37*
G36*
X131478732Y-95879000D02*
G01*
X131479000Y-95880000D01*
X131479000Y-96078000D01*
X131478000Y-96079732D01*
X131477000Y-96080000D01*
X130315000Y-96080000D01*
X130313268Y-96079000D01*
X130313000Y-96078000D01*
X130313000Y-95880000D01*
X130314000Y-95878268D01*
X130315000Y-95878000D01*
X131477000Y-95878000D01*
X131478732Y-95879000D01*
G37*
G36*
X133678732Y-95879000D02*
G01*
X133679000Y-95880000D01*
X133679000Y-96078000D01*
X133678000Y-96079732D01*
X133677000Y-96080000D01*
X132515000Y-96080000D01*
X132513268Y-96079000D01*
X132513000Y-96078000D01*
X132513000Y-95880000D01*
X132514000Y-95878268D01*
X132515000Y-95878000D01*
X133677000Y-95878000D01*
X133678732Y-95879000D01*
G37*
G36*
X145923732Y-95747000D02*
G01*
X145923732Y-95749000D01*
X145922196Y-95749990D01*
X145870696Y-95755062D01*
X145821358Y-95770029D01*
X145775890Y-95794332D01*
X145736038Y-95827038D01*
X145703332Y-95866890D01*
X145679029Y-95912358D01*
X145664062Y-95961696D01*
X145658990Y-96013196D01*
X145657825Y-96014822D01*
X145655835Y-96014626D01*
X145655000Y-96013000D01*
X145655000Y-95930903D01*
X145655010Y-95930707D01*
X145658999Y-95890204D01*
X145659075Y-95889819D01*
X145669101Y-95856767D01*
X145669251Y-95856405D01*
X145685528Y-95825954D01*
X145685746Y-95825628D01*
X145707655Y-95798932D01*
X145707932Y-95798655D01*
X145734628Y-95776746D01*
X145734954Y-95776528D01*
X145765405Y-95760251D01*
X145765767Y-95760101D01*
X145798819Y-95750075D01*
X145799204Y-95749999D01*
X145839707Y-95746010D01*
X145839903Y-95746000D01*
X145922000Y-95746000D01*
X145923732Y-95747000D01*
G37*
G36*
X159886732Y-95747000D02*
G01*
X159886732Y-95749000D01*
X159885196Y-95749990D01*
X159833696Y-95755062D01*
X159784358Y-95770029D01*
X159738890Y-95794332D01*
X159699038Y-95827038D01*
X159666332Y-95866890D01*
X159642029Y-95912358D01*
X159627062Y-95961696D01*
X159621990Y-96013196D01*
X159620825Y-96014822D01*
X159618835Y-96014626D01*
X159618000Y-96013000D01*
X159618000Y-95930903D01*
X159618010Y-95930707D01*
X159621999Y-95890204D01*
X159622075Y-95889819D01*
X159632101Y-95856767D01*
X159632251Y-95856405D01*
X159648528Y-95825954D01*
X159648746Y-95825628D01*
X159670655Y-95798932D01*
X159670932Y-95798655D01*
X159697628Y-95776746D01*
X159697954Y-95776528D01*
X159728405Y-95760251D01*
X159728767Y-95760101D01*
X159761819Y-95750075D01*
X159762204Y-95749999D01*
X159802707Y-95746010D01*
X159802903Y-95746000D01*
X159885000Y-95746000D01*
X159886732Y-95747000D01*
G37*
G36*
X161239293Y-95746010D02*
G01*
X161279796Y-95749999D01*
X161280181Y-95750075D01*
X161313233Y-95760101D01*
X161313595Y-95760251D01*
X161344046Y-95776528D01*
X161344372Y-95776746D01*
X161371068Y-95798655D01*
X161371345Y-95798932D01*
X161393254Y-95825628D01*
X161393472Y-95825954D01*
X161409749Y-95856405D01*
X161409899Y-95856767D01*
X161419925Y-95889819D01*
X161420001Y-95890204D01*
X161423990Y-95930707D01*
X161424000Y-95930903D01*
X161424000Y-96013000D01*
X161423000Y-96014732D01*
X161421000Y-96014732D01*
X161420010Y-96013196D01*
X161414938Y-95961696D01*
X161399971Y-95912358D01*
X161375668Y-95866890D01*
X161342962Y-95827038D01*
X161303110Y-95794332D01*
X161257642Y-95770029D01*
X161208304Y-95755062D01*
X161156804Y-95749990D01*
X161155178Y-95748825D01*
X161155374Y-95746835D01*
X161157000Y-95746000D01*
X161239097Y-95746000D01*
X161239293Y-95746010D01*
G37*
G36*
X147276293Y-95746010D02*
G01*
X147316796Y-95749999D01*
X147317181Y-95750075D01*
X147350233Y-95760101D01*
X147350595Y-95760251D01*
X147381046Y-95776528D01*
X147381372Y-95776746D01*
X147408068Y-95798655D01*
X147408345Y-95798932D01*
X147430254Y-95825628D01*
X147430472Y-95825954D01*
X147446749Y-95856405D01*
X147446899Y-95856767D01*
X147456925Y-95889819D01*
X147457001Y-95890204D01*
X147460990Y-95930707D01*
X147461000Y-95930903D01*
X147461000Y-96013000D01*
X147460000Y-96014732D01*
X147458000Y-96014732D01*
X147457010Y-96013196D01*
X147451938Y-95961696D01*
X147436971Y-95912358D01*
X147412668Y-95866890D01*
X147379962Y-95827038D01*
X147340110Y-95794332D01*
X147294642Y-95770029D01*
X147245304Y-95755062D01*
X147193804Y-95749990D01*
X147192178Y-95748825D01*
X147192374Y-95746835D01*
X147194000Y-95746000D01*
X147276097Y-95746000D01*
X147276293Y-95746010D01*
G37*
G36*
X173863732Y-95722000D02*
G01*
X173863732Y-95724000D01*
X173862196Y-95724990D01*
X173810696Y-95730062D01*
X173761358Y-95745029D01*
X173715890Y-95769332D01*
X173676038Y-95802038D01*
X173643332Y-95841890D01*
X173619029Y-95887358D01*
X173604062Y-95936696D01*
X173598990Y-95988196D01*
X173597825Y-95989822D01*
X173595835Y-95989626D01*
X173595000Y-95988000D01*
X173595000Y-95905903D01*
X173595010Y-95905707D01*
X173598999Y-95865204D01*
X173599075Y-95864819D01*
X173609101Y-95831767D01*
X173609251Y-95831405D01*
X173625528Y-95800954D01*
X173625746Y-95800628D01*
X173647655Y-95773932D01*
X173647932Y-95773655D01*
X173674628Y-95751746D01*
X173674954Y-95751528D01*
X173705405Y-95735251D01*
X173705767Y-95735101D01*
X173738819Y-95725075D01*
X173739204Y-95724999D01*
X173779707Y-95721010D01*
X173779903Y-95721000D01*
X173862000Y-95721000D01*
X173863732Y-95722000D01*
G37*
G36*
X175216293Y-95721010D02*
G01*
X175256796Y-95724999D01*
X175257181Y-95725075D01*
X175290233Y-95735101D01*
X175290595Y-95735251D01*
X175321046Y-95751528D01*
X175321372Y-95751746D01*
X175348068Y-95773655D01*
X175348345Y-95773932D01*
X175370254Y-95800628D01*
X175370472Y-95800954D01*
X175386749Y-95831405D01*
X175386899Y-95831767D01*
X175396925Y-95864819D01*
X175397001Y-95865204D01*
X175400990Y-95905707D01*
X175401000Y-95905903D01*
X175401000Y-95988000D01*
X175400000Y-95989732D01*
X175398000Y-95989732D01*
X175397010Y-95988196D01*
X175391938Y-95936696D01*
X175376971Y-95887358D01*
X175352668Y-95841890D01*
X175319962Y-95802038D01*
X175280110Y-95769332D01*
X175234642Y-95745029D01*
X175185304Y-95730062D01*
X175133804Y-95724990D01*
X175132178Y-95723825D01*
X175132374Y-95721835D01*
X175134000Y-95721000D01*
X175216097Y-95721000D01*
X175216293Y-95721010D01*
G37*
M02*
