G04 #@! TF.GenerationSoftware,KiCad,Pcbnew,5.1.12*
G04 #@! TF.CreationDate,2021-11-22T09:30:37+01:00*
G04 #@! TF.ProjectId,Raspberry Pi Zero W,52617370-6265-4727-9279-205069205a65,1.0.8*
G04 #@! TF.SameCoordinates,Original*
G04 #@! TF.FileFunction,Legend,Bot*
G04 #@! TF.FilePolarity,Positive*
%FSLAX46Y46*%
G04 Gerber Fmt 4.6, Leading zero omitted, Abs format (unit mm)*
G04 Created by KiCad (PCBNEW 5.1.12) date 2021-11-22 09:30:37*
%MOMM*%
%LPD*%
G01*
G04 APERTURE LIST*
%ADD10C,0.200000*%
%ADD11C,0.120000*%
%ADD12C,0.300000*%
%ADD13C,0.150000*%
%ADD14C,0.187500*%
%ADD15C,0.010000*%
G04 APERTURE END LIST*
D10*
X149840809Y-111559000D02*
X149155095Y-111559000D01*
X149764619Y-111956904D02*
X149497952Y-112756904D01*
X149231285Y-111956904D01*
X149155095Y-111559000D02*
X148355095Y-111559000D01*
X148697952Y-112337857D02*
X148583666Y-112375952D01*
X148545571Y-112414047D01*
X148507476Y-112490238D01*
X148507476Y-112604523D01*
X148545571Y-112680714D01*
X148583666Y-112718809D01*
X148659857Y-112756904D01*
X148964619Y-112756904D01*
X148964619Y-111956904D01*
X148697952Y-111956904D01*
X148621761Y-111995000D01*
X148583666Y-112033095D01*
X148545571Y-112109285D01*
X148545571Y-112185476D01*
X148583666Y-112261666D01*
X148621761Y-112299761D01*
X148697952Y-112337857D01*
X148964619Y-112337857D01*
X148355095Y-111559000D02*
X147593190Y-111559000D01*
X148202714Y-112033095D02*
X148164619Y-111995000D01*
X148088428Y-111956904D01*
X147897952Y-111956904D01*
X147821761Y-111995000D01*
X147783666Y-112033095D01*
X147745571Y-112109285D01*
X147745571Y-112185476D01*
X147783666Y-112299761D01*
X148240809Y-112756904D01*
X147745571Y-112756904D01*
X153650809Y-111559000D02*
X152965095Y-111559000D01*
X153574619Y-111956904D02*
X153307952Y-112756904D01*
X153041285Y-111956904D01*
X152965095Y-111559000D02*
X152165095Y-111559000D01*
X152507952Y-112337857D02*
X152393666Y-112375952D01*
X152355571Y-112414047D01*
X152317476Y-112490238D01*
X152317476Y-112604523D01*
X152355571Y-112680714D01*
X152393666Y-112718809D01*
X152469857Y-112756904D01*
X152774619Y-112756904D01*
X152774619Y-111956904D01*
X152507952Y-111956904D01*
X152431761Y-111995000D01*
X152393666Y-112033095D01*
X152355571Y-112109285D01*
X152355571Y-112185476D01*
X152393666Y-112261666D01*
X152431761Y-112299761D01*
X152507952Y-112337857D01*
X152774619Y-112337857D01*
X152165095Y-111559000D02*
X151403190Y-111559000D01*
X151555571Y-112756904D02*
X152012714Y-112756904D01*
X151784142Y-112756904D02*
X151784142Y-111956904D01*
X151860333Y-112071190D01*
X151936523Y-112147380D01*
X152012714Y-112185476D01*
D11*
X126588657Y-115749428D02*
X126474371Y-115749428D01*
X126417228Y-115778000D01*
X126360085Y-115835142D01*
X126331514Y-115949428D01*
X126331514Y-116149428D01*
X126360085Y-116263714D01*
X126417228Y-116320857D01*
X126474371Y-116349428D01*
X126588657Y-116349428D01*
X126645800Y-116320857D01*
X126702942Y-116263714D01*
X126731514Y-116149428D01*
X126731514Y-115949428D01*
X126702942Y-115835142D01*
X126645800Y-115778000D01*
X126588657Y-115749428D01*
X126102942Y-116320857D02*
X126017228Y-116349428D01*
X125874371Y-116349428D01*
X125817228Y-116320857D01*
X125788657Y-116292285D01*
X125760085Y-116235142D01*
X125760085Y-116178000D01*
X125788657Y-116120857D01*
X125817228Y-116092285D01*
X125874371Y-116063714D01*
X125988657Y-116035142D01*
X126045800Y-116006571D01*
X126074371Y-115978000D01*
X126102942Y-115920857D01*
X126102942Y-115863714D01*
X126074371Y-115806571D01*
X126045800Y-115778000D01*
X125988657Y-115749428D01*
X125845800Y-115749428D01*
X125760085Y-115778000D01*
X125502942Y-116349428D02*
X125502942Y-115749428D01*
X125502942Y-116035142D02*
X125160085Y-116035142D01*
X125160085Y-116349428D02*
X125160085Y-115749428D01*
X124931514Y-115749428D02*
X124788657Y-116349428D01*
X124674371Y-115920857D01*
X124560085Y-116349428D01*
X124417228Y-115749428D01*
D10*
X158794309Y-96128500D02*
X158108595Y-96128500D01*
X158718119Y-96526404D02*
X158451452Y-97326404D01*
X158184785Y-96526404D01*
X158108595Y-96128500D02*
X157308595Y-96128500D01*
X157651452Y-96907357D02*
X157537166Y-96945452D01*
X157499071Y-96983547D01*
X157460976Y-97059738D01*
X157460976Y-97174023D01*
X157499071Y-97250214D01*
X157537166Y-97288309D01*
X157613357Y-97326404D01*
X157918119Y-97326404D01*
X157918119Y-96526404D01*
X157651452Y-96526404D01*
X157575261Y-96564500D01*
X157537166Y-96602595D01*
X157499071Y-96678785D01*
X157499071Y-96754976D01*
X157537166Y-96831166D01*
X157575261Y-96869261D01*
X157651452Y-96907357D01*
X157918119Y-96907357D01*
X157308595Y-96128500D02*
X156546690Y-96128500D01*
X157156214Y-96602595D02*
X157118119Y-96564500D01*
X157041928Y-96526404D01*
X156851452Y-96526404D01*
X156775261Y-96564500D01*
X156737166Y-96602595D01*
X156699071Y-96678785D01*
X156699071Y-96754976D01*
X156737166Y-96869261D01*
X157194309Y-97326404D01*
X156699071Y-97326404D01*
X144887809Y-96065000D02*
X144202095Y-96065000D01*
X144811619Y-96462904D02*
X144544952Y-97262904D01*
X144278285Y-96462904D01*
X144202095Y-96065000D02*
X143402095Y-96065000D01*
X143744952Y-96843857D02*
X143630666Y-96881952D01*
X143592571Y-96920047D01*
X143554476Y-96996238D01*
X143554476Y-97110523D01*
X143592571Y-97186714D01*
X143630666Y-97224809D01*
X143706857Y-97262904D01*
X144011619Y-97262904D01*
X144011619Y-96462904D01*
X143744952Y-96462904D01*
X143668761Y-96501000D01*
X143630666Y-96539095D01*
X143592571Y-96615285D01*
X143592571Y-96691476D01*
X143630666Y-96767666D01*
X143668761Y-96805761D01*
X143744952Y-96843857D01*
X144011619Y-96843857D01*
X143402095Y-96065000D02*
X142640190Y-96065000D01*
X142792571Y-97262904D02*
X143249714Y-97262904D01*
X143021142Y-97262904D02*
X143021142Y-96462904D01*
X143097333Y-96577190D01*
X143173523Y-96653380D01*
X143249714Y-96691476D01*
D12*
X147066000Y-107315000D02*
X175641000Y-107315000D01*
X147193000Y-100965000D02*
X175768000Y-100965000D01*
D10*
X160279547Y-110305833D02*
X159898595Y-110305833D01*
X160355738Y-110534404D02*
X160089071Y-109734404D01*
X159822404Y-110534404D01*
X159555738Y-110534404D02*
X159555738Y-109734404D01*
X159365261Y-109734404D01*
X159250976Y-109772500D01*
X159174785Y-109848690D01*
X159136690Y-109924880D01*
X159098595Y-110077261D01*
X159098595Y-110191547D01*
X159136690Y-110343928D01*
X159174785Y-110420119D01*
X159250976Y-110496309D01*
X159365261Y-110534404D01*
X159555738Y-110534404D01*
X158793833Y-110496309D02*
X158679547Y-110534404D01*
X158489071Y-110534404D01*
X158412880Y-110496309D01*
X158374785Y-110458214D01*
X158336690Y-110382023D01*
X158336690Y-110305833D01*
X158374785Y-110229642D01*
X158412880Y-110191547D01*
X158489071Y-110153452D01*
X158641452Y-110115357D01*
X158717642Y-110077261D01*
X158755738Y-110039166D01*
X158793833Y-109962976D01*
X158793833Y-109886785D01*
X158755738Y-109810595D01*
X158717642Y-109772500D01*
X158641452Y-109734404D01*
X158450976Y-109734404D01*
X158336690Y-109772500D01*
X157574785Y-110534404D02*
X158031928Y-110534404D01*
X157803357Y-110534404D02*
X157803357Y-109734404D01*
X157879547Y-109848690D01*
X157955738Y-109924880D01*
X158031928Y-109962976D01*
X157079547Y-109734404D02*
X157003357Y-109734404D01*
X156927166Y-109772500D01*
X156889071Y-109810595D01*
X156850976Y-109886785D01*
X156812880Y-110039166D01*
X156812880Y-110229642D01*
X156850976Y-110382023D01*
X156889071Y-110458214D01*
X156927166Y-110496309D01*
X157003357Y-110534404D01*
X157079547Y-110534404D01*
X157155738Y-110496309D01*
X157193833Y-110458214D01*
X157231928Y-110382023D01*
X157270023Y-110229642D01*
X157270023Y-110039166D01*
X157231928Y-109886785D01*
X157193833Y-109810595D01*
X157155738Y-109772500D01*
X157079547Y-109734404D01*
X156050976Y-110534404D02*
X156508119Y-110534404D01*
X156279547Y-110534404D02*
X156279547Y-109734404D01*
X156355738Y-109848690D01*
X156431928Y-109924880D01*
X156508119Y-109962976D01*
X155365261Y-110001071D02*
X155365261Y-110534404D01*
X155555738Y-109696309D02*
X155746214Y-110267738D01*
X155250976Y-110267738D01*
X154946214Y-110458214D02*
X154908119Y-110496309D01*
X154946214Y-110534404D01*
X154984309Y-110496309D01*
X154946214Y-110458214D01*
X154946214Y-110534404D01*
X154946214Y-110039166D02*
X154908119Y-110077261D01*
X154946214Y-110115357D01*
X154984309Y-110077261D01*
X154946214Y-110039166D01*
X154946214Y-110115357D01*
X153803357Y-109734404D02*
X153727166Y-109734404D01*
X153650976Y-109772500D01*
X153612880Y-109810595D01*
X153574785Y-109886785D01*
X153536690Y-110039166D01*
X153536690Y-110229642D01*
X153574785Y-110382023D01*
X153612880Y-110458214D01*
X153650976Y-110496309D01*
X153727166Y-110534404D01*
X153803357Y-110534404D01*
X153879547Y-110496309D01*
X153917642Y-110458214D01*
X153955738Y-110382023D01*
X153993833Y-110229642D01*
X153993833Y-110039166D01*
X153955738Y-109886785D01*
X153917642Y-109810595D01*
X153879547Y-109772500D01*
X153803357Y-109734404D01*
X153270023Y-110534404D02*
X152850976Y-110001071D01*
X153270023Y-110001071D02*
X152850976Y-110534404D01*
X152203357Y-110001071D02*
X152203357Y-110534404D01*
X152393833Y-109696309D02*
X152584309Y-110267738D01*
X152089071Y-110267738D01*
X151670023Y-110077261D02*
X151746214Y-110039166D01*
X151784309Y-110001071D01*
X151822404Y-109924880D01*
X151822404Y-109886785D01*
X151784309Y-109810595D01*
X151746214Y-109772500D01*
X151670023Y-109734404D01*
X151517642Y-109734404D01*
X151441452Y-109772500D01*
X151403357Y-109810595D01*
X151365261Y-109886785D01*
X151365261Y-109924880D01*
X151403357Y-110001071D01*
X151441452Y-110039166D01*
X151517642Y-110077261D01*
X151670023Y-110077261D01*
X151746214Y-110115357D01*
X151784309Y-110153452D01*
X151822404Y-110229642D01*
X151822404Y-110382023D01*
X151784309Y-110458214D01*
X151746214Y-110496309D01*
X151670023Y-110534404D01*
X151517642Y-110534404D01*
X151441452Y-110496309D01*
X151403357Y-110458214D01*
X151365261Y-110382023D01*
X151365261Y-110229642D01*
X151403357Y-110153452D01*
X151441452Y-110115357D01*
X151517642Y-110077261D01*
X150984309Y-110496309D02*
X150984309Y-110534404D01*
X151022404Y-110610595D01*
X151060500Y-110648690D01*
X149879547Y-109734404D02*
X149803357Y-109734404D01*
X149727166Y-109772500D01*
X149689071Y-109810595D01*
X149650976Y-109886785D01*
X149612880Y-110039166D01*
X149612880Y-110229642D01*
X149650976Y-110382023D01*
X149689071Y-110458214D01*
X149727166Y-110496309D01*
X149803357Y-110534404D01*
X149879547Y-110534404D01*
X149955738Y-110496309D01*
X149993833Y-110458214D01*
X150031928Y-110382023D01*
X150070023Y-110229642D01*
X150070023Y-110039166D01*
X150031928Y-109886785D01*
X149993833Y-109810595D01*
X149955738Y-109772500D01*
X149879547Y-109734404D01*
X149346214Y-110534404D02*
X148927166Y-110001071D01*
X149346214Y-110001071D02*
X148927166Y-110534404D01*
X148279547Y-110001071D02*
X148279547Y-110534404D01*
X148470023Y-109696309D02*
X148660500Y-110267738D01*
X148165261Y-110267738D01*
X147822404Y-110534404D02*
X147670023Y-110534404D01*
X147593833Y-110496309D01*
X147555738Y-110458214D01*
X147479547Y-110343928D01*
X147441452Y-110191547D01*
X147441452Y-109886785D01*
X147479547Y-109810595D01*
X147517642Y-109772500D01*
X147593833Y-109734404D01*
X147746214Y-109734404D01*
X147822404Y-109772500D01*
X147860500Y-109810595D01*
X147898595Y-109886785D01*
X147898595Y-110077261D01*
X147860500Y-110153452D01*
X147822404Y-110191547D01*
X147746214Y-110229642D01*
X147593833Y-110229642D01*
X147517642Y-110191547D01*
X147479547Y-110153452D01*
X147441452Y-110077261D01*
X160501785Y-108819904D02*
X160501785Y-108019904D01*
X160235119Y-108591333D01*
X159968452Y-108019904D01*
X159968452Y-108819904D01*
X159130357Y-108743714D02*
X159168452Y-108781809D01*
X159282738Y-108819904D01*
X159358928Y-108819904D01*
X159473214Y-108781809D01*
X159549404Y-108705619D01*
X159587500Y-108629428D01*
X159625595Y-108477047D01*
X159625595Y-108362761D01*
X159587500Y-108210380D01*
X159549404Y-108134190D01*
X159473214Y-108058000D01*
X159358928Y-108019904D01*
X159282738Y-108019904D01*
X159168452Y-108058000D01*
X159130357Y-108096095D01*
X158787500Y-108819904D02*
X158787500Y-108019904D01*
X158482738Y-108019904D01*
X158406547Y-108058000D01*
X158368452Y-108096095D01*
X158330357Y-108172285D01*
X158330357Y-108286571D01*
X158368452Y-108362761D01*
X158406547Y-108400857D01*
X158482738Y-108438952D01*
X158787500Y-108438952D01*
X157644642Y-108286571D02*
X157644642Y-108819904D01*
X157835119Y-107981809D02*
X158025595Y-108553238D01*
X157530357Y-108553238D01*
X157301785Y-108019904D02*
X156768452Y-108019904D01*
X157111309Y-108819904D01*
X156501785Y-108096095D02*
X156463690Y-108058000D01*
X156387500Y-108019904D01*
X156197023Y-108019904D01*
X156120833Y-108058000D01*
X156082738Y-108096095D01*
X156044642Y-108172285D01*
X156044642Y-108248476D01*
X156082738Y-108362761D01*
X156539880Y-108819904D01*
X156044642Y-108819904D01*
X155320833Y-108019904D02*
X155701785Y-108019904D01*
X155739880Y-108400857D01*
X155701785Y-108362761D01*
X155625595Y-108324666D01*
X155435119Y-108324666D01*
X155358928Y-108362761D01*
X155320833Y-108400857D01*
X155282738Y-108477047D01*
X155282738Y-108667523D01*
X155320833Y-108743714D01*
X155358928Y-108781809D01*
X155435119Y-108819904D01*
X155625595Y-108819904D01*
X155701785Y-108781809D01*
X155739880Y-108743714D01*
X154939880Y-108743714D02*
X154901785Y-108781809D01*
X154939880Y-108819904D01*
X154977976Y-108781809D01*
X154939880Y-108743714D01*
X154939880Y-108819904D01*
X154939880Y-108324666D02*
X154901785Y-108362761D01*
X154939880Y-108400857D01*
X154977976Y-108362761D01*
X154939880Y-108324666D01*
X154939880Y-108400857D01*
X153797023Y-108019904D02*
X153720833Y-108019904D01*
X153644642Y-108058000D01*
X153606547Y-108096095D01*
X153568452Y-108172285D01*
X153530357Y-108324666D01*
X153530357Y-108515142D01*
X153568452Y-108667523D01*
X153606547Y-108743714D01*
X153644642Y-108781809D01*
X153720833Y-108819904D01*
X153797023Y-108819904D01*
X153873214Y-108781809D01*
X153911309Y-108743714D01*
X153949404Y-108667523D01*
X153987500Y-108515142D01*
X153987500Y-108324666D01*
X153949404Y-108172285D01*
X153911309Y-108096095D01*
X153873214Y-108058000D01*
X153797023Y-108019904D01*
X153263690Y-108819904D02*
X152844642Y-108286571D01*
X153263690Y-108286571D02*
X152844642Y-108819904D01*
X152197023Y-108019904D02*
X152349404Y-108019904D01*
X152425595Y-108058000D01*
X152463690Y-108096095D01*
X152539880Y-108210380D01*
X152577976Y-108362761D01*
X152577976Y-108667523D01*
X152539880Y-108743714D01*
X152501785Y-108781809D01*
X152425595Y-108819904D01*
X152273214Y-108819904D01*
X152197023Y-108781809D01*
X152158928Y-108743714D01*
X152120833Y-108667523D01*
X152120833Y-108477047D01*
X152158928Y-108400857D01*
X152197023Y-108362761D01*
X152273214Y-108324666D01*
X152425595Y-108324666D01*
X152501785Y-108362761D01*
X152539880Y-108400857D01*
X152577976Y-108477047D01*
X151816071Y-108096095D02*
X151777976Y-108058000D01*
X151701785Y-108019904D01*
X151511309Y-108019904D01*
X151435119Y-108058000D01*
X151397023Y-108096095D01*
X151358928Y-108172285D01*
X151358928Y-108248476D01*
X151397023Y-108362761D01*
X151854166Y-108819904D01*
X151358928Y-108819904D01*
X150977976Y-108781809D02*
X150977976Y-108819904D01*
X151016071Y-108896095D01*
X151054166Y-108934190D01*
X149873214Y-108019904D02*
X149797023Y-108019904D01*
X149720833Y-108058000D01*
X149682738Y-108096095D01*
X149644642Y-108172285D01*
X149606547Y-108324666D01*
X149606547Y-108515142D01*
X149644642Y-108667523D01*
X149682738Y-108743714D01*
X149720833Y-108781809D01*
X149797023Y-108819904D01*
X149873214Y-108819904D01*
X149949404Y-108781809D01*
X149987500Y-108743714D01*
X150025595Y-108667523D01*
X150063690Y-108515142D01*
X150063690Y-108324666D01*
X150025595Y-108172285D01*
X149987500Y-108096095D01*
X149949404Y-108058000D01*
X149873214Y-108019904D01*
X149339880Y-108819904D02*
X148920833Y-108286571D01*
X149339880Y-108286571D02*
X148920833Y-108819904D01*
X148273214Y-108019904D02*
X148425595Y-108019904D01*
X148501785Y-108058000D01*
X148539880Y-108096095D01*
X148616071Y-108210380D01*
X148654166Y-108362761D01*
X148654166Y-108667523D01*
X148616071Y-108743714D01*
X148577976Y-108781809D01*
X148501785Y-108819904D01*
X148349404Y-108819904D01*
X148273214Y-108781809D01*
X148235119Y-108743714D01*
X148197023Y-108667523D01*
X148197023Y-108477047D01*
X148235119Y-108400857D01*
X148273214Y-108362761D01*
X148349404Y-108324666D01*
X148501785Y-108324666D01*
X148577976Y-108362761D01*
X148616071Y-108400857D01*
X148654166Y-108477047D01*
X147930357Y-108019904D02*
X147435119Y-108019904D01*
X147701785Y-108324666D01*
X147587500Y-108324666D01*
X147511309Y-108362761D01*
X147473214Y-108400857D01*
X147435119Y-108477047D01*
X147435119Y-108667523D01*
X147473214Y-108743714D01*
X147511309Y-108781809D01*
X147587500Y-108819904D01*
X147816071Y-108819904D01*
X147892261Y-108781809D01*
X147930357Y-108743714D01*
D13*
X173323214Y-95367071D02*
X172751785Y-95367071D01*
X173037500Y-95652785D02*
X173037500Y-95081357D01*
D10*
X172808761Y-96192000D02*
X172046857Y-96192000D01*
X172199238Y-97389904D02*
X172656380Y-97389904D01*
X172427809Y-97389904D02*
X172427809Y-96589904D01*
X172504000Y-96704190D01*
X172580190Y-96780380D01*
X172656380Y-96818476D01*
X172046857Y-96192000D02*
X171284952Y-96192000D01*
X171894476Y-96666095D02*
X171856380Y-96628000D01*
X171780190Y-96589904D01*
X171589714Y-96589904D01*
X171513523Y-96628000D01*
X171475428Y-96666095D01*
X171437333Y-96742285D01*
X171437333Y-96818476D01*
X171475428Y-96932761D01*
X171932571Y-97389904D01*
X171437333Y-97389904D01*
X171284952Y-96192000D02*
X170599238Y-96192000D01*
X171208761Y-96589904D02*
X170942095Y-97389904D01*
X170675428Y-96589904D01*
D14*
X142890714Y-116711000D02*
X142533571Y-116711000D01*
X142962142Y-116925285D02*
X142712142Y-116175285D01*
X142462142Y-116925285D01*
X142212142Y-116925285D02*
X142212142Y-116175285D01*
X142033571Y-116175285D01*
X141926428Y-116211000D01*
X141855000Y-116282428D01*
X141819285Y-116353857D01*
X141783571Y-116496714D01*
X141783571Y-116603857D01*
X141819285Y-116746714D01*
X141855000Y-116818142D01*
X141926428Y-116889571D01*
X142033571Y-116925285D01*
X142212142Y-116925285D01*
X141033571Y-116925285D02*
X141283571Y-116568142D01*
X141462142Y-116925285D02*
X141462142Y-116175285D01*
X141176428Y-116175285D01*
X141105000Y-116211000D01*
X141069285Y-116246714D01*
X141033571Y-116318142D01*
X141033571Y-116425285D01*
X141069285Y-116496714D01*
X141105000Y-116532428D01*
X141176428Y-116568142D01*
X141462142Y-116568142D01*
X140569285Y-116175285D02*
X140497857Y-116175285D01*
X140426428Y-116211000D01*
X140390714Y-116246714D01*
X140355000Y-116318142D01*
X140319285Y-116461000D01*
X140319285Y-116639571D01*
X140355000Y-116782428D01*
X140390714Y-116853857D01*
X140426428Y-116889571D01*
X140497857Y-116925285D01*
X140569285Y-116925285D01*
X140640714Y-116889571D01*
X140676428Y-116853857D01*
X140712142Y-116782428D01*
X140747857Y-116639571D01*
X140747857Y-116461000D01*
X140712142Y-116318142D01*
X140676428Y-116246714D01*
X140640714Y-116211000D01*
X140569285Y-116175285D01*
D13*
X136858214Y-116711000D02*
X136501071Y-116711000D01*
X136929642Y-116925285D02*
X136679642Y-116175285D01*
X136429642Y-116925285D01*
X136179642Y-116925285D02*
X136179642Y-116175285D01*
X136001071Y-116175285D01*
X135893928Y-116211000D01*
X135822500Y-116282428D01*
X135786785Y-116353857D01*
X135751071Y-116496714D01*
X135751071Y-116603857D01*
X135786785Y-116746714D01*
X135822500Y-116818142D01*
X135893928Y-116889571D01*
X136001071Y-116925285D01*
X136179642Y-116925285D01*
X135001071Y-116925285D02*
X135251071Y-116568142D01*
X135429642Y-116925285D02*
X135429642Y-116175285D01*
X135143928Y-116175285D01*
X135072500Y-116211000D01*
X135036785Y-116246714D01*
X135001071Y-116318142D01*
X135001071Y-116425285D01*
X135036785Y-116496714D01*
X135072500Y-116532428D01*
X135143928Y-116568142D01*
X135429642Y-116568142D01*
X134286785Y-116925285D02*
X134715357Y-116925285D01*
X134501071Y-116925285D02*
X134501071Y-116175285D01*
X134572500Y-116282428D01*
X134643928Y-116353857D01*
X134715357Y-116389571D01*
D14*
X124394142Y-104606285D02*
X124394142Y-103856285D01*
X124072714Y-103927714D02*
X124037000Y-103892000D01*
X123965571Y-103856285D01*
X123787000Y-103856285D01*
X123715571Y-103892000D01*
X123679857Y-103927714D01*
X123644142Y-103999142D01*
X123644142Y-104070571D01*
X123679857Y-104177714D01*
X124108428Y-104606285D01*
X123644142Y-104606285D01*
X122894142Y-104534857D02*
X122929857Y-104570571D01*
X123037000Y-104606285D01*
X123108428Y-104606285D01*
X123215571Y-104570571D01*
X123287000Y-104499142D01*
X123322714Y-104427714D01*
X123358428Y-104284857D01*
X123358428Y-104177714D01*
X123322714Y-104034857D01*
X123287000Y-103963428D01*
X123215571Y-103892000D01*
X123108428Y-103856285D01*
X123037000Y-103856285D01*
X122929857Y-103892000D01*
X122894142Y-103927714D01*
X122572714Y-104320571D02*
X122001285Y-104320571D01*
X121644142Y-104606285D02*
X121644142Y-103856285D01*
X121358428Y-103856285D01*
X121287000Y-103892000D01*
X121251285Y-103927714D01*
X121215571Y-103999142D01*
X121215571Y-104106285D01*
X121251285Y-104177714D01*
X121287000Y-104213428D01*
X121358428Y-104249142D01*
X121644142Y-104249142D01*
X120572714Y-104106285D02*
X120572714Y-104606285D01*
X120894142Y-104106285D02*
X120894142Y-104499142D01*
X120858428Y-104570571D01*
X120787000Y-104606285D01*
X120679857Y-104606285D01*
X120608428Y-104570571D01*
X120572714Y-104534857D01*
X120108428Y-104606285D02*
X120179857Y-104570571D01*
X120215571Y-104499142D01*
X120215571Y-103856285D01*
X119715571Y-104606285D02*
X119787000Y-104570571D01*
X119822714Y-104499142D01*
X119822714Y-103856285D01*
X119108428Y-104106285D02*
X119108428Y-104606285D01*
X119429857Y-104106285D02*
X119429857Y-104499142D01*
X119394142Y-104570571D01*
X119322714Y-104606285D01*
X119215571Y-104606285D01*
X119144142Y-104570571D01*
X119108428Y-104534857D01*
X118751285Y-104106285D02*
X118751285Y-104856285D01*
X118751285Y-104142000D02*
X118679857Y-104106285D01*
X118537000Y-104106285D01*
X118465571Y-104142000D01*
X118429857Y-104177714D01*
X118394142Y-104249142D01*
X118394142Y-104463428D01*
X118429857Y-104534857D01*
X118465571Y-104570571D01*
X118537000Y-104606285D01*
X118679857Y-104606285D01*
X118751285Y-104570571D01*
X124426000Y-97113285D02*
X124426000Y-96363285D01*
X124104571Y-96434714D02*
X124068857Y-96399000D01*
X123997428Y-96363285D01*
X123818857Y-96363285D01*
X123747428Y-96399000D01*
X123711714Y-96434714D01*
X123676000Y-96506142D01*
X123676000Y-96577571D01*
X123711714Y-96684714D01*
X124140285Y-97113285D01*
X123676000Y-97113285D01*
X122926000Y-97041857D02*
X122961714Y-97077571D01*
X123068857Y-97113285D01*
X123140285Y-97113285D01*
X123247428Y-97077571D01*
X123318857Y-97006142D01*
X123354571Y-96934714D01*
X123390285Y-96791857D01*
X123390285Y-96684714D01*
X123354571Y-96541857D01*
X123318857Y-96470428D01*
X123247428Y-96399000D01*
X123140285Y-96363285D01*
X123068857Y-96363285D01*
X122961714Y-96399000D01*
X122926000Y-96434714D01*
X122604571Y-96827571D02*
X122033142Y-96827571D01*
X121247428Y-97113285D02*
X121497428Y-96756142D01*
X121676000Y-97113285D02*
X121676000Y-96363285D01*
X121390285Y-96363285D01*
X121318857Y-96399000D01*
X121283142Y-96434714D01*
X121247428Y-96506142D01*
X121247428Y-96613285D01*
X121283142Y-96684714D01*
X121318857Y-96720428D01*
X121390285Y-96756142D01*
X121676000Y-96756142D01*
X120926000Y-97113285D02*
X120926000Y-96363285D01*
X120640285Y-96363285D01*
X120568857Y-96399000D01*
X120533142Y-96434714D01*
X120497428Y-96506142D01*
X120497428Y-96613285D01*
X120533142Y-96684714D01*
X120568857Y-96720428D01*
X120640285Y-96756142D01*
X120926000Y-96756142D01*
X120176000Y-97113285D02*
X120176000Y-96613285D01*
X120176000Y-96363285D02*
X120211714Y-96399000D01*
X120176000Y-96434714D01*
X120140285Y-96399000D01*
X120176000Y-96363285D01*
X120176000Y-96434714D01*
D12*
X175634000Y-102107071D02*
X175134000Y-103607071D01*
X174634000Y-102107071D01*
X174134000Y-102821357D02*
X173634000Y-102821357D01*
X173419714Y-103607071D02*
X174134000Y-103607071D01*
X174134000Y-102107071D01*
X173419714Y-102107071D01*
X172848285Y-103178500D02*
X172134000Y-103178500D01*
X172991142Y-103607071D02*
X172491142Y-102107071D01*
X171991142Y-103607071D01*
X170991142Y-102821357D02*
X170776857Y-102892785D01*
X170705428Y-102964214D01*
X170634000Y-103107071D01*
X170634000Y-103321357D01*
X170705428Y-103464214D01*
X170776857Y-103535642D01*
X170919714Y-103607071D01*
X171491142Y-103607071D01*
X171491142Y-102107071D01*
X170991142Y-102107071D01*
X170848285Y-102178500D01*
X170776857Y-102249928D01*
X170705428Y-102392785D01*
X170705428Y-102535642D01*
X170776857Y-102678500D01*
X170848285Y-102749928D01*
X170991142Y-102821357D01*
X171491142Y-102821357D01*
X168348285Y-102821357D02*
X168848285Y-102821357D01*
X168848285Y-103607071D02*
X168848285Y-102107071D01*
X168134000Y-102107071D01*
X167562571Y-102821357D02*
X167062571Y-102821357D01*
X166848285Y-103607071D02*
X167562571Y-103607071D01*
X167562571Y-102107071D01*
X166848285Y-102107071D01*
X166276857Y-103535642D02*
X166062571Y-103607071D01*
X165705428Y-103607071D01*
X165562571Y-103535642D01*
X165491142Y-103464214D01*
X165419714Y-103321357D01*
X165419714Y-103178500D01*
X165491142Y-103035642D01*
X165562571Y-102964214D01*
X165705428Y-102892785D01*
X165991142Y-102821357D01*
X166134000Y-102749928D01*
X166205428Y-102678500D01*
X166276857Y-102535642D01*
X166276857Y-102392785D01*
X166205428Y-102249928D01*
X166134000Y-102178500D01*
X165991142Y-102107071D01*
X165634000Y-102107071D01*
X165419714Y-102178500D01*
X164991142Y-102107071D02*
X164134000Y-102107071D01*
X164562571Y-103607071D02*
X164562571Y-102107071D01*
X163348285Y-102107071D02*
X163062571Y-102107071D01*
X162919714Y-102178500D01*
X162776857Y-102321357D01*
X162705428Y-102607071D01*
X162705428Y-103107071D01*
X162776857Y-103392785D01*
X162919714Y-103535642D01*
X163062571Y-103607071D01*
X163348285Y-103607071D01*
X163491142Y-103535642D01*
X163634000Y-103392785D01*
X163705428Y-103107071D01*
X163705428Y-102607071D01*
X163634000Y-102321357D01*
X163491142Y-102178500D01*
X163348285Y-102107071D01*
X160062571Y-103464214D02*
X160134000Y-103535642D01*
X160348285Y-103607071D01*
X160491142Y-103607071D01*
X160705428Y-103535642D01*
X160848285Y-103392785D01*
X160919714Y-103249928D01*
X160991142Y-102964214D01*
X160991142Y-102749928D01*
X160919714Y-102464214D01*
X160848285Y-102321357D01*
X160705428Y-102178500D01*
X160491142Y-102107071D01*
X160348285Y-102107071D01*
X160134000Y-102178500D01*
X160062571Y-102249928D01*
X159134000Y-102107071D02*
X158848285Y-102107071D01*
X158705428Y-102178500D01*
X158562571Y-102321357D01*
X158491142Y-102607071D01*
X158491142Y-103107071D01*
X158562571Y-103392785D01*
X158705428Y-103535642D01*
X158848285Y-103607071D01*
X159134000Y-103607071D01*
X159276857Y-103535642D01*
X159419714Y-103392785D01*
X159491142Y-103107071D01*
X159491142Y-102607071D01*
X159419714Y-102321357D01*
X159276857Y-102178500D01*
X159134000Y-102107071D01*
X157848285Y-103607071D02*
X157848285Y-102107071D01*
X156991142Y-103607071D01*
X156991142Y-102107071D01*
X156491142Y-102107071D02*
X155634000Y-102107071D01*
X156062571Y-103607071D02*
X156062571Y-102107071D01*
X154276857Y-103607071D02*
X154776857Y-102892785D01*
X155134000Y-103607071D02*
X155134000Y-102107071D01*
X154562571Y-102107071D01*
X154419714Y-102178500D01*
X154348285Y-102249928D01*
X154276857Y-102392785D01*
X154276857Y-102607071D01*
X154348285Y-102749928D01*
X154419714Y-102821357D01*
X154562571Y-102892785D01*
X155134000Y-102892785D01*
X153348285Y-102107071D02*
X153062571Y-102107071D01*
X152919714Y-102178500D01*
X152776857Y-102321357D01*
X152705428Y-102607071D01*
X152705428Y-103107071D01*
X152776857Y-103392785D01*
X152919714Y-103535642D01*
X153062571Y-103607071D01*
X153348285Y-103607071D01*
X153491142Y-103535642D01*
X153634000Y-103392785D01*
X153705428Y-103107071D01*
X153705428Y-102607071D01*
X153634000Y-102321357D01*
X153491142Y-102178500D01*
X153348285Y-102107071D01*
X151348285Y-103607071D02*
X152062571Y-103607071D01*
X152062571Y-102107071D01*
X150134000Y-103607071D02*
X150848285Y-103607071D01*
X150848285Y-102107071D01*
X149634000Y-102821357D02*
X149134000Y-102821357D01*
X148919714Y-103607071D02*
X149634000Y-103607071D01*
X149634000Y-102107071D01*
X148919714Y-102107071D01*
X147419714Y-103607071D02*
X147919714Y-102892785D01*
X148276857Y-103607071D02*
X148276857Y-102107071D01*
X147705428Y-102107071D01*
X147562571Y-102178500D01*
X147491142Y-102249928D01*
X147419714Y-102392785D01*
X147419714Y-102607071D01*
X147491142Y-102749928D01*
X147562571Y-102821357D01*
X147705428Y-102892785D01*
X148276857Y-102892785D01*
X167276857Y-106157071D02*
X167776857Y-105442785D01*
X168134000Y-106157071D02*
X168134000Y-104657071D01*
X167562571Y-104657071D01*
X167419714Y-104728500D01*
X167348285Y-104799928D01*
X167276857Y-104942785D01*
X167276857Y-105157071D01*
X167348285Y-105299928D01*
X167419714Y-105371357D01*
X167562571Y-105442785D01*
X168134000Y-105442785D01*
X166705428Y-105728500D02*
X165991142Y-105728500D01*
X166848285Y-106157071D02*
X166348285Y-104657071D01*
X165848285Y-106157071D01*
X165419714Y-106085642D02*
X165205428Y-106157071D01*
X164848285Y-106157071D01*
X164705428Y-106085642D01*
X164634000Y-106014214D01*
X164562571Y-105871357D01*
X164562571Y-105728500D01*
X164634000Y-105585642D01*
X164705428Y-105514214D01*
X164848285Y-105442785D01*
X165134000Y-105371357D01*
X165276857Y-105299928D01*
X165348285Y-105228500D01*
X165419714Y-105085642D01*
X165419714Y-104942785D01*
X165348285Y-104799928D01*
X165276857Y-104728500D01*
X165134000Y-104657071D01*
X164776857Y-104657071D01*
X164562571Y-104728500D01*
X163919714Y-106157071D02*
X163919714Y-104657071D01*
X163348285Y-104657071D01*
X163205428Y-104728500D01*
X163134000Y-104799928D01*
X163062571Y-104942785D01*
X163062571Y-105157071D01*
X163134000Y-105299928D01*
X163205428Y-105371357D01*
X163348285Y-105442785D01*
X163919714Y-105442785D01*
X161919714Y-105371357D02*
X161705428Y-105442785D01*
X161634000Y-105514214D01*
X161562571Y-105657071D01*
X161562571Y-105871357D01*
X161634000Y-106014214D01*
X161705428Y-106085642D01*
X161848285Y-106157071D01*
X162419714Y-106157071D01*
X162419714Y-104657071D01*
X161919714Y-104657071D01*
X161776857Y-104728500D01*
X161705428Y-104799928D01*
X161634000Y-104942785D01*
X161634000Y-105085642D01*
X161705428Y-105228500D01*
X161776857Y-105299928D01*
X161919714Y-105371357D01*
X162419714Y-105371357D01*
X160919714Y-105371357D02*
X160419714Y-105371357D01*
X160205428Y-106157071D02*
X160919714Y-106157071D01*
X160919714Y-104657071D01*
X160205428Y-104657071D01*
X158705428Y-106157071D02*
X159205428Y-105442785D01*
X159562571Y-106157071D02*
X159562571Y-104657071D01*
X158991142Y-104657071D01*
X158848285Y-104728500D01*
X158776857Y-104799928D01*
X158705428Y-104942785D01*
X158705428Y-105157071D01*
X158776857Y-105299928D01*
X158848285Y-105371357D01*
X158991142Y-105442785D01*
X159562571Y-105442785D01*
X157205428Y-106157071D02*
X157705428Y-105442785D01*
X158062571Y-106157071D02*
X158062571Y-104657071D01*
X157491142Y-104657071D01*
X157348285Y-104728500D01*
X157276857Y-104799928D01*
X157205428Y-104942785D01*
X157205428Y-105157071D01*
X157276857Y-105299928D01*
X157348285Y-105371357D01*
X157491142Y-105442785D01*
X158062571Y-105442785D01*
X156276857Y-105442785D02*
X156276857Y-106157071D01*
X156776857Y-104657071D02*
X156276857Y-105442785D01*
X155776857Y-104657071D01*
X154134000Y-106157071D02*
X154134000Y-104657071D01*
X153562571Y-104657071D01*
X153419714Y-104728500D01*
X153348285Y-104799928D01*
X153276857Y-104942785D01*
X153276857Y-105157071D01*
X153348285Y-105299928D01*
X153419714Y-105371357D01*
X153562571Y-105442785D01*
X154134000Y-105442785D01*
X152634000Y-106157071D02*
X152634000Y-104657071D01*
X150776857Y-106157071D02*
X150776857Y-104657071D01*
X150776857Y-105371357D02*
X149919714Y-105371357D01*
X149919714Y-106157071D02*
X149919714Y-104657071D01*
X149276857Y-105728500D02*
X148562571Y-105728500D01*
X149419714Y-106157071D02*
X148919714Y-104657071D01*
X148419714Y-106157071D01*
X148134000Y-104657071D02*
X147276857Y-104657071D01*
X147705428Y-106157071D02*
X147705428Y-104657071D01*
D15*
G36*
X125574979Y-113333837D02*
G01*
X125543289Y-113333901D01*
X125517941Y-113334051D01*
X125498197Y-113334321D01*
X125483321Y-113334748D01*
X125472575Y-113335367D01*
X125465223Y-113336213D01*
X125460528Y-113337321D01*
X125457752Y-113338727D01*
X125456159Y-113340465D01*
X125455613Y-113341400D01*
X125454007Y-113346841D01*
X125451178Y-113359083D01*
X125447306Y-113377238D01*
X125442572Y-113400417D01*
X125437158Y-113427733D01*
X125431243Y-113458298D01*
X125425009Y-113491225D01*
X125423980Y-113496731D01*
X125417699Y-113529837D01*
X125411665Y-113560616D01*
X125406063Y-113588201D01*
X125401077Y-113611722D01*
X125396893Y-113630310D01*
X125393695Y-113643097D01*
X125391668Y-113649213D01*
X125391448Y-113649533D01*
X125386266Y-113652626D01*
X125374952Y-113658063D01*
X125358668Y-113665366D01*
X125338571Y-113674062D01*
X125315822Y-113683676D01*
X125291579Y-113693731D01*
X125267003Y-113703754D01*
X125243251Y-113713269D01*
X125221484Y-113721800D01*
X125202860Y-113728874D01*
X125188539Y-113734014D01*
X125179681Y-113736746D01*
X125177866Y-113737061D01*
X125172317Y-113735372D01*
X125161884Y-113729940D01*
X125146311Y-113720605D01*
X125125342Y-113707204D01*
X125098722Y-113689575D01*
X125066193Y-113667558D01*
X125047300Y-113654624D01*
X125014566Y-113632146D01*
X124987662Y-113613701D01*
X124965972Y-113598906D01*
X124948880Y-113587376D01*
X124935768Y-113578726D01*
X124926020Y-113572573D01*
X124919020Y-113568531D01*
X124914151Y-113566217D01*
X124910796Y-113565247D01*
X124908339Y-113565235D01*
X124906163Y-113565798D01*
X124905257Y-113566091D01*
X124900263Y-113569550D01*
X124890746Y-113577848D01*
X124877442Y-113590238D01*
X124861085Y-113605971D01*
X124842409Y-113624301D01*
X124822148Y-113644480D01*
X124801039Y-113665759D01*
X124779814Y-113687391D01*
X124759209Y-113708628D01*
X124739958Y-113728724D01*
X124722796Y-113746929D01*
X124708457Y-113762496D01*
X124697676Y-113774677D01*
X124691187Y-113782725D01*
X124689577Y-113785638D01*
X124691727Y-113790562D01*
X124697853Y-113801146D01*
X124707468Y-113816633D01*
X124720085Y-113836267D01*
X124735217Y-113859292D01*
X124752377Y-113884952D01*
X124771080Y-113912490D01*
X124773593Y-113916160D01*
X124798816Y-113953232D01*
X124819611Y-113984392D01*
X124835932Y-114009566D01*
X124847734Y-114028685D01*
X124854971Y-114041676D01*
X124857598Y-114048467D01*
X124857608Y-114048696D01*
X124856066Y-114055615D01*
X124851765Y-114068330D01*
X124845189Y-114085720D01*
X124836824Y-114106663D01*
X124827155Y-114130040D01*
X124816668Y-114154729D01*
X124805849Y-114179610D01*
X124795181Y-114203562D01*
X124785152Y-114225464D01*
X124776246Y-114244195D01*
X124768949Y-114258635D01*
X124763746Y-114267663D01*
X124761720Y-114270095D01*
X124756131Y-114272012D01*
X124743773Y-114275107D01*
X124725572Y-114279187D01*
X124702452Y-114284057D01*
X124675339Y-114289520D01*
X124645158Y-114295382D01*
X124615182Y-114301014D01*
X124582943Y-114307031D01*
X124552875Y-114312750D01*
X124525908Y-114317986D01*
X124502974Y-114322553D01*
X124485004Y-114326267D01*
X124472929Y-114328942D01*
X124467816Y-114330331D01*
X124459023Y-114334025D01*
X124459023Y-114489999D01*
X124459043Y-114529133D01*
X124459122Y-114561173D01*
X124459292Y-114586843D01*
X124459584Y-114606863D01*
X124460029Y-114621956D01*
X124460657Y-114632845D01*
X124461501Y-114640250D01*
X124462591Y-114644894D01*
X124463958Y-114647499D01*
X124465633Y-114648788D01*
X124465862Y-114648891D01*
X124471168Y-114650263D01*
X124483251Y-114652880D01*
X124501205Y-114656561D01*
X124524123Y-114661125D01*
X124551097Y-114666393D01*
X124581221Y-114672183D01*
X124613148Y-114678232D01*
X124652268Y-114685670D01*
X124684258Y-114691941D01*
X124709696Y-114697176D01*
X124729157Y-114701505D01*
X124743221Y-114705061D01*
X124752462Y-114707975D01*
X124757459Y-114710378D01*
X124758471Y-114711320D01*
X124761114Y-114716533D01*
X124766229Y-114728051D01*
X124773414Y-114744913D01*
X124782265Y-114766157D01*
X124792378Y-114790821D01*
X124803351Y-114817944D01*
X124807003Y-114827048D01*
X124821374Y-114863390D01*
X124832640Y-114892878D01*
X124840896Y-114915787D01*
X124846238Y-114932393D01*
X124848764Y-114942969D01*
X124848934Y-114946790D01*
X124846366Y-114952420D01*
X124839838Y-114963645D01*
X124829870Y-114979655D01*
X124816983Y-114999642D01*
X124801697Y-115022797D01*
X124784533Y-115048311D01*
X124768393Y-115071923D01*
X124750121Y-115098642D01*
X124733347Y-115123526D01*
X124718576Y-115145801D01*
X124706311Y-115164690D01*
X124697058Y-115179418D01*
X124691319Y-115189208D01*
X124689577Y-115193154D01*
X124692263Y-115197330D01*
X124699924Y-115206354D01*
X124711962Y-115219594D01*
X124727780Y-115236416D01*
X124746782Y-115256189D01*
X124768371Y-115278279D01*
X124791949Y-115302053D01*
X124798315Y-115308416D01*
X124826605Y-115336556D01*
X124849929Y-115359545D01*
X124868778Y-115377829D01*
X124883642Y-115391853D01*
X124895010Y-115402063D01*
X124903373Y-115408905D01*
X124909221Y-115412824D01*
X124913042Y-115414265D01*
X124914568Y-115414126D01*
X124919466Y-115411323D01*
X124930002Y-115404606D01*
X124945384Y-115394503D01*
X124964819Y-115381541D01*
X124987517Y-115366249D01*
X125012684Y-115349153D01*
X125035013Y-115333880D01*
X125061606Y-115315782D01*
X125086400Y-115299184D01*
X125108607Y-115284593D01*
X125127435Y-115272518D01*
X125142096Y-115263467D01*
X125151800Y-115257946D01*
X125155549Y-115256408D01*
X125161564Y-115258189D01*
X125172993Y-115263088D01*
X125188411Y-115270441D01*
X125206392Y-115279585D01*
X125214559Y-115283903D01*
X125233146Y-115293524D01*
X125249746Y-115301521D01*
X125262952Y-115307260D01*
X125271354Y-115310106D01*
X125273161Y-115310280D01*
X125275280Y-115308484D01*
X125278608Y-115303316D01*
X125283324Y-115294374D01*
X125289604Y-115281253D01*
X125297626Y-115263551D01*
X125307568Y-115240866D01*
X125319607Y-115212792D01*
X125333922Y-115178929D01*
X125350689Y-115138873D01*
X125370086Y-115092219D01*
X125383553Y-115059701D01*
X125400861Y-115017755D01*
X125417258Y-114977807D01*
X125432502Y-114940462D01*
X125446350Y-114906324D01*
X125458560Y-114875999D01*
X125468889Y-114850089D01*
X125477094Y-114829201D01*
X125482932Y-114813938D01*
X125486161Y-114804904D01*
X125486747Y-114802684D01*
X125483335Y-114795542D01*
X125474022Y-114787088D01*
X125470139Y-114784428D01*
X125459021Y-114776968D01*
X125444392Y-114766755D01*
X125429000Y-114755715D01*
X125425432Y-114753108D01*
X125387464Y-114720604D01*
X125355553Y-114683650D01*
X125329907Y-114642980D01*
X125310734Y-114599326D01*
X125298240Y-114553422D01*
X125292635Y-114506000D01*
X125294124Y-114457794D01*
X125302917Y-114409537D01*
X125316495Y-114368513D01*
X125328726Y-114341714D01*
X125343097Y-114317570D01*
X125361048Y-114294004D01*
X125384020Y-114268939D01*
X125389054Y-114263853D01*
X125423684Y-114233064D01*
X125459752Y-114209024D01*
X125499037Y-114190672D01*
X125527777Y-114181106D01*
X125555715Y-114175290D01*
X125588328Y-114172074D01*
X125622924Y-114171461D01*
X125656808Y-114173448D01*
X125687287Y-114178037D01*
X125699716Y-114181106D01*
X125745752Y-114198269D01*
X125788266Y-114221883D01*
X125826622Y-114251270D01*
X125860187Y-114285754D01*
X125888327Y-114324657D01*
X125910409Y-114367301D01*
X125925796Y-114413010D01*
X125928718Y-114425772D01*
X125934986Y-114474874D01*
X125933743Y-114523581D01*
X125925285Y-114571130D01*
X125909907Y-114616756D01*
X125887904Y-114659697D01*
X125859573Y-114699186D01*
X125825208Y-114734462D01*
X125802061Y-114753108D01*
X125786901Y-114764058D01*
X125771831Y-114774651D01*
X125759600Y-114782962D01*
X125757354Y-114784428D01*
X125746488Y-114792982D01*
X125741092Y-114800695D01*
X125740747Y-114802684D01*
X125742208Y-114807486D01*
X125746432Y-114818897D01*
X125753176Y-114836315D01*
X125762195Y-114859134D01*
X125773249Y-114886749D01*
X125786094Y-114918557D01*
X125800488Y-114953953D01*
X125816188Y-114992333D01*
X125832950Y-115033092D01*
X125843940Y-115059701D01*
X125865062Y-115110660D01*
X125883444Y-115154772D01*
X125899262Y-115192439D01*
X125912696Y-115224066D01*
X125923921Y-115250055D01*
X125933117Y-115270808D01*
X125940459Y-115286731D01*
X125946127Y-115298224D01*
X125950297Y-115305692D01*
X125953147Y-115309538D01*
X125954332Y-115310280D01*
X125960188Y-115308899D01*
X125971463Y-115304349D01*
X125986750Y-115297264D01*
X126004640Y-115288276D01*
X126012934Y-115283903D01*
X126031579Y-115274193D01*
X126048274Y-115265989D01*
X126061593Y-115259953D01*
X126070112Y-115256749D01*
X126071944Y-115256408D01*
X126076853Y-115258557D01*
X126087386Y-115264664D01*
X126102752Y-115274223D01*
X126122162Y-115286726D01*
X126144826Y-115301664D01*
X126169955Y-115318531D01*
X126192480Y-115333880D01*
X126219102Y-115352077D01*
X126243915Y-115368912D01*
X126266129Y-115383856D01*
X126284950Y-115396383D01*
X126299586Y-115405963D01*
X126309245Y-115412070D01*
X126312925Y-115414126D01*
X126315765Y-115413958D01*
X126320337Y-115411581D01*
X126327130Y-115406548D01*
X126336635Y-115398415D01*
X126349340Y-115386735D01*
X126365737Y-115371063D01*
X126386314Y-115350953D01*
X126411563Y-115325961D01*
X126429179Y-115308416D01*
X126453175Y-115284308D01*
X126475337Y-115261720D01*
X126495067Y-115241286D01*
X126511768Y-115223637D01*
X126524844Y-115209408D01*
X126533697Y-115199230D01*
X126537730Y-115193736D01*
X126537916Y-115193154D01*
X126535764Y-115188458D01*
X126529643Y-115178127D01*
X126520059Y-115162939D01*
X126507516Y-115143669D01*
X126492517Y-115121092D01*
X126475567Y-115095985D01*
X126459101Y-115071923D01*
X126440722Y-115045009D01*
X126423765Y-115019746D01*
X126408752Y-114996944D01*
X126396202Y-114977412D01*
X126386637Y-114961957D01*
X126380577Y-114951390D01*
X126378559Y-114946790D01*
X126379273Y-114940055D01*
X126382739Y-114927474D01*
X126389055Y-114908771D01*
X126398316Y-114883671D01*
X126410619Y-114851900D01*
X126420490Y-114827048D01*
X126431654Y-114799339D01*
X126442088Y-114773778D01*
X126451390Y-114751327D01*
X126459155Y-114732948D01*
X126464982Y-114719602D01*
X126468465Y-114712253D01*
X126469022Y-114711320D01*
X126472312Y-114709103D01*
X126479588Y-114706433D01*
X126491429Y-114703180D01*
X126508411Y-114699211D01*
X126531111Y-114694397D01*
X126560107Y-114688604D01*
X126595974Y-114681703D01*
X126614345Y-114678232D01*
X126646688Y-114672104D01*
X126676776Y-114666319D01*
X126703703Y-114661060D01*
X126726560Y-114656506D01*
X126744442Y-114652838D01*
X126756442Y-114650236D01*
X126761631Y-114648891D01*
X126763347Y-114647714D01*
X126764750Y-114645310D01*
X126765872Y-114640955D01*
X126766744Y-114633928D01*
X126767398Y-114623506D01*
X126767864Y-114608969D01*
X126768172Y-114589593D01*
X126768356Y-114564656D01*
X126768444Y-114533437D01*
X126768469Y-114495214D01*
X126768470Y-114489999D01*
X126768470Y-114334025D01*
X126759677Y-114330331D01*
X126753893Y-114328784D01*
X126741351Y-114326026D01*
X126722981Y-114322243D01*
X126699717Y-114317619D01*
X126672488Y-114312341D01*
X126642228Y-114306594D01*
X126612312Y-114301014D01*
X126580109Y-114294956D01*
X126550115Y-114289116D01*
X126523256Y-114283689D01*
X126500455Y-114278869D01*
X126482638Y-114274853D01*
X126470731Y-114271834D01*
X126465773Y-114270095D01*
X126462188Y-114265177D01*
X126456193Y-114254119D01*
X126448275Y-114238043D01*
X126438919Y-114218070D01*
X126428611Y-114195320D01*
X126417834Y-114170914D01*
X126407076Y-114145973D01*
X126396822Y-114121617D01*
X126387556Y-114098968D01*
X126379764Y-114079145D01*
X126373932Y-114063271D01*
X126370545Y-114052465D01*
X126369885Y-114048696D01*
X126372207Y-114042315D01*
X126379141Y-114029731D01*
X126390643Y-114011014D01*
X126406668Y-113986236D01*
X126427169Y-113955469D01*
X126452102Y-113918785D01*
X126453900Y-113916160D01*
X126472767Y-113888434D01*
X126490155Y-113862488D01*
X126505577Y-113839078D01*
X126518548Y-113818961D01*
X126528579Y-113802894D01*
X126535185Y-113791632D01*
X126537878Y-113785931D01*
X126537916Y-113785638D01*
X126535241Y-113781291D01*
X126527708Y-113772233D01*
X126516049Y-113759213D01*
X126501001Y-113742977D01*
X126483297Y-113724275D01*
X126463672Y-113703853D01*
X126442861Y-113682460D01*
X126421598Y-113660842D01*
X126400618Y-113639749D01*
X126380654Y-113619926D01*
X126362443Y-113602123D01*
X126346718Y-113587087D01*
X126334214Y-113575566D01*
X126325665Y-113568307D01*
X126322236Y-113566091D01*
X126319947Y-113565415D01*
X126317572Y-113565200D01*
X126314496Y-113565830D01*
X126310101Y-113567689D01*
X126303770Y-113571162D01*
X126294888Y-113576632D01*
X126282837Y-113584485D01*
X126267001Y-113595103D01*
X126246763Y-113608872D01*
X126221506Y-113626176D01*
X126190614Y-113647398D01*
X126179766Y-113654854D01*
X126144167Y-113679162D01*
X126114607Y-113698992D01*
X126090835Y-113714502D01*
X126072599Y-113725853D01*
X126059648Y-113733202D01*
X126051729Y-113736709D01*
X126049630Y-113737074D01*
X126043401Y-113735499D01*
X126031218Y-113731315D01*
X126014242Y-113724997D01*
X125993635Y-113717021D01*
X125970558Y-113707862D01*
X125946172Y-113697995D01*
X125921637Y-113687897D01*
X125898117Y-113678042D01*
X125876770Y-113668906D01*
X125858760Y-113660966D01*
X125845245Y-113654695D01*
X125837389Y-113650571D01*
X125836079Y-113649617D01*
X125834248Y-113644735D01*
X125831219Y-113633031D01*
X125827177Y-113615376D01*
X125822307Y-113592637D01*
X125816795Y-113565687D01*
X125810827Y-113535393D01*
X125804588Y-113502626D01*
X125803499Y-113496796D01*
X125797246Y-113463572D01*
X125791281Y-113432564D01*
X125785783Y-113404658D01*
X125780934Y-113380745D01*
X125776914Y-113361713D01*
X125773903Y-113348450D01*
X125772084Y-113341845D01*
X125771915Y-113341465D01*
X125770626Y-113339543D01*
X125768526Y-113337973D01*
X125764878Y-113336720D01*
X125758945Y-113335749D01*
X125749988Y-113335022D01*
X125737272Y-113334506D01*
X125720058Y-113334163D01*
X125697609Y-113333960D01*
X125669189Y-113333859D01*
X125634058Y-113333826D01*
X125613747Y-113333824D01*
X125574979Y-113333837D01*
G37*
X125574979Y-113333837D02*
X125543289Y-113333901D01*
X125517941Y-113334051D01*
X125498197Y-113334321D01*
X125483321Y-113334748D01*
X125472575Y-113335367D01*
X125465223Y-113336213D01*
X125460528Y-113337321D01*
X125457752Y-113338727D01*
X125456159Y-113340465D01*
X125455613Y-113341400D01*
X125454007Y-113346841D01*
X125451178Y-113359083D01*
X125447306Y-113377238D01*
X125442572Y-113400417D01*
X125437158Y-113427733D01*
X125431243Y-113458298D01*
X125425009Y-113491225D01*
X125423980Y-113496731D01*
X125417699Y-113529837D01*
X125411665Y-113560616D01*
X125406063Y-113588201D01*
X125401077Y-113611722D01*
X125396893Y-113630310D01*
X125393695Y-113643097D01*
X125391668Y-113649213D01*
X125391448Y-113649533D01*
X125386266Y-113652626D01*
X125374952Y-113658063D01*
X125358668Y-113665366D01*
X125338571Y-113674062D01*
X125315822Y-113683676D01*
X125291579Y-113693731D01*
X125267003Y-113703754D01*
X125243251Y-113713269D01*
X125221484Y-113721800D01*
X125202860Y-113728874D01*
X125188539Y-113734014D01*
X125179681Y-113736746D01*
X125177866Y-113737061D01*
X125172317Y-113735372D01*
X125161884Y-113729940D01*
X125146311Y-113720605D01*
X125125342Y-113707204D01*
X125098722Y-113689575D01*
X125066193Y-113667558D01*
X125047300Y-113654624D01*
X125014566Y-113632146D01*
X124987662Y-113613701D01*
X124965972Y-113598906D01*
X124948880Y-113587376D01*
X124935768Y-113578726D01*
X124926020Y-113572573D01*
X124919020Y-113568531D01*
X124914151Y-113566217D01*
X124910796Y-113565247D01*
X124908339Y-113565235D01*
X124906163Y-113565798D01*
X124905257Y-113566091D01*
X124900263Y-113569550D01*
X124890746Y-113577848D01*
X124877442Y-113590238D01*
X124861085Y-113605971D01*
X124842409Y-113624301D01*
X124822148Y-113644480D01*
X124801039Y-113665759D01*
X124779814Y-113687391D01*
X124759209Y-113708628D01*
X124739958Y-113728724D01*
X124722796Y-113746929D01*
X124708457Y-113762496D01*
X124697676Y-113774677D01*
X124691187Y-113782725D01*
X124689577Y-113785638D01*
X124691727Y-113790562D01*
X124697853Y-113801146D01*
X124707468Y-113816633D01*
X124720085Y-113836267D01*
X124735217Y-113859292D01*
X124752377Y-113884952D01*
X124771080Y-113912490D01*
X124773593Y-113916160D01*
X124798816Y-113953232D01*
X124819611Y-113984392D01*
X124835932Y-114009566D01*
X124847734Y-114028685D01*
X124854971Y-114041676D01*
X124857598Y-114048467D01*
X124857608Y-114048696D01*
X124856066Y-114055615D01*
X124851765Y-114068330D01*
X124845189Y-114085720D01*
X124836824Y-114106663D01*
X124827155Y-114130040D01*
X124816668Y-114154729D01*
X124805849Y-114179610D01*
X124795181Y-114203562D01*
X124785152Y-114225464D01*
X124776246Y-114244195D01*
X124768949Y-114258635D01*
X124763746Y-114267663D01*
X124761720Y-114270095D01*
X124756131Y-114272012D01*
X124743773Y-114275107D01*
X124725572Y-114279187D01*
X124702452Y-114284057D01*
X124675339Y-114289520D01*
X124645158Y-114295382D01*
X124615182Y-114301014D01*
X124582943Y-114307031D01*
X124552875Y-114312750D01*
X124525908Y-114317986D01*
X124502974Y-114322553D01*
X124485004Y-114326267D01*
X124472929Y-114328942D01*
X124467816Y-114330331D01*
X124459023Y-114334025D01*
X124459023Y-114489999D01*
X124459043Y-114529133D01*
X124459122Y-114561173D01*
X124459292Y-114586843D01*
X124459584Y-114606863D01*
X124460029Y-114621956D01*
X124460657Y-114632845D01*
X124461501Y-114640250D01*
X124462591Y-114644894D01*
X124463958Y-114647499D01*
X124465633Y-114648788D01*
X124465862Y-114648891D01*
X124471168Y-114650263D01*
X124483251Y-114652880D01*
X124501205Y-114656561D01*
X124524123Y-114661125D01*
X124551097Y-114666393D01*
X124581221Y-114672183D01*
X124613148Y-114678232D01*
X124652268Y-114685670D01*
X124684258Y-114691941D01*
X124709696Y-114697176D01*
X124729157Y-114701505D01*
X124743221Y-114705061D01*
X124752462Y-114707975D01*
X124757459Y-114710378D01*
X124758471Y-114711320D01*
X124761114Y-114716533D01*
X124766229Y-114728051D01*
X124773414Y-114744913D01*
X124782265Y-114766157D01*
X124792378Y-114790821D01*
X124803351Y-114817944D01*
X124807003Y-114827048D01*
X124821374Y-114863390D01*
X124832640Y-114892878D01*
X124840896Y-114915787D01*
X124846238Y-114932393D01*
X124848764Y-114942969D01*
X124848934Y-114946790D01*
X124846366Y-114952420D01*
X124839838Y-114963645D01*
X124829870Y-114979655D01*
X124816983Y-114999642D01*
X124801697Y-115022797D01*
X124784533Y-115048311D01*
X124768393Y-115071923D01*
X124750121Y-115098642D01*
X124733347Y-115123526D01*
X124718576Y-115145801D01*
X124706311Y-115164690D01*
X124697058Y-115179418D01*
X124691319Y-115189208D01*
X124689577Y-115193154D01*
X124692263Y-115197330D01*
X124699924Y-115206354D01*
X124711962Y-115219594D01*
X124727780Y-115236416D01*
X124746782Y-115256189D01*
X124768371Y-115278279D01*
X124791949Y-115302053D01*
X124798315Y-115308416D01*
X124826605Y-115336556D01*
X124849929Y-115359545D01*
X124868778Y-115377829D01*
X124883642Y-115391853D01*
X124895010Y-115402063D01*
X124903373Y-115408905D01*
X124909221Y-115412824D01*
X124913042Y-115414265D01*
X124914568Y-115414126D01*
X124919466Y-115411323D01*
X124930002Y-115404606D01*
X124945384Y-115394503D01*
X124964819Y-115381541D01*
X124987517Y-115366249D01*
X125012684Y-115349153D01*
X125035013Y-115333880D01*
X125061606Y-115315782D01*
X125086400Y-115299184D01*
X125108607Y-115284593D01*
X125127435Y-115272518D01*
X125142096Y-115263467D01*
X125151800Y-115257946D01*
X125155549Y-115256408D01*
X125161564Y-115258189D01*
X125172993Y-115263088D01*
X125188411Y-115270441D01*
X125206392Y-115279585D01*
X125214559Y-115283903D01*
X125233146Y-115293524D01*
X125249746Y-115301521D01*
X125262952Y-115307260D01*
X125271354Y-115310106D01*
X125273161Y-115310280D01*
X125275280Y-115308484D01*
X125278608Y-115303316D01*
X125283324Y-115294374D01*
X125289604Y-115281253D01*
X125297626Y-115263551D01*
X125307568Y-115240866D01*
X125319607Y-115212792D01*
X125333922Y-115178929D01*
X125350689Y-115138873D01*
X125370086Y-115092219D01*
X125383553Y-115059701D01*
X125400861Y-115017755D01*
X125417258Y-114977807D01*
X125432502Y-114940462D01*
X125446350Y-114906324D01*
X125458560Y-114875999D01*
X125468889Y-114850089D01*
X125477094Y-114829201D01*
X125482932Y-114813938D01*
X125486161Y-114804904D01*
X125486747Y-114802684D01*
X125483335Y-114795542D01*
X125474022Y-114787088D01*
X125470139Y-114784428D01*
X125459021Y-114776968D01*
X125444392Y-114766755D01*
X125429000Y-114755715D01*
X125425432Y-114753108D01*
X125387464Y-114720604D01*
X125355553Y-114683650D01*
X125329907Y-114642980D01*
X125310734Y-114599326D01*
X125298240Y-114553422D01*
X125292635Y-114506000D01*
X125294124Y-114457794D01*
X125302917Y-114409537D01*
X125316495Y-114368513D01*
X125328726Y-114341714D01*
X125343097Y-114317570D01*
X125361048Y-114294004D01*
X125384020Y-114268939D01*
X125389054Y-114263853D01*
X125423684Y-114233064D01*
X125459752Y-114209024D01*
X125499037Y-114190672D01*
X125527777Y-114181106D01*
X125555715Y-114175290D01*
X125588328Y-114172074D01*
X125622924Y-114171461D01*
X125656808Y-114173448D01*
X125687287Y-114178037D01*
X125699716Y-114181106D01*
X125745752Y-114198269D01*
X125788266Y-114221883D01*
X125826622Y-114251270D01*
X125860187Y-114285754D01*
X125888327Y-114324657D01*
X125910409Y-114367301D01*
X125925796Y-114413010D01*
X125928718Y-114425772D01*
X125934986Y-114474874D01*
X125933743Y-114523581D01*
X125925285Y-114571130D01*
X125909907Y-114616756D01*
X125887904Y-114659697D01*
X125859573Y-114699186D01*
X125825208Y-114734462D01*
X125802061Y-114753108D01*
X125786901Y-114764058D01*
X125771831Y-114774651D01*
X125759600Y-114782962D01*
X125757354Y-114784428D01*
X125746488Y-114792982D01*
X125741092Y-114800695D01*
X125740747Y-114802684D01*
X125742208Y-114807486D01*
X125746432Y-114818897D01*
X125753176Y-114836315D01*
X125762195Y-114859134D01*
X125773249Y-114886749D01*
X125786094Y-114918557D01*
X125800488Y-114953953D01*
X125816188Y-114992333D01*
X125832950Y-115033092D01*
X125843940Y-115059701D01*
X125865062Y-115110660D01*
X125883444Y-115154772D01*
X125899262Y-115192439D01*
X125912696Y-115224066D01*
X125923921Y-115250055D01*
X125933117Y-115270808D01*
X125940459Y-115286731D01*
X125946127Y-115298224D01*
X125950297Y-115305692D01*
X125953147Y-115309538D01*
X125954332Y-115310280D01*
X125960188Y-115308899D01*
X125971463Y-115304349D01*
X125986750Y-115297264D01*
X126004640Y-115288276D01*
X126012934Y-115283903D01*
X126031579Y-115274193D01*
X126048274Y-115265989D01*
X126061593Y-115259953D01*
X126070112Y-115256749D01*
X126071944Y-115256408D01*
X126076853Y-115258557D01*
X126087386Y-115264664D01*
X126102752Y-115274223D01*
X126122162Y-115286726D01*
X126144826Y-115301664D01*
X126169955Y-115318531D01*
X126192480Y-115333880D01*
X126219102Y-115352077D01*
X126243915Y-115368912D01*
X126266129Y-115383856D01*
X126284950Y-115396383D01*
X126299586Y-115405963D01*
X126309245Y-115412070D01*
X126312925Y-115414126D01*
X126315765Y-115413958D01*
X126320337Y-115411581D01*
X126327130Y-115406548D01*
X126336635Y-115398415D01*
X126349340Y-115386735D01*
X126365737Y-115371063D01*
X126386314Y-115350953D01*
X126411563Y-115325961D01*
X126429179Y-115308416D01*
X126453175Y-115284308D01*
X126475337Y-115261720D01*
X126495067Y-115241286D01*
X126511768Y-115223637D01*
X126524844Y-115209408D01*
X126533697Y-115199230D01*
X126537730Y-115193736D01*
X126537916Y-115193154D01*
X126535764Y-115188458D01*
X126529643Y-115178127D01*
X126520059Y-115162939D01*
X126507516Y-115143669D01*
X126492517Y-115121092D01*
X126475567Y-115095985D01*
X126459101Y-115071923D01*
X126440722Y-115045009D01*
X126423765Y-115019746D01*
X126408752Y-114996944D01*
X126396202Y-114977412D01*
X126386637Y-114961957D01*
X126380577Y-114951390D01*
X126378559Y-114946790D01*
X126379273Y-114940055D01*
X126382739Y-114927474D01*
X126389055Y-114908771D01*
X126398316Y-114883671D01*
X126410619Y-114851900D01*
X126420490Y-114827048D01*
X126431654Y-114799339D01*
X126442088Y-114773778D01*
X126451390Y-114751327D01*
X126459155Y-114732948D01*
X126464982Y-114719602D01*
X126468465Y-114712253D01*
X126469022Y-114711320D01*
X126472312Y-114709103D01*
X126479588Y-114706433D01*
X126491429Y-114703180D01*
X126508411Y-114699211D01*
X126531111Y-114694397D01*
X126560107Y-114688604D01*
X126595974Y-114681703D01*
X126614345Y-114678232D01*
X126646688Y-114672104D01*
X126676776Y-114666319D01*
X126703703Y-114661060D01*
X126726560Y-114656506D01*
X126744442Y-114652838D01*
X126756442Y-114650236D01*
X126761631Y-114648891D01*
X126763347Y-114647714D01*
X126764750Y-114645310D01*
X126765872Y-114640955D01*
X126766744Y-114633928D01*
X126767398Y-114623506D01*
X126767864Y-114608969D01*
X126768172Y-114589593D01*
X126768356Y-114564656D01*
X126768444Y-114533437D01*
X126768469Y-114495214D01*
X126768470Y-114489999D01*
X126768470Y-114334025D01*
X126759677Y-114330331D01*
X126753893Y-114328784D01*
X126741351Y-114326026D01*
X126722981Y-114322243D01*
X126699717Y-114317619D01*
X126672488Y-114312341D01*
X126642228Y-114306594D01*
X126612312Y-114301014D01*
X126580109Y-114294956D01*
X126550115Y-114289116D01*
X126523256Y-114283689D01*
X126500455Y-114278869D01*
X126482638Y-114274853D01*
X126470731Y-114271834D01*
X126465773Y-114270095D01*
X126462188Y-114265177D01*
X126456193Y-114254119D01*
X126448275Y-114238043D01*
X126438919Y-114218070D01*
X126428611Y-114195320D01*
X126417834Y-114170914D01*
X126407076Y-114145973D01*
X126396822Y-114121617D01*
X126387556Y-114098968D01*
X126379764Y-114079145D01*
X126373932Y-114063271D01*
X126370545Y-114052465D01*
X126369885Y-114048696D01*
X126372207Y-114042315D01*
X126379141Y-114029731D01*
X126390643Y-114011014D01*
X126406668Y-113986236D01*
X126427169Y-113955469D01*
X126452102Y-113918785D01*
X126453900Y-113916160D01*
X126472767Y-113888434D01*
X126490155Y-113862488D01*
X126505577Y-113839078D01*
X126518548Y-113818961D01*
X126528579Y-113802894D01*
X126535185Y-113791632D01*
X126537878Y-113785931D01*
X126537916Y-113785638D01*
X126535241Y-113781291D01*
X126527708Y-113772233D01*
X126516049Y-113759213D01*
X126501001Y-113742977D01*
X126483297Y-113724275D01*
X126463672Y-113703853D01*
X126442861Y-113682460D01*
X126421598Y-113660842D01*
X126400618Y-113639749D01*
X126380654Y-113619926D01*
X126362443Y-113602123D01*
X126346718Y-113587087D01*
X126334214Y-113575566D01*
X126325665Y-113568307D01*
X126322236Y-113566091D01*
X126319947Y-113565415D01*
X126317572Y-113565200D01*
X126314496Y-113565830D01*
X126310101Y-113567689D01*
X126303770Y-113571162D01*
X126294888Y-113576632D01*
X126282837Y-113584485D01*
X126267001Y-113595103D01*
X126246763Y-113608872D01*
X126221506Y-113626176D01*
X126190614Y-113647398D01*
X126179766Y-113654854D01*
X126144167Y-113679162D01*
X126114607Y-113698992D01*
X126090835Y-113714502D01*
X126072599Y-113725853D01*
X126059648Y-113733202D01*
X126051729Y-113736709D01*
X126049630Y-113737074D01*
X126043401Y-113735499D01*
X126031218Y-113731315D01*
X126014242Y-113724997D01*
X125993635Y-113717021D01*
X125970558Y-113707862D01*
X125946172Y-113697995D01*
X125921637Y-113687897D01*
X125898117Y-113678042D01*
X125876770Y-113668906D01*
X125858760Y-113660966D01*
X125845245Y-113654695D01*
X125837389Y-113650571D01*
X125836079Y-113649617D01*
X125834248Y-113644735D01*
X125831219Y-113633031D01*
X125827177Y-113615376D01*
X125822307Y-113592637D01*
X125816795Y-113565687D01*
X125810827Y-113535393D01*
X125804588Y-113502626D01*
X125803499Y-113496796D01*
X125797246Y-113463572D01*
X125791281Y-113432564D01*
X125785783Y-113404658D01*
X125780934Y-113380745D01*
X125776914Y-113361713D01*
X125773903Y-113348450D01*
X125772084Y-113341845D01*
X125771915Y-113341465D01*
X125770626Y-113339543D01*
X125768526Y-113337973D01*
X125764878Y-113336720D01*
X125758945Y-113335749D01*
X125749988Y-113335022D01*
X125737272Y-113334506D01*
X125720058Y-113334163D01*
X125697609Y-113333960D01*
X125669189Y-113333859D01*
X125634058Y-113333826D01*
X125613747Y-113333824D01*
X125574979Y-113333837D01*
D11*
X125174500Y-96137500D02*
X125174500Y-97537500D01*
X125874500Y-98237500D02*
X126474500Y-98237500D01*
X127174500Y-97537500D02*
X127174500Y-96137500D01*
X126474500Y-95437500D02*
X125874500Y-95437500D01*
X125174500Y-97537500D02*
G75*
G03*
X125874500Y-98237500I700000J0D01*
G01*
X126474500Y-98237500D02*
G75*
G03*
X127174500Y-97537500I0J700000D01*
G01*
X127174500Y-96137500D02*
G75*
G03*
X126474500Y-95437500I-700000J0D01*
G01*
X125874500Y-95437500D02*
G75*
G03*
X125174500Y-96137500I0J-700000D01*
G01*
D15*
G36*
X141200790Y-98330285D02*
G01*
X141153365Y-98350790D01*
X141100578Y-98385454D01*
X141041676Y-98434732D01*
X141009243Y-98465438D01*
X140918690Y-98564605D01*
X140835091Y-98677003D01*
X140759886Y-98799855D01*
X140694514Y-98930381D01*
X140640415Y-99065803D01*
X140599030Y-99203341D01*
X140579082Y-99295562D01*
X140571144Y-99352717D01*
X140565305Y-99421957D01*
X140561644Y-99498554D01*
X140560239Y-99577779D01*
X140561169Y-99654904D01*
X140564510Y-99725202D01*
X140570343Y-99783944D01*
X140570938Y-99788133D01*
X140598159Y-99935776D01*
X140636290Y-100084432D01*
X140684097Y-100230771D01*
X140740348Y-100371458D01*
X140803810Y-100503164D01*
X140873251Y-100622556D01*
X140888062Y-100645133D01*
X140942031Y-100722276D01*
X141000228Y-100798639D01*
X141063511Y-100875005D01*
X141132739Y-100952158D01*
X141208769Y-101030880D01*
X141292461Y-101111954D01*
X141384671Y-101196163D01*
X141486259Y-101284290D01*
X141598083Y-101377118D01*
X141721000Y-101475429D01*
X141855869Y-101580007D01*
X142003549Y-101691635D01*
X142164896Y-101811095D01*
X142171445Y-101815899D01*
X142280730Y-101896475D01*
X142377250Y-101968595D01*
X142462276Y-102033282D01*
X142537077Y-102091554D01*
X142602925Y-102144432D01*
X142661088Y-102192936D01*
X142712837Y-102238088D01*
X142759441Y-102280906D01*
X142802172Y-102322412D01*
X142803300Y-102323541D01*
X142902053Y-102429359D01*
X142984720Y-102533423D01*
X143051893Y-102636911D01*
X143104163Y-102741004D01*
X143142121Y-102846881D01*
X143166358Y-102955723D01*
X143177467Y-103068708D01*
X143177522Y-103070090D01*
X143176842Y-103165797D01*
X143165923Y-103252155D01*
X143143583Y-103333393D01*
X143108642Y-103413742D01*
X143059917Y-103497430D01*
X143056824Y-103502197D01*
X143026927Y-103543605D01*
X142987759Y-103591380D01*
X142942646Y-103642008D01*
X142894914Y-103691978D01*
X142847888Y-103737776D01*
X142804894Y-103775890D01*
X142777634Y-103797079D01*
X142724209Y-103831304D01*
X142660140Y-103866306D01*
X142591299Y-103899117D01*
X142523555Y-103926769D01*
X142515167Y-103929819D01*
X142447434Y-103954057D01*
X142434949Y-103934845D01*
X142415178Y-103909224D01*
X142385880Y-103877062D01*
X142350962Y-103842129D01*
X142314330Y-103808198D01*
X142279889Y-103779038D01*
X142253550Y-103759703D01*
X142218966Y-103739985D01*
X142176899Y-103719835D01*
X142136150Y-103703451D01*
X142134167Y-103702758D01*
X142102712Y-103692536D01*
X142075320Y-103685769D01*
X142046883Y-103681765D01*
X142012292Y-103679833D01*
X141966439Y-103679283D01*
X141960600Y-103679277D01*
X141914127Y-103679621D01*
X141879253Y-103681213D01*
X141850651Y-103684836D01*
X141822995Y-103691273D01*
X141790956Y-103701308D01*
X141775968Y-103706419D01*
X141741516Y-103718024D01*
X141712856Y-103727158D01*
X141693890Y-103732606D01*
X141688761Y-103733600D01*
X141679683Y-103728269D01*
X141660566Y-103713638D01*
X141633942Y-103691751D01*
X141602344Y-103664651D01*
X141591677Y-103655283D01*
X141503001Y-103576966D01*
X141506370Y-103492300D01*
X141504479Y-103352938D01*
X141487794Y-103208857D01*
X141456182Y-103059383D01*
X141409506Y-102903841D01*
X141363804Y-102780980D01*
X141294232Y-102622590D01*
X141213882Y-102467973D01*
X141121828Y-102315797D01*
X141017144Y-102164728D01*
X140898903Y-102013436D01*
X140766179Y-101860587D01*
X140618047Y-101704850D01*
X140610167Y-101696910D01*
X140442862Y-101535129D01*
X140264515Y-101375290D01*
X140074268Y-101216741D01*
X139871262Y-101058826D01*
X139654637Y-100900892D01*
X139423534Y-100742285D01*
X139177094Y-100582352D01*
X139006190Y-100476097D01*
X138953763Y-100443943D01*
X138906016Y-100414503D01*
X138864876Y-100388978D01*
X138832268Y-100368567D01*
X138810118Y-100354470D01*
X138800351Y-100347887D01*
X138800163Y-100347722D01*
X138803906Y-100340708D01*
X138819272Y-100326888D01*
X138843575Y-100308509D01*
X138863663Y-100294667D01*
X138942404Y-100239090D01*
X139015264Y-100181520D01*
X139078487Y-100125037D01*
X139112049Y-100090998D01*
X139191745Y-99996365D01*
X139257877Y-99899674D01*
X139310291Y-99801968D01*
X139348835Y-99704286D01*
X139373357Y-99607672D01*
X139383703Y-99513165D01*
X139379720Y-99421809D01*
X139361257Y-99334644D01*
X139328160Y-99252712D01*
X139280276Y-99177054D01*
X139251177Y-99142378D01*
X139174664Y-99071182D01*
X139084270Y-99009246D01*
X138980340Y-98956647D01*
X138863219Y-98913459D01*
X138733253Y-98879758D01*
X138590786Y-98855620D01*
X138436164Y-98841121D01*
X138269732Y-98836336D01*
X138091834Y-98841341D01*
X137932226Y-98853315D01*
X137791483Y-98869442D01*
X137647599Y-98891538D01*
X137499113Y-98919976D01*
X137344564Y-98955131D01*
X137182492Y-98997377D01*
X137011436Y-99047089D01*
X136829934Y-99104641D01*
X136636525Y-99170409D01*
X136487592Y-99223598D01*
X136293550Y-99294155D01*
X136191258Y-99270358D01*
X136056036Y-99241186D01*
X135933338Y-99219458D01*
X135823621Y-99205211D01*
X135727341Y-99198480D01*
X135644952Y-99199304D01*
X135576911Y-99207719D01*
X135539845Y-99217530D01*
X135508449Y-99231794D01*
X135484620Y-99251816D01*
X135467515Y-99279692D01*
X135456289Y-99317518D01*
X135450100Y-99367388D01*
X135448101Y-99431398D01*
X135448125Y-99445233D01*
X135452112Y-99534432D01*
X135462986Y-99637464D01*
X135480537Y-99752786D01*
X135504553Y-99878856D01*
X135512707Y-99917254D01*
X135541653Y-100050609D01*
X135486639Y-100200888D01*
X135405819Y-100428360D01*
X135334192Y-100644069D01*
X135271845Y-100847691D01*
X135218866Y-101038905D01*
X135175342Y-101217385D01*
X135141361Y-101382809D01*
X135117010Y-101534853D01*
X135109551Y-101595766D01*
X135106283Y-101635041D01*
X135103556Y-101686949D01*
X135101370Y-101749050D01*
X135099725Y-101818901D01*
X135098620Y-101894062D01*
X135098056Y-101972093D01*
X135098031Y-102050551D01*
X135098547Y-102126997D01*
X135099603Y-102198988D01*
X135101198Y-102264084D01*
X135103333Y-102319844D01*
X135106008Y-102363826D01*
X135109222Y-102393590D01*
X135109604Y-102395866D01*
X135138223Y-102530544D01*
X135173995Y-102650606D01*
X135217329Y-102756971D01*
X135268637Y-102850557D01*
X135328328Y-102932280D01*
X135369245Y-102976913D01*
X135406869Y-103012880D01*
X135439583Y-103039556D01*
X135472903Y-103060990D01*
X135509476Y-103079867D01*
X135562870Y-103103218D01*
X135611240Y-103118808D01*
X135660693Y-103127952D01*
X135717342Y-103131967D01*
X135753596Y-103132466D01*
X135854074Y-103124165D01*
X135955235Y-103099737D01*
X136055988Y-103059897D01*
X136155240Y-103005356D01*
X136251900Y-102936830D01*
X136344876Y-102855031D01*
X136433076Y-102760672D01*
X136515408Y-102654468D01*
X136540043Y-102618539D01*
X136560261Y-102589465D01*
X136577442Y-102567171D01*
X136589307Y-102554481D01*
X136593112Y-102552733D01*
X136599298Y-102560892D01*
X136612806Y-102581351D01*
X136632234Y-102611898D01*
X136656180Y-102650320D01*
X136683240Y-102694403D01*
X136690933Y-102707047D01*
X136837905Y-102943744D01*
X136982412Y-103165499D01*
X137125656Y-103373905D01*
X137268839Y-103570552D01*
X137413163Y-103757030D01*
X137559831Y-103934932D01*
X137710044Y-104105847D01*
X137865005Y-104271367D01*
X137900834Y-104308217D01*
X138021998Y-104428910D01*
X138138896Y-104539197D01*
X138249863Y-104637540D01*
X138320037Y-104695959D01*
X138452855Y-104796238D01*
X138594675Y-104890089D01*
X138742815Y-104976186D01*
X138894592Y-105053203D01*
X139047320Y-105119813D01*
X139198318Y-105174691D01*
X139344900Y-105216511D01*
X139397463Y-105228405D01*
X139442894Y-105237133D01*
X139486931Y-105243687D01*
X139533969Y-105248502D01*
X139588405Y-105252011D01*
X139654635Y-105254648D01*
X139667240Y-105255037D01*
X139833446Y-105259996D01*
X139985796Y-105431988D01*
X139960016Y-105507777D01*
X139947840Y-105546377D01*
X139939720Y-105580754D01*
X139934638Y-105617054D01*
X139931575Y-105661421D01*
X139930601Y-105685166D01*
X139931103Y-105766373D01*
X139939615Y-105838575D01*
X139957356Y-105904402D01*
X139985541Y-105966490D01*
X140025387Y-106027470D01*
X140078112Y-106089976D01*
X140144931Y-106156641D01*
X140151190Y-106162482D01*
X140177119Y-106190173D01*
X140189914Y-106212437D01*
X140191067Y-106219336D01*
X140186423Y-106249247D01*
X140173438Y-106289910D01*
X140153533Y-106338241D01*
X140128130Y-106391154D01*
X140098649Y-106445565D01*
X140066512Y-106498389D01*
X140053388Y-106518155D01*
X140003614Y-106583079D01*
X139943484Y-106648496D01*
X139876459Y-106711421D01*
X139806000Y-106768869D01*
X139735571Y-106817856D01*
X139668632Y-106855398D01*
X139654887Y-106861749D01*
X139606292Y-106882597D01*
X139565600Y-106897943D01*
X139528548Y-106908593D01*
X139490870Y-106915355D01*
X139448302Y-106919033D01*
X139396578Y-106920435D01*
X139344400Y-106920451D01*
X139287653Y-106919866D01*
X139243794Y-106918582D01*
X139208781Y-106916195D01*
X139178569Y-106912303D01*
X139149118Y-106906500D01*
X139116384Y-106898385D01*
X139112224Y-106897285D01*
X139063501Y-106882056D01*
X139007982Y-106861082D01*
X138953378Y-106837358D01*
X138934424Y-106828221D01*
X138858228Y-106786526D01*
X138783361Y-106737709D01*
X138708717Y-106680699D01*
X138633192Y-106614422D01*
X138555678Y-106537804D01*
X138475070Y-106449772D01*
X138390262Y-106349254D01*
X138300147Y-106235176D01*
X138236481Y-106150932D01*
X138139002Y-106020011D01*
X138050882Y-105901823D01*
X137971418Y-105795480D01*
X137899908Y-105700097D01*
X137835646Y-105614786D01*
X137777929Y-105538663D01*
X137726053Y-105470840D01*
X137679315Y-105410432D01*
X137637010Y-105356552D01*
X137598436Y-105308313D01*
X137562888Y-105264830D01*
X137529663Y-105225217D01*
X137498057Y-105188586D01*
X137467365Y-105154052D01*
X137436885Y-105120728D01*
X137405913Y-105087728D01*
X137373744Y-105054166D01*
X137339676Y-105019156D01*
X137329766Y-105009040D01*
X137210655Y-104892267D01*
X137095838Y-104789804D01*
X136983167Y-104700305D01*
X136870492Y-104622419D01*
X136755664Y-104554800D01*
X136636534Y-104496099D01*
X136510953Y-104444968D01*
X136376770Y-104400058D01*
X136342967Y-104390032D01*
X136251279Y-104364701D01*
X136170135Y-104345407D01*
X136094549Y-104331443D01*
X136019533Y-104322100D01*
X135940100Y-104316670D01*
X135851263Y-104314446D01*
X135809567Y-104314297D01*
X135745888Y-104314554D01*
X135695582Y-104315316D01*
X135655090Y-104316861D01*
X135620854Y-104319465D01*
X135589314Y-104323405D01*
X135556912Y-104328959D01*
X135520088Y-104336402D01*
X135516973Y-104337060D01*
X135365754Y-104376879D01*
X135217099Y-104431240D01*
X135073567Y-104498829D01*
X134937712Y-104578332D01*
X134812092Y-104668437D01*
X134723143Y-104744966D01*
X134675272Y-104794170D01*
X134634343Y-104845103D01*
X134602004Y-104895123D01*
X134579908Y-104941589D01*
X134569703Y-104981862D01*
X134569200Y-104991314D01*
X134576490Y-105015715D01*
X134595308Y-105040484D01*
X134621073Y-105060763D01*
X134643902Y-105070564D01*
X134663080Y-105073929D01*
X134695392Y-105077911D01*
X134737068Y-105082112D01*
X134784340Y-105086138D01*
X134810070Y-105088043D01*
X134918807Y-105097996D01*
X135015466Y-105112305D01*
X135104590Y-105132087D01*
X135190723Y-105158458D01*
X135278406Y-105192532D01*
X135331520Y-105216154D01*
X135419562Y-105258676D01*
X135505071Y-105303933D01*
X135591043Y-105353731D01*
X135680471Y-105409874D01*
X135776351Y-105474168D01*
X135875647Y-105544086D01*
X135942864Y-105591654D01*
X135998631Y-105629376D01*
X136044689Y-105658030D01*
X136082776Y-105678391D01*
X136114631Y-105691235D01*
X136141993Y-105697339D01*
X136166603Y-105697478D01*
X136190198Y-105692428D01*
X136200244Y-105688939D01*
X136216744Y-105680221D01*
X136242640Y-105663779D01*
X136273926Y-105642239D01*
X136296920Y-105625513D01*
X136344466Y-105591238D01*
X136383115Y-105566780D01*
X136416647Y-105550728D01*
X136448843Y-105541675D01*
X136483485Y-105538210D01*
X136524353Y-105538926D01*
X136528648Y-105539158D01*
X136596888Y-105547658D01*
X136661817Y-105566076D01*
X136726283Y-105595700D01*
X136793131Y-105637823D01*
X136859998Y-105689399D01*
X136891928Y-105717081D01*
X136923930Y-105747569D01*
X136956929Y-105782045D01*
X136991849Y-105821693D01*
X137029614Y-105867696D01*
X137071148Y-105921236D01*
X137117376Y-105983498D01*
X137169222Y-106055663D01*
X137227611Y-106138915D01*
X137293465Y-106234437D01*
X137346175Y-106311700D01*
X137467434Y-106486393D01*
X137583569Y-106646040D01*
X137695333Y-106791473D01*
X137803483Y-106923526D01*
X137908772Y-107043031D01*
X138011955Y-107150821D01*
X138113788Y-107247730D01*
X138215023Y-107334591D01*
X138316418Y-107412236D01*
X138387667Y-107461403D01*
X138526866Y-107543227D01*
X138673032Y-107609752D01*
X138825523Y-107660806D01*
X138983700Y-107696217D01*
X139146921Y-107715815D01*
X139314548Y-107719429D01*
X139348634Y-107718214D01*
X139418472Y-107714397D01*
X139476075Y-107709399D01*
X139526136Y-107702420D01*
X139573347Y-107692656D01*
X139622402Y-107679308D01*
X139675551Y-107662390D01*
X139799036Y-107613850D01*
X139920972Y-107550874D01*
X140042045Y-107472978D01*
X140162943Y-107379678D01*
X140284353Y-107270490D01*
X140400834Y-107151558D01*
X140468673Y-107074775D01*
X140531188Y-106996007D01*
X140590321Y-106912351D01*
X140648011Y-106820907D01*
X140706200Y-106718770D01*
X140764299Y-106608033D01*
X140800398Y-106538341D01*
X140830684Y-106483211D01*
X140855851Y-106441573D01*
X140876589Y-106412354D01*
X140893591Y-106394483D01*
X140907013Y-106387014D01*
X140931756Y-106389114D01*
X140959732Y-106405391D01*
X140989229Y-106433828D01*
X141018531Y-106472405D01*
X141045927Y-106519107D01*
X141069703Y-106571914D01*
X141074179Y-106583875D01*
X141100618Y-106679297D01*
X141110986Y-106773395D01*
X141105396Y-106864950D01*
X141083963Y-106952743D01*
X141046799Y-107035554D01*
X141029456Y-107064119D01*
X141002169Y-107103737D01*
X140973201Y-107140886D01*
X140941244Y-107176548D01*
X140904988Y-107211703D01*
X140863126Y-107247333D01*
X140814348Y-107284418D01*
X140757347Y-107323940D01*
X140690814Y-107366879D01*
X140613441Y-107414217D01*
X140523919Y-107466935D01*
X140420940Y-107526013D01*
X140390033Y-107543535D01*
X140225293Y-107640451D01*
X140076795Y-107735782D01*
X139943991Y-107830114D01*
X139826330Y-107924030D01*
X139723263Y-108018116D01*
X139634238Y-108112957D01*
X139558706Y-108209139D01*
X139496117Y-108307245D01*
X139445920Y-108407862D01*
X139407566Y-108511574D01*
X139380986Y-108616539D01*
X139373354Y-108667802D01*
X139368206Y-108729783D01*
X139365537Y-108798066D01*
X139365341Y-108868237D01*
X139367614Y-108935880D01*
X139372351Y-108996580D01*
X139379546Y-109045922D01*
X139381478Y-109054900D01*
X139415120Y-109163372D01*
X139463979Y-109267620D01*
X139526384Y-109364656D01*
X139600664Y-109451489D01*
X139606314Y-109457156D01*
X139669946Y-109512909D01*
X139733294Y-109553951D01*
X139795388Y-109579932D01*
X139855257Y-109590503D01*
X139911929Y-109585316D01*
X139938648Y-109576750D01*
X139991879Y-109551508D01*
X140035285Y-109521419D01*
X140075943Y-109481594D01*
X140104366Y-109446048D01*
X140125577Y-109409417D01*
X140139658Y-109369749D01*
X140146688Y-109325092D01*
X140146747Y-109273495D01*
X140139916Y-109213007D01*
X140126275Y-109141676D01*
X140105904Y-109057551D01*
X140095053Y-109016800D01*
X140073594Y-108936027D01*
X140057029Y-108868956D01*
X140044946Y-108813211D01*
X140036932Y-108766411D01*
X140032577Y-108726180D01*
X140031469Y-108690139D01*
X140032992Y-108658288D01*
X140046669Y-108591585D01*
X140076394Y-108522751D01*
X140121538Y-108452569D01*
X140181468Y-108381822D01*
X140255552Y-108311292D01*
X140343160Y-108241764D01*
X140401839Y-108200928D01*
X140427556Y-108184005D01*
X140452159Y-108168236D01*
X140477638Y-108152468D01*
X140505987Y-108135548D01*
X140539196Y-108116323D01*
X140579257Y-108093641D01*
X140628162Y-108066349D01*
X140687903Y-108033295D01*
X140760471Y-107993326D01*
X140762567Y-107992174D01*
X140908364Y-107907424D01*
X141039438Y-107821372D01*
X141157995Y-107732371D01*
X141266242Y-107638775D01*
X141358060Y-107547785D01*
X141415658Y-107484701D01*
X141464031Y-107425974D01*
X141504439Y-107368896D01*
X141538141Y-107310758D01*
X141566398Y-107248849D01*
X141590467Y-107180462D01*
X141611609Y-107102887D01*
X141631084Y-107013415D01*
X141647346Y-106925533D01*
X141658988Y-106860014D01*
X141668643Y-106809159D01*
X141676928Y-106770899D01*
X141684458Y-106743168D01*
X141691851Y-106723896D01*
X141699723Y-106711015D01*
X141708691Y-106702458D01*
X141715067Y-106698420D01*
X141742289Y-106692502D01*
X141777762Y-106699090D01*
X141819915Y-106716892D01*
X141867183Y-106744616D01*
X141917995Y-106780972D01*
X141970784Y-106824667D01*
X142023982Y-106874412D01*
X142076021Y-106928913D01*
X142125332Y-106986881D01*
X142170348Y-107047023D01*
X142206665Y-107103239D01*
X142258779Y-107206998D01*
X142297756Y-107319373D01*
X142323490Y-107438167D01*
X142335873Y-107561180D01*
X142334800Y-107686217D01*
X142320163Y-107811078D01*
X142291857Y-107933567D01*
X142252312Y-108045481D01*
X142205991Y-108140442D01*
X142148986Y-108231496D01*
X142083443Y-108316230D01*
X142011510Y-108392230D01*
X141935333Y-108457081D01*
X141857061Y-108508369D01*
X141826683Y-108524054D01*
X141792209Y-108539309D01*
X141762565Y-108548821D01*
X141730607Y-108554305D01*
X141689190Y-108557477D01*
X141686983Y-108557593D01*
X141600961Y-108557452D01*
X141526187Y-108546912D01*
X141460000Y-108525229D01*
X141399735Y-108491658D01*
X141369241Y-108468755D01*
X141327058Y-108428042D01*
X141291365Y-108379293D01*
X141259818Y-108318995D01*
X141243940Y-108281060D01*
X141216960Y-108220852D01*
X141188892Y-108176683D01*
X141158623Y-108147661D01*
X141125041Y-108132892D01*
X141087031Y-108131482D01*
X141063396Y-108136195D01*
X141023723Y-108154503D01*
X140983561Y-108186615D01*
X140945011Y-108229602D01*
X140910176Y-108280534D01*
X140881155Y-108336482D01*
X140860051Y-108394517D01*
X140851672Y-108431382D01*
X140846681Y-108482446D01*
X140846396Y-108543068D01*
X140850350Y-108607826D01*
X140858071Y-108671294D01*
X140869092Y-108728048D01*
X140880729Y-108767033D01*
X140925638Y-108863268D01*
X140983947Y-108950451D01*
X141054226Y-109027699D01*
X141135043Y-109094132D01*
X141224969Y-109148868D01*
X141322573Y-109191026D01*
X141426424Y-109219726D01*
X141535091Y-109234086D01*
X141638669Y-109233836D01*
X141758865Y-109217541D01*
X141880961Y-109184728D01*
X142004382Y-109135633D01*
X142128555Y-109070491D01*
X142252904Y-108989536D01*
X142273971Y-108974254D01*
X142314977Y-108941549D01*
X142363186Y-108899080D01*
X142415335Y-108850093D01*
X142468162Y-108797838D01*
X142518404Y-108745562D01*
X142562799Y-108696513D01*
X142598084Y-108653939D01*
X142605412Y-108644266D01*
X142695074Y-108508774D01*
X142771406Y-108363615D01*
X142834061Y-108209996D01*
X142882691Y-108049121D01*
X142916949Y-107882196D01*
X142936486Y-107710427D01*
X142940957Y-107535019D01*
X142939463Y-107485456D01*
X142935718Y-107411825D01*
X142930731Y-107345300D01*
X142923950Y-107282755D01*
X142914825Y-107221066D01*
X142902801Y-107157107D01*
X142887329Y-107087752D01*
X142867856Y-107009877D01*
X142843829Y-106920354D01*
X142832369Y-106878966D01*
X142809603Y-106795821D01*
X142791895Y-106727210D01*
X142779082Y-106671561D01*
X142771000Y-106627300D01*
X142767487Y-106592854D01*
X142768379Y-106566650D01*
X142773511Y-106547113D01*
X142782722Y-106532672D01*
X142795297Y-106522109D01*
X142816541Y-106513997D01*
X142847158Y-106512066D01*
X142888487Y-106516501D01*
X142941866Y-106527484D01*
X143008632Y-106545201D01*
X143048567Y-106556979D01*
X143149153Y-106585524D01*
X143256686Y-106612649D01*
X143365160Y-106636985D01*
X143468566Y-106657164D01*
X143539633Y-106668814D01*
X143613025Y-106677133D01*
X143696852Y-106682461D01*
X143786662Y-106684831D01*
X143878001Y-106684278D01*
X143966417Y-106680834D01*
X144047456Y-106674534D01*
X144116665Y-106665411D01*
X144122421Y-106664406D01*
X144254539Y-106636713D01*
X144383797Y-106601801D01*
X144506905Y-106560791D01*
X144620575Y-106514801D01*
X144721517Y-106464953D01*
X144741900Y-106453458D01*
X144873377Y-106368244D01*
X144995719Y-106270541D01*
X145107708Y-106161792D01*
X145208126Y-106043441D01*
X145295755Y-105916932D01*
X145369376Y-105783709D01*
X145427772Y-105645216D01*
X145430676Y-105637023D01*
X145463289Y-105521504D01*
X145480473Y-105406277D01*
X145482480Y-105292743D01*
X145469563Y-105182306D01*
X145441976Y-105076367D01*
X145399971Y-104976331D01*
X145343801Y-104883600D01*
X145281097Y-104807282D01*
X145200054Y-104732803D01*
X145111991Y-104673464D01*
X145017596Y-104629568D01*
X144917556Y-104601420D01*
X144812558Y-104589324D01*
X144787705Y-104588844D01*
X144712656Y-104594110D01*
X144641101Y-104609353D01*
X144574904Y-104633346D01*
X144515932Y-104664864D01*
X144466049Y-104702678D01*
X144427121Y-104745564D01*
X144401014Y-104792293D01*
X144389592Y-104841639D01*
X144389239Y-104850874D01*
X144394099Y-104897057D01*
X144410496Y-104931783D01*
X144439928Y-104957036D01*
X144482593Y-104974428D01*
X144555205Y-105001618D01*
X144622979Y-105038919D01*
X144682775Y-105084021D01*
X144731455Y-105134615D01*
X144761438Y-105179625D01*
X144791667Y-105253032D01*
X144808864Y-105332894D01*
X144812970Y-105415388D01*
X144803926Y-105496691D01*
X144781674Y-105572980D01*
X144767932Y-105603486D01*
X144726966Y-105669626D01*
X144671709Y-105736501D01*
X144604598Y-105802206D01*
X144528069Y-105864839D01*
X144444558Y-105922497D01*
X144356500Y-105973277D01*
X144266334Y-106015275D01*
X144216967Y-106033859D01*
X144134203Y-106056856D01*
X144040745Y-106073635D01*
X143941800Y-106083804D01*
X143842574Y-106086966D01*
X143748274Y-106082728D01*
X143683109Y-106074316D01*
X143558559Y-106044066D01*
X143438577Y-105997776D01*
X143324134Y-105935953D01*
X143216200Y-105859106D01*
X143137271Y-105789173D01*
X143092352Y-105742637D01*
X143049964Y-105693236D01*
X143021890Y-105656612D01*
X141008469Y-105656612D01*
X141006733Y-105719805D01*
X140998504Y-105779726D01*
X140988158Y-105818654D01*
X140952959Y-105896313D01*
X140904376Y-105965361D01*
X140844282Y-106024037D01*
X140774546Y-106070578D01*
X140697040Y-106103222D01*
X140681182Y-106107818D01*
X140631796Y-106116616D01*
X140573783Y-106120095D01*
X140514596Y-106118243D01*
X140461689Y-106111044D01*
X140449652Y-106108235D01*
X140371390Y-106079330D01*
X140300718Y-106036009D01*
X140238986Y-105979600D01*
X140187541Y-105911427D01*
X140147732Y-105832817D01*
X140135603Y-105799466D01*
X140124433Y-105747007D01*
X140120413Y-105680563D01*
X140120402Y-105676699D01*
X140128398Y-105591874D01*
X140151586Y-105511626D01*
X140188773Y-105437910D01*
X140238763Y-105372678D01*
X140300360Y-105317884D01*
X140363200Y-105279861D01*
X140417010Y-105256011D01*
X140465492Y-105241350D01*
X140516214Y-105234090D01*
X140563938Y-105232406D01*
X140650001Y-105240165D01*
X140730572Y-105263310D01*
X140804207Y-105300786D01*
X140869460Y-105351535D01*
X140924889Y-105414503D01*
X140969047Y-105488632D01*
X140992100Y-105545466D01*
X141003621Y-105596410D01*
X141008469Y-105656612D01*
X143021890Y-105656612D01*
X143011774Y-105643416D01*
X142979448Y-105595624D01*
X142954655Y-105552308D01*
X142939060Y-105515915D01*
X142934267Y-105491130D01*
X142939602Y-105470477D01*
X142956388Y-105452809D01*
X142985793Y-105437631D01*
X143028986Y-105424443D01*
X143087138Y-105412749D01*
X143135734Y-105405408D01*
X143250395Y-105387220D01*
X143350943Y-105365493D01*
X143440006Y-105339241D01*
X143520211Y-105307477D01*
X143594185Y-105269215D01*
X143664556Y-105223469D01*
X143707930Y-105190594D01*
X143749415Y-105154918D01*
X143797835Y-105109085D01*
X143849974Y-105056493D01*
X143902614Y-105000537D01*
X143952538Y-104944614D01*
X143996529Y-104892119D01*
X144022914Y-104858093D01*
X144057190Y-104810877D01*
X144089950Y-104763510D01*
X144122662Y-104713618D01*
X144156798Y-104658826D01*
X144193826Y-104596757D01*
X144235217Y-104525037D01*
X144282442Y-104441289D01*
X144297019Y-104415166D01*
X144350452Y-104320507D01*
X144398042Y-104239274D01*
X144441160Y-104169575D01*
X144481175Y-104109516D01*
X144519459Y-104057204D01*
X144557381Y-104010745D01*
X144596313Y-103968247D01*
X144637624Y-103927816D01*
X144672578Y-103896324D01*
X144733319Y-103848768D01*
X144793387Y-103813961D01*
X144855168Y-103791497D01*
X144921049Y-103780971D01*
X144993417Y-103781977D01*
X145074660Y-103794109D01*
X145156767Y-103814048D01*
X145231057Y-103834521D01*
X145291427Y-103850867D01*
X145340242Y-103863591D01*
X145379869Y-103873201D01*
X145412673Y-103880201D01*
X145441022Y-103885099D01*
X145467282Y-103888400D01*
X145493818Y-103890611D01*
X145522144Y-103892195D01*
X145564652Y-103893930D01*
X145594677Y-103893956D01*
X145616627Y-103891784D01*
X145634909Y-103886924D01*
X145653929Y-103878886D01*
X145657611Y-103877141D01*
X145698754Y-103851493D01*
X145740469Y-103815343D01*
X145778368Y-103773364D01*
X145808066Y-103730230D01*
X145821295Y-103702736D01*
X145836349Y-103639826D01*
X145834977Y-103575585D01*
X145817552Y-103510819D01*
X145784445Y-103446331D01*
X145736028Y-103382923D01*
X145672675Y-103321399D01*
X145628242Y-103286162D01*
X145524168Y-103219095D01*
X145414847Y-103167974D01*
X145299870Y-103132677D01*
X145178831Y-103113084D01*
X145051324Y-103109076D01*
X145030288Y-103109874D01*
X144901920Y-103122506D01*
X144781346Y-103148342D01*
X144667103Y-103188055D01*
X144557730Y-103242318D01*
X144451767Y-103311804D01*
X144347752Y-103397187D01*
X144292189Y-103449832D01*
X144236780Y-103506699D01*
X144183351Y-103565818D01*
X144130871Y-103628667D01*
X144078306Y-103696725D01*
X144024624Y-103771472D01*
X143968794Y-103854387D01*
X143909783Y-103946948D01*
X143846558Y-104050635D01*
X143778088Y-104166927D01*
X143714746Y-104277225D01*
X143664865Y-104363434D01*
X143620726Y-104436345D01*
X143580935Y-104498016D01*
X143544097Y-104550502D01*
X143508816Y-104595861D01*
X143473696Y-104636150D01*
X143464861Y-104645583D01*
X143395719Y-104712961D01*
X143329264Y-104765984D01*
X143262922Y-104806393D01*
X143194115Y-104835928D01*
X143172688Y-104842904D01*
X143097827Y-104857511D01*
X143016263Y-104858826D01*
X142931237Y-104847264D01*
X142845993Y-104823235D01*
X142773238Y-104792039D01*
X142730006Y-104767468D01*
X142692402Y-104740925D01*
X142663737Y-104715051D01*
X142647322Y-104692486D01*
X142646738Y-104691148D01*
X142641861Y-104675758D01*
X142641607Y-104661455D01*
X142647299Y-104647163D01*
X142660258Y-104631806D01*
X142681807Y-104614310D01*
X142713267Y-104593597D01*
X142755962Y-104568594D01*
X142811211Y-104538223D01*
X142879234Y-104501994D01*
X142976390Y-104449859D01*
X143060567Y-104402573D01*
X143134327Y-104358262D01*
X143155332Y-104344491D01*
X142361912Y-104344491D01*
X142358706Y-104375914D01*
X142340379Y-104453049D01*
X142308233Y-104526863D01*
X142264359Y-104593937D01*
X142210844Y-104650851D01*
X142172900Y-104680098D01*
X142093743Y-104723633D01*
X142011821Y-104750514D01*
X141927558Y-104760675D01*
X141841379Y-104754054D01*
X141779478Y-104739197D01*
X141704508Y-104707645D01*
X141637378Y-104662410D01*
X141579524Y-104605487D01*
X141532384Y-104538869D01*
X141497394Y-104464550D01*
X141475991Y-104384524D01*
X141469533Y-104309132D01*
X141473639Y-104264387D01*
X141484684Y-104211978D01*
X141500763Y-104158683D01*
X141519970Y-104111278D01*
X141531072Y-104090346D01*
X141581319Y-104022053D01*
X141642783Y-103964709D01*
X141713176Y-103919628D01*
X141790207Y-103888123D01*
X141871587Y-103871509D01*
X141916567Y-103869191D01*
X142000379Y-103877350D01*
X142078803Y-103900332D01*
X142150470Y-103936570D01*
X142214012Y-103984494D01*
X142268058Y-104042535D01*
X142311241Y-104109125D01*
X142342190Y-104182693D01*
X142359537Y-104261672D01*
X142361912Y-104344491D01*
X143155332Y-104344491D01*
X143200233Y-104315054D01*
X143260848Y-104271079D01*
X143318735Y-104224463D01*
X143376458Y-104173335D01*
X143436579Y-104115822D01*
X143501661Y-104050053D01*
X143510486Y-104040938D01*
X143621445Y-103918904D01*
X143716255Y-103798978D01*
X143795436Y-103680282D01*
X143859508Y-103561938D01*
X143908991Y-103443068D01*
X143944402Y-103322791D01*
X143950038Y-103297566D01*
X143961804Y-103226129D01*
X143969828Y-103143844D01*
X143973866Y-103056432D01*
X143973674Y-102969611D01*
X143969010Y-102889103D01*
X143967911Y-102877946D01*
X143947234Y-102733663D01*
X143915613Y-102594688D01*
X143872500Y-102460193D01*
X143817347Y-102329351D01*
X143749607Y-102201335D01*
X143668732Y-102075317D01*
X143574174Y-101950470D01*
X143465384Y-101825966D01*
X143341817Y-101700979D01*
X143202922Y-101574680D01*
X143048153Y-101446243D01*
X142989300Y-101399986D01*
X142948695Y-101368899D01*
X142904400Y-101335828D01*
X142855018Y-101299781D01*
X142799151Y-101259772D01*
X142735402Y-101214809D01*
X142662373Y-101163904D01*
X142578667Y-101106068D01*
X142482888Y-101040310D01*
X142434734Y-101007365D01*
X142328109Y-100933497D01*
X142235083Y-100866762D01*
X142154458Y-100806053D01*
X142085040Y-100750266D01*
X142025633Y-100698294D01*
X141975039Y-100649033D01*
X141932063Y-100601375D01*
X141895509Y-100554216D01*
X141864181Y-100506450D01*
X141836883Y-100456971D01*
X141834744Y-100452718D01*
X141808914Y-100396351D01*
X141792654Y-100348146D01*
X141784771Y-100303197D01*
X141784069Y-100256597D01*
X141784657Y-100247040D01*
X141788964Y-100211915D01*
X141797569Y-100179347D01*
X141812092Y-100145783D01*
X141834154Y-100107668D01*
X141865373Y-100061448D01*
X141876122Y-100046366D01*
X141909976Y-99997643D01*
X141933440Y-99958812D01*
X141947184Y-99926944D01*
X141951878Y-99899108D01*
X141948193Y-99872376D01*
X141936799Y-99843818D01*
X141926770Y-99824995D01*
X141914622Y-99805309D01*
X141894301Y-99774467D01*
X141867561Y-99735035D01*
X141836150Y-99689580D01*
X141801821Y-99640666D01*
X141780720Y-99610963D01*
X141717818Y-99521540D01*
X141663989Y-99441972D01*
X141617348Y-99369210D01*
X141576009Y-99300202D01*
X141538084Y-99231896D01*
X141501688Y-99161241D01*
X141497666Y-99153133D01*
X141447726Y-99044782D01*
X141408941Y-98942811D01*
X141380037Y-98842327D01*
X141359746Y-98738439D01*
X141346795Y-98626255D01*
X141342082Y-98554176D01*
X141338012Y-98485062D01*
X141333028Y-98431073D01*
X141326361Y-98390401D01*
X141317237Y-98361236D01*
X141304884Y-98341773D01*
X141288532Y-98330201D01*
X141267408Y-98324713D01*
X141243607Y-98323482D01*
X141200790Y-98330285D01*
G37*
X141200790Y-98330285D02*
X141153365Y-98350790D01*
X141100578Y-98385454D01*
X141041676Y-98434732D01*
X141009243Y-98465438D01*
X140918690Y-98564605D01*
X140835091Y-98677003D01*
X140759886Y-98799855D01*
X140694514Y-98930381D01*
X140640415Y-99065803D01*
X140599030Y-99203341D01*
X140579082Y-99295562D01*
X140571144Y-99352717D01*
X140565305Y-99421957D01*
X140561644Y-99498554D01*
X140560239Y-99577779D01*
X140561169Y-99654904D01*
X140564510Y-99725202D01*
X140570343Y-99783944D01*
X140570938Y-99788133D01*
X140598159Y-99935776D01*
X140636290Y-100084432D01*
X140684097Y-100230771D01*
X140740348Y-100371458D01*
X140803810Y-100503164D01*
X140873251Y-100622556D01*
X140888062Y-100645133D01*
X140942031Y-100722276D01*
X141000228Y-100798639D01*
X141063511Y-100875005D01*
X141132739Y-100952158D01*
X141208769Y-101030880D01*
X141292461Y-101111954D01*
X141384671Y-101196163D01*
X141486259Y-101284290D01*
X141598083Y-101377118D01*
X141721000Y-101475429D01*
X141855869Y-101580007D01*
X142003549Y-101691635D01*
X142164896Y-101811095D01*
X142171445Y-101815899D01*
X142280730Y-101896475D01*
X142377250Y-101968595D01*
X142462276Y-102033282D01*
X142537077Y-102091554D01*
X142602925Y-102144432D01*
X142661088Y-102192936D01*
X142712837Y-102238088D01*
X142759441Y-102280906D01*
X142802172Y-102322412D01*
X142803300Y-102323541D01*
X142902053Y-102429359D01*
X142984720Y-102533423D01*
X143051893Y-102636911D01*
X143104163Y-102741004D01*
X143142121Y-102846881D01*
X143166358Y-102955723D01*
X143177467Y-103068708D01*
X143177522Y-103070090D01*
X143176842Y-103165797D01*
X143165923Y-103252155D01*
X143143583Y-103333393D01*
X143108642Y-103413742D01*
X143059917Y-103497430D01*
X143056824Y-103502197D01*
X143026927Y-103543605D01*
X142987759Y-103591380D01*
X142942646Y-103642008D01*
X142894914Y-103691978D01*
X142847888Y-103737776D01*
X142804894Y-103775890D01*
X142777634Y-103797079D01*
X142724209Y-103831304D01*
X142660140Y-103866306D01*
X142591299Y-103899117D01*
X142523555Y-103926769D01*
X142515167Y-103929819D01*
X142447434Y-103954057D01*
X142434949Y-103934845D01*
X142415178Y-103909224D01*
X142385880Y-103877062D01*
X142350962Y-103842129D01*
X142314330Y-103808198D01*
X142279889Y-103779038D01*
X142253550Y-103759703D01*
X142218966Y-103739985D01*
X142176899Y-103719835D01*
X142136150Y-103703451D01*
X142134167Y-103702758D01*
X142102712Y-103692536D01*
X142075320Y-103685769D01*
X142046883Y-103681765D01*
X142012292Y-103679833D01*
X141966439Y-103679283D01*
X141960600Y-103679277D01*
X141914127Y-103679621D01*
X141879253Y-103681213D01*
X141850651Y-103684836D01*
X141822995Y-103691273D01*
X141790956Y-103701308D01*
X141775968Y-103706419D01*
X141741516Y-103718024D01*
X141712856Y-103727158D01*
X141693890Y-103732606D01*
X141688761Y-103733600D01*
X141679683Y-103728269D01*
X141660566Y-103713638D01*
X141633942Y-103691751D01*
X141602344Y-103664651D01*
X141591677Y-103655283D01*
X141503001Y-103576966D01*
X141506370Y-103492300D01*
X141504479Y-103352938D01*
X141487794Y-103208857D01*
X141456182Y-103059383D01*
X141409506Y-102903841D01*
X141363804Y-102780980D01*
X141294232Y-102622590D01*
X141213882Y-102467973D01*
X141121828Y-102315797D01*
X141017144Y-102164728D01*
X140898903Y-102013436D01*
X140766179Y-101860587D01*
X140618047Y-101704850D01*
X140610167Y-101696910D01*
X140442862Y-101535129D01*
X140264515Y-101375290D01*
X140074268Y-101216741D01*
X139871262Y-101058826D01*
X139654637Y-100900892D01*
X139423534Y-100742285D01*
X139177094Y-100582352D01*
X139006190Y-100476097D01*
X138953763Y-100443943D01*
X138906016Y-100414503D01*
X138864876Y-100388978D01*
X138832268Y-100368567D01*
X138810118Y-100354470D01*
X138800351Y-100347887D01*
X138800163Y-100347722D01*
X138803906Y-100340708D01*
X138819272Y-100326888D01*
X138843575Y-100308509D01*
X138863663Y-100294667D01*
X138942404Y-100239090D01*
X139015264Y-100181520D01*
X139078487Y-100125037D01*
X139112049Y-100090998D01*
X139191745Y-99996365D01*
X139257877Y-99899674D01*
X139310291Y-99801968D01*
X139348835Y-99704286D01*
X139373357Y-99607672D01*
X139383703Y-99513165D01*
X139379720Y-99421809D01*
X139361257Y-99334644D01*
X139328160Y-99252712D01*
X139280276Y-99177054D01*
X139251177Y-99142378D01*
X139174664Y-99071182D01*
X139084270Y-99009246D01*
X138980340Y-98956647D01*
X138863219Y-98913459D01*
X138733253Y-98879758D01*
X138590786Y-98855620D01*
X138436164Y-98841121D01*
X138269732Y-98836336D01*
X138091834Y-98841341D01*
X137932226Y-98853315D01*
X137791483Y-98869442D01*
X137647599Y-98891538D01*
X137499113Y-98919976D01*
X137344564Y-98955131D01*
X137182492Y-98997377D01*
X137011436Y-99047089D01*
X136829934Y-99104641D01*
X136636525Y-99170409D01*
X136487592Y-99223598D01*
X136293550Y-99294155D01*
X136191258Y-99270358D01*
X136056036Y-99241186D01*
X135933338Y-99219458D01*
X135823621Y-99205211D01*
X135727341Y-99198480D01*
X135644952Y-99199304D01*
X135576911Y-99207719D01*
X135539845Y-99217530D01*
X135508449Y-99231794D01*
X135484620Y-99251816D01*
X135467515Y-99279692D01*
X135456289Y-99317518D01*
X135450100Y-99367388D01*
X135448101Y-99431398D01*
X135448125Y-99445233D01*
X135452112Y-99534432D01*
X135462986Y-99637464D01*
X135480537Y-99752786D01*
X135504553Y-99878856D01*
X135512707Y-99917254D01*
X135541653Y-100050609D01*
X135486639Y-100200888D01*
X135405819Y-100428360D01*
X135334192Y-100644069D01*
X135271845Y-100847691D01*
X135218866Y-101038905D01*
X135175342Y-101217385D01*
X135141361Y-101382809D01*
X135117010Y-101534853D01*
X135109551Y-101595766D01*
X135106283Y-101635041D01*
X135103556Y-101686949D01*
X135101370Y-101749050D01*
X135099725Y-101818901D01*
X135098620Y-101894062D01*
X135098056Y-101972093D01*
X135098031Y-102050551D01*
X135098547Y-102126997D01*
X135099603Y-102198988D01*
X135101198Y-102264084D01*
X135103333Y-102319844D01*
X135106008Y-102363826D01*
X135109222Y-102393590D01*
X135109604Y-102395866D01*
X135138223Y-102530544D01*
X135173995Y-102650606D01*
X135217329Y-102756971D01*
X135268637Y-102850557D01*
X135328328Y-102932280D01*
X135369245Y-102976913D01*
X135406869Y-103012880D01*
X135439583Y-103039556D01*
X135472903Y-103060990D01*
X135509476Y-103079867D01*
X135562870Y-103103218D01*
X135611240Y-103118808D01*
X135660693Y-103127952D01*
X135717342Y-103131967D01*
X135753596Y-103132466D01*
X135854074Y-103124165D01*
X135955235Y-103099737D01*
X136055988Y-103059897D01*
X136155240Y-103005356D01*
X136251900Y-102936830D01*
X136344876Y-102855031D01*
X136433076Y-102760672D01*
X136515408Y-102654468D01*
X136540043Y-102618539D01*
X136560261Y-102589465D01*
X136577442Y-102567171D01*
X136589307Y-102554481D01*
X136593112Y-102552733D01*
X136599298Y-102560892D01*
X136612806Y-102581351D01*
X136632234Y-102611898D01*
X136656180Y-102650320D01*
X136683240Y-102694403D01*
X136690933Y-102707047D01*
X136837905Y-102943744D01*
X136982412Y-103165499D01*
X137125656Y-103373905D01*
X137268839Y-103570552D01*
X137413163Y-103757030D01*
X137559831Y-103934932D01*
X137710044Y-104105847D01*
X137865005Y-104271367D01*
X137900834Y-104308217D01*
X138021998Y-104428910D01*
X138138896Y-104539197D01*
X138249863Y-104637540D01*
X138320037Y-104695959D01*
X138452855Y-104796238D01*
X138594675Y-104890089D01*
X138742815Y-104976186D01*
X138894592Y-105053203D01*
X139047320Y-105119813D01*
X139198318Y-105174691D01*
X139344900Y-105216511D01*
X139397463Y-105228405D01*
X139442894Y-105237133D01*
X139486931Y-105243687D01*
X139533969Y-105248502D01*
X139588405Y-105252011D01*
X139654635Y-105254648D01*
X139667240Y-105255037D01*
X139833446Y-105259996D01*
X139985796Y-105431988D01*
X139960016Y-105507777D01*
X139947840Y-105546377D01*
X139939720Y-105580754D01*
X139934638Y-105617054D01*
X139931575Y-105661421D01*
X139930601Y-105685166D01*
X139931103Y-105766373D01*
X139939615Y-105838575D01*
X139957356Y-105904402D01*
X139985541Y-105966490D01*
X140025387Y-106027470D01*
X140078112Y-106089976D01*
X140144931Y-106156641D01*
X140151190Y-106162482D01*
X140177119Y-106190173D01*
X140189914Y-106212437D01*
X140191067Y-106219336D01*
X140186423Y-106249247D01*
X140173438Y-106289910D01*
X140153533Y-106338241D01*
X140128130Y-106391154D01*
X140098649Y-106445565D01*
X140066512Y-106498389D01*
X140053388Y-106518155D01*
X140003614Y-106583079D01*
X139943484Y-106648496D01*
X139876459Y-106711421D01*
X139806000Y-106768869D01*
X139735571Y-106817856D01*
X139668632Y-106855398D01*
X139654887Y-106861749D01*
X139606292Y-106882597D01*
X139565600Y-106897943D01*
X139528548Y-106908593D01*
X139490870Y-106915355D01*
X139448302Y-106919033D01*
X139396578Y-106920435D01*
X139344400Y-106920451D01*
X139287653Y-106919866D01*
X139243794Y-106918582D01*
X139208781Y-106916195D01*
X139178569Y-106912303D01*
X139149118Y-106906500D01*
X139116384Y-106898385D01*
X139112224Y-106897285D01*
X139063501Y-106882056D01*
X139007982Y-106861082D01*
X138953378Y-106837358D01*
X138934424Y-106828221D01*
X138858228Y-106786526D01*
X138783361Y-106737709D01*
X138708717Y-106680699D01*
X138633192Y-106614422D01*
X138555678Y-106537804D01*
X138475070Y-106449772D01*
X138390262Y-106349254D01*
X138300147Y-106235176D01*
X138236481Y-106150932D01*
X138139002Y-106020011D01*
X138050882Y-105901823D01*
X137971418Y-105795480D01*
X137899908Y-105700097D01*
X137835646Y-105614786D01*
X137777929Y-105538663D01*
X137726053Y-105470840D01*
X137679315Y-105410432D01*
X137637010Y-105356552D01*
X137598436Y-105308313D01*
X137562888Y-105264830D01*
X137529663Y-105225217D01*
X137498057Y-105188586D01*
X137467365Y-105154052D01*
X137436885Y-105120728D01*
X137405913Y-105087728D01*
X137373744Y-105054166D01*
X137339676Y-105019156D01*
X137329766Y-105009040D01*
X137210655Y-104892267D01*
X137095838Y-104789804D01*
X136983167Y-104700305D01*
X136870492Y-104622419D01*
X136755664Y-104554800D01*
X136636534Y-104496099D01*
X136510953Y-104444968D01*
X136376770Y-104400058D01*
X136342967Y-104390032D01*
X136251279Y-104364701D01*
X136170135Y-104345407D01*
X136094549Y-104331443D01*
X136019533Y-104322100D01*
X135940100Y-104316670D01*
X135851263Y-104314446D01*
X135809567Y-104314297D01*
X135745888Y-104314554D01*
X135695582Y-104315316D01*
X135655090Y-104316861D01*
X135620854Y-104319465D01*
X135589314Y-104323405D01*
X135556912Y-104328959D01*
X135520088Y-104336402D01*
X135516973Y-104337060D01*
X135365754Y-104376879D01*
X135217099Y-104431240D01*
X135073567Y-104498829D01*
X134937712Y-104578332D01*
X134812092Y-104668437D01*
X134723143Y-104744966D01*
X134675272Y-104794170D01*
X134634343Y-104845103D01*
X134602004Y-104895123D01*
X134579908Y-104941589D01*
X134569703Y-104981862D01*
X134569200Y-104991314D01*
X134576490Y-105015715D01*
X134595308Y-105040484D01*
X134621073Y-105060763D01*
X134643902Y-105070564D01*
X134663080Y-105073929D01*
X134695392Y-105077911D01*
X134737068Y-105082112D01*
X134784340Y-105086138D01*
X134810070Y-105088043D01*
X134918807Y-105097996D01*
X135015466Y-105112305D01*
X135104590Y-105132087D01*
X135190723Y-105158458D01*
X135278406Y-105192532D01*
X135331520Y-105216154D01*
X135419562Y-105258676D01*
X135505071Y-105303933D01*
X135591043Y-105353731D01*
X135680471Y-105409874D01*
X135776351Y-105474168D01*
X135875647Y-105544086D01*
X135942864Y-105591654D01*
X135998631Y-105629376D01*
X136044689Y-105658030D01*
X136082776Y-105678391D01*
X136114631Y-105691235D01*
X136141993Y-105697339D01*
X136166603Y-105697478D01*
X136190198Y-105692428D01*
X136200244Y-105688939D01*
X136216744Y-105680221D01*
X136242640Y-105663779D01*
X136273926Y-105642239D01*
X136296920Y-105625513D01*
X136344466Y-105591238D01*
X136383115Y-105566780D01*
X136416647Y-105550728D01*
X136448843Y-105541675D01*
X136483485Y-105538210D01*
X136524353Y-105538926D01*
X136528648Y-105539158D01*
X136596888Y-105547658D01*
X136661817Y-105566076D01*
X136726283Y-105595700D01*
X136793131Y-105637823D01*
X136859998Y-105689399D01*
X136891928Y-105717081D01*
X136923930Y-105747569D01*
X136956929Y-105782045D01*
X136991849Y-105821693D01*
X137029614Y-105867696D01*
X137071148Y-105921236D01*
X137117376Y-105983498D01*
X137169222Y-106055663D01*
X137227611Y-106138915D01*
X137293465Y-106234437D01*
X137346175Y-106311700D01*
X137467434Y-106486393D01*
X137583569Y-106646040D01*
X137695333Y-106791473D01*
X137803483Y-106923526D01*
X137908772Y-107043031D01*
X138011955Y-107150821D01*
X138113788Y-107247730D01*
X138215023Y-107334591D01*
X138316418Y-107412236D01*
X138387667Y-107461403D01*
X138526866Y-107543227D01*
X138673032Y-107609752D01*
X138825523Y-107660806D01*
X138983700Y-107696217D01*
X139146921Y-107715815D01*
X139314548Y-107719429D01*
X139348634Y-107718214D01*
X139418472Y-107714397D01*
X139476075Y-107709399D01*
X139526136Y-107702420D01*
X139573347Y-107692656D01*
X139622402Y-107679308D01*
X139675551Y-107662390D01*
X139799036Y-107613850D01*
X139920972Y-107550874D01*
X140042045Y-107472978D01*
X140162943Y-107379678D01*
X140284353Y-107270490D01*
X140400834Y-107151558D01*
X140468673Y-107074775D01*
X140531188Y-106996007D01*
X140590321Y-106912351D01*
X140648011Y-106820907D01*
X140706200Y-106718770D01*
X140764299Y-106608033D01*
X140800398Y-106538341D01*
X140830684Y-106483211D01*
X140855851Y-106441573D01*
X140876589Y-106412354D01*
X140893591Y-106394483D01*
X140907013Y-106387014D01*
X140931756Y-106389114D01*
X140959732Y-106405391D01*
X140989229Y-106433828D01*
X141018531Y-106472405D01*
X141045927Y-106519107D01*
X141069703Y-106571914D01*
X141074179Y-106583875D01*
X141100618Y-106679297D01*
X141110986Y-106773395D01*
X141105396Y-106864950D01*
X141083963Y-106952743D01*
X141046799Y-107035554D01*
X141029456Y-107064119D01*
X141002169Y-107103737D01*
X140973201Y-107140886D01*
X140941244Y-107176548D01*
X140904988Y-107211703D01*
X140863126Y-107247333D01*
X140814348Y-107284418D01*
X140757347Y-107323940D01*
X140690814Y-107366879D01*
X140613441Y-107414217D01*
X140523919Y-107466935D01*
X140420940Y-107526013D01*
X140390033Y-107543535D01*
X140225293Y-107640451D01*
X140076795Y-107735782D01*
X139943991Y-107830114D01*
X139826330Y-107924030D01*
X139723263Y-108018116D01*
X139634238Y-108112957D01*
X139558706Y-108209139D01*
X139496117Y-108307245D01*
X139445920Y-108407862D01*
X139407566Y-108511574D01*
X139380986Y-108616539D01*
X139373354Y-108667802D01*
X139368206Y-108729783D01*
X139365537Y-108798066D01*
X139365341Y-108868237D01*
X139367614Y-108935880D01*
X139372351Y-108996580D01*
X139379546Y-109045922D01*
X139381478Y-109054900D01*
X139415120Y-109163372D01*
X139463979Y-109267620D01*
X139526384Y-109364656D01*
X139600664Y-109451489D01*
X139606314Y-109457156D01*
X139669946Y-109512909D01*
X139733294Y-109553951D01*
X139795388Y-109579932D01*
X139855257Y-109590503D01*
X139911929Y-109585316D01*
X139938648Y-109576750D01*
X139991879Y-109551508D01*
X140035285Y-109521419D01*
X140075943Y-109481594D01*
X140104366Y-109446048D01*
X140125577Y-109409417D01*
X140139658Y-109369749D01*
X140146688Y-109325092D01*
X140146747Y-109273495D01*
X140139916Y-109213007D01*
X140126275Y-109141676D01*
X140105904Y-109057551D01*
X140095053Y-109016800D01*
X140073594Y-108936027D01*
X140057029Y-108868956D01*
X140044946Y-108813211D01*
X140036932Y-108766411D01*
X140032577Y-108726180D01*
X140031469Y-108690139D01*
X140032992Y-108658288D01*
X140046669Y-108591585D01*
X140076394Y-108522751D01*
X140121538Y-108452569D01*
X140181468Y-108381822D01*
X140255552Y-108311292D01*
X140343160Y-108241764D01*
X140401839Y-108200928D01*
X140427556Y-108184005D01*
X140452159Y-108168236D01*
X140477638Y-108152468D01*
X140505987Y-108135548D01*
X140539196Y-108116323D01*
X140579257Y-108093641D01*
X140628162Y-108066349D01*
X140687903Y-108033295D01*
X140760471Y-107993326D01*
X140762567Y-107992174D01*
X140908364Y-107907424D01*
X141039438Y-107821372D01*
X141157995Y-107732371D01*
X141266242Y-107638775D01*
X141358060Y-107547785D01*
X141415658Y-107484701D01*
X141464031Y-107425974D01*
X141504439Y-107368896D01*
X141538141Y-107310758D01*
X141566398Y-107248849D01*
X141590467Y-107180462D01*
X141611609Y-107102887D01*
X141631084Y-107013415D01*
X141647346Y-106925533D01*
X141658988Y-106860014D01*
X141668643Y-106809159D01*
X141676928Y-106770899D01*
X141684458Y-106743168D01*
X141691851Y-106723896D01*
X141699723Y-106711015D01*
X141708691Y-106702458D01*
X141715067Y-106698420D01*
X141742289Y-106692502D01*
X141777762Y-106699090D01*
X141819915Y-106716892D01*
X141867183Y-106744616D01*
X141917995Y-106780972D01*
X141970784Y-106824667D01*
X142023982Y-106874412D01*
X142076021Y-106928913D01*
X142125332Y-106986881D01*
X142170348Y-107047023D01*
X142206665Y-107103239D01*
X142258779Y-107206998D01*
X142297756Y-107319373D01*
X142323490Y-107438167D01*
X142335873Y-107561180D01*
X142334800Y-107686217D01*
X142320163Y-107811078D01*
X142291857Y-107933567D01*
X142252312Y-108045481D01*
X142205991Y-108140442D01*
X142148986Y-108231496D01*
X142083443Y-108316230D01*
X142011510Y-108392230D01*
X141935333Y-108457081D01*
X141857061Y-108508369D01*
X141826683Y-108524054D01*
X141792209Y-108539309D01*
X141762565Y-108548821D01*
X141730607Y-108554305D01*
X141689190Y-108557477D01*
X141686983Y-108557593D01*
X141600961Y-108557452D01*
X141526187Y-108546912D01*
X141460000Y-108525229D01*
X141399735Y-108491658D01*
X141369241Y-108468755D01*
X141327058Y-108428042D01*
X141291365Y-108379293D01*
X141259818Y-108318995D01*
X141243940Y-108281060D01*
X141216960Y-108220852D01*
X141188892Y-108176683D01*
X141158623Y-108147661D01*
X141125041Y-108132892D01*
X141087031Y-108131482D01*
X141063396Y-108136195D01*
X141023723Y-108154503D01*
X140983561Y-108186615D01*
X140945011Y-108229602D01*
X140910176Y-108280534D01*
X140881155Y-108336482D01*
X140860051Y-108394517D01*
X140851672Y-108431382D01*
X140846681Y-108482446D01*
X140846396Y-108543068D01*
X140850350Y-108607826D01*
X140858071Y-108671294D01*
X140869092Y-108728048D01*
X140880729Y-108767033D01*
X140925638Y-108863268D01*
X140983947Y-108950451D01*
X141054226Y-109027699D01*
X141135043Y-109094132D01*
X141224969Y-109148868D01*
X141322573Y-109191026D01*
X141426424Y-109219726D01*
X141535091Y-109234086D01*
X141638669Y-109233836D01*
X141758865Y-109217541D01*
X141880961Y-109184728D01*
X142004382Y-109135633D01*
X142128555Y-109070491D01*
X142252904Y-108989536D01*
X142273971Y-108974254D01*
X142314977Y-108941549D01*
X142363186Y-108899080D01*
X142415335Y-108850093D01*
X142468162Y-108797838D01*
X142518404Y-108745562D01*
X142562799Y-108696513D01*
X142598084Y-108653939D01*
X142605412Y-108644266D01*
X142695074Y-108508774D01*
X142771406Y-108363615D01*
X142834061Y-108209996D01*
X142882691Y-108049121D01*
X142916949Y-107882196D01*
X142936486Y-107710427D01*
X142940957Y-107535019D01*
X142939463Y-107485456D01*
X142935718Y-107411825D01*
X142930731Y-107345300D01*
X142923950Y-107282755D01*
X142914825Y-107221066D01*
X142902801Y-107157107D01*
X142887329Y-107087752D01*
X142867856Y-107009877D01*
X142843829Y-106920354D01*
X142832369Y-106878966D01*
X142809603Y-106795821D01*
X142791895Y-106727210D01*
X142779082Y-106671561D01*
X142771000Y-106627300D01*
X142767487Y-106592854D01*
X142768379Y-106566650D01*
X142773511Y-106547113D01*
X142782722Y-106532672D01*
X142795297Y-106522109D01*
X142816541Y-106513997D01*
X142847158Y-106512066D01*
X142888487Y-106516501D01*
X142941866Y-106527484D01*
X143008632Y-106545201D01*
X143048567Y-106556979D01*
X143149153Y-106585524D01*
X143256686Y-106612649D01*
X143365160Y-106636985D01*
X143468566Y-106657164D01*
X143539633Y-106668814D01*
X143613025Y-106677133D01*
X143696852Y-106682461D01*
X143786662Y-106684831D01*
X143878001Y-106684278D01*
X143966417Y-106680834D01*
X144047456Y-106674534D01*
X144116665Y-106665411D01*
X144122421Y-106664406D01*
X144254539Y-106636713D01*
X144383797Y-106601801D01*
X144506905Y-106560791D01*
X144620575Y-106514801D01*
X144721517Y-106464953D01*
X144741900Y-106453458D01*
X144873377Y-106368244D01*
X144995719Y-106270541D01*
X145107708Y-106161792D01*
X145208126Y-106043441D01*
X145295755Y-105916932D01*
X145369376Y-105783709D01*
X145427772Y-105645216D01*
X145430676Y-105637023D01*
X145463289Y-105521504D01*
X145480473Y-105406277D01*
X145482480Y-105292743D01*
X145469563Y-105182306D01*
X145441976Y-105076367D01*
X145399971Y-104976331D01*
X145343801Y-104883600D01*
X145281097Y-104807282D01*
X145200054Y-104732803D01*
X145111991Y-104673464D01*
X145017596Y-104629568D01*
X144917556Y-104601420D01*
X144812558Y-104589324D01*
X144787705Y-104588844D01*
X144712656Y-104594110D01*
X144641101Y-104609353D01*
X144574904Y-104633346D01*
X144515932Y-104664864D01*
X144466049Y-104702678D01*
X144427121Y-104745564D01*
X144401014Y-104792293D01*
X144389592Y-104841639D01*
X144389239Y-104850874D01*
X144394099Y-104897057D01*
X144410496Y-104931783D01*
X144439928Y-104957036D01*
X144482593Y-104974428D01*
X144555205Y-105001618D01*
X144622979Y-105038919D01*
X144682775Y-105084021D01*
X144731455Y-105134615D01*
X144761438Y-105179625D01*
X144791667Y-105253032D01*
X144808864Y-105332894D01*
X144812970Y-105415388D01*
X144803926Y-105496691D01*
X144781674Y-105572980D01*
X144767932Y-105603486D01*
X144726966Y-105669626D01*
X144671709Y-105736501D01*
X144604598Y-105802206D01*
X144528069Y-105864839D01*
X144444558Y-105922497D01*
X144356500Y-105973277D01*
X144266334Y-106015275D01*
X144216967Y-106033859D01*
X144134203Y-106056856D01*
X144040745Y-106073635D01*
X143941800Y-106083804D01*
X143842574Y-106086966D01*
X143748274Y-106082728D01*
X143683109Y-106074316D01*
X143558559Y-106044066D01*
X143438577Y-105997776D01*
X143324134Y-105935953D01*
X143216200Y-105859106D01*
X143137271Y-105789173D01*
X143092352Y-105742637D01*
X143049964Y-105693236D01*
X143021890Y-105656612D01*
X141008469Y-105656612D01*
X141006733Y-105719805D01*
X140998504Y-105779726D01*
X140988158Y-105818654D01*
X140952959Y-105896313D01*
X140904376Y-105965361D01*
X140844282Y-106024037D01*
X140774546Y-106070578D01*
X140697040Y-106103222D01*
X140681182Y-106107818D01*
X140631796Y-106116616D01*
X140573783Y-106120095D01*
X140514596Y-106118243D01*
X140461689Y-106111044D01*
X140449652Y-106108235D01*
X140371390Y-106079330D01*
X140300718Y-106036009D01*
X140238986Y-105979600D01*
X140187541Y-105911427D01*
X140147732Y-105832817D01*
X140135603Y-105799466D01*
X140124433Y-105747007D01*
X140120413Y-105680563D01*
X140120402Y-105676699D01*
X140128398Y-105591874D01*
X140151586Y-105511626D01*
X140188773Y-105437910D01*
X140238763Y-105372678D01*
X140300360Y-105317884D01*
X140363200Y-105279861D01*
X140417010Y-105256011D01*
X140465492Y-105241350D01*
X140516214Y-105234090D01*
X140563938Y-105232406D01*
X140650001Y-105240165D01*
X140730572Y-105263310D01*
X140804207Y-105300786D01*
X140869460Y-105351535D01*
X140924889Y-105414503D01*
X140969047Y-105488632D01*
X140992100Y-105545466D01*
X141003621Y-105596410D01*
X141008469Y-105656612D01*
X143021890Y-105656612D01*
X143011774Y-105643416D01*
X142979448Y-105595624D01*
X142954655Y-105552308D01*
X142939060Y-105515915D01*
X142934267Y-105491130D01*
X142939602Y-105470477D01*
X142956388Y-105452809D01*
X142985793Y-105437631D01*
X143028986Y-105424443D01*
X143087138Y-105412749D01*
X143135734Y-105405408D01*
X143250395Y-105387220D01*
X143350943Y-105365493D01*
X143440006Y-105339241D01*
X143520211Y-105307477D01*
X143594185Y-105269215D01*
X143664556Y-105223469D01*
X143707930Y-105190594D01*
X143749415Y-105154918D01*
X143797835Y-105109085D01*
X143849974Y-105056493D01*
X143902614Y-105000537D01*
X143952538Y-104944614D01*
X143996529Y-104892119D01*
X144022914Y-104858093D01*
X144057190Y-104810877D01*
X144089950Y-104763510D01*
X144122662Y-104713618D01*
X144156798Y-104658826D01*
X144193826Y-104596757D01*
X144235217Y-104525037D01*
X144282442Y-104441289D01*
X144297019Y-104415166D01*
X144350452Y-104320507D01*
X144398042Y-104239274D01*
X144441160Y-104169575D01*
X144481175Y-104109516D01*
X144519459Y-104057204D01*
X144557381Y-104010745D01*
X144596313Y-103968247D01*
X144637624Y-103927816D01*
X144672578Y-103896324D01*
X144733319Y-103848768D01*
X144793387Y-103813961D01*
X144855168Y-103791497D01*
X144921049Y-103780971D01*
X144993417Y-103781977D01*
X145074660Y-103794109D01*
X145156767Y-103814048D01*
X145231057Y-103834521D01*
X145291427Y-103850867D01*
X145340242Y-103863591D01*
X145379869Y-103873201D01*
X145412673Y-103880201D01*
X145441022Y-103885099D01*
X145467282Y-103888400D01*
X145493818Y-103890611D01*
X145522144Y-103892195D01*
X145564652Y-103893930D01*
X145594677Y-103893956D01*
X145616627Y-103891784D01*
X145634909Y-103886924D01*
X145653929Y-103878886D01*
X145657611Y-103877141D01*
X145698754Y-103851493D01*
X145740469Y-103815343D01*
X145778368Y-103773364D01*
X145808066Y-103730230D01*
X145821295Y-103702736D01*
X145836349Y-103639826D01*
X145834977Y-103575585D01*
X145817552Y-103510819D01*
X145784445Y-103446331D01*
X145736028Y-103382923D01*
X145672675Y-103321399D01*
X145628242Y-103286162D01*
X145524168Y-103219095D01*
X145414847Y-103167974D01*
X145299870Y-103132677D01*
X145178831Y-103113084D01*
X145051324Y-103109076D01*
X145030288Y-103109874D01*
X144901920Y-103122506D01*
X144781346Y-103148342D01*
X144667103Y-103188055D01*
X144557730Y-103242318D01*
X144451767Y-103311804D01*
X144347752Y-103397187D01*
X144292189Y-103449832D01*
X144236780Y-103506699D01*
X144183351Y-103565818D01*
X144130871Y-103628667D01*
X144078306Y-103696725D01*
X144024624Y-103771472D01*
X143968794Y-103854387D01*
X143909783Y-103946948D01*
X143846558Y-104050635D01*
X143778088Y-104166927D01*
X143714746Y-104277225D01*
X143664865Y-104363434D01*
X143620726Y-104436345D01*
X143580935Y-104498016D01*
X143544097Y-104550502D01*
X143508816Y-104595861D01*
X143473696Y-104636150D01*
X143464861Y-104645583D01*
X143395719Y-104712961D01*
X143329264Y-104765984D01*
X143262922Y-104806393D01*
X143194115Y-104835928D01*
X143172688Y-104842904D01*
X143097827Y-104857511D01*
X143016263Y-104858826D01*
X142931237Y-104847264D01*
X142845993Y-104823235D01*
X142773238Y-104792039D01*
X142730006Y-104767468D01*
X142692402Y-104740925D01*
X142663737Y-104715051D01*
X142647322Y-104692486D01*
X142646738Y-104691148D01*
X142641861Y-104675758D01*
X142641607Y-104661455D01*
X142647299Y-104647163D01*
X142660258Y-104631806D01*
X142681807Y-104614310D01*
X142713267Y-104593597D01*
X142755962Y-104568594D01*
X142811211Y-104538223D01*
X142879234Y-104501994D01*
X142976390Y-104449859D01*
X143060567Y-104402573D01*
X143134327Y-104358262D01*
X143155332Y-104344491D01*
X142361912Y-104344491D01*
X142358706Y-104375914D01*
X142340379Y-104453049D01*
X142308233Y-104526863D01*
X142264359Y-104593937D01*
X142210844Y-104650851D01*
X142172900Y-104680098D01*
X142093743Y-104723633D01*
X142011821Y-104750514D01*
X141927558Y-104760675D01*
X141841379Y-104754054D01*
X141779478Y-104739197D01*
X141704508Y-104707645D01*
X141637378Y-104662410D01*
X141579524Y-104605487D01*
X141532384Y-104538869D01*
X141497394Y-104464550D01*
X141475991Y-104384524D01*
X141469533Y-104309132D01*
X141473639Y-104264387D01*
X141484684Y-104211978D01*
X141500763Y-104158683D01*
X141519970Y-104111278D01*
X141531072Y-104090346D01*
X141581319Y-104022053D01*
X141642783Y-103964709D01*
X141713176Y-103919628D01*
X141790207Y-103888123D01*
X141871587Y-103871509D01*
X141916567Y-103869191D01*
X142000379Y-103877350D01*
X142078803Y-103900332D01*
X142150470Y-103936570D01*
X142214012Y-103984494D01*
X142268058Y-104042535D01*
X142311241Y-104109125D01*
X142342190Y-104182693D01*
X142359537Y-104261672D01*
X142361912Y-104344491D01*
X143155332Y-104344491D01*
X143200233Y-104315054D01*
X143260848Y-104271079D01*
X143318735Y-104224463D01*
X143376458Y-104173335D01*
X143436579Y-104115822D01*
X143501661Y-104050053D01*
X143510486Y-104040938D01*
X143621445Y-103918904D01*
X143716255Y-103798978D01*
X143795436Y-103680282D01*
X143859508Y-103561938D01*
X143908991Y-103443068D01*
X143944402Y-103322791D01*
X143950038Y-103297566D01*
X143961804Y-103226129D01*
X143969828Y-103143844D01*
X143973866Y-103056432D01*
X143973674Y-102969611D01*
X143969010Y-102889103D01*
X143967911Y-102877946D01*
X143947234Y-102733663D01*
X143915613Y-102594688D01*
X143872500Y-102460193D01*
X143817347Y-102329351D01*
X143749607Y-102201335D01*
X143668732Y-102075317D01*
X143574174Y-101950470D01*
X143465384Y-101825966D01*
X143341817Y-101700979D01*
X143202922Y-101574680D01*
X143048153Y-101446243D01*
X142989300Y-101399986D01*
X142948695Y-101368899D01*
X142904400Y-101335828D01*
X142855018Y-101299781D01*
X142799151Y-101259772D01*
X142735402Y-101214809D01*
X142662373Y-101163904D01*
X142578667Y-101106068D01*
X142482888Y-101040310D01*
X142434734Y-101007365D01*
X142328109Y-100933497D01*
X142235083Y-100866762D01*
X142154458Y-100806053D01*
X142085040Y-100750266D01*
X142025633Y-100698294D01*
X141975039Y-100649033D01*
X141932063Y-100601375D01*
X141895509Y-100554216D01*
X141864181Y-100506450D01*
X141836883Y-100456971D01*
X141834744Y-100452718D01*
X141808914Y-100396351D01*
X141792654Y-100348146D01*
X141784771Y-100303197D01*
X141784069Y-100256597D01*
X141784657Y-100247040D01*
X141788964Y-100211915D01*
X141797569Y-100179347D01*
X141812092Y-100145783D01*
X141834154Y-100107668D01*
X141865373Y-100061448D01*
X141876122Y-100046366D01*
X141909976Y-99997643D01*
X141933440Y-99958812D01*
X141947184Y-99926944D01*
X141951878Y-99899108D01*
X141948193Y-99872376D01*
X141936799Y-99843818D01*
X141926770Y-99824995D01*
X141914622Y-99805309D01*
X141894301Y-99774467D01*
X141867561Y-99735035D01*
X141836150Y-99689580D01*
X141801821Y-99640666D01*
X141780720Y-99610963D01*
X141717818Y-99521540D01*
X141663989Y-99441972D01*
X141617348Y-99369210D01*
X141576009Y-99300202D01*
X141538084Y-99231896D01*
X141501688Y-99161241D01*
X141497666Y-99153133D01*
X141447726Y-99044782D01*
X141408941Y-98942811D01*
X141380037Y-98842327D01*
X141359746Y-98738439D01*
X141346795Y-98626255D01*
X141342082Y-98554176D01*
X141338012Y-98485062D01*
X141333028Y-98431073D01*
X141326361Y-98390401D01*
X141317237Y-98361236D01*
X141304884Y-98341773D01*
X141288532Y-98330201D01*
X141267408Y-98324713D01*
X141243607Y-98323482D01*
X141200790Y-98330285D01*
D11*
X123053800Y-92684600D02*
X123053800Y-94014600D01*
X123053800Y-94014600D02*
X124383800Y-94014600D01*
X123053800Y-91414600D02*
X125653800Y-91414600D01*
X125653800Y-91414600D02*
X125653800Y-94014600D01*
X125653800Y-94014600D02*
X173973800Y-94014600D01*
X173973800Y-88814600D02*
X173973800Y-94014600D01*
X123053800Y-88814600D02*
X173973800Y-88814600D01*
X123053800Y-88814600D02*
X123053800Y-91414600D01*
X140275000Y-113100000D02*
X140575000Y-112800000D01*
X139975000Y-112800000D02*
X140575000Y-112800000D01*
X140275000Y-113100000D02*
X139975000Y-112800000D01*
X139525000Y-113300000D02*
X139525000Y-115300000D01*
X143625000Y-113300000D02*
X139525000Y-113300000D01*
X143625000Y-115300000D02*
X143625000Y-113300000D01*
X139525000Y-115300000D02*
X143625000Y-115300000D01*
X133586000Y-115300000D02*
X137686000Y-115300000D01*
X137686000Y-115300000D02*
X137686000Y-113300000D01*
X137686000Y-113300000D02*
X133586000Y-113300000D01*
X133586000Y-113300000D02*
X133586000Y-115300000D01*
X134336000Y-113100000D02*
X134036000Y-112800000D01*
X134036000Y-112800000D02*
X134636000Y-112800000D01*
X134336000Y-113100000D02*
X134636000Y-112800000D01*
X127714500Y-96201000D02*
X127714500Y-97601000D01*
X128414500Y-98301000D02*
X129014500Y-98301000D01*
X129714500Y-97601000D02*
X129714500Y-96201000D01*
X129014500Y-95501000D02*
X128414500Y-95501000D01*
X127714500Y-97601000D02*
G75*
G03*
X128414500Y-98301000I700000J0D01*
G01*
X129014500Y-98301000D02*
G75*
G03*
X129714500Y-97601000I0J700000D01*
G01*
X129714500Y-96201000D02*
G75*
G03*
X129014500Y-95501000I-700000J0D01*
G01*
X128414500Y-95501000D02*
G75*
G03*
X127714500Y-96201000I0J-700000D01*
G01*
X126474500Y-102867000D02*
X125874500Y-102867000D01*
X127174500Y-104967000D02*
X127174500Y-103567000D01*
X125874500Y-105667000D02*
X126474500Y-105667000D01*
X125174500Y-103567000D02*
X125174500Y-104967000D01*
X125174500Y-104967000D02*
G75*
G03*
X125874500Y-105667000I700000J0D01*
G01*
X126474500Y-105667000D02*
G75*
G03*
X127174500Y-104967000I0J700000D01*
G01*
X127174500Y-103567000D02*
G75*
G03*
X126474500Y-102867000I-700000J0D01*
G01*
X125874500Y-102867000D02*
G75*
G03*
X125174500Y-103567000I0J-700000D01*
G01*
X127714500Y-103630500D02*
X127714500Y-105030500D01*
X128414500Y-105730500D02*
X129014500Y-105730500D01*
X129714500Y-105030500D02*
X129714500Y-103630500D01*
X129014500Y-102930500D02*
X128414500Y-102930500D01*
X128414500Y-102930500D02*
G75*
G03*
X127714500Y-103630500I0J-700000D01*
G01*
X129714500Y-103630500D02*
G75*
G03*
X129014500Y-102930500I-700000J0D01*
G01*
X129014500Y-105730500D02*
G75*
G03*
X129714500Y-105030500I0J700000D01*
G01*
X127714500Y-105030500D02*
G75*
G03*
X128414500Y-105730500I700000J0D01*
G01*
M02*
