G04 #@! TF.GenerationSoftware,KiCad,Pcbnew,5.1.9+dfsg1-1*
G04 #@! TF.CreationDate,2021-11-09T12:22:31+01:00*
G04 #@! TF.ProjectId,Raspberry Pi Zero W,52617370-6265-4727-9279-205069205a65,1.0.8*
G04 #@! TF.SameCoordinates,Original*
G04 #@! TF.FileFunction,Legend,Top*
G04 #@! TF.FilePolarity,Positive*
%FSLAX46Y46*%
G04 Gerber Fmt 4.6, Leading zero omitted, Abs format (unit mm)*
G04 Created by KiCad (PCBNEW 5.1.9+dfsg1-1) date 2021-11-09 12:22:31*
%MOMM*%
%LPD*%
G01*
G04 APERTURE LIST*
%ADD10C,0.100000*%
%ADD11C,0.150000*%
%ADD12C,0.200000*%
%ADD13C,0.300000*%
%ADD14C,0.400000*%
%ADD15C,0.250000*%
%ADD16C,0.120000*%
%ADD17C,0.010000*%
G04 APERTURE END LIST*
D10*
X126396714Y-96192571D02*
X125825285Y-96192571D01*
X126111000Y-96478285D02*
X126111000Y-95906857D01*
D11*
X160642761Y-97986904D02*
X160642761Y-98558333D01*
X160604666Y-98672619D01*
X160528476Y-98748809D01*
X160414190Y-98786904D01*
X160338000Y-98786904D01*
X161404666Y-98786904D02*
X161023714Y-98786904D01*
X161023714Y-97986904D01*
X162128476Y-98710714D02*
X162090380Y-98748809D01*
X161976095Y-98786904D01*
X161899904Y-98786904D01*
X161785619Y-98748809D01*
X161709428Y-98672619D01*
X161671333Y-98596428D01*
X161633238Y-98444047D01*
X161633238Y-98329761D01*
X161671333Y-98177380D01*
X161709428Y-98101190D01*
X161785619Y-98025000D01*
X161899904Y-97986904D01*
X161976095Y-97986904D01*
X162090380Y-98025000D01*
X162128476Y-98063095D01*
X162699904Y-97986904D02*
X162699904Y-98558333D01*
X162661809Y-98672619D01*
X162585619Y-98748809D01*
X162471333Y-98786904D01*
X162395142Y-98786904D01*
X163461809Y-98786904D02*
X163080857Y-98786904D01*
X163080857Y-97986904D01*
X164185619Y-98710714D02*
X164147523Y-98748809D01*
X164033238Y-98786904D01*
X163957047Y-98786904D01*
X163842761Y-98748809D01*
X163766571Y-98672619D01*
X163728476Y-98596428D01*
X163690380Y-98444047D01*
X163690380Y-98329761D01*
X163728476Y-98177380D01*
X163766571Y-98101190D01*
X163842761Y-98025000D01*
X163957047Y-97986904D01*
X164033238Y-97986904D01*
X164147523Y-98025000D01*
X164185619Y-98063095D01*
X164757047Y-97986904D02*
X164757047Y-98558333D01*
X164718952Y-98672619D01*
X164642761Y-98748809D01*
X164528476Y-98786904D01*
X164452285Y-98786904D01*
X165518952Y-98786904D02*
X165138000Y-98786904D01*
X165138000Y-97986904D01*
X166242761Y-98710714D02*
X166204666Y-98748809D01*
X166090380Y-98786904D01*
X166014190Y-98786904D01*
X165899904Y-98748809D01*
X165823714Y-98672619D01*
X165785619Y-98596428D01*
X165747523Y-98444047D01*
X165747523Y-98329761D01*
X165785619Y-98177380D01*
X165823714Y-98101190D01*
X165899904Y-98025000D01*
X166014190Y-97986904D01*
X166090380Y-97986904D01*
X166204666Y-98025000D01*
X166242761Y-98063095D01*
X166814190Y-97986904D02*
X166814190Y-98558333D01*
X166776095Y-98672619D01*
X166699904Y-98748809D01*
X166585619Y-98786904D01*
X166509428Y-98786904D01*
X167576095Y-98786904D02*
X167195142Y-98786904D01*
X167195142Y-97986904D01*
X168299904Y-98710714D02*
X168261809Y-98748809D01*
X168147523Y-98786904D01*
X168071333Y-98786904D01*
X167957047Y-98748809D01*
X167880857Y-98672619D01*
X167842761Y-98596428D01*
X167804666Y-98444047D01*
X167804666Y-98329761D01*
X167842761Y-98177380D01*
X167880857Y-98101190D01*
X167957047Y-98025000D01*
X168071333Y-97986904D01*
X168147523Y-97986904D01*
X168261809Y-98025000D01*
X168299904Y-98063095D01*
D12*
X134112000Y-97385142D02*
X134064380Y-97432761D01*
X134112000Y-97480380D01*
X134159619Y-97432761D01*
X134112000Y-97385142D01*
X134112000Y-97480380D01*
D10*
X123039261Y-115073880D02*
X123110690Y-115097690D01*
X123229738Y-115097690D01*
X123277357Y-115073880D01*
X123301166Y-115050071D01*
X123324976Y-115002452D01*
X123324976Y-114954833D01*
X123301166Y-114907214D01*
X123277357Y-114883404D01*
X123229738Y-114859595D01*
X123134500Y-114835785D01*
X123086880Y-114811976D01*
X123063071Y-114788166D01*
X123039261Y-114740547D01*
X123039261Y-114692928D01*
X123063071Y-114645309D01*
X123086880Y-114621500D01*
X123134500Y-114597690D01*
X123253547Y-114597690D01*
X123324976Y-114621500D01*
X123824976Y-115050071D02*
X123801166Y-115073880D01*
X123729738Y-115097690D01*
X123682119Y-115097690D01*
X123610690Y-115073880D01*
X123563071Y-115026261D01*
X123539261Y-114978642D01*
X123515452Y-114883404D01*
X123515452Y-114811976D01*
X123539261Y-114716738D01*
X123563071Y-114669119D01*
X123610690Y-114621500D01*
X123682119Y-114597690D01*
X123729738Y-114597690D01*
X123801166Y-114621500D01*
X123824976Y-114645309D01*
X124277357Y-115097690D02*
X124039261Y-115097690D01*
X124039261Y-114597690D01*
X123027357Y-112787880D02*
X123098785Y-112811690D01*
X123217833Y-112811690D01*
X123265452Y-112787880D01*
X123289261Y-112764071D01*
X123313071Y-112716452D01*
X123313071Y-112668833D01*
X123289261Y-112621214D01*
X123265452Y-112597404D01*
X123217833Y-112573595D01*
X123122595Y-112549785D01*
X123074976Y-112525976D01*
X123051166Y-112502166D01*
X123027357Y-112454547D01*
X123027357Y-112406928D01*
X123051166Y-112359309D01*
X123074976Y-112335500D01*
X123122595Y-112311690D01*
X123241642Y-112311690D01*
X123313071Y-112335500D01*
X123527357Y-112811690D02*
X123527357Y-112311690D01*
X123646404Y-112311690D01*
X123717833Y-112335500D01*
X123765452Y-112383119D01*
X123789261Y-112430738D01*
X123813071Y-112525976D01*
X123813071Y-112597404D01*
X123789261Y-112692642D01*
X123765452Y-112740261D01*
X123717833Y-112787880D01*
X123646404Y-112811690D01*
X123527357Y-112811690D01*
X124003547Y-112668833D02*
X124241642Y-112668833D01*
X123955928Y-112811690D02*
X124122595Y-112311690D01*
X124289261Y-112811690D01*
D11*
X172338952Y-111640928D02*
X171577047Y-111640928D01*
X171958000Y-112021880D02*
X171958000Y-111259976D01*
D12*
X160274000Y-102668342D02*
X160226380Y-102715961D01*
X160274000Y-102763580D01*
X160321619Y-102715961D01*
X160274000Y-102668342D01*
X160274000Y-102763580D01*
D13*
X142494000Y-94488000D02*
X142494000Y-105664000D01*
X126365000Y-106426000D02*
X141478000Y-106426000D01*
D14*
X131191000Y-116840000D02*
X153416000Y-116840000D01*
D12*
X140716000Y-97385142D02*
X140668380Y-97432761D01*
X140716000Y-97480380D01*
X140763619Y-97432761D01*
X140716000Y-97385142D01*
X140716000Y-97480380D01*
X146050000Y-109196142D02*
X146097619Y-109243761D01*
X146050000Y-109291380D01*
X146002380Y-109243761D01*
X146050000Y-109196142D01*
X146050000Y-109291380D01*
X145999200Y-102820742D02*
X146046819Y-102868361D01*
X145999200Y-102915980D01*
X145951580Y-102868361D01*
X145999200Y-102820742D01*
X145999200Y-102915980D01*
D10*
X156352952Y-108620714D02*
X156733904Y-108620714D01*
X156900571Y-108311190D02*
X157067238Y-108811190D01*
X157233904Y-108311190D01*
X157614857Y-108787380D02*
X157567238Y-108811190D01*
X157472000Y-108811190D01*
X157424380Y-108787380D01*
X157400571Y-108763571D01*
X157376761Y-108715952D01*
X157376761Y-108573095D01*
X157400571Y-108525476D01*
X157424380Y-108501666D01*
X157472000Y-108477857D01*
X157567238Y-108477857D01*
X157614857Y-108501666D01*
X171196047Y-115447000D02*
X171148428Y-115423190D01*
X171077000Y-115423190D01*
X171005571Y-115447000D01*
X170957952Y-115494619D01*
X170934142Y-115542238D01*
X170910333Y-115637476D01*
X170910333Y-115708904D01*
X170934142Y-115804142D01*
X170957952Y-115851761D01*
X171005571Y-115899380D01*
X171077000Y-115923190D01*
X171124619Y-115923190D01*
X171196047Y-115899380D01*
X171219857Y-115875571D01*
X171219857Y-115708904D01*
X171124619Y-115708904D01*
X171434142Y-115923190D02*
X171434142Y-115423190D01*
X171719857Y-115923190D01*
X171719857Y-115423190D01*
X171957952Y-115923190D02*
X171957952Y-115423190D01*
X172077000Y-115423190D01*
X172148428Y-115447000D01*
X172196047Y-115494619D01*
X172219857Y-115542238D01*
X172243666Y-115637476D01*
X172243666Y-115708904D01*
X172219857Y-115804142D01*
X172196047Y-115851761D01*
X172148428Y-115899380D01*
X172077000Y-115923190D01*
X171957952Y-115923190D01*
X170981761Y-113438809D02*
X171005571Y-113415000D01*
X171053190Y-113391190D01*
X171172238Y-113391190D01*
X171219857Y-113415000D01*
X171243666Y-113438809D01*
X171267476Y-113486428D01*
X171267476Y-113534047D01*
X171243666Y-113605476D01*
X170957952Y-113891190D01*
X171267476Y-113891190D01*
X171696047Y-113557857D02*
X171696047Y-113891190D01*
X171577000Y-113367380D02*
X171457952Y-113724523D01*
X171767476Y-113724523D01*
X171886523Y-113391190D02*
X172053190Y-113891190D01*
X172219857Y-113391190D01*
D11*
X126254000Y-99526285D02*
X126254000Y-98776285D01*
X126539714Y-98776285D01*
X126611142Y-98812000D01*
X126646857Y-98847714D01*
X126682571Y-98919142D01*
X126682571Y-99026285D01*
X126646857Y-99097714D01*
X126611142Y-99133428D01*
X126539714Y-99169142D01*
X126254000Y-99169142D01*
X126932571Y-98776285D02*
X127111142Y-99526285D01*
X127254000Y-98990571D01*
X127396857Y-99526285D01*
X127575428Y-98776285D01*
X128289714Y-99526285D02*
X128039714Y-99169142D01*
X127861142Y-99526285D02*
X127861142Y-98776285D01*
X128146857Y-98776285D01*
X128218285Y-98812000D01*
X128254000Y-98847714D01*
X128289714Y-98919142D01*
X128289714Y-99026285D01*
X128254000Y-99097714D01*
X128218285Y-99133428D01*
X128146857Y-99169142D01*
X127861142Y-99169142D01*
D13*
X158750000Y-116840000D02*
X172466000Y-116840000D01*
D11*
X154567142Y-117465000D02*
X154531428Y-117429285D01*
X154460000Y-117322142D01*
X154424285Y-117250714D01*
X154388571Y-117143571D01*
X154352857Y-116965000D01*
X154352857Y-116822142D01*
X154388571Y-116643571D01*
X154424285Y-116536428D01*
X154460000Y-116465000D01*
X154531428Y-116357857D01*
X154567142Y-116322142D01*
X154781428Y-116679285D02*
X154960000Y-117179285D01*
X155138571Y-116679285D01*
X155388571Y-116500714D02*
X155424285Y-116465000D01*
X155495714Y-116429285D01*
X155674285Y-116429285D01*
X155745714Y-116465000D01*
X155781428Y-116500714D01*
X155817142Y-116572142D01*
X155817142Y-116643571D01*
X155781428Y-116750714D01*
X155352857Y-117179285D01*
X155817142Y-117179285D01*
X156138571Y-117107857D02*
X156174285Y-117143571D01*
X156138571Y-117179285D01*
X156102857Y-117143571D01*
X156138571Y-117107857D01*
X156138571Y-117179285D01*
X156638571Y-116429285D02*
X156710000Y-116429285D01*
X156781428Y-116465000D01*
X156817142Y-116500714D01*
X156852857Y-116572142D01*
X156888571Y-116715000D01*
X156888571Y-116893571D01*
X156852857Y-117036428D01*
X156817142Y-117107857D01*
X156781428Y-117143571D01*
X156710000Y-117179285D01*
X156638571Y-117179285D01*
X156567142Y-117143571D01*
X156531428Y-117107857D01*
X156495714Y-117036428D01*
X156460000Y-116893571D01*
X156460000Y-116715000D01*
X156495714Y-116572142D01*
X156531428Y-116500714D01*
X156567142Y-116465000D01*
X156638571Y-116429285D01*
X157174285Y-116500714D02*
X157210000Y-116465000D01*
X157281428Y-116429285D01*
X157460000Y-116429285D01*
X157531428Y-116465000D01*
X157567142Y-116500714D01*
X157602857Y-116572142D01*
X157602857Y-116643571D01*
X157567142Y-116750714D01*
X157138571Y-117179285D01*
X157602857Y-117179285D01*
X157852857Y-117465000D02*
X157888571Y-117429285D01*
X157960000Y-117322142D01*
X157995714Y-117250714D01*
X158031428Y-117143571D01*
X158067142Y-116965000D01*
X158067142Y-116822142D01*
X158031428Y-116643571D01*
X157995714Y-116536428D01*
X157960000Y-116465000D01*
X157888571Y-116357857D01*
X157852857Y-116322142D01*
D12*
X163728400Y-110237542D02*
X163680780Y-110285161D01*
X163728400Y-110332780D01*
X163776019Y-110285161D01*
X163728400Y-110237542D01*
X163728400Y-110332780D01*
X129794000Y-100941142D02*
X129746380Y-100988761D01*
X129794000Y-101036380D01*
X129841619Y-100988761D01*
X129794000Y-100941142D01*
X129794000Y-101036380D01*
X140589000Y-110974142D02*
X140541380Y-111021761D01*
X140589000Y-111069380D01*
X140636619Y-111021761D01*
X140589000Y-110974142D01*
X140589000Y-111069380D01*
X131699000Y-110974142D02*
X131651380Y-111021761D01*
X131699000Y-111069380D01*
X131746619Y-111021761D01*
X131699000Y-110974142D01*
X131699000Y-111069380D01*
D10*
G36*
X167640000Y-101219000D02*
G01*
X167640000Y-99949000D01*
X170180000Y-99949000D01*
X167640000Y-101219000D01*
G37*
X167640000Y-101219000D02*
X167640000Y-99949000D01*
X170180000Y-99949000D01*
X167640000Y-101219000D01*
D15*
X121285000Y-95758000D02*
X123825000Y-95758000D01*
X121285000Y-101219000D02*
X123825000Y-101219000D01*
X121285000Y-104648000D02*
X123825000Y-104648000D01*
X121221500Y-110172500D02*
X123761500Y-110172500D01*
D10*
G36*
X160655000Y-101219000D02*
G01*
X158115000Y-99949000D01*
X160655000Y-99949000D01*
X160655000Y-101219000D01*
G37*
X160655000Y-101219000D02*
X158115000Y-99949000D01*
X160655000Y-99949000D01*
X160655000Y-101219000D01*
G36*
X153670000Y-101219000D02*
G01*
X153670000Y-99949000D01*
X156210000Y-99949000D01*
X153670000Y-101219000D01*
G37*
X153670000Y-101219000D02*
X153670000Y-99949000D01*
X156210000Y-99949000D01*
X153670000Y-101219000D01*
G36*
X146685000Y-101219000D02*
G01*
X144145000Y-99949000D01*
X146685000Y-99949000D01*
X146685000Y-101219000D01*
G37*
X146685000Y-101219000D02*
X144145000Y-99949000D01*
X146685000Y-99949000D01*
X146685000Y-101219000D01*
D13*
X146558000Y-94409034D02*
X146629428Y-94480462D01*
X146558000Y-94551891D01*
X146486571Y-94480462D01*
X146558000Y-94409034D01*
X146558000Y-94551891D01*
X160515300Y-94424274D02*
X160586728Y-94495702D01*
X160515300Y-94567131D01*
X160443871Y-94495702D01*
X160515300Y-94424274D01*
X160515300Y-94567131D01*
D12*
X170897604Y-94582842D02*
X171773795Y-94582842D01*
X171335700Y-95020938D02*
X171335700Y-94144747D01*
X161818952Y-99827238D02*
X162202285Y-100977238D01*
X162585619Y-99827238D01*
X162968952Y-100374857D02*
X163352285Y-100374857D01*
X163516571Y-100977238D02*
X162968952Y-100977238D01*
X162968952Y-99827238D01*
X163516571Y-99827238D01*
X163954666Y-100648666D02*
X164502285Y-100648666D01*
X163845142Y-100977238D02*
X164228476Y-99827238D01*
X164611809Y-100977238D01*
X165378476Y-100374857D02*
X165542761Y-100429619D01*
X165597523Y-100484380D01*
X165652285Y-100593904D01*
X165652285Y-100758190D01*
X165597523Y-100867714D01*
X165542761Y-100922476D01*
X165433238Y-100977238D01*
X164995142Y-100977238D01*
X164995142Y-99827238D01*
X165378476Y-99827238D01*
X165488000Y-99882000D01*
X165542761Y-99936761D01*
X165597523Y-100046285D01*
X165597523Y-100155809D01*
X165542761Y-100265333D01*
X165488000Y-100320095D01*
X165378476Y-100374857D01*
X164995142Y-100374857D01*
X166090380Y-99936761D02*
X166145142Y-99882000D01*
X166254666Y-99827238D01*
X166528476Y-99827238D01*
X166638000Y-99882000D01*
X166692761Y-99936761D01*
X166747523Y-100046285D01*
X166747523Y-100155809D01*
X166692761Y-100320095D01*
X166035619Y-100977238D01*
X166747523Y-100977238D01*
X147721952Y-99827238D02*
X148105285Y-100977238D01*
X148488619Y-99827238D01*
X148871952Y-100374857D02*
X149255285Y-100374857D01*
X149419571Y-100977238D02*
X148871952Y-100977238D01*
X148871952Y-99827238D01*
X149419571Y-99827238D01*
X149857666Y-100648666D02*
X150405285Y-100648666D01*
X149748142Y-100977238D02*
X150131476Y-99827238D01*
X150514809Y-100977238D01*
X151281476Y-100374857D02*
X151445761Y-100429619D01*
X151500523Y-100484380D01*
X151555285Y-100593904D01*
X151555285Y-100758190D01*
X151500523Y-100867714D01*
X151445761Y-100922476D01*
X151336238Y-100977238D01*
X150898142Y-100977238D01*
X150898142Y-99827238D01*
X151281476Y-99827238D01*
X151391000Y-99882000D01*
X151445761Y-99936761D01*
X151500523Y-100046285D01*
X151500523Y-100155809D01*
X151445761Y-100265333D01*
X151391000Y-100320095D01*
X151281476Y-100374857D01*
X150898142Y-100374857D01*
X152650523Y-100977238D02*
X151993380Y-100977238D01*
X152321952Y-100977238D02*
X152321952Y-99827238D01*
X152212428Y-99991523D01*
X152102904Y-100101047D01*
X151993380Y-100155809D01*
X123819761Y-108208666D02*
X123765000Y-108318190D01*
X123655476Y-108427714D01*
X123491190Y-108592000D01*
X123436428Y-108701523D01*
X123436428Y-108811047D01*
X123710238Y-108756285D02*
X123655476Y-108865809D01*
X123545952Y-108975333D01*
X123326904Y-109030095D01*
X122943571Y-109030095D01*
X122724523Y-108975333D01*
X122615000Y-108865809D01*
X122560238Y-108756285D01*
X122560238Y-108537238D01*
X122615000Y-108427714D01*
X122724523Y-108318190D01*
X122943571Y-108263428D01*
X123326904Y-108263428D01*
X123545952Y-108318190D01*
X123655476Y-108427714D01*
X123710238Y-108537238D01*
X123710238Y-108756285D01*
X122560238Y-107880095D02*
X123710238Y-107606285D01*
X122888809Y-107387238D01*
X123710238Y-107168190D01*
X122560238Y-106894380D01*
X122669761Y-106511047D02*
X122615000Y-106456285D01*
X122560238Y-106346761D01*
X122560238Y-106072952D01*
X122615000Y-105963428D01*
X122669761Y-105908666D01*
X122779285Y-105853904D01*
X122888809Y-105853904D01*
X123053095Y-105908666D01*
X123710238Y-106565809D01*
X123710238Y-105853904D01*
X123819761Y-99115466D02*
X123765000Y-99224990D01*
X123655476Y-99334514D01*
X123491190Y-99498800D01*
X123436428Y-99608323D01*
X123436428Y-99717847D01*
X123710238Y-99663085D02*
X123655476Y-99772609D01*
X123545952Y-99882133D01*
X123326904Y-99936895D01*
X122943571Y-99936895D01*
X122724523Y-99882133D01*
X122615000Y-99772609D01*
X122560238Y-99663085D01*
X122560238Y-99444038D01*
X122615000Y-99334514D01*
X122724523Y-99224990D01*
X122943571Y-99170228D01*
X123326904Y-99170228D01*
X123545952Y-99224990D01*
X123655476Y-99334514D01*
X123710238Y-99444038D01*
X123710238Y-99663085D01*
X122560238Y-98786895D02*
X123710238Y-98513085D01*
X122888809Y-98294038D01*
X123710238Y-98074990D01*
X122560238Y-97801180D01*
X123710238Y-96760704D02*
X123710238Y-97417847D01*
X123710238Y-97089276D02*
X122560238Y-97089276D01*
X122724523Y-97198800D01*
X122834047Y-97308323D01*
X122888809Y-97417847D01*
D16*
X172241000Y-108078000D02*
X172241000Y-111378000D01*
X172241000Y-111378000D02*
X175133000Y-111378000D01*
X172241000Y-108078000D02*
X175133000Y-108078000D01*
D11*
X130140000Y-108357000D02*
X126890000Y-108357000D01*
X130547000Y-111607000D02*
X126890000Y-111607000D01*
X139446000Y-111607000D02*
X135789000Y-111607000D01*
X139039000Y-108357000D02*
X135789000Y-108357000D01*
D16*
X171588000Y-99384000D02*
X174088000Y-99384000D01*
X171588000Y-96884000D02*
X171588000Y-99384000D01*
X178608000Y-97584000D02*
X178608000Y-99084000D01*
X179608000Y-97584000D02*
X178608000Y-97584000D01*
X172888000Y-97584000D02*
X172888000Y-99084000D01*
X171888000Y-97584000D02*
X172888000Y-97584000D01*
X179108000Y-96774000D02*
X179608000Y-96774000D01*
X179108000Y-95564000D02*
X179108000Y-96774000D01*
X172388000Y-95564000D02*
X179108000Y-95564000D01*
X172388000Y-96774000D02*
X172388000Y-95564000D01*
X171888000Y-96774000D02*
X172388000Y-96774000D01*
X179608000Y-95064000D02*
X171888000Y-95064000D01*
X179608000Y-99084000D02*
X179608000Y-95064000D01*
X171888000Y-99084000D02*
X179608000Y-99084000D01*
X171888000Y-95064000D02*
X171888000Y-99084000D01*
X157611000Y-99384000D02*
X160111000Y-99384000D01*
X157611000Y-96884000D02*
X157611000Y-99384000D01*
X169631000Y-97584000D02*
X169631000Y-99084000D01*
X170631000Y-97584000D02*
X169631000Y-97584000D01*
X158911000Y-97584000D02*
X158911000Y-99084000D01*
X157911000Y-97584000D02*
X158911000Y-97584000D01*
X170131000Y-96774000D02*
X170631000Y-96774000D01*
X170131000Y-95564000D02*
X170131000Y-96774000D01*
X158411000Y-95564000D02*
X170131000Y-95564000D01*
X158411000Y-96774000D02*
X158411000Y-95564000D01*
X157911000Y-96774000D02*
X158411000Y-96774000D01*
X170631000Y-95064000D02*
X157911000Y-95064000D01*
X170631000Y-99084000D02*
X170631000Y-95064000D01*
X157911000Y-99084000D02*
X170631000Y-99084000D01*
X157911000Y-95064000D02*
X157911000Y-99084000D01*
X143948000Y-95064000D02*
X143948000Y-99084000D01*
X143948000Y-99084000D02*
X156668000Y-99084000D01*
X156668000Y-99084000D02*
X156668000Y-95064000D01*
X156668000Y-95064000D02*
X143948000Y-95064000D01*
X143948000Y-96774000D02*
X144448000Y-96774000D01*
X144448000Y-96774000D02*
X144448000Y-95564000D01*
X144448000Y-95564000D02*
X156168000Y-95564000D01*
X156168000Y-95564000D02*
X156168000Y-96774000D01*
X156168000Y-96774000D02*
X156668000Y-96774000D01*
X143948000Y-97584000D02*
X144948000Y-97584000D01*
X144948000Y-97584000D02*
X144948000Y-99084000D01*
X156668000Y-97584000D02*
X155668000Y-97584000D01*
X155668000Y-97584000D02*
X155668000Y-99084000D01*
X143648000Y-96884000D02*
X143648000Y-99384000D01*
X143648000Y-99384000D02*
X146148000Y-99384000D01*
X133858000Y-105430000D02*
X135808000Y-105430000D01*
X133858000Y-105430000D02*
X131908000Y-105430000D01*
X133858000Y-100310000D02*
X135808000Y-100310000D01*
X133858000Y-100310000D02*
X130408000Y-100310000D01*
X164338000Y-102088000D02*
X160888000Y-102088000D01*
X164338000Y-102088000D02*
X166288000Y-102088000D01*
X164338000Y-107208000D02*
X162388000Y-107208000D01*
X164338000Y-107208000D02*
X166288000Y-107208000D01*
X150114000Y-107335000D02*
X152064000Y-107335000D01*
X150114000Y-107335000D02*
X148164000Y-107335000D01*
X150114000Y-102215000D02*
X152064000Y-102215000D01*
X150114000Y-102215000D02*
X146664000Y-102215000D01*
X150241000Y-113812000D02*
X152191000Y-113812000D01*
X150241000Y-113812000D02*
X148291000Y-113812000D01*
X150241000Y-108692000D02*
X152191000Y-108692000D01*
X150241000Y-108692000D02*
X146791000Y-108692000D01*
X139500000Y-94910000D02*
X137700000Y-94910000D01*
X137700000Y-98130000D02*
X140150000Y-98130000D01*
X131096000Y-98064000D02*
X133546000Y-98064000D01*
X132896000Y-94844000D02*
X131096000Y-94844000D01*
D17*
G36*
X156602605Y-109553642D02*
G01*
X156626318Y-109563895D01*
X156652711Y-109581227D01*
X156682162Y-109605866D01*
X156698379Y-109621219D01*
X156743655Y-109670802D01*
X156785455Y-109727001D01*
X156823057Y-109788427D01*
X156855743Y-109853690D01*
X156882793Y-109921401D01*
X156903485Y-109990170D01*
X156913459Y-110036281D01*
X156917428Y-110064858D01*
X156920348Y-110099478D01*
X156922178Y-110137777D01*
X156922881Y-110177389D01*
X156922416Y-110215952D01*
X156920745Y-110251101D01*
X156917829Y-110280472D01*
X156917531Y-110282566D01*
X156903921Y-110356388D01*
X156884855Y-110430716D01*
X156860952Y-110503885D01*
X156832826Y-110574229D01*
X156801095Y-110640082D01*
X156766375Y-110699778D01*
X156758969Y-110711066D01*
X156731985Y-110749638D01*
X156702886Y-110787819D01*
X156671245Y-110826002D01*
X156636631Y-110864579D01*
X156598616Y-110903940D01*
X156556770Y-110944477D01*
X156510665Y-110986581D01*
X156459871Y-111030645D01*
X156403959Y-111077059D01*
X156342500Y-111126214D01*
X156275066Y-111178503D01*
X156201226Y-111234317D01*
X156120552Y-111294047D01*
X156117278Y-111296449D01*
X156062635Y-111336737D01*
X156014375Y-111372797D01*
X155971862Y-111405141D01*
X155934462Y-111434277D01*
X155901538Y-111460716D01*
X155872456Y-111484968D01*
X155846582Y-111507544D01*
X155823280Y-111528953D01*
X155801914Y-111549706D01*
X155801350Y-111550270D01*
X155751974Y-111603179D01*
X155710640Y-111655211D01*
X155677054Y-111706955D01*
X155650919Y-111759002D01*
X155631940Y-111811940D01*
X155619821Y-111866361D01*
X155614267Y-111922854D01*
X155614239Y-111923545D01*
X155614579Y-111971398D01*
X155620039Y-112014577D01*
X155631209Y-112055196D01*
X155648679Y-112095371D01*
X155673042Y-112137215D01*
X155674588Y-112139598D01*
X155689537Y-112160302D01*
X155709121Y-112184190D01*
X155731677Y-112209504D01*
X155755543Y-112234489D01*
X155779056Y-112257388D01*
X155800553Y-112276445D01*
X155814183Y-112287039D01*
X155840896Y-112304152D01*
X155872930Y-112321653D01*
X155907351Y-112338058D01*
X155941223Y-112351884D01*
X155945417Y-112353409D01*
X155979283Y-112365528D01*
X155985526Y-112355922D01*
X155995411Y-112343112D01*
X156010060Y-112327031D01*
X156027519Y-112309564D01*
X156045835Y-112292599D01*
X156063056Y-112278019D01*
X156076225Y-112268351D01*
X156093517Y-112258492D01*
X156114551Y-112248417D01*
X156134925Y-112240225D01*
X156135917Y-112239879D01*
X156151644Y-112234768D01*
X156165340Y-112231384D01*
X156179559Y-112229382D01*
X156196854Y-112228416D01*
X156219781Y-112228141D01*
X156222700Y-112228138D01*
X156245937Y-112228310D01*
X156263374Y-112229106D01*
X156277675Y-112230918D01*
X156291503Y-112234136D01*
X156307522Y-112239154D01*
X156315016Y-112241709D01*
X156332242Y-112247512D01*
X156346572Y-112252079D01*
X156356055Y-112254803D01*
X156358620Y-112255300D01*
X156363159Y-112252634D01*
X156372717Y-112245319D01*
X156386029Y-112234375D01*
X156401828Y-112220825D01*
X156407162Y-112216141D01*
X156451500Y-112176983D01*
X156449815Y-112134650D01*
X156450761Y-112064969D01*
X156459103Y-111992928D01*
X156474909Y-111918191D01*
X156498247Y-111840420D01*
X156521098Y-111778990D01*
X156555884Y-111699795D01*
X156596059Y-111622486D01*
X156642086Y-111546398D01*
X156694428Y-111470864D01*
X156753549Y-111395218D01*
X156819911Y-111318793D01*
X156893977Y-111240925D01*
X156897917Y-111236955D01*
X156981569Y-111156064D01*
X157070743Y-111076145D01*
X157165866Y-110996870D01*
X157267369Y-110917913D01*
X157375682Y-110838946D01*
X157491233Y-110759642D01*
X157614453Y-110679676D01*
X157699905Y-110626548D01*
X157726119Y-110610471D01*
X157749992Y-110595751D01*
X157770562Y-110582989D01*
X157786866Y-110572783D01*
X157797941Y-110565735D01*
X157802825Y-110562443D01*
X157802919Y-110562361D01*
X157801047Y-110558854D01*
X157793364Y-110551944D01*
X157781213Y-110542754D01*
X157771169Y-110535833D01*
X157731798Y-110508045D01*
X157695368Y-110479260D01*
X157663757Y-110451018D01*
X157646976Y-110433999D01*
X157607128Y-110386682D01*
X157574062Y-110338337D01*
X157547855Y-110289484D01*
X157528583Y-110240643D01*
X157516322Y-110192336D01*
X157511149Y-110145082D01*
X157513140Y-110099404D01*
X157522372Y-110055822D01*
X157538920Y-110014856D01*
X157562862Y-109977027D01*
X157577412Y-109959689D01*
X157615668Y-109924091D01*
X157660865Y-109893123D01*
X157712830Y-109866823D01*
X157771391Y-109845229D01*
X157836374Y-109828379D01*
X157907607Y-109816310D01*
X157984918Y-109809060D01*
X158068134Y-109806668D01*
X158157083Y-109809170D01*
X158236887Y-109815157D01*
X158307259Y-109823221D01*
X158379201Y-109834269D01*
X158453444Y-109848488D01*
X158530718Y-109866065D01*
X158611754Y-109887188D01*
X158697282Y-109912044D01*
X158788033Y-109940820D01*
X158884738Y-109973704D01*
X158959204Y-110000299D01*
X159056225Y-110035577D01*
X159107371Y-110023679D01*
X159174982Y-110009093D01*
X159236331Y-109998229D01*
X159291190Y-109991105D01*
X159339330Y-109987740D01*
X159380524Y-109988152D01*
X159414545Y-109992359D01*
X159433078Y-109997265D01*
X159448776Y-110004397D01*
X159460690Y-110014408D01*
X159469243Y-110028346D01*
X159474856Y-110047259D01*
X159477950Y-110072194D01*
X159478950Y-110104199D01*
X159478938Y-110111116D01*
X159476944Y-110155716D01*
X159471507Y-110207232D01*
X159462732Y-110264893D01*
X159450724Y-110327928D01*
X159446647Y-110347127D01*
X159432174Y-110413804D01*
X159459681Y-110488944D01*
X159500091Y-110602680D01*
X159535904Y-110710534D01*
X159567078Y-110812345D01*
X159593567Y-110907952D01*
X159615329Y-110997192D01*
X159632320Y-111079904D01*
X159644495Y-111155926D01*
X159648225Y-111186383D01*
X159649859Y-111206020D01*
X159651222Y-111231974D01*
X159652315Y-111263025D01*
X159653138Y-111297950D01*
X159653690Y-111335531D01*
X159653972Y-111374546D01*
X159653985Y-111413775D01*
X159653727Y-111451998D01*
X159653199Y-111487994D01*
X159652401Y-111520542D01*
X159651334Y-111548422D01*
X159649996Y-111570413D01*
X159648389Y-111585295D01*
X159648198Y-111586433D01*
X159633889Y-111653772D01*
X159616003Y-111713803D01*
X159594336Y-111766985D01*
X159568682Y-111813778D01*
X159538836Y-111854640D01*
X159518378Y-111876956D01*
X159499566Y-111894940D01*
X159483209Y-111908278D01*
X159466549Y-111918995D01*
X159448262Y-111928433D01*
X159421565Y-111940109D01*
X159397380Y-111947904D01*
X159372654Y-111952476D01*
X159344329Y-111954483D01*
X159326202Y-111954733D01*
X159275963Y-111950582D01*
X159225383Y-111938368D01*
X159175006Y-111918448D01*
X159125380Y-111891178D01*
X159077050Y-111856915D01*
X159030562Y-111816015D01*
X158986462Y-111768836D01*
X158945296Y-111715734D01*
X158932979Y-111697769D01*
X158922870Y-111683232D01*
X158914279Y-111672085D01*
X158908347Y-111665740D01*
X158906444Y-111664866D01*
X158903351Y-111668946D01*
X158896597Y-111679175D01*
X158886883Y-111694449D01*
X158874910Y-111713660D01*
X158861380Y-111735701D01*
X158857534Y-111742023D01*
X158784048Y-111860372D01*
X158711794Y-111971249D01*
X158640172Y-112075452D01*
X158568581Y-112173776D01*
X158496419Y-112267015D01*
X158423085Y-112355966D01*
X158347978Y-112441423D01*
X158270498Y-112524183D01*
X158252583Y-112542608D01*
X158192001Y-112602955D01*
X158133552Y-112658098D01*
X158078069Y-112707270D01*
X158042982Y-112736479D01*
X157976573Y-112786619D01*
X157905663Y-112833544D01*
X157831593Y-112876593D01*
X157755704Y-112915101D01*
X157679340Y-112948406D01*
X157603841Y-112975845D01*
X157530550Y-112996755D01*
X157504269Y-113002702D01*
X157481553Y-113007066D01*
X157459535Y-113010343D01*
X157436016Y-113012751D01*
X157408798Y-113014505D01*
X157375683Y-113015824D01*
X157369380Y-113016018D01*
X157286277Y-113018498D01*
X157248190Y-113061496D01*
X157210102Y-113104494D01*
X157222992Y-113142388D01*
X157229080Y-113161688D01*
X157233140Y-113178877D01*
X157235681Y-113197027D01*
X157237213Y-113219210D01*
X157237700Y-113231083D01*
X157237449Y-113271686D01*
X157233193Y-113307787D01*
X157224322Y-113340701D01*
X157210230Y-113371745D01*
X157190307Y-113402235D01*
X157163944Y-113433488D01*
X157130535Y-113466820D01*
X157127405Y-113469741D01*
X157114441Y-113483586D01*
X157108043Y-113494718D01*
X157107467Y-113498168D01*
X157109789Y-113513123D01*
X157116281Y-113533455D01*
X157126234Y-113557620D01*
X157138935Y-113584077D01*
X157153676Y-113611282D01*
X157169744Y-113637694D01*
X157176306Y-113647577D01*
X157201193Y-113680039D01*
X157231258Y-113712748D01*
X157264771Y-113744210D01*
X157300000Y-113772934D01*
X157335215Y-113797428D01*
X157368684Y-113816199D01*
X157375557Y-113819374D01*
X157399854Y-113829798D01*
X157420200Y-113837471D01*
X157438726Y-113842796D01*
X157457565Y-113846177D01*
X157478849Y-113848016D01*
X157504711Y-113848717D01*
X157530800Y-113848725D01*
X157559174Y-113848433D01*
X157581103Y-113847791D01*
X157598610Y-113846597D01*
X157613716Y-113844651D01*
X157628441Y-113841750D01*
X157644808Y-113837692D01*
X157646888Y-113837142D01*
X157671250Y-113829528D01*
X157699009Y-113819041D01*
X157726311Y-113807179D01*
X157735788Y-113802610D01*
X157773886Y-113781763D01*
X157811320Y-113757354D01*
X157848642Y-113728849D01*
X157886404Y-113695711D01*
X157925161Y-113657402D01*
X157965465Y-113613386D01*
X158007869Y-113563127D01*
X158052927Y-113506088D01*
X158084760Y-113463966D01*
X158133499Y-113398505D01*
X158177559Y-113339411D01*
X158217291Y-113286240D01*
X158253046Y-113238548D01*
X158285177Y-113195893D01*
X158314036Y-113157831D01*
X158339974Y-113123920D01*
X158363343Y-113093716D01*
X158384495Y-113066776D01*
X158403782Y-113042656D01*
X158421556Y-113020915D01*
X158438169Y-113001108D01*
X158453972Y-112982793D01*
X158469318Y-112965526D01*
X158484558Y-112948864D01*
X158500044Y-112932364D01*
X158516128Y-112915583D01*
X158533162Y-112898078D01*
X158538117Y-112893020D01*
X158597673Y-112834633D01*
X158655081Y-112783402D01*
X158711417Y-112738652D01*
X158767754Y-112699709D01*
X158825168Y-112665900D01*
X158884733Y-112636549D01*
X158947524Y-112610984D01*
X159014615Y-112588529D01*
X159031517Y-112583516D01*
X159077361Y-112570850D01*
X159117933Y-112561203D01*
X159155726Y-112554221D01*
X159193234Y-112549550D01*
X159232950Y-112546835D01*
X159277369Y-112545723D01*
X159298217Y-112545648D01*
X159330056Y-112545777D01*
X159355209Y-112546158D01*
X159375455Y-112546930D01*
X159392573Y-112548232D01*
X159408343Y-112550202D01*
X159424544Y-112552979D01*
X159442956Y-112556701D01*
X159444514Y-112557030D01*
X159520123Y-112576939D01*
X159594451Y-112604120D01*
X159666217Y-112637914D01*
X159734144Y-112677666D01*
X159796954Y-112722718D01*
X159841429Y-112760983D01*
X159865364Y-112785585D01*
X159885829Y-112811051D01*
X159901998Y-112836061D01*
X159913046Y-112859294D01*
X159918149Y-112879431D01*
X159918400Y-112884157D01*
X159914755Y-112896357D01*
X159905346Y-112908742D01*
X159892464Y-112918881D01*
X159881049Y-112923782D01*
X159871460Y-112925464D01*
X159855304Y-112927455D01*
X159834466Y-112929556D01*
X159810830Y-112931569D01*
X159797965Y-112932521D01*
X159743597Y-112937498D01*
X159695267Y-112944652D01*
X159650705Y-112954543D01*
X159607639Y-112967729D01*
X159563797Y-112984766D01*
X159537240Y-112996577D01*
X159493219Y-113017838D01*
X159450465Y-113040466D01*
X159407479Y-113065365D01*
X159362765Y-113093437D01*
X159314825Y-113125584D01*
X159265177Y-113160543D01*
X159231568Y-113184327D01*
X159203685Y-113203188D01*
X159180656Y-113217515D01*
X159161612Y-113227695D01*
X159145685Y-113234117D01*
X159132004Y-113237169D01*
X159119699Y-113237239D01*
X159107901Y-113234714D01*
X159102878Y-113232969D01*
X159094628Y-113228610D01*
X159081680Y-113220389D01*
X159066037Y-113209619D01*
X159054540Y-113201256D01*
X159030767Y-113184119D01*
X159011443Y-113171890D01*
X158994677Y-113163864D01*
X158978579Y-113159337D01*
X158961258Y-113157605D01*
X158940824Y-113157963D01*
X158938676Y-113158079D01*
X158904556Y-113162329D01*
X158872092Y-113171538D01*
X158839859Y-113186350D01*
X158806435Y-113207411D01*
X158773001Y-113233199D01*
X158757036Y-113247040D01*
X158741035Y-113262284D01*
X158724536Y-113279522D01*
X158707076Y-113299346D01*
X158688193Y-113322348D01*
X158667426Y-113349118D01*
X158644312Y-113380249D01*
X158618389Y-113416331D01*
X158589195Y-113457957D01*
X158556268Y-113505718D01*
X158529913Y-113544350D01*
X158469283Y-113631696D01*
X158411216Y-113711520D01*
X158355334Y-113784236D01*
X158301259Y-113850263D01*
X158248614Y-113910015D01*
X158197023Y-113963910D01*
X158146106Y-114012365D01*
X158095489Y-114055795D01*
X158044791Y-114094618D01*
X158009167Y-114119201D01*
X157939567Y-114160113D01*
X157866484Y-114193376D01*
X157790239Y-114218903D01*
X157711150Y-114236608D01*
X157629540Y-114246407D01*
X157545726Y-114248214D01*
X157528683Y-114247607D01*
X157493764Y-114245698D01*
X157464963Y-114243199D01*
X157439932Y-114239710D01*
X157416327Y-114234828D01*
X157391799Y-114228154D01*
X157365225Y-114219695D01*
X157303482Y-114195425D01*
X157242514Y-114163937D01*
X157181978Y-114124989D01*
X157121529Y-114078339D01*
X157060824Y-114023745D01*
X157002583Y-113964279D01*
X156968664Y-113925887D01*
X156937406Y-113886503D01*
X156907840Y-113844675D01*
X156878995Y-113798953D01*
X156849900Y-113747885D01*
X156820851Y-113692516D01*
X156802801Y-113657670D01*
X156787658Y-113630105D01*
X156775075Y-113609286D01*
X156764706Y-113594677D01*
X156756205Y-113585741D01*
X156749494Y-113582007D01*
X156737122Y-113583057D01*
X156723134Y-113591195D01*
X156708386Y-113605414D01*
X156693735Y-113624702D01*
X156680037Y-113648053D01*
X156668149Y-113674457D01*
X156665911Y-113680437D01*
X156652691Y-113728148D01*
X156647507Y-113775197D01*
X156650302Y-113820975D01*
X156661019Y-113864871D01*
X156679601Y-113906277D01*
X156688272Y-113920559D01*
X156701916Y-113940368D01*
X156716400Y-113958943D01*
X156732378Y-113976774D01*
X156750506Y-113994351D01*
X156771437Y-114012166D01*
X156795826Y-114030709D01*
X156824327Y-114050470D01*
X156857593Y-114071939D01*
X156896280Y-114095608D01*
X156941041Y-114121967D01*
X156992530Y-114151506D01*
X157007984Y-114160267D01*
X157090354Y-114208725D01*
X157164603Y-114256391D01*
X157231005Y-114303557D01*
X157289835Y-114350515D01*
X157341369Y-114397558D01*
X157385881Y-114444978D01*
X157423647Y-114493069D01*
X157454942Y-114542122D01*
X157480040Y-114592431D01*
X157499217Y-114644287D01*
X157512507Y-114696769D01*
X157516323Y-114722401D01*
X157518897Y-114753391D01*
X157520232Y-114787533D01*
X157520330Y-114822618D01*
X157519193Y-114856440D01*
X157516825Y-114886790D01*
X157513227Y-114911461D01*
X157512261Y-114915950D01*
X157495440Y-114970186D01*
X157471011Y-115022310D01*
X157439808Y-115070828D01*
X157402668Y-115114244D01*
X157399843Y-115117078D01*
X157368027Y-115144954D01*
X157336353Y-115165475D01*
X157305306Y-115178466D01*
X157275372Y-115183751D01*
X157247036Y-115181158D01*
X157233676Y-115176875D01*
X157207061Y-115164254D01*
X157185358Y-115149209D01*
X157165029Y-115129297D01*
X157150817Y-115111524D01*
X157140212Y-115093208D01*
X157133171Y-115073374D01*
X157129656Y-115051046D01*
X157129627Y-115025247D01*
X157133042Y-114995003D01*
X157139863Y-114959338D01*
X157150048Y-114917275D01*
X157155474Y-114896900D01*
X157166203Y-114856513D01*
X157174486Y-114822978D01*
X157180527Y-114795105D01*
X157184534Y-114771705D01*
X157186712Y-114751590D01*
X157187266Y-114733569D01*
X157186504Y-114717644D01*
X157179666Y-114684292D01*
X157164803Y-114649875D01*
X157142231Y-114614784D01*
X157112266Y-114579411D01*
X157075224Y-114544146D01*
X157031420Y-114509382D01*
X157002081Y-114488964D01*
X156989222Y-114480502D01*
X156976921Y-114472618D01*
X156964181Y-114464734D01*
X156950007Y-114456274D01*
X156933402Y-114446661D01*
X156913372Y-114435320D01*
X156888919Y-114421674D01*
X156859049Y-114405147D01*
X156822765Y-114385163D01*
X156821717Y-114384587D01*
X156748818Y-114342212D01*
X156683281Y-114299186D01*
X156624003Y-114254685D01*
X156569879Y-114207887D01*
X156523970Y-114162392D01*
X156495171Y-114130850D01*
X156470985Y-114101487D01*
X156450781Y-114072948D01*
X156433930Y-114043879D01*
X156419801Y-114012924D01*
X156407767Y-113978731D01*
X156397196Y-113939943D01*
X156387458Y-113895207D01*
X156379327Y-113851266D01*
X156373506Y-113818507D01*
X156368679Y-113793079D01*
X156364536Y-113773949D01*
X156360771Y-113760084D01*
X156357075Y-113750448D01*
X156353139Y-113744007D01*
X156348655Y-113739729D01*
X156345467Y-113737710D01*
X156331856Y-113734751D01*
X156314119Y-113738045D01*
X156293043Y-113746946D01*
X156269409Y-113760808D01*
X156244003Y-113778986D01*
X156217608Y-113800833D01*
X156191009Y-113825706D01*
X156164990Y-113852956D01*
X156140334Y-113881940D01*
X156117826Y-113912011D01*
X156099668Y-113940119D01*
X156073611Y-113991999D01*
X156054122Y-114048186D01*
X156041255Y-114107583D01*
X156035064Y-114169090D01*
X156035600Y-114231608D01*
X156042919Y-114294039D01*
X156057072Y-114355283D01*
X156076844Y-114411240D01*
X156100005Y-114458721D01*
X156128507Y-114504248D01*
X156161279Y-114546615D01*
X156197245Y-114584615D01*
X156235334Y-114617040D01*
X156274470Y-114642684D01*
X156289659Y-114650527D01*
X156306896Y-114658154D01*
X156321718Y-114662910D01*
X156337697Y-114665652D01*
X156358405Y-114667238D01*
X156359509Y-114667296D01*
X156402520Y-114667226D01*
X156439907Y-114661956D01*
X156473000Y-114651114D01*
X156503133Y-114634329D01*
X156518380Y-114622877D01*
X156539471Y-114602521D01*
X156557318Y-114578146D01*
X156573091Y-114547997D01*
X156581030Y-114529030D01*
X156594520Y-114498926D01*
X156608554Y-114476841D01*
X156623689Y-114462330D01*
X156640480Y-114454946D01*
X156659485Y-114454241D01*
X156671302Y-114456597D01*
X156691139Y-114465751D01*
X156711220Y-114481807D01*
X156730495Y-114503301D01*
X156747912Y-114528767D01*
X156762423Y-114556741D01*
X156772975Y-114585758D01*
X156777164Y-114604191D01*
X156779660Y-114629723D01*
X156779802Y-114660034D01*
X156777825Y-114692413D01*
X156773965Y-114724147D01*
X156768454Y-114752524D01*
X156762636Y-114772016D01*
X156740181Y-114820134D01*
X156711027Y-114863725D01*
X156675887Y-114902349D01*
X156635479Y-114935566D01*
X156590516Y-114962934D01*
X156541714Y-114984013D01*
X156489788Y-114998363D01*
X156435455Y-115005543D01*
X156383666Y-115005418D01*
X156323568Y-114997270D01*
X156262520Y-114980864D01*
X156200809Y-114956316D01*
X156138723Y-114923745D01*
X156076548Y-114883268D01*
X156066015Y-114875627D01*
X156045512Y-114859274D01*
X156021407Y-114838040D01*
X155995333Y-114813546D01*
X155968919Y-114787419D01*
X155943798Y-114761281D01*
X155921601Y-114736756D01*
X155903958Y-114715469D01*
X155900294Y-114710633D01*
X155855463Y-114642887D01*
X155817297Y-114570307D01*
X155785970Y-114493498D01*
X155761655Y-114413060D01*
X155744526Y-114329598D01*
X155734757Y-114243713D01*
X155732522Y-114156009D01*
X155733269Y-114131228D01*
X155735141Y-114094412D01*
X155737635Y-114061150D01*
X155741025Y-114029877D01*
X155745588Y-113999033D01*
X155751600Y-113967053D01*
X155759336Y-113932376D01*
X155769072Y-113893438D01*
X155781086Y-113848677D01*
X155786816Y-113827983D01*
X155798199Y-113786410D01*
X155807053Y-113752105D01*
X155813459Y-113724280D01*
X155817500Y-113702150D01*
X155819257Y-113684927D01*
X155818811Y-113671825D01*
X155816245Y-113662056D01*
X155811639Y-113654836D01*
X155805352Y-113649554D01*
X155794730Y-113645498D01*
X155779421Y-113644533D01*
X155758757Y-113646750D01*
X155732067Y-113652242D01*
X155698684Y-113661100D01*
X155678717Y-113666989D01*
X155628424Y-113681262D01*
X155574657Y-113694824D01*
X155520420Y-113706992D01*
X155468717Y-113717082D01*
X155433184Y-113722907D01*
X155396488Y-113727066D01*
X155354574Y-113729730D01*
X155309669Y-113730915D01*
X155264000Y-113730639D01*
X155219792Y-113728917D01*
X155179272Y-113725767D01*
X155144668Y-113721205D01*
X155141790Y-113720703D01*
X155075731Y-113706856D01*
X155011102Y-113689400D01*
X154949548Y-113668895D01*
X154892713Y-113645900D01*
X154842242Y-113620976D01*
X154832050Y-113615229D01*
X154766312Y-113572622D01*
X154705141Y-113523770D01*
X154649146Y-113469396D01*
X154598937Y-113410220D01*
X154555123Y-113346966D01*
X154518312Y-113280354D01*
X154489114Y-113211108D01*
X154487662Y-113207011D01*
X154471356Y-113149252D01*
X154462764Y-113091638D01*
X154461760Y-113034871D01*
X154468219Y-112979653D01*
X154482012Y-112926683D01*
X154503015Y-112876665D01*
X154531100Y-112830300D01*
X154562452Y-112792141D01*
X154602973Y-112754901D01*
X154647005Y-112725232D01*
X154694202Y-112703284D01*
X154744222Y-112689210D01*
X154796721Y-112683162D01*
X154809148Y-112682922D01*
X154846672Y-112685555D01*
X154882450Y-112693176D01*
X154915548Y-112705173D01*
X154945034Y-112720932D01*
X154969976Y-112739839D01*
X154989440Y-112761282D01*
X155002493Y-112784646D01*
X155008204Y-112809319D01*
X155008381Y-112813937D01*
X155005951Y-112837028D01*
X154997752Y-112854391D01*
X154983036Y-112867018D01*
X154961704Y-112875714D01*
X154925398Y-112889309D01*
X154891511Y-112907959D01*
X154861613Y-112930510D01*
X154837273Y-112955807D01*
X154822281Y-112978312D01*
X154807167Y-113015016D01*
X154798568Y-113054947D01*
X154796515Y-113096194D01*
X154801037Y-113136845D01*
X154812163Y-113174990D01*
X154819034Y-113190243D01*
X154839517Y-113223313D01*
X154867146Y-113256750D01*
X154900701Y-113289603D01*
X154938966Y-113320919D01*
X154980721Y-113349748D01*
X155024750Y-113375138D01*
X155069833Y-113396137D01*
X155094517Y-113405429D01*
X155135899Y-113416928D01*
X155182628Y-113425317D01*
X155232100Y-113430402D01*
X155281713Y-113431983D01*
X155328863Y-113429864D01*
X155361446Y-113425658D01*
X155423721Y-113410533D01*
X155483712Y-113387388D01*
X155540933Y-113356476D01*
X155594900Y-113318053D01*
X155634365Y-113283086D01*
X155656824Y-113259818D01*
X155678018Y-113235118D01*
X155692055Y-113216806D01*
X156698766Y-113216806D01*
X156699634Y-113248402D01*
X156703748Y-113278363D01*
X156708921Y-113297827D01*
X156726521Y-113336656D01*
X156750812Y-113371180D01*
X156780859Y-113400518D01*
X156815727Y-113423789D01*
X156854480Y-113440111D01*
X156862409Y-113442409D01*
X156887102Y-113446808D01*
X156916109Y-113448547D01*
X156945702Y-113447621D01*
X156972156Y-113444022D01*
X156978174Y-113442617D01*
X157017305Y-113428165D01*
X157052641Y-113406504D01*
X157083507Y-113378300D01*
X157109230Y-113344213D01*
X157129134Y-113304908D01*
X157135199Y-113288233D01*
X157140784Y-113262003D01*
X157142794Y-113228781D01*
X157142799Y-113226849D01*
X157138801Y-113184437D01*
X157127207Y-113144313D01*
X157108614Y-113107455D01*
X157083619Y-113074839D01*
X157052820Y-113047442D01*
X157021400Y-113028430D01*
X156994495Y-113016505D01*
X156970254Y-113009175D01*
X156944893Y-113005545D01*
X156921031Y-113004703D01*
X156878000Y-113008582D01*
X156837714Y-113020155D01*
X156800897Y-113038893D01*
X156768270Y-113064267D01*
X156740556Y-113095751D01*
X156718477Y-113132816D01*
X156706950Y-113161233D01*
X156701190Y-113186705D01*
X156698766Y-113216806D01*
X155692055Y-113216806D01*
X155697113Y-113210208D01*
X155713276Y-113186312D01*
X155725673Y-113164654D01*
X155733470Y-113146457D01*
X155735867Y-113134065D01*
X155733199Y-113123738D01*
X155724806Y-113114904D01*
X155710104Y-113107315D01*
X155688507Y-113100721D01*
X155659431Y-113094874D01*
X155635133Y-113091204D01*
X155577803Y-113082110D01*
X155527529Y-113071246D01*
X155482997Y-113058120D01*
X155442895Y-113042238D01*
X155405908Y-113023107D01*
X155370722Y-113000234D01*
X155349035Y-112983797D01*
X155328293Y-112965959D01*
X155304083Y-112943042D01*
X155278013Y-112916746D01*
X155251693Y-112888768D01*
X155226731Y-112860807D01*
X155204736Y-112834559D01*
X155191543Y-112817546D01*
X155174405Y-112793938D01*
X155158025Y-112770255D01*
X155141669Y-112745309D01*
X155124601Y-112717913D01*
X155106087Y-112686878D01*
X155085392Y-112651018D01*
X155061779Y-112609144D01*
X155054491Y-112596083D01*
X155027774Y-112548753D01*
X155003979Y-112508137D01*
X154982420Y-112473287D01*
X154962413Y-112443258D01*
X154943271Y-112417102D01*
X154924310Y-112393872D01*
X154904844Y-112372623D01*
X154884188Y-112352408D01*
X154866711Y-112336662D01*
X154836341Y-112312884D01*
X154806307Y-112295480D01*
X154775416Y-112284248D01*
X154742476Y-112278985D01*
X154706292Y-112279488D01*
X154665670Y-112285554D01*
X154624617Y-112295524D01*
X154587472Y-112305760D01*
X154557287Y-112313933D01*
X154532879Y-112320295D01*
X154513066Y-112325100D01*
X154496664Y-112328600D01*
X154482489Y-112331049D01*
X154469359Y-112332700D01*
X154456091Y-112333805D01*
X154441928Y-112334597D01*
X154420674Y-112335465D01*
X154405662Y-112335478D01*
X154394687Y-112334392D01*
X154385546Y-112331962D01*
X154376036Y-112327943D01*
X154374195Y-112327070D01*
X154353623Y-112314246D01*
X154332766Y-112296171D01*
X154313816Y-112275182D01*
X154298967Y-112253615D01*
X154292353Y-112239868D01*
X154284826Y-112208413D01*
X154285512Y-112176292D01*
X154294224Y-112143909D01*
X154310778Y-112111665D01*
X154334986Y-112079961D01*
X154366663Y-112049199D01*
X154388879Y-112031581D01*
X154440916Y-111998047D01*
X154495577Y-111972487D01*
X154553065Y-111954838D01*
X154613585Y-111945042D01*
X154677338Y-111943038D01*
X154687856Y-111943437D01*
X154752040Y-111949753D01*
X154812327Y-111962671D01*
X154869449Y-111982527D01*
X154924135Y-112009659D01*
X154977117Y-112044402D01*
X155029124Y-112087093D01*
X155056906Y-112113416D01*
X155084610Y-112141849D01*
X155111325Y-112171409D01*
X155137565Y-112202833D01*
X155163847Y-112236862D01*
X155190688Y-112274236D01*
X155218603Y-112315693D01*
X155248109Y-112361974D01*
X155279721Y-112413817D01*
X155313956Y-112471963D01*
X155345627Y-112527112D01*
X155370568Y-112570217D01*
X155392637Y-112606672D01*
X155412533Y-112637508D01*
X155430952Y-112663751D01*
X155448592Y-112686430D01*
X155466152Y-112706575D01*
X155470570Y-112711291D01*
X155505141Y-112744980D01*
X155538368Y-112771492D01*
X155571539Y-112791696D01*
X155605943Y-112806464D01*
X155616656Y-112809952D01*
X155654087Y-112817255D01*
X155694869Y-112817913D01*
X155737382Y-112812132D01*
X155780004Y-112800117D01*
X155816381Y-112784519D01*
X155837997Y-112772234D01*
X155856799Y-112758962D01*
X155871132Y-112746025D01*
X155879339Y-112734743D01*
X155879631Y-112734074D01*
X155882070Y-112726379D01*
X155882197Y-112719227D01*
X155879351Y-112712081D01*
X155872871Y-112704403D01*
X155862097Y-112695655D01*
X155846367Y-112685298D01*
X155825019Y-112672797D01*
X155797395Y-112657611D01*
X155763383Y-112639497D01*
X155714805Y-112613429D01*
X155672717Y-112589786D01*
X155635837Y-112567631D01*
X155625334Y-112560745D01*
X156022044Y-112560745D01*
X156023647Y-112576457D01*
X156032811Y-112615024D01*
X156048884Y-112651931D01*
X156070821Y-112685468D01*
X156097578Y-112713925D01*
X156116550Y-112728549D01*
X156156129Y-112750316D01*
X156197090Y-112763757D01*
X156239221Y-112768837D01*
X156282311Y-112765527D01*
X156313261Y-112758098D01*
X156350746Y-112742322D01*
X156384311Y-112719705D01*
X156413238Y-112691243D01*
X156436808Y-112657934D01*
X156454303Y-112620775D01*
X156465005Y-112580762D01*
X156468234Y-112543066D01*
X156466181Y-112520693D01*
X156460658Y-112494489D01*
X156452619Y-112467841D01*
X156443015Y-112444139D01*
X156437464Y-112433673D01*
X156412341Y-112399526D01*
X156381609Y-112370854D01*
X156346412Y-112348314D01*
X156307897Y-112332561D01*
X156267207Y-112324254D01*
X156244717Y-112323095D01*
X156202811Y-112327175D01*
X156163599Y-112338666D01*
X156127765Y-112356785D01*
X156095994Y-112380747D01*
X156068971Y-112409767D01*
X156047380Y-112443062D01*
X156031905Y-112479846D01*
X156023232Y-112519336D01*
X156022044Y-112560745D01*
X155625334Y-112560745D01*
X155602884Y-112546027D01*
X155572576Y-112524039D01*
X155543633Y-112500731D01*
X155514771Y-112475167D01*
X155484711Y-112446411D01*
X155452170Y-112413526D01*
X155447757Y-112408969D01*
X155392278Y-112347952D01*
X155344873Y-112287989D01*
X155305282Y-112228641D01*
X155273246Y-112169469D01*
X155248505Y-112110034D01*
X155230799Y-112049895D01*
X155227981Y-112037283D01*
X155222098Y-112001564D01*
X155218086Y-111960422D01*
X155216067Y-111916716D01*
X155216163Y-111873305D01*
X155218495Y-111833051D01*
X155219045Y-111827473D01*
X155229383Y-111755331D01*
X155245194Y-111685844D01*
X155266750Y-111618596D01*
X155294327Y-111553175D01*
X155328197Y-111489167D01*
X155368634Y-111426158D01*
X155415913Y-111363735D01*
X155470308Y-111301483D01*
X155532092Y-111238989D01*
X155601539Y-111175840D01*
X155678924Y-111111621D01*
X155708350Y-111088493D01*
X155728653Y-111072949D01*
X155750800Y-111056414D01*
X155775491Y-111038390D01*
X155803425Y-111018386D01*
X155835299Y-110995904D01*
X155871814Y-110970452D01*
X155913667Y-110941534D01*
X155961556Y-110908655D01*
X155985633Y-110892182D01*
X156038946Y-110855248D01*
X156085459Y-110821881D01*
X156125771Y-110791526D01*
X156160480Y-110763633D01*
X156190184Y-110737647D01*
X156215481Y-110713016D01*
X156236969Y-110689187D01*
X156255246Y-110665608D01*
X156270910Y-110641725D01*
X156284559Y-110616985D01*
X156285628Y-110614859D01*
X156298543Y-110586675D01*
X156306673Y-110562573D01*
X156310615Y-110540098D01*
X156310966Y-110516798D01*
X156310672Y-110512020D01*
X156308518Y-110494457D01*
X156304216Y-110478173D01*
X156296954Y-110461391D01*
X156285923Y-110442334D01*
X156270314Y-110419224D01*
X156264939Y-110411683D01*
X156248012Y-110387321D01*
X156236280Y-110367906D01*
X156229408Y-110351972D01*
X156227061Y-110338054D01*
X156228904Y-110324688D01*
X156234601Y-110310409D01*
X156239615Y-110300997D01*
X156245689Y-110291154D01*
X156255850Y-110275733D01*
X156269220Y-110256017D01*
X156284925Y-110233290D01*
X156302090Y-110208833D01*
X156312640Y-110193981D01*
X156344091Y-110149270D01*
X156371006Y-110109486D01*
X156394326Y-110073105D01*
X156414996Y-110038601D01*
X156433958Y-110004448D01*
X156452156Y-109969120D01*
X156454167Y-109965066D01*
X156479137Y-109910891D01*
X156498530Y-109859905D01*
X156512982Y-109809663D01*
X156523127Y-109757719D01*
X156529603Y-109701627D01*
X156531959Y-109665588D01*
X156533994Y-109631031D01*
X156536486Y-109604036D01*
X156539820Y-109583700D01*
X156544382Y-109569118D01*
X156550558Y-109559386D01*
X156558734Y-109553600D01*
X156569296Y-109550856D01*
X156581197Y-109550241D01*
X156602605Y-109553642D01*
G37*
X156602605Y-109553642D02*
X156626318Y-109563895D01*
X156652711Y-109581227D01*
X156682162Y-109605866D01*
X156698379Y-109621219D01*
X156743655Y-109670802D01*
X156785455Y-109727001D01*
X156823057Y-109788427D01*
X156855743Y-109853690D01*
X156882793Y-109921401D01*
X156903485Y-109990170D01*
X156913459Y-110036281D01*
X156917428Y-110064858D01*
X156920348Y-110099478D01*
X156922178Y-110137777D01*
X156922881Y-110177389D01*
X156922416Y-110215952D01*
X156920745Y-110251101D01*
X156917829Y-110280472D01*
X156917531Y-110282566D01*
X156903921Y-110356388D01*
X156884855Y-110430716D01*
X156860952Y-110503885D01*
X156832826Y-110574229D01*
X156801095Y-110640082D01*
X156766375Y-110699778D01*
X156758969Y-110711066D01*
X156731985Y-110749638D01*
X156702886Y-110787819D01*
X156671245Y-110826002D01*
X156636631Y-110864579D01*
X156598616Y-110903940D01*
X156556770Y-110944477D01*
X156510665Y-110986581D01*
X156459871Y-111030645D01*
X156403959Y-111077059D01*
X156342500Y-111126214D01*
X156275066Y-111178503D01*
X156201226Y-111234317D01*
X156120552Y-111294047D01*
X156117278Y-111296449D01*
X156062635Y-111336737D01*
X156014375Y-111372797D01*
X155971862Y-111405141D01*
X155934462Y-111434277D01*
X155901538Y-111460716D01*
X155872456Y-111484968D01*
X155846582Y-111507544D01*
X155823280Y-111528953D01*
X155801914Y-111549706D01*
X155801350Y-111550270D01*
X155751974Y-111603179D01*
X155710640Y-111655211D01*
X155677054Y-111706955D01*
X155650919Y-111759002D01*
X155631940Y-111811940D01*
X155619821Y-111866361D01*
X155614267Y-111922854D01*
X155614239Y-111923545D01*
X155614579Y-111971398D01*
X155620039Y-112014577D01*
X155631209Y-112055196D01*
X155648679Y-112095371D01*
X155673042Y-112137215D01*
X155674588Y-112139598D01*
X155689537Y-112160302D01*
X155709121Y-112184190D01*
X155731677Y-112209504D01*
X155755543Y-112234489D01*
X155779056Y-112257388D01*
X155800553Y-112276445D01*
X155814183Y-112287039D01*
X155840896Y-112304152D01*
X155872930Y-112321653D01*
X155907351Y-112338058D01*
X155941223Y-112351884D01*
X155945417Y-112353409D01*
X155979283Y-112365528D01*
X155985526Y-112355922D01*
X155995411Y-112343112D01*
X156010060Y-112327031D01*
X156027519Y-112309564D01*
X156045835Y-112292599D01*
X156063056Y-112278019D01*
X156076225Y-112268351D01*
X156093517Y-112258492D01*
X156114551Y-112248417D01*
X156134925Y-112240225D01*
X156135917Y-112239879D01*
X156151644Y-112234768D01*
X156165340Y-112231384D01*
X156179559Y-112229382D01*
X156196854Y-112228416D01*
X156219781Y-112228141D01*
X156222700Y-112228138D01*
X156245937Y-112228310D01*
X156263374Y-112229106D01*
X156277675Y-112230918D01*
X156291503Y-112234136D01*
X156307522Y-112239154D01*
X156315016Y-112241709D01*
X156332242Y-112247512D01*
X156346572Y-112252079D01*
X156356055Y-112254803D01*
X156358620Y-112255300D01*
X156363159Y-112252634D01*
X156372717Y-112245319D01*
X156386029Y-112234375D01*
X156401828Y-112220825D01*
X156407162Y-112216141D01*
X156451500Y-112176983D01*
X156449815Y-112134650D01*
X156450761Y-112064969D01*
X156459103Y-111992928D01*
X156474909Y-111918191D01*
X156498247Y-111840420D01*
X156521098Y-111778990D01*
X156555884Y-111699795D01*
X156596059Y-111622486D01*
X156642086Y-111546398D01*
X156694428Y-111470864D01*
X156753549Y-111395218D01*
X156819911Y-111318793D01*
X156893977Y-111240925D01*
X156897917Y-111236955D01*
X156981569Y-111156064D01*
X157070743Y-111076145D01*
X157165866Y-110996870D01*
X157267369Y-110917913D01*
X157375682Y-110838946D01*
X157491233Y-110759642D01*
X157614453Y-110679676D01*
X157699905Y-110626548D01*
X157726119Y-110610471D01*
X157749992Y-110595751D01*
X157770562Y-110582989D01*
X157786866Y-110572783D01*
X157797941Y-110565735D01*
X157802825Y-110562443D01*
X157802919Y-110562361D01*
X157801047Y-110558854D01*
X157793364Y-110551944D01*
X157781213Y-110542754D01*
X157771169Y-110535833D01*
X157731798Y-110508045D01*
X157695368Y-110479260D01*
X157663757Y-110451018D01*
X157646976Y-110433999D01*
X157607128Y-110386682D01*
X157574062Y-110338337D01*
X157547855Y-110289484D01*
X157528583Y-110240643D01*
X157516322Y-110192336D01*
X157511149Y-110145082D01*
X157513140Y-110099404D01*
X157522372Y-110055822D01*
X157538920Y-110014856D01*
X157562862Y-109977027D01*
X157577412Y-109959689D01*
X157615668Y-109924091D01*
X157660865Y-109893123D01*
X157712830Y-109866823D01*
X157771391Y-109845229D01*
X157836374Y-109828379D01*
X157907607Y-109816310D01*
X157984918Y-109809060D01*
X158068134Y-109806668D01*
X158157083Y-109809170D01*
X158236887Y-109815157D01*
X158307259Y-109823221D01*
X158379201Y-109834269D01*
X158453444Y-109848488D01*
X158530718Y-109866065D01*
X158611754Y-109887188D01*
X158697282Y-109912044D01*
X158788033Y-109940820D01*
X158884738Y-109973704D01*
X158959204Y-110000299D01*
X159056225Y-110035577D01*
X159107371Y-110023679D01*
X159174982Y-110009093D01*
X159236331Y-109998229D01*
X159291190Y-109991105D01*
X159339330Y-109987740D01*
X159380524Y-109988152D01*
X159414545Y-109992359D01*
X159433078Y-109997265D01*
X159448776Y-110004397D01*
X159460690Y-110014408D01*
X159469243Y-110028346D01*
X159474856Y-110047259D01*
X159477950Y-110072194D01*
X159478950Y-110104199D01*
X159478938Y-110111116D01*
X159476944Y-110155716D01*
X159471507Y-110207232D01*
X159462732Y-110264893D01*
X159450724Y-110327928D01*
X159446647Y-110347127D01*
X159432174Y-110413804D01*
X159459681Y-110488944D01*
X159500091Y-110602680D01*
X159535904Y-110710534D01*
X159567078Y-110812345D01*
X159593567Y-110907952D01*
X159615329Y-110997192D01*
X159632320Y-111079904D01*
X159644495Y-111155926D01*
X159648225Y-111186383D01*
X159649859Y-111206020D01*
X159651222Y-111231974D01*
X159652315Y-111263025D01*
X159653138Y-111297950D01*
X159653690Y-111335531D01*
X159653972Y-111374546D01*
X159653985Y-111413775D01*
X159653727Y-111451998D01*
X159653199Y-111487994D01*
X159652401Y-111520542D01*
X159651334Y-111548422D01*
X159649996Y-111570413D01*
X159648389Y-111585295D01*
X159648198Y-111586433D01*
X159633889Y-111653772D01*
X159616003Y-111713803D01*
X159594336Y-111766985D01*
X159568682Y-111813778D01*
X159538836Y-111854640D01*
X159518378Y-111876956D01*
X159499566Y-111894940D01*
X159483209Y-111908278D01*
X159466549Y-111918995D01*
X159448262Y-111928433D01*
X159421565Y-111940109D01*
X159397380Y-111947904D01*
X159372654Y-111952476D01*
X159344329Y-111954483D01*
X159326202Y-111954733D01*
X159275963Y-111950582D01*
X159225383Y-111938368D01*
X159175006Y-111918448D01*
X159125380Y-111891178D01*
X159077050Y-111856915D01*
X159030562Y-111816015D01*
X158986462Y-111768836D01*
X158945296Y-111715734D01*
X158932979Y-111697769D01*
X158922870Y-111683232D01*
X158914279Y-111672085D01*
X158908347Y-111665740D01*
X158906444Y-111664866D01*
X158903351Y-111668946D01*
X158896597Y-111679175D01*
X158886883Y-111694449D01*
X158874910Y-111713660D01*
X158861380Y-111735701D01*
X158857534Y-111742023D01*
X158784048Y-111860372D01*
X158711794Y-111971249D01*
X158640172Y-112075452D01*
X158568581Y-112173776D01*
X158496419Y-112267015D01*
X158423085Y-112355966D01*
X158347978Y-112441423D01*
X158270498Y-112524183D01*
X158252583Y-112542608D01*
X158192001Y-112602955D01*
X158133552Y-112658098D01*
X158078069Y-112707270D01*
X158042982Y-112736479D01*
X157976573Y-112786619D01*
X157905663Y-112833544D01*
X157831593Y-112876593D01*
X157755704Y-112915101D01*
X157679340Y-112948406D01*
X157603841Y-112975845D01*
X157530550Y-112996755D01*
X157504269Y-113002702D01*
X157481553Y-113007066D01*
X157459535Y-113010343D01*
X157436016Y-113012751D01*
X157408798Y-113014505D01*
X157375683Y-113015824D01*
X157369380Y-113016018D01*
X157286277Y-113018498D01*
X157248190Y-113061496D01*
X157210102Y-113104494D01*
X157222992Y-113142388D01*
X157229080Y-113161688D01*
X157233140Y-113178877D01*
X157235681Y-113197027D01*
X157237213Y-113219210D01*
X157237700Y-113231083D01*
X157237449Y-113271686D01*
X157233193Y-113307787D01*
X157224322Y-113340701D01*
X157210230Y-113371745D01*
X157190307Y-113402235D01*
X157163944Y-113433488D01*
X157130535Y-113466820D01*
X157127405Y-113469741D01*
X157114441Y-113483586D01*
X157108043Y-113494718D01*
X157107467Y-113498168D01*
X157109789Y-113513123D01*
X157116281Y-113533455D01*
X157126234Y-113557620D01*
X157138935Y-113584077D01*
X157153676Y-113611282D01*
X157169744Y-113637694D01*
X157176306Y-113647577D01*
X157201193Y-113680039D01*
X157231258Y-113712748D01*
X157264771Y-113744210D01*
X157300000Y-113772934D01*
X157335215Y-113797428D01*
X157368684Y-113816199D01*
X157375557Y-113819374D01*
X157399854Y-113829798D01*
X157420200Y-113837471D01*
X157438726Y-113842796D01*
X157457565Y-113846177D01*
X157478849Y-113848016D01*
X157504711Y-113848717D01*
X157530800Y-113848725D01*
X157559174Y-113848433D01*
X157581103Y-113847791D01*
X157598610Y-113846597D01*
X157613716Y-113844651D01*
X157628441Y-113841750D01*
X157644808Y-113837692D01*
X157646888Y-113837142D01*
X157671250Y-113829528D01*
X157699009Y-113819041D01*
X157726311Y-113807179D01*
X157735788Y-113802610D01*
X157773886Y-113781763D01*
X157811320Y-113757354D01*
X157848642Y-113728849D01*
X157886404Y-113695711D01*
X157925161Y-113657402D01*
X157965465Y-113613386D01*
X158007869Y-113563127D01*
X158052927Y-113506088D01*
X158084760Y-113463966D01*
X158133499Y-113398505D01*
X158177559Y-113339411D01*
X158217291Y-113286240D01*
X158253046Y-113238548D01*
X158285177Y-113195893D01*
X158314036Y-113157831D01*
X158339974Y-113123920D01*
X158363343Y-113093716D01*
X158384495Y-113066776D01*
X158403782Y-113042656D01*
X158421556Y-113020915D01*
X158438169Y-113001108D01*
X158453972Y-112982793D01*
X158469318Y-112965526D01*
X158484558Y-112948864D01*
X158500044Y-112932364D01*
X158516128Y-112915583D01*
X158533162Y-112898078D01*
X158538117Y-112893020D01*
X158597673Y-112834633D01*
X158655081Y-112783402D01*
X158711417Y-112738652D01*
X158767754Y-112699709D01*
X158825168Y-112665900D01*
X158884733Y-112636549D01*
X158947524Y-112610984D01*
X159014615Y-112588529D01*
X159031517Y-112583516D01*
X159077361Y-112570850D01*
X159117933Y-112561203D01*
X159155726Y-112554221D01*
X159193234Y-112549550D01*
X159232950Y-112546835D01*
X159277369Y-112545723D01*
X159298217Y-112545648D01*
X159330056Y-112545777D01*
X159355209Y-112546158D01*
X159375455Y-112546930D01*
X159392573Y-112548232D01*
X159408343Y-112550202D01*
X159424544Y-112552979D01*
X159442956Y-112556701D01*
X159444514Y-112557030D01*
X159520123Y-112576939D01*
X159594451Y-112604120D01*
X159666217Y-112637914D01*
X159734144Y-112677666D01*
X159796954Y-112722718D01*
X159841429Y-112760983D01*
X159865364Y-112785585D01*
X159885829Y-112811051D01*
X159901998Y-112836061D01*
X159913046Y-112859294D01*
X159918149Y-112879431D01*
X159918400Y-112884157D01*
X159914755Y-112896357D01*
X159905346Y-112908742D01*
X159892464Y-112918881D01*
X159881049Y-112923782D01*
X159871460Y-112925464D01*
X159855304Y-112927455D01*
X159834466Y-112929556D01*
X159810830Y-112931569D01*
X159797965Y-112932521D01*
X159743597Y-112937498D01*
X159695267Y-112944652D01*
X159650705Y-112954543D01*
X159607639Y-112967729D01*
X159563797Y-112984766D01*
X159537240Y-112996577D01*
X159493219Y-113017838D01*
X159450465Y-113040466D01*
X159407479Y-113065365D01*
X159362765Y-113093437D01*
X159314825Y-113125584D01*
X159265177Y-113160543D01*
X159231568Y-113184327D01*
X159203685Y-113203188D01*
X159180656Y-113217515D01*
X159161612Y-113227695D01*
X159145685Y-113234117D01*
X159132004Y-113237169D01*
X159119699Y-113237239D01*
X159107901Y-113234714D01*
X159102878Y-113232969D01*
X159094628Y-113228610D01*
X159081680Y-113220389D01*
X159066037Y-113209619D01*
X159054540Y-113201256D01*
X159030767Y-113184119D01*
X159011443Y-113171890D01*
X158994677Y-113163864D01*
X158978579Y-113159337D01*
X158961258Y-113157605D01*
X158940824Y-113157963D01*
X158938676Y-113158079D01*
X158904556Y-113162329D01*
X158872092Y-113171538D01*
X158839859Y-113186350D01*
X158806435Y-113207411D01*
X158773001Y-113233199D01*
X158757036Y-113247040D01*
X158741035Y-113262284D01*
X158724536Y-113279522D01*
X158707076Y-113299346D01*
X158688193Y-113322348D01*
X158667426Y-113349118D01*
X158644312Y-113380249D01*
X158618389Y-113416331D01*
X158589195Y-113457957D01*
X158556268Y-113505718D01*
X158529913Y-113544350D01*
X158469283Y-113631696D01*
X158411216Y-113711520D01*
X158355334Y-113784236D01*
X158301259Y-113850263D01*
X158248614Y-113910015D01*
X158197023Y-113963910D01*
X158146106Y-114012365D01*
X158095489Y-114055795D01*
X158044791Y-114094618D01*
X158009167Y-114119201D01*
X157939567Y-114160113D01*
X157866484Y-114193376D01*
X157790239Y-114218903D01*
X157711150Y-114236608D01*
X157629540Y-114246407D01*
X157545726Y-114248214D01*
X157528683Y-114247607D01*
X157493764Y-114245698D01*
X157464963Y-114243199D01*
X157439932Y-114239710D01*
X157416327Y-114234828D01*
X157391799Y-114228154D01*
X157365225Y-114219695D01*
X157303482Y-114195425D01*
X157242514Y-114163937D01*
X157181978Y-114124989D01*
X157121529Y-114078339D01*
X157060824Y-114023745D01*
X157002583Y-113964279D01*
X156968664Y-113925887D01*
X156937406Y-113886503D01*
X156907840Y-113844675D01*
X156878995Y-113798953D01*
X156849900Y-113747885D01*
X156820851Y-113692516D01*
X156802801Y-113657670D01*
X156787658Y-113630105D01*
X156775075Y-113609286D01*
X156764706Y-113594677D01*
X156756205Y-113585741D01*
X156749494Y-113582007D01*
X156737122Y-113583057D01*
X156723134Y-113591195D01*
X156708386Y-113605414D01*
X156693735Y-113624702D01*
X156680037Y-113648053D01*
X156668149Y-113674457D01*
X156665911Y-113680437D01*
X156652691Y-113728148D01*
X156647507Y-113775197D01*
X156650302Y-113820975D01*
X156661019Y-113864871D01*
X156679601Y-113906277D01*
X156688272Y-113920559D01*
X156701916Y-113940368D01*
X156716400Y-113958943D01*
X156732378Y-113976774D01*
X156750506Y-113994351D01*
X156771437Y-114012166D01*
X156795826Y-114030709D01*
X156824327Y-114050470D01*
X156857593Y-114071939D01*
X156896280Y-114095608D01*
X156941041Y-114121967D01*
X156992530Y-114151506D01*
X157007984Y-114160267D01*
X157090354Y-114208725D01*
X157164603Y-114256391D01*
X157231005Y-114303557D01*
X157289835Y-114350515D01*
X157341369Y-114397558D01*
X157385881Y-114444978D01*
X157423647Y-114493069D01*
X157454942Y-114542122D01*
X157480040Y-114592431D01*
X157499217Y-114644287D01*
X157512507Y-114696769D01*
X157516323Y-114722401D01*
X157518897Y-114753391D01*
X157520232Y-114787533D01*
X157520330Y-114822618D01*
X157519193Y-114856440D01*
X157516825Y-114886790D01*
X157513227Y-114911461D01*
X157512261Y-114915950D01*
X157495440Y-114970186D01*
X157471011Y-115022310D01*
X157439808Y-115070828D01*
X157402668Y-115114244D01*
X157399843Y-115117078D01*
X157368027Y-115144954D01*
X157336353Y-115165475D01*
X157305306Y-115178466D01*
X157275372Y-115183751D01*
X157247036Y-115181158D01*
X157233676Y-115176875D01*
X157207061Y-115164254D01*
X157185358Y-115149209D01*
X157165029Y-115129297D01*
X157150817Y-115111524D01*
X157140212Y-115093208D01*
X157133171Y-115073374D01*
X157129656Y-115051046D01*
X157129627Y-115025247D01*
X157133042Y-114995003D01*
X157139863Y-114959338D01*
X157150048Y-114917275D01*
X157155474Y-114896900D01*
X157166203Y-114856513D01*
X157174486Y-114822978D01*
X157180527Y-114795105D01*
X157184534Y-114771705D01*
X157186712Y-114751590D01*
X157187266Y-114733569D01*
X157186504Y-114717644D01*
X157179666Y-114684292D01*
X157164803Y-114649875D01*
X157142231Y-114614784D01*
X157112266Y-114579411D01*
X157075224Y-114544146D01*
X157031420Y-114509382D01*
X157002081Y-114488964D01*
X156989222Y-114480502D01*
X156976921Y-114472618D01*
X156964181Y-114464734D01*
X156950007Y-114456274D01*
X156933402Y-114446661D01*
X156913372Y-114435320D01*
X156888919Y-114421674D01*
X156859049Y-114405147D01*
X156822765Y-114385163D01*
X156821717Y-114384587D01*
X156748818Y-114342212D01*
X156683281Y-114299186D01*
X156624003Y-114254685D01*
X156569879Y-114207887D01*
X156523970Y-114162392D01*
X156495171Y-114130850D01*
X156470985Y-114101487D01*
X156450781Y-114072948D01*
X156433930Y-114043879D01*
X156419801Y-114012924D01*
X156407767Y-113978731D01*
X156397196Y-113939943D01*
X156387458Y-113895207D01*
X156379327Y-113851266D01*
X156373506Y-113818507D01*
X156368679Y-113793079D01*
X156364536Y-113773949D01*
X156360771Y-113760084D01*
X156357075Y-113750448D01*
X156353139Y-113744007D01*
X156348655Y-113739729D01*
X156345467Y-113737710D01*
X156331856Y-113734751D01*
X156314119Y-113738045D01*
X156293043Y-113746946D01*
X156269409Y-113760808D01*
X156244003Y-113778986D01*
X156217608Y-113800833D01*
X156191009Y-113825706D01*
X156164990Y-113852956D01*
X156140334Y-113881940D01*
X156117826Y-113912011D01*
X156099668Y-113940119D01*
X156073611Y-113991999D01*
X156054122Y-114048186D01*
X156041255Y-114107583D01*
X156035064Y-114169090D01*
X156035600Y-114231608D01*
X156042919Y-114294039D01*
X156057072Y-114355283D01*
X156076844Y-114411240D01*
X156100005Y-114458721D01*
X156128507Y-114504248D01*
X156161279Y-114546615D01*
X156197245Y-114584615D01*
X156235334Y-114617040D01*
X156274470Y-114642684D01*
X156289659Y-114650527D01*
X156306896Y-114658154D01*
X156321718Y-114662910D01*
X156337697Y-114665652D01*
X156358405Y-114667238D01*
X156359509Y-114667296D01*
X156402520Y-114667226D01*
X156439907Y-114661956D01*
X156473000Y-114651114D01*
X156503133Y-114634329D01*
X156518380Y-114622877D01*
X156539471Y-114602521D01*
X156557318Y-114578146D01*
X156573091Y-114547997D01*
X156581030Y-114529030D01*
X156594520Y-114498926D01*
X156608554Y-114476841D01*
X156623689Y-114462330D01*
X156640480Y-114454946D01*
X156659485Y-114454241D01*
X156671302Y-114456597D01*
X156691139Y-114465751D01*
X156711220Y-114481807D01*
X156730495Y-114503301D01*
X156747912Y-114528767D01*
X156762423Y-114556741D01*
X156772975Y-114585758D01*
X156777164Y-114604191D01*
X156779660Y-114629723D01*
X156779802Y-114660034D01*
X156777825Y-114692413D01*
X156773965Y-114724147D01*
X156768454Y-114752524D01*
X156762636Y-114772016D01*
X156740181Y-114820134D01*
X156711027Y-114863725D01*
X156675887Y-114902349D01*
X156635479Y-114935566D01*
X156590516Y-114962934D01*
X156541714Y-114984013D01*
X156489788Y-114998363D01*
X156435455Y-115005543D01*
X156383666Y-115005418D01*
X156323568Y-114997270D01*
X156262520Y-114980864D01*
X156200809Y-114956316D01*
X156138723Y-114923745D01*
X156076548Y-114883268D01*
X156066015Y-114875627D01*
X156045512Y-114859274D01*
X156021407Y-114838040D01*
X155995333Y-114813546D01*
X155968919Y-114787419D01*
X155943798Y-114761281D01*
X155921601Y-114736756D01*
X155903958Y-114715469D01*
X155900294Y-114710633D01*
X155855463Y-114642887D01*
X155817297Y-114570307D01*
X155785970Y-114493498D01*
X155761655Y-114413060D01*
X155744526Y-114329598D01*
X155734757Y-114243713D01*
X155732522Y-114156009D01*
X155733269Y-114131228D01*
X155735141Y-114094412D01*
X155737635Y-114061150D01*
X155741025Y-114029877D01*
X155745588Y-113999033D01*
X155751600Y-113967053D01*
X155759336Y-113932376D01*
X155769072Y-113893438D01*
X155781086Y-113848677D01*
X155786816Y-113827983D01*
X155798199Y-113786410D01*
X155807053Y-113752105D01*
X155813459Y-113724280D01*
X155817500Y-113702150D01*
X155819257Y-113684927D01*
X155818811Y-113671825D01*
X155816245Y-113662056D01*
X155811639Y-113654836D01*
X155805352Y-113649554D01*
X155794730Y-113645498D01*
X155779421Y-113644533D01*
X155758757Y-113646750D01*
X155732067Y-113652242D01*
X155698684Y-113661100D01*
X155678717Y-113666989D01*
X155628424Y-113681262D01*
X155574657Y-113694824D01*
X155520420Y-113706992D01*
X155468717Y-113717082D01*
X155433184Y-113722907D01*
X155396488Y-113727066D01*
X155354574Y-113729730D01*
X155309669Y-113730915D01*
X155264000Y-113730639D01*
X155219792Y-113728917D01*
X155179272Y-113725767D01*
X155144668Y-113721205D01*
X155141790Y-113720703D01*
X155075731Y-113706856D01*
X155011102Y-113689400D01*
X154949548Y-113668895D01*
X154892713Y-113645900D01*
X154842242Y-113620976D01*
X154832050Y-113615229D01*
X154766312Y-113572622D01*
X154705141Y-113523770D01*
X154649146Y-113469396D01*
X154598937Y-113410220D01*
X154555123Y-113346966D01*
X154518312Y-113280354D01*
X154489114Y-113211108D01*
X154487662Y-113207011D01*
X154471356Y-113149252D01*
X154462764Y-113091638D01*
X154461760Y-113034871D01*
X154468219Y-112979653D01*
X154482012Y-112926683D01*
X154503015Y-112876665D01*
X154531100Y-112830300D01*
X154562452Y-112792141D01*
X154602973Y-112754901D01*
X154647005Y-112725232D01*
X154694202Y-112703284D01*
X154744222Y-112689210D01*
X154796721Y-112683162D01*
X154809148Y-112682922D01*
X154846672Y-112685555D01*
X154882450Y-112693176D01*
X154915548Y-112705173D01*
X154945034Y-112720932D01*
X154969976Y-112739839D01*
X154989440Y-112761282D01*
X155002493Y-112784646D01*
X155008204Y-112809319D01*
X155008381Y-112813937D01*
X155005951Y-112837028D01*
X154997752Y-112854391D01*
X154983036Y-112867018D01*
X154961704Y-112875714D01*
X154925398Y-112889309D01*
X154891511Y-112907959D01*
X154861613Y-112930510D01*
X154837273Y-112955807D01*
X154822281Y-112978312D01*
X154807167Y-113015016D01*
X154798568Y-113054947D01*
X154796515Y-113096194D01*
X154801037Y-113136845D01*
X154812163Y-113174990D01*
X154819034Y-113190243D01*
X154839517Y-113223313D01*
X154867146Y-113256750D01*
X154900701Y-113289603D01*
X154938966Y-113320919D01*
X154980721Y-113349748D01*
X155024750Y-113375138D01*
X155069833Y-113396137D01*
X155094517Y-113405429D01*
X155135899Y-113416928D01*
X155182628Y-113425317D01*
X155232100Y-113430402D01*
X155281713Y-113431983D01*
X155328863Y-113429864D01*
X155361446Y-113425658D01*
X155423721Y-113410533D01*
X155483712Y-113387388D01*
X155540933Y-113356476D01*
X155594900Y-113318053D01*
X155634365Y-113283086D01*
X155656824Y-113259818D01*
X155678018Y-113235118D01*
X155692055Y-113216806D01*
X156698766Y-113216806D01*
X156699634Y-113248402D01*
X156703748Y-113278363D01*
X156708921Y-113297827D01*
X156726521Y-113336656D01*
X156750812Y-113371180D01*
X156780859Y-113400518D01*
X156815727Y-113423789D01*
X156854480Y-113440111D01*
X156862409Y-113442409D01*
X156887102Y-113446808D01*
X156916109Y-113448547D01*
X156945702Y-113447621D01*
X156972156Y-113444022D01*
X156978174Y-113442617D01*
X157017305Y-113428165D01*
X157052641Y-113406504D01*
X157083507Y-113378300D01*
X157109230Y-113344213D01*
X157129134Y-113304908D01*
X157135199Y-113288233D01*
X157140784Y-113262003D01*
X157142794Y-113228781D01*
X157142799Y-113226849D01*
X157138801Y-113184437D01*
X157127207Y-113144313D01*
X157108614Y-113107455D01*
X157083619Y-113074839D01*
X157052820Y-113047442D01*
X157021400Y-113028430D01*
X156994495Y-113016505D01*
X156970254Y-113009175D01*
X156944893Y-113005545D01*
X156921031Y-113004703D01*
X156878000Y-113008582D01*
X156837714Y-113020155D01*
X156800897Y-113038893D01*
X156768270Y-113064267D01*
X156740556Y-113095751D01*
X156718477Y-113132816D01*
X156706950Y-113161233D01*
X156701190Y-113186705D01*
X156698766Y-113216806D01*
X155692055Y-113216806D01*
X155697113Y-113210208D01*
X155713276Y-113186312D01*
X155725673Y-113164654D01*
X155733470Y-113146457D01*
X155735867Y-113134065D01*
X155733199Y-113123738D01*
X155724806Y-113114904D01*
X155710104Y-113107315D01*
X155688507Y-113100721D01*
X155659431Y-113094874D01*
X155635133Y-113091204D01*
X155577803Y-113082110D01*
X155527529Y-113071246D01*
X155482997Y-113058120D01*
X155442895Y-113042238D01*
X155405908Y-113023107D01*
X155370722Y-113000234D01*
X155349035Y-112983797D01*
X155328293Y-112965959D01*
X155304083Y-112943042D01*
X155278013Y-112916746D01*
X155251693Y-112888768D01*
X155226731Y-112860807D01*
X155204736Y-112834559D01*
X155191543Y-112817546D01*
X155174405Y-112793938D01*
X155158025Y-112770255D01*
X155141669Y-112745309D01*
X155124601Y-112717913D01*
X155106087Y-112686878D01*
X155085392Y-112651018D01*
X155061779Y-112609144D01*
X155054491Y-112596083D01*
X155027774Y-112548753D01*
X155003979Y-112508137D01*
X154982420Y-112473287D01*
X154962413Y-112443258D01*
X154943271Y-112417102D01*
X154924310Y-112393872D01*
X154904844Y-112372623D01*
X154884188Y-112352408D01*
X154866711Y-112336662D01*
X154836341Y-112312884D01*
X154806307Y-112295480D01*
X154775416Y-112284248D01*
X154742476Y-112278985D01*
X154706292Y-112279488D01*
X154665670Y-112285554D01*
X154624617Y-112295524D01*
X154587472Y-112305760D01*
X154557287Y-112313933D01*
X154532879Y-112320295D01*
X154513066Y-112325100D01*
X154496664Y-112328600D01*
X154482489Y-112331049D01*
X154469359Y-112332700D01*
X154456091Y-112333805D01*
X154441928Y-112334597D01*
X154420674Y-112335465D01*
X154405662Y-112335478D01*
X154394687Y-112334392D01*
X154385546Y-112331962D01*
X154376036Y-112327943D01*
X154374195Y-112327070D01*
X154353623Y-112314246D01*
X154332766Y-112296171D01*
X154313816Y-112275182D01*
X154298967Y-112253615D01*
X154292353Y-112239868D01*
X154284826Y-112208413D01*
X154285512Y-112176292D01*
X154294224Y-112143909D01*
X154310778Y-112111665D01*
X154334986Y-112079961D01*
X154366663Y-112049199D01*
X154388879Y-112031581D01*
X154440916Y-111998047D01*
X154495577Y-111972487D01*
X154553065Y-111954838D01*
X154613585Y-111945042D01*
X154677338Y-111943038D01*
X154687856Y-111943437D01*
X154752040Y-111949753D01*
X154812327Y-111962671D01*
X154869449Y-111982527D01*
X154924135Y-112009659D01*
X154977117Y-112044402D01*
X155029124Y-112087093D01*
X155056906Y-112113416D01*
X155084610Y-112141849D01*
X155111325Y-112171409D01*
X155137565Y-112202833D01*
X155163847Y-112236862D01*
X155190688Y-112274236D01*
X155218603Y-112315693D01*
X155248109Y-112361974D01*
X155279721Y-112413817D01*
X155313956Y-112471963D01*
X155345627Y-112527112D01*
X155370568Y-112570217D01*
X155392637Y-112606672D01*
X155412533Y-112637508D01*
X155430952Y-112663751D01*
X155448592Y-112686430D01*
X155466152Y-112706575D01*
X155470570Y-112711291D01*
X155505141Y-112744980D01*
X155538368Y-112771492D01*
X155571539Y-112791696D01*
X155605943Y-112806464D01*
X155616656Y-112809952D01*
X155654087Y-112817255D01*
X155694869Y-112817913D01*
X155737382Y-112812132D01*
X155780004Y-112800117D01*
X155816381Y-112784519D01*
X155837997Y-112772234D01*
X155856799Y-112758962D01*
X155871132Y-112746025D01*
X155879339Y-112734743D01*
X155879631Y-112734074D01*
X155882070Y-112726379D01*
X155882197Y-112719227D01*
X155879351Y-112712081D01*
X155872871Y-112704403D01*
X155862097Y-112695655D01*
X155846367Y-112685298D01*
X155825019Y-112672797D01*
X155797395Y-112657611D01*
X155763383Y-112639497D01*
X155714805Y-112613429D01*
X155672717Y-112589786D01*
X155635837Y-112567631D01*
X155625334Y-112560745D01*
X156022044Y-112560745D01*
X156023647Y-112576457D01*
X156032811Y-112615024D01*
X156048884Y-112651931D01*
X156070821Y-112685468D01*
X156097578Y-112713925D01*
X156116550Y-112728549D01*
X156156129Y-112750316D01*
X156197090Y-112763757D01*
X156239221Y-112768837D01*
X156282311Y-112765527D01*
X156313261Y-112758098D01*
X156350746Y-112742322D01*
X156384311Y-112719705D01*
X156413238Y-112691243D01*
X156436808Y-112657934D01*
X156454303Y-112620775D01*
X156465005Y-112580762D01*
X156468234Y-112543066D01*
X156466181Y-112520693D01*
X156460658Y-112494489D01*
X156452619Y-112467841D01*
X156443015Y-112444139D01*
X156437464Y-112433673D01*
X156412341Y-112399526D01*
X156381609Y-112370854D01*
X156346412Y-112348314D01*
X156307897Y-112332561D01*
X156267207Y-112324254D01*
X156244717Y-112323095D01*
X156202811Y-112327175D01*
X156163599Y-112338666D01*
X156127765Y-112356785D01*
X156095994Y-112380747D01*
X156068971Y-112409767D01*
X156047380Y-112443062D01*
X156031905Y-112479846D01*
X156023232Y-112519336D01*
X156022044Y-112560745D01*
X155625334Y-112560745D01*
X155602884Y-112546027D01*
X155572576Y-112524039D01*
X155543633Y-112500731D01*
X155514771Y-112475167D01*
X155484711Y-112446411D01*
X155452170Y-112413526D01*
X155447757Y-112408969D01*
X155392278Y-112347952D01*
X155344873Y-112287989D01*
X155305282Y-112228641D01*
X155273246Y-112169469D01*
X155248505Y-112110034D01*
X155230799Y-112049895D01*
X155227981Y-112037283D01*
X155222098Y-112001564D01*
X155218086Y-111960422D01*
X155216067Y-111916716D01*
X155216163Y-111873305D01*
X155218495Y-111833051D01*
X155219045Y-111827473D01*
X155229383Y-111755331D01*
X155245194Y-111685844D01*
X155266750Y-111618596D01*
X155294327Y-111553175D01*
X155328197Y-111489167D01*
X155368634Y-111426158D01*
X155415913Y-111363735D01*
X155470308Y-111301483D01*
X155532092Y-111238989D01*
X155601539Y-111175840D01*
X155678924Y-111111621D01*
X155708350Y-111088493D01*
X155728653Y-111072949D01*
X155750800Y-111056414D01*
X155775491Y-111038390D01*
X155803425Y-111018386D01*
X155835299Y-110995904D01*
X155871814Y-110970452D01*
X155913667Y-110941534D01*
X155961556Y-110908655D01*
X155985633Y-110892182D01*
X156038946Y-110855248D01*
X156085459Y-110821881D01*
X156125771Y-110791526D01*
X156160480Y-110763633D01*
X156190184Y-110737647D01*
X156215481Y-110713016D01*
X156236969Y-110689187D01*
X156255246Y-110665608D01*
X156270910Y-110641725D01*
X156284559Y-110616985D01*
X156285628Y-110614859D01*
X156298543Y-110586675D01*
X156306673Y-110562573D01*
X156310615Y-110540098D01*
X156310966Y-110516798D01*
X156310672Y-110512020D01*
X156308518Y-110494457D01*
X156304216Y-110478173D01*
X156296954Y-110461391D01*
X156285923Y-110442334D01*
X156270314Y-110419224D01*
X156264939Y-110411683D01*
X156248012Y-110387321D01*
X156236280Y-110367906D01*
X156229408Y-110351972D01*
X156227061Y-110338054D01*
X156228904Y-110324688D01*
X156234601Y-110310409D01*
X156239615Y-110300997D01*
X156245689Y-110291154D01*
X156255850Y-110275733D01*
X156269220Y-110256017D01*
X156284925Y-110233290D01*
X156302090Y-110208833D01*
X156312640Y-110193981D01*
X156344091Y-110149270D01*
X156371006Y-110109486D01*
X156394326Y-110073105D01*
X156414996Y-110038601D01*
X156433958Y-110004448D01*
X156452156Y-109969120D01*
X156454167Y-109965066D01*
X156479137Y-109910891D01*
X156498530Y-109859905D01*
X156512982Y-109809663D01*
X156523127Y-109757719D01*
X156529603Y-109701627D01*
X156531959Y-109665588D01*
X156533994Y-109631031D01*
X156536486Y-109604036D01*
X156539820Y-109583700D01*
X156544382Y-109569118D01*
X156550558Y-109559386D01*
X156558734Y-109553600D01*
X156569296Y-109550856D01*
X156581197Y-109550241D01*
X156602605Y-109553642D01*
D16*
X116060000Y-105502000D02*
X116060000Y-109382000D01*
X120530000Y-110552000D02*
X120530000Y-109502000D01*
X118030000Y-110552000D02*
X120530000Y-110552000D01*
X120530000Y-105382000D02*
X121520000Y-105382000D01*
X120530000Y-104332000D02*
X120530000Y-105382000D01*
X118030000Y-104332000D02*
X120530000Y-104332000D01*
X118030000Y-95442000D02*
X120530000Y-95442000D01*
X120530000Y-95442000D02*
X120530000Y-96492000D01*
X120530000Y-96492000D02*
X121520000Y-96492000D01*
X118030000Y-101662000D02*
X120530000Y-101662000D01*
X120530000Y-101662000D02*
X120530000Y-100612000D01*
X116060000Y-96612000D02*
X116060000Y-100492000D01*
X133586000Y-113300000D02*
X137686000Y-113300000D01*
X137686000Y-113300000D02*
X137686000Y-115300000D01*
X137686000Y-115300000D02*
X133586000Y-115300000D01*
X133586000Y-115300000D02*
X133586000Y-113300000D01*
X134336000Y-115500000D02*
X134036000Y-115800000D01*
X134036000Y-115800000D02*
X134636000Y-115800000D01*
X134336000Y-115500000D02*
X134636000Y-115800000D01*
X165025500Y-113179500D02*
X166825500Y-113179500D01*
X166825500Y-109959500D02*
X164375500Y-109959500D01*
X140305000Y-115500000D02*
X140605000Y-115800000D01*
X140005000Y-115800000D02*
X140605000Y-115800000D01*
X140305000Y-115500000D02*
X140005000Y-115800000D01*
X139555000Y-115300000D02*
X139555000Y-113300000D01*
X143655000Y-115300000D02*
X139555000Y-115300000D01*
X143655000Y-113300000D02*
X143655000Y-115300000D01*
X139555000Y-113300000D02*
X143655000Y-113300000D01*
X173674000Y-114808000D02*
G75*
G03*
X173674000Y-114808000I-700000J0D01*
G01*
X126454000Y-98017000D02*
X128739000Y-98017000D01*
X128739000Y-98017000D02*
X128739000Y-96547000D01*
X128739000Y-96547000D02*
X126454000Y-96547000D01*
X173674000Y-112776000D02*
G75*
G03*
X173674000Y-112776000I-700000J0D01*
G01*
X156275000Y-109474000D02*
G75*
G03*
X156275000Y-109474000I-700000J0D01*
G01*
X125820400Y-115849400D02*
G75*
G03*
X125820400Y-115849400I-700000J0D01*
G01*
X125820400Y-113436400D02*
G75*
G03*
X125820400Y-113436400I-700000J0D01*
G01*
M02*
