G04 #@! TF.GenerationSoftware,KiCad,Pcbnew,5.99.0+really5.1.10+dfsg1-1*
G04 #@! TF.CreationDate,2022-03-07T14:48:36+01:00*
G04 #@! TF.ProjectId,Raspberry Pi Zero W,52617370-6265-4727-9279-205069205a65,1.0.8*
G04 #@! TF.SameCoordinates,Original*
G04 #@! TF.FileFunction,Soldermask,Bot*
G04 #@! TF.FilePolarity,Negative*
%FSLAX46Y46*%
G04 Gerber Fmt 4.6, Leading zero omitted, Abs format (unit mm)*
G04 Created by KiCad (PCBNEW 5.99.0+really5.1.10+dfsg1-1) date 2022-03-07 14:48:36*
%MOMM*%
%LPD*%
G01*
G04 APERTURE LIST*
%ADD10C,1.254000*%
%ADD11C,6.200000*%
%ADD12O,1.802000X2.102000*%
%ADD13O,1.802000X2.052000*%
%ADD14O,1.802000X1.802000*%
%ADD15C,0.100000*%
G04 APERTURE END LIST*
D10*
X123380500Y-116586000D03*
X173736000Y-116776500D03*
D11*
X177507900Y-114579400D03*
G36*
G01*
X173597000Y-97560000D02*
X173597000Y-95988000D01*
G75*
G02*
X173862000Y-95723000I265000J0D01*
G01*
X175134000Y-95723000D01*
G75*
G02*
X175399000Y-95988000I0J-265000D01*
G01*
X175399000Y-97560000D01*
G75*
G02*
X175134000Y-97825000I-265000J0D01*
G01*
X173862000Y-97825000D01*
G75*
G02*
X173597000Y-97560000I0J265000D01*
G01*
G37*
D12*
X176998000Y-96774000D03*
G36*
G01*
X159620000Y-97535000D02*
X159620000Y-96013000D01*
G75*
G02*
X159885000Y-95748000I265000J0D01*
G01*
X161157000Y-95748000D01*
G75*
G02*
X161422000Y-96013000I0J-265000D01*
G01*
X161422000Y-97535000D01*
G75*
G02*
X161157000Y-97800000I-265000J0D01*
G01*
X159885000Y-97800000D01*
G75*
G02*
X159620000Y-97535000I0J265000D01*
G01*
G37*
D13*
X163021000Y-96774000D03*
X165521000Y-96774000D03*
X168021000Y-96774000D03*
X154058000Y-96774000D03*
X151558000Y-96774000D03*
X149058000Y-96774000D03*
G36*
G01*
X145657000Y-97535000D02*
X145657000Y-96013000D01*
G75*
G02*
X145922000Y-95748000I265000J0D01*
G01*
X147194000Y-95748000D01*
G75*
G02*
X147459000Y-96013000I0J-265000D01*
G01*
X147459000Y-97535000D01*
G75*
G02*
X147194000Y-97800000I-265000J0D01*
G01*
X145922000Y-97800000D01*
G75*
G02*
X145657000Y-97535000I0J265000D01*
G01*
G37*
D11*
X177600000Y-91500000D03*
X119500000Y-91500000D03*
X119600000Y-114500000D03*
G36*
G01*
X123533800Y-91783600D02*
X125233800Y-91783600D01*
G75*
G02*
X125284800Y-91834600I0J-51000D01*
G01*
X125284800Y-93534600D01*
G75*
G02*
X125233800Y-93585600I-51000J0D01*
G01*
X123533800Y-93585600D01*
G75*
G02*
X123482800Y-93534600I0J51000D01*
G01*
X123482800Y-91834600D01*
G75*
G02*
X123533800Y-91783600I51000J0D01*
G01*
G37*
D14*
X124383800Y-90144600D03*
X126923800Y-92684600D03*
X126923800Y-90144600D03*
X129463800Y-92684600D03*
X129463800Y-90144600D03*
X132003800Y-92684600D03*
X132003800Y-90144600D03*
X134543800Y-92684600D03*
X134543800Y-90144600D03*
X137083800Y-92684600D03*
X137083800Y-90144600D03*
X139623800Y-92684600D03*
X139623800Y-90144600D03*
X142163800Y-92684600D03*
X142163800Y-90144600D03*
X144703800Y-92684600D03*
X144703800Y-90144600D03*
X147243800Y-92684600D03*
X147243800Y-90144600D03*
X149783800Y-92684600D03*
X149783800Y-90144600D03*
X152323800Y-92684600D03*
X152323800Y-90144600D03*
X154863800Y-92684600D03*
X154863800Y-90144600D03*
X157403800Y-92684600D03*
X157403800Y-90144600D03*
X159943800Y-92684600D03*
X159943800Y-90144600D03*
X162483800Y-92684600D03*
X162483800Y-90144600D03*
X165023800Y-92684600D03*
X165023800Y-90144600D03*
X167563800Y-92684600D03*
X167563800Y-90144600D03*
X170103800Y-92684600D03*
X170103800Y-90144600D03*
X172643800Y-92684600D03*
X172643800Y-90144600D03*
G36*
G01*
X139724000Y-115050000D02*
X139724000Y-113550000D01*
G75*
G02*
X139775000Y-113499000I51000J0D01*
G01*
X140775000Y-113499000D01*
G75*
G02*
X140826000Y-113550000I0J-51000D01*
G01*
X140826000Y-115050000D01*
G75*
G02*
X140775000Y-115101000I-51000J0D01*
G01*
X139775000Y-115101000D01*
G75*
G02*
X139724000Y-115050000I0J51000D01*
G01*
G37*
G36*
G01*
X142324000Y-115050000D02*
X142324000Y-113550000D01*
G75*
G02*
X142375000Y-113499000I51000J0D01*
G01*
X143375000Y-113499000D01*
G75*
G02*
X143426000Y-113550000I0J-51000D01*
G01*
X143426000Y-115050000D01*
G75*
G02*
X143375000Y-115101000I-51000J0D01*
G01*
X142375000Y-115101000D01*
G75*
G02*
X142324000Y-115050000I0J51000D01*
G01*
G37*
G36*
G01*
X141024000Y-115050000D02*
X141024000Y-113550000D01*
G75*
G02*
X141075000Y-113499000I51000J0D01*
G01*
X142075000Y-113499000D01*
G75*
G02*
X142126000Y-113550000I0J-51000D01*
G01*
X142126000Y-115050000D01*
G75*
G02*
X142075000Y-115101000I-51000J0D01*
G01*
X141075000Y-115101000D01*
G75*
G02*
X141024000Y-115050000I0J51000D01*
G01*
G37*
G36*
G01*
X133785000Y-115050000D02*
X133785000Y-113550000D01*
G75*
G02*
X133836000Y-113499000I51000J0D01*
G01*
X134836000Y-113499000D01*
G75*
G02*
X134887000Y-113550000I0J-51000D01*
G01*
X134887000Y-115050000D01*
G75*
G02*
X134836000Y-115101000I-51000J0D01*
G01*
X133836000Y-115101000D01*
G75*
G02*
X133785000Y-115050000I0J51000D01*
G01*
G37*
G36*
G01*
X136385000Y-115050000D02*
X136385000Y-113550000D01*
G75*
G02*
X136436000Y-113499000I51000J0D01*
G01*
X137436000Y-113499000D01*
G75*
G02*
X137487000Y-113550000I0J-51000D01*
G01*
X137487000Y-115050000D01*
G75*
G02*
X137436000Y-115101000I-51000J0D01*
G01*
X136436000Y-115101000D01*
G75*
G02*
X136385000Y-115050000I0J51000D01*
G01*
G37*
G36*
G01*
X135085000Y-115050000D02*
X135085000Y-113550000D01*
G75*
G02*
X135136000Y-113499000I51000J0D01*
G01*
X136136000Y-113499000D01*
G75*
G02*
X136187000Y-113550000I0J-51000D01*
G01*
X136187000Y-115050000D01*
G75*
G02*
X136136000Y-115101000I-51000J0D01*
G01*
X135136000Y-115101000D01*
G75*
G02*
X135085000Y-115050000I0J51000D01*
G01*
G37*
D15*
G36*
X127419020Y-98643950D02*
G01*
X127416118Y-98653517D01*
X127411405Y-98662334D01*
X127405062Y-98670062D01*
X127397334Y-98676405D01*
X127388517Y-98681118D01*
X127378950Y-98684020D01*
X127369000Y-98685000D01*
X125869000Y-98685000D01*
X125859050Y-98684020D01*
X125849483Y-98681118D01*
X125840666Y-98676405D01*
X125832938Y-98670062D01*
X125826595Y-98662334D01*
X125821882Y-98653517D01*
X125818980Y-98643950D01*
X125818000Y-98634000D01*
X125818000Y-97484000D01*
X125818980Y-97474050D01*
X125821882Y-97464483D01*
X125826595Y-97455666D01*
X125832938Y-97447938D01*
X125840666Y-97441595D01*
X125849483Y-97436882D01*
X125859050Y-97433980D01*
X125869000Y-97433000D01*
X125878950Y-97433980D01*
X125888517Y-97436882D01*
X125897290Y-97441565D01*
X126619000Y-97922705D01*
X127340710Y-97441565D01*
X127349532Y-97436862D01*
X127359103Y-97433970D01*
X127369053Y-97433000D01*
X127379002Y-97433990D01*
X127388566Y-97436903D01*
X127397378Y-97441625D01*
X127405100Y-97447975D01*
X127411435Y-97455710D01*
X127416138Y-97464532D01*
X127419030Y-97474103D01*
X127420000Y-97484000D01*
X127420000Y-98634000D01*
X127419020Y-98643950D01*
G37*
G36*
X127419020Y-97193950D02*
G01*
X127416118Y-97203517D01*
X127411405Y-97212334D01*
X127405062Y-97220062D01*
X127397290Y-97226435D01*
X126647290Y-97726435D01*
X126638468Y-97731138D01*
X126628897Y-97734030D01*
X126618947Y-97735000D01*
X126608998Y-97734010D01*
X126599434Y-97731097D01*
X126590710Y-97726435D01*
X125840710Y-97226435D01*
X125832975Y-97220100D01*
X125826625Y-97212378D01*
X125821903Y-97203566D01*
X125818990Y-97194002D01*
X125818000Y-97184000D01*
X125818000Y-96184000D01*
X125818980Y-96174050D01*
X125821882Y-96164483D01*
X125826595Y-96155666D01*
X125832938Y-96147938D01*
X125840666Y-96141595D01*
X125849483Y-96136882D01*
X125859050Y-96133980D01*
X125869000Y-96133000D01*
X127369000Y-96133000D01*
X127378950Y-96133980D01*
X127388517Y-96136882D01*
X127397334Y-96141595D01*
X127405062Y-96147938D01*
X127411405Y-96155666D01*
X127416118Y-96164483D01*
X127419020Y-96174050D01*
X127420000Y-96184000D01*
X127420000Y-97184000D01*
X127419020Y-97193950D01*
G37*
G36*
X129959020Y-97193950D02*
G01*
X129956118Y-97203517D01*
X129951405Y-97212334D01*
X129945062Y-97220062D01*
X129937290Y-97226435D01*
X129187290Y-97726435D01*
X129178468Y-97731138D01*
X129168897Y-97734030D01*
X129158947Y-97735000D01*
X129148998Y-97734010D01*
X129139434Y-97731097D01*
X129130710Y-97726435D01*
X128380710Y-97226435D01*
X128372975Y-97220100D01*
X128366625Y-97212378D01*
X128361903Y-97203566D01*
X128358990Y-97194002D01*
X128358000Y-97184000D01*
X128358000Y-96184000D01*
X128358980Y-96174050D01*
X128361882Y-96164483D01*
X128366595Y-96155666D01*
X128372938Y-96147938D01*
X128380666Y-96141595D01*
X128389483Y-96136882D01*
X128399050Y-96133980D01*
X128409000Y-96133000D01*
X129909000Y-96133000D01*
X129918950Y-96133980D01*
X129928517Y-96136882D01*
X129937334Y-96141595D01*
X129945062Y-96147938D01*
X129951405Y-96155666D01*
X129956118Y-96164483D01*
X129959020Y-96174050D01*
X129960000Y-96184000D01*
X129960000Y-97184000D01*
X129959020Y-97193950D01*
G37*
G36*
X129959020Y-98643950D02*
G01*
X129956118Y-98653517D01*
X129951405Y-98662334D01*
X129945062Y-98670062D01*
X129937334Y-98676405D01*
X129928517Y-98681118D01*
X129918950Y-98684020D01*
X129909000Y-98685000D01*
X128409000Y-98685000D01*
X128399050Y-98684020D01*
X128389483Y-98681118D01*
X128380666Y-98676405D01*
X128372938Y-98670062D01*
X128366595Y-98662334D01*
X128361882Y-98653517D01*
X128358980Y-98643950D01*
X128358000Y-98634000D01*
X128358000Y-97484000D01*
X128358980Y-97474050D01*
X128361882Y-97464483D01*
X128366595Y-97455666D01*
X128372938Y-97447938D01*
X128380666Y-97441595D01*
X128389483Y-97436882D01*
X128399050Y-97433980D01*
X128409000Y-97433000D01*
X128418950Y-97433980D01*
X128428517Y-97436882D01*
X128437290Y-97441565D01*
X129159000Y-97922705D01*
X129880710Y-97441565D01*
X129889532Y-97436862D01*
X129899103Y-97433970D01*
X129909053Y-97433000D01*
X129919002Y-97433990D01*
X129928566Y-97436903D01*
X129937378Y-97441625D01*
X129945100Y-97447975D01*
X129951435Y-97455710D01*
X129956138Y-97464532D01*
X129959030Y-97474103D01*
X129960000Y-97484000D01*
X129960000Y-98634000D01*
X129959020Y-98643950D01*
G37*
G36*
X135086732Y-113498000D02*
G01*
X135087000Y-113499000D01*
X135087000Y-115101000D01*
X135086000Y-115102732D01*
X135085000Y-115103000D01*
X134887000Y-115103000D01*
X134885268Y-115102000D01*
X134885000Y-115101000D01*
X134885000Y-113499000D01*
X134886000Y-113497268D01*
X134887000Y-113497000D01*
X135085000Y-113497000D01*
X135086732Y-113498000D01*
G37*
G36*
X141025732Y-113498000D02*
G01*
X141026000Y-113499000D01*
X141026000Y-115101000D01*
X141025000Y-115102732D01*
X141024000Y-115103000D01*
X140826000Y-115103000D01*
X140824268Y-115102000D01*
X140824000Y-115101000D01*
X140824000Y-113499000D01*
X140825000Y-113497268D01*
X140826000Y-113497000D01*
X141024000Y-113497000D01*
X141025732Y-113498000D01*
G37*
G36*
X136386732Y-113498000D02*
G01*
X136387000Y-113499000D01*
X136387000Y-115101000D01*
X136386000Y-115102732D01*
X136385000Y-115103000D01*
X136187000Y-115103000D01*
X136185268Y-115102000D01*
X136185000Y-115101000D01*
X136185000Y-113499000D01*
X136186000Y-113497268D01*
X136187000Y-113497000D01*
X136385000Y-113497000D01*
X136386732Y-113498000D01*
G37*
G36*
X142325732Y-113498000D02*
G01*
X142326000Y-113499000D01*
X142326000Y-115101000D01*
X142325000Y-115102732D01*
X142324000Y-115103000D01*
X142126000Y-115103000D01*
X142124268Y-115102000D01*
X142124000Y-115101000D01*
X142124000Y-113499000D01*
X142125000Y-113497268D01*
X142126000Y-113497000D01*
X142324000Y-113497000D01*
X142325732Y-113498000D01*
G37*
G36*
X128387774Y-97228741D02*
G01*
X129131734Y-97724714D01*
X129140206Y-97729241D01*
X129149392Y-97732040D01*
X129158946Y-97732990D01*
X129168507Y-97732058D01*
X129177702Y-97729280D01*
X129186267Y-97724714D01*
X129930226Y-97228741D01*
X129932221Y-97228612D01*
X129933331Y-97230276D01*
X129932602Y-97231952D01*
X129913798Y-97247351D01*
X129898483Y-97265973D01*
X129887093Y-97287227D01*
X129880070Y-97310290D01*
X129877683Y-97334278D01*
X129880021Y-97358282D01*
X129886994Y-97381354D01*
X129898341Y-97402635D01*
X129913582Y-97421247D01*
X129928829Y-97432579D01*
X129928966Y-97432896D01*
X129935929Y-97438623D01*
X129936632Y-97440496D01*
X129935362Y-97442041D01*
X129933714Y-97441931D01*
X129927793Y-97438758D01*
X129918608Y-97435960D01*
X129909054Y-97435010D01*
X129899493Y-97435942D01*
X129890298Y-97438720D01*
X129881733Y-97443286D01*
X129160109Y-97924369D01*
X129157891Y-97924369D01*
X128436263Y-97443283D01*
X128427751Y-97438740D01*
X128418555Y-97435950D01*
X128409000Y-97435009D01*
X128399445Y-97435950D01*
X128390252Y-97438739D01*
X128384332Y-97441904D01*
X128382333Y-97441838D01*
X128381390Y-97440075D01*
X128382120Y-97438594D01*
X128383909Y-97437125D01*
X128384067Y-97437008D01*
X128395343Y-97429474D01*
X128412389Y-97412426D01*
X128425784Y-97392379D01*
X128435010Y-97370105D01*
X128439714Y-97346455D01*
X128439714Y-97322349D01*
X128435009Y-97298698D01*
X128425783Y-97276425D01*
X128412388Y-97256377D01*
X128395307Y-97239298D01*
X128385474Y-97232012D01*
X128384678Y-97230177D01*
X128385869Y-97228570D01*
X128387774Y-97228741D01*
G37*
G36*
X125847774Y-97228741D02*
G01*
X126591734Y-97724714D01*
X126600206Y-97729241D01*
X126609392Y-97732040D01*
X126618946Y-97732990D01*
X126628507Y-97732058D01*
X126637702Y-97729280D01*
X126646267Y-97724714D01*
X127390226Y-97228741D01*
X127392221Y-97228612D01*
X127393331Y-97230276D01*
X127392602Y-97231952D01*
X127373798Y-97247351D01*
X127358483Y-97265973D01*
X127347093Y-97287227D01*
X127340070Y-97310290D01*
X127337683Y-97334278D01*
X127340021Y-97358282D01*
X127346994Y-97381354D01*
X127358341Y-97402635D01*
X127373582Y-97421247D01*
X127388829Y-97432579D01*
X127388966Y-97432896D01*
X127395929Y-97438623D01*
X127396632Y-97440496D01*
X127395362Y-97442041D01*
X127393714Y-97441931D01*
X127387793Y-97438758D01*
X127378608Y-97435960D01*
X127369054Y-97435010D01*
X127359493Y-97435942D01*
X127350298Y-97438720D01*
X127341733Y-97443286D01*
X126620109Y-97924369D01*
X126617891Y-97924369D01*
X125896263Y-97443283D01*
X125887751Y-97438740D01*
X125878555Y-97435950D01*
X125869000Y-97435009D01*
X125859445Y-97435950D01*
X125850252Y-97438739D01*
X125844332Y-97441904D01*
X125842333Y-97441838D01*
X125841390Y-97440075D01*
X125842120Y-97438594D01*
X125843909Y-97437125D01*
X125844067Y-97437008D01*
X125855343Y-97429474D01*
X125872389Y-97412426D01*
X125885784Y-97392379D01*
X125895010Y-97370105D01*
X125899714Y-97346455D01*
X125899714Y-97322349D01*
X125895009Y-97298698D01*
X125885783Y-97276425D01*
X125872388Y-97256377D01*
X125855307Y-97239298D01*
X125845474Y-97232012D01*
X125844678Y-97230177D01*
X125845869Y-97228570D01*
X125847774Y-97228741D01*
G37*
G36*
X175400165Y-97558374D02*
G01*
X175401000Y-97560000D01*
X175401000Y-97642097D01*
X175400990Y-97642293D01*
X175397001Y-97682796D01*
X175396925Y-97683181D01*
X175386899Y-97716233D01*
X175386749Y-97716595D01*
X175370472Y-97747046D01*
X175370254Y-97747372D01*
X175348345Y-97774068D01*
X175348068Y-97774345D01*
X175321372Y-97796254D01*
X175321046Y-97796472D01*
X175290595Y-97812749D01*
X175290233Y-97812899D01*
X175257181Y-97822925D01*
X175256796Y-97823001D01*
X175216293Y-97826990D01*
X175216097Y-97827000D01*
X175134000Y-97827000D01*
X175132268Y-97826000D01*
X175132268Y-97824000D01*
X175133804Y-97823010D01*
X175185304Y-97817938D01*
X175234642Y-97802971D01*
X175280110Y-97778668D01*
X175319962Y-97745962D01*
X175352668Y-97706110D01*
X175376971Y-97660642D01*
X175391938Y-97611304D01*
X175397010Y-97559804D01*
X175398175Y-97558178D01*
X175400165Y-97558374D01*
G37*
G36*
X173598990Y-97559804D02*
G01*
X173604062Y-97611304D01*
X173619029Y-97660642D01*
X173643332Y-97706110D01*
X173676038Y-97745962D01*
X173715890Y-97778668D01*
X173761358Y-97802971D01*
X173810696Y-97817938D01*
X173862196Y-97823010D01*
X173863822Y-97824175D01*
X173863626Y-97826165D01*
X173862000Y-97827000D01*
X173779903Y-97827000D01*
X173779707Y-97826990D01*
X173739204Y-97823001D01*
X173738819Y-97822925D01*
X173705767Y-97812899D01*
X173705405Y-97812749D01*
X173674954Y-97796472D01*
X173674628Y-97796254D01*
X173647932Y-97774345D01*
X173647655Y-97774068D01*
X173625746Y-97747372D01*
X173625528Y-97747046D01*
X173609251Y-97716595D01*
X173609101Y-97716233D01*
X173599075Y-97683181D01*
X173598999Y-97682796D01*
X173595010Y-97642293D01*
X173595000Y-97642097D01*
X173595000Y-97560000D01*
X173596000Y-97558268D01*
X173598000Y-97558268D01*
X173598990Y-97559804D01*
G37*
G36*
X145658990Y-97534804D02*
G01*
X145664062Y-97586304D01*
X145679029Y-97635642D01*
X145703332Y-97681110D01*
X145736038Y-97720962D01*
X145775890Y-97753668D01*
X145821358Y-97777971D01*
X145870696Y-97792938D01*
X145922196Y-97798010D01*
X145923822Y-97799175D01*
X145923626Y-97801165D01*
X145922000Y-97802000D01*
X145839903Y-97802000D01*
X145839707Y-97801990D01*
X145799204Y-97798001D01*
X145798819Y-97797925D01*
X145765767Y-97787899D01*
X145765405Y-97787749D01*
X145734954Y-97771472D01*
X145734628Y-97771254D01*
X145707932Y-97749345D01*
X145707655Y-97749068D01*
X145685746Y-97722372D01*
X145685528Y-97722046D01*
X145669251Y-97691595D01*
X145669101Y-97691233D01*
X145659075Y-97658181D01*
X145658999Y-97657796D01*
X145655010Y-97617293D01*
X145655000Y-97617097D01*
X145655000Y-97535000D01*
X145656000Y-97533268D01*
X145658000Y-97533268D01*
X145658990Y-97534804D01*
G37*
G36*
X159621990Y-97534804D02*
G01*
X159627062Y-97586304D01*
X159642029Y-97635642D01*
X159666332Y-97681110D01*
X159699038Y-97720962D01*
X159738890Y-97753668D01*
X159784358Y-97777971D01*
X159833696Y-97792938D01*
X159885196Y-97798010D01*
X159886822Y-97799175D01*
X159886626Y-97801165D01*
X159885000Y-97802000D01*
X159802903Y-97802000D01*
X159802707Y-97801990D01*
X159762204Y-97798001D01*
X159761819Y-97797925D01*
X159728767Y-97787899D01*
X159728405Y-97787749D01*
X159697954Y-97771472D01*
X159697628Y-97771254D01*
X159670932Y-97749345D01*
X159670655Y-97749068D01*
X159648746Y-97722372D01*
X159648528Y-97722046D01*
X159632251Y-97691595D01*
X159632101Y-97691233D01*
X159622075Y-97658181D01*
X159621999Y-97657796D01*
X159618010Y-97617293D01*
X159618000Y-97617097D01*
X159618000Y-97535000D01*
X159619000Y-97533268D01*
X159621000Y-97533268D01*
X159621990Y-97534804D01*
G37*
G36*
X147460165Y-97533374D02*
G01*
X147461000Y-97535000D01*
X147461000Y-97617097D01*
X147460990Y-97617293D01*
X147457001Y-97657796D01*
X147456925Y-97658181D01*
X147446899Y-97691233D01*
X147446749Y-97691595D01*
X147430472Y-97722046D01*
X147430254Y-97722372D01*
X147408345Y-97749068D01*
X147408068Y-97749345D01*
X147381372Y-97771254D01*
X147381046Y-97771472D01*
X147350595Y-97787749D01*
X147350233Y-97787899D01*
X147317181Y-97797925D01*
X147316796Y-97798001D01*
X147276293Y-97801990D01*
X147276097Y-97802000D01*
X147194000Y-97802000D01*
X147192268Y-97801000D01*
X147192268Y-97799000D01*
X147193804Y-97798010D01*
X147245304Y-97792938D01*
X147294642Y-97777971D01*
X147340110Y-97753668D01*
X147379962Y-97720962D01*
X147412668Y-97681110D01*
X147436971Y-97635642D01*
X147451938Y-97586304D01*
X147457010Y-97534804D01*
X147458175Y-97533178D01*
X147460165Y-97533374D01*
G37*
G36*
X161423165Y-97533374D02*
G01*
X161424000Y-97535000D01*
X161424000Y-97617097D01*
X161423990Y-97617293D01*
X161420001Y-97657796D01*
X161419925Y-97658181D01*
X161409899Y-97691233D01*
X161409749Y-97691595D01*
X161393472Y-97722046D01*
X161393254Y-97722372D01*
X161371345Y-97749068D01*
X161371068Y-97749345D01*
X161344372Y-97771254D01*
X161344046Y-97771472D01*
X161313595Y-97787749D01*
X161313233Y-97787899D01*
X161280181Y-97797925D01*
X161279796Y-97798001D01*
X161239293Y-97801990D01*
X161239097Y-97802000D01*
X161157000Y-97802000D01*
X161155268Y-97801000D01*
X161155268Y-97799000D01*
X161156804Y-97798010D01*
X161208304Y-97792938D01*
X161257642Y-97777971D01*
X161303110Y-97753668D01*
X161342962Y-97720962D01*
X161375668Y-97681110D01*
X161399971Y-97635642D01*
X161414938Y-97586304D01*
X161420010Y-97534804D01*
X161421175Y-97533178D01*
X161423165Y-97533374D01*
G37*
G36*
X145923732Y-95747000D02*
G01*
X145923732Y-95749000D01*
X145922196Y-95749990D01*
X145870696Y-95755062D01*
X145821358Y-95770029D01*
X145775890Y-95794332D01*
X145736038Y-95827038D01*
X145703332Y-95866890D01*
X145679029Y-95912358D01*
X145664062Y-95961696D01*
X145658990Y-96013196D01*
X145657825Y-96014822D01*
X145655835Y-96014626D01*
X145655000Y-96013000D01*
X145655000Y-95930903D01*
X145655010Y-95930707D01*
X145658999Y-95890204D01*
X145659075Y-95889819D01*
X145669101Y-95856767D01*
X145669251Y-95856405D01*
X145685528Y-95825954D01*
X145685746Y-95825628D01*
X145707655Y-95798932D01*
X145707932Y-95798655D01*
X145734628Y-95776746D01*
X145734954Y-95776528D01*
X145765405Y-95760251D01*
X145765767Y-95760101D01*
X145798819Y-95750075D01*
X145799204Y-95749999D01*
X145839707Y-95746010D01*
X145839903Y-95746000D01*
X145922000Y-95746000D01*
X145923732Y-95747000D01*
G37*
G36*
X159886732Y-95747000D02*
G01*
X159886732Y-95749000D01*
X159885196Y-95749990D01*
X159833696Y-95755062D01*
X159784358Y-95770029D01*
X159738890Y-95794332D01*
X159699038Y-95827038D01*
X159666332Y-95866890D01*
X159642029Y-95912358D01*
X159627062Y-95961696D01*
X159621990Y-96013196D01*
X159620825Y-96014822D01*
X159618835Y-96014626D01*
X159618000Y-96013000D01*
X159618000Y-95930903D01*
X159618010Y-95930707D01*
X159621999Y-95890204D01*
X159622075Y-95889819D01*
X159632101Y-95856767D01*
X159632251Y-95856405D01*
X159648528Y-95825954D01*
X159648746Y-95825628D01*
X159670655Y-95798932D01*
X159670932Y-95798655D01*
X159697628Y-95776746D01*
X159697954Y-95776528D01*
X159728405Y-95760251D01*
X159728767Y-95760101D01*
X159761819Y-95750075D01*
X159762204Y-95749999D01*
X159802707Y-95746010D01*
X159802903Y-95746000D01*
X159885000Y-95746000D01*
X159886732Y-95747000D01*
G37*
G36*
X147276293Y-95746010D02*
G01*
X147316796Y-95749999D01*
X147317181Y-95750075D01*
X147350233Y-95760101D01*
X147350595Y-95760251D01*
X147381046Y-95776528D01*
X147381372Y-95776746D01*
X147408068Y-95798655D01*
X147408345Y-95798932D01*
X147430254Y-95825628D01*
X147430472Y-95825954D01*
X147446749Y-95856405D01*
X147446899Y-95856767D01*
X147456925Y-95889819D01*
X147457001Y-95890204D01*
X147460990Y-95930707D01*
X147461000Y-95930903D01*
X147461000Y-96013000D01*
X147460000Y-96014732D01*
X147458000Y-96014732D01*
X147457010Y-96013196D01*
X147451938Y-95961696D01*
X147436971Y-95912358D01*
X147412668Y-95866890D01*
X147379962Y-95827038D01*
X147340110Y-95794332D01*
X147294642Y-95770029D01*
X147245304Y-95755062D01*
X147193804Y-95749990D01*
X147192178Y-95748825D01*
X147192374Y-95746835D01*
X147194000Y-95746000D01*
X147276097Y-95746000D01*
X147276293Y-95746010D01*
G37*
G36*
X161239293Y-95746010D02*
G01*
X161279796Y-95749999D01*
X161280181Y-95750075D01*
X161313233Y-95760101D01*
X161313595Y-95760251D01*
X161344046Y-95776528D01*
X161344372Y-95776746D01*
X161371068Y-95798655D01*
X161371345Y-95798932D01*
X161393254Y-95825628D01*
X161393472Y-95825954D01*
X161409749Y-95856405D01*
X161409899Y-95856767D01*
X161419925Y-95889819D01*
X161420001Y-95890204D01*
X161423990Y-95930707D01*
X161424000Y-95930903D01*
X161424000Y-96013000D01*
X161423000Y-96014732D01*
X161421000Y-96014732D01*
X161420010Y-96013196D01*
X161414938Y-95961696D01*
X161399971Y-95912358D01*
X161375668Y-95866890D01*
X161342962Y-95827038D01*
X161303110Y-95794332D01*
X161257642Y-95770029D01*
X161208304Y-95755062D01*
X161156804Y-95749990D01*
X161155178Y-95748825D01*
X161155374Y-95746835D01*
X161157000Y-95746000D01*
X161239097Y-95746000D01*
X161239293Y-95746010D01*
G37*
G36*
X173863732Y-95722000D02*
G01*
X173863732Y-95724000D01*
X173862196Y-95724990D01*
X173810696Y-95730062D01*
X173761358Y-95745029D01*
X173715890Y-95769332D01*
X173676038Y-95802038D01*
X173643332Y-95841890D01*
X173619029Y-95887358D01*
X173604062Y-95936696D01*
X173598990Y-95988196D01*
X173597825Y-95989822D01*
X173595835Y-95989626D01*
X173595000Y-95988000D01*
X173595000Y-95905903D01*
X173595010Y-95905707D01*
X173598999Y-95865204D01*
X173599075Y-95864819D01*
X173609101Y-95831767D01*
X173609251Y-95831405D01*
X173625528Y-95800954D01*
X173625746Y-95800628D01*
X173647655Y-95773932D01*
X173647932Y-95773655D01*
X173674628Y-95751746D01*
X173674954Y-95751528D01*
X173705405Y-95735251D01*
X173705767Y-95735101D01*
X173738819Y-95725075D01*
X173739204Y-95724999D01*
X173779707Y-95721010D01*
X173779903Y-95721000D01*
X173862000Y-95721000D01*
X173863732Y-95722000D01*
G37*
G36*
X175216293Y-95721010D02*
G01*
X175256796Y-95724999D01*
X175257181Y-95725075D01*
X175290233Y-95735101D01*
X175290595Y-95735251D01*
X175321046Y-95751528D01*
X175321372Y-95751746D01*
X175348068Y-95773655D01*
X175348345Y-95773932D01*
X175370254Y-95800628D01*
X175370472Y-95800954D01*
X175386749Y-95831405D01*
X175386899Y-95831767D01*
X175396925Y-95864819D01*
X175397001Y-95865204D01*
X175400990Y-95905707D01*
X175401000Y-95905903D01*
X175401000Y-95988000D01*
X175400000Y-95989732D01*
X175398000Y-95989732D01*
X175397010Y-95988196D01*
X175391938Y-95936696D01*
X175376971Y-95887358D01*
X175352668Y-95841890D01*
X175319962Y-95802038D01*
X175280110Y-95769332D01*
X175234642Y-95745029D01*
X175185304Y-95730062D01*
X175133804Y-95724990D01*
X175132178Y-95723825D01*
X175132374Y-95721835D01*
X175134000Y-95721000D01*
X175216097Y-95721000D01*
X175216293Y-95721010D01*
G37*
M02*
