M48
; DRILL file {KiCad 5.99.0+really5.1.10+dfsg1-1} date Mon Mar  7 14:48:29 2022
; FORMAT={-:-/ absolute / inch / decimal}
; #@! TF.CreationDate,2022-03-07T14:48:29+01:00
; #@! TF.GenerationSoftware,Kicad,Pcbnew,5.99.0+really5.1.10+dfsg1-1
; #@! TF.FileFunction,Plated,1,2,PTH
FMAT,2
INCH
T1C0.0157
T2C0.0374
T3C0.0394
%
G90
G05
T1
X4.61Y-3.83
X4.61Y-3.93
X4.61Y-4.18
X4.61Y-4.28
X4.65Y-4.055
X4.67Y-3.86
X4.675Y-3.75
X4.69Y-4.21
X4.69Y-4.31
X4.7375Y-4.055
X4.8Y-3.75
X4.815Y-3.9
X4.865Y-4.15
X4.89Y-3.875
X4.895Y-3.935
X4.935Y-4.415
X5.015Y-4.6
X5.02Y-4.43
X5.025Y-4.315
X5.0268Y-4.37
X5.085Y-4.335
X5.105Y-3.74
X5.115Y-4.2075
X5.15Y-4.17
X5.155Y-3.905
X5.205Y-3.94
X5.215Y-4.24
X5.265Y-4.22
X5.265Y-4.265
X5.27Y-4.1
X5.3Y-4.425
X5.315Y-3.76
X5.325Y-3.925
X5.34Y-4.56
X5.355Y-3.82
X5.37Y-3.88
X5.38Y-4.3
X5.425Y-3.72
X5.425Y-4.585
X5.43Y-3.94
X5.455Y-4.5
X5.53Y-4.25
X5.5675Y-3.765
X5.58Y-4.25
X5.61Y-4.425
X5.63Y-4.56
X5.69Y-4.43
X5.69Y-4.52
X5.69Y-4.6
X5.714Y-4.28
X5.76Y-4.01
X5.91Y-4.05
X5.91Y-4.1
X5.918Y-4.534
X5.94Y-4.305
X6.04Y-4.6
X6.19Y-4.3
X6.22Y-3.93
X6.22Y-4.54
X6.3Y-4.3
X6.38Y-4.39
X6.44Y-4.38
X6.44Y-4.41
X6.4525Y-4.095
X6.47Y-4.17
X6.53Y-4.47
X6.58Y-4.47
X6.582Y-3.92
X6.59Y-4.3
X6.63Y-4.39
X6.63Y-4.49
X6.72Y-4.26
X6.73Y-3.918
X6.73Y-4.01
X6.74Y-4.35
X6.76Y-4.59
X6.788Y-4.2295
X6.9925Y-4.26
X7.04Y-3.945
X7.04Y-4.0
X7.04Y-4.16
X7.04Y-4.21
X7.08Y-3.76
X7.08Y-3.83
X7.09Y-3.945
X7.0925Y-4.0025
X7.0925Y-4.16
X7.0925Y-4.2125
T2
X5.77Y-3.81
X5.8684Y-3.81
X5.9669Y-3.81
X6.0653Y-3.81
X6.3197Y-3.81
X6.4181Y-3.81
X6.5166Y-3.81
X6.615Y-3.81
T3
X4.897Y-3.549
X4.897Y-3.649
X4.997Y-3.549
X4.997Y-3.649
X5.097Y-3.549
X5.097Y-3.649
X5.197Y-3.549
X5.197Y-3.649
X5.297Y-3.549
X5.297Y-3.649
X5.397Y-3.549
X5.397Y-3.649
X5.497Y-3.549
X5.497Y-3.649
X5.597Y-3.549
X5.597Y-3.649
X5.697Y-3.549
X5.697Y-3.649
X5.797Y-3.549
X5.797Y-3.649
X5.897Y-3.549
X5.897Y-3.649
X5.997Y-3.549
X5.997Y-3.649
X6.097Y-3.549
X6.097Y-3.649
X6.197Y-3.549
X6.197Y-3.649
X6.297Y-3.549
X6.297Y-3.649
X6.397Y-3.549
X6.397Y-3.649
X6.497Y-3.549
X6.497Y-3.649
X6.597Y-3.549
X6.597Y-3.649
X6.697Y-3.549
X6.697Y-3.649
X6.797Y-3.549
X6.797Y-3.649
X6.87Y-3.81
X6.9684Y-3.81
T0
M30
