G04 #@! TF.GenerationSoftware,KiCad,Pcbnew,6.0.4-6f826c9f35~116~ubuntu21.10.1*
G04 #@! TF.CreationDate,2022-07-14T08:28:50+02:00*
G04 #@! TF.ProjectId,Raspberry Pi Zero W,52617370-6265-4727-9279-205069205a65,1.0.8*
G04 #@! TF.SameCoordinates,Original*
G04 #@! TF.FileFunction,Soldermask,Top*
G04 #@! TF.FilePolarity,Negative*
%FSLAX46Y46*%
G04 Gerber Fmt 4.6, Leading zero omitted, Abs format (unit mm)*
G04 Created by KiCad (PCBNEW 6.0.4-6f826c9f35~116~ubuntu21.10.1) date 2022-07-14 08:28:50*
%MOMM*%
%LPD*%
G01*
G04 APERTURE LIST*
G04 Aperture macros list*
%AMRoundRect*
0 Rectangle with rounded corners*
0 $1 Rounding radius*
0 $2 $3 $4 $5 $6 $7 $8 $9 X,Y pos of 4 corners*
0 Add a 4 corners polygon primitive as box body*
4,1,4,$2,$3,$4,$5,$6,$7,$8,$9,$2,$3,0*
0 Add four circle primitives for the rounded corners*
1,1,$1+$1,$2,$3*
1,1,$1+$1,$4,$5*
1,1,$1+$1,$6,$7*
1,1,$1+$1,$8,$9*
0 Add four rect primitives between the rounded corners*
20,1,$1+$1,$2,$3,$4,$5,0*
20,1,$1+$1,$4,$5,$6,$7,0*
20,1,$1+$1,$6,$7,$8,$9,0*
20,1,$1+$1,$8,$9,$2,$3,0*%
G04 Aperture macros list end*
%ADD10C,6.200000*%
%ADD11RoundRect,0.201000X-0.825000X-0.150000X0.825000X-0.150000X0.825000X0.150000X-0.825000X0.150000X0*%
%ADD12RoundRect,0.051000X0.530000X0.325000X-0.530000X0.325000X-0.530000X-0.325000X0.530000X-0.325000X0*%
%ADD13RoundRect,0.201000X-0.625000X0.150000X-0.625000X-0.150000X0.625000X-0.150000X0.625000X0.150000X0*%
%ADD14RoundRect,0.300999X-0.650001X0.350001X-0.650001X-0.350001X0.650001X-0.350001X0.650001X0.350001X0*%
%ADD15RoundRect,0.051000X-0.500000X-0.750000X0.500000X-0.750000X0.500000X0.750000X-0.500000X0.750000X0*%
%ADD16RoundRect,0.251000X0.275000X-0.200000X0.275000X0.200000X-0.275000X0.200000X-0.275000X-0.200000X0*%
%ADD17RoundRect,0.251000X-0.275000X0.200000X-0.275000X-0.200000X0.275000X-0.200000X0.275000X0.200000X0*%
%ADD18RoundRect,0.051000X0.550000X0.125000X-0.550000X0.125000X-0.550000X-0.125000X0.550000X-0.125000X0*%
%ADD19RoundRect,0.301000X-0.600000X-0.725000X0.600000X-0.725000X0.600000X0.725000X-0.600000X0.725000X0*%
%ADD20O,1.802000X2.052000*%
%ADD21RoundRect,0.251000X0.200000X0.275000X-0.200000X0.275000X-0.200000X-0.275000X0.200000X-0.275000X0*%
%ADD22RoundRect,0.251000X-0.200000X-0.275000X0.200000X-0.275000X0.200000X0.275000X-0.200000X0.275000X0*%
%ADD23C,1.102000*%
%ADD24RoundRect,0.051000X0.750000X1.100000X-0.750000X1.100000X-0.750000X-1.100000X0.750000X-1.100000X0*%
%ADD25RoundRect,0.051000X-0.530000X-0.325000X0.530000X-0.325000X0.530000X0.325000X-0.530000X0.325000X0*%
%ADD26RoundRect,0.051000X-1.250000X-0.900000X1.250000X-0.900000X1.250000X0.900000X-1.250000X0.900000X0*%
%ADD27RoundRect,0.301000X-0.600000X-0.750000X0.600000X-0.750000X0.600000X0.750000X-0.600000X0.750000X0*%
%ADD28O,1.802000X2.102000*%
%ADD29RoundRect,0.300999X-0.650001X0.325001X-0.650001X-0.325001X0.650001X-0.325001X0.650001X0.325001X0*%
%ADD30RoundRect,0.300999X0.650001X-0.325001X0.650001X0.325001X-0.650001X0.325001X-0.650001X-0.325001X0*%
%ADD31RoundRect,0.191000X0.140000X0.170000X-0.140000X0.170000X-0.140000X-0.170000X0.140000X-0.170000X0*%
%ADD32RoundRect,0.191000X-0.170000X0.140000X-0.170000X-0.140000X0.170000X-0.140000X0.170000X0.140000X0*%
%ADD33RoundRect,0.269750X0.218750X0.256250X-0.218750X0.256250X-0.218750X-0.256250X0.218750X-0.256250X0*%
%ADD34RoundRect,0.301000X-0.250000X-0.475000X0.250000X-0.475000X0.250000X0.475000X-0.250000X0.475000X0*%
%ADD35RoundRect,0.301000X0.250000X0.475000X-0.250000X0.475000X-0.250000X-0.475000X0.250000X-0.475000X0*%
%ADD36RoundRect,0.301000X-0.375000X-0.625000X0.375000X-0.625000X0.375000X0.625000X-0.375000X0.625000X0*%
%ADD37C,1.254000*%
%ADD38RoundRect,0.051000X-0.850000X0.850000X-0.850000X-0.850000X0.850000X-0.850000X0.850000X0.850000X0*%
%ADD39O,1.802000X1.802000*%
G04 APERTURE END LIST*
D10*
X177507900Y-114579400D03*
D11*
X131383000Y-100965000D03*
X131383000Y-102235000D03*
X131383000Y-103505000D03*
X131383000Y-104775000D03*
X136333000Y-104775000D03*
X136333000Y-103505000D03*
X136333000Y-102235000D03*
X136333000Y-100965000D03*
D12*
X133096000Y-97404000D03*
X133096000Y-96454000D03*
X133096000Y-95504000D03*
X130896000Y-95504000D03*
X130896000Y-96454000D03*
X130896000Y-97404000D03*
D13*
X120745000Y-97052000D03*
X120745000Y-98052000D03*
X120745000Y-99052000D03*
X120745000Y-100052000D03*
D14*
X116870000Y-95752000D03*
X116870000Y-101352000D03*
D13*
X120745000Y-105942000D03*
X120745000Y-106942000D03*
X120745000Y-107942000D03*
X120745000Y-108942000D03*
D14*
X116870000Y-110242000D03*
X116870000Y-104642000D03*
D15*
X134336000Y-114300000D03*
X135636000Y-114300000D03*
X136936000Y-114300000D03*
D16*
X141732000Y-110807000D03*
X141732000Y-109157000D03*
X132715000Y-110680000D03*
X132715000Y-109030000D03*
D17*
X131064000Y-113856000D03*
X131064000Y-115506000D03*
D12*
X139700000Y-97470000D03*
X139700000Y-96520000D03*
X139700000Y-95570000D03*
X137500000Y-95570000D03*
X137500000Y-96520000D03*
X137500000Y-97470000D03*
D18*
X139564000Y-110982000D03*
X139564000Y-110482000D03*
X139564000Y-109982000D03*
X139564000Y-109482000D03*
X139564000Y-108982000D03*
X135264000Y-108982000D03*
X135264000Y-109482000D03*
X135264000Y-109982000D03*
X135264000Y-110482000D03*
X135264000Y-110982000D03*
X130665000Y-110982000D03*
X130665000Y-110482000D03*
X130665000Y-109982000D03*
X130665000Y-109482000D03*
X130665000Y-108982000D03*
X126365000Y-108982000D03*
X126365000Y-109482000D03*
X126365000Y-109982000D03*
X126365000Y-110482000D03*
X126365000Y-110982000D03*
D19*
X146558000Y-96774000D03*
D20*
X149058000Y-96774000D03*
X151558000Y-96774000D03*
X154058000Y-96774000D03*
D19*
X160521000Y-96774000D03*
D20*
X163021000Y-96774000D03*
X165521000Y-96774000D03*
X168021000Y-96774000D03*
D21*
X128206000Y-104584500D03*
X126556000Y-104584500D03*
X128206000Y-102870000D03*
X126556000Y-102870000D03*
D22*
X126556000Y-100838000D03*
X128206000Y-100838000D03*
X139129000Y-104394000D03*
X140779000Y-104394000D03*
X139129000Y-102616000D03*
X140779000Y-102616000D03*
D21*
X140779000Y-100584000D03*
X139129000Y-100584000D03*
D16*
X144780000Y-107251000D03*
X144780000Y-105601000D03*
X144780000Y-103886000D03*
X144780000Y-102236000D03*
D17*
X155448000Y-105601000D03*
X155448000Y-107251000D03*
X155448000Y-102299000D03*
X155448000Y-103949000D03*
D15*
X140305000Y-114300000D03*
X141605000Y-114300000D03*
X142905000Y-114300000D03*
D16*
X159131000Y-107251000D03*
X159131000Y-105601000D03*
D17*
X127381000Y-113855500D03*
X127381000Y-115505500D03*
D16*
X159131000Y-103949000D03*
X159131000Y-102299000D03*
D17*
X129286000Y-113856000D03*
X129286000Y-115506000D03*
D16*
X169672000Y-103822000D03*
X169672000Y-102172000D03*
X169672000Y-107124000D03*
X169672000Y-105474000D03*
X124841000Y-103759000D03*
X124841000Y-102109000D03*
X124841000Y-107124000D03*
X124841000Y-105474000D03*
D23*
X172974000Y-112776000D03*
D24*
X178816000Y-103632000D03*
X172416000Y-103632000D03*
D25*
X164825500Y-110619500D03*
X164825500Y-111569500D03*
X164825500Y-112519500D03*
X167025500Y-112519500D03*
X167025500Y-111569500D03*
X167025500Y-110619500D03*
D26*
X173641000Y-109728000D03*
X177641000Y-109728000D03*
D27*
X174498000Y-96774000D03*
D28*
X176998000Y-96774000D03*
D29*
X162052000Y-109855000D03*
X162052000Y-112805000D03*
D30*
X169672000Y-112805000D03*
X169672000Y-109855000D03*
D22*
X168339000Y-115570000D03*
X169989000Y-115570000D03*
X164529000Y-115570000D03*
X166179000Y-115570000D03*
D23*
X172974000Y-114808000D03*
D31*
X135862000Y-107442000D03*
X134902000Y-107442000D03*
X127254000Y-107442000D03*
X126294000Y-107442000D03*
D32*
X135047001Y-96802000D03*
X135047001Y-97762000D03*
X141541500Y-96802000D03*
X141541500Y-97762000D03*
D22*
X126429000Y-95504000D03*
X128079000Y-95504000D03*
D33*
X128041500Y-97282000D03*
X126466500Y-97282000D03*
D11*
X147766000Y-109347000D03*
X147766000Y-110617000D03*
X147766000Y-111887000D03*
X147766000Y-113157000D03*
X152716000Y-113157000D03*
X152716000Y-111887000D03*
X152716000Y-110617000D03*
X152716000Y-109347000D03*
D23*
X155575000Y-109474000D03*
D34*
X146817000Y-115189000D03*
X148717000Y-115189000D03*
D35*
X153670000Y-115189000D03*
X151770000Y-115189000D03*
D11*
X147639000Y-102870000D03*
X147639000Y-104140000D03*
X147639000Y-105410000D03*
X147639000Y-106680000D03*
X152589000Y-106680000D03*
X152589000Y-105410000D03*
X152589000Y-104140000D03*
X152589000Y-102870000D03*
X161863000Y-102743000D03*
X161863000Y-104013000D03*
X161863000Y-105283000D03*
X161863000Y-106553000D03*
X166813000Y-106553000D03*
X166813000Y-105283000D03*
X166813000Y-104013000D03*
X166813000Y-102743000D03*
D23*
X125120400Y-115849400D03*
X125120400Y-113436400D03*
D17*
X143764000Y-109157000D03*
X143764000Y-110807000D03*
D36*
X159636000Y-115316000D03*
X162436000Y-115316000D03*
D37*
X123380500Y-116586000D03*
X173736000Y-116776500D03*
D10*
X119500000Y-91500000D03*
X177600000Y-91500000D03*
X119600000Y-114500000D03*
D38*
X124383800Y-92684600D03*
D39*
X124383800Y-90144600D03*
X126923800Y-92684600D03*
X126923800Y-90144600D03*
X129463800Y-92684600D03*
X129463800Y-90144600D03*
X132003800Y-92684600D03*
X132003800Y-90144600D03*
X134543800Y-92684600D03*
X134543800Y-90144600D03*
X137083800Y-92684600D03*
X137083800Y-90144600D03*
X139623800Y-92684600D03*
X139623800Y-90144600D03*
X142163800Y-92684600D03*
X142163800Y-90144600D03*
X144703800Y-92684600D03*
X144703800Y-90144600D03*
X147243800Y-92684600D03*
X147243800Y-90144600D03*
X149783800Y-92684600D03*
X149783800Y-90144600D03*
X152323800Y-92684600D03*
X152323800Y-90144600D03*
X154863800Y-92684600D03*
X154863800Y-90144600D03*
X157403800Y-92684600D03*
X157403800Y-90144600D03*
X159943800Y-92684600D03*
X159943800Y-90144600D03*
X162483800Y-92684600D03*
X162483800Y-90144600D03*
X165023800Y-92684600D03*
X165023800Y-90144600D03*
X167563800Y-92684600D03*
X167563800Y-90144600D03*
X170103800Y-92684600D03*
X170103800Y-90144600D03*
X172643800Y-92684600D03*
X172643800Y-90144600D03*
G36*
X140854267Y-113533301D02*
G01*
X140905946Y-113576489D01*
X140974661Y-113585120D01*
X141037291Y-113555156D01*
X141055348Y-113534318D01*
X141057238Y-113533664D01*
X141058749Y-113534974D01*
X141058821Y-113536018D01*
X141056000Y-113550199D01*
X141056000Y-115049801D01*
X141058978Y-115064774D01*
X141058335Y-115066668D01*
X141056373Y-115067058D01*
X141055733Y-115066699D01*
X141004054Y-115023511D01*
X140935339Y-115014880D01*
X140872709Y-115044844D01*
X140854652Y-115065682D01*
X140852762Y-115066336D01*
X140851251Y-115065026D01*
X140851179Y-115063982D01*
X140854000Y-115049801D01*
X140854000Y-113550199D01*
X140851022Y-113535226D01*
X140851665Y-113533332D01*
X140853627Y-113532942D01*
X140854267Y-113533301D01*
G37*
G36*
X136185267Y-113533301D02*
G01*
X136236946Y-113576489D01*
X136305661Y-113585120D01*
X136368291Y-113555156D01*
X136386348Y-113534318D01*
X136388238Y-113533664D01*
X136389749Y-113534974D01*
X136389821Y-113536018D01*
X136387000Y-113550199D01*
X136387000Y-115049801D01*
X136389978Y-115064774D01*
X136389335Y-115066668D01*
X136387373Y-115067058D01*
X136386733Y-115066699D01*
X136335054Y-115023511D01*
X136266339Y-115014880D01*
X136203709Y-115044844D01*
X136185652Y-115065682D01*
X136183762Y-115066336D01*
X136182251Y-115065026D01*
X136182179Y-115063982D01*
X136185000Y-115049801D01*
X136185000Y-113550199D01*
X136182022Y-113535226D01*
X136182665Y-113533332D01*
X136184627Y-113532942D01*
X136185267Y-113533301D01*
G37*
G36*
X142154267Y-113533301D02*
G01*
X142205946Y-113576489D01*
X142274661Y-113585120D01*
X142337291Y-113555156D01*
X142355348Y-113534318D01*
X142357238Y-113533664D01*
X142358749Y-113534974D01*
X142358821Y-113536018D01*
X142356000Y-113550199D01*
X142356000Y-115049801D01*
X142358978Y-115064774D01*
X142358335Y-115066668D01*
X142356373Y-115067058D01*
X142355733Y-115066699D01*
X142304054Y-115023511D01*
X142235339Y-115014880D01*
X142172709Y-115044844D01*
X142154652Y-115065682D01*
X142152762Y-115066336D01*
X142151251Y-115065026D01*
X142151179Y-115063982D01*
X142154000Y-115049801D01*
X142154000Y-113550199D01*
X142151022Y-113535226D01*
X142151665Y-113533332D01*
X142153627Y-113532942D01*
X142154267Y-113533301D01*
G37*
G36*
X134885267Y-113533301D02*
G01*
X134936946Y-113576489D01*
X135005661Y-113585120D01*
X135068291Y-113555156D01*
X135086348Y-113534318D01*
X135088238Y-113533664D01*
X135089749Y-113534974D01*
X135089821Y-113536018D01*
X135087000Y-113550199D01*
X135087000Y-115049801D01*
X135089978Y-115064774D01*
X135089335Y-115066668D01*
X135087373Y-115067058D01*
X135086733Y-115066699D01*
X135035054Y-115023511D01*
X134966339Y-115014880D01*
X134903709Y-115044844D01*
X134885652Y-115065682D01*
X134883762Y-115066336D01*
X134882251Y-115065026D01*
X134882179Y-115063982D01*
X134885000Y-115049801D01*
X134885000Y-113550199D01*
X134882022Y-113535226D01*
X134882665Y-113533332D01*
X134884627Y-113532942D01*
X134885267Y-113533301D01*
G37*
G36*
X165372168Y-111941165D02*
G01*
X165372558Y-111943127D01*
X165372199Y-111943767D01*
X165329011Y-111995446D01*
X165320380Y-112064161D01*
X165350344Y-112126791D01*
X165371182Y-112144848D01*
X165371836Y-112146738D01*
X165370526Y-112148249D01*
X165369482Y-112148321D01*
X165355301Y-112145500D01*
X164295699Y-112145500D01*
X164280726Y-112148478D01*
X164278832Y-112147835D01*
X164278442Y-112145873D01*
X164278801Y-112145233D01*
X164321989Y-112093554D01*
X164330620Y-112024839D01*
X164300656Y-111962209D01*
X164279818Y-111944152D01*
X164279164Y-111942262D01*
X164280474Y-111940751D01*
X164281518Y-111940679D01*
X164295699Y-111943500D01*
X165355301Y-111943500D01*
X165370274Y-111940522D01*
X165372168Y-111941165D01*
G37*
G36*
X167572168Y-111941165D02*
G01*
X167572558Y-111943127D01*
X167572199Y-111943767D01*
X167529011Y-111995446D01*
X167520380Y-112064161D01*
X167550344Y-112126791D01*
X167571182Y-112144848D01*
X167571836Y-112146738D01*
X167570526Y-112148249D01*
X167569482Y-112148321D01*
X167555301Y-112145500D01*
X166495699Y-112145500D01*
X166480726Y-112148478D01*
X166478832Y-112147835D01*
X166478442Y-112145873D01*
X166478801Y-112145233D01*
X166521989Y-112093554D01*
X166530620Y-112024839D01*
X166500656Y-111962209D01*
X166479818Y-111944152D01*
X166479164Y-111942262D01*
X166480474Y-111940751D01*
X166481518Y-111940679D01*
X166495699Y-111943500D01*
X167555301Y-111943500D01*
X167570274Y-111940522D01*
X167572168Y-111941165D01*
G37*
G36*
X167572168Y-110991165D02*
G01*
X167572558Y-110993127D01*
X167572199Y-110993767D01*
X167529011Y-111045446D01*
X167520380Y-111114161D01*
X167550344Y-111176791D01*
X167571182Y-111194848D01*
X167571836Y-111196738D01*
X167570526Y-111198249D01*
X167569482Y-111198321D01*
X167555301Y-111195500D01*
X166495699Y-111195500D01*
X166480726Y-111198478D01*
X166478832Y-111197835D01*
X166478442Y-111195873D01*
X166478801Y-111195233D01*
X166521989Y-111143554D01*
X166530620Y-111074839D01*
X166500656Y-111012209D01*
X166479818Y-110994152D01*
X166479164Y-110992262D01*
X166480474Y-110990751D01*
X166481518Y-110990679D01*
X166495699Y-110993500D01*
X167555301Y-110993500D01*
X167570274Y-110990522D01*
X167572168Y-110991165D01*
G37*
G36*
X165372168Y-110991165D02*
G01*
X165372558Y-110993127D01*
X165372199Y-110993767D01*
X165329011Y-111045446D01*
X165320380Y-111114161D01*
X165350344Y-111176791D01*
X165371182Y-111194848D01*
X165371836Y-111196738D01*
X165370526Y-111198249D01*
X165369482Y-111198321D01*
X165355301Y-111195500D01*
X164295699Y-111195500D01*
X164280726Y-111198478D01*
X164278832Y-111197835D01*
X164278442Y-111195873D01*
X164278801Y-111195233D01*
X164321989Y-111143554D01*
X164330620Y-111074839D01*
X164300656Y-111012209D01*
X164279818Y-110994152D01*
X164279164Y-110992262D01*
X164280474Y-110990751D01*
X164281518Y-110990679D01*
X164295699Y-110993500D01*
X165355301Y-110993500D01*
X165370274Y-110990522D01*
X165372168Y-110991165D01*
G37*
G36*
X130085267Y-110644886D02*
G01*
X130096262Y-110652233D01*
X130115199Y-110656000D01*
X131214801Y-110656000D01*
X131233738Y-110652233D01*
X131244733Y-110644886D01*
X131246729Y-110644755D01*
X131247840Y-110646418D01*
X131247507Y-110647660D01*
X131238291Y-110661452D01*
X131240031Y-110662615D01*
X131240916Y-110664409D01*
X131240455Y-110665560D01*
X131225922Y-110682952D01*
X131217296Y-110751670D01*
X131240082Y-110799288D01*
X131239928Y-110801282D01*
X131239389Y-110801814D01*
X131238291Y-110802548D01*
X131247507Y-110816340D01*
X131247638Y-110818336D01*
X131245975Y-110819447D01*
X131244733Y-110819114D01*
X131233738Y-110811767D01*
X131214801Y-110808000D01*
X130115199Y-110808000D01*
X130096262Y-110811767D01*
X130085267Y-110819114D01*
X130083271Y-110819245D01*
X130082160Y-110817582D01*
X130082493Y-110816340D01*
X130091709Y-110802548D01*
X130089969Y-110801385D01*
X130089084Y-110799591D01*
X130089545Y-110798440D01*
X130104078Y-110781048D01*
X130112704Y-110712330D01*
X130089918Y-110664712D01*
X130090072Y-110662718D01*
X130090611Y-110662186D01*
X130091709Y-110661452D01*
X130082493Y-110647660D01*
X130082362Y-110645664D01*
X130084025Y-110644553D01*
X130085267Y-110644886D01*
G37*
G36*
X125785267Y-110644886D02*
G01*
X125796262Y-110652233D01*
X125815199Y-110656000D01*
X126914801Y-110656000D01*
X126933738Y-110652233D01*
X126944733Y-110644886D01*
X126946729Y-110644755D01*
X126947840Y-110646418D01*
X126947507Y-110647660D01*
X126938291Y-110661452D01*
X126940031Y-110662615D01*
X126940916Y-110664409D01*
X126940455Y-110665560D01*
X126925922Y-110682952D01*
X126917296Y-110751670D01*
X126940082Y-110799288D01*
X126939928Y-110801282D01*
X126939389Y-110801814D01*
X126938291Y-110802548D01*
X126947507Y-110816340D01*
X126947638Y-110818336D01*
X126945975Y-110819447D01*
X126944733Y-110819114D01*
X126933738Y-110811767D01*
X126914801Y-110808000D01*
X125815199Y-110808000D01*
X125796262Y-110811767D01*
X125785267Y-110819114D01*
X125783271Y-110819245D01*
X125782160Y-110817582D01*
X125782493Y-110816340D01*
X125791709Y-110802548D01*
X125789969Y-110801385D01*
X125789084Y-110799591D01*
X125789545Y-110798440D01*
X125804078Y-110781048D01*
X125812704Y-110712330D01*
X125789918Y-110664712D01*
X125790072Y-110662718D01*
X125790611Y-110662186D01*
X125791709Y-110661452D01*
X125782493Y-110647660D01*
X125782362Y-110645664D01*
X125784025Y-110644553D01*
X125785267Y-110644886D01*
G37*
G36*
X134684267Y-110644886D02*
G01*
X134695262Y-110652233D01*
X134714199Y-110656000D01*
X135813801Y-110656000D01*
X135832738Y-110652233D01*
X135843733Y-110644886D01*
X135845729Y-110644755D01*
X135846840Y-110646418D01*
X135846507Y-110647660D01*
X135837291Y-110661452D01*
X135839031Y-110662615D01*
X135839916Y-110664409D01*
X135839455Y-110665560D01*
X135824922Y-110682952D01*
X135816296Y-110751670D01*
X135839082Y-110799288D01*
X135838928Y-110801282D01*
X135838389Y-110801814D01*
X135837291Y-110802548D01*
X135846507Y-110816340D01*
X135846638Y-110818336D01*
X135844975Y-110819447D01*
X135843733Y-110819114D01*
X135832738Y-110811767D01*
X135813801Y-110808000D01*
X134714199Y-110808000D01*
X134695262Y-110811767D01*
X134684267Y-110819114D01*
X134682271Y-110819245D01*
X134681160Y-110817582D01*
X134681493Y-110816340D01*
X134690709Y-110802548D01*
X134688969Y-110801385D01*
X134688084Y-110799591D01*
X134688545Y-110798440D01*
X134703078Y-110781048D01*
X134711704Y-110712330D01*
X134688918Y-110664712D01*
X134689072Y-110662718D01*
X134689611Y-110662186D01*
X134690709Y-110661452D01*
X134681493Y-110647660D01*
X134681362Y-110645664D01*
X134683025Y-110644553D01*
X134684267Y-110644886D01*
G37*
G36*
X138984267Y-110644886D02*
G01*
X138995262Y-110652233D01*
X139014199Y-110656000D01*
X140113801Y-110656000D01*
X140132738Y-110652233D01*
X140143733Y-110644886D01*
X140145729Y-110644755D01*
X140146840Y-110646418D01*
X140146507Y-110647660D01*
X140137291Y-110661452D01*
X140139031Y-110662615D01*
X140139916Y-110664409D01*
X140139455Y-110665560D01*
X140124922Y-110682952D01*
X140116296Y-110751670D01*
X140139082Y-110799288D01*
X140138928Y-110801282D01*
X140138389Y-110801814D01*
X140137291Y-110802548D01*
X140146507Y-110816340D01*
X140146638Y-110818336D01*
X140144975Y-110819447D01*
X140143733Y-110819114D01*
X140132738Y-110811767D01*
X140113801Y-110808000D01*
X139014199Y-110808000D01*
X138995262Y-110811767D01*
X138984267Y-110819114D01*
X138982271Y-110819245D01*
X138981160Y-110817582D01*
X138981493Y-110816340D01*
X138990709Y-110802548D01*
X138988969Y-110801385D01*
X138988084Y-110799591D01*
X138988545Y-110798440D01*
X139003078Y-110781048D01*
X139011704Y-110712330D01*
X138988918Y-110664712D01*
X138989072Y-110662718D01*
X138989611Y-110662186D01*
X138990709Y-110661452D01*
X138981493Y-110647660D01*
X138981362Y-110645664D01*
X138983025Y-110644553D01*
X138984267Y-110644886D01*
G37*
G36*
X138984267Y-110144886D02*
G01*
X138995262Y-110152233D01*
X139014199Y-110156000D01*
X140113801Y-110156000D01*
X140132738Y-110152233D01*
X140143733Y-110144886D01*
X140145729Y-110144755D01*
X140146840Y-110146418D01*
X140146507Y-110147660D01*
X140137291Y-110161452D01*
X140139031Y-110162615D01*
X140139916Y-110164409D01*
X140139455Y-110165560D01*
X140124922Y-110182952D01*
X140116296Y-110251670D01*
X140139082Y-110299288D01*
X140138928Y-110301282D01*
X140138389Y-110301814D01*
X140137291Y-110302548D01*
X140146507Y-110316340D01*
X140146638Y-110318336D01*
X140144975Y-110319447D01*
X140143733Y-110319114D01*
X140132738Y-110311767D01*
X140113801Y-110308000D01*
X139014199Y-110308000D01*
X138995262Y-110311767D01*
X138984267Y-110319114D01*
X138982271Y-110319245D01*
X138981160Y-110317582D01*
X138981493Y-110316340D01*
X138990709Y-110302548D01*
X138988969Y-110301385D01*
X138988084Y-110299591D01*
X138988545Y-110298440D01*
X139003078Y-110281048D01*
X139011704Y-110212330D01*
X138988918Y-110164712D01*
X138989072Y-110162718D01*
X138989611Y-110162186D01*
X138990709Y-110161452D01*
X138981493Y-110147660D01*
X138981362Y-110145664D01*
X138983025Y-110144553D01*
X138984267Y-110144886D01*
G37*
G36*
X125785267Y-110144886D02*
G01*
X125796262Y-110152233D01*
X125815199Y-110156000D01*
X126914801Y-110156000D01*
X126933738Y-110152233D01*
X126944733Y-110144886D01*
X126946729Y-110144755D01*
X126947840Y-110146418D01*
X126947507Y-110147660D01*
X126938291Y-110161452D01*
X126940031Y-110162615D01*
X126940916Y-110164409D01*
X126940455Y-110165560D01*
X126925922Y-110182952D01*
X126917296Y-110251670D01*
X126940082Y-110299288D01*
X126939928Y-110301282D01*
X126939389Y-110301814D01*
X126938291Y-110302548D01*
X126947507Y-110316340D01*
X126947638Y-110318336D01*
X126945975Y-110319447D01*
X126944733Y-110319114D01*
X126933738Y-110311767D01*
X126914801Y-110308000D01*
X125815199Y-110308000D01*
X125796262Y-110311767D01*
X125785267Y-110319114D01*
X125783271Y-110319245D01*
X125782160Y-110317582D01*
X125782493Y-110316340D01*
X125791709Y-110302548D01*
X125789969Y-110301385D01*
X125789084Y-110299591D01*
X125789545Y-110298440D01*
X125804078Y-110281048D01*
X125812704Y-110212330D01*
X125789918Y-110164712D01*
X125790072Y-110162718D01*
X125790611Y-110162186D01*
X125791709Y-110161452D01*
X125782493Y-110147660D01*
X125782362Y-110145664D01*
X125784025Y-110144553D01*
X125785267Y-110144886D01*
G37*
G36*
X134684267Y-110144886D02*
G01*
X134695262Y-110152233D01*
X134714199Y-110156000D01*
X135813801Y-110156000D01*
X135832738Y-110152233D01*
X135843733Y-110144886D01*
X135845729Y-110144755D01*
X135846840Y-110146418D01*
X135846507Y-110147660D01*
X135837291Y-110161452D01*
X135839031Y-110162615D01*
X135839916Y-110164409D01*
X135839455Y-110165560D01*
X135824922Y-110182952D01*
X135816296Y-110251670D01*
X135839082Y-110299288D01*
X135838928Y-110301282D01*
X135838389Y-110301814D01*
X135837291Y-110302548D01*
X135846507Y-110316340D01*
X135846638Y-110318336D01*
X135844975Y-110319447D01*
X135843733Y-110319114D01*
X135832738Y-110311767D01*
X135813801Y-110308000D01*
X134714199Y-110308000D01*
X134695262Y-110311767D01*
X134684267Y-110319114D01*
X134682271Y-110319245D01*
X134681160Y-110317582D01*
X134681493Y-110316340D01*
X134690709Y-110302548D01*
X134688969Y-110301385D01*
X134688084Y-110299591D01*
X134688545Y-110298440D01*
X134703078Y-110281048D01*
X134711704Y-110212330D01*
X134688918Y-110164712D01*
X134689072Y-110162718D01*
X134689611Y-110162186D01*
X134690709Y-110161452D01*
X134681493Y-110147660D01*
X134681362Y-110145664D01*
X134683025Y-110144553D01*
X134684267Y-110144886D01*
G37*
G36*
X130085267Y-110144886D02*
G01*
X130096262Y-110152233D01*
X130115199Y-110156000D01*
X131214801Y-110156000D01*
X131233738Y-110152233D01*
X131244733Y-110144886D01*
X131246729Y-110144755D01*
X131247840Y-110146418D01*
X131247507Y-110147660D01*
X131238291Y-110161452D01*
X131240031Y-110162615D01*
X131240916Y-110164409D01*
X131240455Y-110165560D01*
X131225922Y-110182952D01*
X131217296Y-110251670D01*
X131240082Y-110299288D01*
X131239928Y-110301282D01*
X131239389Y-110301814D01*
X131238291Y-110302548D01*
X131247507Y-110316340D01*
X131247638Y-110318336D01*
X131245975Y-110319447D01*
X131244733Y-110319114D01*
X131233738Y-110311767D01*
X131214801Y-110308000D01*
X130115199Y-110308000D01*
X130096262Y-110311767D01*
X130085267Y-110319114D01*
X130083271Y-110319245D01*
X130082160Y-110317582D01*
X130082493Y-110316340D01*
X130091709Y-110302548D01*
X130089969Y-110301385D01*
X130089084Y-110299591D01*
X130089545Y-110298440D01*
X130104078Y-110281048D01*
X130112704Y-110212330D01*
X130089918Y-110164712D01*
X130090072Y-110162718D01*
X130090611Y-110162186D01*
X130091709Y-110161452D01*
X130082493Y-110147660D01*
X130082362Y-110145664D01*
X130084025Y-110144553D01*
X130085267Y-110144886D01*
G37*
G36*
X125785267Y-109644886D02*
G01*
X125796262Y-109652233D01*
X125815199Y-109656000D01*
X126914801Y-109656000D01*
X126933738Y-109652233D01*
X126944733Y-109644886D01*
X126946729Y-109644755D01*
X126947840Y-109646418D01*
X126947507Y-109647660D01*
X126938291Y-109661452D01*
X126940031Y-109662615D01*
X126940916Y-109664409D01*
X126940455Y-109665560D01*
X126925922Y-109682952D01*
X126917296Y-109751670D01*
X126940082Y-109799288D01*
X126939928Y-109801282D01*
X126939389Y-109801814D01*
X126938291Y-109802548D01*
X126947507Y-109816340D01*
X126947638Y-109818336D01*
X126945975Y-109819447D01*
X126944733Y-109819114D01*
X126933738Y-109811767D01*
X126914801Y-109808000D01*
X125815199Y-109808000D01*
X125796262Y-109811767D01*
X125785267Y-109819114D01*
X125783271Y-109819245D01*
X125782160Y-109817582D01*
X125782493Y-109816340D01*
X125791709Y-109802548D01*
X125789969Y-109801385D01*
X125789084Y-109799591D01*
X125789545Y-109798440D01*
X125804078Y-109781048D01*
X125812704Y-109712330D01*
X125789918Y-109664712D01*
X125790072Y-109662718D01*
X125790611Y-109662186D01*
X125791709Y-109661452D01*
X125782493Y-109647660D01*
X125782362Y-109645664D01*
X125784025Y-109644553D01*
X125785267Y-109644886D01*
G37*
G36*
X138984267Y-109644886D02*
G01*
X138995262Y-109652233D01*
X139014199Y-109656000D01*
X140113801Y-109656000D01*
X140132738Y-109652233D01*
X140143733Y-109644886D01*
X140145729Y-109644755D01*
X140146840Y-109646418D01*
X140146507Y-109647660D01*
X140137291Y-109661452D01*
X140139031Y-109662615D01*
X140139916Y-109664409D01*
X140139455Y-109665560D01*
X140124922Y-109682952D01*
X140116296Y-109751670D01*
X140139082Y-109799288D01*
X140138928Y-109801282D01*
X140138389Y-109801814D01*
X140137291Y-109802548D01*
X140146507Y-109816340D01*
X140146638Y-109818336D01*
X140144975Y-109819447D01*
X140143733Y-109819114D01*
X140132738Y-109811767D01*
X140113801Y-109808000D01*
X139014199Y-109808000D01*
X138995262Y-109811767D01*
X138984267Y-109819114D01*
X138982271Y-109819245D01*
X138981160Y-109817582D01*
X138981493Y-109816340D01*
X138990709Y-109802548D01*
X138988969Y-109801385D01*
X138988084Y-109799591D01*
X138988545Y-109798440D01*
X139003078Y-109781048D01*
X139011704Y-109712330D01*
X138988918Y-109664712D01*
X138989072Y-109662718D01*
X138989611Y-109662186D01*
X138990709Y-109661452D01*
X138981493Y-109647660D01*
X138981362Y-109645664D01*
X138983025Y-109644553D01*
X138984267Y-109644886D01*
G37*
G36*
X130085267Y-109644886D02*
G01*
X130096262Y-109652233D01*
X130115199Y-109656000D01*
X131214801Y-109656000D01*
X131233738Y-109652233D01*
X131244733Y-109644886D01*
X131246729Y-109644755D01*
X131247840Y-109646418D01*
X131247507Y-109647660D01*
X131238291Y-109661452D01*
X131240031Y-109662615D01*
X131240916Y-109664409D01*
X131240455Y-109665560D01*
X131225922Y-109682952D01*
X131217296Y-109751670D01*
X131240082Y-109799288D01*
X131239928Y-109801282D01*
X131239389Y-109801814D01*
X131238291Y-109802548D01*
X131247507Y-109816340D01*
X131247638Y-109818336D01*
X131245975Y-109819447D01*
X131244733Y-109819114D01*
X131233738Y-109811767D01*
X131214801Y-109808000D01*
X130115199Y-109808000D01*
X130096262Y-109811767D01*
X130085267Y-109819114D01*
X130083271Y-109819245D01*
X130082160Y-109817582D01*
X130082493Y-109816340D01*
X130091709Y-109802548D01*
X130089969Y-109801385D01*
X130089084Y-109799591D01*
X130089545Y-109798440D01*
X130104078Y-109781048D01*
X130112704Y-109712330D01*
X130089918Y-109664712D01*
X130090072Y-109662718D01*
X130090611Y-109662186D01*
X130091709Y-109661452D01*
X130082493Y-109647660D01*
X130082362Y-109645664D01*
X130084025Y-109644553D01*
X130085267Y-109644886D01*
G37*
G36*
X134684267Y-109644886D02*
G01*
X134695262Y-109652233D01*
X134714199Y-109656000D01*
X135813801Y-109656000D01*
X135832738Y-109652233D01*
X135843733Y-109644886D01*
X135845729Y-109644755D01*
X135846840Y-109646418D01*
X135846507Y-109647660D01*
X135837291Y-109661452D01*
X135839031Y-109662615D01*
X135839916Y-109664409D01*
X135839455Y-109665560D01*
X135824922Y-109682952D01*
X135816296Y-109751670D01*
X135839082Y-109799288D01*
X135838928Y-109801282D01*
X135838389Y-109801814D01*
X135837291Y-109802548D01*
X135846507Y-109816340D01*
X135846638Y-109818336D01*
X135844975Y-109819447D01*
X135843733Y-109819114D01*
X135832738Y-109811767D01*
X135813801Y-109808000D01*
X134714199Y-109808000D01*
X134695262Y-109811767D01*
X134684267Y-109819114D01*
X134682271Y-109819245D01*
X134681160Y-109817582D01*
X134681493Y-109816340D01*
X134690709Y-109802548D01*
X134688969Y-109801385D01*
X134688084Y-109799591D01*
X134688545Y-109798440D01*
X134703078Y-109781048D01*
X134711704Y-109712330D01*
X134688918Y-109664712D01*
X134689072Y-109662718D01*
X134689611Y-109662186D01*
X134690709Y-109661452D01*
X134681493Y-109647660D01*
X134681362Y-109645664D01*
X134683025Y-109644553D01*
X134684267Y-109644886D01*
G37*
G36*
X130085267Y-109144886D02*
G01*
X130096262Y-109152233D01*
X130115199Y-109156000D01*
X131214801Y-109156000D01*
X131233738Y-109152233D01*
X131244733Y-109144886D01*
X131246729Y-109144755D01*
X131247840Y-109146418D01*
X131247507Y-109147660D01*
X131238291Y-109161452D01*
X131240031Y-109162615D01*
X131240916Y-109164409D01*
X131240455Y-109165560D01*
X131225922Y-109182952D01*
X131217296Y-109251670D01*
X131240082Y-109299288D01*
X131239928Y-109301282D01*
X131239389Y-109301814D01*
X131238291Y-109302548D01*
X131247507Y-109316340D01*
X131247638Y-109318336D01*
X131245975Y-109319447D01*
X131244733Y-109319114D01*
X131233738Y-109311767D01*
X131214801Y-109308000D01*
X130115199Y-109308000D01*
X130096262Y-109311767D01*
X130085267Y-109319114D01*
X130083271Y-109319245D01*
X130082160Y-109317582D01*
X130082493Y-109316340D01*
X130091709Y-109302548D01*
X130089969Y-109301385D01*
X130089084Y-109299591D01*
X130089545Y-109298440D01*
X130104078Y-109281048D01*
X130112704Y-109212330D01*
X130089918Y-109164712D01*
X130090072Y-109162718D01*
X130090611Y-109162186D01*
X130091709Y-109161452D01*
X130082493Y-109147660D01*
X130082362Y-109145664D01*
X130084025Y-109144553D01*
X130085267Y-109144886D01*
G37*
G36*
X138984267Y-109144886D02*
G01*
X138995262Y-109152233D01*
X139014199Y-109156000D01*
X140113801Y-109156000D01*
X140132738Y-109152233D01*
X140143733Y-109144886D01*
X140145729Y-109144755D01*
X140146840Y-109146418D01*
X140146507Y-109147660D01*
X140137291Y-109161452D01*
X140139031Y-109162615D01*
X140139916Y-109164409D01*
X140139455Y-109165560D01*
X140124922Y-109182952D01*
X140116296Y-109251670D01*
X140139082Y-109299288D01*
X140138928Y-109301282D01*
X140138389Y-109301814D01*
X140137291Y-109302548D01*
X140146507Y-109316340D01*
X140146638Y-109318336D01*
X140144975Y-109319447D01*
X140143733Y-109319114D01*
X140132738Y-109311767D01*
X140113801Y-109308000D01*
X139014199Y-109308000D01*
X138995262Y-109311767D01*
X138984267Y-109319114D01*
X138982271Y-109319245D01*
X138981160Y-109317582D01*
X138981493Y-109316340D01*
X138990709Y-109302548D01*
X138988969Y-109301385D01*
X138988084Y-109299591D01*
X138988545Y-109298440D01*
X139003078Y-109281048D01*
X139011704Y-109212330D01*
X138988918Y-109164712D01*
X138989072Y-109162718D01*
X138989611Y-109162186D01*
X138990709Y-109161452D01*
X138981493Y-109147660D01*
X138981362Y-109145664D01*
X138983025Y-109144553D01*
X138984267Y-109144886D01*
G37*
G36*
X134684267Y-109144886D02*
G01*
X134695262Y-109152233D01*
X134714199Y-109156000D01*
X135813801Y-109156000D01*
X135832738Y-109152233D01*
X135843733Y-109144886D01*
X135845729Y-109144755D01*
X135846840Y-109146418D01*
X135846507Y-109147660D01*
X135837291Y-109161452D01*
X135839031Y-109162615D01*
X135839916Y-109164409D01*
X135839455Y-109165560D01*
X135824922Y-109182952D01*
X135816296Y-109251670D01*
X135839082Y-109299288D01*
X135838928Y-109301282D01*
X135838389Y-109301814D01*
X135837291Y-109302548D01*
X135846507Y-109316340D01*
X135846638Y-109318336D01*
X135844975Y-109319447D01*
X135843733Y-109319114D01*
X135832738Y-109311767D01*
X135813801Y-109308000D01*
X134714199Y-109308000D01*
X134695262Y-109311767D01*
X134684267Y-109319114D01*
X134682271Y-109319245D01*
X134681160Y-109317582D01*
X134681493Y-109316340D01*
X134690709Y-109302548D01*
X134688969Y-109301385D01*
X134688084Y-109299591D01*
X134688545Y-109298440D01*
X134703078Y-109281048D01*
X134711704Y-109212330D01*
X134688918Y-109164712D01*
X134689072Y-109162718D01*
X134689611Y-109162186D01*
X134690709Y-109161452D01*
X134681493Y-109147660D01*
X134681362Y-109145664D01*
X134683025Y-109144553D01*
X134684267Y-109144886D01*
G37*
G36*
X125785267Y-109144886D02*
G01*
X125796262Y-109152233D01*
X125815199Y-109156000D01*
X126914801Y-109156000D01*
X126933738Y-109152233D01*
X126944733Y-109144886D01*
X126946729Y-109144755D01*
X126947840Y-109146418D01*
X126947507Y-109147660D01*
X126938291Y-109161452D01*
X126940031Y-109162615D01*
X126940916Y-109164409D01*
X126940455Y-109165560D01*
X126925922Y-109182952D01*
X126917296Y-109251670D01*
X126940082Y-109299288D01*
X126939928Y-109301282D01*
X126939389Y-109301814D01*
X126938291Y-109302548D01*
X126947507Y-109316340D01*
X126947638Y-109318336D01*
X126945975Y-109319447D01*
X126944733Y-109319114D01*
X126933738Y-109311767D01*
X126914801Y-109308000D01*
X125815199Y-109308000D01*
X125796262Y-109311767D01*
X125785267Y-109319114D01*
X125783271Y-109319245D01*
X125782160Y-109317582D01*
X125782493Y-109316340D01*
X125791709Y-109302548D01*
X125789969Y-109301385D01*
X125789084Y-109299591D01*
X125789545Y-109298440D01*
X125804078Y-109281048D01*
X125812704Y-109212330D01*
X125789918Y-109164712D01*
X125790072Y-109162718D01*
X125790611Y-109162186D01*
X125791709Y-109161452D01*
X125782493Y-109147660D01*
X125782362Y-109145664D01*
X125784025Y-109144553D01*
X125785267Y-109144886D01*
G37*
G36*
X138046668Y-96891665D02*
G01*
X138047058Y-96893627D01*
X138046699Y-96894267D01*
X138003511Y-96945946D01*
X137994880Y-97014661D01*
X138024844Y-97077291D01*
X138045682Y-97095348D01*
X138046336Y-97097238D01*
X138045026Y-97098749D01*
X138043982Y-97098821D01*
X138029801Y-97096000D01*
X136970199Y-97096000D01*
X136955226Y-97098978D01*
X136953332Y-97098335D01*
X136952942Y-97096373D01*
X136953301Y-97095733D01*
X136996489Y-97044054D01*
X137005120Y-96975339D01*
X136975156Y-96912709D01*
X136954318Y-96894652D01*
X136953664Y-96892762D01*
X136954974Y-96891251D01*
X136956018Y-96891179D01*
X136970199Y-96894000D01*
X138029801Y-96894000D01*
X138044774Y-96891022D01*
X138046668Y-96891665D01*
G37*
G36*
X140246668Y-96891665D02*
G01*
X140247058Y-96893627D01*
X140246699Y-96894267D01*
X140203511Y-96945946D01*
X140194880Y-97014661D01*
X140224844Y-97077291D01*
X140245682Y-97095348D01*
X140246336Y-97097238D01*
X140245026Y-97098749D01*
X140243982Y-97098821D01*
X140229801Y-97096000D01*
X139170199Y-97096000D01*
X139155226Y-97098978D01*
X139153332Y-97098335D01*
X139152942Y-97096373D01*
X139153301Y-97095733D01*
X139196489Y-97044054D01*
X139205120Y-96975339D01*
X139175156Y-96912709D01*
X139154318Y-96894652D01*
X139153664Y-96892762D01*
X139154974Y-96891251D01*
X139156018Y-96891179D01*
X139170199Y-96894000D01*
X140229801Y-96894000D01*
X140244774Y-96891022D01*
X140246668Y-96891665D01*
G37*
G36*
X131442668Y-96825665D02*
G01*
X131443058Y-96827627D01*
X131442699Y-96828267D01*
X131399511Y-96879946D01*
X131390880Y-96948661D01*
X131420844Y-97011291D01*
X131441682Y-97029348D01*
X131442336Y-97031238D01*
X131441026Y-97032749D01*
X131439982Y-97032821D01*
X131425801Y-97030000D01*
X130366199Y-97030000D01*
X130351226Y-97032978D01*
X130349332Y-97032335D01*
X130348942Y-97030373D01*
X130349301Y-97029733D01*
X130392489Y-96978054D01*
X130401120Y-96909339D01*
X130371156Y-96846709D01*
X130350318Y-96828652D01*
X130349664Y-96826762D01*
X130350974Y-96825251D01*
X130352018Y-96825179D01*
X130366199Y-96828000D01*
X131425801Y-96828000D01*
X131440774Y-96825022D01*
X131442668Y-96825665D01*
G37*
G36*
X133642668Y-96825665D02*
G01*
X133643058Y-96827627D01*
X133642699Y-96828267D01*
X133599511Y-96879946D01*
X133590880Y-96948661D01*
X133620844Y-97011291D01*
X133641682Y-97029348D01*
X133642336Y-97031238D01*
X133641026Y-97032749D01*
X133639982Y-97032821D01*
X133625801Y-97030000D01*
X132566199Y-97030000D01*
X132551226Y-97032978D01*
X132549332Y-97032335D01*
X132548942Y-97030373D01*
X132549301Y-97029733D01*
X132592489Y-96978054D01*
X132601120Y-96909339D01*
X132571156Y-96846709D01*
X132550318Y-96828652D01*
X132549664Y-96826762D01*
X132550974Y-96825251D01*
X132552018Y-96825179D01*
X132566199Y-96828000D01*
X133625801Y-96828000D01*
X133640774Y-96825022D01*
X133642668Y-96825665D01*
G37*
G36*
X140246668Y-95941665D02*
G01*
X140247058Y-95943627D01*
X140246699Y-95944267D01*
X140203511Y-95995946D01*
X140194880Y-96064661D01*
X140224844Y-96127291D01*
X140245682Y-96145348D01*
X140246336Y-96147238D01*
X140245026Y-96148749D01*
X140243982Y-96148821D01*
X140229801Y-96146000D01*
X139170199Y-96146000D01*
X139155226Y-96148978D01*
X139153332Y-96148335D01*
X139152942Y-96146373D01*
X139153301Y-96145733D01*
X139196489Y-96094054D01*
X139205120Y-96025339D01*
X139175156Y-95962709D01*
X139154318Y-95944652D01*
X139153664Y-95942762D01*
X139154974Y-95941251D01*
X139156018Y-95941179D01*
X139170199Y-95944000D01*
X140229801Y-95944000D01*
X140244774Y-95941022D01*
X140246668Y-95941665D01*
G37*
G36*
X138046668Y-95941665D02*
G01*
X138047058Y-95943627D01*
X138046699Y-95944267D01*
X138003511Y-95995946D01*
X137994880Y-96064661D01*
X138024844Y-96127291D01*
X138045682Y-96145348D01*
X138046336Y-96147238D01*
X138045026Y-96148749D01*
X138043982Y-96148821D01*
X138029801Y-96146000D01*
X136970199Y-96146000D01*
X136955226Y-96148978D01*
X136953332Y-96148335D01*
X136952942Y-96146373D01*
X136953301Y-96145733D01*
X136996489Y-96094054D01*
X137005120Y-96025339D01*
X136975156Y-95962709D01*
X136954318Y-95944652D01*
X136953664Y-95942762D01*
X136954974Y-95941251D01*
X136956018Y-95941179D01*
X136970199Y-95944000D01*
X138029801Y-95944000D01*
X138044774Y-95941022D01*
X138046668Y-95941665D01*
G37*
G36*
X131442668Y-95875665D02*
G01*
X131443058Y-95877627D01*
X131442699Y-95878267D01*
X131399511Y-95929946D01*
X131390880Y-95998661D01*
X131420844Y-96061291D01*
X131441682Y-96079348D01*
X131442336Y-96081238D01*
X131441026Y-96082749D01*
X131439982Y-96082821D01*
X131425801Y-96080000D01*
X130366199Y-96080000D01*
X130351226Y-96082978D01*
X130349332Y-96082335D01*
X130348942Y-96080373D01*
X130349301Y-96079733D01*
X130392489Y-96028054D01*
X130401120Y-95959339D01*
X130371156Y-95896709D01*
X130350318Y-95878652D01*
X130349664Y-95876762D01*
X130350974Y-95875251D01*
X130352018Y-95875179D01*
X130366199Y-95878000D01*
X131425801Y-95878000D01*
X131440774Y-95875022D01*
X131442668Y-95875665D01*
G37*
G36*
X133642668Y-95875665D02*
G01*
X133643058Y-95877627D01*
X133642699Y-95878267D01*
X133599511Y-95929946D01*
X133590880Y-95998661D01*
X133620844Y-96061291D01*
X133641682Y-96079348D01*
X133642336Y-96081238D01*
X133641026Y-96082749D01*
X133639982Y-96082821D01*
X133625801Y-96080000D01*
X132566199Y-96080000D01*
X132551226Y-96082978D01*
X132549332Y-96082335D01*
X132548942Y-96080373D01*
X132549301Y-96079733D01*
X132592489Y-96028054D01*
X132601120Y-95959339D01*
X132571156Y-95896709D01*
X132550318Y-95878652D01*
X132549664Y-95876762D01*
X132550974Y-95875251D01*
X132552018Y-95875179D01*
X132566199Y-95878000D01*
X133625801Y-95878000D01*
X133640774Y-95875022D01*
X133642668Y-95875665D01*
G37*
M02*
