M48
; DRILL file {KiCad 5.1.10} date Sun Sep 12 13:55:13 2021
; FORMAT={-:-/ absolute / inch / decimal}
; #@! TF.CreationDate,2021-09-12T13:55:13+02:00
; #@! TF.GenerationSoftware,Kicad,Pcbnew,5.1.10
FMAT,2
INCH
T1C0.0157
T2C0.0374
T3C0.0394
T4C0.1083
%
G90
G05
T1
X4.605Y-3.86
X4.605Y-3.92
X4.605Y-4.055
X4.61Y-4.23
X4.665Y-4.055
X4.675Y-3.75
X4.69Y-3.82
X4.69Y-3.86
X4.69Y-4.21
X4.69Y-4.31
X4.7375Y-4.055
X4.8Y-3.75
X4.815Y-3.9
X4.865Y-4.15
X4.89Y-3.875
X4.895Y-3.935
X4.935Y-4.415
X5.015Y-4.6
X5.02Y-4.43
X5.025Y-4.315
X5.0268Y-4.37
X5.085Y-4.335
X5.095Y-3.74
X5.115Y-4.2075
X5.15Y-4.17
X5.155Y-3.905
X5.205Y-3.94
X5.215Y-4.24
X5.265Y-4.22
X5.265Y-4.265
X5.27Y-4.1
X5.3Y-4.425
X5.315Y-3.76
X5.325Y-3.925
X5.34Y-4.56
X5.3575Y-3.825
X5.37Y-3.88
X5.38Y-4.3
X5.425Y-4.585
X5.43Y-3.94
X5.4475Y-3.71
X5.455Y-4.5
X5.5088Y-3.7102
X5.53Y-4.25
X5.5675Y-3.7225
X5.5675Y-3.765
X5.58Y-4.25
X5.61Y-4.425
X5.69Y-4.43
X5.69Y-4.5
X5.69Y-4.56
X5.714Y-4.28
X5.76Y-4.01
X5.91Y-4.05
X5.91Y-4.1
X5.918Y-4.534
X5.94Y-4.305
X6.01Y-4.6
X6.1325Y-4.6
X6.204Y-3.932
X6.23Y-4.3
X6.31Y-4.3
X6.3325Y-4.6
X6.44Y-4.27
X6.44Y-4.37
X6.44Y-4.41
X6.452Y-4.496
X6.4525Y-4.095
X6.47Y-4.17
X6.5758Y-4.4842
X6.582Y-3.92
X6.59Y-4.3
X6.73Y-3.918
X6.73Y-4.01
X6.73Y-4.16
X6.75Y-4.32
X6.75Y-4.514
X6.75Y-4.6
X6.92Y-4.24
X7.04Y-3.945
X7.04Y-4.0
X7.04Y-4.16
X7.04Y-4.21
X7.04Y-4.27
X7.08Y-3.76
X7.08Y-3.83
X7.09Y-3.945
X7.092Y-4.35
X7.0925Y-4.0025
X7.0925Y-4.16
X7.0925Y-4.2125
X7.0925Y-4.27
X7.0925Y-4.27
X7.095Y-4.0775
T2
X5.77Y-3.81
X5.8684Y-3.81
X5.9669Y-3.81
X6.0653Y-3.81
X6.3197Y-3.81
X6.4181Y-3.81
X6.5166Y-3.81
X6.615Y-3.81
T3
X4.897Y-3.549
X4.897Y-3.649
X4.997Y-3.549
X4.997Y-3.649
X5.097Y-3.549
X5.097Y-3.649
X5.197Y-3.549
X5.197Y-3.649
X5.297Y-3.549
X5.297Y-3.649
X5.397Y-3.549
X5.397Y-3.649
X5.497Y-3.549
X5.497Y-3.649
X5.597Y-3.549
X5.597Y-3.649
X5.697Y-3.549
X5.697Y-3.649
X5.797Y-3.549
X5.797Y-3.649
X5.897Y-3.549
X5.897Y-3.649
X5.997Y-3.549
X5.997Y-3.649
X6.097Y-3.549
X6.097Y-3.649
X6.197Y-3.549
X6.197Y-3.649
X6.297Y-3.549
X6.297Y-3.649
X6.397Y-3.549
X6.397Y-3.649
X6.497Y-3.549
X6.497Y-3.649
X6.597Y-3.549
X6.597Y-3.649
X6.697Y-3.549
X6.697Y-3.649
X6.797Y-3.549
X6.797Y-3.649
X6.87Y-3.81
X6.9684Y-3.81
T4
X4.7047Y-3.6024
X4.7087Y-4.5079
X6.9885Y-4.511
X6.9921Y-3.6024
T0
M30
