%TF.GenerationSoftware,KiCad,Pcbnew,5.1.10*%
%TF.CreationDate,2021-06-19T09:57:27+02:00*%
%TF.ProjectId,RaspberryI2Cextender,52617370-6265-4727-9279-493243657874,rev?*%
%TF.SameCoordinates,Original*%
%TF.FileFunction,Legend,Top*%
%TF.FilePolarity,Positive*%
%FSLAX46Y46*%
G04 Gerber Fmt 4.6, Leading zero omitted, Abs format (unit mm)*
G04 Created by KiCad (PCBNEW 5.1.10) date 2021-06-19 09:57:27*
%MOMM*%
%LPD*%
G01*
G04 APERTURE LIST*
%ADD10C,0.150000*%
%ADD11C,0.300000*%
%ADD12C,0.120000*%
G04 APERTURE END LIST*
D10*
X146972976Y-82319761D02*
X147115833Y-82367380D01*
X147353928Y-82367380D01*
X147449166Y-82319761D01*
X147496785Y-82272142D01*
X147544404Y-82176904D01*
X147544404Y-82081666D01*
X147496785Y-81986428D01*
X147449166Y-81938809D01*
X147353928Y-81891190D01*
X147163452Y-81843571D01*
X147068214Y-81795952D01*
X147020595Y-81748333D01*
X146972976Y-81653095D01*
X146972976Y-81557857D01*
X147020595Y-81462619D01*
X147068214Y-81415000D01*
X147163452Y-81367380D01*
X147401547Y-81367380D01*
X147544404Y-81415000D01*
X147972976Y-82367380D02*
X147972976Y-81367380D01*
X148211071Y-81367380D01*
X148353928Y-81415000D01*
X148449166Y-81510238D01*
X148496785Y-81605476D01*
X148544404Y-81795952D01*
X148544404Y-81938809D01*
X148496785Y-82129285D01*
X148449166Y-82224523D01*
X148353928Y-82319761D01*
X148211071Y-82367380D01*
X147972976Y-82367380D01*
X148925357Y-82081666D02*
X149401547Y-82081666D01*
X148830119Y-82367380D02*
X149163452Y-81367380D01*
X149496785Y-82367380D01*
X147544404Y-86495000D02*
X147449166Y-86447380D01*
X147306309Y-86447380D01*
X147163452Y-86495000D01*
X147068214Y-86590238D01*
X147020595Y-86685476D01*
X146972976Y-86875952D01*
X146972976Y-87018809D01*
X147020595Y-87209285D01*
X147068214Y-87304523D01*
X147163452Y-87399761D01*
X147306309Y-87447380D01*
X147401547Y-87447380D01*
X147544404Y-87399761D01*
X147592023Y-87352142D01*
X147592023Y-87018809D01*
X147401547Y-87018809D01*
X148020595Y-87447380D02*
X148020595Y-86447380D01*
X148592023Y-87447380D01*
X148592023Y-86447380D01*
X149068214Y-87447380D02*
X149068214Y-86447380D01*
X149306309Y-86447380D01*
X149449166Y-86495000D01*
X149544404Y-86590238D01*
X149592023Y-86685476D01*
X149639642Y-86875952D01*
X149639642Y-87018809D01*
X149592023Y-87209285D01*
X149544404Y-87304523D01*
X149449166Y-87399761D01*
X149306309Y-87447380D01*
X149068214Y-87447380D01*
X146877738Y-83907380D02*
X147211071Y-84907380D01*
X147544404Y-83907380D01*
X148449166Y-84812142D02*
X148401547Y-84859761D01*
X148258690Y-84907380D01*
X148163452Y-84907380D01*
X148020595Y-84859761D01*
X147925357Y-84764523D01*
X147877738Y-84669285D01*
X147830119Y-84478809D01*
X147830119Y-84335952D01*
X147877738Y-84145476D01*
X147925357Y-84050238D01*
X148020595Y-83955000D01*
X148163452Y-83907380D01*
X148258690Y-83907380D01*
X148401547Y-83955000D01*
X148449166Y-84002619D01*
X149449166Y-84812142D02*
X149401547Y-84859761D01*
X149258690Y-84907380D01*
X149163452Y-84907380D01*
X149020595Y-84859761D01*
X148925357Y-84764523D01*
X148877738Y-84669285D01*
X148830119Y-84478809D01*
X148830119Y-84335952D01*
X148877738Y-84145476D01*
X148925357Y-84050238D01*
X149020595Y-83955000D01*
X149163452Y-83907380D01*
X149258690Y-83907380D01*
X149401547Y-83955000D01*
X149449166Y-84002619D01*
X146972976Y-79779761D02*
X147115833Y-79827380D01*
X147353928Y-79827380D01*
X147449166Y-79779761D01*
X147496785Y-79732142D01*
X147544404Y-79636904D01*
X147544404Y-79541666D01*
X147496785Y-79446428D01*
X147449166Y-79398809D01*
X147353928Y-79351190D01*
X147163452Y-79303571D01*
X147068214Y-79255952D01*
X147020595Y-79208333D01*
X146972976Y-79113095D01*
X146972976Y-79017857D01*
X147020595Y-78922619D01*
X147068214Y-78875000D01*
X147163452Y-78827380D01*
X147401547Y-78827380D01*
X147544404Y-78875000D01*
X148544404Y-79732142D02*
X148496785Y-79779761D01*
X148353928Y-79827380D01*
X148258690Y-79827380D01*
X148115833Y-79779761D01*
X148020595Y-79684523D01*
X147972976Y-79589285D01*
X147925357Y-79398809D01*
X147925357Y-79255952D01*
X147972976Y-79065476D01*
X148020595Y-78970238D01*
X148115833Y-78875000D01*
X148258690Y-78827380D01*
X148353928Y-78827380D01*
X148496785Y-78875000D01*
X148544404Y-78922619D01*
X149449166Y-79827380D02*
X148972976Y-79827380D01*
X148972976Y-78827380D01*
X146972976Y-65809761D02*
X147115833Y-65857380D01*
X147353928Y-65857380D01*
X147449166Y-65809761D01*
X147496785Y-65762142D01*
X147544404Y-65666904D01*
X147544404Y-65571666D01*
X147496785Y-65476428D01*
X147449166Y-65428809D01*
X147353928Y-65381190D01*
X147163452Y-65333571D01*
X147068214Y-65285952D01*
X147020595Y-65238333D01*
X146972976Y-65143095D01*
X146972976Y-65047857D01*
X147020595Y-64952619D01*
X147068214Y-64905000D01*
X147163452Y-64857380D01*
X147401547Y-64857380D01*
X147544404Y-64905000D01*
X148544404Y-65762142D02*
X148496785Y-65809761D01*
X148353928Y-65857380D01*
X148258690Y-65857380D01*
X148115833Y-65809761D01*
X148020595Y-65714523D01*
X147972976Y-65619285D01*
X147925357Y-65428809D01*
X147925357Y-65285952D01*
X147972976Y-65095476D01*
X148020595Y-65000238D01*
X148115833Y-64905000D01*
X148258690Y-64857380D01*
X148353928Y-64857380D01*
X148496785Y-64905000D01*
X148544404Y-64952619D01*
X149449166Y-65857380D02*
X148972976Y-65857380D01*
X148972976Y-64857380D01*
X146972976Y-68349761D02*
X147115833Y-68397380D01*
X147353928Y-68397380D01*
X147449166Y-68349761D01*
X147496785Y-68302142D01*
X147544404Y-68206904D01*
X147544404Y-68111666D01*
X147496785Y-68016428D01*
X147449166Y-67968809D01*
X147353928Y-67921190D01*
X147163452Y-67873571D01*
X147068214Y-67825952D01*
X147020595Y-67778333D01*
X146972976Y-67683095D01*
X146972976Y-67587857D01*
X147020595Y-67492619D01*
X147068214Y-67445000D01*
X147163452Y-67397380D01*
X147401547Y-67397380D01*
X147544404Y-67445000D01*
X147972976Y-68397380D02*
X147972976Y-67397380D01*
X148211071Y-67397380D01*
X148353928Y-67445000D01*
X148449166Y-67540238D01*
X148496785Y-67635476D01*
X148544404Y-67825952D01*
X148544404Y-67968809D01*
X148496785Y-68159285D01*
X148449166Y-68254523D01*
X148353928Y-68349761D01*
X148211071Y-68397380D01*
X147972976Y-68397380D01*
X148925357Y-68111666D02*
X149401547Y-68111666D01*
X148830119Y-68397380D02*
X149163452Y-67397380D01*
X149496785Y-68397380D01*
X147544404Y-72525000D02*
X147449166Y-72477380D01*
X147306309Y-72477380D01*
X147163452Y-72525000D01*
X147068214Y-72620238D01*
X147020595Y-72715476D01*
X146972976Y-72905952D01*
X146972976Y-73048809D01*
X147020595Y-73239285D01*
X147068214Y-73334523D01*
X147163452Y-73429761D01*
X147306309Y-73477380D01*
X147401547Y-73477380D01*
X147544404Y-73429761D01*
X147592023Y-73382142D01*
X147592023Y-73048809D01*
X147401547Y-73048809D01*
X148020595Y-73477380D02*
X148020595Y-72477380D01*
X148592023Y-73477380D01*
X148592023Y-72477380D01*
X149068214Y-73477380D02*
X149068214Y-72477380D01*
X149306309Y-72477380D01*
X149449166Y-72525000D01*
X149544404Y-72620238D01*
X149592023Y-72715476D01*
X149639642Y-72905952D01*
X149639642Y-73048809D01*
X149592023Y-73239285D01*
X149544404Y-73334523D01*
X149449166Y-73429761D01*
X149306309Y-73477380D01*
X149068214Y-73477380D01*
X146877738Y-69937380D02*
X147211071Y-70937380D01*
X147544404Y-69937380D01*
X148449166Y-70842142D02*
X148401547Y-70889761D01*
X148258690Y-70937380D01*
X148163452Y-70937380D01*
X148020595Y-70889761D01*
X147925357Y-70794523D01*
X147877738Y-70699285D01*
X147830119Y-70508809D01*
X147830119Y-70365952D01*
X147877738Y-70175476D01*
X147925357Y-70080238D01*
X148020595Y-69985000D01*
X148163452Y-69937380D01*
X148258690Y-69937380D01*
X148401547Y-69985000D01*
X148449166Y-70032619D01*
X149449166Y-70842142D02*
X149401547Y-70889761D01*
X149258690Y-70937380D01*
X149163452Y-70937380D01*
X149020595Y-70889761D01*
X148925357Y-70794523D01*
X148877738Y-70699285D01*
X148830119Y-70508809D01*
X148830119Y-70365952D01*
X148877738Y-70175476D01*
X148925357Y-70080238D01*
X149020595Y-69985000D01*
X149163452Y-69937380D01*
X149258690Y-69937380D01*
X149401547Y-69985000D01*
X149449166Y-70032619D01*
X147476785Y-58555000D02*
X147381547Y-58507380D01*
X147238690Y-58507380D01*
X147095833Y-58555000D01*
X147000595Y-58650238D01*
X146952976Y-58745476D01*
X146905357Y-58935952D01*
X146905357Y-59078809D01*
X146952976Y-59269285D01*
X147000595Y-59364523D01*
X147095833Y-59459761D01*
X147238690Y-59507380D01*
X147333928Y-59507380D01*
X147476785Y-59459761D01*
X147524404Y-59412142D01*
X147524404Y-59078809D01*
X147333928Y-59078809D01*
X147952976Y-59507380D02*
X147952976Y-58507380D01*
X148524404Y-59507380D01*
X148524404Y-58507380D01*
X149000595Y-59507380D02*
X149000595Y-58507380D01*
X149238690Y-58507380D01*
X149381547Y-58555000D01*
X149476785Y-58650238D01*
X149524404Y-58745476D01*
X149572023Y-58935952D01*
X149572023Y-59078809D01*
X149524404Y-59269285D01*
X149476785Y-59364523D01*
X149381547Y-59459761D01*
X149238690Y-59507380D01*
X149000595Y-59507380D01*
X147000595Y-55967380D02*
X147333928Y-56967380D01*
X147667261Y-55967380D01*
X148572023Y-56872142D02*
X148524404Y-56919761D01*
X148381547Y-56967380D01*
X148286309Y-56967380D01*
X148143452Y-56919761D01*
X148048214Y-56824523D01*
X148000595Y-56729285D01*
X147952976Y-56538809D01*
X147952976Y-56395952D01*
X148000595Y-56205476D01*
X148048214Y-56110238D01*
X148143452Y-56015000D01*
X148286309Y-55967380D01*
X148381547Y-55967380D01*
X148524404Y-56015000D01*
X148572023Y-56062619D01*
X149572023Y-56872142D02*
X149524404Y-56919761D01*
X149381547Y-56967380D01*
X149286309Y-56967380D01*
X149143452Y-56919761D01*
X149048214Y-56824523D01*
X149000595Y-56729285D01*
X148952976Y-56538809D01*
X148952976Y-56395952D01*
X149000595Y-56205476D01*
X149048214Y-56110238D01*
X149143452Y-56015000D01*
X149286309Y-55967380D01*
X149381547Y-55967380D01*
X149524404Y-56015000D01*
X149572023Y-56062619D01*
X147143452Y-54379761D02*
X147286309Y-54427380D01*
X147524404Y-54427380D01*
X147619642Y-54379761D01*
X147667261Y-54332142D01*
X147714880Y-54236904D01*
X147714880Y-54141666D01*
X147667261Y-54046428D01*
X147619642Y-53998809D01*
X147524404Y-53951190D01*
X147333928Y-53903571D01*
X147238690Y-53855952D01*
X147191071Y-53808333D01*
X147143452Y-53713095D01*
X147143452Y-53617857D01*
X147191071Y-53522619D01*
X147238690Y-53475000D01*
X147333928Y-53427380D01*
X147572023Y-53427380D01*
X147714880Y-53475000D01*
X148143452Y-54427380D02*
X148143452Y-53427380D01*
X148381547Y-53427380D01*
X148524404Y-53475000D01*
X148619642Y-53570238D01*
X148667261Y-53665476D01*
X148714880Y-53855952D01*
X148714880Y-53998809D01*
X148667261Y-54189285D01*
X148619642Y-54284523D01*
X148524404Y-54379761D01*
X148381547Y-54427380D01*
X148143452Y-54427380D01*
X149095833Y-54141666D02*
X149572023Y-54141666D01*
X149000595Y-54427380D02*
X149333928Y-53427380D01*
X149667261Y-54427380D01*
X147191071Y-51839761D02*
X147333928Y-51887380D01*
X147572023Y-51887380D01*
X147667261Y-51839761D01*
X147714880Y-51792142D01*
X147762500Y-51696904D01*
X147762500Y-51601666D01*
X147714880Y-51506428D01*
X147667261Y-51458809D01*
X147572023Y-51411190D01*
X147381547Y-51363571D01*
X147286309Y-51315952D01*
X147238690Y-51268333D01*
X147191071Y-51173095D01*
X147191071Y-51077857D01*
X147238690Y-50982619D01*
X147286309Y-50935000D01*
X147381547Y-50887380D01*
X147619642Y-50887380D01*
X147762500Y-50935000D01*
X148762500Y-51792142D02*
X148714880Y-51839761D01*
X148572023Y-51887380D01*
X148476785Y-51887380D01*
X148333928Y-51839761D01*
X148238690Y-51744523D01*
X148191071Y-51649285D01*
X148143452Y-51458809D01*
X148143452Y-51315952D01*
X148191071Y-51125476D01*
X148238690Y-51030238D01*
X148333928Y-50935000D01*
X148476785Y-50887380D01*
X148572023Y-50887380D01*
X148714880Y-50935000D01*
X148762500Y-50982619D01*
X149667261Y-51887380D02*
X149191071Y-51887380D01*
X149191071Y-50887380D01*
X120302976Y-82319761D02*
X120445833Y-82367380D01*
X120683928Y-82367380D01*
X120779166Y-82319761D01*
X120826785Y-82272142D01*
X120874404Y-82176904D01*
X120874404Y-82081666D01*
X120826785Y-81986428D01*
X120779166Y-81938809D01*
X120683928Y-81891190D01*
X120493452Y-81843571D01*
X120398214Y-81795952D01*
X120350595Y-81748333D01*
X120302976Y-81653095D01*
X120302976Y-81557857D01*
X120350595Y-81462619D01*
X120398214Y-81415000D01*
X120493452Y-81367380D01*
X120731547Y-81367380D01*
X120874404Y-81415000D01*
X121302976Y-82367380D02*
X121302976Y-81367380D01*
X121541071Y-81367380D01*
X121683928Y-81415000D01*
X121779166Y-81510238D01*
X121826785Y-81605476D01*
X121874404Y-81795952D01*
X121874404Y-81938809D01*
X121826785Y-82129285D01*
X121779166Y-82224523D01*
X121683928Y-82319761D01*
X121541071Y-82367380D01*
X121302976Y-82367380D01*
X122255357Y-82081666D02*
X122731547Y-82081666D01*
X122160119Y-82367380D02*
X122493452Y-81367380D01*
X122826785Y-82367380D01*
X120874404Y-86495000D02*
X120779166Y-86447380D01*
X120636309Y-86447380D01*
X120493452Y-86495000D01*
X120398214Y-86590238D01*
X120350595Y-86685476D01*
X120302976Y-86875952D01*
X120302976Y-87018809D01*
X120350595Y-87209285D01*
X120398214Y-87304523D01*
X120493452Y-87399761D01*
X120636309Y-87447380D01*
X120731547Y-87447380D01*
X120874404Y-87399761D01*
X120922023Y-87352142D01*
X120922023Y-87018809D01*
X120731547Y-87018809D01*
X121350595Y-87447380D02*
X121350595Y-86447380D01*
X121922023Y-87447380D01*
X121922023Y-86447380D01*
X122398214Y-87447380D02*
X122398214Y-86447380D01*
X122636309Y-86447380D01*
X122779166Y-86495000D01*
X122874404Y-86590238D01*
X122922023Y-86685476D01*
X122969642Y-86875952D01*
X122969642Y-87018809D01*
X122922023Y-87209285D01*
X122874404Y-87304523D01*
X122779166Y-87399761D01*
X122636309Y-87447380D01*
X122398214Y-87447380D01*
X120207738Y-83907380D02*
X120541071Y-84907380D01*
X120874404Y-83907380D01*
X121779166Y-84812142D02*
X121731547Y-84859761D01*
X121588690Y-84907380D01*
X121493452Y-84907380D01*
X121350595Y-84859761D01*
X121255357Y-84764523D01*
X121207738Y-84669285D01*
X121160119Y-84478809D01*
X121160119Y-84335952D01*
X121207738Y-84145476D01*
X121255357Y-84050238D01*
X121350595Y-83955000D01*
X121493452Y-83907380D01*
X121588690Y-83907380D01*
X121731547Y-83955000D01*
X121779166Y-84002619D01*
X122779166Y-84812142D02*
X122731547Y-84859761D01*
X122588690Y-84907380D01*
X122493452Y-84907380D01*
X122350595Y-84859761D01*
X122255357Y-84764523D01*
X122207738Y-84669285D01*
X122160119Y-84478809D01*
X122160119Y-84335952D01*
X122207738Y-84145476D01*
X122255357Y-84050238D01*
X122350595Y-83955000D01*
X122493452Y-83907380D01*
X122588690Y-83907380D01*
X122731547Y-83955000D01*
X122779166Y-84002619D01*
X120302976Y-79779761D02*
X120445833Y-79827380D01*
X120683928Y-79827380D01*
X120779166Y-79779761D01*
X120826785Y-79732142D01*
X120874404Y-79636904D01*
X120874404Y-79541666D01*
X120826785Y-79446428D01*
X120779166Y-79398809D01*
X120683928Y-79351190D01*
X120493452Y-79303571D01*
X120398214Y-79255952D01*
X120350595Y-79208333D01*
X120302976Y-79113095D01*
X120302976Y-79017857D01*
X120350595Y-78922619D01*
X120398214Y-78875000D01*
X120493452Y-78827380D01*
X120731547Y-78827380D01*
X120874404Y-78875000D01*
X121874404Y-79732142D02*
X121826785Y-79779761D01*
X121683928Y-79827380D01*
X121588690Y-79827380D01*
X121445833Y-79779761D01*
X121350595Y-79684523D01*
X121302976Y-79589285D01*
X121255357Y-79398809D01*
X121255357Y-79255952D01*
X121302976Y-79065476D01*
X121350595Y-78970238D01*
X121445833Y-78875000D01*
X121588690Y-78827380D01*
X121683928Y-78827380D01*
X121826785Y-78875000D01*
X121874404Y-78922619D01*
X122779166Y-79827380D02*
X122302976Y-79827380D01*
X122302976Y-78827380D01*
X120302976Y-68349761D02*
X120445833Y-68397380D01*
X120683928Y-68397380D01*
X120779166Y-68349761D01*
X120826785Y-68302142D01*
X120874404Y-68206904D01*
X120874404Y-68111666D01*
X120826785Y-68016428D01*
X120779166Y-67968809D01*
X120683928Y-67921190D01*
X120493452Y-67873571D01*
X120398214Y-67825952D01*
X120350595Y-67778333D01*
X120302976Y-67683095D01*
X120302976Y-67587857D01*
X120350595Y-67492619D01*
X120398214Y-67445000D01*
X120493452Y-67397380D01*
X120731547Y-67397380D01*
X120874404Y-67445000D01*
X121302976Y-68397380D02*
X121302976Y-67397380D01*
X121541071Y-67397380D01*
X121683928Y-67445000D01*
X121779166Y-67540238D01*
X121826785Y-67635476D01*
X121874404Y-67825952D01*
X121874404Y-67968809D01*
X121826785Y-68159285D01*
X121779166Y-68254523D01*
X121683928Y-68349761D01*
X121541071Y-68397380D01*
X121302976Y-68397380D01*
X122255357Y-68111666D02*
X122731547Y-68111666D01*
X122160119Y-68397380D02*
X122493452Y-67397380D01*
X122826785Y-68397380D01*
X120874404Y-72525000D02*
X120779166Y-72477380D01*
X120636309Y-72477380D01*
X120493452Y-72525000D01*
X120398214Y-72620238D01*
X120350595Y-72715476D01*
X120302976Y-72905952D01*
X120302976Y-73048809D01*
X120350595Y-73239285D01*
X120398214Y-73334523D01*
X120493452Y-73429761D01*
X120636309Y-73477380D01*
X120731547Y-73477380D01*
X120874404Y-73429761D01*
X120922023Y-73382142D01*
X120922023Y-73048809D01*
X120731547Y-73048809D01*
X121350595Y-73477380D02*
X121350595Y-72477380D01*
X121922023Y-73477380D01*
X121922023Y-72477380D01*
X122398214Y-73477380D02*
X122398214Y-72477380D01*
X122636309Y-72477380D01*
X122779166Y-72525000D01*
X122874404Y-72620238D01*
X122922023Y-72715476D01*
X122969642Y-72905952D01*
X122969642Y-73048809D01*
X122922023Y-73239285D01*
X122874404Y-73334523D01*
X122779166Y-73429761D01*
X122636309Y-73477380D01*
X122398214Y-73477380D01*
X120207738Y-69937380D02*
X120541071Y-70937380D01*
X120874404Y-69937380D01*
X121779166Y-70842142D02*
X121731547Y-70889761D01*
X121588690Y-70937380D01*
X121493452Y-70937380D01*
X121350595Y-70889761D01*
X121255357Y-70794523D01*
X121207738Y-70699285D01*
X121160119Y-70508809D01*
X121160119Y-70365952D01*
X121207738Y-70175476D01*
X121255357Y-70080238D01*
X121350595Y-69985000D01*
X121493452Y-69937380D01*
X121588690Y-69937380D01*
X121731547Y-69985000D01*
X121779166Y-70032619D01*
X122779166Y-70842142D02*
X122731547Y-70889761D01*
X122588690Y-70937380D01*
X122493452Y-70937380D01*
X122350595Y-70889761D01*
X122255357Y-70794523D01*
X122207738Y-70699285D01*
X122160119Y-70508809D01*
X122160119Y-70365952D01*
X122207738Y-70175476D01*
X122255357Y-70080238D01*
X122350595Y-69985000D01*
X122493452Y-69937380D01*
X122588690Y-69937380D01*
X122731547Y-69985000D01*
X122779166Y-70032619D01*
X120302976Y-65809761D02*
X120445833Y-65857380D01*
X120683928Y-65857380D01*
X120779166Y-65809761D01*
X120826785Y-65762142D01*
X120874404Y-65666904D01*
X120874404Y-65571666D01*
X120826785Y-65476428D01*
X120779166Y-65428809D01*
X120683928Y-65381190D01*
X120493452Y-65333571D01*
X120398214Y-65285952D01*
X120350595Y-65238333D01*
X120302976Y-65143095D01*
X120302976Y-65047857D01*
X120350595Y-64952619D01*
X120398214Y-64905000D01*
X120493452Y-64857380D01*
X120731547Y-64857380D01*
X120874404Y-64905000D01*
X121874404Y-65762142D02*
X121826785Y-65809761D01*
X121683928Y-65857380D01*
X121588690Y-65857380D01*
X121445833Y-65809761D01*
X121350595Y-65714523D01*
X121302976Y-65619285D01*
X121255357Y-65428809D01*
X121255357Y-65285952D01*
X121302976Y-65095476D01*
X121350595Y-65000238D01*
X121445833Y-64905000D01*
X121588690Y-64857380D01*
X121683928Y-64857380D01*
X121826785Y-64905000D01*
X121874404Y-64952619D01*
X122779166Y-65857380D02*
X122302976Y-65857380D01*
X122302976Y-64857380D01*
X120207738Y-55967380D02*
X120541071Y-56967380D01*
X120874404Y-55967380D01*
X121779166Y-56872142D02*
X121731547Y-56919761D01*
X121588690Y-56967380D01*
X121493452Y-56967380D01*
X121350595Y-56919761D01*
X121255357Y-56824523D01*
X121207738Y-56729285D01*
X121160119Y-56538809D01*
X121160119Y-56395952D01*
X121207738Y-56205476D01*
X121255357Y-56110238D01*
X121350595Y-56015000D01*
X121493452Y-55967380D01*
X121588690Y-55967380D01*
X121731547Y-56015000D01*
X121779166Y-56062619D01*
X122779166Y-56872142D02*
X122731547Y-56919761D01*
X122588690Y-56967380D01*
X122493452Y-56967380D01*
X122350595Y-56919761D01*
X122255357Y-56824523D01*
X122207738Y-56729285D01*
X122160119Y-56538809D01*
X122160119Y-56395952D01*
X122207738Y-56205476D01*
X122255357Y-56110238D01*
X122350595Y-56015000D01*
X122493452Y-55967380D01*
X122588690Y-55967380D01*
X122731547Y-56015000D01*
X122779166Y-56062619D01*
X120302976Y-54379761D02*
X120445833Y-54427380D01*
X120683928Y-54427380D01*
X120779166Y-54379761D01*
X120826785Y-54332142D01*
X120874404Y-54236904D01*
X120874404Y-54141666D01*
X120826785Y-54046428D01*
X120779166Y-53998809D01*
X120683928Y-53951190D01*
X120493452Y-53903571D01*
X120398214Y-53855952D01*
X120350595Y-53808333D01*
X120302976Y-53713095D01*
X120302976Y-53617857D01*
X120350595Y-53522619D01*
X120398214Y-53475000D01*
X120493452Y-53427380D01*
X120731547Y-53427380D01*
X120874404Y-53475000D01*
X121302976Y-54427380D02*
X121302976Y-53427380D01*
X121541071Y-53427380D01*
X121683928Y-53475000D01*
X121779166Y-53570238D01*
X121826785Y-53665476D01*
X121874404Y-53855952D01*
X121874404Y-53998809D01*
X121826785Y-54189285D01*
X121779166Y-54284523D01*
X121683928Y-54379761D01*
X121541071Y-54427380D01*
X121302976Y-54427380D01*
X122255357Y-54141666D02*
X122731547Y-54141666D01*
X122160119Y-54427380D02*
X122493452Y-53427380D01*
X122826785Y-54427380D01*
X120302976Y-51839761D02*
X120445833Y-51887380D01*
X120683928Y-51887380D01*
X120779166Y-51839761D01*
X120826785Y-51792142D01*
X120874404Y-51696904D01*
X120874404Y-51601666D01*
X120826785Y-51506428D01*
X120779166Y-51458809D01*
X120683928Y-51411190D01*
X120493452Y-51363571D01*
X120398214Y-51315952D01*
X120350595Y-51268333D01*
X120302976Y-51173095D01*
X120302976Y-51077857D01*
X120350595Y-50982619D01*
X120398214Y-50935000D01*
X120493452Y-50887380D01*
X120731547Y-50887380D01*
X120874404Y-50935000D01*
X121874404Y-51792142D02*
X121826785Y-51839761D01*
X121683928Y-51887380D01*
X121588690Y-51887380D01*
X121445833Y-51839761D01*
X121350595Y-51744523D01*
X121302976Y-51649285D01*
X121255357Y-51458809D01*
X121255357Y-51315952D01*
X121302976Y-51125476D01*
X121350595Y-51030238D01*
X121445833Y-50935000D01*
X121588690Y-50887380D01*
X121683928Y-50887380D01*
X121826785Y-50935000D01*
X121874404Y-50982619D01*
X122779166Y-51887380D02*
X122302976Y-51887380D01*
X122302976Y-50887380D01*
X120874404Y-58555000D02*
X120779166Y-58507380D01*
X120636309Y-58507380D01*
X120493452Y-58555000D01*
X120398214Y-58650238D01*
X120350595Y-58745476D01*
X120302976Y-58935952D01*
X120302976Y-59078809D01*
X120350595Y-59269285D01*
X120398214Y-59364523D01*
X120493452Y-59459761D01*
X120636309Y-59507380D01*
X120731547Y-59507380D01*
X120874404Y-59459761D01*
X120922023Y-59412142D01*
X120922023Y-59078809D01*
X120731547Y-59078809D01*
X121350595Y-59507380D02*
X121350595Y-58507380D01*
X121922023Y-59507380D01*
X121922023Y-58507380D01*
X122398214Y-59507380D02*
X122398214Y-58507380D01*
X122636309Y-58507380D01*
X122779166Y-58555000D01*
X122874404Y-58650238D01*
X122922023Y-58745476D01*
X122969642Y-58935952D01*
X122969642Y-59078809D01*
X122922023Y-59269285D01*
X122874404Y-59364523D01*
X122779166Y-59459761D01*
X122636309Y-59507380D01*
X122398214Y-59507380D01*
X116356904Y-92520238D02*
X115973571Y-91972619D01*
X115699761Y-92520238D02*
X115699761Y-91370238D01*
X116137857Y-91370238D01*
X116247380Y-91425000D01*
X116302142Y-91479761D01*
X116356904Y-91589285D01*
X116356904Y-91753571D01*
X116302142Y-91863095D01*
X116247380Y-91917857D01*
X116137857Y-91972619D01*
X115699761Y-91972619D01*
X116795000Y-92191666D02*
X117342619Y-92191666D01*
X116685476Y-92520238D02*
X117068809Y-91370238D01*
X117452142Y-92520238D01*
X117780714Y-92465476D02*
X117945000Y-92520238D01*
X118218809Y-92520238D01*
X118328333Y-92465476D01*
X118383095Y-92410714D01*
X118437857Y-92301190D01*
X118437857Y-92191666D01*
X118383095Y-92082142D01*
X118328333Y-92027380D01*
X118218809Y-91972619D01*
X117999761Y-91917857D01*
X117890238Y-91863095D01*
X117835476Y-91808333D01*
X117780714Y-91698809D01*
X117780714Y-91589285D01*
X117835476Y-91479761D01*
X117890238Y-91425000D01*
X117999761Y-91370238D01*
X118273571Y-91370238D01*
X118437857Y-91425000D01*
X118930714Y-92520238D02*
X118930714Y-91370238D01*
X119368809Y-91370238D01*
X119478333Y-91425000D01*
X119533095Y-91479761D01*
X119587857Y-91589285D01*
X119587857Y-91753571D01*
X119533095Y-91863095D01*
X119478333Y-91917857D01*
X119368809Y-91972619D01*
X118930714Y-91972619D01*
X120464047Y-91917857D02*
X120628333Y-91972619D01*
X120683095Y-92027380D01*
X120737857Y-92136904D01*
X120737857Y-92301190D01*
X120683095Y-92410714D01*
X120628333Y-92465476D01*
X120518809Y-92520238D01*
X120080714Y-92520238D01*
X120080714Y-91370238D01*
X120464047Y-91370238D01*
X120573571Y-91425000D01*
X120628333Y-91479761D01*
X120683095Y-91589285D01*
X120683095Y-91698809D01*
X120628333Y-91808333D01*
X120573571Y-91863095D01*
X120464047Y-91917857D01*
X120080714Y-91917857D01*
X121230714Y-91917857D02*
X121614047Y-91917857D01*
X121778333Y-92520238D02*
X121230714Y-92520238D01*
X121230714Y-91370238D01*
X121778333Y-91370238D01*
X122928333Y-92520238D02*
X122545000Y-91972619D01*
X122271190Y-92520238D02*
X122271190Y-91370238D01*
X122709285Y-91370238D01*
X122818809Y-91425000D01*
X122873571Y-91479761D01*
X122928333Y-91589285D01*
X122928333Y-91753571D01*
X122873571Y-91863095D01*
X122818809Y-91917857D01*
X122709285Y-91972619D01*
X122271190Y-91972619D01*
X124078333Y-92520238D02*
X123695000Y-91972619D01*
X123421190Y-92520238D02*
X123421190Y-91370238D01*
X123859285Y-91370238D01*
X123968809Y-91425000D01*
X124023571Y-91479761D01*
X124078333Y-91589285D01*
X124078333Y-91753571D01*
X124023571Y-91863095D01*
X123968809Y-91917857D01*
X123859285Y-91972619D01*
X123421190Y-91972619D01*
X124790238Y-91972619D02*
X124790238Y-92520238D01*
X124406904Y-91370238D02*
X124790238Y-91972619D01*
X125173571Y-91370238D01*
X126433095Y-92520238D02*
X126433095Y-91370238D01*
X126871190Y-91370238D01*
X126980714Y-91425000D01*
X127035476Y-91479761D01*
X127090238Y-91589285D01*
X127090238Y-91753571D01*
X127035476Y-91863095D01*
X126980714Y-91917857D01*
X126871190Y-91972619D01*
X126433095Y-91972619D01*
X127583095Y-92520238D02*
X127583095Y-91370238D01*
X129006904Y-92082142D02*
X129883095Y-92082142D01*
X131306904Y-92520238D02*
X131306904Y-91370238D01*
X131799761Y-91479761D02*
X131854523Y-91425000D01*
X131964047Y-91370238D01*
X132237857Y-91370238D01*
X132347380Y-91425000D01*
X132402142Y-91479761D01*
X132456904Y-91589285D01*
X132456904Y-91698809D01*
X132402142Y-91863095D01*
X131745000Y-92520238D01*
X132456904Y-92520238D01*
X133606904Y-92410714D02*
X133552142Y-92465476D01*
X133387857Y-92520238D01*
X133278333Y-92520238D01*
X133114047Y-92465476D01*
X133004523Y-92355952D01*
X132949761Y-92246428D01*
X132895000Y-92027380D01*
X132895000Y-91863095D01*
X132949761Y-91644047D01*
X133004523Y-91534523D01*
X133114047Y-91425000D01*
X133278333Y-91370238D01*
X133387857Y-91370238D01*
X133552142Y-91425000D01*
X133606904Y-91479761D01*
X134975952Y-91917857D02*
X135359285Y-91917857D01*
X135523571Y-92520238D02*
X134975952Y-92520238D01*
X134975952Y-91370238D01*
X135523571Y-91370238D01*
X135906904Y-91370238D02*
X136673571Y-92520238D01*
X136673571Y-91370238D02*
X135906904Y-92520238D01*
X136947380Y-91370238D02*
X137604523Y-91370238D01*
X137275952Y-92520238D02*
X137275952Y-91370238D01*
X137987857Y-91917857D02*
X138371190Y-91917857D01*
X138535476Y-92520238D02*
X137987857Y-92520238D01*
X137987857Y-91370238D01*
X138535476Y-91370238D01*
X139028333Y-92520238D02*
X139028333Y-91370238D01*
X139685476Y-92520238D01*
X139685476Y-91370238D01*
X140233095Y-92520238D02*
X140233095Y-91370238D01*
X140506904Y-91370238D01*
X140671190Y-91425000D01*
X140780714Y-91534523D01*
X140835476Y-91644047D01*
X140890238Y-91863095D01*
X140890238Y-92027380D01*
X140835476Y-92246428D01*
X140780714Y-92355952D01*
X140671190Y-92465476D01*
X140506904Y-92520238D01*
X140233095Y-92520238D01*
X141383095Y-91917857D02*
X141766428Y-91917857D01*
X141930714Y-92520238D02*
X141383095Y-92520238D01*
X141383095Y-91370238D01*
X141930714Y-91370238D01*
X143080714Y-92520238D02*
X142697380Y-91972619D01*
X142423571Y-92520238D02*
X142423571Y-91370238D01*
X142861666Y-91370238D01*
X142971190Y-91425000D01*
X143025952Y-91479761D01*
X143080714Y-91589285D01*
X143080714Y-91753571D01*
X143025952Y-91863095D01*
X142971190Y-91917857D01*
X142861666Y-91972619D01*
X142423571Y-91972619D01*
X144449761Y-92520238D02*
X144449761Y-91370238D01*
X144449761Y-91917857D02*
X145106904Y-91917857D01*
X145106904Y-92520238D02*
X145106904Y-91370238D01*
X145599761Y-92191666D02*
X146147380Y-92191666D01*
X145490238Y-92520238D02*
X145873571Y-91370238D01*
X146256904Y-92520238D01*
X146475952Y-91370238D02*
X147133095Y-91370238D01*
X146804523Y-92520238D02*
X146804523Y-91370238D01*
X148721190Y-92958333D02*
X148666428Y-92903571D01*
X148556904Y-92739285D01*
X148502142Y-92629761D01*
X148447380Y-92465476D01*
X148392619Y-92191666D01*
X148392619Y-91972619D01*
X148447380Y-91698809D01*
X148502142Y-91534523D01*
X148556904Y-91425000D01*
X148666428Y-91260714D01*
X148721190Y-91205952D01*
X149049761Y-91753571D02*
X149323571Y-92520238D01*
X149597380Y-91753571D01*
X150035476Y-92410714D02*
X150090238Y-92465476D01*
X150035476Y-92520238D01*
X149980714Y-92465476D01*
X150035476Y-92410714D01*
X150035476Y-92520238D01*
X150802142Y-91370238D02*
X150911666Y-91370238D01*
X151021190Y-91425000D01*
X151075952Y-91479761D01*
X151130714Y-91589285D01*
X151185476Y-91808333D01*
X151185476Y-92082142D01*
X151130714Y-92301190D01*
X151075952Y-92410714D01*
X151021190Y-92465476D01*
X150911666Y-92520238D01*
X150802142Y-92520238D01*
X150692619Y-92465476D01*
X150637857Y-92410714D01*
X150583095Y-92301190D01*
X150528333Y-92082142D01*
X150528333Y-91808333D01*
X150583095Y-91589285D01*
X150637857Y-91479761D01*
X150692619Y-91425000D01*
X150802142Y-91370238D01*
X151678333Y-92410714D02*
X151733095Y-92465476D01*
X151678333Y-92520238D01*
X151623571Y-92465476D01*
X151678333Y-92410714D01*
X151678333Y-92520238D01*
X152116428Y-91370238D02*
X152828333Y-91370238D01*
X152445000Y-91808333D01*
X152609285Y-91808333D01*
X152718809Y-91863095D01*
X152773571Y-91917857D01*
X152828333Y-92027380D01*
X152828333Y-92301190D01*
X152773571Y-92410714D01*
X152718809Y-92465476D01*
X152609285Y-92520238D01*
X152280714Y-92520238D01*
X152171190Y-92465476D01*
X152116428Y-92410714D01*
X153211666Y-92958333D02*
X153266428Y-92903571D01*
X153375952Y-92739285D01*
X153430714Y-92629761D01*
X153485476Y-92465476D01*
X153540238Y-92191666D01*
X153540238Y-91972619D01*
X153485476Y-91698809D01*
X153430714Y-91534523D01*
X153375952Y-91425000D01*
X153266428Y-91260714D01*
X153211666Y-91205952D01*
D11*
X159085714Y-82148571D02*
X158800000Y-82148571D01*
X158657142Y-82220000D01*
X158585714Y-82291428D01*
X158442857Y-82505714D01*
X158371428Y-82791428D01*
X158371428Y-83362857D01*
X158442857Y-83505714D01*
X158514285Y-83577142D01*
X158657142Y-83648571D01*
X158942857Y-83648571D01*
X159085714Y-83577142D01*
X159157142Y-83505714D01*
X159228571Y-83362857D01*
X159228571Y-83005714D01*
X159157142Y-82862857D01*
X159085714Y-82791428D01*
X158942857Y-82720000D01*
X158657142Y-82720000D01*
X158514285Y-82791428D01*
X158442857Y-82862857D01*
X158371428Y-83005714D01*
X159157142Y-68148571D02*
X158442857Y-68148571D01*
X158371428Y-68862857D01*
X158442857Y-68791428D01*
X158585714Y-68720000D01*
X158942857Y-68720000D01*
X159085714Y-68791428D01*
X159157142Y-68862857D01*
X159228571Y-69005714D01*
X159228571Y-69362857D01*
X159157142Y-69505714D01*
X159085714Y-69577142D01*
X158942857Y-69648571D01*
X158585714Y-69648571D01*
X158442857Y-69577142D01*
X158371428Y-69505714D01*
X158728571Y-54148571D02*
X158871428Y-54148571D01*
X159014285Y-54220000D01*
X159085714Y-54291428D01*
X159157142Y-54434285D01*
X159228571Y-54720000D01*
X159228571Y-55077142D01*
X159157142Y-55362857D01*
X159085714Y-55505714D01*
X159014285Y-55577142D01*
X158871428Y-55648571D01*
X158728571Y-55648571D01*
X158585714Y-55577142D01*
X158514285Y-55505714D01*
X158442857Y-55362857D01*
X158371428Y-55077142D01*
X158371428Y-54720000D01*
X158442857Y-54434285D01*
X158514285Y-54291428D01*
X158585714Y-54220000D01*
X158728571Y-54148571D01*
D10*
X109166666Y-48952380D02*
X109166666Y-47952380D01*
X109547619Y-47952380D01*
X109642857Y-48000000D01*
X109690476Y-48047619D01*
X109738095Y-48142857D01*
X109738095Y-48285714D01*
X109690476Y-48380952D01*
X109642857Y-48428571D01*
X109547619Y-48476190D01*
X109166666Y-48476190D01*
X110071428Y-47952380D02*
X110309523Y-48952380D01*
X110500000Y-48238095D01*
X110690476Y-48952380D01*
X110928571Y-47952380D01*
X111880952Y-48952380D02*
X111547619Y-48476190D01*
X111309523Y-48952380D02*
X111309523Y-47952380D01*
X111690476Y-47952380D01*
X111785714Y-48000000D01*
X111833333Y-48047619D01*
X111880952Y-48142857D01*
X111880952Y-48285714D01*
X111833333Y-48380952D01*
X111785714Y-48428571D01*
X111690476Y-48476190D01*
X111309523Y-48476190D01*
D11*
X110920714Y-82678571D02*
X110920714Y-83678571D01*
X110563571Y-82107142D02*
X110206428Y-83178571D01*
X111135000Y-83178571D01*
X110135000Y-68178571D02*
X111063571Y-68178571D01*
X110563571Y-68750000D01*
X110777857Y-68750000D01*
X110920714Y-68821428D01*
X110992142Y-68892857D01*
X111063571Y-69035714D01*
X111063571Y-69392857D01*
X110992142Y-69535714D01*
X110920714Y-69607142D01*
X110777857Y-69678571D01*
X110349285Y-69678571D01*
X110206428Y-69607142D01*
X110135000Y-69535714D01*
X111063571Y-55678571D02*
X110206428Y-55678571D01*
X110635000Y-55678571D02*
X110635000Y-54178571D01*
X110492142Y-54392857D01*
X110349285Y-54535714D01*
X110206428Y-54607142D01*
D12*
%TO.C,J1*%
X160340000Y-44580000D02*
X160340000Y-39380000D01*
X112020000Y-44580000D02*
X160340000Y-44580000D01*
X109420000Y-39380000D02*
X160340000Y-39380000D01*
X112020000Y-44580000D02*
X112020000Y-41980000D01*
X112020000Y-41980000D02*
X109420000Y-41980000D01*
X109420000Y-41980000D02*
X109420000Y-39380000D01*
X110750000Y-44580000D02*
X109420000Y-44580000D01*
X109420000Y-44580000D02*
X109420000Y-43250000D01*
%TO.C,J2*%
X104785000Y-51890000D02*
X107285000Y-51890000D01*
X107285000Y-51890000D02*
X107285000Y-52940000D01*
X107285000Y-52940000D02*
X108275000Y-52940000D01*
X104785000Y-58110000D02*
X107285000Y-58110000D01*
X107285000Y-58110000D02*
X107285000Y-57060000D01*
X102815000Y-53060000D02*
X102815000Y-56940000D01*
%TO.C,D1*%
X107985000Y-47765000D02*
X105700000Y-47765000D01*
X107985000Y-49235000D02*
X107985000Y-47765000D01*
X105700000Y-49235000D02*
X107985000Y-49235000D01*
%TO.C,R1*%
X106262742Y-47022500D02*
X106737258Y-47022500D01*
X106262742Y-45977500D02*
X106737258Y-45977500D01*
%TO.C,J3*%
X102815000Y-67060000D02*
X102815000Y-70940000D01*
X107285000Y-72110000D02*
X107285000Y-71060000D01*
X104785000Y-72110000D02*
X107285000Y-72110000D01*
X107285000Y-66940000D02*
X108275000Y-66940000D01*
X107285000Y-65890000D02*
X107285000Y-66940000D01*
X104785000Y-65890000D02*
X107285000Y-65890000D01*
%TO.C,J4*%
X102815000Y-81060000D02*
X102815000Y-84940000D01*
X107285000Y-86110000D02*
X107285000Y-85060000D01*
X104785000Y-86110000D02*
X107285000Y-86110000D01*
X107285000Y-80940000D02*
X108275000Y-80940000D01*
X107285000Y-79890000D02*
X107285000Y-80940000D01*
X104785000Y-79890000D02*
X107285000Y-79890000D01*
%TO.C,J5*%
X164715000Y-72110000D02*
X162215000Y-72110000D01*
X162215000Y-72110000D02*
X162215000Y-71060000D01*
X162215000Y-71060000D02*
X161225000Y-71060000D01*
X164715000Y-65890000D02*
X162215000Y-65890000D01*
X162215000Y-65890000D02*
X162215000Y-66940000D01*
X166685000Y-70940000D02*
X166685000Y-67060000D01*
%TO.C,J6*%
X164715000Y-58110000D02*
X162215000Y-58110000D01*
X162215000Y-58110000D02*
X162215000Y-57060000D01*
X162215000Y-57060000D02*
X161225000Y-57060000D01*
X164715000Y-51890000D02*
X162215000Y-51890000D01*
X162215000Y-51890000D02*
X162215000Y-52940000D01*
X166685000Y-56940000D02*
X166685000Y-53060000D01*
%TO.C,J7*%
X166685000Y-84940000D02*
X166685000Y-81060000D01*
X162215000Y-79890000D02*
X162215000Y-80940000D01*
X164715000Y-79890000D02*
X162215000Y-79890000D01*
X162215000Y-85060000D02*
X161225000Y-85060000D01*
X162215000Y-86110000D02*
X162215000Y-85060000D01*
X164715000Y-86110000D02*
X162215000Y-86110000D01*
%TO.C,J8*%
X113605000Y-60385000D02*
X118805000Y-60385000D01*
X113605000Y-52705000D02*
X113605000Y-60385000D01*
X118805000Y-50105000D02*
X118805000Y-60385000D01*
X113605000Y-52705000D02*
X116205000Y-52705000D01*
X116205000Y-52705000D02*
X116205000Y-50105000D01*
X116205000Y-50105000D02*
X118805000Y-50105000D01*
X113605000Y-51435000D02*
X113605000Y-50105000D01*
X113605000Y-50105000D02*
X114935000Y-50105000D01*
%TO.C,J9*%
X113605000Y-64075000D02*
X114935000Y-64075000D01*
X113605000Y-65405000D02*
X113605000Y-64075000D01*
X116205000Y-64075000D02*
X118805000Y-64075000D01*
X116205000Y-66675000D02*
X116205000Y-64075000D01*
X113605000Y-66675000D02*
X116205000Y-66675000D01*
X118805000Y-64075000D02*
X118805000Y-74355000D01*
X113605000Y-66675000D02*
X113605000Y-74355000D01*
X113605000Y-74355000D02*
X118805000Y-74355000D01*
%TO.C,J10*%
X113605000Y-88325000D02*
X118805000Y-88325000D01*
X113605000Y-80645000D02*
X113605000Y-88325000D01*
X118805000Y-78045000D02*
X118805000Y-88325000D01*
X113605000Y-80645000D02*
X116205000Y-80645000D01*
X116205000Y-80645000D02*
X116205000Y-78045000D01*
X116205000Y-78045000D02*
X118805000Y-78045000D01*
X113605000Y-79375000D02*
X113605000Y-78045000D01*
X113605000Y-78045000D02*
X114935000Y-78045000D01*
%TO.C,J11*%
X151670000Y-64170000D02*
X153000000Y-64170000D01*
X151670000Y-65500000D02*
X151670000Y-64170000D01*
X154270000Y-64170000D02*
X156870000Y-64170000D01*
X154270000Y-66770000D02*
X154270000Y-64170000D01*
X151670000Y-66770000D02*
X154270000Y-66770000D01*
X156870000Y-64170000D02*
X156870000Y-74450000D01*
X151670000Y-66770000D02*
X151670000Y-74450000D01*
X151670000Y-74450000D02*
X156870000Y-74450000D01*
%TO.C,J12*%
X151705000Y-60385000D02*
X156905000Y-60385000D01*
X151705000Y-52705000D02*
X151705000Y-60385000D01*
X156905000Y-50105000D02*
X156905000Y-60385000D01*
X151705000Y-52705000D02*
X154305000Y-52705000D01*
X154305000Y-52705000D02*
X154305000Y-50105000D01*
X154305000Y-50105000D02*
X156905000Y-50105000D01*
X151705000Y-51435000D02*
X151705000Y-50105000D01*
X151705000Y-50105000D02*
X153035000Y-50105000D01*
%TO.C,J13*%
X151705000Y-78045000D02*
X153035000Y-78045000D01*
X151705000Y-79375000D02*
X151705000Y-78045000D01*
X154305000Y-78045000D02*
X156905000Y-78045000D01*
X154305000Y-80645000D02*
X154305000Y-78045000D01*
X151705000Y-80645000D02*
X154305000Y-80645000D01*
X156905000Y-78045000D02*
X156905000Y-88325000D01*
X151705000Y-80645000D02*
X151705000Y-88325000D01*
X151705000Y-88325000D02*
X156905000Y-88325000D01*
%TO.C,JP1*%
X139462000Y-51290000D02*
X141462000Y-51290000D01*
X139462000Y-54090000D02*
X139462000Y-51290000D01*
X141462000Y-54090000D02*
X139462000Y-54090000D01*
X141462000Y-51290000D02*
X141462000Y-54090000D01*
%TO.C,JP2*%
X141462000Y-63878000D02*
X141462000Y-66678000D01*
X141462000Y-66678000D02*
X139462000Y-66678000D01*
X139462000Y-66678000D02*
X139462000Y-63878000D01*
X139462000Y-63878000D02*
X141462000Y-63878000D01*
%TO.C,JP3*%
X141462000Y-80394000D02*
X139462000Y-80394000D01*
X141462000Y-77594000D02*
X141462000Y-80394000D01*
X139462000Y-77594000D02*
X141462000Y-77594000D01*
X139462000Y-80394000D02*
X139462000Y-77594000D01*
%TO.C,RN1*%
X136500000Y-54180000D02*
X135500000Y-54180000D01*
X136500000Y-50820000D02*
X135500000Y-50820000D01*
%TO.C,RN2*%
X136500000Y-63320000D02*
X135500000Y-63320000D01*
X136500000Y-66680000D02*
X135500000Y-66680000D01*
%TO.C,RN3*%
X136500000Y-80680000D02*
X135500000Y-80680000D01*
X136500000Y-77320000D02*
X135500000Y-77320000D01*
%TD*%
M02*
