%TF.GenerationSoftware,KiCad,Pcbnew,5.1.10*%
%TF.CreationDate,2021-06-19T09:57:27+02:00*%
%TF.ProjectId,RaspberryI2Cextender,52617370-6265-4727-9279-493243657874,rev?*%
%TF.SameCoordinates,Original*%
%TF.FileFunction,Soldermask,Top*%
%TF.FilePolarity,Negative*%
%FSLAX46Y46*%
G04 Gerber Fmt 4.6, Leading zero omitted, Abs format (unit mm)*
G04 Created by KiCad (PCBNEW 5.1.10) date 2021-06-19 09:57:27*
%MOMM*%
%LPD*%
G01*
G04 APERTURE LIST*
%ADD10R,1.700000X1.700000*%
%ADD11O,1.700000X1.700000*%
%ADD12C,3.800000*%
%ADD13R,1.500000X1.000000*%
%ADD14R,0.800000X0.500000*%
%ADD15R,0.800000X0.400000*%
G04 APERTURE END LIST*
D10*
%TO.C,J1*%
X110750000Y-43250000D03*
D11*
X110750000Y-40710000D03*
X113290000Y-43250000D03*
X113290000Y-40710000D03*
X115830000Y-43250000D03*
X115830000Y-40710000D03*
X118370000Y-43250000D03*
X118370000Y-40710000D03*
X120910000Y-43250000D03*
X120910000Y-40710000D03*
X123450000Y-43250000D03*
X123450000Y-40710000D03*
X125990000Y-43250000D03*
X125990000Y-40710000D03*
X128530000Y-43250000D03*
X128530000Y-40710000D03*
X131070000Y-43250000D03*
X131070000Y-40710000D03*
X133610000Y-43250000D03*
X133610000Y-40710000D03*
X136150000Y-43250000D03*
X136150000Y-40710000D03*
X138690000Y-43250000D03*
X138690000Y-40710000D03*
X141230000Y-43250000D03*
X141230000Y-40710000D03*
X143770000Y-43250000D03*
X143770000Y-40710000D03*
X146310000Y-43250000D03*
X146310000Y-40710000D03*
X148850000Y-43250000D03*
X148850000Y-40710000D03*
X151390000Y-43250000D03*
X151390000Y-40710000D03*
X153930000Y-43250000D03*
X153930000Y-40710000D03*
X156470000Y-43250000D03*
X156470000Y-40710000D03*
X159010000Y-43250000D03*
X159010000Y-40710000D03*
%TD*%
%TO.C,J2*%
G36*
G01*
X106875000Y-53200000D02*
X108125000Y-53200000D01*
G75*
G02*
X108275000Y-53350000I0J-150000D01*
G01*
X108275000Y-53650000D01*
G75*
G02*
X108125000Y-53800000I-150000J0D01*
G01*
X106875000Y-53800000D01*
G75*
G02*
X106725000Y-53650000I0J150000D01*
G01*
X106725000Y-53350000D01*
G75*
G02*
X106875000Y-53200000I150000J0D01*
G01*
G37*
G36*
G01*
X106875000Y-54200000D02*
X108125000Y-54200000D01*
G75*
G02*
X108275000Y-54350000I0J-150000D01*
G01*
X108275000Y-54650000D01*
G75*
G02*
X108125000Y-54800000I-150000J0D01*
G01*
X106875000Y-54800000D01*
G75*
G02*
X106725000Y-54650000I0J150000D01*
G01*
X106725000Y-54350000D01*
G75*
G02*
X106875000Y-54200000I150000J0D01*
G01*
G37*
G36*
G01*
X106875000Y-55200000D02*
X108125000Y-55200000D01*
G75*
G02*
X108275000Y-55350000I0J-150000D01*
G01*
X108275000Y-55650000D01*
G75*
G02*
X108125000Y-55800000I-150000J0D01*
G01*
X106875000Y-55800000D01*
G75*
G02*
X106725000Y-55650000I0J150000D01*
G01*
X106725000Y-55350000D01*
G75*
G02*
X106875000Y-55200000I150000J0D01*
G01*
G37*
G36*
G01*
X106875000Y-56200000D02*
X108125000Y-56200000D01*
G75*
G02*
X108275000Y-56350000I0J-150000D01*
G01*
X108275000Y-56650000D01*
G75*
G02*
X108125000Y-56800000I-150000J0D01*
G01*
X106875000Y-56800000D01*
G75*
G02*
X106725000Y-56650000I0J150000D01*
G01*
X106725000Y-56350000D01*
G75*
G02*
X106875000Y-56200000I150000J0D01*
G01*
G37*
G36*
G01*
X102974999Y-51600000D02*
X104275001Y-51600000D01*
G75*
G02*
X104525000Y-51849999I0J-249999D01*
G01*
X104525000Y-52550001D01*
G75*
G02*
X104275001Y-52800000I-249999J0D01*
G01*
X102974999Y-52800000D01*
G75*
G02*
X102725000Y-52550001I0J249999D01*
G01*
X102725000Y-51849999D01*
G75*
G02*
X102974999Y-51600000I249999J0D01*
G01*
G37*
G36*
G01*
X102974999Y-57200000D02*
X104275001Y-57200000D01*
G75*
G02*
X104525000Y-57449999I0J-249999D01*
G01*
X104525000Y-58150001D01*
G75*
G02*
X104275001Y-58400000I-249999J0D01*
G01*
X102974999Y-58400000D01*
G75*
G02*
X102725000Y-58150001I0J249999D01*
G01*
X102725000Y-57449999D01*
G75*
G02*
X102974999Y-57200000I249999J0D01*
G01*
G37*
%TD*%
%TO.C,D1*%
G36*
G01*
X107725000Y-48243750D02*
X107725000Y-48756250D01*
G75*
G02*
X107506250Y-48975000I-218750J0D01*
G01*
X107068750Y-48975000D01*
G75*
G02*
X106850000Y-48756250I0J218750D01*
G01*
X106850000Y-48243750D01*
G75*
G02*
X107068750Y-48025000I218750J0D01*
G01*
X107506250Y-48025000D01*
G75*
G02*
X107725000Y-48243750I0J-218750D01*
G01*
G37*
G36*
G01*
X106150000Y-48243750D02*
X106150000Y-48756250D01*
G75*
G02*
X105931250Y-48975000I-218750J0D01*
G01*
X105493750Y-48975000D01*
G75*
G02*
X105275000Y-48756250I0J218750D01*
G01*
X105275000Y-48243750D01*
G75*
G02*
X105493750Y-48025000I218750J0D01*
G01*
X105931250Y-48025000D01*
G75*
G02*
X106150000Y-48243750I0J-218750D01*
G01*
G37*
%TD*%
%TO.C,R1*%
G36*
G01*
X105275000Y-46775000D02*
X105275000Y-46225000D01*
G75*
G02*
X105475000Y-46025000I200000J0D01*
G01*
X105875000Y-46025000D01*
G75*
G02*
X106075000Y-46225000I0J-200000D01*
G01*
X106075000Y-46775000D01*
G75*
G02*
X105875000Y-46975000I-200000J0D01*
G01*
X105475000Y-46975000D01*
G75*
G02*
X105275000Y-46775000I0J200000D01*
G01*
G37*
G36*
G01*
X106925000Y-46775000D02*
X106925000Y-46225000D01*
G75*
G02*
X107125000Y-46025000I200000J0D01*
G01*
X107525000Y-46025000D01*
G75*
G02*
X107725000Y-46225000I0J-200000D01*
G01*
X107725000Y-46775000D01*
G75*
G02*
X107525000Y-46975000I-200000J0D01*
G01*
X107125000Y-46975000D01*
G75*
G02*
X106925000Y-46775000I0J200000D01*
G01*
G37*
%TD*%
D12*
%TO.C,H1*%
X105750000Y-41750000D03*
%TD*%
%TO.C,H2*%
X105750000Y-90750000D03*
%TD*%
%TO.C,H3*%
X163750000Y-41750000D03*
%TD*%
%TO.C,H4*%
X163750000Y-90500000D03*
%TD*%
%TO.C,J3*%
G36*
G01*
X102974999Y-71200000D02*
X104275001Y-71200000D01*
G75*
G02*
X104525000Y-71449999I0J-249999D01*
G01*
X104525000Y-72150001D01*
G75*
G02*
X104275001Y-72400000I-249999J0D01*
G01*
X102974999Y-72400000D01*
G75*
G02*
X102725000Y-72150001I0J249999D01*
G01*
X102725000Y-71449999D01*
G75*
G02*
X102974999Y-71200000I249999J0D01*
G01*
G37*
G36*
G01*
X102974999Y-65600000D02*
X104275001Y-65600000D01*
G75*
G02*
X104525000Y-65849999I0J-249999D01*
G01*
X104525000Y-66550001D01*
G75*
G02*
X104275001Y-66800000I-249999J0D01*
G01*
X102974999Y-66800000D01*
G75*
G02*
X102725000Y-66550001I0J249999D01*
G01*
X102725000Y-65849999D01*
G75*
G02*
X102974999Y-65600000I249999J0D01*
G01*
G37*
G36*
G01*
X106875000Y-70200000D02*
X108125000Y-70200000D01*
G75*
G02*
X108275000Y-70350000I0J-150000D01*
G01*
X108275000Y-70650000D01*
G75*
G02*
X108125000Y-70800000I-150000J0D01*
G01*
X106875000Y-70800000D01*
G75*
G02*
X106725000Y-70650000I0J150000D01*
G01*
X106725000Y-70350000D01*
G75*
G02*
X106875000Y-70200000I150000J0D01*
G01*
G37*
G36*
G01*
X106875000Y-69200000D02*
X108125000Y-69200000D01*
G75*
G02*
X108275000Y-69350000I0J-150000D01*
G01*
X108275000Y-69650000D01*
G75*
G02*
X108125000Y-69800000I-150000J0D01*
G01*
X106875000Y-69800000D01*
G75*
G02*
X106725000Y-69650000I0J150000D01*
G01*
X106725000Y-69350000D01*
G75*
G02*
X106875000Y-69200000I150000J0D01*
G01*
G37*
G36*
G01*
X106875000Y-68200000D02*
X108125000Y-68200000D01*
G75*
G02*
X108275000Y-68350000I0J-150000D01*
G01*
X108275000Y-68650000D01*
G75*
G02*
X108125000Y-68800000I-150000J0D01*
G01*
X106875000Y-68800000D01*
G75*
G02*
X106725000Y-68650000I0J150000D01*
G01*
X106725000Y-68350000D01*
G75*
G02*
X106875000Y-68200000I150000J0D01*
G01*
G37*
G36*
G01*
X106875000Y-67200000D02*
X108125000Y-67200000D01*
G75*
G02*
X108275000Y-67350000I0J-150000D01*
G01*
X108275000Y-67650000D01*
G75*
G02*
X108125000Y-67800000I-150000J0D01*
G01*
X106875000Y-67800000D01*
G75*
G02*
X106725000Y-67650000I0J150000D01*
G01*
X106725000Y-67350000D01*
G75*
G02*
X106875000Y-67200000I150000J0D01*
G01*
G37*
%TD*%
%TO.C,J4*%
G36*
G01*
X102974999Y-85200000D02*
X104275001Y-85200000D01*
G75*
G02*
X104525000Y-85449999I0J-249999D01*
G01*
X104525000Y-86150001D01*
G75*
G02*
X104275001Y-86400000I-249999J0D01*
G01*
X102974999Y-86400000D01*
G75*
G02*
X102725000Y-86150001I0J249999D01*
G01*
X102725000Y-85449999D01*
G75*
G02*
X102974999Y-85200000I249999J0D01*
G01*
G37*
G36*
G01*
X102974999Y-79600000D02*
X104275001Y-79600000D01*
G75*
G02*
X104525000Y-79849999I0J-249999D01*
G01*
X104525000Y-80550001D01*
G75*
G02*
X104275001Y-80800000I-249999J0D01*
G01*
X102974999Y-80800000D01*
G75*
G02*
X102725000Y-80550001I0J249999D01*
G01*
X102725000Y-79849999D01*
G75*
G02*
X102974999Y-79600000I249999J0D01*
G01*
G37*
G36*
G01*
X106875000Y-84200000D02*
X108125000Y-84200000D01*
G75*
G02*
X108275000Y-84350000I0J-150000D01*
G01*
X108275000Y-84650000D01*
G75*
G02*
X108125000Y-84800000I-150000J0D01*
G01*
X106875000Y-84800000D01*
G75*
G02*
X106725000Y-84650000I0J150000D01*
G01*
X106725000Y-84350000D01*
G75*
G02*
X106875000Y-84200000I150000J0D01*
G01*
G37*
G36*
G01*
X106875000Y-83200000D02*
X108125000Y-83200000D01*
G75*
G02*
X108275000Y-83350000I0J-150000D01*
G01*
X108275000Y-83650000D01*
G75*
G02*
X108125000Y-83800000I-150000J0D01*
G01*
X106875000Y-83800000D01*
G75*
G02*
X106725000Y-83650000I0J150000D01*
G01*
X106725000Y-83350000D01*
G75*
G02*
X106875000Y-83200000I150000J0D01*
G01*
G37*
G36*
G01*
X106875000Y-82200000D02*
X108125000Y-82200000D01*
G75*
G02*
X108275000Y-82350000I0J-150000D01*
G01*
X108275000Y-82650000D01*
G75*
G02*
X108125000Y-82800000I-150000J0D01*
G01*
X106875000Y-82800000D01*
G75*
G02*
X106725000Y-82650000I0J150000D01*
G01*
X106725000Y-82350000D01*
G75*
G02*
X106875000Y-82200000I150000J0D01*
G01*
G37*
G36*
G01*
X106875000Y-81200000D02*
X108125000Y-81200000D01*
G75*
G02*
X108275000Y-81350000I0J-150000D01*
G01*
X108275000Y-81650000D01*
G75*
G02*
X108125000Y-81800000I-150000J0D01*
G01*
X106875000Y-81800000D01*
G75*
G02*
X106725000Y-81650000I0J150000D01*
G01*
X106725000Y-81350000D01*
G75*
G02*
X106875000Y-81200000I150000J0D01*
G01*
G37*
%TD*%
%TO.C,J5*%
G36*
G01*
X162625000Y-70800000D02*
X161375000Y-70800000D01*
G75*
G02*
X161225000Y-70650000I0J150000D01*
G01*
X161225000Y-70350000D01*
G75*
G02*
X161375000Y-70200000I150000J0D01*
G01*
X162625000Y-70200000D01*
G75*
G02*
X162775000Y-70350000I0J-150000D01*
G01*
X162775000Y-70650000D01*
G75*
G02*
X162625000Y-70800000I-150000J0D01*
G01*
G37*
G36*
G01*
X162625000Y-69800000D02*
X161375000Y-69800000D01*
G75*
G02*
X161225000Y-69650000I0J150000D01*
G01*
X161225000Y-69350000D01*
G75*
G02*
X161375000Y-69200000I150000J0D01*
G01*
X162625000Y-69200000D01*
G75*
G02*
X162775000Y-69350000I0J-150000D01*
G01*
X162775000Y-69650000D01*
G75*
G02*
X162625000Y-69800000I-150000J0D01*
G01*
G37*
G36*
G01*
X162625000Y-68800000D02*
X161375000Y-68800000D01*
G75*
G02*
X161225000Y-68650000I0J150000D01*
G01*
X161225000Y-68350000D01*
G75*
G02*
X161375000Y-68200000I150000J0D01*
G01*
X162625000Y-68200000D01*
G75*
G02*
X162775000Y-68350000I0J-150000D01*
G01*
X162775000Y-68650000D01*
G75*
G02*
X162625000Y-68800000I-150000J0D01*
G01*
G37*
G36*
G01*
X162625000Y-67800000D02*
X161375000Y-67800000D01*
G75*
G02*
X161225000Y-67650000I0J150000D01*
G01*
X161225000Y-67350000D01*
G75*
G02*
X161375000Y-67200000I150000J0D01*
G01*
X162625000Y-67200000D01*
G75*
G02*
X162775000Y-67350000I0J-150000D01*
G01*
X162775000Y-67650000D01*
G75*
G02*
X162625000Y-67800000I-150000J0D01*
G01*
G37*
G36*
G01*
X166525001Y-72400000D02*
X165224999Y-72400000D01*
G75*
G02*
X164975000Y-72150001I0J249999D01*
G01*
X164975000Y-71449999D01*
G75*
G02*
X165224999Y-71200000I249999J0D01*
G01*
X166525001Y-71200000D01*
G75*
G02*
X166775000Y-71449999I0J-249999D01*
G01*
X166775000Y-72150001D01*
G75*
G02*
X166525001Y-72400000I-249999J0D01*
G01*
G37*
G36*
G01*
X166525001Y-66800000D02*
X165224999Y-66800000D01*
G75*
G02*
X164975000Y-66550001I0J249999D01*
G01*
X164975000Y-65849999D01*
G75*
G02*
X165224999Y-65600000I249999J0D01*
G01*
X166525001Y-65600000D01*
G75*
G02*
X166775000Y-65849999I0J-249999D01*
G01*
X166775000Y-66550001D01*
G75*
G02*
X166525001Y-66800000I-249999J0D01*
G01*
G37*
%TD*%
%TO.C,J6*%
G36*
G01*
X162625000Y-56800000D02*
X161375000Y-56800000D01*
G75*
G02*
X161225000Y-56650000I0J150000D01*
G01*
X161225000Y-56350000D01*
G75*
G02*
X161375000Y-56200000I150000J0D01*
G01*
X162625000Y-56200000D01*
G75*
G02*
X162775000Y-56350000I0J-150000D01*
G01*
X162775000Y-56650000D01*
G75*
G02*
X162625000Y-56800000I-150000J0D01*
G01*
G37*
G36*
G01*
X162625000Y-55800000D02*
X161375000Y-55800000D01*
G75*
G02*
X161225000Y-55650000I0J150000D01*
G01*
X161225000Y-55350000D01*
G75*
G02*
X161375000Y-55200000I150000J0D01*
G01*
X162625000Y-55200000D01*
G75*
G02*
X162775000Y-55350000I0J-150000D01*
G01*
X162775000Y-55650000D01*
G75*
G02*
X162625000Y-55800000I-150000J0D01*
G01*
G37*
G36*
G01*
X162625000Y-54800000D02*
X161375000Y-54800000D01*
G75*
G02*
X161225000Y-54650000I0J150000D01*
G01*
X161225000Y-54350000D01*
G75*
G02*
X161375000Y-54200000I150000J0D01*
G01*
X162625000Y-54200000D01*
G75*
G02*
X162775000Y-54350000I0J-150000D01*
G01*
X162775000Y-54650000D01*
G75*
G02*
X162625000Y-54800000I-150000J0D01*
G01*
G37*
G36*
G01*
X162625000Y-53800000D02*
X161375000Y-53800000D01*
G75*
G02*
X161225000Y-53650000I0J150000D01*
G01*
X161225000Y-53350000D01*
G75*
G02*
X161375000Y-53200000I150000J0D01*
G01*
X162625000Y-53200000D01*
G75*
G02*
X162775000Y-53350000I0J-150000D01*
G01*
X162775000Y-53650000D01*
G75*
G02*
X162625000Y-53800000I-150000J0D01*
G01*
G37*
G36*
G01*
X166525001Y-58400000D02*
X165224999Y-58400000D01*
G75*
G02*
X164975000Y-58150001I0J249999D01*
G01*
X164975000Y-57449999D01*
G75*
G02*
X165224999Y-57200000I249999J0D01*
G01*
X166525001Y-57200000D01*
G75*
G02*
X166775000Y-57449999I0J-249999D01*
G01*
X166775000Y-58150001D01*
G75*
G02*
X166525001Y-58400000I-249999J0D01*
G01*
G37*
G36*
G01*
X166525001Y-52800000D02*
X165224999Y-52800000D01*
G75*
G02*
X164975000Y-52550001I0J249999D01*
G01*
X164975000Y-51849999D01*
G75*
G02*
X165224999Y-51600000I249999J0D01*
G01*
X166525001Y-51600000D01*
G75*
G02*
X166775000Y-51849999I0J-249999D01*
G01*
X166775000Y-52550001D01*
G75*
G02*
X166525001Y-52800000I-249999J0D01*
G01*
G37*
%TD*%
%TO.C,J7*%
G36*
G01*
X166525001Y-80800000D02*
X165224999Y-80800000D01*
G75*
G02*
X164975000Y-80550001I0J249999D01*
G01*
X164975000Y-79849999D01*
G75*
G02*
X165224999Y-79600000I249999J0D01*
G01*
X166525001Y-79600000D01*
G75*
G02*
X166775000Y-79849999I0J-249999D01*
G01*
X166775000Y-80550001D01*
G75*
G02*
X166525001Y-80800000I-249999J0D01*
G01*
G37*
G36*
G01*
X166525001Y-86400000D02*
X165224999Y-86400000D01*
G75*
G02*
X164975000Y-86150001I0J249999D01*
G01*
X164975000Y-85449999D01*
G75*
G02*
X165224999Y-85200000I249999J0D01*
G01*
X166525001Y-85200000D01*
G75*
G02*
X166775000Y-85449999I0J-249999D01*
G01*
X166775000Y-86150001D01*
G75*
G02*
X166525001Y-86400000I-249999J0D01*
G01*
G37*
G36*
G01*
X162625000Y-81800000D02*
X161375000Y-81800000D01*
G75*
G02*
X161225000Y-81650000I0J150000D01*
G01*
X161225000Y-81350000D01*
G75*
G02*
X161375000Y-81200000I150000J0D01*
G01*
X162625000Y-81200000D01*
G75*
G02*
X162775000Y-81350000I0J-150000D01*
G01*
X162775000Y-81650000D01*
G75*
G02*
X162625000Y-81800000I-150000J0D01*
G01*
G37*
G36*
G01*
X162625000Y-82800000D02*
X161375000Y-82800000D01*
G75*
G02*
X161225000Y-82650000I0J150000D01*
G01*
X161225000Y-82350000D01*
G75*
G02*
X161375000Y-82200000I150000J0D01*
G01*
X162625000Y-82200000D01*
G75*
G02*
X162775000Y-82350000I0J-150000D01*
G01*
X162775000Y-82650000D01*
G75*
G02*
X162625000Y-82800000I-150000J0D01*
G01*
G37*
G36*
G01*
X162625000Y-83800000D02*
X161375000Y-83800000D01*
G75*
G02*
X161225000Y-83650000I0J150000D01*
G01*
X161225000Y-83350000D01*
G75*
G02*
X161375000Y-83200000I150000J0D01*
G01*
X162625000Y-83200000D01*
G75*
G02*
X162775000Y-83350000I0J-150000D01*
G01*
X162775000Y-83650000D01*
G75*
G02*
X162625000Y-83800000I-150000J0D01*
G01*
G37*
G36*
G01*
X162625000Y-84800000D02*
X161375000Y-84800000D01*
G75*
G02*
X161225000Y-84650000I0J150000D01*
G01*
X161225000Y-84350000D01*
G75*
G02*
X161375000Y-84200000I150000J0D01*
G01*
X162625000Y-84200000D01*
G75*
G02*
X162775000Y-84350000I0J-150000D01*
G01*
X162775000Y-84650000D01*
G75*
G02*
X162625000Y-84800000I-150000J0D01*
G01*
G37*
%TD*%
D11*
%TO.C,J8*%
X117475000Y-59055000D03*
X114935000Y-59055000D03*
X117475000Y-56515000D03*
X114935000Y-56515000D03*
X117475000Y-53975000D03*
X114935000Y-53975000D03*
X117475000Y-51435000D03*
D10*
X114935000Y-51435000D03*
%TD*%
%TO.C,J9*%
X114935000Y-65405000D03*
D11*
X117475000Y-65405000D03*
X114935000Y-67945000D03*
X117475000Y-67945000D03*
X114935000Y-70485000D03*
X117475000Y-70485000D03*
X114935000Y-73025000D03*
X117475000Y-73025000D03*
%TD*%
%TO.C,J10*%
X117475000Y-86995000D03*
X114935000Y-86995000D03*
X117475000Y-84455000D03*
X114935000Y-84455000D03*
X117475000Y-81915000D03*
X114935000Y-81915000D03*
X117475000Y-79375000D03*
D10*
X114935000Y-79375000D03*
%TD*%
%TO.C,J11*%
X153000000Y-65500000D03*
D11*
X155540000Y-65500000D03*
X153000000Y-68040000D03*
X155540000Y-68040000D03*
X153000000Y-70580000D03*
X155540000Y-70580000D03*
X153000000Y-73120000D03*
X155540000Y-73120000D03*
%TD*%
%TO.C,J12*%
X155575000Y-59055000D03*
X153035000Y-59055000D03*
X155575000Y-56515000D03*
X153035000Y-56515000D03*
X155575000Y-53975000D03*
X153035000Y-53975000D03*
X155575000Y-51435000D03*
D10*
X153035000Y-51435000D03*
%TD*%
%TO.C,J13*%
X153035000Y-79375000D03*
D11*
X155575000Y-79375000D03*
X153035000Y-81915000D03*
X155575000Y-81915000D03*
X153035000Y-84455000D03*
X155575000Y-84455000D03*
X153035000Y-86995000D03*
X155575000Y-86995000D03*
%TD*%
D13*
%TO.C,JP1*%
X140462000Y-53340000D03*
X140462000Y-52040000D03*
%TD*%
%TO.C,JP2*%
X140462000Y-64628000D03*
X140462000Y-65928000D03*
%TD*%
%TO.C,JP3*%
X140462000Y-78344000D03*
X140462000Y-79644000D03*
%TD*%
D14*
%TO.C,RN1*%
X135100000Y-51300000D03*
D15*
X135100000Y-52900000D03*
X135100000Y-52100000D03*
D14*
X135100000Y-53700000D03*
D15*
X136900000Y-52100000D03*
D14*
X136900000Y-51300000D03*
D15*
X136900000Y-52900000D03*
D14*
X136900000Y-53700000D03*
%TD*%
%TO.C,RN2*%
X136900000Y-66200000D03*
D15*
X136900000Y-65400000D03*
D14*
X136900000Y-63800000D03*
D15*
X136900000Y-64600000D03*
D14*
X135100000Y-66200000D03*
D15*
X135100000Y-64600000D03*
X135100000Y-65400000D03*
D14*
X135100000Y-63800000D03*
%TD*%
%TO.C,RN3*%
X135100000Y-77800000D03*
D15*
X135100000Y-79400000D03*
X135100000Y-78600000D03*
D14*
X135100000Y-80200000D03*
D15*
X136900000Y-78600000D03*
D14*
X136900000Y-77800000D03*
D15*
X136900000Y-79400000D03*
D14*
X136900000Y-80200000D03*
%TD*%
M02*
