%TF.GenerationSoftware,KiCad,Pcbnew,5.1.10*%
%TF.CreationDate,2021-06-19T09:57:27+02:00*%
%TF.ProjectId,RaspberryI2Cextender,52617370-6265-4727-9279-493243657874,rev?*%
%TF.SameCoordinates,Original*%
%TF.FileFunction,Profile,NP*%
%FSLAX46Y46*%
G04 Gerber Fmt 4.6, Leading zero omitted, Abs format (unit mm)*
G04 Created by KiCad (PCBNEW 5.1.10) date 2021-06-19 09:57:27*
%MOMM*%
%LPD*%
G01*
G04 APERTURE LIST*
%TA.AperFunction,Profile*%
%ADD10C,0.200000*%
%TD*%
G04 APERTURE END LIST*
D10*
X102229000Y-75499000D02*
X102229000Y-57371000D01*
X164458000Y-41000000D02*
X164500000Y-41048000D01*
X164414000Y-40956000D02*
X164458000Y-41000000D01*
X164366000Y-40914000D02*
X164414000Y-40956000D01*
X164317000Y-40876000D02*
X164366000Y-40914000D01*
X164265000Y-40841000D02*
X164317000Y-40876000D01*
X105604000Y-89693000D02*
X105666000Y-89687000D01*
X106366000Y-91456000D02*
X106317000Y-91494000D01*
X166943000Y-92712000D02*
X166857999Y-92880000D01*
X167018000Y-92539000D02*
X166943000Y-92712000D01*
X167082000Y-92362000D02*
X167018000Y-92539000D01*
X106729000Y-90685000D02*
X106727000Y-90748000D01*
X106155000Y-91590000D02*
X106097000Y-91615000D01*
X104760000Y-90934000D02*
X104747000Y-90872000D01*
X106573000Y-91221000D02*
X106538000Y-91273000D01*
X104885000Y-90149000D02*
X104920000Y-90097000D01*
X104853000Y-90203000D02*
X104885000Y-90149000D01*
X106038000Y-91636000D02*
X105978000Y-91654000D01*
X106097000Y-91615000D02*
X106038000Y-91636000D01*
X105480000Y-40716000D02*
X105542000Y-40703000D01*
X105420000Y-40734000D02*
X105480000Y-40716000D01*
X105978000Y-89716000D02*
X106038000Y-89734000D01*
X105044000Y-42414000D02*
X105000000Y-42370000D01*
X105092000Y-42456000D02*
X105044000Y-42414000D01*
X104737000Y-90810000D02*
X104731000Y-90748000D01*
X163000000Y-90000000D02*
X163044000Y-89956000D01*
X162958000Y-90048000D02*
X163000000Y-90000000D01*
X162920000Y-90097000D02*
X162958000Y-90048000D01*
X162885000Y-90149000D02*
X162920000Y-90097000D01*
X105854000Y-89693000D02*
X105916000Y-89703000D01*
X164155000Y-42590000D02*
X164097000Y-42615000D01*
X164211000Y-42561000D02*
X164155000Y-42590000D01*
X164265000Y-42529000D02*
X164211000Y-42561000D01*
X164317000Y-42494000D02*
X164265000Y-42529000D01*
X164366000Y-42456000D02*
X164317000Y-42494000D01*
X163916000Y-40703000D02*
X163978000Y-40716000D01*
X163854000Y-40693000D02*
X163916000Y-40703000D01*
X163792000Y-40687000D02*
X163854000Y-40693000D01*
X163729000Y-40685000D02*
X163792000Y-40687000D01*
X163666000Y-40687000D02*
X163729000Y-40685000D01*
X104824000Y-91111000D02*
X104799000Y-91053000D01*
X164711000Y-41872000D02*
X164698000Y-41934000D01*
X164721000Y-41810000D02*
X164711000Y-41872000D01*
X164727000Y-41748000D02*
X164721000Y-41810000D01*
X164729000Y-41685000D02*
X164727000Y-41748000D01*
X164727000Y-41622000D02*
X164729000Y-41685000D01*
X164155000Y-91590000D02*
X164097000Y-91615000D01*
X164211000Y-91561000D02*
X164155000Y-91590000D01*
X164265000Y-91529000D02*
X164211000Y-91561000D01*
X164317000Y-91494000D02*
X164265000Y-91529000D01*
X164366000Y-91456000D02*
X164317000Y-91494000D01*
X106698000Y-90436000D02*
X106711000Y-90498000D01*
X162731000Y-41748000D02*
X162729000Y-41685000D01*
X105141000Y-91494000D02*
X105092000Y-91456000D01*
X165836000Y-93968000D02*
X165674000Y-94064000D01*
X165992000Y-93862000D02*
X165836000Y-93968000D01*
X166141000Y-93747000D02*
X165992000Y-93862000D01*
X104885000Y-42221000D02*
X104853000Y-42167000D01*
X104920000Y-42273000D02*
X104885000Y-42221000D01*
X102323000Y-40189000D02*
X102376000Y-40008000D01*
X102282000Y-40373000D02*
X102323000Y-40189000D01*
X105666000Y-91683000D02*
X105604000Y-91677000D01*
X102440000Y-39831000D02*
X102515000Y-39658000D01*
X102376000Y-40008000D02*
X102440000Y-39831000D01*
X105854000Y-40693000D02*
X105916000Y-40703000D01*
X105792000Y-40687000D02*
X105854000Y-40693000D01*
X105978000Y-40716000D02*
X106038000Y-40734000D01*
X105916000Y-40703000D02*
X105978000Y-40716000D01*
X104729000Y-41685000D02*
X104731000Y-41622000D01*
X106711000Y-41498000D02*
X106721000Y-41560000D01*
X106698000Y-41436000D02*
X106711000Y-41498000D01*
X103317000Y-38623000D02*
X103466000Y-38508000D01*
X103175000Y-38748000D02*
X103317000Y-38623000D01*
X102600001Y-92880000D02*
X102515000Y-92712000D01*
X102696000Y-93042000D02*
X102600001Y-92880000D01*
X102802000Y-93198000D02*
X102696000Y-93042000D01*
X163916000Y-89703000D02*
X163978000Y-89716000D01*
X163854000Y-89693000D02*
X163916000Y-89703000D01*
X163792000Y-89687000D02*
X163854000Y-89693000D01*
X163729000Y-89685000D02*
X163792000Y-89687000D01*
X106211000Y-91561000D02*
X106155000Y-91590000D01*
X104920000Y-90097000D02*
X104958000Y-90048000D01*
X163542000Y-91667000D02*
X163480000Y-91654000D01*
X163604000Y-91677000D02*
X163542000Y-91667000D01*
X163666000Y-91683000D02*
X163604000Y-91677000D01*
X163729000Y-91685000D02*
X163666000Y-91683000D01*
X163792000Y-91683000D02*
X163729000Y-91685000D01*
X105000000Y-91370000D02*
X104958000Y-91322000D01*
X104958000Y-91322000D02*
X104920000Y-91273000D01*
X104885000Y-91221000D02*
X104853000Y-91167000D01*
X102376000Y-92362000D02*
X102323000Y-92181000D01*
X102440000Y-92539000D02*
X102376000Y-92362000D01*
X102515000Y-92712000D02*
X102440000Y-92539000D01*
X105604000Y-91677000D02*
X105542000Y-91667000D01*
X105000000Y-41000000D02*
X105044000Y-40956000D01*
X104731000Y-90622000D02*
X104737000Y-90560000D01*
X104737000Y-90560000D02*
X104747000Y-90498000D01*
X104747000Y-90872000D02*
X104737000Y-90810000D01*
X106414000Y-42414000D02*
X106366000Y-42456000D01*
X106458000Y-42370000D02*
X106414000Y-42414000D01*
X166656000Y-39172000D02*
X166762000Y-39328000D01*
X166541000Y-39023000D02*
X166656000Y-39172000D01*
X166416000Y-38881000D02*
X166541000Y-39023000D01*
X167223000Y-91623000D02*
X167205000Y-91811000D01*
X167229000Y-91435000D02*
X167223000Y-91623000D01*
X167229000Y-40935000D02*
X167229000Y-91435000D01*
X105604000Y-40693000D02*
X105666000Y-40687000D01*
X105542000Y-40703000D02*
X105604000Y-40693000D01*
X106097000Y-42615000D02*
X106038000Y-42636000D01*
X106155000Y-42590000D02*
X106097000Y-42615000D01*
X167135000Y-40189000D02*
X167176000Y-40373000D01*
X167082000Y-40008000D02*
X167135000Y-40189000D01*
X167018000Y-39831000D02*
X167082000Y-40008000D01*
X106317000Y-40876000D02*
X106366000Y-40914000D01*
X106265000Y-40841000D02*
X106317000Y-40876000D01*
X105604000Y-42677000D02*
X105542000Y-42667000D01*
X105666000Y-42683000D02*
X105604000Y-42677000D01*
X105247000Y-89809000D02*
X105303000Y-89780000D01*
X105193000Y-89841000D02*
X105247000Y-89809000D01*
X105792000Y-91683000D02*
X105729000Y-91685000D01*
X105978000Y-91654000D02*
X105916000Y-91667000D01*
X104737000Y-41560000D02*
X104747000Y-41498000D01*
X106721000Y-90560000D02*
X106727000Y-90622000D01*
X164791000Y-37988000D02*
X164975000Y-38029000D01*
X164605000Y-37959000D02*
X164791000Y-37988000D01*
X164417000Y-37941000D02*
X164605000Y-37959000D01*
X105978000Y-42654000D02*
X105916000Y-42667000D01*
X106038000Y-42636000D02*
X105978000Y-42654000D01*
X162824000Y-91111000D02*
X162799000Y-91053000D01*
X162853000Y-91167000D02*
X162824000Y-91111000D01*
X162885000Y-91221000D02*
X162853000Y-91167000D01*
X162920000Y-91273000D02*
X162885000Y-91221000D01*
X162958000Y-91322000D02*
X162920000Y-91273000D01*
X104731000Y-90748000D02*
X104729000Y-90685000D01*
X106155000Y-89780000D02*
X106211000Y-89809000D01*
X106680000Y-90376000D02*
X106698000Y-90436000D01*
X105729000Y-91685000D02*
X105666000Y-91683000D01*
X106659000Y-91053000D02*
X106634000Y-91111000D01*
X104778000Y-41994000D02*
X104760000Y-41934000D01*
X104799000Y-42053000D02*
X104778000Y-41994000D01*
X104920000Y-41097000D02*
X104958000Y-41048000D01*
X105247000Y-40809000D02*
X105303000Y-40780000D01*
X104824000Y-42111000D02*
X104799000Y-42053000D01*
X104853000Y-42167000D02*
X104824000Y-42111000D01*
X105361000Y-42615000D02*
X105303000Y-42590000D01*
X105420000Y-42636000D02*
X105361000Y-42615000D01*
X106211000Y-89809000D02*
X106265000Y-89841000D01*
X106414000Y-91414000D02*
X106366000Y-91456000D01*
X102229000Y-91435000D02*
X102229000Y-75499000D01*
X106573000Y-42221000D02*
X106538000Y-42273000D01*
X106605000Y-42167000D02*
X106573000Y-42221000D01*
X106265000Y-89841000D02*
X106317000Y-89876000D01*
X105420000Y-91636000D02*
X105361000Y-91615000D01*
X163420000Y-89734000D02*
X163480000Y-89716000D01*
X163361000Y-89755000D02*
X163420000Y-89734000D01*
X163303000Y-89780000D02*
X163361000Y-89755000D01*
X163247000Y-89809000D02*
X163303000Y-89780000D01*
X106211000Y-40809000D02*
X106265000Y-40841000D01*
X106155000Y-40780000D02*
X106211000Y-40809000D01*
X163666000Y-89687000D02*
X163729000Y-89685000D01*
X163604000Y-89693000D02*
X163666000Y-89687000D01*
X163542000Y-89703000D02*
X163604000Y-89693000D01*
X163480000Y-89716000D02*
X163542000Y-89703000D01*
X164458000Y-90000000D02*
X164500000Y-90048000D01*
X164414000Y-89956000D02*
X164458000Y-90000000D01*
X164366000Y-89914000D02*
X164414000Y-89956000D01*
X164317000Y-89876000D02*
X164366000Y-89914000D01*
X164265000Y-89841000D02*
X164317000Y-89876000D01*
X104778000Y-41376000D02*
X104799000Y-41317000D01*
X106605000Y-90203000D02*
X106634000Y-90259000D01*
X106500000Y-90048000D02*
X106538000Y-90097000D01*
X163193000Y-89841000D02*
X163247000Y-89809000D01*
X163141000Y-89876000D02*
X163193000Y-89841000D01*
X163092000Y-89914000D02*
X163141000Y-89876000D01*
X163044000Y-89956000D02*
X163092000Y-89914000D01*
X106500000Y-41048000D02*
X106538000Y-41097000D01*
X106458000Y-41000000D02*
X106500000Y-41048000D01*
X105303000Y-91590000D02*
X105247000Y-91561000D01*
X105044000Y-40956000D02*
X105092000Y-40914000D01*
X106727000Y-90622000D02*
X106729000Y-90685000D01*
X105480000Y-89716000D02*
X105542000Y-89703000D01*
X106634000Y-90259000D02*
X106659000Y-90317000D01*
X105854000Y-91677000D02*
X105792000Y-91683000D01*
X104729000Y-90685000D02*
X104731000Y-90622000D01*
X106458000Y-90000000D02*
X106500000Y-90048000D01*
X106680000Y-41994000D02*
X106659000Y-42053000D01*
X106698000Y-41934000D02*
X106680000Y-41994000D01*
X104799000Y-90317000D02*
X104824000Y-90259000D01*
X163000000Y-42370000D02*
X162958000Y-42322000D01*
X163044000Y-42414000D02*
X163000000Y-42370000D01*
X163092000Y-42456000D02*
X163044000Y-42414000D01*
X163141000Y-42494000D02*
X163092000Y-42456000D01*
X163193000Y-42529000D02*
X163141000Y-42494000D01*
X163044000Y-40956000D02*
X163092000Y-40914000D01*
X163000000Y-41000000D02*
X163044000Y-40956000D01*
X162958000Y-41048000D02*
X163000000Y-41000000D01*
X162920000Y-41097000D02*
X162958000Y-41048000D01*
X162885000Y-41149000D02*
X162920000Y-41097000D01*
X163247000Y-91561000D02*
X163193000Y-91529000D01*
X163303000Y-91590000D02*
X163247000Y-91561000D01*
X163361000Y-91615000D02*
X163303000Y-91590000D01*
X163420000Y-91636000D02*
X163361000Y-91615000D01*
X163480000Y-91654000D02*
X163420000Y-91636000D01*
X106573000Y-41149000D02*
X106605000Y-41203000D01*
X106538000Y-41097000D02*
X106573000Y-41149000D01*
X104958000Y-90048000D02*
X105000000Y-90000000D01*
X106698000Y-90934000D02*
X106680000Y-90994000D01*
X105916000Y-89703000D02*
X105978000Y-89716000D01*
X106538000Y-91273000D02*
X106500000Y-91322000D01*
X106680000Y-90994000D02*
X106659000Y-91053000D01*
X104958000Y-41048000D02*
X105000000Y-41000000D01*
X166943000Y-39658000D02*
X167018000Y-39831000D01*
X166857999Y-39490000D02*
X166943000Y-39658000D01*
X166762000Y-39328000D02*
X166857999Y-39490000D01*
X106634000Y-91111000D02*
X106605000Y-91167000D01*
X106211000Y-42561000D02*
X106155000Y-42590000D01*
X106265000Y-42529000D02*
X106211000Y-42561000D01*
X105420000Y-89734000D02*
X105480000Y-89716000D01*
X105854000Y-42677000D02*
X105792000Y-42683000D01*
X105916000Y-42667000D02*
X105854000Y-42677000D01*
X106573000Y-90149000D02*
X106605000Y-90203000D01*
X102802000Y-39172000D02*
X102917000Y-39023000D01*
X102696000Y-39328000D02*
X102802000Y-39172000D01*
X165836000Y-38402000D02*
X165992000Y-38508000D01*
X165674000Y-38306000D02*
X165836000Y-38402000D01*
X165506000Y-38221000D02*
X165674000Y-38306000D01*
X105247000Y-91561000D02*
X105193000Y-91529000D01*
X104853000Y-91167000D02*
X104824000Y-91111000D01*
X105361000Y-89755000D02*
X105420000Y-89734000D01*
X105916000Y-91667000D02*
X105854000Y-91677000D01*
X103784000Y-38306000D02*
X103952000Y-38221000D01*
X103622000Y-38402000D02*
X103784000Y-38306000D01*
X103466000Y-38508000D02*
X103622000Y-38402000D01*
X166283000Y-38748000D02*
X166416000Y-38881000D01*
X166141000Y-38623000D02*
X166283000Y-38748000D01*
X165992000Y-38508000D02*
X166141000Y-38623000D01*
X105044000Y-89956000D02*
X105092000Y-89914000D01*
X105141000Y-42494000D02*
X105092000Y-42456000D01*
X105193000Y-42529000D02*
X105141000Y-42494000D01*
X164605000Y-91167000D02*
X164573000Y-91221000D01*
X164634000Y-91111000D02*
X164605000Y-91167000D01*
X164659000Y-91053000D02*
X164634000Y-91111000D01*
X164680000Y-90994000D02*
X164659000Y-91053000D01*
X164698000Y-90934000D02*
X164680000Y-90994000D01*
X106097000Y-89755000D02*
X106155000Y-89780000D01*
X104824000Y-41259000D02*
X104853000Y-41203000D01*
X167135000Y-92181000D02*
X167082000Y-92362000D01*
X167176000Y-91997000D02*
X167135000Y-92181000D01*
X167205000Y-91811000D02*
X167176000Y-91997000D01*
X167223000Y-40747000D02*
X167229000Y-40935000D01*
X167205000Y-40559000D02*
X167223000Y-40747000D01*
X167176000Y-40373000D02*
X167205000Y-40559000D01*
X162737000Y-90810000D02*
X162731000Y-90748000D01*
X162747000Y-90872000D02*
X162737000Y-90810000D01*
X162760000Y-90934000D02*
X162747000Y-90872000D01*
X162778000Y-90994000D02*
X162760000Y-90934000D01*
X162799000Y-91053000D02*
X162778000Y-90994000D01*
X164711000Y-90872000D02*
X164698000Y-90934000D01*
X164721000Y-90810000D02*
X164711000Y-90872000D01*
X164727000Y-90748000D02*
X164721000Y-90810000D01*
X164729000Y-90685000D02*
X164727000Y-90748000D01*
X164727000Y-90622000D02*
X164729000Y-90685000D01*
X165333000Y-38146000D02*
X165506000Y-38221000D01*
X165156000Y-38082000D02*
X165333000Y-38146000D01*
X164975000Y-38029000D02*
X165156000Y-38082000D01*
X106038000Y-89734000D02*
X106097000Y-89755000D01*
X103317000Y-93747000D02*
X103175000Y-93622000D01*
X103466000Y-93862000D02*
X103317000Y-93747000D01*
X103622000Y-93968000D02*
X103466000Y-93862000D01*
X162853000Y-90203000D02*
X162885000Y-90149000D01*
X162824000Y-90259000D02*
X162853000Y-90203000D01*
X162799000Y-90317000D02*
X162824000Y-90259000D01*
X162778000Y-90376000D02*
X162799000Y-90317000D01*
X104799000Y-91053000D02*
X104778000Y-90994000D01*
X105044000Y-91414000D02*
X105000000Y-91370000D01*
X104799000Y-41317000D02*
X104824000Y-41259000D01*
X105480000Y-42654000D02*
X105420000Y-42636000D01*
X105542000Y-42667000D02*
X105480000Y-42654000D01*
X106727000Y-90748000D02*
X106721000Y-90810000D01*
X104302000Y-94288000D02*
X104125000Y-94224000D01*
X104483000Y-94341000D02*
X104302000Y-94288000D01*
X104667000Y-94382000D02*
X104483000Y-94341000D01*
X102600001Y-39490000D02*
X102696000Y-39328000D01*
X102515000Y-39658000D02*
X102600001Y-39490000D01*
X106634000Y-41259000D02*
X106659000Y-41317000D01*
X106605000Y-41203000D02*
X106634000Y-41259000D01*
X163854000Y-42677000D02*
X163792000Y-42683000D01*
X163916000Y-42667000D02*
X163854000Y-42677000D01*
X163978000Y-42654000D02*
X163916000Y-42667000D01*
X164038000Y-42636000D02*
X163978000Y-42654000D01*
X164097000Y-42615000D02*
X164038000Y-42636000D01*
X106317000Y-89876000D02*
X106366000Y-89914000D01*
X105480000Y-91654000D02*
X105420000Y-91636000D01*
X104731000Y-41622000D02*
X104737000Y-41560000D01*
X106711000Y-90498000D02*
X106721000Y-90560000D01*
X166283000Y-93622000D02*
X166141000Y-93747000D01*
X166416000Y-93489000D02*
X166283000Y-93622000D01*
X166541000Y-93347000D02*
X166416000Y-93489000D01*
X105729000Y-40685000D02*
X105792000Y-40687000D01*
X105666000Y-40687000D02*
X105729000Y-40685000D01*
X105729000Y-42685000D02*
X105666000Y-42683000D01*
X105792000Y-42683000D02*
X105729000Y-42685000D01*
X104731000Y-41748000D02*
X104729000Y-41685000D01*
X104737000Y-41810000D02*
X104731000Y-41748000D01*
X102235000Y-91623000D02*
X102229000Y-91435000D01*
X106458000Y-91370000D02*
X106414000Y-91414000D01*
X106605000Y-91167000D02*
X106573000Y-91221000D01*
X103042000Y-38881000D02*
X103175000Y-38748000D01*
X102917000Y-39023000D02*
X103042000Y-38881000D01*
X162853000Y-41203000D02*
X162885000Y-41149000D01*
X162824000Y-41259000D02*
X162853000Y-41203000D01*
X162799000Y-41317000D02*
X162824000Y-41259000D01*
X162778000Y-41376000D02*
X162799000Y-41317000D01*
X162760000Y-41436000D02*
X162778000Y-41376000D01*
X102253000Y-91811000D02*
X102235000Y-91623000D01*
X102282000Y-91997000D02*
X102253000Y-91811000D01*
X102323000Y-92181000D02*
X102282000Y-91997000D01*
X102917000Y-93347000D02*
X102802000Y-93198000D01*
X103042000Y-93489000D02*
X102917000Y-93347000D01*
X103175000Y-93622000D02*
X103042000Y-93489000D01*
X105141000Y-89876000D02*
X105193000Y-89841000D01*
X106711000Y-41872000D02*
X106698000Y-41934000D01*
X106721000Y-41810000D02*
X106711000Y-41872000D01*
X105361000Y-91615000D02*
X105303000Y-91590000D01*
X104747000Y-41872000D02*
X104737000Y-41810000D01*
X104760000Y-41934000D02*
X104747000Y-41872000D01*
X104778000Y-90994000D02*
X104760000Y-90934000D01*
X164634000Y-90259000D02*
X164659000Y-90317000D01*
X164605000Y-90203000D02*
X164634000Y-90259000D01*
X164573000Y-90149000D02*
X164605000Y-90203000D01*
X164538000Y-90097000D02*
X164573000Y-90149000D01*
X164500000Y-90048000D02*
X164538000Y-90097000D01*
X104760000Y-41436000D02*
X104778000Y-41376000D01*
X163303000Y-40780000D02*
X163361000Y-40755000D01*
X163247000Y-40809000D02*
X163303000Y-40780000D01*
X163193000Y-40841000D02*
X163247000Y-40809000D01*
X163141000Y-40876000D02*
X163193000Y-40841000D01*
X163092000Y-40914000D02*
X163141000Y-40876000D01*
X105666000Y-89687000D02*
X105729000Y-89685000D01*
X105141000Y-40876000D02*
X105193000Y-40841000D01*
X104885000Y-41149000D02*
X104920000Y-41097000D01*
X163542000Y-42667000D02*
X163480000Y-42654000D01*
X163604000Y-42677000D02*
X163542000Y-42667000D01*
X163666000Y-42683000D02*
X163604000Y-42677000D01*
X163729000Y-42685000D02*
X163666000Y-42683000D01*
X163792000Y-42683000D02*
X163729000Y-42685000D01*
X104824000Y-90259000D02*
X104853000Y-90203000D01*
X106414000Y-89956000D02*
X106458000Y-90000000D01*
X106727000Y-41622000D02*
X106729000Y-41685000D01*
X106721000Y-41560000D02*
X106727000Y-41622000D01*
X105303000Y-89780000D02*
X105361000Y-89755000D01*
X164414000Y-91414000D02*
X164366000Y-91456000D01*
X164458000Y-91370000D02*
X164414000Y-91414000D01*
X164500000Y-91322000D02*
X164458000Y-91370000D01*
X164538000Y-91273000D02*
X164500000Y-91322000D01*
X164573000Y-91221000D02*
X164538000Y-91273000D01*
X104853000Y-94411000D02*
X104667000Y-94382000D01*
X105041000Y-94429000D02*
X104853000Y-94411000D01*
X105229000Y-94435000D02*
X105041000Y-94429000D01*
X106538000Y-90097000D02*
X106573000Y-90149000D01*
X106265000Y-91529000D02*
X106211000Y-91561000D01*
X164721000Y-41560000D02*
X164727000Y-41622000D01*
X164711000Y-41498000D02*
X164721000Y-41560000D01*
X164698000Y-41436000D02*
X164711000Y-41498000D01*
X164680000Y-41376000D02*
X164698000Y-41436000D01*
X164659000Y-41317000D02*
X164680000Y-41376000D01*
X164791000Y-94382000D02*
X164605000Y-94411000D01*
X164975000Y-94341000D02*
X164791000Y-94382000D01*
X165156000Y-94288000D02*
X164975000Y-94341000D01*
X106727000Y-41748000D02*
X106721000Y-41810000D01*
X106729000Y-41685000D02*
X106727000Y-41748000D01*
X106659000Y-90317000D02*
X106680000Y-90376000D01*
X104853000Y-37959000D02*
X105041000Y-37941000D01*
X104667000Y-37988000D02*
X104853000Y-37959000D01*
X104483000Y-38029000D02*
X104667000Y-37988000D01*
X162729000Y-90685000D02*
X162731000Y-90622000D01*
X105193000Y-40841000D02*
X105247000Y-40809000D01*
X162737000Y-41810000D02*
X162731000Y-41748000D01*
X162747000Y-41872000D02*
X162737000Y-41810000D01*
X162760000Y-41934000D02*
X162747000Y-41872000D01*
X162778000Y-41994000D02*
X162760000Y-41934000D01*
X162799000Y-42053000D02*
X162778000Y-41994000D01*
X102229000Y-40935000D02*
X102235000Y-40747000D01*
X102229000Y-57371000D02*
X102229000Y-40935000D01*
X104958000Y-42322000D02*
X104920000Y-42273000D01*
X105000000Y-42370000D02*
X104958000Y-42322000D01*
X105092000Y-91456000D02*
X105044000Y-91414000D01*
X106500000Y-42322000D02*
X106458000Y-42370000D01*
X106538000Y-42273000D02*
X106500000Y-42322000D01*
X104920000Y-91273000D02*
X104885000Y-91221000D01*
X105792000Y-89687000D02*
X105854000Y-89693000D01*
X105092000Y-89914000D02*
X105141000Y-89876000D01*
X104853000Y-41203000D02*
X104885000Y-41149000D01*
X105247000Y-42561000D02*
X105193000Y-42529000D01*
X105303000Y-42590000D02*
X105247000Y-42561000D01*
X164229000Y-94435000D02*
X105229000Y-94435000D01*
X164417000Y-94429000D02*
X164229000Y-94435000D01*
X164605000Y-94411000D02*
X164417000Y-94429000D01*
X162760000Y-90436000D02*
X162778000Y-90376000D01*
X162747000Y-90498000D02*
X162760000Y-90436000D01*
X162737000Y-90560000D02*
X162747000Y-90498000D01*
X162731000Y-90622000D02*
X162737000Y-90560000D01*
X164211000Y-89809000D02*
X164265000Y-89841000D01*
X164155000Y-89780000D02*
X164211000Y-89809000D01*
X164097000Y-89755000D02*
X164155000Y-89780000D01*
X164038000Y-89734000D02*
X164097000Y-89755000D01*
X163978000Y-89716000D02*
X164038000Y-89734000D01*
X106680000Y-41376000D02*
X106698000Y-41436000D01*
X106659000Y-41317000D02*
X106680000Y-41376000D01*
X106721000Y-90810000D02*
X106711000Y-90872000D01*
X106500000Y-91322000D02*
X106458000Y-91370000D01*
X165333000Y-94224000D02*
X165156000Y-94288000D01*
X165506000Y-94149000D02*
X165333000Y-94224000D01*
X165674000Y-94064000D02*
X165506000Y-94149000D01*
X163247000Y-42561000D02*
X163193000Y-42529000D01*
X163303000Y-42590000D02*
X163247000Y-42561000D01*
X163361000Y-42615000D02*
X163303000Y-42590000D01*
X163420000Y-42636000D02*
X163361000Y-42615000D01*
X163480000Y-42654000D02*
X163420000Y-42636000D01*
X106711000Y-90872000D02*
X106698000Y-90934000D01*
X164634000Y-41259000D02*
X164659000Y-41317000D01*
X164605000Y-41203000D02*
X164634000Y-41259000D01*
X164573000Y-41149000D02*
X164605000Y-41203000D01*
X164538000Y-41097000D02*
X164573000Y-41149000D01*
X164500000Y-41048000D02*
X164538000Y-41097000D01*
X163000000Y-91370000D02*
X162958000Y-91322000D01*
X163044000Y-91414000D02*
X163000000Y-91370000D01*
X163092000Y-91456000D02*
X163044000Y-91414000D01*
X163141000Y-91494000D02*
X163092000Y-91456000D01*
X163193000Y-91529000D02*
X163141000Y-91494000D01*
X164721000Y-90560000D02*
X164727000Y-90622000D01*
X164711000Y-90498000D02*
X164721000Y-90560000D01*
X164698000Y-90436000D02*
X164711000Y-90498000D01*
X164680000Y-90376000D02*
X164698000Y-90436000D01*
X164659000Y-90317000D02*
X164680000Y-90376000D01*
X105542000Y-89703000D02*
X105604000Y-89693000D01*
X106317000Y-42494000D02*
X106265000Y-42529000D01*
X106366000Y-42456000D02*
X106317000Y-42494000D01*
X164605000Y-42167000D02*
X164573000Y-42221000D01*
X164634000Y-42111000D02*
X164605000Y-42167000D01*
X164659000Y-42053000D02*
X164634000Y-42111000D01*
X164680000Y-41994000D02*
X164659000Y-42053000D01*
X164698000Y-41934000D02*
X164680000Y-41994000D01*
X105729000Y-89685000D02*
X105792000Y-89687000D01*
X103784000Y-94064000D02*
X103622000Y-93968000D01*
X103952000Y-94149000D02*
X103784000Y-94064000D01*
X104125000Y-94224000D02*
X103952000Y-94149000D01*
X162747000Y-41498000D02*
X162760000Y-41436000D01*
X162737000Y-41560000D02*
X162747000Y-41498000D01*
X162731000Y-41622000D02*
X162737000Y-41560000D01*
X162729000Y-41685000D02*
X162731000Y-41622000D01*
X162731000Y-90748000D02*
X162729000Y-90685000D01*
X105542000Y-91667000D02*
X105480000Y-91654000D01*
X104302000Y-38082000D02*
X104483000Y-38029000D01*
X104125000Y-38146000D02*
X104302000Y-38082000D01*
X103952000Y-38221000D02*
X104125000Y-38146000D01*
X106097000Y-40755000D02*
X106155000Y-40780000D01*
X106038000Y-40734000D02*
X106097000Y-40755000D01*
X162824000Y-42111000D02*
X162799000Y-42053000D01*
X162853000Y-42167000D02*
X162824000Y-42111000D01*
X162885000Y-42221000D02*
X162853000Y-42167000D01*
X162920000Y-42273000D02*
X162885000Y-42221000D01*
X162958000Y-42322000D02*
X162920000Y-42273000D01*
X105193000Y-91529000D02*
X105141000Y-91494000D01*
X106634000Y-42111000D02*
X106605000Y-42167000D01*
X106659000Y-42053000D02*
X106634000Y-42111000D01*
X104747000Y-41498000D02*
X104760000Y-41436000D01*
X166656000Y-93198000D02*
X166541000Y-93347000D01*
X166762000Y-93042000D02*
X166656000Y-93198000D01*
X166857999Y-92880000D02*
X166762000Y-93042000D01*
X164229000Y-37935000D02*
X164417000Y-37941000D01*
X105229000Y-37935000D02*
X164229000Y-37935000D01*
X105041000Y-37941000D02*
X105229000Y-37935000D01*
X163854000Y-91677000D02*
X163792000Y-91683000D01*
X163916000Y-91667000D02*
X163854000Y-91677000D01*
X163978000Y-91654000D02*
X163916000Y-91667000D01*
X164038000Y-91636000D02*
X163978000Y-91654000D01*
X164097000Y-91615000D02*
X164038000Y-91636000D01*
X102253000Y-40559000D02*
X102282000Y-40373000D01*
X102235000Y-40747000D02*
X102253000Y-40559000D01*
X104778000Y-90376000D02*
X104799000Y-90317000D01*
X105361000Y-40755000D02*
X105420000Y-40734000D01*
X105303000Y-40780000D02*
X105361000Y-40755000D01*
X164414000Y-42414000D02*
X164366000Y-42456000D01*
X164458000Y-42370000D02*
X164414000Y-42414000D01*
X164500000Y-42322000D02*
X164458000Y-42370000D01*
X164538000Y-42273000D02*
X164500000Y-42322000D01*
X164573000Y-42221000D02*
X164538000Y-42273000D01*
X106414000Y-40956000D02*
X106458000Y-41000000D01*
X106366000Y-40914000D02*
X106414000Y-40956000D01*
X163604000Y-40693000D02*
X163666000Y-40687000D01*
X163542000Y-40703000D02*
X163604000Y-40693000D01*
X163480000Y-40716000D02*
X163542000Y-40703000D01*
X163420000Y-40734000D02*
X163480000Y-40716000D01*
X163361000Y-40755000D02*
X163420000Y-40734000D01*
X104747000Y-90498000D02*
X104760000Y-90436000D01*
X164211000Y-40809000D02*
X164265000Y-40841000D01*
X164155000Y-40780000D02*
X164211000Y-40809000D01*
X164097000Y-40755000D02*
X164155000Y-40780000D01*
X164038000Y-40734000D02*
X164097000Y-40755000D01*
X163978000Y-40716000D02*
X164038000Y-40734000D01*
X104760000Y-90436000D02*
X104778000Y-90376000D01*
X106317000Y-91494000D02*
X106265000Y-91529000D01*
X106366000Y-89914000D02*
X106414000Y-89956000D01*
X105092000Y-40914000D02*
X105141000Y-40876000D01*
X105000000Y-90000000D02*
X105044000Y-89956000D01*
M02*
