M48
; DRILL file {KiCad 5.1.10} date Sat Jun 19 09:57:22 2021
; FORMAT={-:-/ absolute / inch / decimal}
; #@! TF.CreationDate,2021-06-19T09:57:22+02:00
; #@! TF.GenerationSoftware,Kicad,Pcbnew,5.1.10
FMAT,2
INCH
T1C0.0157
T2C0.0394
T3C0.0866
%
G90
G05
T1
X4.72Y-2.41
X4.805Y-2.495
X4.914Y-2.576
X4.96Y-1.7913
X4.96Y-2.63
X5.11Y-3.03
X5.11Y-3.12
X5.1102Y-1.9961
X5.1102Y-2.0748
X5.1102Y-2.4646
X5.1102Y-2.5748
X5.2087Y-2.0354
X5.2087Y-2.1142
X5.2087Y-2.5394
X5.21Y-3.08
X5.21Y-3.16
X5.53Y-1.99
X5.53Y-2.48
X5.53Y-3.2
X5.81Y-2.91
X5.8744Y-3.0744
T2
X4.3602Y-1.6028
X4.3602Y-1.7028
X4.4602Y-1.6028
X4.4602Y-1.7028
X4.525Y-2.025
X4.525Y-2.125
X4.525Y-2.225
X4.525Y-2.325
X4.525Y-2.575
X4.525Y-2.675
X4.525Y-2.775
X4.525Y-2.875
X4.525Y-3.125
X4.525Y-3.225
X4.525Y-3.325
X4.525Y-3.425
X4.5602Y-1.6028
X4.5602Y-1.7028
X4.625Y-2.025
X4.625Y-2.125
X4.625Y-2.225
X4.625Y-2.325
X4.625Y-2.575
X4.625Y-2.675
X4.625Y-2.775
X4.625Y-2.875
X4.625Y-3.125
X4.625Y-3.225
X4.625Y-3.325
X4.625Y-3.425
X4.6602Y-1.6028
X4.6602Y-1.7028
X4.7602Y-1.6028
X4.7602Y-1.7028
X4.8602Y-1.6028
X4.8602Y-1.7028
X4.9602Y-1.6028
X4.9602Y-1.7028
X5.0602Y-1.6028
X5.0602Y-1.7028
X5.1602Y-1.6028
X5.1602Y-1.7028
X5.2602Y-1.6028
X5.2602Y-1.7028
X5.3602Y-1.6028
X5.3602Y-1.7028
X5.4602Y-1.6028
X5.4602Y-1.7028
X5.5602Y-1.6028
X5.5602Y-1.7028
X5.6602Y-1.6028
X5.6602Y-1.7028
X5.7602Y-1.6028
X5.7602Y-1.7028
X5.8602Y-1.6028
X5.8602Y-1.7028
X5.9602Y-1.6028
X5.9602Y-1.7028
X6.0236Y-2.5787
X6.0236Y-2.6787
X6.0236Y-2.7787
X6.0236Y-2.8787
X6.025Y-2.025
X6.025Y-2.125
X6.025Y-2.225
X6.025Y-2.325
X6.025Y-3.125
X6.025Y-3.225
X6.025Y-3.325
X6.025Y-3.425
X6.0602Y-1.6028
X6.0602Y-1.7028
X6.1236Y-2.5787
X6.1236Y-2.6787
X6.1236Y-2.7787
X6.1236Y-2.8787
X6.125Y-2.025
X6.125Y-2.125
X6.125Y-2.225
X6.125Y-2.325
X6.125Y-3.125
X6.125Y-3.225
X6.125Y-3.325
X6.125Y-3.425
X6.1602Y-1.6028
X6.1602Y-1.7028
X6.2602Y-1.6028
X6.2602Y-1.7028
T3
X4.1634Y-1.6437
X4.1634Y-3.5728
X6.4469Y-1.6437
X6.4469Y-3.563
T0
M30
