%TF.GenerationSoftware,KiCad,Pcbnew,5.1.10*%
%TF.CreationDate,2021-06-19T09:57:27+02:00*%
%TF.ProjectId,RaspberryI2Cextender,52617370-6265-4727-9279-493243657874,rev?*%
%TF.SameCoordinates,Original*%
%TF.FileFunction,Copper,L2,Bot*%
%TF.FilePolarity,Positive*%
%FSLAX46Y46*%
G04 Gerber Fmt 4.6, Leading zero omitted, Abs format (unit mm)*
G04 Created by KiCad (PCBNEW 5.1.10) date 2021-06-19 09:57:27*
%MOMM*%
%LPD*%
G01*
G04 APERTURE LIST*
%TA.AperFunction,ComponentPad*%
%ADD10R,1.700000X1.700000*%
%TD*%
%TA.AperFunction,ComponentPad*%
%ADD11O,1.700000X1.700000*%
%TD*%
%TA.AperFunction,ComponentPad*%
%ADD12C,3.800000*%
%TD*%
%TA.AperFunction,ViaPad*%
%ADD13C,0.800000*%
%TD*%
%TA.AperFunction,Conductor*%
%ADD14C,0.250000*%
%TD*%
%TA.AperFunction,Conductor*%
%ADD15C,0.254000*%
%TD*%
%TA.AperFunction,Conductor*%
%ADD16C,0.100000*%
%TD*%
G04 APERTURE END LIST*
D10*
%TO.P,J1,1*%
%TO.N,VCC*%
X110750000Y-43250000D03*
D11*
%TO.P,J1,2*%
%TO.N,Net-(J1-Pad2)*%
X110750000Y-40710000D03*
%TO.P,J1,3*%
%TO.N,SDA1*%
X113290000Y-43250000D03*
%TO.P,J1,4*%
%TO.N,Net-(J1-Pad4)*%
X113290000Y-40710000D03*
%TO.P,J1,5*%
%TO.N,SCL1*%
X115830000Y-43250000D03*
%TO.P,J1,6*%
%TO.N,GND*%
X115830000Y-40710000D03*
%TO.P,J1,7*%
%TO.N,SDA3*%
X118370000Y-43250000D03*
%TO.P,J1,8*%
%TO.N,Net-(J1-Pad8)*%
X118370000Y-40710000D03*
%TO.P,J1,9*%
%TO.N,GND*%
X120910000Y-43250000D03*
%TO.P,J1,10*%
%TO.N,Net-(J1-Pad10)*%
X120910000Y-40710000D03*
%TO.P,J1,11*%
%TO.N,Net-(J1-Pad11)*%
X123450000Y-43250000D03*
%TO.P,J1,12*%
%TO.N,Net-(J1-Pad12)*%
X123450000Y-40710000D03*
%TO.P,J1,13*%
%TO.N,Net-(J1-Pad13)*%
X125990000Y-43250000D03*
%TO.P,J1,14*%
%TO.N,GND*%
X125990000Y-40710000D03*
%TO.P,J1,15*%
%TO.N,SDA6*%
X128530000Y-43250000D03*
%TO.P,J1,16*%
%TO.N,SCL6*%
X128530000Y-40710000D03*
%TO.P,J1,17*%
%TO.N,Net-(J1-Pad17)*%
X131070000Y-43250000D03*
%TO.P,J1,18*%
%TO.N,Net-(J1-Pad18)*%
X131070000Y-40710000D03*
%TO.P,J1,19*%
%TO.N,Net-(J1-Pad19)*%
X133610000Y-43250000D03*
%TO.P,J1,20*%
%TO.N,GND*%
X133610000Y-40710000D03*
%TO.P,J1,21*%
%TO.N,SCL4*%
X136150000Y-43250000D03*
%TO.P,J1,22*%
%TO.N,Net-(J1-Pad22)*%
X136150000Y-40710000D03*
%TO.P,J1,23*%
%TO.N,Net-(J1-Pad23)*%
X138690000Y-43250000D03*
%TO.P,J1,24*%
%TO.N,SDA4*%
X138690000Y-40710000D03*
%TO.P,J1,25*%
%TO.N,GND*%
X141230000Y-43250000D03*
%TO.P,J1,26*%
%TO.N,Net-(J1-Pad26)*%
X141230000Y-40710000D03*
%TO.P,J1,27*%
%TO.N,SDA0*%
X143770000Y-43250000D03*
%TO.P,J1,28*%
%TO.N,SCL0*%
X143770000Y-40710000D03*
%TO.P,J1,29*%
%TO.N,SCL3*%
X146310000Y-43250000D03*
%TO.P,J1,30*%
%TO.N,GND*%
X146310000Y-40710000D03*
%TO.P,J1,31*%
%TO.N,Net-(J1-Pad31)*%
X148850000Y-43250000D03*
%TO.P,J1,32*%
%TO.N,SDA5*%
X148850000Y-40710000D03*
%TO.P,J1,33*%
%TO.N,SCL5*%
X151390000Y-43250000D03*
%TO.P,J1,34*%
%TO.N,GND*%
X151390000Y-40710000D03*
%TO.P,J1,35*%
%TO.N,Net-(J1-Pad35)*%
X153930000Y-43250000D03*
%TO.P,J1,36*%
%TO.N,Net-(J1-Pad36)*%
X153930000Y-40710000D03*
%TO.P,J1,37*%
%TO.N,Net-(J1-Pad37)*%
X156470000Y-43250000D03*
%TO.P,J1,38*%
%TO.N,Net-(J1-Pad38)*%
X156470000Y-40710000D03*
%TO.P,J1,39*%
%TO.N,GND*%
X159010000Y-43250000D03*
%TO.P,J1,40*%
%TO.N,Net-(J1-Pad40)*%
X159010000Y-40710000D03*
%TD*%
D12*
%TO.P,H1,1*%
%TO.N,GND*%
X105750000Y-41750000D03*
%TD*%
%TO.P,H2,1*%
%TO.N,GND*%
X105750000Y-90750000D03*
%TD*%
%TO.P,H3,1*%
%TO.N,GND*%
X163750000Y-41750000D03*
%TD*%
%TO.P,H4,1*%
%TO.N,GND*%
X163750000Y-90500000D03*
%TD*%
D11*
%TO.P,J8,8*%
%TO.N,GND*%
X117475000Y-59055000D03*
%TO.P,J8,7*%
X114935000Y-59055000D03*
%TO.P,J8,6*%
%TO.N,VCC*%
X117475000Y-56515000D03*
%TO.P,J8,5*%
X114935000Y-56515000D03*
%TO.P,J8,4*%
%TO.N,SCL1*%
X117475000Y-53975000D03*
%TO.P,J8,3*%
X114935000Y-53975000D03*
%TO.P,J8,2*%
%TO.N,SDA1*%
X117475000Y-51435000D03*
D10*
%TO.P,J8,1*%
X114935000Y-51435000D03*
%TD*%
%TO.P,J9,1*%
%TO.N,SDA3*%
X114935000Y-65405000D03*
D11*
%TO.P,J9,2*%
X117475000Y-65405000D03*
%TO.P,J9,3*%
%TO.N,SCL3*%
X114935000Y-67945000D03*
%TO.P,J9,4*%
X117475000Y-67945000D03*
%TO.P,J9,5*%
%TO.N,VCC*%
X114935000Y-70485000D03*
%TO.P,J9,6*%
X117475000Y-70485000D03*
%TO.P,J9,7*%
%TO.N,GND*%
X114935000Y-73025000D03*
%TO.P,J9,8*%
X117475000Y-73025000D03*
%TD*%
%TO.P,J10,8*%
%TO.N,GND*%
X117475000Y-86995000D03*
%TO.P,J10,7*%
X114935000Y-86995000D03*
%TO.P,J10,6*%
%TO.N,VCC*%
X117475000Y-84455000D03*
%TO.P,J10,5*%
X114935000Y-84455000D03*
%TO.P,J10,4*%
%TO.N,SCL4*%
X117475000Y-81915000D03*
%TO.P,J10,3*%
X114935000Y-81915000D03*
%TO.P,J10,2*%
%TO.N,SDA4*%
X117475000Y-79375000D03*
D10*
%TO.P,J10,1*%
X114935000Y-79375000D03*
%TD*%
%TO.P,J11,1*%
%TO.N,SDA0*%
X153000000Y-65500000D03*
D11*
%TO.P,J11,2*%
X155540000Y-65500000D03*
%TO.P,J11,3*%
%TO.N,SCL0*%
X153000000Y-68040000D03*
%TO.P,J11,4*%
X155540000Y-68040000D03*
%TO.P,J11,5*%
%TO.N,VCC*%
X153000000Y-70580000D03*
%TO.P,J11,6*%
X155540000Y-70580000D03*
%TO.P,J11,7*%
%TO.N,GND*%
X153000000Y-73120000D03*
%TO.P,J11,8*%
X155540000Y-73120000D03*
%TD*%
%TO.P,J12,8*%
%TO.N,GND*%
X155575000Y-59055000D03*
%TO.P,J12,7*%
X153035000Y-59055000D03*
%TO.P,J12,6*%
%TO.N,VCC*%
X155575000Y-56515000D03*
%TO.P,J12,5*%
X153035000Y-56515000D03*
%TO.P,J12,4*%
%TO.N,SCL5*%
X155575000Y-53975000D03*
%TO.P,J12,3*%
X153035000Y-53975000D03*
%TO.P,J12,2*%
%TO.N,SDA5*%
X155575000Y-51435000D03*
D10*
%TO.P,J12,1*%
X153035000Y-51435000D03*
%TD*%
%TO.P,J13,1*%
%TO.N,SDA6*%
X153035000Y-79375000D03*
D11*
%TO.P,J13,2*%
X155575000Y-79375000D03*
%TO.P,J13,3*%
%TO.N,SCL6*%
X153035000Y-81915000D03*
%TO.P,J13,4*%
X155575000Y-81915000D03*
%TO.P,J13,5*%
%TO.N,VCC*%
X153035000Y-84455000D03*
%TO.P,J13,6*%
X155575000Y-84455000D03*
%TO.P,J13,7*%
%TO.N,GND*%
X153035000Y-86995000D03*
%TO.P,J13,8*%
X155575000Y-86995000D03*
%TD*%
D13*
%TO.N,SDA1*%
X129800000Y-52700000D03*
%TO.N,SCL1*%
X132300000Y-53700000D03*
%TO.N,VCC*%
X140462000Y-81280000D03*
%TO.N,SDA3*%
X119888000Y-61214000D03*
X129800000Y-62600000D03*
%TO.N,SDA6*%
X147574000Y-73914000D03*
X129794000Y-79248000D03*
%TO.N,SCL6*%
X132334000Y-80264000D03*
X149210000Y-78090000D03*
%TO.N,SCL4*%
X125984000Y-45500000D03*
X125984000Y-66802000D03*
%TO.N,SDA4*%
X129800000Y-65400000D03*
X124814999Y-65431001D03*
%TO.N,SDA0*%
X129800000Y-50700000D03*
%TO.N,SCL0*%
X132300000Y-51700000D03*
%TO.N,SCL3*%
X122047000Y-63373000D03*
X132300000Y-64500000D03*
%TO.N,SDA5*%
X129794000Y-76962000D03*
%TO.N,SCL5*%
X132334000Y-78232000D03*
%TO.N,VCC*%
X140462000Y-50546000D03*
X140462000Y-62992000D03*
%TD*%
D14*
%TO.N,SDA1*%
X118110000Y-52070000D02*
X117475000Y-51435000D01*
X129800000Y-52700000D02*
X127000000Y-52700000D01*
X125735000Y-51435000D02*
X117475000Y-51435000D01*
X127000000Y-52700000D02*
X125735000Y-51435000D01*
%TO.N,SCL1*%
X117856000Y-53594000D02*
X117475000Y-53975000D01*
X117750000Y-53700000D02*
X117475000Y-53975000D01*
X132300000Y-53700000D02*
X117750000Y-53700000D01*
%TO.N,SDA3*%
X128414000Y-61214000D02*
X119888000Y-61214000D01*
X129800000Y-62600000D02*
X128414000Y-61214000D01*
%TO.N,SDA6*%
X129794000Y-79248000D02*
X143002000Y-79248000D01*
X147574000Y-73660000D02*
X147574000Y-73914000D01*
X147574000Y-73914000D02*
X147574000Y-78126000D01*
X146452000Y-79248000D02*
X143002000Y-79248000D01*
X147574000Y-78126000D02*
X146452000Y-79248000D01*
%TO.N,SCL6*%
X132334000Y-80264000D02*
X132080000Y-80264000D01*
X149210000Y-78090000D02*
X149210000Y-79090000D01*
X148036000Y-80264000D02*
X132334000Y-80264000D01*
X149210000Y-79090000D02*
X148036000Y-80264000D01*
%TO.N,SCL4*%
X136150000Y-43250000D02*
X136150000Y-44850000D01*
X135500000Y-45500000D02*
X125984000Y-45500000D01*
X136150000Y-44850000D02*
X135500000Y-45500000D01*
%TO.N,SDA4*%
X124846000Y-65400000D02*
X124814999Y-65431001D01*
X129800000Y-65400000D02*
X124846000Y-65400000D01*
%TO.N,SDA0*%
X129800000Y-50700000D02*
X138200000Y-50700000D01*
X143770000Y-45130000D02*
X143770000Y-43250000D01*
X138200000Y-50700000D02*
X143770000Y-45130000D01*
%TO.N,SCL0*%
X144945001Y-41885001D02*
X143770000Y-40710000D01*
X144945001Y-44989997D02*
X144945001Y-41885001D01*
X138234998Y-51700000D02*
X144945001Y-44989997D01*
X132300000Y-51700000D02*
X138234998Y-51700000D01*
%TO.N,SCL3*%
X132300000Y-64500000D02*
X129500000Y-64500000D01*
X128373000Y-63373000D02*
X122047000Y-63373000D01*
X129500000Y-64500000D02*
X128373000Y-63373000D01*
%TO.N,SDA5*%
X145300000Y-72700000D02*
X145300000Y-75800000D01*
X145300000Y-75800000D02*
X144138000Y-76962000D01*
X147828000Y-70172000D02*
X145300000Y-72700000D01*
X147828000Y-55626000D02*
X147828000Y-70172000D01*
X152019000Y-51435000D02*
X147828000Y-55626000D01*
X153035000Y-51435000D02*
X152019000Y-51435000D01*
X137438000Y-76962000D02*
X137668000Y-76962000D01*
X144138000Y-76962000D02*
X137438000Y-76962000D01*
X129794000Y-76962000D02*
X137438000Y-76962000D01*
%TO.N,SCL5*%
X132334000Y-78232000D02*
X132334000Y-78232000D01*
X149098000Y-70402000D02*
X149098000Y-57912000D01*
X146300000Y-73200000D02*
X149098000Y-70402000D01*
X146300000Y-76700000D02*
X146300000Y-73200000D01*
X144768000Y-78232000D02*
X146300000Y-76700000D01*
X149098000Y-57912000D02*
X153035000Y-53975000D01*
X132334000Y-78232000D02*
X144768000Y-78232000D01*
%TD*%
D15*
%TO.N,VCC*%
X164386628Y-38417273D02*
X164545483Y-38432483D01*
X164702293Y-38456932D01*
X164855992Y-38491180D01*
X165007733Y-38535614D01*
X165156873Y-38589540D01*
X165303291Y-38653016D01*
X165444496Y-38724460D01*
X165580132Y-38804838D01*
X165711981Y-38894427D01*
X165837378Y-38991210D01*
X165956437Y-39096016D01*
X166067984Y-39207563D01*
X166172790Y-39326622D01*
X166269570Y-39452016D01*
X166359164Y-39583870D01*
X166439544Y-39719513D01*
X166510990Y-39860722D01*
X166574462Y-40007132D01*
X166628387Y-40156269D01*
X166672824Y-40308022D01*
X166707068Y-40461706D01*
X166731519Y-40618532D01*
X166746727Y-40777369D01*
X166752000Y-40942606D01*
X166752001Y-91427363D01*
X166746727Y-91592631D01*
X166731519Y-91751468D01*
X166707068Y-91908294D01*
X166672824Y-92061978D01*
X166628387Y-92213731D01*
X166574462Y-92362868D01*
X166510990Y-92509278D01*
X166439544Y-92650487D01*
X166359164Y-92786130D01*
X166269570Y-92917984D01*
X166172790Y-93043378D01*
X166067984Y-93162437D01*
X165956437Y-93273984D01*
X165837378Y-93378790D01*
X165711981Y-93475573D01*
X165580132Y-93565162D01*
X165444496Y-93645540D01*
X165303291Y-93716984D01*
X165156873Y-93780460D01*
X165007733Y-93834386D01*
X164855992Y-93878820D01*
X164702293Y-93913068D01*
X164545483Y-93937517D01*
X164386628Y-93952727D01*
X164221395Y-93958000D01*
X105236606Y-93958000D01*
X105071369Y-93952727D01*
X104912532Y-93937519D01*
X104755706Y-93913068D01*
X104602022Y-93878824D01*
X104450269Y-93834387D01*
X104301132Y-93780462D01*
X104154726Y-93716992D01*
X104013514Y-93645545D01*
X103877870Y-93565163D01*
X103746016Y-93475570D01*
X103620622Y-93378790D01*
X103501563Y-93273984D01*
X103390016Y-93162437D01*
X103285210Y-93043378D01*
X103188427Y-92917981D01*
X103098835Y-92786128D01*
X103018450Y-92650478D01*
X102947021Y-92509302D01*
X102883540Y-92362873D01*
X102829614Y-92213733D01*
X102785180Y-92061992D01*
X102750932Y-91908293D01*
X102726483Y-91751483D01*
X102711273Y-91592621D01*
X102706000Y-91427395D01*
X102706000Y-90525735D01*
X103473000Y-90525735D01*
X103473000Y-90974265D01*
X103560504Y-91414176D01*
X103732149Y-91828564D01*
X103981339Y-92201503D01*
X104298497Y-92518661D01*
X104671436Y-92767851D01*
X105085824Y-92939496D01*
X105525735Y-93027000D01*
X105974265Y-93027000D01*
X106414176Y-92939496D01*
X106828564Y-92767851D01*
X107201503Y-92518661D01*
X107518661Y-92201503D01*
X107767851Y-91828564D01*
X107939496Y-91414176D01*
X108027000Y-90974265D01*
X108027000Y-90525735D01*
X107977272Y-90275735D01*
X161473000Y-90275735D01*
X161473000Y-90724265D01*
X161560504Y-91164176D01*
X161732149Y-91578564D01*
X161981339Y-91951503D01*
X162298497Y-92268661D01*
X162671436Y-92517851D01*
X163085824Y-92689496D01*
X163525735Y-92777000D01*
X163974265Y-92777000D01*
X164414176Y-92689496D01*
X164828564Y-92517851D01*
X165201503Y-92268661D01*
X165518661Y-91951503D01*
X165767851Y-91578564D01*
X165939496Y-91164176D01*
X166027000Y-90724265D01*
X166027000Y-90275735D01*
X165939496Y-89835824D01*
X165767851Y-89421436D01*
X165518661Y-89048497D01*
X165201503Y-88731339D01*
X164828564Y-88482149D01*
X164414176Y-88310504D01*
X163974265Y-88223000D01*
X163525735Y-88223000D01*
X163085824Y-88310504D01*
X162671436Y-88482149D01*
X162298497Y-88731339D01*
X161981339Y-89048497D01*
X161732149Y-89421436D01*
X161560504Y-89835824D01*
X161473000Y-90275735D01*
X107977272Y-90275735D01*
X107939496Y-90085824D01*
X107767851Y-89671436D01*
X107518661Y-89298497D01*
X107201503Y-88981339D01*
X106828564Y-88732149D01*
X106414176Y-88560504D01*
X105974265Y-88473000D01*
X105525735Y-88473000D01*
X105085824Y-88560504D01*
X104671436Y-88732149D01*
X104298497Y-88981339D01*
X103981339Y-89298497D01*
X103732149Y-89671436D01*
X103560504Y-90085824D01*
X103473000Y-90525735D01*
X102706000Y-90525735D01*
X102706000Y-84811890D01*
X113493524Y-84811890D01*
X113538175Y-84959099D01*
X113663359Y-85221920D01*
X113837412Y-85455269D01*
X114053645Y-85650178D01*
X114303748Y-85799157D01*
X114471798Y-85858769D01*
X114353798Y-85907647D01*
X114152833Y-86041927D01*
X113981927Y-86212833D01*
X113847647Y-86413798D01*
X113755153Y-86637097D01*
X113708000Y-86874151D01*
X113708000Y-87115849D01*
X113755153Y-87352903D01*
X113847647Y-87576202D01*
X113981927Y-87777167D01*
X114152833Y-87948073D01*
X114353798Y-88082353D01*
X114577097Y-88174847D01*
X114814151Y-88222000D01*
X115055849Y-88222000D01*
X115292903Y-88174847D01*
X115516202Y-88082353D01*
X115717167Y-87948073D01*
X115888073Y-87777167D01*
X116022353Y-87576202D01*
X116114847Y-87352903D01*
X116162000Y-87115849D01*
X116162000Y-86874151D01*
X116114847Y-86637097D01*
X116022353Y-86413798D01*
X115888073Y-86212833D01*
X115717167Y-86041927D01*
X115516202Y-85907647D01*
X115398202Y-85858769D01*
X115566252Y-85799157D01*
X115816355Y-85650178D01*
X116032588Y-85455269D01*
X116205000Y-85224120D01*
X116377412Y-85455269D01*
X116593645Y-85650178D01*
X116843748Y-85799157D01*
X117011798Y-85858769D01*
X116893798Y-85907647D01*
X116692833Y-86041927D01*
X116521927Y-86212833D01*
X116387647Y-86413798D01*
X116295153Y-86637097D01*
X116248000Y-86874151D01*
X116248000Y-87115849D01*
X116295153Y-87352903D01*
X116387647Y-87576202D01*
X116521927Y-87777167D01*
X116692833Y-87948073D01*
X116893798Y-88082353D01*
X117117097Y-88174847D01*
X117354151Y-88222000D01*
X117595849Y-88222000D01*
X117832903Y-88174847D01*
X118056202Y-88082353D01*
X118257167Y-87948073D01*
X118428073Y-87777167D01*
X118562353Y-87576202D01*
X118654847Y-87352903D01*
X118702000Y-87115849D01*
X118702000Y-86874151D01*
X118654847Y-86637097D01*
X118562353Y-86413798D01*
X118428073Y-86212833D01*
X118257167Y-86041927D01*
X118056202Y-85907647D01*
X117938202Y-85858769D01*
X118106252Y-85799157D01*
X118356355Y-85650178D01*
X118572588Y-85455269D01*
X118746641Y-85221920D01*
X118871825Y-84959099D01*
X118916476Y-84811890D01*
X151593524Y-84811890D01*
X151638175Y-84959099D01*
X151763359Y-85221920D01*
X151937412Y-85455269D01*
X152153645Y-85650178D01*
X152403748Y-85799157D01*
X152571798Y-85858769D01*
X152453798Y-85907647D01*
X152252833Y-86041927D01*
X152081927Y-86212833D01*
X151947647Y-86413798D01*
X151855153Y-86637097D01*
X151808000Y-86874151D01*
X151808000Y-87115849D01*
X151855153Y-87352903D01*
X151947647Y-87576202D01*
X152081927Y-87777167D01*
X152252833Y-87948073D01*
X152453798Y-88082353D01*
X152677097Y-88174847D01*
X152914151Y-88222000D01*
X153155849Y-88222000D01*
X153392903Y-88174847D01*
X153616202Y-88082353D01*
X153817167Y-87948073D01*
X153988073Y-87777167D01*
X154122353Y-87576202D01*
X154214847Y-87352903D01*
X154262000Y-87115849D01*
X154262000Y-86874151D01*
X154214847Y-86637097D01*
X154122353Y-86413798D01*
X153988073Y-86212833D01*
X153817167Y-86041927D01*
X153616202Y-85907647D01*
X153498202Y-85858769D01*
X153666252Y-85799157D01*
X153916355Y-85650178D01*
X154132588Y-85455269D01*
X154305000Y-85224120D01*
X154477412Y-85455269D01*
X154693645Y-85650178D01*
X154943748Y-85799157D01*
X155111798Y-85858769D01*
X154993798Y-85907647D01*
X154792833Y-86041927D01*
X154621927Y-86212833D01*
X154487647Y-86413798D01*
X154395153Y-86637097D01*
X154348000Y-86874151D01*
X154348000Y-87115849D01*
X154395153Y-87352903D01*
X154487647Y-87576202D01*
X154621927Y-87777167D01*
X154792833Y-87948073D01*
X154993798Y-88082353D01*
X155217097Y-88174847D01*
X155454151Y-88222000D01*
X155695849Y-88222000D01*
X155932903Y-88174847D01*
X156156202Y-88082353D01*
X156357167Y-87948073D01*
X156528073Y-87777167D01*
X156662353Y-87576202D01*
X156754847Y-87352903D01*
X156802000Y-87115849D01*
X156802000Y-86874151D01*
X156754847Y-86637097D01*
X156662353Y-86413798D01*
X156528073Y-86212833D01*
X156357167Y-86041927D01*
X156156202Y-85907647D01*
X156038202Y-85858769D01*
X156206252Y-85799157D01*
X156456355Y-85650178D01*
X156672588Y-85455269D01*
X156846641Y-85221920D01*
X156971825Y-84959099D01*
X157016476Y-84811890D01*
X156895155Y-84582000D01*
X155702000Y-84582000D01*
X155702000Y-84602000D01*
X155448000Y-84602000D01*
X155448000Y-84582000D01*
X153162000Y-84582000D01*
X153162000Y-84602000D01*
X152908000Y-84602000D01*
X152908000Y-84582000D01*
X151714845Y-84582000D01*
X151593524Y-84811890D01*
X118916476Y-84811890D01*
X118795155Y-84582000D01*
X117602000Y-84582000D01*
X117602000Y-84602000D01*
X117348000Y-84602000D01*
X117348000Y-84582000D01*
X115062000Y-84582000D01*
X115062000Y-84602000D01*
X114808000Y-84602000D01*
X114808000Y-84582000D01*
X113614845Y-84582000D01*
X113493524Y-84811890D01*
X102706000Y-84811890D01*
X102706000Y-84098110D01*
X113493524Y-84098110D01*
X113614845Y-84328000D01*
X114808000Y-84328000D01*
X114808000Y-84308000D01*
X115062000Y-84308000D01*
X115062000Y-84328000D01*
X117348000Y-84328000D01*
X117348000Y-84308000D01*
X117602000Y-84308000D01*
X117602000Y-84328000D01*
X118795155Y-84328000D01*
X118916476Y-84098110D01*
X151593524Y-84098110D01*
X151714845Y-84328000D01*
X152908000Y-84328000D01*
X152908000Y-84308000D01*
X153162000Y-84308000D01*
X153162000Y-84328000D01*
X155448000Y-84328000D01*
X155448000Y-84308000D01*
X155702000Y-84308000D01*
X155702000Y-84328000D01*
X156895155Y-84328000D01*
X157016476Y-84098110D01*
X156971825Y-83950901D01*
X156846641Y-83688080D01*
X156672588Y-83454731D01*
X156456355Y-83259822D01*
X156206252Y-83110843D01*
X156038202Y-83051231D01*
X156156202Y-83002353D01*
X156357167Y-82868073D01*
X156528073Y-82697167D01*
X156662353Y-82496202D01*
X156754847Y-82272903D01*
X156802000Y-82035849D01*
X156802000Y-81794151D01*
X156754847Y-81557097D01*
X156662353Y-81333798D01*
X156528073Y-81132833D01*
X156357167Y-80961927D01*
X156156202Y-80827647D01*
X155932903Y-80735153D01*
X155695849Y-80688000D01*
X155454151Y-80688000D01*
X155217097Y-80735153D01*
X154993798Y-80827647D01*
X154792833Y-80961927D01*
X154621927Y-81132833D01*
X154487647Y-81333798D01*
X154395153Y-81557097D01*
X154348000Y-81794151D01*
X154348000Y-82035849D01*
X154395153Y-82272903D01*
X154487647Y-82496202D01*
X154621927Y-82697167D01*
X154792833Y-82868073D01*
X154993798Y-83002353D01*
X155111798Y-83051231D01*
X154943748Y-83110843D01*
X154693645Y-83259822D01*
X154477412Y-83454731D01*
X154305000Y-83685880D01*
X154132588Y-83454731D01*
X153916355Y-83259822D01*
X153666252Y-83110843D01*
X153498202Y-83051231D01*
X153616202Y-83002353D01*
X153817167Y-82868073D01*
X153988073Y-82697167D01*
X154122353Y-82496202D01*
X154214847Y-82272903D01*
X154262000Y-82035849D01*
X154262000Y-81794151D01*
X154214847Y-81557097D01*
X154122353Y-81333798D01*
X153988073Y-81132833D01*
X153817167Y-80961927D01*
X153616202Y-80827647D01*
X153392903Y-80735153D01*
X153155849Y-80688000D01*
X152914151Y-80688000D01*
X152677097Y-80735153D01*
X152453798Y-80827647D01*
X152252833Y-80961927D01*
X152081927Y-81132833D01*
X151947647Y-81333798D01*
X151855153Y-81557097D01*
X151808000Y-81794151D01*
X151808000Y-82035849D01*
X151855153Y-82272903D01*
X151947647Y-82496202D01*
X152081927Y-82697167D01*
X152252833Y-82868073D01*
X152453798Y-83002353D01*
X152571798Y-83051231D01*
X152403748Y-83110843D01*
X152153645Y-83259822D01*
X151937412Y-83454731D01*
X151763359Y-83688080D01*
X151638175Y-83950901D01*
X151593524Y-84098110D01*
X118916476Y-84098110D01*
X118871825Y-83950901D01*
X118746641Y-83688080D01*
X118572588Y-83454731D01*
X118356355Y-83259822D01*
X118106252Y-83110843D01*
X117938202Y-83051231D01*
X118056202Y-83002353D01*
X118257167Y-82868073D01*
X118428073Y-82697167D01*
X118562353Y-82496202D01*
X118654847Y-82272903D01*
X118702000Y-82035849D01*
X118702000Y-81794151D01*
X118654847Y-81557097D01*
X118562353Y-81333798D01*
X118428073Y-81132833D01*
X118257167Y-80961927D01*
X118056202Y-80827647D01*
X117832903Y-80735153D01*
X117595849Y-80688000D01*
X117354151Y-80688000D01*
X117117097Y-80735153D01*
X116893798Y-80827647D01*
X116692833Y-80961927D01*
X116521927Y-81132833D01*
X116387647Y-81333798D01*
X116295153Y-81557097D01*
X116248000Y-81794151D01*
X116248000Y-82035849D01*
X116295153Y-82272903D01*
X116387647Y-82496202D01*
X116521927Y-82697167D01*
X116692833Y-82868073D01*
X116893798Y-83002353D01*
X117011798Y-83051231D01*
X116843748Y-83110843D01*
X116593645Y-83259822D01*
X116377412Y-83454731D01*
X116205000Y-83685880D01*
X116032588Y-83454731D01*
X115816355Y-83259822D01*
X115566252Y-83110843D01*
X115398202Y-83051231D01*
X115516202Y-83002353D01*
X115717167Y-82868073D01*
X115888073Y-82697167D01*
X116022353Y-82496202D01*
X116114847Y-82272903D01*
X116162000Y-82035849D01*
X116162000Y-81794151D01*
X116114847Y-81557097D01*
X116022353Y-81333798D01*
X115888073Y-81132833D01*
X115717167Y-80961927D01*
X115516202Y-80827647D01*
X115292903Y-80735153D01*
X115055849Y-80688000D01*
X114814151Y-80688000D01*
X114577097Y-80735153D01*
X114353798Y-80827647D01*
X114152833Y-80961927D01*
X113981927Y-81132833D01*
X113847647Y-81333798D01*
X113755153Y-81557097D01*
X113708000Y-81794151D01*
X113708000Y-82035849D01*
X113755153Y-82272903D01*
X113847647Y-82496202D01*
X113981927Y-82697167D01*
X114152833Y-82868073D01*
X114353798Y-83002353D01*
X114471798Y-83051231D01*
X114303748Y-83110843D01*
X114053645Y-83259822D01*
X113837412Y-83454731D01*
X113663359Y-83688080D01*
X113538175Y-83950901D01*
X113493524Y-84098110D01*
X102706000Y-84098110D01*
X102706000Y-78525000D01*
X113706176Y-78525000D01*
X113706176Y-80225000D01*
X113713455Y-80298905D01*
X113735012Y-80369970D01*
X113770019Y-80435463D01*
X113817131Y-80492869D01*
X113874537Y-80539981D01*
X113940030Y-80574988D01*
X114011095Y-80596545D01*
X114085000Y-80603824D01*
X115785000Y-80603824D01*
X115858905Y-80596545D01*
X115929970Y-80574988D01*
X115995463Y-80539981D01*
X116052869Y-80492869D01*
X116099981Y-80435463D01*
X116134988Y-80369970D01*
X116156545Y-80298905D01*
X116163824Y-80225000D01*
X116163824Y-79254151D01*
X116248000Y-79254151D01*
X116248000Y-79495849D01*
X116295153Y-79732903D01*
X116387647Y-79956202D01*
X116521927Y-80157167D01*
X116692833Y-80328073D01*
X116893798Y-80462353D01*
X117117097Y-80554847D01*
X117354151Y-80602000D01*
X117595849Y-80602000D01*
X117832903Y-80554847D01*
X118056202Y-80462353D01*
X118257167Y-80328073D01*
X118428073Y-80157167D01*
X118562353Y-79956202D01*
X118654847Y-79732903D01*
X118702000Y-79495849D01*
X118702000Y-79254151D01*
X118654847Y-79017097D01*
X118562353Y-78793798D01*
X118428073Y-78592833D01*
X118257167Y-78421927D01*
X118056202Y-78287647D01*
X117832903Y-78195153D01*
X117595849Y-78148000D01*
X117354151Y-78148000D01*
X117117097Y-78195153D01*
X116893798Y-78287647D01*
X116692833Y-78421927D01*
X116521927Y-78592833D01*
X116387647Y-78793798D01*
X116295153Y-79017097D01*
X116248000Y-79254151D01*
X116163824Y-79254151D01*
X116163824Y-78525000D01*
X116156545Y-78451095D01*
X116134988Y-78380030D01*
X116099981Y-78314537D01*
X116052869Y-78257131D01*
X115995463Y-78210019D01*
X115929970Y-78175012D01*
X115858905Y-78153455D01*
X115785000Y-78146176D01*
X114085000Y-78146176D01*
X114011095Y-78153455D01*
X113940030Y-78175012D01*
X113874537Y-78210019D01*
X113817131Y-78257131D01*
X113770019Y-78314537D01*
X113735012Y-78380030D01*
X113713455Y-78451095D01*
X113706176Y-78525000D01*
X102706000Y-78525000D01*
X102706000Y-76885472D01*
X129017000Y-76885472D01*
X129017000Y-77038528D01*
X129046859Y-77188643D01*
X129105431Y-77330048D01*
X129190464Y-77457309D01*
X129298691Y-77565536D01*
X129425952Y-77650569D01*
X129567357Y-77709141D01*
X129717472Y-77739000D01*
X129870528Y-77739000D01*
X130020643Y-77709141D01*
X130162048Y-77650569D01*
X130289309Y-77565536D01*
X130390845Y-77464000D01*
X132212225Y-77464000D01*
X132107357Y-77484859D01*
X131965952Y-77543431D01*
X131838691Y-77628464D01*
X131730464Y-77736691D01*
X131645431Y-77863952D01*
X131586859Y-78005357D01*
X131557000Y-78155472D01*
X131557000Y-78308528D01*
X131586859Y-78458643D01*
X131645431Y-78600048D01*
X131730464Y-78727309D01*
X131749155Y-78746000D01*
X130390845Y-78746000D01*
X130289309Y-78644464D01*
X130162048Y-78559431D01*
X130020643Y-78500859D01*
X129870528Y-78471000D01*
X129717472Y-78471000D01*
X129567357Y-78500859D01*
X129425952Y-78559431D01*
X129298691Y-78644464D01*
X129190464Y-78752691D01*
X129105431Y-78879952D01*
X129046859Y-79021357D01*
X129017000Y-79171472D01*
X129017000Y-79324528D01*
X129046859Y-79474643D01*
X129105431Y-79616048D01*
X129190464Y-79743309D01*
X129298691Y-79851536D01*
X129425952Y-79936569D01*
X129567357Y-79995141D01*
X129717472Y-80025000D01*
X129870528Y-80025000D01*
X130020643Y-79995141D01*
X130162048Y-79936569D01*
X130289309Y-79851536D01*
X130390845Y-79750000D01*
X131749155Y-79750000D01*
X131730464Y-79768691D01*
X131645431Y-79895952D01*
X131586859Y-80037357D01*
X131557000Y-80187472D01*
X131557000Y-80340528D01*
X131586859Y-80490643D01*
X131645431Y-80632048D01*
X131730464Y-80759309D01*
X131838691Y-80867536D01*
X131965952Y-80952569D01*
X132107357Y-81011141D01*
X132257472Y-81041000D01*
X132410528Y-81041000D01*
X132560643Y-81011141D01*
X132702048Y-80952569D01*
X132829309Y-80867536D01*
X132930845Y-80766000D01*
X148011357Y-80766000D01*
X148036000Y-80768427D01*
X148060643Y-80766000D01*
X148060653Y-80766000D01*
X148134409Y-80758736D01*
X148229036Y-80730031D01*
X148316245Y-80683417D01*
X148392684Y-80620684D01*
X148408401Y-80601533D01*
X149547543Y-79462393D01*
X149566684Y-79446684D01*
X149582392Y-79427544D01*
X149582400Y-79427536D01*
X149629417Y-79370246D01*
X149676030Y-79283037D01*
X149676031Y-79283036D01*
X149704736Y-79188409D01*
X149712000Y-79114653D01*
X149712000Y-79114643D01*
X149714427Y-79090000D01*
X149712000Y-79065357D01*
X149712000Y-78686845D01*
X149813536Y-78585309D01*
X149853833Y-78525000D01*
X151806176Y-78525000D01*
X151806176Y-80225000D01*
X151813455Y-80298905D01*
X151835012Y-80369970D01*
X151870019Y-80435463D01*
X151917131Y-80492869D01*
X151974537Y-80539981D01*
X152040030Y-80574988D01*
X152111095Y-80596545D01*
X152185000Y-80603824D01*
X153885000Y-80603824D01*
X153958905Y-80596545D01*
X154029970Y-80574988D01*
X154095463Y-80539981D01*
X154152869Y-80492869D01*
X154199981Y-80435463D01*
X154234988Y-80369970D01*
X154256545Y-80298905D01*
X154263824Y-80225000D01*
X154263824Y-79254151D01*
X154348000Y-79254151D01*
X154348000Y-79495849D01*
X154395153Y-79732903D01*
X154487647Y-79956202D01*
X154621927Y-80157167D01*
X154792833Y-80328073D01*
X154993798Y-80462353D01*
X155217097Y-80554847D01*
X155454151Y-80602000D01*
X155695849Y-80602000D01*
X155932903Y-80554847D01*
X156156202Y-80462353D01*
X156357167Y-80328073D01*
X156528073Y-80157167D01*
X156662353Y-79956202D01*
X156754847Y-79732903D01*
X156802000Y-79495849D01*
X156802000Y-79254151D01*
X156754847Y-79017097D01*
X156662353Y-78793798D01*
X156528073Y-78592833D01*
X156357167Y-78421927D01*
X156156202Y-78287647D01*
X155932903Y-78195153D01*
X155695849Y-78148000D01*
X155454151Y-78148000D01*
X155217097Y-78195153D01*
X154993798Y-78287647D01*
X154792833Y-78421927D01*
X154621927Y-78592833D01*
X154487647Y-78793798D01*
X154395153Y-79017097D01*
X154348000Y-79254151D01*
X154263824Y-79254151D01*
X154263824Y-78525000D01*
X154256545Y-78451095D01*
X154234988Y-78380030D01*
X154199981Y-78314537D01*
X154152869Y-78257131D01*
X154095463Y-78210019D01*
X154029970Y-78175012D01*
X153958905Y-78153455D01*
X153885000Y-78146176D01*
X152185000Y-78146176D01*
X152111095Y-78153455D01*
X152040030Y-78175012D01*
X151974537Y-78210019D01*
X151917131Y-78257131D01*
X151870019Y-78314537D01*
X151835012Y-78380030D01*
X151813455Y-78451095D01*
X151806176Y-78525000D01*
X149853833Y-78525000D01*
X149898569Y-78458048D01*
X149957141Y-78316643D01*
X149987000Y-78166528D01*
X149987000Y-78013472D01*
X149957141Y-77863357D01*
X149898569Y-77721952D01*
X149813536Y-77594691D01*
X149705309Y-77486464D01*
X149578048Y-77401431D01*
X149436643Y-77342859D01*
X149286528Y-77313000D01*
X149133472Y-77313000D01*
X148983357Y-77342859D01*
X148841952Y-77401431D01*
X148714691Y-77486464D01*
X148606464Y-77594691D01*
X148521431Y-77721952D01*
X148462859Y-77863357D01*
X148433000Y-78013472D01*
X148433000Y-78166528D01*
X148462859Y-78316643D01*
X148521431Y-78458048D01*
X148606464Y-78585309D01*
X148708001Y-78686846D01*
X148708001Y-78882063D01*
X147828066Y-79762000D01*
X132930845Y-79762000D01*
X132918845Y-79750000D01*
X146427357Y-79750000D01*
X146452000Y-79752427D01*
X146476643Y-79750000D01*
X146476653Y-79750000D01*
X146550409Y-79742736D01*
X146645036Y-79714031D01*
X146732245Y-79667417D01*
X146808684Y-79604684D01*
X146824401Y-79585533D01*
X147911543Y-78498393D01*
X147930684Y-78482684D01*
X147946392Y-78463544D01*
X147946400Y-78463536D01*
X147993417Y-78406246D01*
X148040031Y-78319037D01*
X148068736Y-78224410D01*
X148073601Y-78175012D01*
X148076000Y-78150653D01*
X148076000Y-78150646D01*
X148078427Y-78126000D01*
X148076000Y-78101355D01*
X148076000Y-74510845D01*
X148177536Y-74409309D01*
X148262569Y-74282048D01*
X148321141Y-74140643D01*
X148351000Y-73990528D01*
X148351000Y-73837472D01*
X148321141Y-73687357D01*
X148262569Y-73545952D01*
X148177536Y-73418691D01*
X148069309Y-73310464D01*
X147942048Y-73225431D01*
X147800643Y-73166859D01*
X147650528Y-73137000D01*
X147497472Y-73137000D01*
X147347357Y-73166859D01*
X147205952Y-73225431D01*
X147078691Y-73310464D01*
X146970464Y-73418691D01*
X146885431Y-73545952D01*
X146826859Y-73687357D01*
X146802000Y-73812335D01*
X146802000Y-73407934D01*
X149273044Y-70936890D01*
X151558524Y-70936890D01*
X151603175Y-71084099D01*
X151728359Y-71346920D01*
X151902412Y-71580269D01*
X152118645Y-71775178D01*
X152368748Y-71924157D01*
X152536798Y-71983769D01*
X152418798Y-72032647D01*
X152217833Y-72166927D01*
X152046927Y-72337833D01*
X151912647Y-72538798D01*
X151820153Y-72762097D01*
X151773000Y-72999151D01*
X151773000Y-73240849D01*
X151820153Y-73477903D01*
X151912647Y-73701202D01*
X152046927Y-73902167D01*
X152217833Y-74073073D01*
X152418798Y-74207353D01*
X152642097Y-74299847D01*
X152879151Y-74347000D01*
X153120849Y-74347000D01*
X153357903Y-74299847D01*
X153581202Y-74207353D01*
X153782167Y-74073073D01*
X153953073Y-73902167D01*
X154087353Y-73701202D01*
X154179847Y-73477903D01*
X154227000Y-73240849D01*
X154227000Y-72999151D01*
X154179847Y-72762097D01*
X154087353Y-72538798D01*
X153953073Y-72337833D01*
X153782167Y-72166927D01*
X153581202Y-72032647D01*
X153463202Y-71983769D01*
X153631252Y-71924157D01*
X153881355Y-71775178D01*
X154097588Y-71580269D01*
X154270000Y-71349120D01*
X154442412Y-71580269D01*
X154658645Y-71775178D01*
X154908748Y-71924157D01*
X155076798Y-71983769D01*
X154958798Y-72032647D01*
X154757833Y-72166927D01*
X154586927Y-72337833D01*
X154452647Y-72538798D01*
X154360153Y-72762097D01*
X154313000Y-72999151D01*
X154313000Y-73240849D01*
X154360153Y-73477903D01*
X154452647Y-73701202D01*
X154586927Y-73902167D01*
X154757833Y-74073073D01*
X154958798Y-74207353D01*
X155182097Y-74299847D01*
X155419151Y-74347000D01*
X155660849Y-74347000D01*
X155897903Y-74299847D01*
X156121202Y-74207353D01*
X156322167Y-74073073D01*
X156493073Y-73902167D01*
X156627353Y-73701202D01*
X156719847Y-73477903D01*
X156767000Y-73240849D01*
X156767000Y-72999151D01*
X156719847Y-72762097D01*
X156627353Y-72538798D01*
X156493073Y-72337833D01*
X156322167Y-72166927D01*
X156121202Y-72032647D01*
X156003202Y-71983769D01*
X156171252Y-71924157D01*
X156421355Y-71775178D01*
X156637588Y-71580269D01*
X156811641Y-71346920D01*
X156936825Y-71084099D01*
X156981476Y-70936890D01*
X156860155Y-70707000D01*
X155667000Y-70707000D01*
X155667000Y-70727000D01*
X155413000Y-70727000D01*
X155413000Y-70707000D01*
X153127000Y-70707000D01*
X153127000Y-70727000D01*
X152873000Y-70727000D01*
X152873000Y-70707000D01*
X151679845Y-70707000D01*
X151558524Y-70936890D01*
X149273044Y-70936890D01*
X149435538Y-70774397D01*
X149454684Y-70758684D01*
X149470397Y-70739538D01*
X149470400Y-70739535D01*
X149517417Y-70682246D01*
X149564031Y-70595037D01*
X149592736Y-70500410D01*
X149597479Y-70452246D01*
X149600000Y-70426653D01*
X149600000Y-70426646D01*
X149602427Y-70402000D01*
X149600000Y-70377355D01*
X149600000Y-70223110D01*
X151558524Y-70223110D01*
X151679845Y-70453000D01*
X152873000Y-70453000D01*
X152873000Y-70433000D01*
X153127000Y-70433000D01*
X153127000Y-70453000D01*
X155413000Y-70453000D01*
X155413000Y-70433000D01*
X155667000Y-70433000D01*
X155667000Y-70453000D01*
X156860155Y-70453000D01*
X156981476Y-70223110D01*
X156936825Y-70075901D01*
X156811641Y-69813080D01*
X156637588Y-69579731D01*
X156421355Y-69384822D01*
X156171252Y-69235843D01*
X156003202Y-69176231D01*
X156121202Y-69127353D01*
X156322167Y-68993073D01*
X156493073Y-68822167D01*
X156627353Y-68621202D01*
X156719847Y-68397903D01*
X156767000Y-68160849D01*
X156767000Y-67919151D01*
X156719847Y-67682097D01*
X156627353Y-67458798D01*
X156493073Y-67257833D01*
X156322167Y-67086927D01*
X156121202Y-66952647D01*
X155897903Y-66860153D01*
X155660849Y-66813000D01*
X155419151Y-66813000D01*
X155182097Y-66860153D01*
X154958798Y-66952647D01*
X154757833Y-67086927D01*
X154586927Y-67257833D01*
X154452647Y-67458798D01*
X154360153Y-67682097D01*
X154313000Y-67919151D01*
X154313000Y-68160849D01*
X154360153Y-68397903D01*
X154452647Y-68621202D01*
X154586927Y-68822167D01*
X154757833Y-68993073D01*
X154958798Y-69127353D01*
X155076798Y-69176231D01*
X154908748Y-69235843D01*
X154658645Y-69384822D01*
X154442412Y-69579731D01*
X154270000Y-69810880D01*
X154097588Y-69579731D01*
X153881355Y-69384822D01*
X153631252Y-69235843D01*
X153463202Y-69176231D01*
X153581202Y-69127353D01*
X153782167Y-68993073D01*
X153953073Y-68822167D01*
X154087353Y-68621202D01*
X154179847Y-68397903D01*
X154227000Y-68160849D01*
X154227000Y-67919151D01*
X154179847Y-67682097D01*
X154087353Y-67458798D01*
X153953073Y-67257833D01*
X153782167Y-67086927D01*
X153581202Y-66952647D01*
X153357903Y-66860153D01*
X153120849Y-66813000D01*
X152879151Y-66813000D01*
X152642097Y-66860153D01*
X152418798Y-66952647D01*
X152217833Y-67086927D01*
X152046927Y-67257833D01*
X151912647Y-67458798D01*
X151820153Y-67682097D01*
X151773000Y-67919151D01*
X151773000Y-68160849D01*
X151820153Y-68397903D01*
X151912647Y-68621202D01*
X152046927Y-68822167D01*
X152217833Y-68993073D01*
X152418798Y-69127353D01*
X152536798Y-69176231D01*
X152368748Y-69235843D01*
X152118645Y-69384822D01*
X151902412Y-69579731D01*
X151728359Y-69813080D01*
X151603175Y-70075901D01*
X151558524Y-70223110D01*
X149600000Y-70223110D01*
X149600000Y-64650000D01*
X151771176Y-64650000D01*
X151771176Y-66350000D01*
X151778455Y-66423905D01*
X151800012Y-66494970D01*
X151835019Y-66560463D01*
X151882131Y-66617869D01*
X151939537Y-66664981D01*
X152005030Y-66699988D01*
X152076095Y-66721545D01*
X152150000Y-66728824D01*
X153850000Y-66728824D01*
X153923905Y-66721545D01*
X153994970Y-66699988D01*
X154060463Y-66664981D01*
X154117869Y-66617869D01*
X154164981Y-66560463D01*
X154199988Y-66494970D01*
X154221545Y-66423905D01*
X154228824Y-66350000D01*
X154228824Y-65379151D01*
X154313000Y-65379151D01*
X154313000Y-65620849D01*
X154360153Y-65857903D01*
X154452647Y-66081202D01*
X154586927Y-66282167D01*
X154757833Y-66453073D01*
X154958798Y-66587353D01*
X155182097Y-66679847D01*
X155419151Y-66727000D01*
X155660849Y-66727000D01*
X155897903Y-66679847D01*
X156121202Y-66587353D01*
X156322167Y-66453073D01*
X156493073Y-66282167D01*
X156627353Y-66081202D01*
X156719847Y-65857903D01*
X156767000Y-65620849D01*
X156767000Y-65379151D01*
X156719847Y-65142097D01*
X156627353Y-64918798D01*
X156493073Y-64717833D01*
X156322167Y-64546927D01*
X156121202Y-64412647D01*
X155897903Y-64320153D01*
X155660849Y-64273000D01*
X155419151Y-64273000D01*
X155182097Y-64320153D01*
X154958798Y-64412647D01*
X154757833Y-64546927D01*
X154586927Y-64717833D01*
X154452647Y-64918798D01*
X154360153Y-65142097D01*
X154313000Y-65379151D01*
X154228824Y-65379151D01*
X154228824Y-64650000D01*
X154221545Y-64576095D01*
X154199988Y-64505030D01*
X154164981Y-64439537D01*
X154117869Y-64382131D01*
X154060463Y-64335019D01*
X153994970Y-64300012D01*
X153923905Y-64278455D01*
X153850000Y-64271176D01*
X152150000Y-64271176D01*
X152076095Y-64278455D01*
X152005030Y-64300012D01*
X151939537Y-64335019D01*
X151882131Y-64382131D01*
X151835019Y-64439537D01*
X151800012Y-64505030D01*
X151778455Y-64576095D01*
X151771176Y-64650000D01*
X149600000Y-64650000D01*
X149600000Y-58119934D01*
X150848044Y-56871890D01*
X151593524Y-56871890D01*
X151638175Y-57019099D01*
X151763359Y-57281920D01*
X151937412Y-57515269D01*
X152153645Y-57710178D01*
X152403748Y-57859157D01*
X152571798Y-57918769D01*
X152453798Y-57967647D01*
X152252833Y-58101927D01*
X152081927Y-58272833D01*
X151947647Y-58473798D01*
X151855153Y-58697097D01*
X151808000Y-58934151D01*
X151808000Y-59175849D01*
X151855153Y-59412903D01*
X151947647Y-59636202D01*
X152081927Y-59837167D01*
X152252833Y-60008073D01*
X152453798Y-60142353D01*
X152677097Y-60234847D01*
X152914151Y-60282000D01*
X153155849Y-60282000D01*
X153392903Y-60234847D01*
X153616202Y-60142353D01*
X153817167Y-60008073D01*
X153988073Y-59837167D01*
X154122353Y-59636202D01*
X154214847Y-59412903D01*
X154262000Y-59175849D01*
X154262000Y-58934151D01*
X154214847Y-58697097D01*
X154122353Y-58473798D01*
X153988073Y-58272833D01*
X153817167Y-58101927D01*
X153616202Y-57967647D01*
X153498202Y-57918769D01*
X153666252Y-57859157D01*
X153916355Y-57710178D01*
X154132588Y-57515269D01*
X154305000Y-57284120D01*
X154477412Y-57515269D01*
X154693645Y-57710178D01*
X154943748Y-57859157D01*
X155111798Y-57918769D01*
X154993798Y-57967647D01*
X154792833Y-58101927D01*
X154621927Y-58272833D01*
X154487647Y-58473798D01*
X154395153Y-58697097D01*
X154348000Y-58934151D01*
X154348000Y-59175849D01*
X154395153Y-59412903D01*
X154487647Y-59636202D01*
X154621927Y-59837167D01*
X154792833Y-60008073D01*
X154993798Y-60142353D01*
X155217097Y-60234847D01*
X155454151Y-60282000D01*
X155695849Y-60282000D01*
X155932903Y-60234847D01*
X156156202Y-60142353D01*
X156357167Y-60008073D01*
X156528073Y-59837167D01*
X156662353Y-59636202D01*
X156754847Y-59412903D01*
X156802000Y-59175849D01*
X156802000Y-58934151D01*
X156754847Y-58697097D01*
X156662353Y-58473798D01*
X156528073Y-58272833D01*
X156357167Y-58101927D01*
X156156202Y-57967647D01*
X156038202Y-57918769D01*
X156206252Y-57859157D01*
X156456355Y-57710178D01*
X156672588Y-57515269D01*
X156846641Y-57281920D01*
X156971825Y-57019099D01*
X157016476Y-56871890D01*
X156895155Y-56642000D01*
X155702000Y-56642000D01*
X155702000Y-56662000D01*
X155448000Y-56662000D01*
X155448000Y-56642000D01*
X153162000Y-56642000D01*
X153162000Y-56662000D01*
X152908000Y-56662000D01*
X152908000Y-56642000D01*
X151714845Y-56642000D01*
X151593524Y-56871890D01*
X150848044Y-56871890D01*
X151607325Y-56112610D01*
X151593524Y-56158110D01*
X151714845Y-56388000D01*
X152908000Y-56388000D01*
X152908000Y-56368000D01*
X153162000Y-56368000D01*
X153162000Y-56388000D01*
X155448000Y-56388000D01*
X155448000Y-56368000D01*
X155702000Y-56368000D01*
X155702000Y-56388000D01*
X156895155Y-56388000D01*
X157016476Y-56158110D01*
X156971825Y-56010901D01*
X156846641Y-55748080D01*
X156672588Y-55514731D01*
X156456355Y-55319822D01*
X156206252Y-55170843D01*
X156038202Y-55111231D01*
X156156202Y-55062353D01*
X156357167Y-54928073D01*
X156528073Y-54757167D01*
X156662353Y-54556202D01*
X156754847Y-54332903D01*
X156802000Y-54095849D01*
X156802000Y-53854151D01*
X156754847Y-53617097D01*
X156662353Y-53393798D01*
X156528073Y-53192833D01*
X156357167Y-53021927D01*
X156156202Y-52887647D01*
X155932903Y-52795153D01*
X155695849Y-52748000D01*
X155454151Y-52748000D01*
X155217097Y-52795153D01*
X154993798Y-52887647D01*
X154792833Y-53021927D01*
X154621927Y-53192833D01*
X154487647Y-53393798D01*
X154395153Y-53617097D01*
X154348000Y-53854151D01*
X154348000Y-54095849D01*
X154395153Y-54332903D01*
X154487647Y-54556202D01*
X154621927Y-54757167D01*
X154792833Y-54928073D01*
X154993798Y-55062353D01*
X155111798Y-55111231D01*
X154943748Y-55170843D01*
X154693645Y-55319822D01*
X154477412Y-55514731D01*
X154305000Y-55745880D01*
X154132588Y-55514731D01*
X153916355Y-55319822D01*
X153666252Y-55170843D01*
X153498202Y-55111231D01*
X153616202Y-55062353D01*
X153817167Y-54928073D01*
X153988073Y-54757167D01*
X154122353Y-54556202D01*
X154214847Y-54332903D01*
X154262000Y-54095849D01*
X154262000Y-53854151D01*
X154214847Y-53617097D01*
X154122353Y-53393798D01*
X153988073Y-53192833D01*
X153817167Y-53021927D01*
X153616202Y-52887647D01*
X153392903Y-52795153D01*
X153155849Y-52748000D01*
X152914151Y-52748000D01*
X152677097Y-52795153D01*
X152453798Y-52887647D01*
X152252833Y-53021927D01*
X152081927Y-53192833D01*
X151947647Y-53393798D01*
X151855153Y-53617097D01*
X151808000Y-53854151D01*
X151808000Y-54095849D01*
X151855153Y-54332903D01*
X151887960Y-54412105D01*
X148760463Y-57539603D01*
X148741317Y-57555316D01*
X148725604Y-57574462D01*
X148725601Y-57574465D01*
X148678584Y-57631755D01*
X148631970Y-57718964D01*
X148603265Y-57813591D01*
X148593573Y-57912000D01*
X148596001Y-57936653D01*
X148596000Y-70194065D01*
X145962463Y-72827603D01*
X145943317Y-72843316D01*
X145927604Y-72862462D01*
X145927601Y-72862465D01*
X145880584Y-72919755D01*
X145833970Y-73006964D01*
X145805265Y-73101591D01*
X145802000Y-73134743D01*
X145802000Y-72907934D01*
X148165538Y-70544397D01*
X148184684Y-70528684D01*
X148207889Y-70500410D01*
X148247416Y-70452246D01*
X148261096Y-70426653D01*
X148294031Y-70365036D01*
X148322736Y-70270409D01*
X148330000Y-70196653D01*
X148330000Y-70196643D01*
X148332427Y-70172000D01*
X148330000Y-70147357D01*
X148330000Y-55833934D01*
X151812700Y-52351235D01*
X151813455Y-52358905D01*
X151835012Y-52429970D01*
X151870019Y-52495463D01*
X151917131Y-52552869D01*
X151974537Y-52599981D01*
X152040030Y-52634988D01*
X152111095Y-52656545D01*
X152185000Y-52663824D01*
X153885000Y-52663824D01*
X153958905Y-52656545D01*
X154029970Y-52634988D01*
X154095463Y-52599981D01*
X154152869Y-52552869D01*
X154199981Y-52495463D01*
X154234988Y-52429970D01*
X154256545Y-52358905D01*
X154263824Y-52285000D01*
X154263824Y-51314151D01*
X154348000Y-51314151D01*
X154348000Y-51555849D01*
X154395153Y-51792903D01*
X154487647Y-52016202D01*
X154621927Y-52217167D01*
X154792833Y-52388073D01*
X154993798Y-52522353D01*
X155217097Y-52614847D01*
X155454151Y-52662000D01*
X155695849Y-52662000D01*
X155932903Y-52614847D01*
X156156202Y-52522353D01*
X156357167Y-52388073D01*
X156528073Y-52217167D01*
X156662353Y-52016202D01*
X156754847Y-51792903D01*
X156802000Y-51555849D01*
X156802000Y-51314151D01*
X156754847Y-51077097D01*
X156662353Y-50853798D01*
X156528073Y-50652833D01*
X156357167Y-50481927D01*
X156156202Y-50347647D01*
X155932903Y-50255153D01*
X155695849Y-50208000D01*
X155454151Y-50208000D01*
X155217097Y-50255153D01*
X154993798Y-50347647D01*
X154792833Y-50481927D01*
X154621927Y-50652833D01*
X154487647Y-50853798D01*
X154395153Y-51077097D01*
X154348000Y-51314151D01*
X154263824Y-51314151D01*
X154263824Y-50585000D01*
X154256545Y-50511095D01*
X154234988Y-50440030D01*
X154199981Y-50374537D01*
X154152869Y-50317131D01*
X154095463Y-50270019D01*
X154029970Y-50235012D01*
X153958905Y-50213455D01*
X153885000Y-50206176D01*
X152185000Y-50206176D01*
X152111095Y-50213455D01*
X152040030Y-50235012D01*
X151974537Y-50270019D01*
X151917131Y-50317131D01*
X151870019Y-50374537D01*
X151835012Y-50440030D01*
X151813455Y-50511095D01*
X151806176Y-50585000D01*
X151806176Y-50979546D01*
X151738755Y-51015583D01*
X151662316Y-51078316D01*
X151646603Y-51097462D01*
X147490468Y-55253598D01*
X147471316Y-55269316D01*
X147408583Y-55345755D01*
X147361969Y-55432965D01*
X147333264Y-55527592D01*
X147326000Y-55601348D01*
X147326000Y-55601357D01*
X147323573Y-55626000D01*
X147326000Y-55650643D01*
X147326001Y-69964064D01*
X144962468Y-72327598D01*
X144943316Y-72343316D01*
X144880583Y-72419755D01*
X144833969Y-72506965D01*
X144805264Y-72601592D01*
X144798000Y-72675348D01*
X144798000Y-72675357D01*
X144795573Y-72700000D01*
X144798000Y-72724643D01*
X144798001Y-75592064D01*
X143930066Y-76460000D01*
X130390845Y-76460000D01*
X130289309Y-76358464D01*
X130162048Y-76273431D01*
X130020643Y-76214859D01*
X129870528Y-76185000D01*
X129717472Y-76185000D01*
X129567357Y-76214859D01*
X129425952Y-76273431D01*
X129298691Y-76358464D01*
X129190464Y-76466691D01*
X129105431Y-76593952D01*
X129046859Y-76735357D01*
X129017000Y-76885472D01*
X102706000Y-76885472D01*
X102706000Y-70841890D01*
X113493524Y-70841890D01*
X113538175Y-70989099D01*
X113663359Y-71251920D01*
X113837412Y-71485269D01*
X114053645Y-71680178D01*
X114303748Y-71829157D01*
X114471798Y-71888769D01*
X114353798Y-71937647D01*
X114152833Y-72071927D01*
X113981927Y-72242833D01*
X113847647Y-72443798D01*
X113755153Y-72667097D01*
X113708000Y-72904151D01*
X113708000Y-73145849D01*
X113755153Y-73382903D01*
X113847647Y-73606202D01*
X113981927Y-73807167D01*
X114152833Y-73978073D01*
X114353798Y-74112353D01*
X114577097Y-74204847D01*
X114814151Y-74252000D01*
X115055849Y-74252000D01*
X115292903Y-74204847D01*
X115516202Y-74112353D01*
X115717167Y-73978073D01*
X115888073Y-73807167D01*
X116022353Y-73606202D01*
X116114847Y-73382903D01*
X116162000Y-73145849D01*
X116162000Y-72904151D01*
X116114847Y-72667097D01*
X116022353Y-72443798D01*
X115888073Y-72242833D01*
X115717167Y-72071927D01*
X115516202Y-71937647D01*
X115398202Y-71888769D01*
X115566252Y-71829157D01*
X115816355Y-71680178D01*
X116032588Y-71485269D01*
X116205000Y-71254120D01*
X116377412Y-71485269D01*
X116593645Y-71680178D01*
X116843748Y-71829157D01*
X117011798Y-71888769D01*
X116893798Y-71937647D01*
X116692833Y-72071927D01*
X116521927Y-72242833D01*
X116387647Y-72443798D01*
X116295153Y-72667097D01*
X116248000Y-72904151D01*
X116248000Y-73145849D01*
X116295153Y-73382903D01*
X116387647Y-73606202D01*
X116521927Y-73807167D01*
X116692833Y-73978073D01*
X116893798Y-74112353D01*
X117117097Y-74204847D01*
X117354151Y-74252000D01*
X117595849Y-74252000D01*
X117832903Y-74204847D01*
X118056202Y-74112353D01*
X118257167Y-73978073D01*
X118428073Y-73807167D01*
X118562353Y-73606202D01*
X118654847Y-73382903D01*
X118702000Y-73145849D01*
X118702000Y-72904151D01*
X118654847Y-72667097D01*
X118562353Y-72443798D01*
X118428073Y-72242833D01*
X118257167Y-72071927D01*
X118056202Y-71937647D01*
X117938202Y-71888769D01*
X118106252Y-71829157D01*
X118356355Y-71680178D01*
X118572588Y-71485269D01*
X118746641Y-71251920D01*
X118871825Y-70989099D01*
X118916476Y-70841890D01*
X118795155Y-70612000D01*
X117602000Y-70612000D01*
X117602000Y-70632000D01*
X117348000Y-70632000D01*
X117348000Y-70612000D01*
X115062000Y-70612000D01*
X115062000Y-70632000D01*
X114808000Y-70632000D01*
X114808000Y-70612000D01*
X113614845Y-70612000D01*
X113493524Y-70841890D01*
X102706000Y-70841890D01*
X102706000Y-70128110D01*
X113493524Y-70128110D01*
X113614845Y-70358000D01*
X114808000Y-70358000D01*
X114808000Y-70338000D01*
X115062000Y-70338000D01*
X115062000Y-70358000D01*
X117348000Y-70358000D01*
X117348000Y-70338000D01*
X117602000Y-70338000D01*
X117602000Y-70358000D01*
X118795155Y-70358000D01*
X118916476Y-70128110D01*
X118871825Y-69980901D01*
X118746641Y-69718080D01*
X118572588Y-69484731D01*
X118356355Y-69289822D01*
X118106252Y-69140843D01*
X117938202Y-69081231D01*
X118056202Y-69032353D01*
X118257167Y-68898073D01*
X118428073Y-68727167D01*
X118562353Y-68526202D01*
X118654847Y-68302903D01*
X118702000Y-68065849D01*
X118702000Y-67824151D01*
X118654847Y-67587097D01*
X118562353Y-67363798D01*
X118428073Y-67162833D01*
X118257167Y-66991927D01*
X118056202Y-66857647D01*
X117832903Y-66765153D01*
X117633414Y-66725472D01*
X125207000Y-66725472D01*
X125207000Y-66878528D01*
X125236859Y-67028643D01*
X125295431Y-67170048D01*
X125380464Y-67297309D01*
X125488691Y-67405536D01*
X125615952Y-67490569D01*
X125757357Y-67549141D01*
X125907472Y-67579000D01*
X126060528Y-67579000D01*
X126210643Y-67549141D01*
X126352048Y-67490569D01*
X126479309Y-67405536D01*
X126587536Y-67297309D01*
X126672569Y-67170048D01*
X126731141Y-67028643D01*
X126761000Y-66878528D01*
X126761000Y-66725472D01*
X126731141Y-66575357D01*
X126672569Y-66433952D01*
X126587536Y-66306691D01*
X126479309Y-66198464D01*
X126352048Y-66113431D01*
X126210643Y-66054859D01*
X126060528Y-66025000D01*
X125907472Y-66025000D01*
X125757357Y-66054859D01*
X125615952Y-66113431D01*
X125488691Y-66198464D01*
X125380464Y-66306691D01*
X125295431Y-66433952D01*
X125236859Y-66575357D01*
X125207000Y-66725472D01*
X117633414Y-66725472D01*
X117595849Y-66718000D01*
X117354151Y-66718000D01*
X117117097Y-66765153D01*
X116893798Y-66857647D01*
X116692833Y-66991927D01*
X116521927Y-67162833D01*
X116387647Y-67363798D01*
X116295153Y-67587097D01*
X116248000Y-67824151D01*
X116248000Y-68065849D01*
X116295153Y-68302903D01*
X116387647Y-68526202D01*
X116521927Y-68727167D01*
X116692833Y-68898073D01*
X116893798Y-69032353D01*
X117011798Y-69081231D01*
X116843748Y-69140843D01*
X116593645Y-69289822D01*
X116377412Y-69484731D01*
X116205000Y-69715880D01*
X116032588Y-69484731D01*
X115816355Y-69289822D01*
X115566252Y-69140843D01*
X115398202Y-69081231D01*
X115516202Y-69032353D01*
X115717167Y-68898073D01*
X115888073Y-68727167D01*
X116022353Y-68526202D01*
X116114847Y-68302903D01*
X116162000Y-68065849D01*
X116162000Y-67824151D01*
X116114847Y-67587097D01*
X116022353Y-67363798D01*
X115888073Y-67162833D01*
X115717167Y-66991927D01*
X115516202Y-66857647D01*
X115292903Y-66765153D01*
X115055849Y-66718000D01*
X114814151Y-66718000D01*
X114577097Y-66765153D01*
X114353798Y-66857647D01*
X114152833Y-66991927D01*
X113981927Y-67162833D01*
X113847647Y-67363798D01*
X113755153Y-67587097D01*
X113708000Y-67824151D01*
X113708000Y-68065849D01*
X113755153Y-68302903D01*
X113847647Y-68526202D01*
X113981927Y-68727167D01*
X114152833Y-68898073D01*
X114353798Y-69032353D01*
X114471798Y-69081231D01*
X114303748Y-69140843D01*
X114053645Y-69289822D01*
X113837412Y-69484731D01*
X113663359Y-69718080D01*
X113538175Y-69980901D01*
X113493524Y-70128110D01*
X102706000Y-70128110D01*
X102706000Y-64555000D01*
X113706176Y-64555000D01*
X113706176Y-66255000D01*
X113713455Y-66328905D01*
X113735012Y-66399970D01*
X113770019Y-66465463D01*
X113817131Y-66522869D01*
X113874537Y-66569981D01*
X113940030Y-66604988D01*
X114011095Y-66626545D01*
X114085000Y-66633824D01*
X115785000Y-66633824D01*
X115858905Y-66626545D01*
X115929970Y-66604988D01*
X115995463Y-66569981D01*
X116052869Y-66522869D01*
X116099981Y-66465463D01*
X116134988Y-66399970D01*
X116156545Y-66328905D01*
X116163824Y-66255000D01*
X116163824Y-65284151D01*
X116248000Y-65284151D01*
X116248000Y-65525849D01*
X116295153Y-65762903D01*
X116387647Y-65986202D01*
X116521927Y-66187167D01*
X116692833Y-66358073D01*
X116893798Y-66492353D01*
X117117097Y-66584847D01*
X117354151Y-66632000D01*
X117595849Y-66632000D01*
X117832903Y-66584847D01*
X118056202Y-66492353D01*
X118257167Y-66358073D01*
X118428073Y-66187167D01*
X118562353Y-65986202D01*
X118654847Y-65762903D01*
X118702000Y-65525849D01*
X118702000Y-65284151D01*
X118654847Y-65047097D01*
X118562353Y-64823798D01*
X118428073Y-64622833D01*
X118257167Y-64451927D01*
X118056202Y-64317647D01*
X117832903Y-64225153D01*
X117595849Y-64178000D01*
X117354151Y-64178000D01*
X117117097Y-64225153D01*
X116893798Y-64317647D01*
X116692833Y-64451927D01*
X116521927Y-64622833D01*
X116387647Y-64823798D01*
X116295153Y-65047097D01*
X116248000Y-65284151D01*
X116163824Y-65284151D01*
X116163824Y-64555000D01*
X116156545Y-64481095D01*
X116134988Y-64410030D01*
X116099981Y-64344537D01*
X116052869Y-64287131D01*
X115995463Y-64240019D01*
X115929970Y-64205012D01*
X115858905Y-64183455D01*
X115785000Y-64176176D01*
X114085000Y-64176176D01*
X114011095Y-64183455D01*
X113940030Y-64205012D01*
X113874537Y-64240019D01*
X113817131Y-64287131D01*
X113770019Y-64344537D01*
X113735012Y-64410030D01*
X113713455Y-64481095D01*
X113706176Y-64555000D01*
X102706000Y-64555000D01*
X102706000Y-63296472D01*
X121270000Y-63296472D01*
X121270000Y-63449528D01*
X121299859Y-63599643D01*
X121358431Y-63741048D01*
X121443464Y-63868309D01*
X121551691Y-63976536D01*
X121678952Y-64061569D01*
X121820357Y-64120141D01*
X121970472Y-64150000D01*
X122123528Y-64150000D01*
X122273643Y-64120141D01*
X122415048Y-64061569D01*
X122542309Y-63976536D01*
X122643845Y-63875000D01*
X128165066Y-63875000D01*
X129127607Y-64837543D01*
X129143316Y-64856684D01*
X129162456Y-64872392D01*
X129162464Y-64872400D01*
X129193657Y-64898000D01*
X125380843Y-64898000D01*
X125310308Y-64827465D01*
X125183047Y-64742432D01*
X125041642Y-64683860D01*
X124891527Y-64654001D01*
X124738471Y-64654001D01*
X124588356Y-64683860D01*
X124446951Y-64742432D01*
X124319690Y-64827465D01*
X124211463Y-64935692D01*
X124126430Y-65062953D01*
X124067858Y-65204358D01*
X124037999Y-65354473D01*
X124037999Y-65507529D01*
X124067858Y-65657644D01*
X124126430Y-65799049D01*
X124211463Y-65926310D01*
X124319690Y-66034537D01*
X124446951Y-66119570D01*
X124588356Y-66178142D01*
X124738471Y-66208001D01*
X124891527Y-66208001D01*
X125041642Y-66178142D01*
X125183047Y-66119570D01*
X125310308Y-66034537D01*
X125418535Y-65926310D01*
X125434778Y-65902000D01*
X129203155Y-65902000D01*
X129304691Y-66003536D01*
X129431952Y-66088569D01*
X129573357Y-66147141D01*
X129723472Y-66177000D01*
X129876528Y-66177000D01*
X130026643Y-66147141D01*
X130168048Y-66088569D01*
X130295309Y-66003536D01*
X130403536Y-65895309D01*
X130488569Y-65768048D01*
X130547141Y-65626643D01*
X130577000Y-65476528D01*
X130577000Y-65323472D01*
X130547141Y-65173357D01*
X130488569Y-65031952D01*
X130468556Y-65002000D01*
X131703155Y-65002000D01*
X131804691Y-65103536D01*
X131931952Y-65188569D01*
X132073357Y-65247141D01*
X132223472Y-65277000D01*
X132376528Y-65277000D01*
X132526643Y-65247141D01*
X132668048Y-65188569D01*
X132795309Y-65103536D01*
X132903536Y-64995309D01*
X132988569Y-64868048D01*
X133047141Y-64726643D01*
X133077000Y-64576528D01*
X133077000Y-64423472D01*
X133047141Y-64273357D01*
X132988569Y-64131952D01*
X132903536Y-64004691D01*
X132795309Y-63896464D01*
X132668048Y-63811431D01*
X132526643Y-63752859D01*
X132376528Y-63723000D01*
X132223472Y-63723000D01*
X132073357Y-63752859D01*
X131931952Y-63811431D01*
X131804691Y-63896464D01*
X131703155Y-63998000D01*
X129707936Y-63998000D01*
X128745401Y-63035467D01*
X128729684Y-63016316D01*
X128653245Y-62953583D01*
X128566036Y-62906969D01*
X128471409Y-62878264D01*
X128397653Y-62871000D01*
X128397643Y-62871000D01*
X128373000Y-62868573D01*
X128348357Y-62871000D01*
X122643845Y-62871000D01*
X122542309Y-62769464D01*
X122415048Y-62684431D01*
X122273643Y-62625859D01*
X122123528Y-62596000D01*
X121970472Y-62596000D01*
X121820357Y-62625859D01*
X121678952Y-62684431D01*
X121551691Y-62769464D01*
X121443464Y-62877691D01*
X121358431Y-63004952D01*
X121299859Y-63146357D01*
X121270000Y-63296472D01*
X102706000Y-63296472D01*
X102706000Y-61137472D01*
X119111000Y-61137472D01*
X119111000Y-61290528D01*
X119140859Y-61440643D01*
X119199431Y-61582048D01*
X119284464Y-61709309D01*
X119392691Y-61817536D01*
X119519952Y-61902569D01*
X119661357Y-61961141D01*
X119811472Y-61991000D01*
X119964528Y-61991000D01*
X120114643Y-61961141D01*
X120256048Y-61902569D01*
X120383309Y-61817536D01*
X120484845Y-61716000D01*
X128206066Y-61716000D01*
X129023000Y-62532935D01*
X129023000Y-62676528D01*
X129052859Y-62826643D01*
X129111431Y-62968048D01*
X129196464Y-63095309D01*
X129304691Y-63203536D01*
X129431952Y-63288569D01*
X129573357Y-63347141D01*
X129723472Y-63377000D01*
X129876528Y-63377000D01*
X130026643Y-63347141D01*
X130168048Y-63288569D01*
X130295309Y-63203536D01*
X130403536Y-63095309D01*
X130488569Y-62968048D01*
X130547141Y-62826643D01*
X130577000Y-62676528D01*
X130577000Y-62523472D01*
X130547141Y-62373357D01*
X130488569Y-62231952D01*
X130403536Y-62104691D01*
X130295309Y-61996464D01*
X130168048Y-61911431D01*
X130026643Y-61852859D01*
X129876528Y-61823000D01*
X129732935Y-61823000D01*
X128786401Y-60876467D01*
X128770684Y-60857316D01*
X128694245Y-60794583D01*
X128607036Y-60747969D01*
X128512409Y-60719264D01*
X128438653Y-60712000D01*
X128438643Y-60712000D01*
X128414000Y-60709573D01*
X128389357Y-60712000D01*
X120484845Y-60712000D01*
X120383309Y-60610464D01*
X120256048Y-60525431D01*
X120114643Y-60466859D01*
X119964528Y-60437000D01*
X119811472Y-60437000D01*
X119661357Y-60466859D01*
X119519952Y-60525431D01*
X119392691Y-60610464D01*
X119284464Y-60718691D01*
X119199431Y-60845952D01*
X119140859Y-60987357D01*
X119111000Y-61137472D01*
X102706000Y-61137472D01*
X102706000Y-56871890D01*
X113493524Y-56871890D01*
X113538175Y-57019099D01*
X113663359Y-57281920D01*
X113837412Y-57515269D01*
X114053645Y-57710178D01*
X114303748Y-57859157D01*
X114471798Y-57918769D01*
X114353798Y-57967647D01*
X114152833Y-58101927D01*
X113981927Y-58272833D01*
X113847647Y-58473798D01*
X113755153Y-58697097D01*
X113708000Y-58934151D01*
X113708000Y-59175849D01*
X113755153Y-59412903D01*
X113847647Y-59636202D01*
X113981927Y-59837167D01*
X114152833Y-60008073D01*
X114353798Y-60142353D01*
X114577097Y-60234847D01*
X114814151Y-60282000D01*
X115055849Y-60282000D01*
X115292903Y-60234847D01*
X115516202Y-60142353D01*
X115717167Y-60008073D01*
X115888073Y-59837167D01*
X116022353Y-59636202D01*
X116114847Y-59412903D01*
X116162000Y-59175849D01*
X116162000Y-58934151D01*
X116114847Y-58697097D01*
X116022353Y-58473798D01*
X115888073Y-58272833D01*
X115717167Y-58101927D01*
X115516202Y-57967647D01*
X115398202Y-57918769D01*
X115566252Y-57859157D01*
X115816355Y-57710178D01*
X116032588Y-57515269D01*
X116205000Y-57284120D01*
X116377412Y-57515269D01*
X116593645Y-57710178D01*
X116843748Y-57859157D01*
X117011798Y-57918769D01*
X116893798Y-57967647D01*
X116692833Y-58101927D01*
X116521927Y-58272833D01*
X116387647Y-58473798D01*
X116295153Y-58697097D01*
X116248000Y-58934151D01*
X116248000Y-59175849D01*
X116295153Y-59412903D01*
X116387647Y-59636202D01*
X116521927Y-59837167D01*
X116692833Y-60008073D01*
X116893798Y-60142353D01*
X117117097Y-60234847D01*
X117354151Y-60282000D01*
X117595849Y-60282000D01*
X117832903Y-60234847D01*
X118056202Y-60142353D01*
X118257167Y-60008073D01*
X118428073Y-59837167D01*
X118562353Y-59636202D01*
X118654847Y-59412903D01*
X118702000Y-59175849D01*
X118702000Y-58934151D01*
X118654847Y-58697097D01*
X118562353Y-58473798D01*
X118428073Y-58272833D01*
X118257167Y-58101927D01*
X118056202Y-57967647D01*
X117938202Y-57918769D01*
X118106252Y-57859157D01*
X118356355Y-57710178D01*
X118572588Y-57515269D01*
X118746641Y-57281920D01*
X118871825Y-57019099D01*
X118916476Y-56871890D01*
X118795155Y-56642000D01*
X117602000Y-56642000D01*
X117602000Y-56662000D01*
X117348000Y-56662000D01*
X117348000Y-56642000D01*
X115062000Y-56642000D01*
X115062000Y-56662000D01*
X114808000Y-56662000D01*
X114808000Y-56642000D01*
X113614845Y-56642000D01*
X113493524Y-56871890D01*
X102706000Y-56871890D01*
X102706000Y-56158110D01*
X113493524Y-56158110D01*
X113614845Y-56388000D01*
X114808000Y-56388000D01*
X114808000Y-56368000D01*
X115062000Y-56368000D01*
X115062000Y-56388000D01*
X117348000Y-56388000D01*
X117348000Y-56368000D01*
X117602000Y-56368000D01*
X117602000Y-56388000D01*
X118795155Y-56388000D01*
X118916476Y-56158110D01*
X118871825Y-56010901D01*
X118746641Y-55748080D01*
X118572588Y-55514731D01*
X118356355Y-55319822D01*
X118106252Y-55170843D01*
X117938202Y-55111231D01*
X118056202Y-55062353D01*
X118257167Y-54928073D01*
X118428073Y-54757167D01*
X118562353Y-54556202D01*
X118654847Y-54332903D01*
X118680885Y-54202000D01*
X131703155Y-54202000D01*
X131804691Y-54303536D01*
X131931952Y-54388569D01*
X132073357Y-54447141D01*
X132223472Y-54477000D01*
X132376528Y-54477000D01*
X132526643Y-54447141D01*
X132668048Y-54388569D01*
X132795309Y-54303536D01*
X132903536Y-54195309D01*
X132988569Y-54068048D01*
X133047141Y-53926643D01*
X133077000Y-53776528D01*
X133077000Y-53623472D01*
X133047141Y-53473357D01*
X132988569Y-53331952D01*
X132903536Y-53204691D01*
X132795309Y-53096464D01*
X132668048Y-53011431D01*
X132526643Y-52952859D01*
X132376528Y-52923000D01*
X132223472Y-52923000D01*
X132073357Y-52952859D01*
X131931952Y-53011431D01*
X131804691Y-53096464D01*
X131703155Y-53198000D01*
X130400845Y-53198000D01*
X130403536Y-53195309D01*
X130488569Y-53068048D01*
X130547141Y-52926643D01*
X130577000Y-52776528D01*
X130577000Y-52623472D01*
X130547141Y-52473357D01*
X130488569Y-52331952D01*
X130403536Y-52204691D01*
X130295309Y-52096464D01*
X130168048Y-52011431D01*
X130026643Y-51952859D01*
X129876528Y-51923000D01*
X129723472Y-51923000D01*
X129573357Y-51952859D01*
X129431952Y-52011431D01*
X129304691Y-52096464D01*
X129203155Y-52198000D01*
X127207935Y-52198000D01*
X126107401Y-51097467D01*
X126091684Y-51078316D01*
X126015245Y-51015583D01*
X125928036Y-50968969D01*
X125833409Y-50940264D01*
X125759653Y-50933000D01*
X125759643Y-50933000D01*
X125735000Y-50930573D01*
X125710357Y-50933000D01*
X118595160Y-50933000D01*
X118562353Y-50853798D01*
X118428073Y-50652833D01*
X118398712Y-50623472D01*
X129023000Y-50623472D01*
X129023000Y-50776528D01*
X129052859Y-50926643D01*
X129111431Y-51068048D01*
X129196464Y-51195309D01*
X129304691Y-51303536D01*
X129431952Y-51388569D01*
X129573357Y-51447141D01*
X129723472Y-51477000D01*
X129876528Y-51477000D01*
X130026643Y-51447141D01*
X130168048Y-51388569D01*
X130295309Y-51303536D01*
X130396845Y-51202000D01*
X131699155Y-51202000D01*
X131696464Y-51204691D01*
X131611431Y-51331952D01*
X131552859Y-51473357D01*
X131523000Y-51623472D01*
X131523000Y-51776528D01*
X131552859Y-51926643D01*
X131611431Y-52068048D01*
X131696464Y-52195309D01*
X131804691Y-52303536D01*
X131931952Y-52388569D01*
X132073357Y-52447141D01*
X132223472Y-52477000D01*
X132376528Y-52477000D01*
X132526643Y-52447141D01*
X132668048Y-52388569D01*
X132795309Y-52303536D01*
X132896845Y-52202000D01*
X138210355Y-52202000D01*
X138234998Y-52204427D01*
X138259641Y-52202000D01*
X138259651Y-52202000D01*
X138333407Y-52194736D01*
X138428034Y-52166031D01*
X138515243Y-52119417D01*
X138591682Y-52056684D01*
X138607400Y-52037532D01*
X145282539Y-45362394D01*
X145301685Y-45346681D01*
X145321090Y-45323037D01*
X145348740Y-45289345D01*
X145364418Y-45270242D01*
X145411032Y-45183033D01*
X145439737Y-45088406D01*
X145447001Y-45014650D01*
X145447001Y-45014641D01*
X145449428Y-44989998D01*
X145447001Y-44965355D01*
X145447001Y-44122241D01*
X145527833Y-44203073D01*
X145728798Y-44337353D01*
X145952097Y-44429847D01*
X146189151Y-44477000D01*
X146430849Y-44477000D01*
X146667903Y-44429847D01*
X146891202Y-44337353D01*
X147092167Y-44203073D01*
X147263073Y-44032167D01*
X147397353Y-43831202D01*
X147489847Y-43607903D01*
X147537000Y-43370849D01*
X147537000Y-43129151D01*
X147623000Y-43129151D01*
X147623000Y-43370849D01*
X147670153Y-43607903D01*
X147762647Y-43831202D01*
X147896927Y-44032167D01*
X148067833Y-44203073D01*
X148268798Y-44337353D01*
X148492097Y-44429847D01*
X148729151Y-44477000D01*
X148970849Y-44477000D01*
X149207903Y-44429847D01*
X149431202Y-44337353D01*
X149632167Y-44203073D01*
X149803073Y-44032167D01*
X149937353Y-43831202D01*
X150029847Y-43607903D01*
X150077000Y-43370849D01*
X150077000Y-43129151D01*
X150163000Y-43129151D01*
X150163000Y-43370849D01*
X150210153Y-43607903D01*
X150302647Y-43831202D01*
X150436927Y-44032167D01*
X150607833Y-44203073D01*
X150808798Y-44337353D01*
X151032097Y-44429847D01*
X151269151Y-44477000D01*
X151510849Y-44477000D01*
X151747903Y-44429847D01*
X151971202Y-44337353D01*
X152172167Y-44203073D01*
X152343073Y-44032167D01*
X152477353Y-43831202D01*
X152569847Y-43607903D01*
X152617000Y-43370849D01*
X152617000Y-43129151D01*
X152703000Y-43129151D01*
X152703000Y-43370849D01*
X152750153Y-43607903D01*
X152842647Y-43831202D01*
X152976927Y-44032167D01*
X153147833Y-44203073D01*
X153348798Y-44337353D01*
X153572097Y-44429847D01*
X153809151Y-44477000D01*
X154050849Y-44477000D01*
X154287903Y-44429847D01*
X154511202Y-44337353D01*
X154712167Y-44203073D01*
X154883073Y-44032167D01*
X155017353Y-43831202D01*
X155109847Y-43607903D01*
X155157000Y-43370849D01*
X155157000Y-43129151D01*
X155243000Y-43129151D01*
X155243000Y-43370849D01*
X155290153Y-43607903D01*
X155382647Y-43831202D01*
X155516927Y-44032167D01*
X155687833Y-44203073D01*
X155888798Y-44337353D01*
X156112097Y-44429847D01*
X156349151Y-44477000D01*
X156590849Y-44477000D01*
X156827903Y-44429847D01*
X157051202Y-44337353D01*
X157252167Y-44203073D01*
X157423073Y-44032167D01*
X157557353Y-43831202D01*
X157649847Y-43607903D01*
X157697000Y-43370849D01*
X157697000Y-43129151D01*
X157783000Y-43129151D01*
X157783000Y-43370849D01*
X157830153Y-43607903D01*
X157922647Y-43831202D01*
X158056927Y-44032167D01*
X158227833Y-44203073D01*
X158428798Y-44337353D01*
X158652097Y-44429847D01*
X158889151Y-44477000D01*
X159130849Y-44477000D01*
X159367903Y-44429847D01*
X159591202Y-44337353D01*
X159792167Y-44203073D01*
X159963073Y-44032167D01*
X160097353Y-43831202D01*
X160189847Y-43607903D01*
X160237000Y-43370849D01*
X160237000Y-43129151D01*
X160189847Y-42892097D01*
X160097353Y-42668798D01*
X159963073Y-42467833D01*
X159792167Y-42296927D01*
X159591202Y-42162647D01*
X159367903Y-42070153D01*
X159130849Y-42023000D01*
X158889151Y-42023000D01*
X158652097Y-42070153D01*
X158428798Y-42162647D01*
X158227833Y-42296927D01*
X158056927Y-42467833D01*
X157922647Y-42668798D01*
X157830153Y-42892097D01*
X157783000Y-43129151D01*
X157697000Y-43129151D01*
X157649847Y-42892097D01*
X157557353Y-42668798D01*
X157423073Y-42467833D01*
X157252167Y-42296927D01*
X157051202Y-42162647D01*
X156827903Y-42070153D01*
X156590849Y-42023000D01*
X156349151Y-42023000D01*
X156112097Y-42070153D01*
X155888798Y-42162647D01*
X155687833Y-42296927D01*
X155516927Y-42467833D01*
X155382647Y-42668798D01*
X155290153Y-42892097D01*
X155243000Y-43129151D01*
X155157000Y-43129151D01*
X155109847Y-42892097D01*
X155017353Y-42668798D01*
X154883073Y-42467833D01*
X154712167Y-42296927D01*
X154511202Y-42162647D01*
X154287903Y-42070153D01*
X154050849Y-42023000D01*
X153809151Y-42023000D01*
X153572097Y-42070153D01*
X153348798Y-42162647D01*
X153147833Y-42296927D01*
X152976927Y-42467833D01*
X152842647Y-42668798D01*
X152750153Y-42892097D01*
X152703000Y-43129151D01*
X152617000Y-43129151D01*
X152569847Y-42892097D01*
X152477353Y-42668798D01*
X152343073Y-42467833D01*
X152172167Y-42296927D01*
X151971202Y-42162647D01*
X151747903Y-42070153D01*
X151510849Y-42023000D01*
X151269151Y-42023000D01*
X151032097Y-42070153D01*
X150808798Y-42162647D01*
X150607833Y-42296927D01*
X150436927Y-42467833D01*
X150302647Y-42668798D01*
X150210153Y-42892097D01*
X150163000Y-43129151D01*
X150077000Y-43129151D01*
X150029847Y-42892097D01*
X149937353Y-42668798D01*
X149803073Y-42467833D01*
X149632167Y-42296927D01*
X149431202Y-42162647D01*
X149207903Y-42070153D01*
X148970849Y-42023000D01*
X148729151Y-42023000D01*
X148492097Y-42070153D01*
X148268798Y-42162647D01*
X148067833Y-42296927D01*
X147896927Y-42467833D01*
X147762647Y-42668798D01*
X147670153Y-42892097D01*
X147623000Y-43129151D01*
X147537000Y-43129151D01*
X147489847Y-42892097D01*
X147397353Y-42668798D01*
X147263073Y-42467833D01*
X147092167Y-42296927D01*
X146891202Y-42162647D01*
X146667903Y-42070153D01*
X146430849Y-42023000D01*
X146189151Y-42023000D01*
X145952097Y-42070153D01*
X145728798Y-42162647D01*
X145527833Y-42296927D01*
X145447001Y-42377759D01*
X145447001Y-41909643D01*
X145449428Y-41885000D01*
X145447001Y-41860357D01*
X145447001Y-41860348D01*
X145439737Y-41786592D01*
X145411032Y-41691965D01*
X145364418Y-41604756D01*
X145342016Y-41577459D01*
X145317400Y-41547465D01*
X145317398Y-41547463D01*
X145301685Y-41528317D01*
X145282539Y-41512604D01*
X144917040Y-41147105D01*
X144949847Y-41067903D01*
X144997000Y-40830849D01*
X144997000Y-40589151D01*
X145083000Y-40589151D01*
X145083000Y-40830849D01*
X145130153Y-41067903D01*
X145222647Y-41291202D01*
X145356927Y-41492167D01*
X145527833Y-41663073D01*
X145728798Y-41797353D01*
X145952097Y-41889847D01*
X146189151Y-41937000D01*
X146430849Y-41937000D01*
X146667903Y-41889847D01*
X146891202Y-41797353D01*
X147092167Y-41663073D01*
X147263073Y-41492167D01*
X147397353Y-41291202D01*
X147489847Y-41067903D01*
X147537000Y-40830849D01*
X147537000Y-40589151D01*
X147623000Y-40589151D01*
X147623000Y-40830849D01*
X147670153Y-41067903D01*
X147762647Y-41291202D01*
X147896927Y-41492167D01*
X148067833Y-41663073D01*
X148268798Y-41797353D01*
X148492097Y-41889847D01*
X148729151Y-41937000D01*
X148970849Y-41937000D01*
X149207903Y-41889847D01*
X149431202Y-41797353D01*
X149632167Y-41663073D01*
X149803073Y-41492167D01*
X149937353Y-41291202D01*
X150029847Y-41067903D01*
X150077000Y-40830849D01*
X150077000Y-40589151D01*
X150163000Y-40589151D01*
X150163000Y-40830849D01*
X150210153Y-41067903D01*
X150302647Y-41291202D01*
X150436927Y-41492167D01*
X150607833Y-41663073D01*
X150808798Y-41797353D01*
X151032097Y-41889847D01*
X151269151Y-41937000D01*
X151510849Y-41937000D01*
X151747903Y-41889847D01*
X151971202Y-41797353D01*
X152172167Y-41663073D01*
X152343073Y-41492167D01*
X152477353Y-41291202D01*
X152569847Y-41067903D01*
X152617000Y-40830849D01*
X152617000Y-40589151D01*
X152703000Y-40589151D01*
X152703000Y-40830849D01*
X152750153Y-41067903D01*
X152842647Y-41291202D01*
X152976927Y-41492167D01*
X153147833Y-41663073D01*
X153348798Y-41797353D01*
X153572097Y-41889847D01*
X153809151Y-41937000D01*
X154050849Y-41937000D01*
X154287903Y-41889847D01*
X154511202Y-41797353D01*
X154712167Y-41663073D01*
X154883073Y-41492167D01*
X155017353Y-41291202D01*
X155109847Y-41067903D01*
X155157000Y-40830849D01*
X155157000Y-40589151D01*
X155243000Y-40589151D01*
X155243000Y-40830849D01*
X155290153Y-41067903D01*
X155382647Y-41291202D01*
X155516927Y-41492167D01*
X155687833Y-41663073D01*
X155888798Y-41797353D01*
X156112097Y-41889847D01*
X156349151Y-41937000D01*
X156590849Y-41937000D01*
X156827903Y-41889847D01*
X157051202Y-41797353D01*
X157252167Y-41663073D01*
X157423073Y-41492167D01*
X157557353Y-41291202D01*
X157649847Y-41067903D01*
X157697000Y-40830849D01*
X157697000Y-40589151D01*
X157783000Y-40589151D01*
X157783000Y-40830849D01*
X157830153Y-41067903D01*
X157922647Y-41291202D01*
X158056927Y-41492167D01*
X158227833Y-41663073D01*
X158428798Y-41797353D01*
X158652097Y-41889847D01*
X158889151Y-41937000D01*
X159130849Y-41937000D01*
X159367903Y-41889847D01*
X159591202Y-41797353D01*
X159792167Y-41663073D01*
X159929505Y-41525735D01*
X161473000Y-41525735D01*
X161473000Y-41974265D01*
X161560504Y-42414176D01*
X161732149Y-42828564D01*
X161981339Y-43201503D01*
X162298497Y-43518661D01*
X162671436Y-43767851D01*
X163085824Y-43939496D01*
X163525735Y-44027000D01*
X163974265Y-44027000D01*
X164414176Y-43939496D01*
X164828564Y-43767851D01*
X165201503Y-43518661D01*
X165518661Y-43201503D01*
X165767851Y-42828564D01*
X165939496Y-42414176D01*
X166027000Y-41974265D01*
X166027000Y-41525735D01*
X165939496Y-41085824D01*
X165767851Y-40671436D01*
X165518661Y-40298497D01*
X165201503Y-39981339D01*
X164828564Y-39732149D01*
X164414176Y-39560504D01*
X163974265Y-39473000D01*
X163525735Y-39473000D01*
X163085824Y-39560504D01*
X162671436Y-39732149D01*
X162298497Y-39981339D01*
X161981339Y-40298497D01*
X161732149Y-40671436D01*
X161560504Y-41085824D01*
X161473000Y-41525735D01*
X159929505Y-41525735D01*
X159963073Y-41492167D01*
X160097353Y-41291202D01*
X160189847Y-41067903D01*
X160237000Y-40830849D01*
X160237000Y-40589151D01*
X160189847Y-40352097D01*
X160097353Y-40128798D01*
X159963073Y-39927833D01*
X159792167Y-39756927D01*
X159591202Y-39622647D01*
X159367903Y-39530153D01*
X159130849Y-39483000D01*
X158889151Y-39483000D01*
X158652097Y-39530153D01*
X158428798Y-39622647D01*
X158227833Y-39756927D01*
X158056927Y-39927833D01*
X157922647Y-40128798D01*
X157830153Y-40352097D01*
X157783000Y-40589151D01*
X157697000Y-40589151D01*
X157649847Y-40352097D01*
X157557353Y-40128798D01*
X157423073Y-39927833D01*
X157252167Y-39756927D01*
X157051202Y-39622647D01*
X156827903Y-39530153D01*
X156590849Y-39483000D01*
X156349151Y-39483000D01*
X156112097Y-39530153D01*
X155888798Y-39622647D01*
X155687833Y-39756927D01*
X155516927Y-39927833D01*
X155382647Y-40128798D01*
X155290153Y-40352097D01*
X155243000Y-40589151D01*
X155157000Y-40589151D01*
X155109847Y-40352097D01*
X155017353Y-40128798D01*
X154883073Y-39927833D01*
X154712167Y-39756927D01*
X154511202Y-39622647D01*
X154287903Y-39530153D01*
X154050849Y-39483000D01*
X153809151Y-39483000D01*
X153572097Y-39530153D01*
X153348798Y-39622647D01*
X153147833Y-39756927D01*
X152976927Y-39927833D01*
X152842647Y-40128798D01*
X152750153Y-40352097D01*
X152703000Y-40589151D01*
X152617000Y-40589151D01*
X152569847Y-40352097D01*
X152477353Y-40128798D01*
X152343073Y-39927833D01*
X152172167Y-39756927D01*
X151971202Y-39622647D01*
X151747903Y-39530153D01*
X151510849Y-39483000D01*
X151269151Y-39483000D01*
X151032097Y-39530153D01*
X150808798Y-39622647D01*
X150607833Y-39756927D01*
X150436927Y-39927833D01*
X150302647Y-40128798D01*
X150210153Y-40352097D01*
X150163000Y-40589151D01*
X150077000Y-40589151D01*
X150029847Y-40352097D01*
X149937353Y-40128798D01*
X149803073Y-39927833D01*
X149632167Y-39756927D01*
X149431202Y-39622647D01*
X149207903Y-39530153D01*
X148970849Y-39483000D01*
X148729151Y-39483000D01*
X148492097Y-39530153D01*
X148268798Y-39622647D01*
X148067833Y-39756927D01*
X147896927Y-39927833D01*
X147762647Y-40128798D01*
X147670153Y-40352097D01*
X147623000Y-40589151D01*
X147537000Y-40589151D01*
X147489847Y-40352097D01*
X147397353Y-40128798D01*
X147263073Y-39927833D01*
X147092167Y-39756927D01*
X146891202Y-39622647D01*
X146667903Y-39530153D01*
X146430849Y-39483000D01*
X146189151Y-39483000D01*
X145952097Y-39530153D01*
X145728798Y-39622647D01*
X145527833Y-39756927D01*
X145356927Y-39927833D01*
X145222647Y-40128798D01*
X145130153Y-40352097D01*
X145083000Y-40589151D01*
X144997000Y-40589151D01*
X144949847Y-40352097D01*
X144857353Y-40128798D01*
X144723073Y-39927833D01*
X144552167Y-39756927D01*
X144351202Y-39622647D01*
X144127903Y-39530153D01*
X143890849Y-39483000D01*
X143649151Y-39483000D01*
X143412097Y-39530153D01*
X143188798Y-39622647D01*
X142987833Y-39756927D01*
X142816927Y-39927833D01*
X142682647Y-40128798D01*
X142590153Y-40352097D01*
X142543000Y-40589151D01*
X142543000Y-40830849D01*
X142590153Y-41067903D01*
X142682647Y-41291202D01*
X142816927Y-41492167D01*
X142987833Y-41663073D01*
X143188798Y-41797353D01*
X143412097Y-41889847D01*
X143649151Y-41937000D01*
X143890849Y-41937000D01*
X144127903Y-41889847D01*
X144207105Y-41857040D01*
X144443002Y-42092937D01*
X144443002Y-42223985D01*
X144351202Y-42162647D01*
X144127903Y-42070153D01*
X143890849Y-42023000D01*
X143649151Y-42023000D01*
X143412097Y-42070153D01*
X143188798Y-42162647D01*
X142987833Y-42296927D01*
X142816927Y-42467833D01*
X142682647Y-42668798D01*
X142590153Y-42892097D01*
X142543000Y-43129151D01*
X142543000Y-43370849D01*
X142590153Y-43607903D01*
X142682647Y-43831202D01*
X142816927Y-44032167D01*
X142987833Y-44203073D01*
X143188798Y-44337353D01*
X143268000Y-44370160D01*
X143268000Y-44922065D01*
X137992066Y-50198000D01*
X130396845Y-50198000D01*
X130295309Y-50096464D01*
X130168048Y-50011431D01*
X130026643Y-49952859D01*
X129876528Y-49923000D01*
X129723472Y-49923000D01*
X129573357Y-49952859D01*
X129431952Y-50011431D01*
X129304691Y-50096464D01*
X129196464Y-50204691D01*
X129111431Y-50331952D01*
X129052859Y-50473357D01*
X129023000Y-50623472D01*
X118398712Y-50623472D01*
X118257167Y-50481927D01*
X118056202Y-50347647D01*
X117832903Y-50255153D01*
X117595849Y-50208000D01*
X117354151Y-50208000D01*
X117117097Y-50255153D01*
X116893798Y-50347647D01*
X116692833Y-50481927D01*
X116521927Y-50652833D01*
X116387647Y-50853798D01*
X116295153Y-51077097D01*
X116248000Y-51314151D01*
X116248000Y-51555849D01*
X116295153Y-51792903D01*
X116387647Y-52016202D01*
X116521927Y-52217167D01*
X116692833Y-52388073D01*
X116893798Y-52522353D01*
X117117097Y-52614847D01*
X117354151Y-52662000D01*
X117595849Y-52662000D01*
X117832903Y-52614847D01*
X117978277Y-52554631D01*
X118011590Y-52564736D01*
X118110000Y-52574427D01*
X118208409Y-52564736D01*
X118303036Y-52536031D01*
X118390245Y-52489417D01*
X118466684Y-52426684D01*
X118529417Y-52350245D01*
X118576031Y-52263036D01*
X118604736Y-52168409D01*
X118614427Y-52070000D01*
X118604736Y-51971590D01*
X118594631Y-51938277D01*
X118595160Y-51937000D01*
X125527066Y-51937000D01*
X126627603Y-53037538D01*
X126643316Y-53056684D01*
X126662462Y-53072397D01*
X126662464Y-53072399D01*
X126691787Y-53096464D01*
X126719755Y-53119417D01*
X126806964Y-53166031D01*
X126901591Y-53194736D01*
X126934732Y-53198000D01*
X118431525Y-53198000D01*
X118428073Y-53192833D01*
X118257167Y-53021927D01*
X118056202Y-52887647D01*
X117832903Y-52795153D01*
X117595849Y-52748000D01*
X117354151Y-52748000D01*
X117117097Y-52795153D01*
X116893798Y-52887647D01*
X116692833Y-53021927D01*
X116521927Y-53192833D01*
X116387647Y-53393798D01*
X116295153Y-53617097D01*
X116248000Y-53854151D01*
X116248000Y-54095849D01*
X116295153Y-54332903D01*
X116387647Y-54556202D01*
X116521927Y-54757167D01*
X116692833Y-54928073D01*
X116893798Y-55062353D01*
X117011798Y-55111231D01*
X116843748Y-55170843D01*
X116593645Y-55319822D01*
X116377412Y-55514731D01*
X116205000Y-55745880D01*
X116032588Y-55514731D01*
X115816355Y-55319822D01*
X115566252Y-55170843D01*
X115398202Y-55111231D01*
X115516202Y-55062353D01*
X115717167Y-54928073D01*
X115888073Y-54757167D01*
X116022353Y-54556202D01*
X116114847Y-54332903D01*
X116162000Y-54095849D01*
X116162000Y-53854151D01*
X116114847Y-53617097D01*
X116022353Y-53393798D01*
X115888073Y-53192833D01*
X115717167Y-53021927D01*
X115516202Y-52887647D01*
X115292903Y-52795153D01*
X115055849Y-52748000D01*
X114814151Y-52748000D01*
X114577097Y-52795153D01*
X114353798Y-52887647D01*
X114152833Y-53021927D01*
X113981927Y-53192833D01*
X113847647Y-53393798D01*
X113755153Y-53617097D01*
X113708000Y-53854151D01*
X113708000Y-54095849D01*
X113755153Y-54332903D01*
X113847647Y-54556202D01*
X113981927Y-54757167D01*
X114152833Y-54928073D01*
X114353798Y-55062353D01*
X114471798Y-55111231D01*
X114303748Y-55170843D01*
X114053645Y-55319822D01*
X113837412Y-55514731D01*
X113663359Y-55748080D01*
X113538175Y-56010901D01*
X113493524Y-56158110D01*
X102706000Y-56158110D01*
X102706000Y-50585000D01*
X113706176Y-50585000D01*
X113706176Y-52285000D01*
X113713455Y-52358905D01*
X113735012Y-52429970D01*
X113770019Y-52495463D01*
X113817131Y-52552869D01*
X113874537Y-52599981D01*
X113940030Y-52634988D01*
X114011095Y-52656545D01*
X114085000Y-52663824D01*
X115785000Y-52663824D01*
X115858905Y-52656545D01*
X115929970Y-52634988D01*
X115995463Y-52599981D01*
X116052869Y-52552869D01*
X116099981Y-52495463D01*
X116134988Y-52429970D01*
X116156545Y-52358905D01*
X116163824Y-52285000D01*
X116163824Y-50585000D01*
X116156545Y-50511095D01*
X116134988Y-50440030D01*
X116099981Y-50374537D01*
X116052869Y-50317131D01*
X115995463Y-50270019D01*
X115929970Y-50235012D01*
X115858905Y-50213455D01*
X115785000Y-50206176D01*
X114085000Y-50206176D01*
X114011095Y-50213455D01*
X113940030Y-50235012D01*
X113874537Y-50270019D01*
X113817131Y-50317131D01*
X113770019Y-50374537D01*
X113735012Y-50440030D01*
X113713455Y-50511095D01*
X113706176Y-50585000D01*
X102706000Y-50585000D01*
X102706000Y-45423472D01*
X125207000Y-45423472D01*
X125207000Y-45576528D01*
X125236859Y-45726643D01*
X125295431Y-45868048D01*
X125380464Y-45995309D01*
X125488691Y-46103536D01*
X125615952Y-46188569D01*
X125757357Y-46247141D01*
X125907472Y-46277000D01*
X126060528Y-46277000D01*
X126210643Y-46247141D01*
X126352048Y-46188569D01*
X126479309Y-46103536D01*
X126580845Y-46002000D01*
X135475357Y-46002000D01*
X135500000Y-46004427D01*
X135524643Y-46002000D01*
X135524653Y-46002000D01*
X135598409Y-45994736D01*
X135693036Y-45966031D01*
X135780245Y-45919417D01*
X135856684Y-45856684D01*
X135872401Y-45837533D01*
X136487543Y-45222393D01*
X136506684Y-45206684D01*
X136522392Y-45187544D01*
X136522400Y-45187536D01*
X136569416Y-45130246D01*
X136569417Y-45130245D01*
X136616031Y-45043036D01*
X136644736Y-44948409D01*
X136652000Y-44874653D01*
X136652000Y-44874643D01*
X136654427Y-44850000D01*
X136652000Y-44825357D01*
X136652000Y-44370160D01*
X136731202Y-44337353D01*
X136932167Y-44203073D01*
X137103073Y-44032167D01*
X137237353Y-43831202D01*
X137329847Y-43607903D01*
X137377000Y-43370849D01*
X137377000Y-43129151D01*
X137463000Y-43129151D01*
X137463000Y-43370849D01*
X137510153Y-43607903D01*
X137602647Y-43831202D01*
X137736927Y-44032167D01*
X137907833Y-44203073D01*
X138108798Y-44337353D01*
X138332097Y-44429847D01*
X138569151Y-44477000D01*
X138810849Y-44477000D01*
X139047903Y-44429847D01*
X139271202Y-44337353D01*
X139472167Y-44203073D01*
X139643073Y-44032167D01*
X139777353Y-43831202D01*
X139869847Y-43607903D01*
X139917000Y-43370849D01*
X139917000Y-43129151D01*
X140003000Y-43129151D01*
X140003000Y-43370849D01*
X140050153Y-43607903D01*
X140142647Y-43831202D01*
X140276927Y-44032167D01*
X140447833Y-44203073D01*
X140648798Y-44337353D01*
X140872097Y-44429847D01*
X141109151Y-44477000D01*
X141350849Y-44477000D01*
X141587903Y-44429847D01*
X141811202Y-44337353D01*
X142012167Y-44203073D01*
X142183073Y-44032167D01*
X142317353Y-43831202D01*
X142409847Y-43607903D01*
X142457000Y-43370849D01*
X142457000Y-43129151D01*
X142409847Y-42892097D01*
X142317353Y-42668798D01*
X142183073Y-42467833D01*
X142012167Y-42296927D01*
X141811202Y-42162647D01*
X141587903Y-42070153D01*
X141350849Y-42023000D01*
X141109151Y-42023000D01*
X140872097Y-42070153D01*
X140648798Y-42162647D01*
X140447833Y-42296927D01*
X140276927Y-42467833D01*
X140142647Y-42668798D01*
X140050153Y-42892097D01*
X140003000Y-43129151D01*
X139917000Y-43129151D01*
X139869847Y-42892097D01*
X139777353Y-42668798D01*
X139643073Y-42467833D01*
X139472167Y-42296927D01*
X139271202Y-42162647D01*
X139047903Y-42070153D01*
X138810849Y-42023000D01*
X138569151Y-42023000D01*
X138332097Y-42070153D01*
X138108798Y-42162647D01*
X137907833Y-42296927D01*
X137736927Y-42467833D01*
X137602647Y-42668798D01*
X137510153Y-42892097D01*
X137463000Y-43129151D01*
X137377000Y-43129151D01*
X137329847Y-42892097D01*
X137237353Y-42668798D01*
X137103073Y-42467833D01*
X136932167Y-42296927D01*
X136731202Y-42162647D01*
X136507903Y-42070153D01*
X136270849Y-42023000D01*
X136029151Y-42023000D01*
X135792097Y-42070153D01*
X135568798Y-42162647D01*
X135367833Y-42296927D01*
X135196927Y-42467833D01*
X135062647Y-42668798D01*
X134970153Y-42892097D01*
X134923000Y-43129151D01*
X134923000Y-43370849D01*
X134970153Y-43607903D01*
X135062647Y-43831202D01*
X135196927Y-44032167D01*
X135367833Y-44203073D01*
X135568798Y-44337353D01*
X135648001Y-44370160D01*
X135648001Y-44642064D01*
X135292066Y-44998000D01*
X126580845Y-44998000D01*
X126479309Y-44896464D01*
X126352048Y-44811431D01*
X126210643Y-44752859D01*
X126060528Y-44723000D01*
X125907472Y-44723000D01*
X125757357Y-44752859D01*
X125615952Y-44811431D01*
X125488691Y-44896464D01*
X125380464Y-45004691D01*
X125295431Y-45131952D01*
X125236859Y-45273357D01*
X125207000Y-45423472D01*
X102706000Y-45423472D01*
X102706000Y-44100000D01*
X109261928Y-44100000D01*
X109274188Y-44224482D01*
X109310498Y-44344180D01*
X109369463Y-44454494D01*
X109448815Y-44551185D01*
X109545506Y-44630537D01*
X109655820Y-44689502D01*
X109775518Y-44725812D01*
X109900000Y-44738072D01*
X110464250Y-44735000D01*
X110623000Y-44576250D01*
X110623000Y-43377000D01*
X109423750Y-43377000D01*
X109265000Y-43535750D01*
X109261928Y-44100000D01*
X102706000Y-44100000D01*
X102706000Y-41525735D01*
X103473000Y-41525735D01*
X103473000Y-41974265D01*
X103560504Y-42414176D01*
X103732149Y-42828564D01*
X103981339Y-43201503D01*
X104298497Y-43518661D01*
X104671436Y-43767851D01*
X105085824Y-43939496D01*
X105525735Y-44027000D01*
X105974265Y-44027000D01*
X106414176Y-43939496D01*
X106828564Y-43767851D01*
X107201503Y-43518661D01*
X107518661Y-43201503D01*
X107767851Y-42828564D01*
X107939496Y-42414176D01*
X107942315Y-42400000D01*
X109261928Y-42400000D01*
X109265000Y-42964250D01*
X109423750Y-43123000D01*
X110623000Y-43123000D01*
X110623000Y-43103000D01*
X110877000Y-43103000D01*
X110877000Y-43123000D01*
X110897000Y-43123000D01*
X110897000Y-43377000D01*
X110877000Y-43377000D01*
X110877000Y-44576250D01*
X111035750Y-44735000D01*
X111600000Y-44738072D01*
X111724482Y-44725812D01*
X111844180Y-44689502D01*
X111954494Y-44630537D01*
X112051185Y-44551185D01*
X112130537Y-44454494D01*
X112189502Y-44344180D01*
X112225812Y-44224482D01*
X112238072Y-44100000D01*
X112236888Y-43882447D01*
X112336927Y-44032167D01*
X112507833Y-44203073D01*
X112708798Y-44337353D01*
X112932097Y-44429847D01*
X113169151Y-44477000D01*
X113410849Y-44477000D01*
X113647903Y-44429847D01*
X113871202Y-44337353D01*
X114072167Y-44203073D01*
X114243073Y-44032167D01*
X114377353Y-43831202D01*
X114469847Y-43607903D01*
X114517000Y-43370849D01*
X114517000Y-43129151D01*
X114603000Y-43129151D01*
X114603000Y-43370849D01*
X114650153Y-43607903D01*
X114742647Y-43831202D01*
X114876927Y-44032167D01*
X115047833Y-44203073D01*
X115248798Y-44337353D01*
X115472097Y-44429847D01*
X115709151Y-44477000D01*
X115950849Y-44477000D01*
X116187903Y-44429847D01*
X116411202Y-44337353D01*
X116612167Y-44203073D01*
X116783073Y-44032167D01*
X116917353Y-43831202D01*
X117009847Y-43607903D01*
X117057000Y-43370849D01*
X117057000Y-43129151D01*
X117143000Y-43129151D01*
X117143000Y-43370849D01*
X117190153Y-43607903D01*
X117282647Y-43831202D01*
X117416927Y-44032167D01*
X117587833Y-44203073D01*
X117788798Y-44337353D01*
X118012097Y-44429847D01*
X118249151Y-44477000D01*
X118490849Y-44477000D01*
X118727903Y-44429847D01*
X118951202Y-44337353D01*
X119152167Y-44203073D01*
X119323073Y-44032167D01*
X119457353Y-43831202D01*
X119549847Y-43607903D01*
X119597000Y-43370849D01*
X119597000Y-43129151D01*
X119683000Y-43129151D01*
X119683000Y-43370849D01*
X119730153Y-43607903D01*
X119822647Y-43831202D01*
X119956927Y-44032167D01*
X120127833Y-44203073D01*
X120328798Y-44337353D01*
X120552097Y-44429847D01*
X120789151Y-44477000D01*
X121030849Y-44477000D01*
X121267903Y-44429847D01*
X121491202Y-44337353D01*
X121692167Y-44203073D01*
X121863073Y-44032167D01*
X121997353Y-43831202D01*
X122089847Y-43607903D01*
X122137000Y-43370849D01*
X122137000Y-43129151D01*
X122223000Y-43129151D01*
X122223000Y-43370849D01*
X122270153Y-43607903D01*
X122362647Y-43831202D01*
X122496927Y-44032167D01*
X122667833Y-44203073D01*
X122868798Y-44337353D01*
X123092097Y-44429847D01*
X123329151Y-44477000D01*
X123570849Y-44477000D01*
X123807903Y-44429847D01*
X124031202Y-44337353D01*
X124232167Y-44203073D01*
X124403073Y-44032167D01*
X124537353Y-43831202D01*
X124629847Y-43607903D01*
X124677000Y-43370849D01*
X124677000Y-43129151D01*
X124763000Y-43129151D01*
X124763000Y-43370849D01*
X124810153Y-43607903D01*
X124902647Y-43831202D01*
X125036927Y-44032167D01*
X125207833Y-44203073D01*
X125408798Y-44337353D01*
X125632097Y-44429847D01*
X125869151Y-44477000D01*
X126110849Y-44477000D01*
X126347903Y-44429847D01*
X126571202Y-44337353D01*
X126772167Y-44203073D01*
X126943073Y-44032167D01*
X127077353Y-43831202D01*
X127169847Y-43607903D01*
X127217000Y-43370849D01*
X127217000Y-43129151D01*
X127303000Y-43129151D01*
X127303000Y-43370849D01*
X127350153Y-43607903D01*
X127442647Y-43831202D01*
X127576927Y-44032167D01*
X127747833Y-44203073D01*
X127948798Y-44337353D01*
X128172097Y-44429847D01*
X128409151Y-44477000D01*
X128650849Y-44477000D01*
X128887903Y-44429847D01*
X129111202Y-44337353D01*
X129312167Y-44203073D01*
X129483073Y-44032167D01*
X129617353Y-43831202D01*
X129709847Y-43607903D01*
X129757000Y-43370849D01*
X129757000Y-43129151D01*
X129843000Y-43129151D01*
X129843000Y-43370849D01*
X129890153Y-43607903D01*
X129982647Y-43831202D01*
X130116927Y-44032167D01*
X130287833Y-44203073D01*
X130488798Y-44337353D01*
X130712097Y-44429847D01*
X130949151Y-44477000D01*
X131190849Y-44477000D01*
X131427903Y-44429847D01*
X131651202Y-44337353D01*
X131852167Y-44203073D01*
X132023073Y-44032167D01*
X132157353Y-43831202D01*
X132249847Y-43607903D01*
X132297000Y-43370849D01*
X132297000Y-43129151D01*
X132383000Y-43129151D01*
X132383000Y-43370849D01*
X132430153Y-43607903D01*
X132522647Y-43831202D01*
X132656927Y-44032167D01*
X132827833Y-44203073D01*
X133028798Y-44337353D01*
X133252097Y-44429847D01*
X133489151Y-44477000D01*
X133730849Y-44477000D01*
X133967903Y-44429847D01*
X134191202Y-44337353D01*
X134392167Y-44203073D01*
X134563073Y-44032167D01*
X134697353Y-43831202D01*
X134789847Y-43607903D01*
X134837000Y-43370849D01*
X134837000Y-43129151D01*
X134789847Y-42892097D01*
X134697353Y-42668798D01*
X134563073Y-42467833D01*
X134392167Y-42296927D01*
X134191202Y-42162647D01*
X133967903Y-42070153D01*
X133730849Y-42023000D01*
X133489151Y-42023000D01*
X133252097Y-42070153D01*
X133028798Y-42162647D01*
X132827833Y-42296927D01*
X132656927Y-42467833D01*
X132522647Y-42668798D01*
X132430153Y-42892097D01*
X132383000Y-43129151D01*
X132297000Y-43129151D01*
X132249847Y-42892097D01*
X132157353Y-42668798D01*
X132023073Y-42467833D01*
X131852167Y-42296927D01*
X131651202Y-42162647D01*
X131427903Y-42070153D01*
X131190849Y-42023000D01*
X130949151Y-42023000D01*
X130712097Y-42070153D01*
X130488798Y-42162647D01*
X130287833Y-42296927D01*
X130116927Y-42467833D01*
X129982647Y-42668798D01*
X129890153Y-42892097D01*
X129843000Y-43129151D01*
X129757000Y-43129151D01*
X129709847Y-42892097D01*
X129617353Y-42668798D01*
X129483073Y-42467833D01*
X129312167Y-42296927D01*
X129111202Y-42162647D01*
X128887903Y-42070153D01*
X128650849Y-42023000D01*
X128409151Y-42023000D01*
X128172097Y-42070153D01*
X127948798Y-42162647D01*
X127747833Y-42296927D01*
X127576927Y-42467833D01*
X127442647Y-42668798D01*
X127350153Y-42892097D01*
X127303000Y-43129151D01*
X127217000Y-43129151D01*
X127169847Y-42892097D01*
X127077353Y-42668798D01*
X126943073Y-42467833D01*
X126772167Y-42296927D01*
X126571202Y-42162647D01*
X126347903Y-42070153D01*
X126110849Y-42023000D01*
X125869151Y-42023000D01*
X125632097Y-42070153D01*
X125408798Y-42162647D01*
X125207833Y-42296927D01*
X125036927Y-42467833D01*
X124902647Y-42668798D01*
X124810153Y-42892097D01*
X124763000Y-43129151D01*
X124677000Y-43129151D01*
X124629847Y-42892097D01*
X124537353Y-42668798D01*
X124403073Y-42467833D01*
X124232167Y-42296927D01*
X124031202Y-42162647D01*
X123807903Y-42070153D01*
X123570849Y-42023000D01*
X123329151Y-42023000D01*
X123092097Y-42070153D01*
X122868798Y-42162647D01*
X122667833Y-42296927D01*
X122496927Y-42467833D01*
X122362647Y-42668798D01*
X122270153Y-42892097D01*
X122223000Y-43129151D01*
X122137000Y-43129151D01*
X122089847Y-42892097D01*
X121997353Y-42668798D01*
X121863073Y-42467833D01*
X121692167Y-42296927D01*
X121491202Y-42162647D01*
X121267903Y-42070153D01*
X121030849Y-42023000D01*
X120789151Y-42023000D01*
X120552097Y-42070153D01*
X120328798Y-42162647D01*
X120127833Y-42296927D01*
X119956927Y-42467833D01*
X119822647Y-42668798D01*
X119730153Y-42892097D01*
X119683000Y-43129151D01*
X119597000Y-43129151D01*
X119549847Y-42892097D01*
X119457353Y-42668798D01*
X119323073Y-42467833D01*
X119152167Y-42296927D01*
X118951202Y-42162647D01*
X118727903Y-42070153D01*
X118490849Y-42023000D01*
X118249151Y-42023000D01*
X118012097Y-42070153D01*
X117788798Y-42162647D01*
X117587833Y-42296927D01*
X117416927Y-42467833D01*
X117282647Y-42668798D01*
X117190153Y-42892097D01*
X117143000Y-43129151D01*
X117057000Y-43129151D01*
X117009847Y-42892097D01*
X116917353Y-42668798D01*
X116783073Y-42467833D01*
X116612167Y-42296927D01*
X116411202Y-42162647D01*
X116187903Y-42070153D01*
X115950849Y-42023000D01*
X115709151Y-42023000D01*
X115472097Y-42070153D01*
X115248798Y-42162647D01*
X115047833Y-42296927D01*
X114876927Y-42467833D01*
X114742647Y-42668798D01*
X114650153Y-42892097D01*
X114603000Y-43129151D01*
X114517000Y-43129151D01*
X114469847Y-42892097D01*
X114377353Y-42668798D01*
X114243073Y-42467833D01*
X114072167Y-42296927D01*
X113871202Y-42162647D01*
X113647903Y-42070153D01*
X113410849Y-42023000D01*
X113169151Y-42023000D01*
X112932097Y-42070153D01*
X112708798Y-42162647D01*
X112507833Y-42296927D01*
X112336927Y-42467833D01*
X112236888Y-42617553D01*
X112238072Y-42400000D01*
X112225812Y-42275518D01*
X112189502Y-42155820D01*
X112130537Y-42045506D01*
X112051185Y-41948815D01*
X111954494Y-41869463D01*
X111844180Y-41810498D01*
X111724482Y-41774188D01*
X111600000Y-41761928D01*
X111382447Y-41763112D01*
X111532167Y-41663073D01*
X111703073Y-41492167D01*
X111837353Y-41291202D01*
X111929847Y-41067903D01*
X111977000Y-40830849D01*
X111977000Y-40589151D01*
X112063000Y-40589151D01*
X112063000Y-40830849D01*
X112110153Y-41067903D01*
X112202647Y-41291202D01*
X112336927Y-41492167D01*
X112507833Y-41663073D01*
X112708798Y-41797353D01*
X112932097Y-41889847D01*
X113169151Y-41937000D01*
X113410849Y-41937000D01*
X113647903Y-41889847D01*
X113871202Y-41797353D01*
X114072167Y-41663073D01*
X114243073Y-41492167D01*
X114377353Y-41291202D01*
X114469847Y-41067903D01*
X114517000Y-40830849D01*
X114517000Y-40589151D01*
X114603000Y-40589151D01*
X114603000Y-40830849D01*
X114650153Y-41067903D01*
X114742647Y-41291202D01*
X114876927Y-41492167D01*
X115047833Y-41663073D01*
X115248798Y-41797353D01*
X115472097Y-41889847D01*
X115709151Y-41937000D01*
X115950849Y-41937000D01*
X116187903Y-41889847D01*
X116411202Y-41797353D01*
X116612167Y-41663073D01*
X116783073Y-41492167D01*
X116917353Y-41291202D01*
X117009847Y-41067903D01*
X117057000Y-40830849D01*
X117057000Y-40589151D01*
X117143000Y-40589151D01*
X117143000Y-40830849D01*
X117190153Y-41067903D01*
X117282647Y-41291202D01*
X117416927Y-41492167D01*
X117587833Y-41663073D01*
X117788798Y-41797353D01*
X118012097Y-41889847D01*
X118249151Y-41937000D01*
X118490849Y-41937000D01*
X118727903Y-41889847D01*
X118951202Y-41797353D01*
X119152167Y-41663073D01*
X119323073Y-41492167D01*
X119457353Y-41291202D01*
X119549847Y-41067903D01*
X119597000Y-40830849D01*
X119597000Y-40589151D01*
X119683000Y-40589151D01*
X119683000Y-40830849D01*
X119730153Y-41067903D01*
X119822647Y-41291202D01*
X119956927Y-41492167D01*
X120127833Y-41663073D01*
X120328798Y-41797353D01*
X120552097Y-41889847D01*
X120789151Y-41937000D01*
X121030849Y-41937000D01*
X121267903Y-41889847D01*
X121491202Y-41797353D01*
X121692167Y-41663073D01*
X121863073Y-41492167D01*
X121997353Y-41291202D01*
X122089847Y-41067903D01*
X122137000Y-40830849D01*
X122137000Y-40589151D01*
X122223000Y-40589151D01*
X122223000Y-40830849D01*
X122270153Y-41067903D01*
X122362647Y-41291202D01*
X122496927Y-41492167D01*
X122667833Y-41663073D01*
X122868798Y-41797353D01*
X123092097Y-41889847D01*
X123329151Y-41937000D01*
X123570849Y-41937000D01*
X123807903Y-41889847D01*
X124031202Y-41797353D01*
X124232167Y-41663073D01*
X124403073Y-41492167D01*
X124537353Y-41291202D01*
X124629847Y-41067903D01*
X124677000Y-40830849D01*
X124677000Y-40589151D01*
X124763000Y-40589151D01*
X124763000Y-40830849D01*
X124810153Y-41067903D01*
X124902647Y-41291202D01*
X125036927Y-41492167D01*
X125207833Y-41663073D01*
X125408798Y-41797353D01*
X125632097Y-41889847D01*
X125869151Y-41937000D01*
X126110849Y-41937000D01*
X126347903Y-41889847D01*
X126571202Y-41797353D01*
X126772167Y-41663073D01*
X126943073Y-41492167D01*
X127077353Y-41291202D01*
X127169847Y-41067903D01*
X127217000Y-40830849D01*
X127217000Y-40589151D01*
X127303000Y-40589151D01*
X127303000Y-40830849D01*
X127350153Y-41067903D01*
X127442647Y-41291202D01*
X127576927Y-41492167D01*
X127747833Y-41663073D01*
X127948798Y-41797353D01*
X128172097Y-41889847D01*
X128409151Y-41937000D01*
X128650849Y-41937000D01*
X128887903Y-41889847D01*
X129111202Y-41797353D01*
X129312167Y-41663073D01*
X129483073Y-41492167D01*
X129617353Y-41291202D01*
X129709847Y-41067903D01*
X129757000Y-40830849D01*
X129757000Y-40589151D01*
X129843000Y-40589151D01*
X129843000Y-40830849D01*
X129890153Y-41067903D01*
X129982647Y-41291202D01*
X130116927Y-41492167D01*
X130287833Y-41663073D01*
X130488798Y-41797353D01*
X130712097Y-41889847D01*
X130949151Y-41937000D01*
X131190849Y-41937000D01*
X131427903Y-41889847D01*
X131651202Y-41797353D01*
X131852167Y-41663073D01*
X132023073Y-41492167D01*
X132157353Y-41291202D01*
X132249847Y-41067903D01*
X132297000Y-40830849D01*
X132297000Y-40589151D01*
X132383000Y-40589151D01*
X132383000Y-40830849D01*
X132430153Y-41067903D01*
X132522647Y-41291202D01*
X132656927Y-41492167D01*
X132827833Y-41663073D01*
X133028798Y-41797353D01*
X133252097Y-41889847D01*
X133489151Y-41937000D01*
X133730849Y-41937000D01*
X133967903Y-41889847D01*
X134191202Y-41797353D01*
X134392167Y-41663073D01*
X134563073Y-41492167D01*
X134697353Y-41291202D01*
X134789847Y-41067903D01*
X134837000Y-40830849D01*
X134837000Y-40589151D01*
X134923000Y-40589151D01*
X134923000Y-40830849D01*
X134970153Y-41067903D01*
X135062647Y-41291202D01*
X135196927Y-41492167D01*
X135367833Y-41663073D01*
X135568798Y-41797353D01*
X135792097Y-41889847D01*
X136029151Y-41937000D01*
X136270849Y-41937000D01*
X136507903Y-41889847D01*
X136731202Y-41797353D01*
X136932167Y-41663073D01*
X137103073Y-41492167D01*
X137237353Y-41291202D01*
X137329847Y-41067903D01*
X137377000Y-40830849D01*
X137377000Y-40589151D01*
X137463000Y-40589151D01*
X137463000Y-40830849D01*
X137510153Y-41067903D01*
X137602647Y-41291202D01*
X137736927Y-41492167D01*
X137907833Y-41663073D01*
X138108798Y-41797353D01*
X138332097Y-41889847D01*
X138569151Y-41937000D01*
X138810849Y-41937000D01*
X139047903Y-41889847D01*
X139271202Y-41797353D01*
X139472167Y-41663073D01*
X139643073Y-41492167D01*
X139777353Y-41291202D01*
X139869847Y-41067903D01*
X139917000Y-40830849D01*
X139917000Y-40589151D01*
X140003000Y-40589151D01*
X140003000Y-40830849D01*
X140050153Y-41067903D01*
X140142647Y-41291202D01*
X140276927Y-41492167D01*
X140447833Y-41663073D01*
X140648798Y-41797353D01*
X140872097Y-41889847D01*
X141109151Y-41937000D01*
X141350849Y-41937000D01*
X141587903Y-41889847D01*
X141811202Y-41797353D01*
X142012167Y-41663073D01*
X142183073Y-41492167D01*
X142317353Y-41291202D01*
X142409847Y-41067903D01*
X142457000Y-40830849D01*
X142457000Y-40589151D01*
X142409847Y-40352097D01*
X142317353Y-40128798D01*
X142183073Y-39927833D01*
X142012167Y-39756927D01*
X141811202Y-39622647D01*
X141587903Y-39530153D01*
X141350849Y-39483000D01*
X141109151Y-39483000D01*
X140872097Y-39530153D01*
X140648798Y-39622647D01*
X140447833Y-39756927D01*
X140276927Y-39927833D01*
X140142647Y-40128798D01*
X140050153Y-40352097D01*
X140003000Y-40589151D01*
X139917000Y-40589151D01*
X139869847Y-40352097D01*
X139777353Y-40128798D01*
X139643073Y-39927833D01*
X139472167Y-39756927D01*
X139271202Y-39622647D01*
X139047903Y-39530153D01*
X138810849Y-39483000D01*
X138569151Y-39483000D01*
X138332097Y-39530153D01*
X138108798Y-39622647D01*
X137907833Y-39756927D01*
X137736927Y-39927833D01*
X137602647Y-40128798D01*
X137510153Y-40352097D01*
X137463000Y-40589151D01*
X137377000Y-40589151D01*
X137329847Y-40352097D01*
X137237353Y-40128798D01*
X137103073Y-39927833D01*
X136932167Y-39756927D01*
X136731202Y-39622647D01*
X136507903Y-39530153D01*
X136270849Y-39483000D01*
X136029151Y-39483000D01*
X135792097Y-39530153D01*
X135568798Y-39622647D01*
X135367833Y-39756927D01*
X135196927Y-39927833D01*
X135062647Y-40128798D01*
X134970153Y-40352097D01*
X134923000Y-40589151D01*
X134837000Y-40589151D01*
X134789847Y-40352097D01*
X134697353Y-40128798D01*
X134563073Y-39927833D01*
X134392167Y-39756927D01*
X134191202Y-39622647D01*
X133967903Y-39530153D01*
X133730849Y-39483000D01*
X133489151Y-39483000D01*
X133252097Y-39530153D01*
X133028798Y-39622647D01*
X132827833Y-39756927D01*
X132656927Y-39927833D01*
X132522647Y-40128798D01*
X132430153Y-40352097D01*
X132383000Y-40589151D01*
X132297000Y-40589151D01*
X132249847Y-40352097D01*
X132157353Y-40128798D01*
X132023073Y-39927833D01*
X131852167Y-39756927D01*
X131651202Y-39622647D01*
X131427903Y-39530153D01*
X131190849Y-39483000D01*
X130949151Y-39483000D01*
X130712097Y-39530153D01*
X130488798Y-39622647D01*
X130287833Y-39756927D01*
X130116927Y-39927833D01*
X129982647Y-40128798D01*
X129890153Y-40352097D01*
X129843000Y-40589151D01*
X129757000Y-40589151D01*
X129709847Y-40352097D01*
X129617353Y-40128798D01*
X129483073Y-39927833D01*
X129312167Y-39756927D01*
X129111202Y-39622647D01*
X128887903Y-39530153D01*
X128650849Y-39483000D01*
X128409151Y-39483000D01*
X128172097Y-39530153D01*
X127948798Y-39622647D01*
X127747833Y-39756927D01*
X127576927Y-39927833D01*
X127442647Y-40128798D01*
X127350153Y-40352097D01*
X127303000Y-40589151D01*
X127217000Y-40589151D01*
X127169847Y-40352097D01*
X127077353Y-40128798D01*
X126943073Y-39927833D01*
X126772167Y-39756927D01*
X126571202Y-39622647D01*
X126347903Y-39530153D01*
X126110849Y-39483000D01*
X125869151Y-39483000D01*
X125632097Y-39530153D01*
X125408798Y-39622647D01*
X125207833Y-39756927D01*
X125036927Y-39927833D01*
X124902647Y-40128798D01*
X124810153Y-40352097D01*
X124763000Y-40589151D01*
X124677000Y-40589151D01*
X124629847Y-40352097D01*
X124537353Y-40128798D01*
X124403073Y-39927833D01*
X124232167Y-39756927D01*
X124031202Y-39622647D01*
X123807903Y-39530153D01*
X123570849Y-39483000D01*
X123329151Y-39483000D01*
X123092097Y-39530153D01*
X122868798Y-39622647D01*
X122667833Y-39756927D01*
X122496927Y-39927833D01*
X122362647Y-40128798D01*
X122270153Y-40352097D01*
X122223000Y-40589151D01*
X122137000Y-40589151D01*
X122089847Y-40352097D01*
X121997353Y-40128798D01*
X121863073Y-39927833D01*
X121692167Y-39756927D01*
X121491202Y-39622647D01*
X121267903Y-39530153D01*
X121030849Y-39483000D01*
X120789151Y-39483000D01*
X120552097Y-39530153D01*
X120328798Y-39622647D01*
X120127833Y-39756927D01*
X119956927Y-39927833D01*
X119822647Y-40128798D01*
X119730153Y-40352097D01*
X119683000Y-40589151D01*
X119597000Y-40589151D01*
X119549847Y-40352097D01*
X119457353Y-40128798D01*
X119323073Y-39927833D01*
X119152167Y-39756927D01*
X118951202Y-39622647D01*
X118727903Y-39530153D01*
X118490849Y-39483000D01*
X118249151Y-39483000D01*
X118012097Y-39530153D01*
X117788798Y-39622647D01*
X117587833Y-39756927D01*
X117416927Y-39927833D01*
X117282647Y-40128798D01*
X117190153Y-40352097D01*
X117143000Y-40589151D01*
X117057000Y-40589151D01*
X117009847Y-40352097D01*
X116917353Y-40128798D01*
X116783073Y-39927833D01*
X116612167Y-39756927D01*
X116411202Y-39622647D01*
X116187903Y-39530153D01*
X115950849Y-39483000D01*
X115709151Y-39483000D01*
X115472097Y-39530153D01*
X115248798Y-39622647D01*
X115047833Y-39756927D01*
X114876927Y-39927833D01*
X114742647Y-40128798D01*
X114650153Y-40352097D01*
X114603000Y-40589151D01*
X114517000Y-40589151D01*
X114469847Y-40352097D01*
X114377353Y-40128798D01*
X114243073Y-39927833D01*
X114072167Y-39756927D01*
X113871202Y-39622647D01*
X113647903Y-39530153D01*
X113410849Y-39483000D01*
X113169151Y-39483000D01*
X112932097Y-39530153D01*
X112708798Y-39622647D01*
X112507833Y-39756927D01*
X112336927Y-39927833D01*
X112202647Y-40128798D01*
X112110153Y-40352097D01*
X112063000Y-40589151D01*
X111977000Y-40589151D01*
X111929847Y-40352097D01*
X111837353Y-40128798D01*
X111703073Y-39927833D01*
X111532167Y-39756927D01*
X111331202Y-39622647D01*
X111107903Y-39530153D01*
X110870849Y-39483000D01*
X110629151Y-39483000D01*
X110392097Y-39530153D01*
X110168798Y-39622647D01*
X109967833Y-39756927D01*
X109796927Y-39927833D01*
X109662647Y-40128798D01*
X109570153Y-40352097D01*
X109523000Y-40589151D01*
X109523000Y-40830849D01*
X109570153Y-41067903D01*
X109662647Y-41291202D01*
X109796927Y-41492167D01*
X109967833Y-41663073D01*
X110117553Y-41763112D01*
X109900000Y-41761928D01*
X109775518Y-41774188D01*
X109655820Y-41810498D01*
X109545506Y-41869463D01*
X109448815Y-41948815D01*
X109369463Y-42045506D01*
X109310498Y-42155820D01*
X109274188Y-42275518D01*
X109261928Y-42400000D01*
X107942315Y-42400000D01*
X108027000Y-41974265D01*
X108027000Y-41525735D01*
X107939496Y-41085824D01*
X107767851Y-40671436D01*
X107518661Y-40298497D01*
X107201503Y-39981339D01*
X106828564Y-39732149D01*
X106414176Y-39560504D01*
X105974265Y-39473000D01*
X105525735Y-39473000D01*
X105085824Y-39560504D01*
X104671436Y-39732149D01*
X104298497Y-39981339D01*
X103981339Y-40298497D01*
X103732149Y-40671436D01*
X103560504Y-41085824D01*
X103473000Y-41525735D01*
X102706000Y-41525735D01*
X102706000Y-40942605D01*
X102711273Y-40777372D01*
X102726483Y-40618517D01*
X102750932Y-40461707D01*
X102785180Y-40308008D01*
X102829614Y-40156267D01*
X102883540Y-40007127D01*
X102947021Y-39860698D01*
X103018450Y-39719522D01*
X103098835Y-39583872D01*
X103188427Y-39452019D01*
X103285210Y-39326622D01*
X103390016Y-39207563D01*
X103501563Y-39096016D01*
X103620622Y-38991210D01*
X103746016Y-38894430D01*
X103877870Y-38804837D01*
X104013514Y-38724455D01*
X104154726Y-38653008D01*
X104301132Y-38589538D01*
X104450269Y-38535613D01*
X104602022Y-38491176D01*
X104755706Y-38456932D01*
X104912532Y-38432481D01*
X105071369Y-38417273D01*
X105236606Y-38412000D01*
X164221395Y-38412000D01*
X164386628Y-38417273D01*
%TA.AperFunction,Conductor*%
D16*
G36*
X164386628Y-38417273D02*
G01*
X164545483Y-38432483D01*
X164702293Y-38456932D01*
X164855992Y-38491180D01*
X165007733Y-38535614D01*
X165156873Y-38589540D01*
X165303291Y-38653016D01*
X165444496Y-38724460D01*
X165580132Y-38804838D01*
X165711981Y-38894427D01*
X165837378Y-38991210D01*
X165956437Y-39096016D01*
X166067984Y-39207563D01*
X166172790Y-39326622D01*
X166269570Y-39452016D01*
X166359164Y-39583870D01*
X166439544Y-39719513D01*
X166510990Y-39860722D01*
X166574462Y-40007132D01*
X166628387Y-40156269D01*
X166672824Y-40308022D01*
X166707068Y-40461706D01*
X166731519Y-40618532D01*
X166746727Y-40777369D01*
X166752000Y-40942606D01*
X166752001Y-91427363D01*
X166746727Y-91592631D01*
X166731519Y-91751468D01*
X166707068Y-91908294D01*
X166672824Y-92061978D01*
X166628387Y-92213731D01*
X166574462Y-92362868D01*
X166510990Y-92509278D01*
X166439544Y-92650487D01*
X166359164Y-92786130D01*
X166269570Y-92917984D01*
X166172790Y-93043378D01*
X166067984Y-93162437D01*
X165956437Y-93273984D01*
X165837378Y-93378790D01*
X165711981Y-93475573D01*
X165580132Y-93565162D01*
X165444496Y-93645540D01*
X165303291Y-93716984D01*
X165156873Y-93780460D01*
X165007733Y-93834386D01*
X164855992Y-93878820D01*
X164702293Y-93913068D01*
X164545483Y-93937517D01*
X164386628Y-93952727D01*
X164221395Y-93958000D01*
X105236606Y-93958000D01*
X105071369Y-93952727D01*
X104912532Y-93937519D01*
X104755706Y-93913068D01*
X104602022Y-93878824D01*
X104450269Y-93834387D01*
X104301132Y-93780462D01*
X104154726Y-93716992D01*
X104013514Y-93645545D01*
X103877870Y-93565163D01*
X103746016Y-93475570D01*
X103620622Y-93378790D01*
X103501563Y-93273984D01*
X103390016Y-93162437D01*
X103285210Y-93043378D01*
X103188427Y-92917981D01*
X103098835Y-92786128D01*
X103018450Y-92650478D01*
X102947021Y-92509302D01*
X102883540Y-92362873D01*
X102829614Y-92213733D01*
X102785180Y-92061992D01*
X102750932Y-91908293D01*
X102726483Y-91751483D01*
X102711273Y-91592621D01*
X102706000Y-91427395D01*
X102706000Y-90525735D01*
X103473000Y-90525735D01*
X103473000Y-90974265D01*
X103560504Y-91414176D01*
X103732149Y-91828564D01*
X103981339Y-92201503D01*
X104298497Y-92518661D01*
X104671436Y-92767851D01*
X105085824Y-92939496D01*
X105525735Y-93027000D01*
X105974265Y-93027000D01*
X106414176Y-92939496D01*
X106828564Y-92767851D01*
X107201503Y-92518661D01*
X107518661Y-92201503D01*
X107767851Y-91828564D01*
X107939496Y-91414176D01*
X108027000Y-90974265D01*
X108027000Y-90525735D01*
X107977272Y-90275735D01*
X161473000Y-90275735D01*
X161473000Y-90724265D01*
X161560504Y-91164176D01*
X161732149Y-91578564D01*
X161981339Y-91951503D01*
X162298497Y-92268661D01*
X162671436Y-92517851D01*
X163085824Y-92689496D01*
X163525735Y-92777000D01*
X163974265Y-92777000D01*
X164414176Y-92689496D01*
X164828564Y-92517851D01*
X165201503Y-92268661D01*
X165518661Y-91951503D01*
X165767851Y-91578564D01*
X165939496Y-91164176D01*
X166027000Y-90724265D01*
X166027000Y-90275735D01*
X165939496Y-89835824D01*
X165767851Y-89421436D01*
X165518661Y-89048497D01*
X165201503Y-88731339D01*
X164828564Y-88482149D01*
X164414176Y-88310504D01*
X163974265Y-88223000D01*
X163525735Y-88223000D01*
X163085824Y-88310504D01*
X162671436Y-88482149D01*
X162298497Y-88731339D01*
X161981339Y-89048497D01*
X161732149Y-89421436D01*
X161560504Y-89835824D01*
X161473000Y-90275735D01*
X107977272Y-90275735D01*
X107939496Y-90085824D01*
X107767851Y-89671436D01*
X107518661Y-89298497D01*
X107201503Y-88981339D01*
X106828564Y-88732149D01*
X106414176Y-88560504D01*
X105974265Y-88473000D01*
X105525735Y-88473000D01*
X105085824Y-88560504D01*
X104671436Y-88732149D01*
X104298497Y-88981339D01*
X103981339Y-89298497D01*
X103732149Y-89671436D01*
X103560504Y-90085824D01*
X103473000Y-90525735D01*
X102706000Y-90525735D01*
X102706000Y-84811890D01*
X113493524Y-84811890D01*
X113538175Y-84959099D01*
X113663359Y-85221920D01*
X113837412Y-85455269D01*
X114053645Y-85650178D01*
X114303748Y-85799157D01*
X114471798Y-85858769D01*
X114353798Y-85907647D01*
X114152833Y-86041927D01*
X113981927Y-86212833D01*
X113847647Y-86413798D01*
X113755153Y-86637097D01*
X113708000Y-86874151D01*
X113708000Y-87115849D01*
X113755153Y-87352903D01*
X113847647Y-87576202D01*
X113981927Y-87777167D01*
X114152833Y-87948073D01*
X114353798Y-88082353D01*
X114577097Y-88174847D01*
X114814151Y-88222000D01*
X115055849Y-88222000D01*
X115292903Y-88174847D01*
X115516202Y-88082353D01*
X115717167Y-87948073D01*
X115888073Y-87777167D01*
X116022353Y-87576202D01*
X116114847Y-87352903D01*
X116162000Y-87115849D01*
X116162000Y-86874151D01*
X116114847Y-86637097D01*
X116022353Y-86413798D01*
X115888073Y-86212833D01*
X115717167Y-86041927D01*
X115516202Y-85907647D01*
X115398202Y-85858769D01*
X115566252Y-85799157D01*
X115816355Y-85650178D01*
X116032588Y-85455269D01*
X116205000Y-85224120D01*
X116377412Y-85455269D01*
X116593645Y-85650178D01*
X116843748Y-85799157D01*
X117011798Y-85858769D01*
X116893798Y-85907647D01*
X116692833Y-86041927D01*
X116521927Y-86212833D01*
X116387647Y-86413798D01*
X116295153Y-86637097D01*
X116248000Y-86874151D01*
X116248000Y-87115849D01*
X116295153Y-87352903D01*
X116387647Y-87576202D01*
X116521927Y-87777167D01*
X116692833Y-87948073D01*
X116893798Y-88082353D01*
X117117097Y-88174847D01*
X117354151Y-88222000D01*
X117595849Y-88222000D01*
X117832903Y-88174847D01*
X118056202Y-88082353D01*
X118257167Y-87948073D01*
X118428073Y-87777167D01*
X118562353Y-87576202D01*
X118654847Y-87352903D01*
X118702000Y-87115849D01*
X118702000Y-86874151D01*
X118654847Y-86637097D01*
X118562353Y-86413798D01*
X118428073Y-86212833D01*
X118257167Y-86041927D01*
X118056202Y-85907647D01*
X117938202Y-85858769D01*
X118106252Y-85799157D01*
X118356355Y-85650178D01*
X118572588Y-85455269D01*
X118746641Y-85221920D01*
X118871825Y-84959099D01*
X118916476Y-84811890D01*
X151593524Y-84811890D01*
X151638175Y-84959099D01*
X151763359Y-85221920D01*
X151937412Y-85455269D01*
X152153645Y-85650178D01*
X152403748Y-85799157D01*
X152571798Y-85858769D01*
X152453798Y-85907647D01*
X152252833Y-86041927D01*
X152081927Y-86212833D01*
X151947647Y-86413798D01*
X151855153Y-86637097D01*
X151808000Y-86874151D01*
X151808000Y-87115849D01*
X151855153Y-87352903D01*
X151947647Y-87576202D01*
X152081927Y-87777167D01*
X152252833Y-87948073D01*
X152453798Y-88082353D01*
X152677097Y-88174847D01*
X152914151Y-88222000D01*
X153155849Y-88222000D01*
X153392903Y-88174847D01*
X153616202Y-88082353D01*
X153817167Y-87948073D01*
X153988073Y-87777167D01*
X154122353Y-87576202D01*
X154214847Y-87352903D01*
X154262000Y-87115849D01*
X154262000Y-86874151D01*
X154214847Y-86637097D01*
X154122353Y-86413798D01*
X153988073Y-86212833D01*
X153817167Y-86041927D01*
X153616202Y-85907647D01*
X153498202Y-85858769D01*
X153666252Y-85799157D01*
X153916355Y-85650178D01*
X154132588Y-85455269D01*
X154305000Y-85224120D01*
X154477412Y-85455269D01*
X154693645Y-85650178D01*
X154943748Y-85799157D01*
X155111798Y-85858769D01*
X154993798Y-85907647D01*
X154792833Y-86041927D01*
X154621927Y-86212833D01*
X154487647Y-86413798D01*
X154395153Y-86637097D01*
X154348000Y-86874151D01*
X154348000Y-87115849D01*
X154395153Y-87352903D01*
X154487647Y-87576202D01*
X154621927Y-87777167D01*
X154792833Y-87948073D01*
X154993798Y-88082353D01*
X155217097Y-88174847D01*
X155454151Y-88222000D01*
X155695849Y-88222000D01*
X155932903Y-88174847D01*
X156156202Y-88082353D01*
X156357167Y-87948073D01*
X156528073Y-87777167D01*
X156662353Y-87576202D01*
X156754847Y-87352903D01*
X156802000Y-87115849D01*
X156802000Y-86874151D01*
X156754847Y-86637097D01*
X156662353Y-86413798D01*
X156528073Y-86212833D01*
X156357167Y-86041927D01*
X156156202Y-85907647D01*
X156038202Y-85858769D01*
X156206252Y-85799157D01*
X156456355Y-85650178D01*
X156672588Y-85455269D01*
X156846641Y-85221920D01*
X156971825Y-84959099D01*
X157016476Y-84811890D01*
X156895155Y-84582000D01*
X155702000Y-84582000D01*
X155702000Y-84602000D01*
X155448000Y-84602000D01*
X155448000Y-84582000D01*
X153162000Y-84582000D01*
X153162000Y-84602000D01*
X152908000Y-84602000D01*
X152908000Y-84582000D01*
X151714845Y-84582000D01*
X151593524Y-84811890D01*
X118916476Y-84811890D01*
X118795155Y-84582000D01*
X117602000Y-84582000D01*
X117602000Y-84602000D01*
X117348000Y-84602000D01*
X117348000Y-84582000D01*
X115062000Y-84582000D01*
X115062000Y-84602000D01*
X114808000Y-84602000D01*
X114808000Y-84582000D01*
X113614845Y-84582000D01*
X113493524Y-84811890D01*
X102706000Y-84811890D01*
X102706000Y-84098110D01*
X113493524Y-84098110D01*
X113614845Y-84328000D01*
X114808000Y-84328000D01*
X114808000Y-84308000D01*
X115062000Y-84308000D01*
X115062000Y-84328000D01*
X117348000Y-84328000D01*
X117348000Y-84308000D01*
X117602000Y-84308000D01*
X117602000Y-84328000D01*
X118795155Y-84328000D01*
X118916476Y-84098110D01*
X151593524Y-84098110D01*
X151714845Y-84328000D01*
X152908000Y-84328000D01*
X152908000Y-84308000D01*
X153162000Y-84308000D01*
X153162000Y-84328000D01*
X155448000Y-84328000D01*
X155448000Y-84308000D01*
X155702000Y-84308000D01*
X155702000Y-84328000D01*
X156895155Y-84328000D01*
X157016476Y-84098110D01*
X156971825Y-83950901D01*
X156846641Y-83688080D01*
X156672588Y-83454731D01*
X156456355Y-83259822D01*
X156206252Y-83110843D01*
X156038202Y-83051231D01*
X156156202Y-83002353D01*
X156357167Y-82868073D01*
X156528073Y-82697167D01*
X156662353Y-82496202D01*
X156754847Y-82272903D01*
X156802000Y-82035849D01*
X156802000Y-81794151D01*
X156754847Y-81557097D01*
X156662353Y-81333798D01*
X156528073Y-81132833D01*
X156357167Y-80961927D01*
X156156202Y-80827647D01*
X155932903Y-80735153D01*
X155695849Y-80688000D01*
X155454151Y-80688000D01*
X155217097Y-80735153D01*
X154993798Y-80827647D01*
X154792833Y-80961927D01*
X154621927Y-81132833D01*
X154487647Y-81333798D01*
X154395153Y-81557097D01*
X154348000Y-81794151D01*
X154348000Y-82035849D01*
X154395153Y-82272903D01*
X154487647Y-82496202D01*
X154621927Y-82697167D01*
X154792833Y-82868073D01*
X154993798Y-83002353D01*
X155111798Y-83051231D01*
X154943748Y-83110843D01*
X154693645Y-83259822D01*
X154477412Y-83454731D01*
X154305000Y-83685880D01*
X154132588Y-83454731D01*
X153916355Y-83259822D01*
X153666252Y-83110843D01*
X153498202Y-83051231D01*
X153616202Y-83002353D01*
X153817167Y-82868073D01*
X153988073Y-82697167D01*
X154122353Y-82496202D01*
X154214847Y-82272903D01*
X154262000Y-82035849D01*
X154262000Y-81794151D01*
X154214847Y-81557097D01*
X154122353Y-81333798D01*
X153988073Y-81132833D01*
X153817167Y-80961927D01*
X153616202Y-80827647D01*
X153392903Y-80735153D01*
X153155849Y-80688000D01*
X152914151Y-80688000D01*
X152677097Y-80735153D01*
X152453798Y-80827647D01*
X152252833Y-80961927D01*
X152081927Y-81132833D01*
X151947647Y-81333798D01*
X151855153Y-81557097D01*
X151808000Y-81794151D01*
X151808000Y-82035849D01*
X151855153Y-82272903D01*
X151947647Y-82496202D01*
X152081927Y-82697167D01*
X152252833Y-82868073D01*
X152453798Y-83002353D01*
X152571798Y-83051231D01*
X152403748Y-83110843D01*
X152153645Y-83259822D01*
X151937412Y-83454731D01*
X151763359Y-83688080D01*
X151638175Y-83950901D01*
X151593524Y-84098110D01*
X118916476Y-84098110D01*
X118871825Y-83950901D01*
X118746641Y-83688080D01*
X118572588Y-83454731D01*
X118356355Y-83259822D01*
X118106252Y-83110843D01*
X117938202Y-83051231D01*
X118056202Y-83002353D01*
X118257167Y-82868073D01*
X118428073Y-82697167D01*
X118562353Y-82496202D01*
X118654847Y-82272903D01*
X118702000Y-82035849D01*
X118702000Y-81794151D01*
X118654847Y-81557097D01*
X118562353Y-81333798D01*
X118428073Y-81132833D01*
X118257167Y-80961927D01*
X118056202Y-80827647D01*
X117832903Y-80735153D01*
X117595849Y-80688000D01*
X117354151Y-80688000D01*
X117117097Y-80735153D01*
X116893798Y-80827647D01*
X116692833Y-80961927D01*
X116521927Y-81132833D01*
X116387647Y-81333798D01*
X116295153Y-81557097D01*
X116248000Y-81794151D01*
X116248000Y-82035849D01*
X116295153Y-82272903D01*
X116387647Y-82496202D01*
X116521927Y-82697167D01*
X116692833Y-82868073D01*
X116893798Y-83002353D01*
X117011798Y-83051231D01*
X116843748Y-83110843D01*
X116593645Y-83259822D01*
X116377412Y-83454731D01*
X116205000Y-83685880D01*
X116032588Y-83454731D01*
X115816355Y-83259822D01*
X115566252Y-83110843D01*
X115398202Y-83051231D01*
X115516202Y-83002353D01*
X115717167Y-82868073D01*
X115888073Y-82697167D01*
X116022353Y-82496202D01*
X116114847Y-82272903D01*
X116162000Y-82035849D01*
X116162000Y-81794151D01*
X116114847Y-81557097D01*
X116022353Y-81333798D01*
X115888073Y-81132833D01*
X115717167Y-80961927D01*
X115516202Y-80827647D01*
X115292903Y-80735153D01*
X115055849Y-80688000D01*
X114814151Y-80688000D01*
X114577097Y-80735153D01*
X114353798Y-80827647D01*
X114152833Y-80961927D01*
X113981927Y-81132833D01*
X113847647Y-81333798D01*
X113755153Y-81557097D01*
X113708000Y-81794151D01*
X113708000Y-82035849D01*
X113755153Y-82272903D01*
X113847647Y-82496202D01*
X113981927Y-82697167D01*
X114152833Y-82868073D01*
X114353798Y-83002353D01*
X114471798Y-83051231D01*
X114303748Y-83110843D01*
X114053645Y-83259822D01*
X113837412Y-83454731D01*
X113663359Y-83688080D01*
X113538175Y-83950901D01*
X113493524Y-84098110D01*
X102706000Y-84098110D01*
X102706000Y-78525000D01*
X113706176Y-78525000D01*
X113706176Y-80225000D01*
X113713455Y-80298905D01*
X113735012Y-80369970D01*
X113770019Y-80435463D01*
X113817131Y-80492869D01*
X113874537Y-80539981D01*
X113940030Y-80574988D01*
X114011095Y-80596545D01*
X114085000Y-80603824D01*
X115785000Y-80603824D01*
X115858905Y-80596545D01*
X115929970Y-80574988D01*
X115995463Y-80539981D01*
X116052869Y-80492869D01*
X116099981Y-80435463D01*
X116134988Y-80369970D01*
X116156545Y-80298905D01*
X116163824Y-80225000D01*
X116163824Y-79254151D01*
X116248000Y-79254151D01*
X116248000Y-79495849D01*
X116295153Y-79732903D01*
X116387647Y-79956202D01*
X116521927Y-80157167D01*
X116692833Y-80328073D01*
X116893798Y-80462353D01*
X117117097Y-80554847D01*
X117354151Y-80602000D01*
X117595849Y-80602000D01*
X117832903Y-80554847D01*
X118056202Y-80462353D01*
X118257167Y-80328073D01*
X118428073Y-80157167D01*
X118562353Y-79956202D01*
X118654847Y-79732903D01*
X118702000Y-79495849D01*
X118702000Y-79254151D01*
X118654847Y-79017097D01*
X118562353Y-78793798D01*
X118428073Y-78592833D01*
X118257167Y-78421927D01*
X118056202Y-78287647D01*
X117832903Y-78195153D01*
X117595849Y-78148000D01*
X117354151Y-78148000D01*
X117117097Y-78195153D01*
X116893798Y-78287647D01*
X116692833Y-78421927D01*
X116521927Y-78592833D01*
X116387647Y-78793798D01*
X116295153Y-79017097D01*
X116248000Y-79254151D01*
X116163824Y-79254151D01*
X116163824Y-78525000D01*
X116156545Y-78451095D01*
X116134988Y-78380030D01*
X116099981Y-78314537D01*
X116052869Y-78257131D01*
X115995463Y-78210019D01*
X115929970Y-78175012D01*
X115858905Y-78153455D01*
X115785000Y-78146176D01*
X114085000Y-78146176D01*
X114011095Y-78153455D01*
X113940030Y-78175012D01*
X113874537Y-78210019D01*
X113817131Y-78257131D01*
X113770019Y-78314537D01*
X113735012Y-78380030D01*
X113713455Y-78451095D01*
X113706176Y-78525000D01*
X102706000Y-78525000D01*
X102706000Y-76885472D01*
X129017000Y-76885472D01*
X129017000Y-77038528D01*
X129046859Y-77188643D01*
X129105431Y-77330048D01*
X129190464Y-77457309D01*
X129298691Y-77565536D01*
X129425952Y-77650569D01*
X129567357Y-77709141D01*
X129717472Y-77739000D01*
X129870528Y-77739000D01*
X130020643Y-77709141D01*
X130162048Y-77650569D01*
X130289309Y-77565536D01*
X130390845Y-77464000D01*
X132212225Y-77464000D01*
X132107357Y-77484859D01*
X131965952Y-77543431D01*
X131838691Y-77628464D01*
X131730464Y-77736691D01*
X131645431Y-77863952D01*
X131586859Y-78005357D01*
X131557000Y-78155472D01*
X131557000Y-78308528D01*
X131586859Y-78458643D01*
X131645431Y-78600048D01*
X131730464Y-78727309D01*
X131749155Y-78746000D01*
X130390845Y-78746000D01*
X130289309Y-78644464D01*
X130162048Y-78559431D01*
X130020643Y-78500859D01*
X129870528Y-78471000D01*
X129717472Y-78471000D01*
X129567357Y-78500859D01*
X129425952Y-78559431D01*
X129298691Y-78644464D01*
X129190464Y-78752691D01*
X129105431Y-78879952D01*
X129046859Y-79021357D01*
X129017000Y-79171472D01*
X129017000Y-79324528D01*
X129046859Y-79474643D01*
X129105431Y-79616048D01*
X129190464Y-79743309D01*
X129298691Y-79851536D01*
X129425952Y-79936569D01*
X129567357Y-79995141D01*
X129717472Y-80025000D01*
X129870528Y-80025000D01*
X130020643Y-79995141D01*
X130162048Y-79936569D01*
X130289309Y-79851536D01*
X130390845Y-79750000D01*
X131749155Y-79750000D01*
X131730464Y-79768691D01*
X131645431Y-79895952D01*
X131586859Y-80037357D01*
X131557000Y-80187472D01*
X131557000Y-80340528D01*
X131586859Y-80490643D01*
X131645431Y-80632048D01*
X131730464Y-80759309D01*
X131838691Y-80867536D01*
X131965952Y-80952569D01*
X132107357Y-81011141D01*
X132257472Y-81041000D01*
X132410528Y-81041000D01*
X132560643Y-81011141D01*
X132702048Y-80952569D01*
X132829309Y-80867536D01*
X132930845Y-80766000D01*
X148011357Y-80766000D01*
X148036000Y-80768427D01*
X148060643Y-80766000D01*
X148060653Y-80766000D01*
X148134409Y-80758736D01*
X148229036Y-80730031D01*
X148316245Y-80683417D01*
X148392684Y-80620684D01*
X148408401Y-80601533D01*
X149547543Y-79462393D01*
X149566684Y-79446684D01*
X149582392Y-79427544D01*
X149582400Y-79427536D01*
X149629417Y-79370246D01*
X149676030Y-79283037D01*
X149676031Y-79283036D01*
X149704736Y-79188409D01*
X149712000Y-79114653D01*
X149712000Y-79114643D01*
X149714427Y-79090000D01*
X149712000Y-79065357D01*
X149712000Y-78686845D01*
X149813536Y-78585309D01*
X149853833Y-78525000D01*
X151806176Y-78525000D01*
X151806176Y-80225000D01*
X151813455Y-80298905D01*
X151835012Y-80369970D01*
X151870019Y-80435463D01*
X151917131Y-80492869D01*
X151974537Y-80539981D01*
X152040030Y-80574988D01*
X152111095Y-80596545D01*
X152185000Y-80603824D01*
X153885000Y-80603824D01*
X153958905Y-80596545D01*
X154029970Y-80574988D01*
X154095463Y-80539981D01*
X154152869Y-80492869D01*
X154199981Y-80435463D01*
X154234988Y-80369970D01*
X154256545Y-80298905D01*
X154263824Y-80225000D01*
X154263824Y-79254151D01*
X154348000Y-79254151D01*
X154348000Y-79495849D01*
X154395153Y-79732903D01*
X154487647Y-79956202D01*
X154621927Y-80157167D01*
X154792833Y-80328073D01*
X154993798Y-80462353D01*
X155217097Y-80554847D01*
X155454151Y-80602000D01*
X155695849Y-80602000D01*
X155932903Y-80554847D01*
X156156202Y-80462353D01*
X156357167Y-80328073D01*
X156528073Y-80157167D01*
X156662353Y-79956202D01*
X156754847Y-79732903D01*
X156802000Y-79495849D01*
X156802000Y-79254151D01*
X156754847Y-79017097D01*
X156662353Y-78793798D01*
X156528073Y-78592833D01*
X156357167Y-78421927D01*
X156156202Y-78287647D01*
X155932903Y-78195153D01*
X155695849Y-78148000D01*
X155454151Y-78148000D01*
X155217097Y-78195153D01*
X154993798Y-78287647D01*
X154792833Y-78421927D01*
X154621927Y-78592833D01*
X154487647Y-78793798D01*
X154395153Y-79017097D01*
X154348000Y-79254151D01*
X154263824Y-79254151D01*
X154263824Y-78525000D01*
X154256545Y-78451095D01*
X154234988Y-78380030D01*
X154199981Y-78314537D01*
X154152869Y-78257131D01*
X154095463Y-78210019D01*
X154029970Y-78175012D01*
X153958905Y-78153455D01*
X153885000Y-78146176D01*
X152185000Y-78146176D01*
X152111095Y-78153455D01*
X152040030Y-78175012D01*
X151974537Y-78210019D01*
X151917131Y-78257131D01*
X151870019Y-78314537D01*
X151835012Y-78380030D01*
X151813455Y-78451095D01*
X151806176Y-78525000D01*
X149853833Y-78525000D01*
X149898569Y-78458048D01*
X149957141Y-78316643D01*
X149987000Y-78166528D01*
X149987000Y-78013472D01*
X149957141Y-77863357D01*
X149898569Y-77721952D01*
X149813536Y-77594691D01*
X149705309Y-77486464D01*
X149578048Y-77401431D01*
X149436643Y-77342859D01*
X149286528Y-77313000D01*
X149133472Y-77313000D01*
X148983357Y-77342859D01*
X148841952Y-77401431D01*
X148714691Y-77486464D01*
X148606464Y-77594691D01*
X148521431Y-77721952D01*
X148462859Y-77863357D01*
X148433000Y-78013472D01*
X148433000Y-78166528D01*
X148462859Y-78316643D01*
X148521431Y-78458048D01*
X148606464Y-78585309D01*
X148708001Y-78686846D01*
X148708001Y-78882063D01*
X147828066Y-79762000D01*
X132930845Y-79762000D01*
X132918845Y-79750000D01*
X146427357Y-79750000D01*
X146452000Y-79752427D01*
X146476643Y-79750000D01*
X146476653Y-79750000D01*
X146550409Y-79742736D01*
X146645036Y-79714031D01*
X146732245Y-79667417D01*
X146808684Y-79604684D01*
X146824401Y-79585533D01*
X147911543Y-78498393D01*
X147930684Y-78482684D01*
X147946392Y-78463544D01*
X147946400Y-78463536D01*
X147993417Y-78406246D01*
X148040031Y-78319037D01*
X148068736Y-78224410D01*
X148073601Y-78175012D01*
X148076000Y-78150653D01*
X148076000Y-78150646D01*
X148078427Y-78126000D01*
X148076000Y-78101355D01*
X148076000Y-74510845D01*
X148177536Y-74409309D01*
X148262569Y-74282048D01*
X148321141Y-74140643D01*
X148351000Y-73990528D01*
X148351000Y-73837472D01*
X148321141Y-73687357D01*
X148262569Y-73545952D01*
X148177536Y-73418691D01*
X148069309Y-73310464D01*
X147942048Y-73225431D01*
X147800643Y-73166859D01*
X147650528Y-73137000D01*
X147497472Y-73137000D01*
X147347357Y-73166859D01*
X147205952Y-73225431D01*
X147078691Y-73310464D01*
X146970464Y-73418691D01*
X146885431Y-73545952D01*
X146826859Y-73687357D01*
X146802000Y-73812335D01*
X146802000Y-73407934D01*
X149273044Y-70936890D01*
X151558524Y-70936890D01*
X151603175Y-71084099D01*
X151728359Y-71346920D01*
X151902412Y-71580269D01*
X152118645Y-71775178D01*
X152368748Y-71924157D01*
X152536798Y-71983769D01*
X152418798Y-72032647D01*
X152217833Y-72166927D01*
X152046927Y-72337833D01*
X151912647Y-72538798D01*
X151820153Y-72762097D01*
X151773000Y-72999151D01*
X151773000Y-73240849D01*
X151820153Y-73477903D01*
X151912647Y-73701202D01*
X152046927Y-73902167D01*
X152217833Y-74073073D01*
X152418798Y-74207353D01*
X152642097Y-74299847D01*
X152879151Y-74347000D01*
X153120849Y-74347000D01*
X153357903Y-74299847D01*
X153581202Y-74207353D01*
X153782167Y-74073073D01*
X153953073Y-73902167D01*
X154087353Y-73701202D01*
X154179847Y-73477903D01*
X154227000Y-73240849D01*
X154227000Y-72999151D01*
X154179847Y-72762097D01*
X154087353Y-72538798D01*
X153953073Y-72337833D01*
X153782167Y-72166927D01*
X153581202Y-72032647D01*
X153463202Y-71983769D01*
X153631252Y-71924157D01*
X153881355Y-71775178D01*
X154097588Y-71580269D01*
X154270000Y-71349120D01*
X154442412Y-71580269D01*
X154658645Y-71775178D01*
X154908748Y-71924157D01*
X155076798Y-71983769D01*
X154958798Y-72032647D01*
X154757833Y-72166927D01*
X154586927Y-72337833D01*
X154452647Y-72538798D01*
X154360153Y-72762097D01*
X154313000Y-72999151D01*
X154313000Y-73240849D01*
X154360153Y-73477903D01*
X154452647Y-73701202D01*
X154586927Y-73902167D01*
X154757833Y-74073073D01*
X154958798Y-74207353D01*
X155182097Y-74299847D01*
X155419151Y-74347000D01*
X155660849Y-74347000D01*
X155897903Y-74299847D01*
X156121202Y-74207353D01*
X156322167Y-74073073D01*
X156493073Y-73902167D01*
X156627353Y-73701202D01*
X156719847Y-73477903D01*
X156767000Y-73240849D01*
X156767000Y-72999151D01*
X156719847Y-72762097D01*
X156627353Y-72538798D01*
X156493073Y-72337833D01*
X156322167Y-72166927D01*
X156121202Y-72032647D01*
X156003202Y-71983769D01*
X156171252Y-71924157D01*
X156421355Y-71775178D01*
X156637588Y-71580269D01*
X156811641Y-71346920D01*
X156936825Y-71084099D01*
X156981476Y-70936890D01*
X156860155Y-70707000D01*
X155667000Y-70707000D01*
X155667000Y-70727000D01*
X155413000Y-70727000D01*
X155413000Y-70707000D01*
X153127000Y-70707000D01*
X153127000Y-70727000D01*
X152873000Y-70727000D01*
X152873000Y-70707000D01*
X151679845Y-70707000D01*
X151558524Y-70936890D01*
X149273044Y-70936890D01*
X149435538Y-70774397D01*
X149454684Y-70758684D01*
X149470397Y-70739538D01*
X149470400Y-70739535D01*
X149517417Y-70682246D01*
X149564031Y-70595037D01*
X149592736Y-70500410D01*
X149597479Y-70452246D01*
X149600000Y-70426653D01*
X149600000Y-70426646D01*
X149602427Y-70402000D01*
X149600000Y-70377355D01*
X149600000Y-70223110D01*
X151558524Y-70223110D01*
X151679845Y-70453000D01*
X152873000Y-70453000D01*
X152873000Y-70433000D01*
X153127000Y-70433000D01*
X153127000Y-70453000D01*
X155413000Y-70453000D01*
X155413000Y-70433000D01*
X155667000Y-70433000D01*
X155667000Y-70453000D01*
X156860155Y-70453000D01*
X156981476Y-70223110D01*
X156936825Y-70075901D01*
X156811641Y-69813080D01*
X156637588Y-69579731D01*
X156421355Y-69384822D01*
X156171252Y-69235843D01*
X156003202Y-69176231D01*
X156121202Y-69127353D01*
X156322167Y-68993073D01*
X156493073Y-68822167D01*
X156627353Y-68621202D01*
X156719847Y-68397903D01*
X156767000Y-68160849D01*
X156767000Y-67919151D01*
X156719847Y-67682097D01*
X156627353Y-67458798D01*
X156493073Y-67257833D01*
X156322167Y-67086927D01*
X156121202Y-66952647D01*
X155897903Y-66860153D01*
X155660849Y-66813000D01*
X155419151Y-66813000D01*
X155182097Y-66860153D01*
X154958798Y-66952647D01*
X154757833Y-67086927D01*
X154586927Y-67257833D01*
X154452647Y-67458798D01*
X154360153Y-67682097D01*
X154313000Y-67919151D01*
X154313000Y-68160849D01*
X154360153Y-68397903D01*
X154452647Y-68621202D01*
X154586927Y-68822167D01*
X154757833Y-68993073D01*
X154958798Y-69127353D01*
X155076798Y-69176231D01*
X154908748Y-69235843D01*
X154658645Y-69384822D01*
X154442412Y-69579731D01*
X154270000Y-69810880D01*
X154097588Y-69579731D01*
X153881355Y-69384822D01*
X153631252Y-69235843D01*
X153463202Y-69176231D01*
X153581202Y-69127353D01*
X153782167Y-68993073D01*
X153953073Y-68822167D01*
X154087353Y-68621202D01*
X154179847Y-68397903D01*
X154227000Y-68160849D01*
X154227000Y-67919151D01*
X154179847Y-67682097D01*
X154087353Y-67458798D01*
X153953073Y-67257833D01*
X153782167Y-67086927D01*
X153581202Y-66952647D01*
X153357903Y-66860153D01*
X153120849Y-66813000D01*
X152879151Y-66813000D01*
X152642097Y-66860153D01*
X152418798Y-66952647D01*
X152217833Y-67086927D01*
X152046927Y-67257833D01*
X151912647Y-67458798D01*
X151820153Y-67682097D01*
X151773000Y-67919151D01*
X151773000Y-68160849D01*
X151820153Y-68397903D01*
X151912647Y-68621202D01*
X152046927Y-68822167D01*
X152217833Y-68993073D01*
X152418798Y-69127353D01*
X152536798Y-69176231D01*
X152368748Y-69235843D01*
X152118645Y-69384822D01*
X151902412Y-69579731D01*
X151728359Y-69813080D01*
X151603175Y-70075901D01*
X151558524Y-70223110D01*
X149600000Y-70223110D01*
X149600000Y-64650000D01*
X151771176Y-64650000D01*
X151771176Y-66350000D01*
X151778455Y-66423905D01*
X151800012Y-66494970D01*
X151835019Y-66560463D01*
X151882131Y-66617869D01*
X151939537Y-66664981D01*
X152005030Y-66699988D01*
X152076095Y-66721545D01*
X152150000Y-66728824D01*
X153850000Y-66728824D01*
X153923905Y-66721545D01*
X153994970Y-66699988D01*
X154060463Y-66664981D01*
X154117869Y-66617869D01*
X154164981Y-66560463D01*
X154199988Y-66494970D01*
X154221545Y-66423905D01*
X154228824Y-66350000D01*
X154228824Y-65379151D01*
X154313000Y-65379151D01*
X154313000Y-65620849D01*
X154360153Y-65857903D01*
X154452647Y-66081202D01*
X154586927Y-66282167D01*
X154757833Y-66453073D01*
X154958798Y-66587353D01*
X155182097Y-66679847D01*
X155419151Y-66727000D01*
X155660849Y-66727000D01*
X155897903Y-66679847D01*
X156121202Y-66587353D01*
X156322167Y-66453073D01*
X156493073Y-66282167D01*
X156627353Y-66081202D01*
X156719847Y-65857903D01*
X156767000Y-65620849D01*
X156767000Y-65379151D01*
X156719847Y-65142097D01*
X156627353Y-64918798D01*
X156493073Y-64717833D01*
X156322167Y-64546927D01*
X156121202Y-64412647D01*
X155897903Y-64320153D01*
X155660849Y-64273000D01*
X155419151Y-64273000D01*
X155182097Y-64320153D01*
X154958798Y-64412647D01*
X154757833Y-64546927D01*
X154586927Y-64717833D01*
X154452647Y-64918798D01*
X154360153Y-65142097D01*
X154313000Y-65379151D01*
X154228824Y-65379151D01*
X154228824Y-64650000D01*
X154221545Y-64576095D01*
X154199988Y-64505030D01*
X154164981Y-64439537D01*
X154117869Y-64382131D01*
X154060463Y-64335019D01*
X153994970Y-64300012D01*
X153923905Y-64278455D01*
X153850000Y-64271176D01*
X152150000Y-64271176D01*
X152076095Y-64278455D01*
X152005030Y-64300012D01*
X151939537Y-64335019D01*
X151882131Y-64382131D01*
X151835019Y-64439537D01*
X151800012Y-64505030D01*
X151778455Y-64576095D01*
X151771176Y-64650000D01*
X149600000Y-64650000D01*
X149600000Y-58119934D01*
X150848044Y-56871890D01*
X151593524Y-56871890D01*
X151638175Y-57019099D01*
X151763359Y-57281920D01*
X151937412Y-57515269D01*
X152153645Y-57710178D01*
X152403748Y-57859157D01*
X152571798Y-57918769D01*
X152453798Y-57967647D01*
X152252833Y-58101927D01*
X152081927Y-58272833D01*
X151947647Y-58473798D01*
X151855153Y-58697097D01*
X151808000Y-58934151D01*
X151808000Y-59175849D01*
X151855153Y-59412903D01*
X151947647Y-59636202D01*
X152081927Y-59837167D01*
X152252833Y-60008073D01*
X152453798Y-60142353D01*
X152677097Y-60234847D01*
X152914151Y-60282000D01*
X153155849Y-60282000D01*
X153392903Y-60234847D01*
X153616202Y-60142353D01*
X153817167Y-60008073D01*
X153988073Y-59837167D01*
X154122353Y-59636202D01*
X154214847Y-59412903D01*
X154262000Y-59175849D01*
X154262000Y-58934151D01*
X154214847Y-58697097D01*
X154122353Y-58473798D01*
X153988073Y-58272833D01*
X153817167Y-58101927D01*
X153616202Y-57967647D01*
X153498202Y-57918769D01*
X153666252Y-57859157D01*
X153916355Y-57710178D01*
X154132588Y-57515269D01*
X154305000Y-57284120D01*
X154477412Y-57515269D01*
X154693645Y-57710178D01*
X154943748Y-57859157D01*
X155111798Y-57918769D01*
X154993798Y-57967647D01*
X154792833Y-58101927D01*
X154621927Y-58272833D01*
X154487647Y-58473798D01*
X154395153Y-58697097D01*
X154348000Y-58934151D01*
X154348000Y-59175849D01*
X154395153Y-59412903D01*
X154487647Y-59636202D01*
X154621927Y-59837167D01*
X154792833Y-60008073D01*
X154993798Y-60142353D01*
X155217097Y-60234847D01*
X155454151Y-60282000D01*
X155695849Y-60282000D01*
X155932903Y-60234847D01*
X156156202Y-60142353D01*
X156357167Y-60008073D01*
X156528073Y-59837167D01*
X156662353Y-59636202D01*
X156754847Y-59412903D01*
X156802000Y-59175849D01*
X156802000Y-58934151D01*
X156754847Y-58697097D01*
X156662353Y-58473798D01*
X156528073Y-58272833D01*
X156357167Y-58101927D01*
X156156202Y-57967647D01*
X156038202Y-57918769D01*
X156206252Y-57859157D01*
X156456355Y-57710178D01*
X156672588Y-57515269D01*
X156846641Y-57281920D01*
X156971825Y-57019099D01*
X157016476Y-56871890D01*
X156895155Y-56642000D01*
X155702000Y-56642000D01*
X155702000Y-56662000D01*
X155448000Y-56662000D01*
X155448000Y-56642000D01*
X153162000Y-56642000D01*
X153162000Y-56662000D01*
X152908000Y-56662000D01*
X152908000Y-56642000D01*
X151714845Y-56642000D01*
X151593524Y-56871890D01*
X150848044Y-56871890D01*
X151607325Y-56112610D01*
X151593524Y-56158110D01*
X151714845Y-56388000D01*
X152908000Y-56388000D01*
X152908000Y-56368000D01*
X153162000Y-56368000D01*
X153162000Y-56388000D01*
X155448000Y-56388000D01*
X155448000Y-56368000D01*
X155702000Y-56368000D01*
X155702000Y-56388000D01*
X156895155Y-56388000D01*
X157016476Y-56158110D01*
X156971825Y-56010901D01*
X156846641Y-55748080D01*
X156672588Y-55514731D01*
X156456355Y-55319822D01*
X156206252Y-55170843D01*
X156038202Y-55111231D01*
X156156202Y-55062353D01*
X156357167Y-54928073D01*
X156528073Y-54757167D01*
X156662353Y-54556202D01*
X156754847Y-54332903D01*
X156802000Y-54095849D01*
X156802000Y-53854151D01*
X156754847Y-53617097D01*
X156662353Y-53393798D01*
X156528073Y-53192833D01*
X156357167Y-53021927D01*
X156156202Y-52887647D01*
X155932903Y-52795153D01*
X155695849Y-52748000D01*
X155454151Y-52748000D01*
X155217097Y-52795153D01*
X154993798Y-52887647D01*
X154792833Y-53021927D01*
X154621927Y-53192833D01*
X154487647Y-53393798D01*
X154395153Y-53617097D01*
X154348000Y-53854151D01*
X154348000Y-54095849D01*
X154395153Y-54332903D01*
X154487647Y-54556202D01*
X154621927Y-54757167D01*
X154792833Y-54928073D01*
X154993798Y-55062353D01*
X155111798Y-55111231D01*
X154943748Y-55170843D01*
X154693645Y-55319822D01*
X154477412Y-55514731D01*
X154305000Y-55745880D01*
X154132588Y-55514731D01*
X153916355Y-55319822D01*
X153666252Y-55170843D01*
X153498202Y-55111231D01*
X153616202Y-55062353D01*
X153817167Y-54928073D01*
X153988073Y-54757167D01*
X154122353Y-54556202D01*
X154214847Y-54332903D01*
X154262000Y-54095849D01*
X154262000Y-53854151D01*
X154214847Y-53617097D01*
X154122353Y-53393798D01*
X153988073Y-53192833D01*
X153817167Y-53021927D01*
X153616202Y-52887647D01*
X153392903Y-52795153D01*
X153155849Y-52748000D01*
X152914151Y-52748000D01*
X152677097Y-52795153D01*
X152453798Y-52887647D01*
X152252833Y-53021927D01*
X152081927Y-53192833D01*
X151947647Y-53393798D01*
X151855153Y-53617097D01*
X151808000Y-53854151D01*
X151808000Y-54095849D01*
X151855153Y-54332903D01*
X151887960Y-54412105D01*
X148760463Y-57539603D01*
X148741317Y-57555316D01*
X148725604Y-57574462D01*
X148725601Y-57574465D01*
X148678584Y-57631755D01*
X148631970Y-57718964D01*
X148603265Y-57813591D01*
X148593573Y-57912000D01*
X148596001Y-57936653D01*
X148596000Y-70194065D01*
X145962463Y-72827603D01*
X145943317Y-72843316D01*
X145927604Y-72862462D01*
X145927601Y-72862465D01*
X145880584Y-72919755D01*
X145833970Y-73006964D01*
X145805265Y-73101591D01*
X145802000Y-73134743D01*
X145802000Y-72907934D01*
X148165538Y-70544397D01*
X148184684Y-70528684D01*
X148207889Y-70500410D01*
X148247416Y-70452246D01*
X148261096Y-70426653D01*
X148294031Y-70365036D01*
X148322736Y-70270409D01*
X148330000Y-70196653D01*
X148330000Y-70196643D01*
X148332427Y-70172000D01*
X148330000Y-70147357D01*
X148330000Y-55833934D01*
X151812700Y-52351235D01*
X151813455Y-52358905D01*
X151835012Y-52429970D01*
X151870019Y-52495463D01*
X151917131Y-52552869D01*
X151974537Y-52599981D01*
X152040030Y-52634988D01*
X152111095Y-52656545D01*
X152185000Y-52663824D01*
X153885000Y-52663824D01*
X153958905Y-52656545D01*
X154029970Y-52634988D01*
X154095463Y-52599981D01*
X154152869Y-52552869D01*
X154199981Y-52495463D01*
X154234988Y-52429970D01*
X154256545Y-52358905D01*
X154263824Y-52285000D01*
X154263824Y-51314151D01*
X154348000Y-51314151D01*
X154348000Y-51555849D01*
X154395153Y-51792903D01*
X154487647Y-52016202D01*
X154621927Y-52217167D01*
X154792833Y-52388073D01*
X154993798Y-52522353D01*
X155217097Y-52614847D01*
X155454151Y-52662000D01*
X155695849Y-52662000D01*
X155932903Y-52614847D01*
X156156202Y-52522353D01*
X156357167Y-52388073D01*
X156528073Y-52217167D01*
X156662353Y-52016202D01*
X156754847Y-51792903D01*
X156802000Y-51555849D01*
X156802000Y-51314151D01*
X156754847Y-51077097D01*
X156662353Y-50853798D01*
X156528073Y-50652833D01*
X156357167Y-50481927D01*
X156156202Y-50347647D01*
X155932903Y-50255153D01*
X155695849Y-50208000D01*
X155454151Y-50208000D01*
X155217097Y-50255153D01*
X154993798Y-50347647D01*
X154792833Y-50481927D01*
X154621927Y-50652833D01*
X154487647Y-50853798D01*
X154395153Y-51077097D01*
X154348000Y-51314151D01*
X154263824Y-51314151D01*
X154263824Y-50585000D01*
X154256545Y-50511095D01*
X154234988Y-50440030D01*
X154199981Y-50374537D01*
X154152869Y-50317131D01*
X154095463Y-50270019D01*
X154029970Y-50235012D01*
X153958905Y-50213455D01*
X153885000Y-50206176D01*
X152185000Y-50206176D01*
X152111095Y-50213455D01*
X152040030Y-50235012D01*
X151974537Y-50270019D01*
X151917131Y-50317131D01*
X151870019Y-50374537D01*
X151835012Y-50440030D01*
X151813455Y-50511095D01*
X151806176Y-50585000D01*
X151806176Y-50979546D01*
X151738755Y-51015583D01*
X151662316Y-51078316D01*
X151646603Y-51097462D01*
X147490468Y-55253598D01*
X147471316Y-55269316D01*
X147408583Y-55345755D01*
X147361969Y-55432965D01*
X147333264Y-55527592D01*
X147326000Y-55601348D01*
X147326000Y-55601357D01*
X147323573Y-55626000D01*
X147326000Y-55650643D01*
X147326001Y-69964064D01*
X144962468Y-72327598D01*
X144943316Y-72343316D01*
X144880583Y-72419755D01*
X144833969Y-72506965D01*
X144805264Y-72601592D01*
X144798000Y-72675348D01*
X144798000Y-72675357D01*
X144795573Y-72700000D01*
X144798000Y-72724643D01*
X144798001Y-75592064D01*
X143930066Y-76460000D01*
X130390845Y-76460000D01*
X130289309Y-76358464D01*
X130162048Y-76273431D01*
X130020643Y-76214859D01*
X129870528Y-76185000D01*
X129717472Y-76185000D01*
X129567357Y-76214859D01*
X129425952Y-76273431D01*
X129298691Y-76358464D01*
X129190464Y-76466691D01*
X129105431Y-76593952D01*
X129046859Y-76735357D01*
X129017000Y-76885472D01*
X102706000Y-76885472D01*
X102706000Y-70841890D01*
X113493524Y-70841890D01*
X113538175Y-70989099D01*
X113663359Y-71251920D01*
X113837412Y-71485269D01*
X114053645Y-71680178D01*
X114303748Y-71829157D01*
X114471798Y-71888769D01*
X114353798Y-71937647D01*
X114152833Y-72071927D01*
X113981927Y-72242833D01*
X113847647Y-72443798D01*
X113755153Y-72667097D01*
X113708000Y-72904151D01*
X113708000Y-73145849D01*
X113755153Y-73382903D01*
X113847647Y-73606202D01*
X113981927Y-73807167D01*
X114152833Y-73978073D01*
X114353798Y-74112353D01*
X114577097Y-74204847D01*
X114814151Y-74252000D01*
X115055849Y-74252000D01*
X115292903Y-74204847D01*
X115516202Y-74112353D01*
X115717167Y-73978073D01*
X115888073Y-73807167D01*
X116022353Y-73606202D01*
X116114847Y-73382903D01*
X116162000Y-73145849D01*
X116162000Y-72904151D01*
X116114847Y-72667097D01*
X116022353Y-72443798D01*
X115888073Y-72242833D01*
X115717167Y-72071927D01*
X115516202Y-71937647D01*
X115398202Y-71888769D01*
X115566252Y-71829157D01*
X115816355Y-71680178D01*
X116032588Y-71485269D01*
X116205000Y-71254120D01*
X116377412Y-71485269D01*
X116593645Y-71680178D01*
X116843748Y-71829157D01*
X117011798Y-71888769D01*
X116893798Y-71937647D01*
X116692833Y-72071927D01*
X116521927Y-72242833D01*
X116387647Y-72443798D01*
X116295153Y-72667097D01*
X116248000Y-72904151D01*
X116248000Y-73145849D01*
X116295153Y-73382903D01*
X116387647Y-73606202D01*
X116521927Y-73807167D01*
X116692833Y-73978073D01*
X116893798Y-74112353D01*
X117117097Y-74204847D01*
X117354151Y-74252000D01*
X117595849Y-74252000D01*
X117832903Y-74204847D01*
X118056202Y-74112353D01*
X118257167Y-73978073D01*
X118428073Y-73807167D01*
X118562353Y-73606202D01*
X118654847Y-73382903D01*
X118702000Y-73145849D01*
X118702000Y-72904151D01*
X118654847Y-72667097D01*
X118562353Y-72443798D01*
X118428073Y-72242833D01*
X118257167Y-72071927D01*
X118056202Y-71937647D01*
X117938202Y-71888769D01*
X118106252Y-71829157D01*
X118356355Y-71680178D01*
X118572588Y-71485269D01*
X118746641Y-71251920D01*
X118871825Y-70989099D01*
X118916476Y-70841890D01*
X118795155Y-70612000D01*
X117602000Y-70612000D01*
X117602000Y-70632000D01*
X117348000Y-70632000D01*
X117348000Y-70612000D01*
X115062000Y-70612000D01*
X115062000Y-70632000D01*
X114808000Y-70632000D01*
X114808000Y-70612000D01*
X113614845Y-70612000D01*
X113493524Y-70841890D01*
X102706000Y-70841890D01*
X102706000Y-70128110D01*
X113493524Y-70128110D01*
X113614845Y-70358000D01*
X114808000Y-70358000D01*
X114808000Y-70338000D01*
X115062000Y-70338000D01*
X115062000Y-70358000D01*
X117348000Y-70358000D01*
X117348000Y-70338000D01*
X117602000Y-70338000D01*
X117602000Y-70358000D01*
X118795155Y-70358000D01*
X118916476Y-70128110D01*
X118871825Y-69980901D01*
X118746641Y-69718080D01*
X118572588Y-69484731D01*
X118356355Y-69289822D01*
X118106252Y-69140843D01*
X117938202Y-69081231D01*
X118056202Y-69032353D01*
X118257167Y-68898073D01*
X118428073Y-68727167D01*
X118562353Y-68526202D01*
X118654847Y-68302903D01*
X118702000Y-68065849D01*
X118702000Y-67824151D01*
X118654847Y-67587097D01*
X118562353Y-67363798D01*
X118428073Y-67162833D01*
X118257167Y-66991927D01*
X118056202Y-66857647D01*
X117832903Y-66765153D01*
X117633414Y-66725472D01*
X125207000Y-66725472D01*
X125207000Y-66878528D01*
X125236859Y-67028643D01*
X125295431Y-67170048D01*
X125380464Y-67297309D01*
X125488691Y-67405536D01*
X125615952Y-67490569D01*
X125757357Y-67549141D01*
X125907472Y-67579000D01*
X126060528Y-67579000D01*
X126210643Y-67549141D01*
X126352048Y-67490569D01*
X126479309Y-67405536D01*
X126587536Y-67297309D01*
X126672569Y-67170048D01*
X126731141Y-67028643D01*
X126761000Y-66878528D01*
X126761000Y-66725472D01*
X126731141Y-66575357D01*
X126672569Y-66433952D01*
X126587536Y-66306691D01*
X126479309Y-66198464D01*
X126352048Y-66113431D01*
X126210643Y-66054859D01*
X126060528Y-66025000D01*
X125907472Y-66025000D01*
X125757357Y-66054859D01*
X125615952Y-66113431D01*
X125488691Y-66198464D01*
X125380464Y-66306691D01*
X125295431Y-66433952D01*
X125236859Y-66575357D01*
X125207000Y-66725472D01*
X117633414Y-66725472D01*
X117595849Y-66718000D01*
X117354151Y-66718000D01*
X117117097Y-66765153D01*
X116893798Y-66857647D01*
X116692833Y-66991927D01*
X116521927Y-67162833D01*
X116387647Y-67363798D01*
X116295153Y-67587097D01*
X116248000Y-67824151D01*
X116248000Y-68065849D01*
X116295153Y-68302903D01*
X116387647Y-68526202D01*
X116521927Y-68727167D01*
X116692833Y-68898073D01*
X116893798Y-69032353D01*
X117011798Y-69081231D01*
X116843748Y-69140843D01*
X116593645Y-69289822D01*
X116377412Y-69484731D01*
X116205000Y-69715880D01*
X116032588Y-69484731D01*
X115816355Y-69289822D01*
X115566252Y-69140843D01*
X115398202Y-69081231D01*
X115516202Y-69032353D01*
X115717167Y-68898073D01*
X115888073Y-68727167D01*
X116022353Y-68526202D01*
X116114847Y-68302903D01*
X116162000Y-68065849D01*
X116162000Y-67824151D01*
X116114847Y-67587097D01*
X116022353Y-67363798D01*
X115888073Y-67162833D01*
X115717167Y-66991927D01*
X115516202Y-66857647D01*
X115292903Y-66765153D01*
X115055849Y-66718000D01*
X114814151Y-66718000D01*
X114577097Y-66765153D01*
X114353798Y-66857647D01*
X114152833Y-66991927D01*
X113981927Y-67162833D01*
X113847647Y-67363798D01*
X113755153Y-67587097D01*
X113708000Y-67824151D01*
X113708000Y-68065849D01*
X113755153Y-68302903D01*
X113847647Y-68526202D01*
X113981927Y-68727167D01*
X114152833Y-68898073D01*
X114353798Y-69032353D01*
X114471798Y-69081231D01*
X114303748Y-69140843D01*
X114053645Y-69289822D01*
X113837412Y-69484731D01*
X113663359Y-69718080D01*
X113538175Y-69980901D01*
X113493524Y-70128110D01*
X102706000Y-70128110D01*
X102706000Y-64555000D01*
X113706176Y-64555000D01*
X113706176Y-66255000D01*
X113713455Y-66328905D01*
X113735012Y-66399970D01*
X113770019Y-66465463D01*
X113817131Y-66522869D01*
X113874537Y-66569981D01*
X113940030Y-66604988D01*
X114011095Y-66626545D01*
X114085000Y-66633824D01*
X115785000Y-66633824D01*
X115858905Y-66626545D01*
X115929970Y-66604988D01*
X115995463Y-66569981D01*
X116052869Y-66522869D01*
X116099981Y-66465463D01*
X116134988Y-66399970D01*
X116156545Y-66328905D01*
X116163824Y-66255000D01*
X116163824Y-65284151D01*
X116248000Y-65284151D01*
X116248000Y-65525849D01*
X116295153Y-65762903D01*
X116387647Y-65986202D01*
X116521927Y-66187167D01*
X116692833Y-66358073D01*
X116893798Y-66492353D01*
X117117097Y-66584847D01*
X117354151Y-66632000D01*
X117595849Y-66632000D01*
X117832903Y-66584847D01*
X118056202Y-66492353D01*
X118257167Y-66358073D01*
X118428073Y-66187167D01*
X118562353Y-65986202D01*
X118654847Y-65762903D01*
X118702000Y-65525849D01*
X118702000Y-65284151D01*
X118654847Y-65047097D01*
X118562353Y-64823798D01*
X118428073Y-64622833D01*
X118257167Y-64451927D01*
X118056202Y-64317647D01*
X117832903Y-64225153D01*
X117595849Y-64178000D01*
X117354151Y-64178000D01*
X117117097Y-64225153D01*
X116893798Y-64317647D01*
X116692833Y-64451927D01*
X116521927Y-64622833D01*
X116387647Y-64823798D01*
X116295153Y-65047097D01*
X116248000Y-65284151D01*
X116163824Y-65284151D01*
X116163824Y-64555000D01*
X116156545Y-64481095D01*
X116134988Y-64410030D01*
X116099981Y-64344537D01*
X116052869Y-64287131D01*
X115995463Y-64240019D01*
X115929970Y-64205012D01*
X115858905Y-64183455D01*
X115785000Y-64176176D01*
X114085000Y-64176176D01*
X114011095Y-64183455D01*
X113940030Y-64205012D01*
X113874537Y-64240019D01*
X113817131Y-64287131D01*
X113770019Y-64344537D01*
X113735012Y-64410030D01*
X113713455Y-64481095D01*
X113706176Y-64555000D01*
X102706000Y-64555000D01*
X102706000Y-63296472D01*
X121270000Y-63296472D01*
X121270000Y-63449528D01*
X121299859Y-63599643D01*
X121358431Y-63741048D01*
X121443464Y-63868309D01*
X121551691Y-63976536D01*
X121678952Y-64061569D01*
X121820357Y-64120141D01*
X121970472Y-64150000D01*
X122123528Y-64150000D01*
X122273643Y-64120141D01*
X122415048Y-64061569D01*
X122542309Y-63976536D01*
X122643845Y-63875000D01*
X128165066Y-63875000D01*
X129127607Y-64837543D01*
X129143316Y-64856684D01*
X129162456Y-64872392D01*
X129162464Y-64872400D01*
X129193657Y-64898000D01*
X125380843Y-64898000D01*
X125310308Y-64827465D01*
X125183047Y-64742432D01*
X125041642Y-64683860D01*
X124891527Y-64654001D01*
X124738471Y-64654001D01*
X124588356Y-64683860D01*
X124446951Y-64742432D01*
X124319690Y-64827465D01*
X124211463Y-64935692D01*
X124126430Y-65062953D01*
X124067858Y-65204358D01*
X124037999Y-65354473D01*
X124037999Y-65507529D01*
X124067858Y-65657644D01*
X124126430Y-65799049D01*
X124211463Y-65926310D01*
X124319690Y-66034537D01*
X124446951Y-66119570D01*
X124588356Y-66178142D01*
X124738471Y-66208001D01*
X124891527Y-66208001D01*
X125041642Y-66178142D01*
X125183047Y-66119570D01*
X125310308Y-66034537D01*
X125418535Y-65926310D01*
X125434778Y-65902000D01*
X129203155Y-65902000D01*
X129304691Y-66003536D01*
X129431952Y-66088569D01*
X129573357Y-66147141D01*
X129723472Y-66177000D01*
X129876528Y-66177000D01*
X130026643Y-66147141D01*
X130168048Y-66088569D01*
X130295309Y-66003536D01*
X130403536Y-65895309D01*
X130488569Y-65768048D01*
X130547141Y-65626643D01*
X130577000Y-65476528D01*
X130577000Y-65323472D01*
X130547141Y-65173357D01*
X130488569Y-65031952D01*
X130468556Y-65002000D01*
X131703155Y-65002000D01*
X131804691Y-65103536D01*
X131931952Y-65188569D01*
X132073357Y-65247141D01*
X132223472Y-65277000D01*
X132376528Y-65277000D01*
X132526643Y-65247141D01*
X132668048Y-65188569D01*
X132795309Y-65103536D01*
X132903536Y-64995309D01*
X132988569Y-64868048D01*
X133047141Y-64726643D01*
X133077000Y-64576528D01*
X133077000Y-64423472D01*
X133047141Y-64273357D01*
X132988569Y-64131952D01*
X132903536Y-64004691D01*
X132795309Y-63896464D01*
X132668048Y-63811431D01*
X132526643Y-63752859D01*
X132376528Y-63723000D01*
X132223472Y-63723000D01*
X132073357Y-63752859D01*
X131931952Y-63811431D01*
X131804691Y-63896464D01*
X131703155Y-63998000D01*
X129707936Y-63998000D01*
X128745401Y-63035467D01*
X128729684Y-63016316D01*
X128653245Y-62953583D01*
X128566036Y-62906969D01*
X128471409Y-62878264D01*
X128397653Y-62871000D01*
X128397643Y-62871000D01*
X128373000Y-62868573D01*
X128348357Y-62871000D01*
X122643845Y-62871000D01*
X122542309Y-62769464D01*
X122415048Y-62684431D01*
X122273643Y-62625859D01*
X122123528Y-62596000D01*
X121970472Y-62596000D01*
X121820357Y-62625859D01*
X121678952Y-62684431D01*
X121551691Y-62769464D01*
X121443464Y-62877691D01*
X121358431Y-63004952D01*
X121299859Y-63146357D01*
X121270000Y-63296472D01*
X102706000Y-63296472D01*
X102706000Y-61137472D01*
X119111000Y-61137472D01*
X119111000Y-61290528D01*
X119140859Y-61440643D01*
X119199431Y-61582048D01*
X119284464Y-61709309D01*
X119392691Y-61817536D01*
X119519952Y-61902569D01*
X119661357Y-61961141D01*
X119811472Y-61991000D01*
X119964528Y-61991000D01*
X120114643Y-61961141D01*
X120256048Y-61902569D01*
X120383309Y-61817536D01*
X120484845Y-61716000D01*
X128206066Y-61716000D01*
X129023000Y-62532935D01*
X129023000Y-62676528D01*
X129052859Y-62826643D01*
X129111431Y-62968048D01*
X129196464Y-63095309D01*
X129304691Y-63203536D01*
X129431952Y-63288569D01*
X129573357Y-63347141D01*
X129723472Y-63377000D01*
X129876528Y-63377000D01*
X130026643Y-63347141D01*
X130168048Y-63288569D01*
X130295309Y-63203536D01*
X130403536Y-63095309D01*
X130488569Y-62968048D01*
X130547141Y-62826643D01*
X130577000Y-62676528D01*
X130577000Y-62523472D01*
X130547141Y-62373357D01*
X130488569Y-62231952D01*
X130403536Y-62104691D01*
X130295309Y-61996464D01*
X130168048Y-61911431D01*
X130026643Y-61852859D01*
X129876528Y-61823000D01*
X129732935Y-61823000D01*
X128786401Y-60876467D01*
X128770684Y-60857316D01*
X128694245Y-60794583D01*
X128607036Y-60747969D01*
X128512409Y-60719264D01*
X128438653Y-60712000D01*
X128438643Y-60712000D01*
X128414000Y-60709573D01*
X128389357Y-60712000D01*
X120484845Y-60712000D01*
X120383309Y-60610464D01*
X120256048Y-60525431D01*
X120114643Y-60466859D01*
X119964528Y-60437000D01*
X119811472Y-60437000D01*
X119661357Y-60466859D01*
X119519952Y-60525431D01*
X119392691Y-60610464D01*
X119284464Y-60718691D01*
X119199431Y-60845952D01*
X119140859Y-60987357D01*
X119111000Y-61137472D01*
X102706000Y-61137472D01*
X102706000Y-56871890D01*
X113493524Y-56871890D01*
X113538175Y-57019099D01*
X113663359Y-57281920D01*
X113837412Y-57515269D01*
X114053645Y-57710178D01*
X114303748Y-57859157D01*
X114471798Y-57918769D01*
X114353798Y-57967647D01*
X114152833Y-58101927D01*
X113981927Y-58272833D01*
X113847647Y-58473798D01*
X113755153Y-58697097D01*
X113708000Y-58934151D01*
X113708000Y-59175849D01*
X113755153Y-59412903D01*
X113847647Y-59636202D01*
X113981927Y-59837167D01*
X114152833Y-60008073D01*
X114353798Y-60142353D01*
X114577097Y-60234847D01*
X114814151Y-60282000D01*
X115055849Y-60282000D01*
X115292903Y-60234847D01*
X115516202Y-60142353D01*
X115717167Y-60008073D01*
X115888073Y-59837167D01*
X116022353Y-59636202D01*
X116114847Y-59412903D01*
X116162000Y-59175849D01*
X116162000Y-58934151D01*
X116114847Y-58697097D01*
X116022353Y-58473798D01*
X115888073Y-58272833D01*
X115717167Y-58101927D01*
X115516202Y-57967647D01*
X115398202Y-57918769D01*
X115566252Y-57859157D01*
X115816355Y-57710178D01*
X116032588Y-57515269D01*
X116205000Y-57284120D01*
X116377412Y-57515269D01*
X116593645Y-57710178D01*
X116843748Y-57859157D01*
X117011798Y-57918769D01*
X116893798Y-57967647D01*
X116692833Y-58101927D01*
X116521927Y-58272833D01*
X116387647Y-58473798D01*
X116295153Y-58697097D01*
X116248000Y-58934151D01*
X116248000Y-59175849D01*
X116295153Y-59412903D01*
X116387647Y-59636202D01*
X116521927Y-59837167D01*
X116692833Y-60008073D01*
X116893798Y-60142353D01*
X117117097Y-60234847D01*
X117354151Y-60282000D01*
X117595849Y-60282000D01*
X117832903Y-60234847D01*
X118056202Y-60142353D01*
X118257167Y-60008073D01*
X118428073Y-59837167D01*
X118562353Y-59636202D01*
X118654847Y-59412903D01*
X118702000Y-59175849D01*
X118702000Y-58934151D01*
X118654847Y-58697097D01*
X118562353Y-58473798D01*
X118428073Y-58272833D01*
X118257167Y-58101927D01*
X118056202Y-57967647D01*
X117938202Y-57918769D01*
X118106252Y-57859157D01*
X118356355Y-57710178D01*
X118572588Y-57515269D01*
X118746641Y-57281920D01*
X118871825Y-57019099D01*
X118916476Y-56871890D01*
X118795155Y-56642000D01*
X117602000Y-56642000D01*
X117602000Y-56662000D01*
X117348000Y-56662000D01*
X117348000Y-56642000D01*
X115062000Y-56642000D01*
X115062000Y-56662000D01*
X114808000Y-56662000D01*
X114808000Y-56642000D01*
X113614845Y-56642000D01*
X113493524Y-56871890D01*
X102706000Y-56871890D01*
X102706000Y-56158110D01*
X113493524Y-56158110D01*
X113614845Y-56388000D01*
X114808000Y-56388000D01*
X114808000Y-56368000D01*
X115062000Y-56368000D01*
X115062000Y-56388000D01*
X117348000Y-56388000D01*
X117348000Y-56368000D01*
X117602000Y-56368000D01*
X117602000Y-56388000D01*
X118795155Y-56388000D01*
X118916476Y-56158110D01*
X118871825Y-56010901D01*
X118746641Y-55748080D01*
X118572588Y-55514731D01*
X118356355Y-55319822D01*
X118106252Y-55170843D01*
X117938202Y-55111231D01*
X118056202Y-55062353D01*
X118257167Y-54928073D01*
X118428073Y-54757167D01*
X118562353Y-54556202D01*
X118654847Y-54332903D01*
X118680885Y-54202000D01*
X131703155Y-54202000D01*
X131804691Y-54303536D01*
X131931952Y-54388569D01*
X132073357Y-54447141D01*
X132223472Y-54477000D01*
X132376528Y-54477000D01*
X132526643Y-54447141D01*
X132668048Y-54388569D01*
X132795309Y-54303536D01*
X132903536Y-54195309D01*
X132988569Y-54068048D01*
X133047141Y-53926643D01*
X133077000Y-53776528D01*
X133077000Y-53623472D01*
X133047141Y-53473357D01*
X132988569Y-53331952D01*
X132903536Y-53204691D01*
X132795309Y-53096464D01*
X132668048Y-53011431D01*
X132526643Y-52952859D01*
X132376528Y-52923000D01*
X132223472Y-52923000D01*
X132073357Y-52952859D01*
X131931952Y-53011431D01*
X131804691Y-53096464D01*
X131703155Y-53198000D01*
X130400845Y-53198000D01*
X130403536Y-53195309D01*
X130488569Y-53068048D01*
X130547141Y-52926643D01*
X130577000Y-52776528D01*
X130577000Y-52623472D01*
X130547141Y-52473357D01*
X130488569Y-52331952D01*
X130403536Y-52204691D01*
X130295309Y-52096464D01*
X130168048Y-52011431D01*
X130026643Y-51952859D01*
X129876528Y-51923000D01*
X129723472Y-51923000D01*
X129573357Y-51952859D01*
X129431952Y-52011431D01*
X129304691Y-52096464D01*
X129203155Y-52198000D01*
X127207935Y-52198000D01*
X126107401Y-51097467D01*
X126091684Y-51078316D01*
X126015245Y-51015583D01*
X125928036Y-50968969D01*
X125833409Y-50940264D01*
X125759653Y-50933000D01*
X125759643Y-50933000D01*
X125735000Y-50930573D01*
X125710357Y-50933000D01*
X118595160Y-50933000D01*
X118562353Y-50853798D01*
X118428073Y-50652833D01*
X118398712Y-50623472D01*
X129023000Y-50623472D01*
X129023000Y-50776528D01*
X129052859Y-50926643D01*
X129111431Y-51068048D01*
X129196464Y-51195309D01*
X129304691Y-51303536D01*
X129431952Y-51388569D01*
X129573357Y-51447141D01*
X129723472Y-51477000D01*
X129876528Y-51477000D01*
X130026643Y-51447141D01*
X130168048Y-51388569D01*
X130295309Y-51303536D01*
X130396845Y-51202000D01*
X131699155Y-51202000D01*
X131696464Y-51204691D01*
X131611431Y-51331952D01*
X131552859Y-51473357D01*
X131523000Y-51623472D01*
X131523000Y-51776528D01*
X131552859Y-51926643D01*
X131611431Y-52068048D01*
X131696464Y-52195309D01*
X131804691Y-52303536D01*
X131931952Y-52388569D01*
X132073357Y-52447141D01*
X132223472Y-52477000D01*
X132376528Y-52477000D01*
X132526643Y-52447141D01*
X132668048Y-52388569D01*
X132795309Y-52303536D01*
X132896845Y-52202000D01*
X138210355Y-52202000D01*
X138234998Y-52204427D01*
X138259641Y-52202000D01*
X138259651Y-52202000D01*
X138333407Y-52194736D01*
X138428034Y-52166031D01*
X138515243Y-52119417D01*
X138591682Y-52056684D01*
X138607400Y-52037532D01*
X145282539Y-45362394D01*
X145301685Y-45346681D01*
X145321090Y-45323037D01*
X145348740Y-45289345D01*
X145364418Y-45270242D01*
X145411032Y-45183033D01*
X145439737Y-45088406D01*
X145447001Y-45014650D01*
X145447001Y-45014641D01*
X145449428Y-44989998D01*
X145447001Y-44965355D01*
X145447001Y-44122241D01*
X145527833Y-44203073D01*
X145728798Y-44337353D01*
X145952097Y-44429847D01*
X146189151Y-44477000D01*
X146430849Y-44477000D01*
X146667903Y-44429847D01*
X146891202Y-44337353D01*
X147092167Y-44203073D01*
X147263073Y-44032167D01*
X147397353Y-43831202D01*
X147489847Y-43607903D01*
X147537000Y-43370849D01*
X147537000Y-43129151D01*
X147623000Y-43129151D01*
X147623000Y-43370849D01*
X147670153Y-43607903D01*
X147762647Y-43831202D01*
X147896927Y-44032167D01*
X148067833Y-44203073D01*
X148268798Y-44337353D01*
X148492097Y-44429847D01*
X148729151Y-44477000D01*
X148970849Y-44477000D01*
X149207903Y-44429847D01*
X149431202Y-44337353D01*
X149632167Y-44203073D01*
X149803073Y-44032167D01*
X149937353Y-43831202D01*
X150029847Y-43607903D01*
X150077000Y-43370849D01*
X150077000Y-43129151D01*
X150163000Y-43129151D01*
X150163000Y-43370849D01*
X150210153Y-43607903D01*
X150302647Y-43831202D01*
X150436927Y-44032167D01*
X150607833Y-44203073D01*
X150808798Y-44337353D01*
X151032097Y-44429847D01*
X151269151Y-44477000D01*
X151510849Y-44477000D01*
X151747903Y-44429847D01*
X151971202Y-44337353D01*
X152172167Y-44203073D01*
X152343073Y-44032167D01*
X152477353Y-43831202D01*
X152569847Y-43607903D01*
X152617000Y-43370849D01*
X152617000Y-43129151D01*
X152703000Y-43129151D01*
X152703000Y-43370849D01*
X152750153Y-43607903D01*
X152842647Y-43831202D01*
X152976927Y-44032167D01*
X153147833Y-44203073D01*
X153348798Y-44337353D01*
X153572097Y-44429847D01*
X153809151Y-44477000D01*
X154050849Y-44477000D01*
X154287903Y-44429847D01*
X154511202Y-44337353D01*
X154712167Y-44203073D01*
X154883073Y-44032167D01*
X155017353Y-43831202D01*
X155109847Y-43607903D01*
X155157000Y-43370849D01*
X155157000Y-43129151D01*
X155243000Y-43129151D01*
X155243000Y-43370849D01*
X155290153Y-43607903D01*
X155382647Y-43831202D01*
X155516927Y-44032167D01*
X155687833Y-44203073D01*
X155888798Y-44337353D01*
X156112097Y-44429847D01*
X156349151Y-44477000D01*
X156590849Y-44477000D01*
X156827903Y-44429847D01*
X157051202Y-44337353D01*
X157252167Y-44203073D01*
X157423073Y-44032167D01*
X157557353Y-43831202D01*
X157649847Y-43607903D01*
X157697000Y-43370849D01*
X157697000Y-43129151D01*
X157783000Y-43129151D01*
X157783000Y-43370849D01*
X157830153Y-43607903D01*
X157922647Y-43831202D01*
X158056927Y-44032167D01*
X158227833Y-44203073D01*
X158428798Y-44337353D01*
X158652097Y-44429847D01*
X158889151Y-44477000D01*
X159130849Y-44477000D01*
X159367903Y-44429847D01*
X159591202Y-44337353D01*
X159792167Y-44203073D01*
X159963073Y-44032167D01*
X160097353Y-43831202D01*
X160189847Y-43607903D01*
X160237000Y-43370849D01*
X160237000Y-43129151D01*
X160189847Y-42892097D01*
X160097353Y-42668798D01*
X159963073Y-42467833D01*
X159792167Y-42296927D01*
X159591202Y-42162647D01*
X159367903Y-42070153D01*
X159130849Y-42023000D01*
X158889151Y-42023000D01*
X158652097Y-42070153D01*
X158428798Y-42162647D01*
X158227833Y-42296927D01*
X158056927Y-42467833D01*
X157922647Y-42668798D01*
X157830153Y-42892097D01*
X157783000Y-43129151D01*
X157697000Y-43129151D01*
X157649847Y-42892097D01*
X157557353Y-42668798D01*
X157423073Y-42467833D01*
X157252167Y-42296927D01*
X157051202Y-42162647D01*
X156827903Y-42070153D01*
X156590849Y-42023000D01*
X156349151Y-42023000D01*
X156112097Y-42070153D01*
X155888798Y-42162647D01*
X155687833Y-42296927D01*
X155516927Y-42467833D01*
X155382647Y-42668798D01*
X155290153Y-42892097D01*
X155243000Y-43129151D01*
X155157000Y-43129151D01*
X155109847Y-42892097D01*
X155017353Y-42668798D01*
X154883073Y-42467833D01*
X154712167Y-42296927D01*
X154511202Y-42162647D01*
X154287903Y-42070153D01*
X154050849Y-42023000D01*
X153809151Y-42023000D01*
X153572097Y-42070153D01*
X153348798Y-42162647D01*
X153147833Y-42296927D01*
X152976927Y-42467833D01*
X152842647Y-42668798D01*
X152750153Y-42892097D01*
X152703000Y-43129151D01*
X152617000Y-43129151D01*
X152569847Y-42892097D01*
X152477353Y-42668798D01*
X152343073Y-42467833D01*
X152172167Y-42296927D01*
X151971202Y-42162647D01*
X151747903Y-42070153D01*
X151510849Y-42023000D01*
X151269151Y-42023000D01*
X151032097Y-42070153D01*
X150808798Y-42162647D01*
X150607833Y-42296927D01*
X150436927Y-42467833D01*
X150302647Y-42668798D01*
X150210153Y-42892097D01*
X150163000Y-43129151D01*
X150077000Y-43129151D01*
X150029847Y-42892097D01*
X149937353Y-42668798D01*
X149803073Y-42467833D01*
X149632167Y-42296927D01*
X149431202Y-42162647D01*
X149207903Y-42070153D01*
X148970849Y-42023000D01*
X148729151Y-42023000D01*
X148492097Y-42070153D01*
X148268798Y-42162647D01*
X148067833Y-42296927D01*
X147896927Y-42467833D01*
X147762647Y-42668798D01*
X147670153Y-42892097D01*
X147623000Y-43129151D01*
X147537000Y-43129151D01*
X147489847Y-42892097D01*
X147397353Y-42668798D01*
X147263073Y-42467833D01*
X147092167Y-42296927D01*
X146891202Y-42162647D01*
X146667903Y-42070153D01*
X146430849Y-42023000D01*
X146189151Y-42023000D01*
X145952097Y-42070153D01*
X145728798Y-42162647D01*
X145527833Y-42296927D01*
X145447001Y-42377759D01*
X145447001Y-41909643D01*
X145449428Y-41885000D01*
X145447001Y-41860357D01*
X145447001Y-41860348D01*
X145439737Y-41786592D01*
X145411032Y-41691965D01*
X145364418Y-41604756D01*
X145342016Y-41577459D01*
X145317400Y-41547465D01*
X145317398Y-41547463D01*
X145301685Y-41528317D01*
X145282539Y-41512604D01*
X144917040Y-41147105D01*
X144949847Y-41067903D01*
X144997000Y-40830849D01*
X144997000Y-40589151D01*
X145083000Y-40589151D01*
X145083000Y-40830849D01*
X145130153Y-41067903D01*
X145222647Y-41291202D01*
X145356927Y-41492167D01*
X145527833Y-41663073D01*
X145728798Y-41797353D01*
X145952097Y-41889847D01*
X146189151Y-41937000D01*
X146430849Y-41937000D01*
X146667903Y-41889847D01*
X146891202Y-41797353D01*
X147092167Y-41663073D01*
X147263073Y-41492167D01*
X147397353Y-41291202D01*
X147489847Y-41067903D01*
X147537000Y-40830849D01*
X147537000Y-40589151D01*
X147623000Y-40589151D01*
X147623000Y-40830849D01*
X147670153Y-41067903D01*
X147762647Y-41291202D01*
X147896927Y-41492167D01*
X148067833Y-41663073D01*
X148268798Y-41797353D01*
X148492097Y-41889847D01*
X148729151Y-41937000D01*
X148970849Y-41937000D01*
X149207903Y-41889847D01*
X149431202Y-41797353D01*
X149632167Y-41663073D01*
X149803073Y-41492167D01*
X149937353Y-41291202D01*
X150029847Y-41067903D01*
X150077000Y-40830849D01*
X150077000Y-40589151D01*
X150163000Y-40589151D01*
X150163000Y-40830849D01*
X150210153Y-41067903D01*
X150302647Y-41291202D01*
X150436927Y-41492167D01*
X150607833Y-41663073D01*
X150808798Y-41797353D01*
X151032097Y-41889847D01*
X151269151Y-41937000D01*
X151510849Y-41937000D01*
X151747903Y-41889847D01*
X151971202Y-41797353D01*
X152172167Y-41663073D01*
X152343073Y-41492167D01*
X152477353Y-41291202D01*
X152569847Y-41067903D01*
X152617000Y-40830849D01*
X152617000Y-40589151D01*
X152703000Y-40589151D01*
X152703000Y-40830849D01*
X152750153Y-41067903D01*
X152842647Y-41291202D01*
X152976927Y-41492167D01*
X153147833Y-41663073D01*
X153348798Y-41797353D01*
X153572097Y-41889847D01*
X153809151Y-41937000D01*
X154050849Y-41937000D01*
X154287903Y-41889847D01*
X154511202Y-41797353D01*
X154712167Y-41663073D01*
X154883073Y-41492167D01*
X155017353Y-41291202D01*
X155109847Y-41067903D01*
X155157000Y-40830849D01*
X155157000Y-40589151D01*
X155243000Y-40589151D01*
X155243000Y-40830849D01*
X155290153Y-41067903D01*
X155382647Y-41291202D01*
X155516927Y-41492167D01*
X155687833Y-41663073D01*
X155888798Y-41797353D01*
X156112097Y-41889847D01*
X156349151Y-41937000D01*
X156590849Y-41937000D01*
X156827903Y-41889847D01*
X157051202Y-41797353D01*
X157252167Y-41663073D01*
X157423073Y-41492167D01*
X157557353Y-41291202D01*
X157649847Y-41067903D01*
X157697000Y-40830849D01*
X157697000Y-40589151D01*
X157783000Y-40589151D01*
X157783000Y-40830849D01*
X157830153Y-41067903D01*
X157922647Y-41291202D01*
X158056927Y-41492167D01*
X158227833Y-41663073D01*
X158428798Y-41797353D01*
X158652097Y-41889847D01*
X158889151Y-41937000D01*
X159130849Y-41937000D01*
X159367903Y-41889847D01*
X159591202Y-41797353D01*
X159792167Y-41663073D01*
X159929505Y-41525735D01*
X161473000Y-41525735D01*
X161473000Y-41974265D01*
X161560504Y-42414176D01*
X161732149Y-42828564D01*
X161981339Y-43201503D01*
X162298497Y-43518661D01*
X162671436Y-43767851D01*
X163085824Y-43939496D01*
X163525735Y-44027000D01*
X163974265Y-44027000D01*
X164414176Y-43939496D01*
X164828564Y-43767851D01*
X165201503Y-43518661D01*
X165518661Y-43201503D01*
X165767851Y-42828564D01*
X165939496Y-42414176D01*
X166027000Y-41974265D01*
X166027000Y-41525735D01*
X165939496Y-41085824D01*
X165767851Y-40671436D01*
X165518661Y-40298497D01*
X165201503Y-39981339D01*
X164828564Y-39732149D01*
X164414176Y-39560504D01*
X163974265Y-39473000D01*
X163525735Y-39473000D01*
X163085824Y-39560504D01*
X162671436Y-39732149D01*
X162298497Y-39981339D01*
X161981339Y-40298497D01*
X161732149Y-40671436D01*
X161560504Y-41085824D01*
X161473000Y-41525735D01*
X159929505Y-41525735D01*
X159963073Y-41492167D01*
X160097353Y-41291202D01*
X160189847Y-41067903D01*
X160237000Y-40830849D01*
X160237000Y-40589151D01*
X160189847Y-40352097D01*
X160097353Y-40128798D01*
X159963073Y-39927833D01*
X159792167Y-39756927D01*
X159591202Y-39622647D01*
X159367903Y-39530153D01*
X159130849Y-39483000D01*
X158889151Y-39483000D01*
X158652097Y-39530153D01*
X158428798Y-39622647D01*
X158227833Y-39756927D01*
X158056927Y-39927833D01*
X157922647Y-40128798D01*
X157830153Y-40352097D01*
X157783000Y-40589151D01*
X157697000Y-40589151D01*
X157649847Y-40352097D01*
X157557353Y-40128798D01*
X157423073Y-39927833D01*
X157252167Y-39756927D01*
X157051202Y-39622647D01*
X156827903Y-39530153D01*
X156590849Y-39483000D01*
X156349151Y-39483000D01*
X156112097Y-39530153D01*
X155888798Y-39622647D01*
X155687833Y-39756927D01*
X155516927Y-39927833D01*
X155382647Y-40128798D01*
X155290153Y-40352097D01*
X155243000Y-40589151D01*
X155157000Y-40589151D01*
X155109847Y-40352097D01*
X155017353Y-40128798D01*
X154883073Y-39927833D01*
X154712167Y-39756927D01*
X154511202Y-39622647D01*
X154287903Y-39530153D01*
X154050849Y-39483000D01*
X153809151Y-39483000D01*
X153572097Y-39530153D01*
X153348798Y-39622647D01*
X153147833Y-39756927D01*
X152976927Y-39927833D01*
X152842647Y-40128798D01*
X152750153Y-40352097D01*
X152703000Y-40589151D01*
X152617000Y-40589151D01*
X152569847Y-40352097D01*
X152477353Y-40128798D01*
X152343073Y-39927833D01*
X152172167Y-39756927D01*
X151971202Y-39622647D01*
X151747903Y-39530153D01*
X151510849Y-39483000D01*
X151269151Y-39483000D01*
X151032097Y-39530153D01*
X150808798Y-39622647D01*
X150607833Y-39756927D01*
X150436927Y-39927833D01*
X150302647Y-40128798D01*
X150210153Y-40352097D01*
X150163000Y-40589151D01*
X150077000Y-40589151D01*
X150029847Y-40352097D01*
X149937353Y-40128798D01*
X149803073Y-39927833D01*
X149632167Y-39756927D01*
X149431202Y-39622647D01*
X149207903Y-39530153D01*
X148970849Y-39483000D01*
X148729151Y-39483000D01*
X148492097Y-39530153D01*
X148268798Y-39622647D01*
X148067833Y-39756927D01*
X147896927Y-39927833D01*
X147762647Y-40128798D01*
X147670153Y-40352097D01*
X147623000Y-40589151D01*
X147537000Y-40589151D01*
X147489847Y-40352097D01*
X147397353Y-40128798D01*
X147263073Y-39927833D01*
X147092167Y-39756927D01*
X146891202Y-39622647D01*
X146667903Y-39530153D01*
X146430849Y-39483000D01*
X146189151Y-39483000D01*
X145952097Y-39530153D01*
X145728798Y-39622647D01*
X145527833Y-39756927D01*
X145356927Y-39927833D01*
X145222647Y-40128798D01*
X145130153Y-40352097D01*
X145083000Y-40589151D01*
X144997000Y-40589151D01*
X144949847Y-40352097D01*
X144857353Y-40128798D01*
X144723073Y-39927833D01*
X144552167Y-39756927D01*
X144351202Y-39622647D01*
X144127903Y-39530153D01*
X143890849Y-39483000D01*
X143649151Y-39483000D01*
X143412097Y-39530153D01*
X143188798Y-39622647D01*
X142987833Y-39756927D01*
X142816927Y-39927833D01*
X142682647Y-40128798D01*
X142590153Y-40352097D01*
X142543000Y-40589151D01*
X142543000Y-40830849D01*
X142590153Y-41067903D01*
X142682647Y-41291202D01*
X142816927Y-41492167D01*
X142987833Y-41663073D01*
X143188798Y-41797353D01*
X143412097Y-41889847D01*
X143649151Y-41937000D01*
X143890849Y-41937000D01*
X144127903Y-41889847D01*
X144207105Y-41857040D01*
X144443002Y-42092937D01*
X144443002Y-42223985D01*
X144351202Y-42162647D01*
X144127903Y-42070153D01*
X143890849Y-42023000D01*
X143649151Y-42023000D01*
X143412097Y-42070153D01*
X143188798Y-42162647D01*
X142987833Y-42296927D01*
X142816927Y-42467833D01*
X142682647Y-42668798D01*
X142590153Y-42892097D01*
X142543000Y-43129151D01*
X142543000Y-43370849D01*
X142590153Y-43607903D01*
X142682647Y-43831202D01*
X142816927Y-44032167D01*
X142987833Y-44203073D01*
X143188798Y-44337353D01*
X143268000Y-44370160D01*
X143268000Y-44922065D01*
X137992066Y-50198000D01*
X130396845Y-50198000D01*
X130295309Y-50096464D01*
X130168048Y-50011431D01*
X130026643Y-49952859D01*
X129876528Y-49923000D01*
X129723472Y-49923000D01*
X129573357Y-49952859D01*
X129431952Y-50011431D01*
X129304691Y-50096464D01*
X129196464Y-50204691D01*
X129111431Y-50331952D01*
X129052859Y-50473357D01*
X129023000Y-50623472D01*
X118398712Y-50623472D01*
X118257167Y-50481927D01*
X118056202Y-50347647D01*
X117832903Y-50255153D01*
X117595849Y-50208000D01*
X117354151Y-50208000D01*
X117117097Y-50255153D01*
X116893798Y-50347647D01*
X116692833Y-50481927D01*
X116521927Y-50652833D01*
X116387647Y-50853798D01*
X116295153Y-51077097D01*
X116248000Y-51314151D01*
X116248000Y-51555849D01*
X116295153Y-51792903D01*
X116387647Y-52016202D01*
X116521927Y-52217167D01*
X116692833Y-52388073D01*
X116893798Y-52522353D01*
X117117097Y-52614847D01*
X117354151Y-52662000D01*
X117595849Y-52662000D01*
X117832903Y-52614847D01*
X117978277Y-52554631D01*
X118011590Y-52564736D01*
X118110000Y-52574427D01*
X118208409Y-52564736D01*
X118303036Y-52536031D01*
X118390245Y-52489417D01*
X118466684Y-52426684D01*
X118529417Y-52350245D01*
X118576031Y-52263036D01*
X118604736Y-52168409D01*
X118614427Y-52070000D01*
X118604736Y-51971590D01*
X118594631Y-51938277D01*
X118595160Y-51937000D01*
X125527066Y-51937000D01*
X126627603Y-53037538D01*
X126643316Y-53056684D01*
X126662462Y-53072397D01*
X126662464Y-53072399D01*
X126691787Y-53096464D01*
X126719755Y-53119417D01*
X126806964Y-53166031D01*
X126901591Y-53194736D01*
X126934732Y-53198000D01*
X118431525Y-53198000D01*
X118428073Y-53192833D01*
X118257167Y-53021927D01*
X118056202Y-52887647D01*
X117832903Y-52795153D01*
X117595849Y-52748000D01*
X117354151Y-52748000D01*
X117117097Y-52795153D01*
X116893798Y-52887647D01*
X116692833Y-53021927D01*
X116521927Y-53192833D01*
X116387647Y-53393798D01*
X116295153Y-53617097D01*
X116248000Y-53854151D01*
X116248000Y-54095849D01*
X116295153Y-54332903D01*
X116387647Y-54556202D01*
X116521927Y-54757167D01*
X116692833Y-54928073D01*
X116893798Y-55062353D01*
X117011798Y-55111231D01*
X116843748Y-55170843D01*
X116593645Y-55319822D01*
X116377412Y-55514731D01*
X116205000Y-55745880D01*
X116032588Y-55514731D01*
X115816355Y-55319822D01*
X115566252Y-55170843D01*
X115398202Y-55111231D01*
X115516202Y-55062353D01*
X115717167Y-54928073D01*
X115888073Y-54757167D01*
X116022353Y-54556202D01*
X116114847Y-54332903D01*
X116162000Y-54095849D01*
X116162000Y-53854151D01*
X116114847Y-53617097D01*
X116022353Y-53393798D01*
X115888073Y-53192833D01*
X115717167Y-53021927D01*
X115516202Y-52887647D01*
X115292903Y-52795153D01*
X115055849Y-52748000D01*
X114814151Y-52748000D01*
X114577097Y-52795153D01*
X114353798Y-52887647D01*
X114152833Y-53021927D01*
X113981927Y-53192833D01*
X113847647Y-53393798D01*
X113755153Y-53617097D01*
X113708000Y-53854151D01*
X113708000Y-54095849D01*
X113755153Y-54332903D01*
X113847647Y-54556202D01*
X113981927Y-54757167D01*
X114152833Y-54928073D01*
X114353798Y-55062353D01*
X114471798Y-55111231D01*
X114303748Y-55170843D01*
X114053645Y-55319822D01*
X113837412Y-55514731D01*
X113663359Y-55748080D01*
X113538175Y-56010901D01*
X113493524Y-56158110D01*
X102706000Y-56158110D01*
X102706000Y-50585000D01*
X113706176Y-50585000D01*
X113706176Y-52285000D01*
X113713455Y-52358905D01*
X113735012Y-52429970D01*
X113770019Y-52495463D01*
X113817131Y-52552869D01*
X113874537Y-52599981D01*
X113940030Y-52634988D01*
X114011095Y-52656545D01*
X114085000Y-52663824D01*
X115785000Y-52663824D01*
X115858905Y-52656545D01*
X115929970Y-52634988D01*
X115995463Y-52599981D01*
X116052869Y-52552869D01*
X116099981Y-52495463D01*
X116134988Y-52429970D01*
X116156545Y-52358905D01*
X116163824Y-52285000D01*
X116163824Y-50585000D01*
X116156545Y-50511095D01*
X116134988Y-50440030D01*
X116099981Y-50374537D01*
X116052869Y-50317131D01*
X115995463Y-50270019D01*
X115929970Y-50235012D01*
X115858905Y-50213455D01*
X115785000Y-50206176D01*
X114085000Y-50206176D01*
X114011095Y-50213455D01*
X113940030Y-50235012D01*
X113874537Y-50270019D01*
X113817131Y-50317131D01*
X113770019Y-50374537D01*
X113735012Y-50440030D01*
X113713455Y-50511095D01*
X113706176Y-50585000D01*
X102706000Y-50585000D01*
X102706000Y-45423472D01*
X125207000Y-45423472D01*
X125207000Y-45576528D01*
X125236859Y-45726643D01*
X125295431Y-45868048D01*
X125380464Y-45995309D01*
X125488691Y-46103536D01*
X125615952Y-46188569D01*
X125757357Y-46247141D01*
X125907472Y-46277000D01*
X126060528Y-46277000D01*
X126210643Y-46247141D01*
X126352048Y-46188569D01*
X126479309Y-46103536D01*
X126580845Y-46002000D01*
X135475357Y-46002000D01*
X135500000Y-46004427D01*
X135524643Y-46002000D01*
X135524653Y-46002000D01*
X135598409Y-45994736D01*
X135693036Y-45966031D01*
X135780245Y-45919417D01*
X135856684Y-45856684D01*
X135872401Y-45837533D01*
X136487543Y-45222393D01*
X136506684Y-45206684D01*
X136522392Y-45187544D01*
X136522400Y-45187536D01*
X136569416Y-45130246D01*
X136569417Y-45130245D01*
X136616031Y-45043036D01*
X136644736Y-44948409D01*
X136652000Y-44874653D01*
X136652000Y-44874643D01*
X136654427Y-44850000D01*
X136652000Y-44825357D01*
X136652000Y-44370160D01*
X136731202Y-44337353D01*
X136932167Y-44203073D01*
X137103073Y-44032167D01*
X137237353Y-43831202D01*
X137329847Y-43607903D01*
X137377000Y-43370849D01*
X137377000Y-43129151D01*
X137463000Y-43129151D01*
X137463000Y-43370849D01*
X137510153Y-43607903D01*
X137602647Y-43831202D01*
X137736927Y-44032167D01*
X137907833Y-44203073D01*
X138108798Y-44337353D01*
X138332097Y-44429847D01*
X138569151Y-44477000D01*
X138810849Y-44477000D01*
X139047903Y-44429847D01*
X139271202Y-44337353D01*
X139472167Y-44203073D01*
X139643073Y-44032167D01*
X139777353Y-43831202D01*
X139869847Y-43607903D01*
X139917000Y-43370849D01*
X139917000Y-43129151D01*
X140003000Y-43129151D01*
X140003000Y-43370849D01*
X140050153Y-43607903D01*
X140142647Y-43831202D01*
X140276927Y-44032167D01*
X140447833Y-44203073D01*
X140648798Y-44337353D01*
X140872097Y-44429847D01*
X141109151Y-44477000D01*
X141350849Y-44477000D01*
X141587903Y-44429847D01*
X141811202Y-44337353D01*
X142012167Y-44203073D01*
X142183073Y-44032167D01*
X142317353Y-43831202D01*
X142409847Y-43607903D01*
X142457000Y-43370849D01*
X142457000Y-43129151D01*
X142409847Y-42892097D01*
X142317353Y-42668798D01*
X142183073Y-42467833D01*
X142012167Y-42296927D01*
X141811202Y-42162647D01*
X141587903Y-42070153D01*
X141350849Y-42023000D01*
X141109151Y-42023000D01*
X140872097Y-42070153D01*
X140648798Y-42162647D01*
X140447833Y-42296927D01*
X140276927Y-42467833D01*
X140142647Y-42668798D01*
X140050153Y-42892097D01*
X140003000Y-43129151D01*
X139917000Y-43129151D01*
X139869847Y-42892097D01*
X139777353Y-42668798D01*
X139643073Y-42467833D01*
X139472167Y-42296927D01*
X139271202Y-42162647D01*
X139047903Y-42070153D01*
X138810849Y-42023000D01*
X138569151Y-42023000D01*
X138332097Y-42070153D01*
X138108798Y-42162647D01*
X137907833Y-42296927D01*
X137736927Y-42467833D01*
X137602647Y-42668798D01*
X137510153Y-42892097D01*
X137463000Y-43129151D01*
X137377000Y-43129151D01*
X137329847Y-42892097D01*
X137237353Y-42668798D01*
X137103073Y-42467833D01*
X136932167Y-42296927D01*
X136731202Y-42162647D01*
X136507903Y-42070153D01*
X136270849Y-42023000D01*
X136029151Y-42023000D01*
X135792097Y-42070153D01*
X135568798Y-42162647D01*
X135367833Y-42296927D01*
X135196927Y-42467833D01*
X135062647Y-42668798D01*
X134970153Y-42892097D01*
X134923000Y-43129151D01*
X134923000Y-43370849D01*
X134970153Y-43607903D01*
X135062647Y-43831202D01*
X135196927Y-44032167D01*
X135367833Y-44203073D01*
X135568798Y-44337353D01*
X135648001Y-44370160D01*
X135648001Y-44642064D01*
X135292066Y-44998000D01*
X126580845Y-44998000D01*
X126479309Y-44896464D01*
X126352048Y-44811431D01*
X126210643Y-44752859D01*
X126060528Y-44723000D01*
X125907472Y-44723000D01*
X125757357Y-44752859D01*
X125615952Y-44811431D01*
X125488691Y-44896464D01*
X125380464Y-45004691D01*
X125295431Y-45131952D01*
X125236859Y-45273357D01*
X125207000Y-45423472D01*
X102706000Y-45423472D01*
X102706000Y-44100000D01*
X109261928Y-44100000D01*
X109274188Y-44224482D01*
X109310498Y-44344180D01*
X109369463Y-44454494D01*
X109448815Y-44551185D01*
X109545506Y-44630537D01*
X109655820Y-44689502D01*
X109775518Y-44725812D01*
X109900000Y-44738072D01*
X110464250Y-44735000D01*
X110623000Y-44576250D01*
X110623000Y-43377000D01*
X109423750Y-43377000D01*
X109265000Y-43535750D01*
X109261928Y-44100000D01*
X102706000Y-44100000D01*
X102706000Y-41525735D01*
X103473000Y-41525735D01*
X103473000Y-41974265D01*
X103560504Y-42414176D01*
X103732149Y-42828564D01*
X103981339Y-43201503D01*
X104298497Y-43518661D01*
X104671436Y-43767851D01*
X105085824Y-43939496D01*
X105525735Y-44027000D01*
X105974265Y-44027000D01*
X106414176Y-43939496D01*
X106828564Y-43767851D01*
X107201503Y-43518661D01*
X107518661Y-43201503D01*
X107767851Y-42828564D01*
X107939496Y-42414176D01*
X107942315Y-42400000D01*
X109261928Y-42400000D01*
X109265000Y-42964250D01*
X109423750Y-43123000D01*
X110623000Y-43123000D01*
X110623000Y-43103000D01*
X110877000Y-43103000D01*
X110877000Y-43123000D01*
X110897000Y-43123000D01*
X110897000Y-43377000D01*
X110877000Y-43377000D01*
X110877000Y-44576250D01*
X111035750Y-44735000D01*
X111600000Y-44738072D01*
X111724482Y-44725812D01*
X111844180Y-44689502D01*
X111954494Y-44630537D01*
X112051185Y-44551185D01*
X112130537Y-44454494D01*
X112189502Y-44344180D01*
X112225812Y-44224482D01*
X112238072Y-44100000D01*
X112236888Y-43882447D01*
X112336927Y-44032167D01*
X112507833Y-44203073D01*
X112708798Y-44337353D01*
X112932097Y-44429847D01*
X113169151Y-44477000D01*
X113410849Y-44477000D01*
X113647903Y-44429847D01*
X113871202Y-44337353D01*
X114072167Y-44203073D01*
X114243073Y-44032167D01*
X114377353Y-43831202D01*
X114469847Y-43607903D01*
X114517000Y-43370849D01*
X114517000Y-43129151D01*
X114603000Y-43129151D01*
X114603000Y-43370849D01*
X114650153Y-43607903D01*
X114742647Y-43831202D01*
X114876927Y-44032167D01*
X115047833Y-44203073D01*
X115248798Y-44337353D01*
X115472097Y-44429847D01*
X115709151Y-44477000D01*
X115950849Y-44477000D01*
X116187903Y-44429847D01*
X116411202Y-44337353D01*
X116612167Y-44203073D01*
X116783073Y-44032167D01*
X116917353Y-43831202D01*
X117009847Y-43607903D01*
X117057000Y-43370849D01*
X117057000Y-43129151D01*
X117143000Y-43129151D01*
X117143000Y-43370849D01*
X117190153Y-43607903D01*
X117282647Y-43831202D01*
X117416927Y-44032167D01*
X117587833Y-44203073D01*
X117788798Y-44337353D01*
X118012097Y-44429847D01*
X118249151Y-44477000D01*
X118490849Y-44477000D01*
X118727903Y-44429847D01*
X118951202Y-44337353D01*
X119152167Y-44203073D01*
X119323073Y-44032167D01*
X119457353Y-43831202D01*
X119549847Y-43607903D01*
X119597000Y-43370849D01*
X119597000Y-43129151D01*
X119683000Y-43129151D01*
X119683000Y-43370849D01*
X119730153Y-43607903D01*
X119822647Y-43831202D01*
X119956927Y-44032167D01*
X120127833Y-44203073D01*
X120328798Y-44337353D01*
X120552097Y-44429847D01*
X120789151Y-44477000D01*
X121030849Y-44477000D01*
X121267903Y-44429847D01*
X121491202Y-44337353D01*
X121692167Y-44203073D01*
X121863073Y-44032167D01*
X121997353Y-43831202D01*
X122089847Y-43607903D01*
X122137000Y-43370849D01*
X122137000Y-43129151D01*
X122223000Y-43129151D01*
X122223000Y-43370849D01*
X122270153Y-43607903D01*
X122362647Y-43831202D01*
X122496927Y-44032167D01*
X122667833Y-44203073D01*
X122868798Y-44337353D01*
X123092097Y-44429847D01*
X123329151Y-44477000D01*
X123570849Y-44477000D01*
X123807903Y-44429847D01*
X124031202Y-44337353D01*
X124232167Y-44203073D01*
X124403073Y-44032167D01*
X124537353Y-43831202D01*
X124629847Y-43607903D01*
X124677000Y-43370849D01*
X124677000Y-43129151D01*
X124763000Y-43129151D01*
X124763000Y-43370849D01*
X124810153Y-43607903D01*
X124902647Y-43831202D01*
X125036927Y-44032167D01*
X125207833Y-44203073D01*
X125408798Y-44337353D01*
X125632097Y-44429847D01*
X125869151Y-44477000D01*
X126110849Y-44477000D01*
X126347903Y-44429847D01*
X126571202Y-44337353D01*
X126772167Y-44203073D01*
X126943073Y-44032167D01*
X127077353Y-43831202D01*
X127169847Y-43607903D01*
X127217000Y-43370849D01*
X127217000Y-43129151D01*
X127303000Y-43129151D01*
X127303000Y-43370849D01*
X127350153Y-43607903D01*
X127442647Y-43831202D01*
X127576927Y-44032167D01*
X127747833Y-44203073D01*
X127948798Y-44337353D01*
X128172097Y-44429847D01*
X128409151Y-44477000D01*
X128650849Y-44477000D01*
X128887903Y-44429847D01*
X129111202Y-44337353D01*
X129312167Y-44203073D01*
X129483073Y-44032167D01*
X129617353Y-43831202D01*
X129709847Y-43607903D01*
X129757000Y-43370849D01*
X129757000Y-43129151D01*
X129843000Y-43129151D01*
X129843000Y-43370849D01*
X129890153Y-43607903D01*
X129982647Y-43831202D01*
X130116927Y-44032167D01*
X130287833Y-44203073D01*
X130488798Y-44337353D01*
X130712097Y-44429847D01*
X130949151Y-44477000D01*
X131190849Y-44477000D01*
X131427903Y-44429847D01*
X131651202Y-44337353D01*
X131852167Y-44203073D01*
X132023073Y-44032167D01*
X132157353Y-43831202D01*
X132249847Y-43607903D01*
X132297000Y-43370849D01*
X132297000Y-43129151D01*
X132383000Y-43129151D01*
X132383000Y-43370849D01*
X132430153Y-43607903D01*
X132522647Y-43831202D01*
X132656927Y-44032167D01*
X132827833Y-44203073D01*
X133028798Y-44337353D01*
X133252097Y-44429847D01*
X133489151Y-44477000D01*
X133730849Y-44477000D01*
X133967903Y-44429847D01*
X134191202Y-44337353D01*
X134392167Y-44203073D01*
X134563073Y-44032167D01*
X134697353Y-43831202D01*
X134789847Y-43607903D01*
X134837000Y-43370849D01*
X134837000Y-43129151D01*
X134789847Y-42892097D01*
X134697353Y-42668798D01*
X134563073Y-42467833D01*
X134392167Y-42296927D01*
X134191202Y-42162647D01*
X133967903Y-42070153D01*
X133730849Y-42023000D01*
X133489151Y-42023000D01*
X133252097Y-42070153D01*
X133028798Y-42162647D01*
X132827833Y-42296927D01*
X132656927Y-42467833D01*
X132522647Y-42668798D01*
X132430153Y-42892097D01*
X132383000Y-43129151D01*
X132297000Y-43129151D01*
X132249847Y-42892097D01*
X132157353Y-42668798D01*
X132023073Y-42467833D01*
X131852167Y-42296927D01*
X131651202Y-42162647D01*
X131427903Y-42070153D01*
X131190849Y-42023000D01*
X130949151Y-42023000D01*
X130712097Y-42070153D01*
X130488798Y-42162647D01*
X130287833Y-42296927D01*
X130116927Y-42467833D01*
X129982647Y-42668798D01*
X129890153Y-42892097D01*
X129843000Y-43129151D01*
X129757000Y-43129151D01*
X129709847Y-42892097D01*
X129617353Y-42668798D01*
X129483073Y-42467833D01*
X129312167Y-42296927D01*
X129111202Y-42162647D01*
X128887903Y-42070153D01*
X128650849Y-42023000D01*
X128409151Y-42023000D01*
X128172097Y-42070153D01*
X127948798Y-42162647D01*
X127747833Y-42296927D01*
X127576927Y-42467833D01*
X127442647Y-42668798D01*
X127350153Y-42892097D01*
X127303000Y-43129151D01*
X127217000Y-43129151D01*
X127169847Y-42892097D01*
X127077353Y-42668798D01*
X126943073Y-42467833D01*
X126772167Y-42296927D01*
X126571202Y-42162647D01*
X126347903Y-42070153D01*
X126110849Y-42023000D01*
X125869151Y-42023000D01*
X125632097Y-42070153D01*
X125408798Y-42162647D01*
X125207833Y-42296927D01*
X125036927Y-42467833D01*
X124902647Y-42668798D01*
X124810153Y-42892097D01*
X124763000Y-43129151D01*
X124677000Y-43129151D01*
X124629847Y-42892097D01*
X124537353Y-42668798D01*
X124403073Y-42467833D01*
X124232167Y-42296927D01*
X124031202Y-42162647D01*
X123807903Y-42070153D01*
X123570849Y-42023000D01*
X123329151Y-42023000D01*
X123092097Y-42070153D01*
X122868798Y-42162647D01*
X122667833Y-42296927D01*
X122496927Y-42467833D01*
X122362647Y-42668798D01*
X122270153Y-42892097D01*
X122223000Y-43129151D01*
X122137000Y-43129151D01*
X122089847Y-42892097D01*
X121997353Y-42668798D01*
X121863073Y-42467833D01*
X121692167Y-42296927D01*
X121491202Y-42162647D01*
X121267903Y-42070153D01*
X121030849Y-42023000D01*
X120789151Y-42023000D01*
X120552097Y-42070153D01*
X120328798Y-42162647D01*
X120127833Y-42296927D01*
X119956927Y-42467833D01*
X119822647Y-42668798D01*
X119730153Y-42892097D01*
X119683000Y-43129151D01*
X119597000Y-43129151D01*
X119549847Y-42892097D01*
X119457353Y-42668798D01*
X119323073Y-42467833D01*
X119152167Y-42296927D01*
X118951202Y-42162647D01*
X118727903Y-42070153D01*
X118490849Y-42023000D01*
X118249151Y-42023000D01*
X118012097Y-42070153D01*
X117788798Y-42162647D01*
X117587833Y-42296927D01*
X117416927Y-42467833D01*
X117282647Y-42668798D01*
X117190153Y-42892097D01*
X117143000Y-43129151D01*
X117057000Y-43129151D01*
X117009847Y-42892097D01*
X116917353Y-42668798D01*
X116783073Y-42467833D01*
X116612167Y-42296927D01*
X116411202Y-42162647D01*
X116187903Y-42070153D01*
X115950849Y-42023000D01*
X115709151Y-42023000D01*
X115472097Y-42070153D01*
X115248798Y-42162647D01*
X115047833Y-42296927D01*
X114876927Y-42467833D01*
X114742647Y-42668798D01*
X114650153Y-42892097D01*
X114603000Y-43129151D01*
X114517000Y-43129151D01*
X114469847Y-42892097D01*
X114377353Y-42668798D01*
X114243073Y-42467833D01*
X114072167Y-42296927D01*
X113871202Y-42162647D01*
X113647903Y-42070153D01*
X113410849Y-42023000D01*
X113169151Y-42023000D01*
X112932097Y-42070153D01*
X112708798Y-42162647D01*
X112507833Y-42296927D01*
X112336927Y-42467833D01*
X112236888Y-42617553D01*
X112238072Y-42400000D01*
X112225812Y-42275518D01*
X112189502Y-42155820D01*
X112130537Y-42045506D01*
X112051185Y-41948815D01*
X111954494Y-41869463D01*
X111844180Y-41810498D01*
X111724482Y-41774188D01*
X111600000Y-41761928D01*
X111382447Y-41763112D01*
X111532167Y-41663073D01*
X111703073Y-41492167D01*
X111837353Y-41291202D01*
X111929847Y-41067903D01*
X111977000Y-40830849D01*
X111977000Y-40589151D01*
X112063000Y-40589151D01*
X112063000Y-40830849D01*
X112110153Y-41067903D01*
X112202647Y-41291202D01*
X112336927Y-41492167D01*
X112507833Y-41663073D01*
X112708798Y-41797353D01*
X112932097Y-41889847D01*
X113169151Y-41937000D01*
X113410849Y-41937000D01*
X113647903Y-41889847D01*
X113871202Y-41797353D01*
X114072167Y-41663073D01*
X114243073Y-41492167D01*
X114377353Y-41291202D01*
X114469847Y-41067903D01*
X114517000Y-40830849D01*
X114517000Y-40589151D01*
X114603000Y-40589151D01*
X114603000Y-40830849D01*
X114650153Y-41067903D01*
X114742647Y-41291202D01*
X114876927Y-41492167D01*
X115047833Y-41663073D01*
X115248798Y-41797353D01*
X115472097Y-41889847D01*
X115709151Y-41937000D01*
X115950849Y-41937000D01*
X116187903Y-41889847D01*
X116411202Y-41797353D01*
X116612167Y-41663073D01*
X116783073Y-41492167D01*
X116917353Y-41291202D01*
X117009847Y-41067903D01*
X117057000Y-40830849D01*
X117057000Y-40589151D01*
X117143000Y-40589151D01*
X117143000Y-40830849D01*
X117190153Y-41067903D01*
X117282647Y-41291202D01*
X117416927Y-41492167D01*
X117587833Y-41663073D01*
X117788798Y-41797353D01*
X118012097Y-41889847D01*
X118249151Y-41937000D01*
X118490849Y-41937000D01*
X118727903Y-41889847D01*
X118951202Y-41797353D01*
X119152167Y-41663073D01*
X119323073Y-41492167D01*
X119457353Y-41291202D01*
X119549847Y-41067903D01*
X119597000Y-40830849D01*
X119597000Y-40589151D01*
X119683000Y-40589151D01*
X119683000Y-40830849D01*
X119730153Y-41067903D01*
X119822647Y-41291202D01*
X119956927Y-41492167D01*
X120127833Y-41663073D01*
X120328798Y-41797353D01*
X120552097Y-41889847D01*
X120789151Y-41937000D01*
X121030849Y-41937000D01*
X121267903Y-41889847D01*
X121491202Y-41797353D01*
X121692167Y-41663073D01*
X121863073Y-41492167D01*
X121997353Y-41291202D01*
X122089847Y-41067903D01*
X122137000Y-40830849D01*
X122137000Y-40589151D01*
X122223000Y-40589151D01*
X122223000Y-40830849D01*
X122270153Y-41067903D01*
X122362647Y-41291202D01*
X122496927Y-41492167D01*
X122667833Y-41663073D01*
X122868798Y-41797353D01*
X123092097Y-41889847D01*
X123329151Y-41937000D01*
X123570849Y-41937000D01*
X123807903Y-41889847D01*
X124031202Y-41797353D01*
X124232167Y-41663073D01*
X124403073Y-41492167D01*
X124537353Y-41291202D01*
X124629847Y-41067903D01*
X124677000Y-40830849D01*
X124677000Y-40589151D01*
X124763000Y-40589151D01*
X124763000Y-40830849D01*
X124810153Y-41067903D01*
X124902647Y-41291202D01*
X125036927Y-41492167D01*
X125207833Y-41663073D01*
X125408798Y-41797353D01*
X125632097Y-41889847D01*
X125869151Y-41937000D01*
X126110849Y-41937000D01*
X126347903Y-41889847D01*
X126571202Y-41797353D01*
X126772167Y-41663073D01*
X126943073Y-41492167D01*
X127077353Y-41291202D01*
X127169847Y-41067903D01*
X127217000Y-40830849D01*
X127217000Y-40589151D01*
X127303000Y-40589151D01*
X127303000Y-40830849D01*
X127350153Y-41067903D01*
X127442647Y-41291202D01*
X127576927Y-41492167D01*
X127747833Y-41663073D01*
X127948798Y-41797353D01*
X128172097Y-41889847D01*
X128409151Y-41937000D01*
X128650849Y-41937000D01*
X128887903Y-41889847D01*
X129111202Y-41797353D01*
X129312167Y-41663073D01*
X129483073Y-41492167D01*
X129617353Y-41291202D01*
X129709847Y-41067903D01*
X129757000Y-40830849D01*
X129757000Y-40589151D01*
X129843000Y-40589151D01*
X129843000Y-40830849D01*
X129890153Y-41067903D01*
X129982647Y-41291202D01*
X130116927Y-41492167D01*
X130287833Y-41663073D01*
X130488798Y-41797353D01*
X130712097Y-41889847D01*
X130949151Y-41937000D01*
X131190849Y-41937000D01*
X131427903Y-41889847D01*
X131651202Y-41797353D01*
X131852167Y-41663073D01*
X132023073Y-41492167D01*
X132157353Y-41291202D01*
X132249847Y-41067903D01*
X132297000Y-40830849D01*
X132297000Y-40589151D01*
X132383000Y-40589151D01*
X132383000Y-40830849D01*
X132430153Y-41067903D01*
X132522647Y-41291202D01*
X132656927Y-41492167D01*
X132827833Y-41663073D01*
X133028798Y-41797353D01*
X133252097Y-41889847D01*
X133489151Y-41937000D01*
X133730849Y-41937000D01*
X133967903Y-41889847D01*
X134191202Y-41797353D01*
X134392167Y-41663073D01*
X134563073Y-41492167D01*
X134697353Y-41291202D01*
X134789847Y-41067903D01*
X134837000Y-40830849D01*
X134837000Y-40589151D01*
X134923000Y-40589151D01*
X134923000Y-40830849D01*
X134970153Y-41067903D01*
X135062647Y-41291202D01*
X135196927Y-41492167D01*
X135367833Y-41663073D01*
X135568798Y-41797353D01*
X135792097Y-41889847D01*
X136029151Y-41937000D01*
X136270849Y-41937000D01*
X136507903Y-41889847D01*
X136731202Y-41797353D01*
X136932167Y-41663073D01*
X137103073Y-41492167D01*
X137237353Y-41291202D01*
X137329847Y-41067903D01*
X137377000Y-40830849D01*
X137377000Y-40589151D01*
X137463000Y-40589151D01*
X137463000Y-40830849D01*
X137510153Y-41067903D01*
X137602647Y-41291202D01*
X137736927Y-41492167D01*
X137907833Y-41663073D01*
X138108798Y-41797353D01*
X138332097Y-41889847D01*
X138569151Y-41937000D01*
X138810849Y-41937000D01*
X139047903Y-41889847D01*
X139271202Y-41797353D01*
X139472167Y-41663073D01*
X139643073Y-41492167D01*
X139777353Y-41291202D01*
X139869847Y-41067903D01*
X139917000Y-40830849D01*
X139917000Y-40589151D01*
X140003000Y-40589151D01*
X140003000Y-40830849D01*
X140050153Y-41067903D01*
X140142647Y-41291202D01*
X140276927Y-41492167D01*
X140447833Y-41663073D01*
X140648798Y-41797353D01*
X140872097Y-41889847D01*
X141109151Y-41937000D01*
X141350849Y-41937000D01*
X141587903Y-41889847D01*
X141811202Y-41797353D01*
X142012167Y-41663073D01*
X142183073Y-41492167D01*
X142317353Y-41291202D01*
X142409847Y-41067903D01*
X142457000Y-40830849D01*
X142457000Y-40589151D01*
X142409847Y-40352097D01*
X142317353Y-40128798D01*
X142183073Y-39927833D01*
X142012167Y-39756927D01*
X141811202Y-39622647D01*
X141587903Y-39530153D01*
X141350849Y-39483000D01*
X141109151Y-39483000D01*
X140872097Y-39530153D01*
X140648798Y-39622647D01*
X140447833Y-39756927D01*
X140276927Y-39927833D01*
X140142647Y-40128798D01*
X140050153Y-40352097D01*
X140003000Y-40589151D01*
X139917000Y-40589151D01*
X139869847Y-40352097D01*
X139777353Y-40128798D01*
X139643073Y-39927833D01*
X139472167Y-39756927D01*
X139271202Y-39622647D01*
X139047903Y-39530153D01*
X138810849Y-39483000D01*
X138569151Y-39483000D01*
X138332097Y-39530153D01*
X138108798Y-39622647D01*
X137907833Y-39756927D01*
X137736927Y-39927833D01*
X137602647Y-40128798D01*
X137510153Y-40352097D01*
X137463000Y-40589151D01*
X137377000Y-40589151D01*
X137329847Y-40352097D01*
X137237353Y-40128798D01*
X137103073Y-39927833D01*
X136932167Y-39756927D01*
X136731202Y-39622647D01*
X136507903Y-39530153D01*
X136270849Y-39483000D01*
X136029151Y-39483000D01*
X135792097Y-39530153D01*
X135568798Y-39622647D01*
X135367833Y-39756927D01*
X135196927Y-39927833D01*
X135062647Y-40128798D01*
X134970153Y-40352097D01*
X134923000Y-40589151D01*
X134837000Y-40589151D01*
X134789847Y-40352097D01*
X134697353Y-40128798D01*
X134563073Y-39927833D01*
X134392167Y-39756927D01*
X134191202Y-39622647D01*
X133967903Y-39530153D01*
X133730849Y-39483000D01*
X133489151Y-39483000D01*
X133252097Y-39530153D01*
X133028798Y-39622647D01*
X132827833Y-39756927D01*
X132656927Y-39927833D01*
X132522647Y-40128798D01*
X132430153Y-40352097D01*
X132383000Y-40589151D01*
X132297000Y-40589151D01*
X132249847Y-40352097D01*
X132157353Y-40128798D01*
X132023073Y-39927833D01*
X131852167Y-39756927D01*
X131651202Y-39622647D01*
X131427903Y-39530153D01*
X131190849Y-39483000D01*
X130949151Y-39483000D01*
X130712097Y-39530153D01*
X130488798Y-39622647D01*
X130287833Y-39756927D01*
X130116927Y-39927833D01*
X129982647Y-40128798D01*
X129890153Y-40352097D01*
X129843000Y-40589151D01*
X129757000Y-40589151D01*
X129709847Y-40352097D01*
X129617353Y-40128798D01*
X129483073Y-39927833D01*
X129312167Y-39756927D01*
X129111202Y-39622647D01*
X128887903Y-39530153D01*
X128650849Y-39483000D01*
X128409151Y-39483000D01*
X128172097Y-39530153D01*
X127948798Y-39622647D01*
X127747833Y-39756927D01*
X127576927Y-39927833D01*
X127442647Y-40128798D01*
X127350153Y-40352097D01*
X127303000Y-40589151D01*
X127217000Y-40589151D01*
X127169847Y-40352097D01*
X127077353Y-40128798D01*
X126943073Y-39927833D01*
X126772167Y-39756927D01*
X126571202Y-39622647D01*
X126347903Y-39530153D01*
X126110849Y-39483000D01*
X125869151Y-39483000D01*
X125632097Y-39530153D01*
X125408798Y-39622647D01*
X125207833Y-39756927D01*
X125036927Y-39927833D01*
X124902647Y-40128798D01*
X124810153Y-40352097D01*
X124763000Y-40589151D01*
X124677000Y-40589151D01*
X124629847Y-40352097D01*
X124537353Y-40128798D01*
X124403073Y-39927833D01*
X124232167Y-39756927D01*
X124031202Y-39622647D01*
X123807903Y-39530153D01*
X123570849Y-39483000D01*
X123329151Y-39483000D01*
X123092097Y-39530153D01*
X122868798Y-39622647D01*
X122667833Y-39756927D01*
X122496927Y-39927833D01*
X122362647Y-40128798D01*
X122270153Y-40352097D01*
X122223000Y-40589151D01*
X122137000Y-40589151D01*
X122089847Y-40352097D01*
X121997353Y-40128798D01*
X121863073Y-39927833D01*
X121692167Y-39756927D01*
X121491202Y-39622647D01*
X121267903Y-39530153D01*
X121030849Y-39483000D01*
X120789151Y-39483000D01*
X120552097Y-39530153D01*
X120328798Y-39622647D01*
X120127833Y-39756927D01*
X119956927Y-39927833D01*
X119822647Y-40128798D01*
X119730153Y-40352097D01*
X119683000Y-40589151D01*
X119597000Y-40589151D01*
X119549847Y-40352097D01*
X119457353Y-40128798D01*
X119323073Y-39927833D01*
X119152167Y-39756927D01*
X118951202Y-39622647D01*
X118727903Y-39530153D01*
X118490849Y-39483000D01*
X118249151Y-39483000D01*
X118012097Y-39530153D01*
X117788798Y-39622647D01*
X117587833Y-39756927D01*
X117416927Y-39927833D01*
X117282647Y-40128798D01*
X117190153Y-40352097D01*
X117143000Y-40589151D01*
X117057000Y-40589151D01*
X117009847Y-40352097D01*
X116917353Y-40128798D01*
X116783073Y-39927833D01*
X116612167Y-39756927D01*
X116411202Y-39622647D01*
X116187903Y-39530153D01*
X115950849Y-39483000D01*
X115709151Y-39483000D01*
X115472097Y-39530153D01*
X115248798Y-39622647D01*
X115047833Y-39756927D01*
X114876927Y-39927833D01*
X114742647Y-40128798D01*
X114650153Y-40352097D01*
X114603000Y-40589151D01*
X114517000Y-40589151D01*
X114469847Y-40352097D01*
X114377353Y-40128798D01*
X114243073Y-39927833D01*
X114072167Y-39756927D01*
X113871202Y-39622647D01*
X113647903Y-39530153D01*
X113410849Y-39483000D01*
X113169151Y-39483000D01*
X112932097Y-39530153D01*
X112708798Y-39622647D01*
X112507833Y-39756927D01*
X112336927Y-39927833D01*
X112202647Y-40128798D01*
X112110153Y-40352097D01*
X112063000Y-40589151D01*
X111977000Y-40589151D01*
X111929847Y-40352097D01*
X111837353Y-40128798D01*
X111703073Y-39927833D01*
X111532167Y-39756927D01*
X111331202Y-39622647D01*
X111107903Y-39530153D01*
X110870849Y-39483000D01*
X110629151Y-39483000D01*
X110392097Y-39530153D01*
X110168798Y-39622647D01*
X109967833Y-39756927D01*
X109796927Y-39927833D01*
X109662647Y-40128798D01*
X109570153Y-40352097D01*
X109523000Y-40589151D01*
X109523000Y-40830849D01*
X109570153Y-41067903D01*
X109662647Y-41291202D01*
X109796927Y-41492167D01*
X109967833Y-41663073D01*
X110117553Y-41763112D01*
X109900000Y-41761928D01*
X109775518Y-41774188D01*
X109655820Y-41810498D01*
X109545506Y-41869463D01*
X109448815Y-41948815D01*
X109369463Y-42045506D01*
X109310498Y-42155820D01*
X109274188Y-42275518D01*
X109261928Y-42400000D01*
X107942315Y-42400000D01*
X108027000Y-41974265D01*
X108027000Y-41525735D01*
X107939496Y-41085824D01*
X107767851Y-40671436D01*
X107518661Y-40298497D01*
X107201503Y-39981339D01*
X106828564Y-39732149D01*
X106414176Y-39560504D01*
X105974265Y-39473000D01*
X105525735Y-39473000D01*
X105085824Y-39560504D01*
X104671436Y-39732149D01*
X104298497Y-39981339D01*
X103981339Y-40298497D01*
X103732149Y-40671436D01*
X103560504Y-41085824D01*
X103473000Y-41525735D01*
X102706000Y-41525735D01*
X102706000Y-40942605D01*
X102711273Y-40777372D01*
X102726483Y-40618517D01*
X102750932Y-40461707D01*
X102785180Y-40308008D01*
X102829614Y-40156267D01*
X102883540Y-40007127D01*
X102947021Y-39860698D01*
X103018450Y-39719522D01*
X103098835Y-39583872D01*
X103188427Y-39452019D01*
X103285210Y-39326622D01*
X103390016Y-39207563D01*
X103501563Y-39096016D01*
X103620622Y-38991210D01*
X103746016Y-38894430D01*
X103877870Y-38804837D01*
X104013514Y-38724455D01*
X104154726Y-38653008D01*
X104301132Y-38589538D01*
X104450269Y-38535613D01*
X104602022Y-38491176D01*
X104755706Y-38456932D01*
X104912532Y-38432481D01*
X105071369Y-38417273D01*
X105236606Y-38412000D01*
X164221395Y-38412000D01*
X164386628Y-38417273D01*
G37*
%TD.AperFunction*%
%TD*%
M02*
