%TF.GenerationSoftware,KiCad,Pcbnew,5.1.10*%
%TF.CreationDate,2021-06-19T09:57:27+02:00*%
%TF.ProjectId,RaspberryI2Cextender,52617370-6265-4727-9279-493243657874,rev?*%
%TF.SameCoordinates,Original*%
%TF.FileFunction,Soldermask,Bot*%
%TF.FilePolarity,Negative*%
%FSLAX46Y46*%
G04 Gerber Fmt 4.6, Leading zero omitted, Abs format (unit mm)*
G04 Created by KiCad (PCBNEW 5.1.10) date 2021-06-19 09:57:27*
%MOMM*%
%LPD*%
G01*
G04 APERTURE LIST*
%ADD10R,1.700000X1.700000*%
%ADD11O,1.700000X1.700000*%
%ADD12C,3.800000*%
G04 APERTURE END LIST*
D10*
%TO.C,J1*%
X110750000Y-43250000D03*
D11*
X110750000Y-40710000D03*
X113290000Y-43250000D03*
X113290000Y-40710000D03*
X115830000Y-43250000D03*
X115830000Y-40710000D03*
X118370000Y-43250000D03*
X118370000Y-40710000D03*
X120910000Y-43250000D03*
X120910000Y-40710000D03*
X123450000Y-43250000D03*
X123450000Y-40710000D03*
X125990000Y-43250000D03*
X125990000Y-40710000D03*
X128530000Y-43250000D03*
X128530000Y-40710000D03*
X131070000Y-43250000D03*
X131070000Y-40710000D03*
X133610000Y-43250000D03*
X133610000Y-40710000D03*
X136150000Y-43250000D03*
X136150000Y-40710000D03*
X138690000Y-43250000D03*
X138690000Y-40710000D03*
X141230000Y-43250000D03*
X141230000Y-40710000D03*
X143770000Y-43250000D03*
X143770000Y-40710000D03*
X146310000Y-43250000D03*
X146310000Y-40710000D03*
X148850000Y-43250000D03*
X148850000Y-40710000D03*
X151390000Y-43250000D03*
X151390000Y-40710000D03*
X153930000Y-43250000D03*
X153930000Y-40710000D03*
X156470000Y-43250000D03*
X156470000Y-40710000D03*
X159010000Y-43250000D03*
X159010000Y-40710000D03*
%TD*%
D12*
%TO.C,H1*%
X105750000Y-41750000D03*
%TD*%
%TO.C,H2*%
X105750000Y-90750000D03*
%TD*%
%TO.C,H3*%
X163750000Y-41750000D03*
%TD*%
%TO.C,H4*%
X163750000Y-90500000D03*
%TD*%
D11*
%TO.C,J8*%
X117475000Y-59055000D03*
X114935000Y-59055000D03*
X117475000Y-56515000D03*
X114935000Y-56515000D03*
X117475000Y-53975000D03*
X114935000Y-53975000D03*
X117475000Y-51435000D03*
D10*
X114935000Y-51435000D03*
%TD*%
%TO.C,J9*%
X114935000Y-65405000D03*
D11*
X117475000Y-65405000D03*
X114935000Y-67945000D03*
X117475000Y-67945000D03*
X114935000Y-70485000D03*
X117475000Y-70485000D03*
X114935000Y-73025000D03*
X117475000Y-73025000D03*
%TD*%
%TO.C,J10*%
X117475000Y-86995000D03*
X114935000Y-86995000D03*
X117475000Y-84455000D03*
X114935000Y-84455000D03*
X117475000Y-81915000D03*
X114935000Y-81915000D03*
X117475000Y-79375000D03*
D10*
X114935000Y-79375000D03*
%TD*%
%TO.C,J11*%
X153000000Y-65500000D03*
D11*
X155540000Y-65500000D03*
X153000000Y-68040000D03*
X155540000Y-68040000D03*
X153000000Y-70580000D03*
X155540000Y-70580000D03*
X153000000Y-73120000D03*
X155540000Y-73120000D03*
%TD*%
%TO.C,J12*%
X155575000Y-59055000D03*
X153035000Y-59055000D03*
X155575000Y-56515000D03*
X153035000Y-56515000D03*
X155575000Y-53975000D03*
X153035000Y-53975000D03*
X155575000Y-51435000D03*
D10*
X153035000Y-51435000D03*
%TD*%
%TO.C,J13*%
X153035000Y-79375000D03*
D11*
X155575000Y-79375000D03*
X153035000Y-81915000D03*
X155575000Y-81915000D03*
X153035000Y-84455000D03*
X155575000Y-84455000D03*
X153035000Y-86995000D03*
X155575000Y-86995000D03*
%TD*%
M02*
